<svg xmlns="http://www.w3.org/2000/svg" width="40" height="40" viewBox="0 0 40 40">
  <g id="_1" data-name="1" transform="translate(1308 208)">
    <g id="Grupo_8627" data-name="Grupo 8627" transform="translate(-1308 -208)">
      <g id="Elipse_1254" data-name="Elipse 1254" transform="translate(7.273 7.273)" fill="#ffe269" stroke="#fecb2f" stroke-miterlimit="10" stroke-width="1">
        <circle cx="12.727" cy="12.727" r="12.727" stroke="none"/>
        <circle cx="12.727" cy="12.727" r="12.227" fill="none"/>
      </g>
      <path id="Caminho_7488" data-name="Caminho 7488" d="M-1223.273-203.7a1.273,1.273,0,0,1-1.364,1.156h0A1.273,1.273,0,0,1-1226-203.7v-3.142a1.273,1.273,0,0,1,1.364-1.156h0a1.273,1.273,0,0,1,1.364,1.156Z" transform="translate(1244.636 208)" fill="#fecb2f"/>
      <path id="Caminho_7489" data-name="Caminho 7489" d="M-1223.273-51.7a1.273,1.273,0,0,1-1.364,1.156h0A1.273,1.273,0,0,1-1226-51.7v-3.142A1.273,1.273,0,0,1-1224.636-56h0a1.273,1.273,0,0,1,1.364,1.156Z" transform="translate(1244.636 90.545)" fill="#fecb2f"/>
      <path id="Caminho_7490" data-name="Caminho 7490" d="M-1174.482-179.74a1.273,1.273,0,0,1-1.782-.147h0a1.273,1.273,0,0,1-.147-1.782l2.222-2.222a1.273,1.273,0,0,1,1.782.147h0a1.273,1.273,0,0,1,.146,1.782Z" transform="translate(1206.549 189.602)" fill="#fecb2f"/>
      <path id="Caminho_7491" data-name="Caminho 7491" d="M-1281.962-72.26a1.273,1.273,0,0,1-1.782-.147h0a1.273,1.273,0,0,1-.147-1.782l2.222-2.222a1.272,1.272,0,0,1,1.781.147h0a1.273,1.273,0,0,1,.147,1.782Z" transform="translate(1289.602 106.549)" fill="#fecb2f"/>
      <path id="Caminho_7492" data-name="Caminho 7492" d="M-1154.844-123.273a1.273,1.273,0,0,1-1.156-1.364h0a1.272,1.272,0,0,1,1.156-1.363h3.143a1.273,1.273,0,0,1,1.156,1.364h0a1.273,1.273,0,0,1-1.156,1.364Z" transform="translate(1190.545 144.636)" fill="#fecb2f"/>
      <path id="Caminho_7493" data-name="Caminho 7493" d="M-1306.844-123.273a1.273,1.273,0,0,1-1.156-1.364h0a1.273,1.273,0,0,1,1.156-1.364h3.143a1.272,1.272,0,0,1,1.156,1.363h0a1.273,1.273,0,0,1-1.156,1.364Z" transform="translate(1308 144.636)" fill="#fecb2f"/>
      <path id="Caminho_7494" data-name="Caminho 7494" d="M-1176.41-74.482a1.272,1.272,0,0,1,.147-1.782h0a1.273,1.273,0,0,1,1.782-.147l2.222,2.222a1.273,1.273,0,0,1-.147,1.782h0a1.273,1.273,0,0,1-1.782.147Z" transform="translate(1206.549 106.549)" fill="#fecb2f"/>
      <path id="Caminho_7495" data-name="Caminho 7495" d="M-1283.891-181.962a1.273,1.273,0,0,1,.147-1.782h0a1.273,1.273,0,0,1,1.782-.147l2.222,2.222a1.273,1.273,0,0,1-.146,1.782h0a1.273,1.273,0,0,1-1.782.147Z" transform="translate(1289.602 189.602)" fill="#fecb2f"/>
    </g>
  </g>
</svg>
