<svg xmlns="http://www.w3.org/2000/svg" width="42.373" height="42.375" viewBox="0 0 42.373 42.375">
  <g id="_1n" data-name="1n" transform="translate(1308.5 -10.125)">
    <path id="Caminho_7324" data-name="Caminho 7324" d="M-1278.58,58.778a17.652,17.652,0,0,1-17.652-17.652,17.646,17.646,0,0,1,.758-5.125A17.657,17.657,0,0,0-1308,52.893a17.652,17.652,0,0,0,17.652,17.652,17.658,17.658,0,0,0,16.894-12.526A17.654,17.654,0,0,1-1278.58,58.778Z" transform="translate(0 -18.545)" fill="#f2f2f2" stroke="#c9c9c9" stroke-miterlimit="10" stroke-width="1"/>
    <path id="Caminho_7325" data-name="Caminho 7325" d="M-1237.129,14.871A6.5,6.5,0,0,1-1240,16.545a6.5,6.5,0,0,1,2.871,1.674,6.5,6.5,0,0,1,1.674,2.871,6.5,6.5,0,0,1,1.674-2.871,6.5,6.5,0,0,1,2.871-1.674,6.5,6.5,0,0,1-2.871-1.674A6.5,6.5,0,0,1-1235.455,12,6.5,6.5,0,0,1-1237.129,14.871Z" transform="translate(-52.545)" fill="#f2f2f2" stroke="#c9c9c9" stroke-miterlimit="10" stroke-width="1"/>
    <path id="Caminho_7326" data-name="Caminho 7326" d="M-1209.991,74.01a4.55,4.55,0,0,1-2.01,1.172,4.552,4.552,0,0,1,2.01,1.172,4.554,4.554,0,0,1,1.172,2.01,4.552,4.552,0,0,1,1.172-2.01,4.551,4.551,0,0,1,2.01-1.172,4.552,4.552,0,0,1-2.01-1.172,4.552,4.552,0,0,1-1.172-2.01A4.554,4.554,0,0,1-1209.991,74.01Z" transform="translate(-74.181 -46.364)" fill="#f2f2f2" stroke="#c9c9c9" stroke-miterlimit="10" stroke-width="1"/>
    <path id="Caminho_7327" data-name="Caminho 7327" d="M-1157.99,86.01a4.549,4.549,0,0,1-2.01,1.172,4.551,4.551,0,0,1,2.01,1.172,4.55,4.55,0,0,1,1.172,2.01,4.554,4.554,0,0,1,1.172-2.01,4.554,4.554,0,0,1,2.01-1.172,4.552,4.552,0,0,1-2.01-1.172,4.554,4.554,0,0,1-1.172-2.01A4.55,4.55,0,0,1-1157.99,86.01Z" transform="translate(-114.364 -55.636)" fill="#f2f2f2" stroke="#c9c9c9" stroke-miterlimit="10" stroke-width="1"/>
  </g>
</svg>
