<svg xmlns="http://www.w3.org/2000/svg" width="40" height="40" viewBox="0 0 40 40">
  <g id="_2" data-name="2" transform="translate(1088 208)">
    <g id="Grupo_8625" data-name="Grupo 8625" transform="translate(-1082.545 -208)">
      <path id="Caminho_7469" data-name="Caminho 7469" d="M-1041.513-90.77a1.1,1.1,0,0,1-1.539-.127h0a1.1,1.1,0,0,1-.127-1.539l1.919-1.919a1.1,1.1,0,0,1,1.539.127h0a1.1,1.1,0,0,1,.127,1.539Z" transform="translate(1048.111 120.383)" fill="#fecb2f"/>
      <path id="Caminho_7470" data-name="Caminho 7470" d="M-990.828-204.288a1.1,1.1,0,0,1-1.178,1h0a1.1,1.1,0,0,1-1.178-1V-207a1.1,1.1,0,0,1,1.178-1h0a1.1,1.1,0,0,1,1.178,1Z" transform="translate(1009.278 208)" fill="#fecb2f"/>
      <path id="Caminho_7471" data-name="Caminho 7471" d="M-990.828-73.015a1.1,1.1,0,0,1-1.178,1h0a1.1,1.1,0,0,1-1.178-1v-2.714a1.1,1.1,0,0,1,1.178-1h0a1.1,1.1,0,0,1,1.178,1Z" transform="translate(1009.278 106.562)" fill="#fecb2f"/>
      <path id="Caminho_7472" data-name="Caminho 7472" d="M-948.69-183.594a1.1,1.1,0,0,1-1.539-.127h0a1.1,1.1,0,0,1-.127-1.539l1.919-1.919a1.1,1.1,0,0,1,1.539.127h0a1.1,1.1,0,0,1,.127,1.539Z" transform="translate(976.384 192.111)" fill="#fecb2f"/>
      <path id="Caminho_7473" data-name="Caminho 7473" d="M-931.729-134.827a1.1,1.1,0,0,1-1-1.178h0a1.1,1.1,0,0,1,1-1.178h2.714a1.1,1.1,0,0,1,1,1.178h0a1.1,1.1,0,0,1-1,1.178Z" transform="translate(962.562 153.277)" fill="#fecb2f"/>
      <path id="Caminho_7474" data-name="Caminho 7474" d="M-1063-134.826a1.1,1.1,0,0,1-1-1.178h0a1.1,1.1,0,0,1,1-1.178h2.714a1.1,1.1,0,0,1,1,1.178h0a1.1,1.1,0,0,1-1,1.178Z" transform="translate(1064 153.277)" fill="#fecb2f"/>
      <path id="Caminho_7475" data-name="Caminho 7475" d="M-950.355-92.689a1.1,1.1,0,0,1,.127-1.539h0a1.1,1.1,0,0,1,1.539-.127l1.919,1.919A1.1,1.1,0,0,1-946.9-90.9h0a1.1,1.1,0,0,1-1.539.127Z" transform="translate(976.383 120.383)" fill="#fecb2f"/>
      <path id="Caminho_7476" data-name="Caminho 7476" d="M-1043.179-185.513a1.1,1.1,0,0,1,.127-1.539h0a1.1,1.1,0,0,1,1.539-.127l1.919,1.919a1.1,1.1,0,0,1-.127,1.539h0a1.1,1.1,0,0,1-1.539.127Z" transform="translate(1048.111 192.111)" fill="#fecb2f"/>
      <path id="Caminho_7477" data-name="Caminho 7477" d="M-1025.372-180.364a10.992,10.992,0,0,0-10.992,10.992,11.022,11.022,0,0,0,.2,2.1,8.564,8.564,0,0,1,1.7-.169,8.525,8.525,0,0,1,8.252,6.383,8.034,8.034,0,0,1,4.76,1.955,10.994,10.994,0,0,0,7.071-10.269A10.992,10.992,0,0,0-1025.372-180.364Z" transform="translate(1042.645 186.645)" fill="#fecb2f"/>
    </g>
    <g id="Grupo_8626" data-name="Grupo 8626" transform="translate(-1082.545 -208)">
      <g id="Caminho_7478" data-name="Caminho 7478" transform="translate(1042.644 186.643)" fill="#ffe269" stroke-miterlimit="10">
        <path d="M -1025.371704101562 -158.8790588378906 C -1028.174194335938 -158.8790588378906 -1030.808715820312 -159.9703521728516 -1032.790283203125 -161.951904296875 C -1034.771728515625 -163.9334564208984 -1035.863037109375 -166.5681457519531 -1035.863037109375 -169.3706512451172 C -1035.863037109375 -175.1555938720703 -1031.156616210938 -179.8619995117188 -1025.371704101562 -179.8619995117188 C -1019.586608886719 -179.8619995117188 -1014.880126953125 -175.1555938720703 -1014.880126953125 -169.3706512451172 C -1014.880126953125 -166.5681457519531 -1015.971435546875 -163.9334564208984 -1017.952941894531 -161.951904296875 C -1019.934509277344 -159.9703521728516 -1022.569213867188 -158.8790588378906 -1025.371704101562 -158.8790588378906 Z" stroke="none"/>
        <path d="M -1025.371704101562 -179.3619995117188 C -1030.880859375 -179.3619995117188 -1035.363037109375 -174.8798980712891 -1035.363037109375 -169.3706512451172 C -1035.363037109375 -163.8612670898438 -1030.880859375 -159.3790588378906 -1025.371704101562 -159.3790588378906 C -1019.8623046875 -159.3790588378906 -1015.380126953125 -163.8612670898438 -1015.380126953125 -169.3706512451172 C -1015.380126953125 -174.8798980712891 -1019.8623046875 -179.3619995117188 -1025.371704101562 -179.3619995117188 M -1025.371704101562 -180.3619995117188 C -1019.301025390625 -180.3619995117188 -1014.380126953125 -175.4410858154297 -1014.380126953125 -169.3706512451172 C -1014.380126953125 -163.2999572753906 -1019.301025390625 -158.3790588378906 -1025.371704101562 -158.3790588378906 C -1031.442260742188 -158.3790588378906 -1036.363037109375 -163.2999572753906 -1036.363037109375 -169.3706512451172 C -1036.363037109375 -175.4410858154297 -1031.442260742188 -180.3619995117188 -1025.371704101562 -180.3619995117188 Z" stroke="none" fill="#fecb2f"/>
      </g>
      <path id="Caminho_7479" data-name="Caminho 7479" d="M-990.827-204.288a1.1,1.1,0,0,1-1.178,1h0a1.1,1.1,0,0,1-1.177-1V-207A1.1,1.1,0,0,1-992-208h0a1.1,1.1,0,0,1,1.178,1Z" transform="translate(1009.277 208)" fill="#fecb2f"/>
      <path id="Caminho_7480" data-name="Caminho 7480" d="M-990.827-73.015a1.1,1.1,0,0,1-1.178,1h0a1.1,1.1,0,0,1-1.177-1v-2.714a1.1,1.1,0,0,1,1.177-1h0a1.1,1.1,0,0,1,1.178,1Z" transform="translate(1009.277 106.562)" fill="#fecb2f"/>
      <path id="Caminho_7481" data-name="Caminho 7481" d="M-948.69-183.594a1.1,1.1,0,0,1-1.539-.126h0a1.1,1.1,0,0,1-.127-1.539l1.919-1.919a1.1,1.1,0,0,1,1.539.127h0a1.1,1.1,0,0,1,.126,1.539Z" transform="translate(976.384 192.111)" fill="#fecb2f"/>
      <path id="Caminho_7482" data-name="Caminho 7482" d="M-1041.514-90.771a1.1,1.1,0,0,1-1.539-.126h0a1.1,1.1,0,0,1-.127-1.539l1.919-1.919a1.1,1.1,0,0,1,1.539.127h0a1.1,1.1,0,0,1,.127,1.539Z" transform="translate(1048.111 120.383)" fill="#fecb2f"/>
      <path id="Caminho_7483" data-name="Caminho 7483" d="M-931.73-134.827a1.1,1.1,0,0,1-1-1.178h0a1.1,1.1,0,0,1,1-1.178h2.714a1.1,1.1,0,0,1,1,1.178h0a1.1,1.1,0,0,1-1,1.178Z" transform="translate(962.563 153.277)" fill="#fecb2f"/>
      <path id="Caminho_7484" data-name="Caminho 7484" d="M-1063-134.827a1.1,1.1,0,0,1-1-1.178h0a1.1,1.1,0,0,1,1-1.178h2.714a1.1,1.1,0,0,1,1,1.178h0a1.1,1.1,0,0,1-1,1.178Z" transform="translate(1064 153.277)" fill="#fecb2f"/>
      <path id="Caminho_7485" data-name="Caminho 7485" d="M-950.355-92.689a1.1,1.1,0,0,1,.126-1.539h0a1.1,1.1,0,0,1,1.539-.127l1.919,1.919A1.1,1.1,0,0,1-946.9-90.9h0a1.1,1.1,0,0,1-1.539.127Z" transform="translate(976.384 120.383)" fill="#fecb2f"/>
      <path id="Caminho_7486" data-name="Caminho 7486" d="M-1043.179-185.513a1.1,1.1,0,0,1,.127-1.539h0a1.1,1.1,0,0,1,1.539-.127l1.919,1.919a1.1,1.1,0,0,1-.127,1.539h0a1.1,1.1,0,0,1-1.539.127Z" transform="translate(1048.111 192.111)" fill="#fecb2f"/>
    </g>
    <g id="Caminho_7487" data-name="Caminho 7487" transform="translate(0 -71.091)" fill="#fff" stroke-miterlimit="10">
      <path d="M -1066.636474609375 -97.40908050537109 L -1081.1083984375 -97.40908050537109 L -1081.233764648438 -97.41044616699219 C -1082.910522460938 -97.42399597167969 -1084.484741210938 -98.08704376220703 -1085.666381835938 -99.27743530273438 C -1086.848876953125 -100.4685668945312 -1087.500122070312 -102.0489654541016 -1087.500122070312 -103.7274932861328 C -1087.500122070312 -107.2112274169922 -1084.665893554688 -110.0454559326172 -1081.182250976562 -110.0454559326172 C -1081.160034179688 -110.0454559326172 -1081.137939453125 -110.0446243286133 -1081.115966796875 -110.0438842773438 C -1081.095825195312 -110.0432052612305 -1081.075805664062 -110.0425415039062 -1081.0556640625 -110.0421524047852 L -1080.638549804688 -110.033935546875 L -1080.5556640625 -110.4428253173828 C -1079.96240234375 -113.3731536865234 -1077.3583984375 -115.5000076293945 -1074.364013671875 -115.5000076293945 C -1071.014526367188 -115.5000076293945 -1068.243774414062 -112.8826370239258 -1068.056274414062 -109.5413131713867 L -1068.025756835938 -108.9965057373047 L -1067.485717773438 -109.0744552612305 C -1067.201049804688 -109.1155319213867 -1066.915283203125 -109.1363677978516 -1066.636474609375 -109.1363677978516 C -1063.403198242188 -109.1363677978516 -1060.772827148438 -106.5060424804688 -1060.772827148438 -103.2729415893555 C -1060.772827148438 -100.0396041870117 -1063.403198242188 -97.40908050537109 -1066.636474609375 -97.40908050537109 Z" stroke="none"/>
      <path d="M -1074.364013671875 -115.0000076293945 C -1077.121459960938 -115.0000076293945 -1079.519287109375 -113.0416946411133 -1080.065673828125 -110.3435821533203 L -1080.231323242188 -109.5258026123047 L -1081.0654296875 -109.5422439575195 C -1081.088012695312 -109.5426940917969 -1081.1103515625 -109.5434112548828 -1081.132690429688 -109.5441665649414 C -1081.149169921875 -109.5447158813477 -1081.165649414062 -109.5454559326172 -1081.182250976562 -109.5454559326172 C -1084.390258789062 -109.5454559326172 -1087.000122070312 -106.9355239868164 -1087.000122070312 -103.7274932861328 C -1087.000122070312 -102.1818237304688 -1086.400512695312 -100.7265319824219 -1085.311645507812 -99.62969207763672 C -1084.223388671875 -98.53349304199219 -1082.773681640625 -97.92291259765625 -1081.229736328125 -97.91043090820312 L -1081.087280273438 -97.90908050537109 L -1066.636474609375 -97.90908050537109 C -1063.678955078125 -97.90908050537109 -1061.272827148438 -100.3153076171875 -1061.272827148438 -103.2729568481445 C -1061.272827148438 -106.2303466796875 -1063.678955078125 -108.6363677978516 -1066.636474609375 -108.6363677978516 C -1066.891479492188 -108.6363677978516 -1067.153198242188 -108.6172561645508 -1067.414306640625 -108.5795745849609 L -1068.494384765625 -108.4236907958984 L -1068.555541992188 -109.5132904052734 C -1068.728149414062 -112.5899505615234 -1071.279541015625 -115.0000076293945 -1074.364013671875 -115.0000076293945 M -1074.364013671875 -116.0000076293945 C -1070.728271484375 -116.0000076293945 -1067.75830078125 -113.154541015625 -1067.55712890625 -109.5693206787109 C -1067.25634765625 -109.6127319335938 -1066.949340820312 -109.6363677978516 -1066.636474609375 -109.6363677978516 C -1063.121704101562 -109.6363677978516 -1060.272827148438 -106.7872772216797 -1060.272827148438 -103.2729568481445 C -1060.272827148438 -99.75819396972656 -1063.121704101562 -96.90908050537109 -1066.636474609375 -96.90908050537109 L -1081.23779296875 -96.90908050537109 L -1081.23779296875 -96.91046142578125 C -1084.977294921875 -96.94069671630859 -1088.000122070312 -99.98045349121094 -1088.000122070312 -103.7274932861328 C -1088.000122070312 -107.4927215576172 -1084.947265625 -110.5454559326172 -1081.182250976562 -110.5454559326172 C -1081.136474609375 -110.5454559326172 -1081.091430664062 -110.5429534912109 -1081.045776367188 -110.5420532226562 C -1080.415283203125 -113.6556777954102 -1077.663452148438 -116.0000076293945 -1074.364013671875 -116.0000076293945 Z" stroke="none" fill="#c9c9c9"/>
    </g>
  </g>
</svg>
