<svg xmlns="http://www.w3.org/2000/svg" width="41.871" height="41.874" viewBox="0 0 41.871 41.874">
  <g id="_2n" data-name="2n" transform="translate(1088 -10.126)">
    <g id="Grupo_8611" data-name="Grupo 8611" transform="translate(-1064.364 12)">
      <path id="Caminho_7320" data-name="Caminho 7320" d="M-981.336,14.664A6.034,6.034,0,0,1-984,16.217a6.028,6.028,0,0,1,2.664,1.553,6.032,6.032,0,0,1,1.553,2.663,6.03,6.03,0,0,1,1.553-2.663,6.028,6.028,0,0,1,2.663-1.553,6.032,6.032,0,0,1-2.663-1.553A6.031,6.031,0,0,1-979.783,12,6.032,6.032,0,0,1-981.336,14.664Z" transform="translate(984 -12)" fill="#f2f2f2" stroke="#c9c9c9" stroke-miterlimit="10" stroke-width="1"/>
      <path id="Caminho_7321" data-name="Caminho 7321" d="M-936.123,59.888a4.224,4.224,0,0,1-1.865,1.087,4.224,4.224,0,0,1,1.865,1.087,4.223,4.223,0,0,1,1.087,1.865,4.224,4.224,0,0,1,1.087-1.865,4.223,4.223,0,0,1,1.865-1.087,4.225,4.225,0,0,1-1.865-1.087,4.226,4.226,0,0,1-1.087-1.865A4.225,4.225,0,0,1-936.123,59.888Z" transform="translate(948.445 -47.563)" fill="#f2f2f2" stroke="#c9c9c9" stroke-miterlimit="10" stroke-width="1"/>
    </g>
    <g id="Caminho_7322" data-name="Caminho 7322" transform="translate(-27.818)" fill="#f2f2f2" stroke-miterlimit="10">
      <path d="M -1035.741577148438 43.31818008422852 C -1039.950805664062 43.31818008422852 -1043.908203125 41.67901992797852 -1046.884521484375 38.70264053344727 C -1049.860961914062 35.72624969482422 -1051.500122070312 31.76889038085938 -1051.500122070312 27.55954933166504 C -1051.500122070312 24.11017990112305 -1050.405883789062 20.83500099182129 -1048.335571289062 18.08809089660645 C -1047.339477539062 16.76630973815918 -1046.14794921875 15.61361026763916 -1044.794311523438 14.66201019287109 C -1043.674926757812 13.87513065338135 -1042.466064453125 13.24116802215576 -1041.190551757812 12.77130603790283 C -1041.503173828125 14.06245040893555 -1041.661254882812 15.38693714141846 -1041.661254882812 16.72068023681641 C -1041.661254882812 21.19705009460449 -1039.918090820312 25.40550994873047 -1036.752807617188 28.5707893371582 C -1033.587646484375 31.73611068725586 -1029.379150390625 33.47932052612305 -1024.90283203125 33.47932052612305 C -1023.568664550781 33.47932052612305 -1022.244140625 33.32122039794922 -1020.953247070312 33.00860214233398 C -1021.423156738281 34.28406524658203 -1022.057067871094 35.49288940429688 -1022.843933105469 36.61227035522461 C -1023.795532226562 37.96598815917969 -1024.9482421875 39.15747833251953 -1026.27001953125 40.15365982055664 C -1029.016967773438 42.22391128540039 -1032.292114257812 43.31818008422852 -1035.741577148438 43.31818008422852 Z" stroke="none"/>
      <path d="M -1035.741577148438 42.81818008422852 C -1032.401611328125 42.81818008422852 -1029.23046875 41.75873184204102 -1026.570922851562 39.75436019897461 C -1025.290893554688 38.78961944580078 -1024.174560546875 37.63571929931641 -1023.252990722656 36.32472991943359 C -1022.669738769531 35.49499893188477 -1022.173278808594 34.61457061767578 -1021.768432617188 33.69332885742188 C -1022.799987792969 33.88345336914062 -1023.848449707031 33.97932052612305 -1024.90283203125 33.97932052612305 C -1027.232299804688 33.97932052612305 -1029.492553710938 33.52286148071289 -1031.620971679688 32.62263107299805 C -1033.676147460938 31.75332069396973 -1035.521728515625 30.50902938842773 -1037.1064453125 28.92433929443359 C -1038.691040039062 27.33966064453125 -1039.935302734375 25.49405097961426 -1040.804565429688 23.43878936767578 C -1041.704833984375 21.31042098999023 -1042.161254882812 19.05011940002441 -1042.161254882812 16.72068023681641 C -1042.161254882812 15.66659259796143 -1042.0654296875 14.61813259124756 -1041.875244140625 13.58646678924561 C -1042.796508789062 13.99128818511963 -1043.677001953125 14.48779582977295 -1044.506713867188 15.07106018066406 C -1045.817749023438 15.99263000488281 -1046.971557617188 17.10894966125488 -1047.936279296875 18.38903045654297 C -1049.940673828125 21.04851913452148 -1051.000122070312 24.21964073181152 -1051.000122070312 27.55954933166504 C -1051.000122070312 31.63533020019531 -1049.412963867188 35.46712875366211 -1046.531005859375 38.34909057617188 C -1043.649047851562 41.23102188110352 -1039.817260742188 42.81818008422852 -1035.741577148438 42.81818008422852 M -1035.741577148438 43.81818008422852 C -1044.720947265625 43.81818008422852 -1052.000122070312 36.53908920288086 -1052.000122070312 27.55954933166504 C -1052.000122070312 20.22273063659668 -1047.138793945312 14.02318000793457 -1040.462524414062 12 C -1040.915283203125 13.49431991577148 -1041.161254882812 15.07863998413086 -1041.161254882812 16.72068023681641 C -1041.161254882812 25.70000076293945 -1033.882202148438 32.97932052612305 -1024.90283203125 32.97932052612305 C -1023.260620117188 32.97932052612305 -1021.676147460938 32.7334098815918 -1020.181884765625 32.28044891357422 C -1022.205200195312 38.95682144165039 -1028.404541015625 43.81818008422852 -1035.741577148438 43.81818008422852 Z" stroke="none" fill="#c9c9c9"/>
    </g>
    <g id="Caminho_7323" data-name="Caminho 7323" transform="translate(0 -71.091)" fill="#fff" stroke-miterlimit="10">
      <path d="M -1066.636474609375 122.5909194946289 L -1081.1083984375 122.5909194946289 L -1081.233764648438 122.5895538330078 C -1082.910522460938 122.5760040283203 -1084.484741210938 121.9129638671875 -1085.666381835938 120.7225646972656 C -1086.848876953125 119.5314331054688 -1087.500122070312 117.9510345458984 -1087.500122070312 116.2724990844727 C -1087.500122070312 112.7887649536133 -1084.665893554688 109.9545440673828 -1081.182250976562 109.9545440673828 C -1081.160766601562 109.9545440673828 -1081.139526367188 109.9554290771484 -1081.118286132812 109.956184387207 C -1081.097534179688 109.9569473266602 -1081.076782226562 109.9576721191406 -1081.055786132812 109.9580993652344 L -1080.638549804688 109.9665069580078 L -1080.5556640625 109.5574264526367 C -1079.96240234375 106.6269454956055 -1077.3583984375 104.4999923706055 -1074.364013671875 104.4999923706055 C -1071.014526367188 104.4999923706055 -1068.243896484375 107.1174621582031 -1068.056274414062 110.4589157104492 L -1068.025756835938 111.0045471191406 L -1067.484985351562 110.9256744384766 C -1067.202758789062 110.8845062255859 -1066.917236328125 110.8636322021484 -1066.636474609375 110.8636322021484 C -1063.403198242188 110.8636322021484 -1060.772827148438 113.4939575195312 -1060.772827148438 116.7270584106445 C -1060.772827148438 119.9603958129883 -1063.403198242188 122.5909194946289 -1066.636474609375 122.5909194946289 Z" stroke="none"/>
      <path d="M -1074.364013671875 104.9999923706055 C -1077.121459960938 104.9999923706055 -1079.519287109375 106.9583969116211 -1080.065673828125 109.6566390991211 L -1080.231323242188 110.4746170043945 L -1081.065673828125 110.4579849243164 C -1081.08935546875 110.45751953125 -1081.112915039062 110.4567031860352 -1081.136474609375 110.4558563232422 C -1081.151733398438 110.4553070068359 -1081.166870117188 110.4545440673828 -1081.182250976562 110.4545440673828 C -1084.390258789062 110.4545440673828 -1087.000122070312 113.0644683837891 -1087.000122070312 116.2724990844727 C -1087.000122070312 117.8181686401367 -1086.400512695312 119.2734680175781 -1085.311645507812 120.3703079223633 C -1084.223388671875 121.4665145874023 -1082.773681640625 122.0770950317383 -1081.229736328125 122.0895690917969 L -1081.087280273438 122.0909194946289 L -1066.636474609375 122.0909194946289 C -1063.678955078125 122.0909194946289 -1061.272827148438 119.6846923828125 -1061.272827148438 116.7270431518555 C -1061.272827148438 113.7696533203125 -1063.678955078125 111.3636322021484 -1066.636474609375 111.3636322021484 C -1066.893188476562 111.3636322021484 -1067.154418945312 111.3827438354492 -1067.412841796875 111.4204330444336 L -1068.494384765625 111.5781784057617 L -1068.555541992188 110.4869384765625 C -1068.728149414062 107.4101486206055 -1071.279541015625 104.9999923706055 -1074.364013671875 104.9999923706055 M -1074.364013671875 103.9999923706055 C -1070.728271484375 103.9999923706055 -1067.75830078125 106.8456878662109 -1067.55712890625 110.430908203125 C -1067.25634765625 110.3870391845703 -1066.949340820312 110.3636322021484 -1066.636474609375 110.3636322021484 C -1063.121704101562 110.3636322021484 -1060.272827148438 113.2127227783203 -1060.272827148438 116.7270431518555 C -1060.272827148438 120.241828918457 -1063.121704101562 123.0909194946289 -1066.636474609375 123.0909194946289 L -1081.23779296875 123.0909194946289 L -1081.23779296875 123.0895385742188 C -1084.977294921875 123.059326171875 -1088.000122070312 120.0195465087891 -1088.000122070312 116.2724990844727 C -1088.000122070312 112.5072784423828 -1084.947265625 109.4545440673828 -1081.182250976562 109.4545440673828 C -1081.136474609375 109.4545440673828 -1081.091430664062 109.457275390625 -1081.045776367188 109.4581832885742 C -1080.415283203125 106.3443222045898 -1077.663452148438 103.9999923706055 -1074.364013671875 103.9999923706055 Z" stroke="none" fill="#c9c9c9"/>
    </g>
  </g>
</svg>
