<svg xmlns="http://www.w3.org/2000/svg" width="40" height="40" viewBox="0 0 40 40">
  <g id="_2r" data-name="2r" transform="translate(868 208)">
    <g id="Grupo_8622" data-name="Grupo 8622" transform="translate(-862.545 -208)">
      <path id="Caminho_7446" data-name="Caminho 7446" d="M-823.179-185.513a1.1,1.1,0,0,1,.127-1.539h0a1.1,1.1,0,0,1,1.539-.127l1.919,1.919a1.1,1.1,0,0,1-.127,1.539h0a1.1,1.1,0,0,1-1.539.127Z" transform="translate(828.111 192.111)" fill="#fecb2f"/>
      <path id="Caminho_7447" data-name="Caminho 7447" d="M-812.078-171.076a9.888,9.888,0,0,1,9.4,6.835,7.593,7.593,0,0,1,2.641-.471,7.575,7.575,0,0,1,4.077,1.185,10.923,10.923,0,0,0,1.687-5.844,10.991,10.991,0,0,0-10.992-10.992,10.989,10.989,0,0,0-10.959,10.2A9.851,9.851,0,0,1-812.078-171.076Z" transform="translate(822.532 186.644)" fill="#fecb2f"/>
      <path id="Caminho_7448" data-name="Caminho 7448" d="M-770.827-204.288a1.1,1.1,0,0,1-1.178,1h0a1.1,1.1,0,0,1-1.178-1V-207A1.1,1.1,0,0,1-772-208h0a1.1,1.1,0,0,1,1.178,1Z" transform="translate(789.277 208)" fill="#fecb2f"/>
      <path id="Caminho_7449" data-name="Caminho 7449" d="M-770.827-73.015a1.1,1.1,0,0,1-1.178,1h0a1.1,1.1,0,0,1-1.178-1v-2.714a1.1,1.1,0,0,1,1.178-1h0a1.1,1.1,0,0,1,1.178,1Z" transform="translate(789.277 106.562)" fill="#fecb2f"/>
      <path id="Caminho_7450" data-name="Caminho 7450" d="M-728.689-183.594a1.1,1.1,0,0,1-1.539-.127h0a1.1,1.1,0,0,1-.127-1.539l1.919-1.919a1.1,1.1,0,0,1,1.539.127h0a1.1,1.1,0,0,1,.127,1.539Z" transform="translate(756.384 192.111)" fill="#fecb2f"/>
      <path id="Caminho_7451" data-name="Caminho 7451" d="M-821.513-90.771a1.1,1.1,0,0,1-1.539-.127h0a1.1,1.1,0,0,1-.127-1.539l1.919-1.919a1.1,1.1,0,0,1,1.539.127h0a1.1,1.1,0,0,1,.127,1.539Z" transform="translate(828.111 120.383)" fill="#fecb2f"/>
      <path id="Caminho_7452" data-name="Caminho 7452" d="M-711.729-134.827a1.1,1.1,0,0,1-1-1.178h0a1.1,1.1,0,0,1,1-1.178h2.714a1.1,1.1,0,0,1,1,1.178h0a1.1,1.1,0,0,1-1,1.178Z" transform="translate(742.562 153.277)" fill="#fecb2f"/>
      <path id="Caminho_7453" data-name="Caminho 7453" d="M-843-134.827A1.1,1.1,0,0,1-844-136h0a1.1,1.1,0,0,1,1-1.178h2.714a1.1,1.1,0,0,1,1,1.178h0a1.1,1.1,0,0,1-1,1.178Z" transform="translate(844 153.277)" fill="#fecb2f"/>
    </g>
    <g id="Grupo_8623" data-name="Grupo 8623" transform="translate(-868 -190.727)">
      <path id="Caminho_7454" data-name="Caminho 7454" d="M-759.182-98.091a5.909,5.909,0,0,1-5.909,5.909A5.909,5.909,0,0,1-771-98.091a5.909,5.909,0,0,1,5.909-5.91A5.909,5.909,0,0,1-759.182-98.091Z" transform="translate(793.045 110.364)" fill="#b7b6b6"/>
      <path id="Caminho_7455" data-name="Caminho 7455" d="M-783.182-78.091a5.909,5.909,0,0,1-5.909,5.909A5.909,5.909,0,0,1-795-78.091,5.909,5.909,0,0,1-789.091-84,5.909,5.909,0,0,1-783.182-78.091Z" transform="translate(811.591 94.909)" fill="#b7b6b6"/>
      <path id="Caminho_7456" data-name="Caminho 7456" d="M-727.545-72.773a5.227,5.227,0,0,1-5.227,5.227A5.227,5.227,0,0,1-738-72.773,5.227,5.227,0,0,1-732.773-78,5.227,5.227,0,0,1-727.545-72.773Z" transform="translate(767.545 90.273)" fill="#b7b6b6"/>
      <rect id="Retângulo_5844" data-name="Retângulo 5844" width="12.436" height="5.564" transform="translate(22.728 17.156)" fill="#b7b6b6"/>
      <path id="Caminho_7457" data-name="Caminho 7457" d="M-749.019-52.97a7.062,7.062,0,0,1-2.7,3.443,7.5,7.5,0,0,0,6.144-5.071A7.022,7.022,0,0,1-749.019-52.97Z" transform="translate(778.144 72.19)" fill="#b7b6b6"/>
      <path id="Caminho_7458" data-name="Caminho 7458" d="M-852.546-115.182a7.045,7.045,0,0,1,5.875-6.947,7.062,7.062,0,0,1,2.585-3.369,8.182,8.182,0,0,0-8.005-6.5,8.183,8.183,0,0,0-7.978,6.37A8.18,8.18,0,0,0-868-117.455a8.182,8.182,0,0,0,8.182,8.182h10.483A7.038,7.038,0,0,1-852.546-115.182Z" transform="translate(868 132)" fill="#b7b6b6"/>
    </g>
    <g id="Grupo_8624" data-name="Grupo 8624" transform="translate(-862.545 -208)">
      <g id="Caminho_7459" data-name="Caminho 7459" transform="translate(822.644 186.643)" fill="#ffe269" stroke-miterlimit="10">
        <path d="M -805.3716430664062 -158.8790588378906 C -811.1565551757812 -158.8790588378906 -815.8629760742188 -163.5855865478516 -815.8629760742188 -169.3706665039062 C -815.8629760742188 -175.1556091308594 -811.1565551757812 -179.8619995117188 -805.3716430664062 -179.8619995117188 C -799.5865478515625 -179.8619995117188 -794.8800659179688 -175.1556091308594 -794.8800659179688 -169.3706665039062 C -794.8800659179688 -166.5681610107422 -795.9713745117188 -163.9334564208984 -797.952880859375 -161.951904296875 C -799.9344482421875 -159.9703521728516 -802.5691528320312 -158.8790588378906 -805.3716430664062 -158.8790588378906 Z" stroke="none"/>
        <path d="M -805.3716430664062 -179.3619995117188 C -810.880859375 -179.3619995117188 -815.3629760742188 -174.8799133300781 -815.3629760742188 -169.3706665039062 C -815.3629760742188 -163.8612823486328 -810.880859375 -159.3790588378906 -805.3716430664062 -159.3790588378906 C -799.8622436523438 -159.3790588378906 -795.3800659179688 -163.8612823486328 -795.3800659179688 -169.3706665039062 C -795.3800659179688 -174.8799133300781 -799.8622436523438 -179.3619995117188 -805.3716430664062 -179.3619995117188 M -805.3716430664062 -180.3619995117188 C -799.3009643554688 -180.3619995117188 -794.3800659179688 -175.4410858154297 -794.3800659179688 -169.3706665039062 C -794.3800659179688 -163.2999572753906 -799.3009643554688 -158.3790588378906 -805.3716430664062 -158.3790588378906 C -811.4420776367188 -158.3790588378906 -816.3629760742188 -163.2999572753906 -816.3629760742188 -169.3706665039062 C -816.3629760742188 -175.4410858154297 -811.4420776367188 -180.3619995117188 -805.3716430664062 -180.3619995117188 Z" stroke="none" fill="#fecb2f"/>
      </g>
      <path id="Caminho_7460" data-name="Caminho 7460" d="M-770.827-204.288a1.1,1.1,0,0,1-1.178,1h0a1.1,1.1,0,0,1-1.178-1V-207A1.1,1.1,0,0,1-772-208h0a1.1,1.1,0,0,1,1.178,1Z" transform="translate(789.277 208)" fill="#fecb2f"/>
      <path id="Caminho_7461" data-name="Caminho 7461" d="M-770.827-73.015a1.1,1.1,0,0,1-1.178,1h0a1.1,1.1,0,0,1-1.178-1v-2.714a1.1,1.1,0,0,1,1.178-1h0a1.1,1.1,0,0,1,1.178,1Z" transform="translate(789.277 106.562)" fill="#fecb2f"/>
      <path id="Caminho_7462" data-name="Caminho 7462" d="M-728.69-183.594a1.1,1.1,0,0,1-1.539-.126h0a1.1,1.1,0,0,1-.127-1.539l1.919-1.919a1.1,1.1,0,0,1,1.539.127h0a1.1,1.1,0,0,1,.127,1.539Z" transform="translate(756.384 192.111)" fill="#fecb2f"/>
      <path id="Caminho_7463" data-name="Caminho 7463" d="M-821.514-90.771a1.1,1.1,0,0,1-1.539-.126h0a1.1,1.1,0,0,1-.127-1.539l1.919-1.919a1.1,1.1,0,0,1,1.539.127h0a1.1,1.1,0,0,1,.127,1.539Z" transform="translate(828.111 120.383)" fill="#fecb2f"/>
      <path id="Caminho_7464" data-name="Caminho 7464" d="M-711.73-134.827a1.1,1.1,0,0,1-1-1.178h0a1.1,1.1,0,0,1,1-1.178h2.714a1.1,1.1,0,0,1,1,1.178h0a1.1,1.1,0,0,1-1,1.178Z" transform="translate(742.563 153.277)" fill="#fecb2f"/>
      <path id="Caminho_7465" data-name="Caminho 7465" d="M-843-134.827A1.1,1.1,0,0,1-844-136h0a1.1,1.1,0,0,1,1-1.178h2.714a1.1,1.1,0,0,1,1,1.178h0a1.1,1.1,0,0,1-1,1.178Z" transform="translate(844 153.277)" fill="#fecb2f"/>
      <path id="Caminho_7466" data-name="Caminho 7466" d="M-730.355-92.689a1.1,1.1,0,0,1,.126-1.539h0a1.1,1.1,0,0,1,1.539-.127l1.919,1.919A1.1,1.1,0,0,1-726.9-90.9h0a1.1,1.1,0,0,1-1.539.127Z" transform="translate(756.384 120.383)" fill="#fecb2f"/>
      <path id="Caminho_7467" data-name="Caminho 7467" d="M-823.179-185.513a1.1,1.1,0,0,1,.127-1.539h0a1.1,1.1,0,0,1,1.539-.127l1.919,1.919a1.1,1.1,0,0,1-.127,1.539h0a1.1,1.1,0,0,1-1.539.127Z" transform="translate(828.111 192.111)" fill="#fecb2f"/>
    </g>
    <g id="Caminho_7468" data-name="Caminho 7468" transform="translate(0 -58.727)" fill="#f2f2f2" stroke-miterlimit="10">
      <path d="M -833.2276000976562 -109.7727355957031 C -833.3098754882812 -109.7727355957031 -833.3956298828125 -109.7751007080078 -833.482421875 -109.7797393798828 L -833.4957885742188 -109.7804565429688 L -833.5091552734375 -109.7804565429688 L -842.2384033203125 -109.7804565429688 L -842.2484130859375 -109.7804565429688 L -842.2584228515625 -109.7800598144531 C -842.350830078125 -109.7763595581055 -842.4490966796875 -109.7727355957031 -842.5455322265625 -109.7727355957031 L -859.8182373046875 -109.7727355957031 C -864.0540771484375 -109.7727355957031 -867.5 -113.218879699707 -867.5 -117.4547653198242 C -867.5 -119.4653015136719 -866.7282104492188 -121.366081237793 -865.3268432617188 -122.8069763183594 C -863.928466796875 -124.2447967529297 -862.0557861328125 -125.0698776245117 -860.0537719726562 -125.130241394043 L -859.6666259765625 -125.1419067382812 L -859.5811767578125 -125.5197067260742 C -859.203125 -127.1913146972656 -858.2569580078125 -128.7091979980469 -856.9169311523438 -129.7937469482422 C -855.5575561523438 -130.89404296875 -853.8436889648438 -131.5 -852.0911865234375 -131.5 C -850.0997924804688 -131.5 -848.2119750976562 -130.7411346435547 -846.7754516601562 -129.3632049560547 C -845.3433227539062 -127.9894943237305 -844.506103515625 -126.1436614990234 -844.41796875 -124.1656951904297 L -844.3718872070312 -123.1315994262695 L -843.5905151367188 -123.8105239868164 C -842.6065673828125 -124.6655044555664 -841.3475952148438 -125.1363677978516 -840.0455322265625 -125.1363677978516 C -837.0629272460938 -125.1363677978516 -834.6364135742188 -122.7097549438477 -834.6364135742188 -119.72705078125 C -834.6364135742188 -119.7169342041016 -834.6368408203125 -119.7069396972656 -834.63720703125 -119.6969375610352 C -834.6376953125 -119.683219909668 -834.63818359375 -119.6694946289062 -834.638427734375 -119.6557464599609 L -834.6494750976562 -119.0495681762695 L -834.0523071289062 -119.1540985107422 C -833.7748413085938 -119.2026596069336 -833.4973754882812 -119.2272796630859 -833.2276000976562 -119.2272796630859 C -830.6207885742188 -119.2272796630859 -828.5 -117.1066284179688 -828.5 -114.5 C -828.5 -113.2993011474609 -828.9508056640625 -112.1549301147461 -829.7693481445312 -111.2776794433594 C -830.5838012695312 -110.40478515625 -831.685791015625 -109.8755645751953 -832.872314453125 -109.7874984741211 L -832.9871215820312 -109.7789764404297 C -833.0689697265625 -109.7748413085938 -833.1497802734375 -109.7727355957031 -833.2276000976562 -109.7727355957031 Z" stroke="none"/>
      <path d="M -833.2276000976562 -110.2727355957031 C -833.1599731445312 -110.2727355957031 -833.0895385742188 -110.274528503418 -833.01806640625 -110.2780532836914 L -832.9093627929688 -110.2861251831055 C -831.8486328125 -110.364860534668 -830.8633422851562 -110.838134765625 -830.1348876953125 -111.6187896728516 C -829.403076171875 -112.4031295776367 -829 -113.4263687133789 -829 -114.5 C -829 -116.830924987793 -830.896484375 -118.7272796630859 -833.2276000976562 -118.7272796630859 C -833.4685668945312 -118.7272796630859 -833.717041015625 -118.7051773071289 -833.966064453125 -118.6615753173828 L -835.1604614257812 -118.4525375366211 L -835.1383056640625 -119.6648788452148 C -835.1380004882812 -119.6814498901367 -835.1375122070312 -119.6979675292969 -835.1369018554688 -119.7145004272461 L -835.1364135742188 -119.72705078125 C -835.1364135742188 -122.4340591430664 -837.338623046875 -124.6363677978516 -840.0455322265625 -124.6363677978516 C -841.22705078125 -124.6363677978516 -842.3695678710938 -124.2090377807617 -843.2625732421875 -123.43310546875 L -844.8253173828125 -122.0752410888672 L -844.91748046875 -124.143440246582 C -844.9998779296875 -125.9924240112305 -845.7826538085938 -127.7180252075195 -847.12158203125 -129.0023651123047 C -848.4645385742188 -130.2905578613281 -850.2294311523438 -131 -852.0911865234375 -131 C -853.7532958984375 -131 -855.3132934570312 -130.448486328125 -856.6024169921875 -129.4050903320312 C -857.8554077148438 -128.3909301757812 -858.7401123046875 -126.9719009399414 -859.093505859375 -125.4094085693359 L -859.264404296875 -124.65380859375 L -860.0386962890625 -124.6304550170898 C -861.9102783203125 -124.5740356445312 -863.6610107421875 -123.8026351928711 -864.9684448242188 -122.458366394043 C -866.2785034179688 -121.1113510131836 -867 -119.334358215332 -867 -117.4547653198242 C -867 -113.4945907592773 -863.7783813476562 -110.2727355957031 -859.8182373046875 -110.2727355957031 L -842.5455322265625 -110.2727355957031 C -842.4583740234375 -110.2727355957031 -842.3657836914062 -110.2761611938477 -842.2784423828125 -110.279655456543 L -842.2584228515625 -110.2804565429688 L -842.2384033203125 -110.2804565429688 L -833.5091552734375 -110.2804565429688 L -833.482421875 -110.2804565429688 L -833.4556884765625 -110.2790298461914 C -833.3777465820312 -110.2748565673828 -833.301025390625 -110.2727355957031 -833.2276000976562 -110.2727355957031 M -833.2276000976562 -109.2727355957031 C -833.3221435546875 -109.2727355957031 -833.4159545898438 -109.2754669189453 -833.5091552734375 -109.2804565429688 L -842.2384033203125 -109.2804565429688 C -842.3404541015625 -109.2763671875 -842.4425048828125 -109.2727355957031 -842.5455322265625 -109.2727355957031 L -859.8182373046875 -109.2727355957031 L -859.8184814453125 -109.2727355957031 C -864.3369140625 -109.2727355957031 -868 -112.935905456543 -868 -117.4547653198242 C -868 -121.8893280029297 -864.47119140625 -125.4972915649414 -860.06884765625 -125.6300048828125 C -859.244140625 -129.2763977050781 -855.986572265625 -132 -852.0911865234375 -132 C -847.6961669921875 -132 -844.1121826171875 -128.5347747802734 -843.91845703125 -124.1879577636719 C -842.881103515625 -125.0893249511719 -841.5274658203125 -125.6363677978516 -840.0455322265625 -125.6363677978516 C -836.7818603515625 -125.6363677978516 -834.1364135742188 -122.9904708862305 -834.1364135742188 -119.72705078125 C -834.1364135742188 -119.7000045776367 -834.1380004882812 -119.6734161376953 -834.1384887695312 -119.6466064453125 C -833.842529296875 -119.6984100341797 -833.5384521484375 -119.7272796630859 -833.2276000976562 -119.7272796630859 C -830.3402099609375 -119.7272796630859 -828 -117.3870544433594 -828 -114.5 C -828 -111.7450103759766 -830.131591796875 -109.4895477294922 -832.8353271484375 -109.2888641357422 L -832.8353271484375 -109.2804565429688 L -832.9457397460938 -109.2804565429688 C -833.0389404296875 -109.2754669189453 -833.133056640625 -109.2727355957031 -833.2276000976562 -109.2727355957031 Z" stroke="none" fill="#c9c9c9"/>
    </g>
  </g>
</svg>
