<svg xmlns="http://www.w3.org/2000/svg" width="40" height="40" viewBox="0 0 40 40">
  <g id="_2rn" data-name="2rn" transform="translate(868 -12)">
    <g id="Caminho_7317" data-name="Caminho 7317" transform="translate(-49.455)" fill="#fff" stroke-miterlimit="10">
      <path d="M -790.9932250976562 36.95454025268555 C -794.3339233398438 36.95454025268555 -797.474609375 35.65363311767578 -799.8367919921875 33.29144287109375 C -802.1990356445312 30.92923164367676 -803.5 27.78847122192383 -803.5 24.44773292541504 C -803.5 21.70999145507812 -802.631591796875 19.1106128692627 -800.9886474609375 16.93062210083008 C -799.5843505859375 15.06729221343994 -797.6566772460938 13.61603832244873 -795.4927978515625 12.77772998809814 C -795.7158813476562 13.75979900360107 -795.8286743164062 14.76473045349121 -795.8286743164062 15.77636241912842 C -795.8286743164062 19.38433265686035 -794.4237670898438 22.77628135681152 -791.8726806640625 25.327392578125 C -789.3216552734375 27.87847137451172 -785.9298706054688 29.28341293334961 -782.3220825195312 29.28341293334961 C -781.310546875 29.28341293334961 -780.3056030273438 29.17059898376465 -779.3231811523438 28.94731330871582 C -780.161376953125 31.11117553710938 -781.6126098632812 33.03884887695312 -783.4760131835938 34.44317245483398 C -785.656005859375 36.08612060546875 -788.2554321289062 36.95454025268555 -790.9932250976562 36.95454025268555 Z" stroke="none"/>
      <path d="M -790.9932250976562 36.45454025268555 C -788.3648681640625 36.45454025268555 -785.8695068359375 35.62094116210938 -783.7769165039062 34.04387283325195 C -782.2352294921875 32.88197326660156 -780.9873657226562 31.34707069396973 -780.1568603515625 29.61567878723145 C -780.8717041015625 29.72723579406738 -781.5952758789062 29.78341293334961 -782.3220825195312 29.78341293334961 C -786.0634155273438 29.78341293334961 -789.580810546875 28.32646179199219 -792.2262573242188 25.68094253540039 C -794.8717651367188 23.03539276123047 -796.3286743164062 19.51788139343262 -796.3286743164062 15.77636241912842 C -796.3286743164062 15.0494966506958 -796.2725219726562 14.32604122161865 -796.1610717773438 13.61140441894531 C -797.8925170898438 14.44200038909912 -799.4274291992188 15.68989372253418 -800.58935546875 17.2315616607666 C -802.1663818359375 19.32413291931152 -803 21.81944274902344 -803 24.44773292541504 C -803 27.65492248535156 -801.7510375976562 30.67011260986328 -799.4832763671875 32.93789291381836 C -797.2155151367188 35.20563125610352 -794.2003173828125 36.45454025268555 -790.9932250976562 36.45454025268555 M -790.9932250976562 37.45454025268555 C -798.1765747070312 37.45454025268555 -804 31.63136291503906 -804 24.44773292541504 C -804 18.57796287536621 -800.1111450195312 13.61864185333252 -794.77001953125 12.00000190734863 C -795.132080078125 13.1954517364502 -795.3286743164062 14.46295166015625 -795.3286743164062 15.77636241912842 C -795.3286743164062 22.96023178100586 -789.5054321289062 28.78341293334961 -782.3220825195312 28.78341293334961 C -781.0081787109375 28.78341293334961 -779.740966796875 28.58659172058105 -778.5454711914062 28.22454261779785 C -780.1638793945312 33.56568145751953 -785.1234130859375 37.45454025268555 -790.9932250976562 37.45454025268555 Z" stroke="none" fill="#c9c9c9"/>
    </g>
    <g id="Caminho_7318" data-name="Caminho 7318" transform="translate(0 -58.727)" fill="#f2f2f2" stroke-miterlimit="10">
      <path d="M -833.2275390625 110.2272720336914 C -833.30712890625 110.2272720336914 -833.390869140625 110.2249603271484 -833.4834594726562 110.2202072143555 L -833.4962768554688 110.2195510864258 L -833.5090942382812 110.2195510864258 L -842.2384033203125 110.2195510864258 L -842.2484130859375 110.2195510864258 L -842.2584228515625 110.2199478149414 C -842.350830078125 110.2236480712891 -842.4490966796875 110.2272720336914 -842.5455322265625 110.2272720336914 L -849.33544921875 110.2272720336914 L -859.8182373046875 110.2272720336914 C -864.0540771484375 110.2272720336914 -867.5 106.781120300293 -867.5 102.5452270507812 C -867.5 102.4151763916016 -867.4967041015625 102.283332824707 -867.4901123046875 102.1533279418945 C -867.4888305664062 102.1278228759766 -867.4866333007812 102.1026000976562 -867.4844970703125 102.0773391723633 C -867.4829711914062 102.0585098266602 -867.4813842773438 102.0396575927734 -867.47998046875 102.0207061767578 L -867.4779052734375 101.9895477294922 C -867.4728393554688 101.9112014770508 -867.468017578125 101.8371963500977 -867.4609375 101.765869140625 C -867.4580078125 101.7378768920898 -867.4539794921875 101.7078475952148 -867.449951171875 101.6777877807617 C -867.4467163085938 101.653450012207 -867.4434814453125 101.6290969848633 -867.4404907226562 101.6046295166016 L -867.4346313476562 101.5555725097656 C -867.4279174804688 101.4985733032227 -867.4212036132812 101.4414901733398 -867.4127807617188 101.3850708007812 C -867.4072875976562 101.3491516113281 -867.4005126953125 101.3126373291016 -867.3938598632812 101.2760696411133 L -867.3828735351562 101.2153091430664 L -867.3729248046875 101.1574401855469 C -867.3646850585938 101.1090087890625 -867.3565673828125 101.0606307983398 -867.3467407226562 101.0128326416016 C -867.3386840820312 100.9724426269531 -867.3298950195312 100.935302734375 -867.3212280273438 100.8980560302734 L -867.3062744140625 100.8334884643555 L -867.2916870117188 100.7689514160156 C -867.2822875976562 100.726806640625 -867.2728881835938 100.6845703125 -867.2623901367188 100.642936706543 C -867.2521362304688 100.6027908325195 -867.2405395507812 100.5625534057617 -867.2289428710938 100.5222396850586 L -867.2116088867188 100.4613418579102 L -867.1936645507812 100.3967819213867 C -867.1831665039062 100.3586273193359 -867.1727294921875 100.3204879760742 -867.1610717773438 100.2826385498047 C -867.1478881835938 100.2402801513672 -867.1328125 100.1961364746094 -867.1178588867188 100.1519165039062 L -867.0986938476562 100.0953979492188 L -867.0806884765625 100.041259765625 C -867.0684204101562 100.0042724609375 -867.05615234375 99.96721649169922 -867.04296875 99.93077850341797 C -867.0255126953125 99.88230895996094 -867.0068969726562 99.83551788330078 -866.9883422851562 99.78864288330078 L -866.9684448242188 99.73818969726562 L -866.94970703125 99.68988037109375 C -866.9363403320312 99.65515899658203 -866.9229736328125 99.62049865722656 -866.9087524414062 99.58638763427734 C -866.8872680664062 99.53491973876953 -866.8644409179688 99.48474884033203 -866.8417358398438 99.43460083007812 L -866.8218383789062 99.39060211181641 L -866.8009033203125 99.34368133544922 C -866.7869873046875 99.31221771240234 -866.7730712890625 99.28073883056641 -866.7584228515625 99.24996948242188 C -866.732666015625 99.19560241699219 -866.7054443359375 99.142578125 -866.6783447265625 99.08946990966797 L -866.6583251953125 99.05036163330078 C -866.64990234375 99.03407287597656 -866.6400756835938 99.01458740234375 -866.6302490234375 98.99510192871094 C -866.6182250976562 98.97128295898438 -866.606201171875 98.94741821289062 -866.5935668945312 98.92386627197266 C -866.5601806640625 98.86174774169922 -866.525146484375 98.80094909667969 -866.4900512695312 98.7398681640625 L -866.47998046875 98.72235870361328 L -866.453857421875 98.67650604248047 C -866.4404907226562 98.65289306640625 -866.4271850585938 98.62930297851562 -866.4132690429688 98.60607147216797 C -866.3710327148438 98.53565216064453 -866.3257446289062 98.46495056152344 -866.2869873046875 98.40505218505859 L -866.261474609375 98.36472320556641 C -866.2479248046875 98.34322357177734 -866.234375 98.32163238525391 -866.22021484375 98.300537109375 C -866.1724243164062 98.22869110107422 -866.1232299804688 98.15927886962891 -866.0768432617188 98.09416198730469 L -866.05126953125 98.05792236328125 C -866.0379028320312 98.03887939453125 -866.0245361328125 98.01979064941406 -866.0107421875 98.00099182128906 C -865.9594116210938 97.93122863769531 -865.90478515625 97.86138916015625 -865.853271484375 97.79586791992188 L -865.828857421875 97.76457214355469 C -865.8163452148438 97.74844360351562 -865.8038330078125 97.73227691650391 -865.7909545898438 97.71649169921875 C -865.7297973632812 97.64106750488281 -865.6683959960938 97.56960296630859 -865.6162109375 97.50945281982422 L -865.58837890625 97.47721862792969 C -865.5775756835938 97.46465301513672 -865.5668334960938 97.45205688476562 -865.5558471679688 97.439697265625 C -865.5034790039062 97.3809814453125 -865.4449462890625 97.31803894042969 -865.3665161132812 97.23603057861328 L -865.3558959960938 97.2247314453125 C -865.3404541015625 97.20838928222656 -865.3251342773438 97.19204711914062 -865.309326171875 97.1759033203125 C -865.248779296875 97.11396789550781 -865.1818237304688 97.04833221435547 -865.1051025390625 96.97559356689453 L -865.085205078125 96.95652008056641 C -865.0740356445312 96.94580078125 -865.0629272460938 96.93512725830078 -865.0516967773438 96.92465209960938 C -864.9848022460938 96.86228179931641 -864.9124755859375 96.79759979248047 -864.8302612304688 96.72657775878906 L -864.8040771484375 96.70398712158203 L -864.781982421875 96.68492126464844 C -864.711669921875 96.62523651123047 -864.634033203125 96.56226348876953 -864.545166015625 96.49273681640625 L -864.5333862304688 96.4833984375 C -864.5228881835938 96.47500610351562 -864.5123901367188 96.46662139892578 -864.501708984375 96.45838165283203 C -864.4219970703125 96.39702606201172 -864.336669921875 96.334228515625 -864.2493896484375 96.2725830078125 L -864.246826171875 96.27079772949219 L -864.2443237304688 96.26898956298828 L -864.224609375 96.25479888916016 L -864.2102661132812 96.24452972412109 C -864.1246948242188 96.18508148193359 -864.03466796875 96.12517547607422 -863.9426879882812 96.06640625 L -863.9230346679688 96.05372619628906 L -863.9080200195312 96.04405212402344 C -863.8201293945312 95.9886474609375 -863.7246704101562 95.93132781982422 -863.6276245117188 95.87577056884766 L -863.6112670898438 95.8663330078125 L -863.6057739257812 95.86312103271484 L -863.6023559570312 95.86125946044922 L -863.6002197265625 95.86002349853516 C -863.5077514648438 95.80738067626953 -863.40771484375 95.75363922119141 -863.3030395507812 95.70027160644531 L -863.2991333007812 95.69828033447266 L -863.2952270507812 95.69622802734375 C -863.2882080078125 95.69264984130859 -863.2820434570312 95.68947601318359 -863.2762451171875 95.68639373779297 C -863.18115234375 95.63838958740234 -863.0806884765625 95.59047698974609 -862.9692993164062 95.54001617431641 L -862.9754638671875 95.54277801513672 L -862.9627075195312 95.53705596923828 L -862.960205078125 95.53603363037109 L -862.9526977539062 95.53269195556641 C -862.844970703125 95.48443603515625 -862.7362060546875 95.438720703125 -862.6294555664062 95.39678955078125 L -862.6200561523438 95.39312744140625 L -862.6199951171875 95.39308166503906 L -862.6160278320312 95.39154052734375 C -862.502685546875 95.34719085693359 -862.389892578125 95.30603790283203 -862.28076171875 95.26924133300781 L -862.2738037109375 95.26696014404297 C -862.1571655273438 95.22759246826172 -862.0409545898438 95.19151306152344 -861.9254760742188 95.15876007080078 L -861.9163818359375 95.15614318847656 C -861.8047485351562 95.12449645996094 -861.6875 95.09416198730469 -861.569580078125 95.06646728515625 L -861.5648193359375 95.06549835205078 L -861.5584106445312 95.06403350830078 C -861.4358520507812 95.03578186035156 -861.3137817382812 95.01065063476562 -861.1954956054688 94.98935699462891 L -861.1945190429688 94.98918914794922 L -861.1886596679688 94.98811340332031 C -861.0746459960938 94.96736907958984 -860.9533081054688 94.94847106933594 -860.828857421875 94.93209075927734 L -860.82861328125 94.93206787109375 L -860.8150634765625 94.93045043945312 C -860.6952514648438 94.91456604003906 -860.5697021484375 94.90135192871094 -860.4418334960938 94.89115905761719 L -860.4371337890625 94.89080047607422 C -860.3136596679688 94.88092041015625 -860.1861572265625 94.87387847900391 -860.0567626953125 94.86974334716797 L -860.0506591796875 94.86955261230469 L -860.0446166992188 94.86920928955078 L -859.57275390625 94.84259033203125 L -859.5693359375 94.42817687988281 C -859.4261474609375 93.81572723388672 -859.2074584960938 93.22237396240234 -858.9189453125 92.66378021240234 L -858.9176025390625 92.66129302978516 L -858.9163818359375 92.65878295898438 L -858.9124755859375 92.65102386474609 C -858.865966796875 92.56141662597656 -858.8171997070312 92.47167205810547 -858.7673950195312 92.38423919677734 C -858.7631225585938 92.37699127197266 -858.7589721679688 92.36982727050781 -858.7549438476562 92.362548828125 C -858.7064819335938 92.27806091308594 -858.65576171875 92.1934814453125 -858.6041870117188 92.1109619140625 L -858.5985107421875 92.10198211669922 C -858.3751220703125 91.74652099609375 -858.1216430664062 91.40788269042969 -857.8451538085938 91.09548187255859 L -857.8346557617188 91.08331298828125 L -857.83251953125 91.0809326171875 C -857.78125 91.02310943603516 -857.725341796875 90.96269226074219 -857.6513061523438 90.88503265380859 L -857.6328735351562 90.86562347412109 L -857.59912109375 90.83019256591797 C -857.5452880859375 90.77474975585938 -857.4879760742188 90.71771240234375 -857.4254150390625 90.65721130371094 L -857.3965454101562 90.62967681884766 L -857.3577270507812 90.59271240234375 C -857.290771484375 90.52977752685547 -857.2349853515625 90.47866058349609 -857.1830444335938 90.43271636962891 C -857.164794921875 90.41639709472656 -857.1483764648438 90.40232086181641 -857.1320190429688 90.38825988769531 L -857.1079711914062 90.36753845214844 C -857.0504760742188 90.31797790527344 -856.9880981445312 90.26451873779297 -856.9258422851562 90.21367645263672 C -856.91796875 90.20735168457031 -856.9072875976562 90.1990966796875 -856.8966674804688 90.19082641601562 C -856.8843994140625 90.18131256103516 -856.8721313476562 90.17179107666016 -856.8599853515625 90.162109375 C -856.6622924804688 90.005126953125 -856.4512329101562 89.85420227050781 -856.233154296875 89.71391296386719 L -856.1896362304688 89.6859130859375 C -856.1664428710938 89.67092132568359 -856.1432495117188 89.65587615966797 -856.1195678710938 89.64129638671875 C -856.0653076171875 89.60769653320312 -856.0114135742188 89.57636260986328 -855.9572143554688 89.54498291015625 C -855.9094848632812 89.51708221435547 -855.863525390625 89.49024200439453 -855.8167724609375 89.46407318115234 C -855.7659301757812 89.43598937988281 -855.7123413085938 89.40733337402344 -855.6583862304688 89.37886810302734 C -855.6083984375 89.35259246826172 -855.5576171875 89.32672119140625 -855.5066528320312 89.30127716064453 C -855.45458984375 89.2752685546875 -855.4024658203125 89.25005340576172 -855.3499755859375 89.22525024414062 C -855.29541015625 89.19944763183594 -855.240478515625 89.17505645751953 -855.1852416992188 89.15084838867188 C -855.1329345703125 89.12754821777344 -855.0831909179688 89.10555267333984 -855.0328979492188 89.08442687988281 C -854.97412109375 89.06008911132812 -854.912353515625 89.03647613525391 -854.8507080078125 89.01287078857422 L -854.8416748046875 89.00942230224609 C -854.8214721679688 89.00170135498047 -854.8013305664062 88.99376678466797 -854.7811279296875 88.98583221435547 C -854.7565307617188 88.97614288330078 -854.73193359375 88.96642303466797 -854.7068481445312 88.9571533203125 C -854.59423828125 88.91658782958984 -854.48779296875 88.88066101074219 -854.3853149414062 88.84873962402344 C -854.3700561523438 88.84390258789062 -854.3572387695312 88.84037780761719 -854.3443603515625 88.83676910400391 C -854.32763671875 88.83204650878906 -854.3109130859375 88.82730865478516 -854.2942504882812 88.82228851318359 C -854.215087890625 88.7987060546875 -854.12841796875 88.77330780029297 -854.0431518554688 88.75103759765625 C -854.0128173828125 88.74301910400391 -853.9837646484375 88.73612213134766 -853.9547119140625 88.72917175292969 L -853.9114379882812 88.71875762939453 C -853.8397216796875 88.70140075683594 -853.7671508789062 88.68422698974609 -853.6937255859375 88.66860961914062 C -853.646728515625 88.65865325927734 -853.5990600585938 88.64949035644531 -853.5513305664062 88.64029693603516 C -853.46826171875 88.62442016601562 -853.4002685546875 88.61232757568359 -853.3379516601562 88.60237884521484 C -853.2863159179688 88.59371948242188 -853.23876953125 88.58656311035156 -853.1908569335938 88.57958984375 C -853.126953125 88.57035827636719 -853.0562133789062 88.56134796142578 -852.968505859375 88.55129241943359 L -852.928466796875 88.54682159423828 C -852.8952026367188 88.5430908203125 -852.8618774414062 88.53932189941406 -852.8285522460938 88.53611755371094 C -852.7403564453125 88.52764129638672 -852.6509399414062 88.52169036865234 -852.5828857421875 88.5174560546875 L -852.5316162109375 88.51392364501953 C -852.5084228515625 88.51226043701172 -852.4852294921875 88.51055145263672 -852.4619140625 88.50942993164062 C -852.326904296875 88.50309753417969 -852.20556640625 88.50000762939453 -852.0911865234375 88.50000762939453 C -851.9763793945312 88.50000762939453 -851.8543090820312 88.50309753417969 -851.7181396484375 88.50946044921875 C -851.692138671875 88.51068115234375 -851.6661376953125 88.51264953613281 -851.6402587890625 88.51455688476562 L -851.5999145507812 88.5174560546875 C -851.5282592773438 88.52191162109375 -851.4386596679688 88.52783966064453 -851.3504028320312 88.53633880615234 C -851.3156127929688 88.53964996337891 -851.281494140625 88.54363250732422 -851.2473754882812 88.54757690429688 L -851.2084350585938 88.55204772949219 C -851.1222534179688 88.56192016601562 -851.0513305664062 88.57093048095703 -850.9857177734375 88.58036804199219 C -850.9374389648438 88.58737182617188 -850.8884887695312 88.59510040283203 -850.8397827148438 88.60304260253906 C -850.7673950195312 88.61482238769531 -850.695556640625 88.62786102294922 -850.6240234375 88.64154815673828 C -850.5776977539062 88.65059661865234 -850.52978515625 88.65998840332031 -850.4818725585938 88.67027282714844 C -850.416748046875 88.68405151367188 -850.3484497070312 88.69978332519531 -850.2655029296875 88.72003173828125 L -850.23486328125 88.72744750976562 C -850.1996459960938 88.7359619140625 -850.1644287109375 88.74445343017578 -850.129638671875 88.75348663330078 C -850.0503540039062 88.77442169189453 -849.9681396484375 88.79856872558594 -849.8983764648438 88.81936645507812 C -849.8802490234375 88.82476043701172 -849.862548828125 88.82982635498047 -849.8449096679688 88.83487701416016 C -849.8250732421875 88.84053802490234 -849.8052368164062 88.84616851806641 -849.78564453125 88.85224151611328 C -849.6638793945312 88.89067840576172 -849.5549926757812 88.92756652832031 -849.4555053710938 88.964111328125 C -849.4486694335938 88.96659851074219 -849.4427490234375 88.96903991699219 -849.4368286132812 88.97142028808594 C -849.4234008789062 88.97676086425781 -849.4099731445312 88.98204803466797 -849.3963623046875 88.98709106445312 C -849.2919921875 89.02619934082031 -849.2059936523438 89.06008148193359 -849.1276245117188 89.093017578125 C -849.1024780273438 89.10353851318359 -849.0783081054688 89.1143798828125 -849.0540771484375 89.12518310546875 L -849.0050659179688 89.14691925048828 C -848.9386596679688 89.17617034912109 -848.871337890625 89.20613098144531 -848.8047485351562 89.23738861083984 C -848.7633666992188 89.2572021484375 -848.7191772460938 89.27925872802734 -848.6748046875 89.30149841308594 C -848.612060546875 89.33254241943359 -848.5520629882812 89.36318969726562 -848.492431640625 89.39470672607422 C -848.4495239257812 89.41780090332031 -848.4039306640625 89.442626953125 -848.358642578125 89.46790313720703 C -848.30126953125 89.49996948242188 -848.2444458007812 89.53266906738281 -848.1880493164062 89.56601715087891 C -848.1430053710938 89.59255218505859 -848.098876953125 89.61871337890625 -848.0552978515625 89.64573669433594 C -847.9978637695312 89.68109130859375 -847.9434204101562 89.71681213378906 -847.8885498046875 89.75270843505859 L -847.8626098632812 89.76963043212891 C -847.8291015625 89.79148101806641 -847.7954711914062 89.81333923339844 -847.7623901367188 89.83605194091797 C -847.7146606445312 89.8685302734375 -847.6695556640625 89.90116119384766 -847.6243896484375 89.93377685546875 L -847.590087890625 89.95854187011719 L -847.5492553710938 89.98771667480469 C -847.5255126953125 90.00463104248047 -847.501708984375 90.02150726318359 -847.4783935546875 90.0390625 C -847.3880615234375 90.10704803466797 -847.2997436523438 90.17649841308594 -847.2158813476562 90.24539947509766 C -847.1943359375 90.26296997070312 -847.1749877929688 90.27995300292969 -847.1555786132812 90.29685974121094 C -847.1405639648438 90.30995941162109 -847.1255493164062 90.32305145263672 -847.1103515625 90.33598327636719 L -847.0828857421875 90.35942840576172 C -847.03955078125 90.39643096923828 -846.9961547851562 90.43341827392578 -846.9537963867188 90.47133636474609 C -846.9282836914062 90.49436187744141 -846.9020385742188 90.51918029785156 -846.8757934570312 90.54395294189453 L -846.8328247070312 90.58432769775391 L -846.8225708007812 90.59397888183594 C -846.7831420898438 90.63102722167969 -846.7435913085938 90.66813659667969 -846.705078125 90.70632934570312 C -846.6629638671875 90.747802734375 -846.6224365234375 90.78948211669922 -846.58203125 90.83091735839844 C -846.5420532226562 90.87200164794922 -846.50244140625 90.91361999511719 -846.463134765625 90.95565795898438 C -846.4234008789062 90.99830627441406 -846.384033203125 91.04192352294922 -846.3449096679688 91.08596038818359 C -846.3081665039062 91.12741851806641 -846.2720336914062 91.16935729980469 -846.2361450195312 91.21170806884766 C -846.1966552734375 91.25823974609375 -846.1575317382812 91.30435180664062 -846.1195068359375 91.35111999511719 C -846.0880737304688 91.39002990722656 -846.056884765625 91.43042755126953 -846.025634765625 91.47083282470703 L -846.0194091796875 91.47888946533203 C -845.9805297851562 91.52857208251953 -845.9434814453125 91.57608795166016 -845.90771484375 91.62467193603516 C -845.88623046875 91.65360260009766 -845.8666381835938 91.68155670166016 -845.8470458984375 91.70945739746094 L -845.8151245117188 91.75469207763672 C -845.6795654296875 91.94650268554688 -845.5509643554688 92.14749145507812 -845.43359375 92.3509521484375 L -845.4068603515625 92.39717864990234 C -845.3909912109375 92.42446136474609 -845.3750610351562 92.45175933837891 -845.3597412109375 92.47933959960938 C -845.3317260742188 92.53050994873047 -845.3031616210938 92.58558654785156 -845.274658203125 92.64054107666016 L -845.2689208984375 92.65155029296875 L -845.2510986328125 92.68621826171875 C -845.2340698242188 92.71913146972656 -845.217041015625 92.75200653076172 -845.2006225585938 92.78527069091797 C -845.1708984375 92.84494018554688 -845.1434936523438 92.90395355224609 -845.1162109375 92.96293640136719 C -845.0947265625 93.00926971435547 -845.0740356445312 93.05484008789062 -845.0538940429688 93.10061645507812 C -845.0277709960938 93.16036224365234 -845.0018920898438 93.22144317626953 -844.9766845703125 93.28317260742188 C -844.9583129882812 93.3284912109375 -844.9400024414062 93.3753662109375 -844.9217529296875 93.42247009277344 C -844.8973999023438 93.48607635498047 -844.873779296875 93.54776000976562 -844.8515014648438 93.61029815673828 C -844.837890625 93.64875793457031 -844.82470703125 93.68905639648438 -844.8114013671875 93.72927093505859 L -844.805419921875 93.74759674072266 C -844.7823486328125 93.81575775146484 -844.7606811523438 93.88043212890625 -844.7405395507812 93.94574737548828 C -844.7335205078125 93.96907043457031 -844.7263793945312 93.99514007568359 -844.7191772460938 94.02117156982422 L -844.7045288085938 94.07341003417969 C -844.65234375 94.25654602050781 -844.6102905273438 94.42427825927734 -844.575927734375 94.58648681640625 L -844.5752563476562 94.58992004394531 L -844.574462890625 94.59333801269531 L -844.5725708007812 94.60150146484375 L -844.5714111328125 94.60665130615234 C -844.4879760742188 95.00765228271484 -844.4363403320312 95.42063903808594 -844.41796875 95.83425140380859 L -844.3720092773438 96.86862182617188 L -843.5904541015625 96.189453125 C -842.7430419921875 95.45298004150391 -841.7086791992188 95.00417327880859 -840.5991821289062 94.89154052734375 C -840.4154052734375 94.87303924560547 -840.22900390625 94.86363983154297 -840.0455322265625 94.86363983154297 C -839.862060546875 94.86363983154297 -839.6755981445312 94.87303924560547 -839.4912719726562 94.89158630371094 C -838.166748046875 95.02615356445312 -836.9413452148438 95.64563751220703 -836.0413818359375 96.63590240478516 C -835.1353759765625 97.63278198242188 -834.6364135742188 98.92436981201172 -834.6364135742188 100.2727432250977 C -834.6364135742188 100.2829895019531 -834.6368408203125 100.2928695678711 -834.63720703125 100.3027801513672 C -834.6376953125 100.3165664672852 -834.6381225585938 100.3303909301758 -834.638427734375 100.344352722168 L -834.6494140625 100.9508972167969 L -834.0519409179688 100.8458633422852 C -833.7759399414062 100.7973403930664 -833.4985961914062 100.7727432250977 -833.2275390625 100.7727432250977 C -830.6207885742188 100.7727432250977 -828.5 102.8933792114258 -828.5 105.5000076293945 C -828.5 106.7007064819336 -828.9508056640625 107.8450775146484 -829.7693481445312 108.7223434448242 C -830.5838012695312 109.5952224731445 -831.685791015625 110.1244430541992 -832.8722534179688 110.2125091552734 L -832.9856567382812 110.2209320068359 C -833.0726928710938 110.2251892089844 -833.1519775390625 110.2272720336914 -833.2275390625 110.2272720336914 Z" stroke="none"/>
      <path d="M -833.2275390625 109.7272720336914 C -833.1619262695312 109.7272720336914 -833.0925903320312 109.7254791259766 -833.0161743164062 109.7218170166016 L -832.9093017578125 109.7138824462891 C -831.8485717773438 109.6351470947266 -830.86328125 109.1618728637695 -830.1348876953125 108.381233215332 C -829.403076171875 107.5968780517578 -829 106.5736389160156 -829 105.5000076293945 C -829 103.1690902709961 -830.896484375 101.2727432250977 -833.2275390625 101.2727432250977 C -833.4696044921875 101.2727432250977 -833.7178955078125 101.2947998046875 -833.96533203125 101.3383102416992 L -835.1603393554688 101.5483779907227 L -835.1383056640625 100.3352890014648 C -835.1380004882812 100.3184661865234 -835.137451171875 100.3018188476562 -835.1369018554688 100.2852020263672 L -835.1364135742188 100.2727432250977 C -835.1364135742188 99.04900360107422 -835.5892333984375 97.8768310546875 -836.411376953125 96.97218322753906 C -837.228271484375 96.07335662841797 -838.3402099609375 95.51110076904297 -839.5413208007812 95.38907623291016 C -839.7090454101562 95.37220001220703 -839.8787231445312 95.36363983154297 -840.0455322265625 95.36363983154297 C -840.2123413085938 95.36363983154297 -840.3818969726562 95.37220001220703 -840.5486450195312 95.38899230957031 C -841.554931640625 95.49114227294922 -842.4933471679688 95.8984375 -843.2625122070312 96.56684875488281 L -844.8255004882812 97.92517852783203 L -844.91748046875 95.85645294189453 C -844.9346313476562 95.47100830078125 -844.9825439453125 95.08624267578125 -845.06005859375 94.71274566650391 L -845.0621337890625 94.70372772216797 L -845.0636596679688 94.69689178466797 L -845.0651245117188 94.69001770019531 C -845.0970458984375 94.53920745849609 -845.1363525390625 94.38246917724609 -845.1854858398438 94.21021270751953 L -845.2009887695312 94.15461730957031 C -845.2069702148438 94.13309478759766 -845.2128295898438 94.11154174804688 -845.21923828125 94.09020233154297 C -845.23779296875 94.03023529052734 -845.2576904296875 93.97087860107422 -845.2777099609375 93.91168212890625 L -845.2789916992188 93.90798187255859 L -845.2802124023438 93.90426635742188 L -845.2863159179688 93.88574981689453 C -845.2984619140625 93.848876953125 -845.310546875 93.81189727783203 -845.322509765625 93.77809143066406 C -845.343505859375 93.71920776367188 -845.3657836914062 93.66116333007812 -845.3880615234375 93.60288238525391 C -845.4053344726562 93.5582275390625 -845.4227294921875 93.51378631591797 -845.4395141601562 93.47225189208984 C -845.4632568359375 93.41423797607422 -845.487548828125 93.35685729980469 -845.5115356445312 93.30193328857422 C -845.5303344726562 93.25920867919922 -845.5496826171875 93.21671295166016 -845.5701293945312 93.17269134521484 C -845.5953369140625 93.11811828613281 -845.6206665039062 93.06349945068359 -845.64892578125 93.00666809082031 C -845.6640014648438 92.97611999511719 -845.6796875 92.9459228515625 -845.6953125 92.91568756103516 L -845.7127075195312 92.88197326660156 L -845.7184448242188 92.87091827392578 C -845.7447509765625 92.82020568847656 -845.7710571289062 92.76936340332031 -845.79833984375 92.71937561035156 C -845.8116455078125 92.69558715820312 -845.8253784179688 92.67205047607422 -845.8390502929688 92.64850616455078 L -845.8667602539062 92.60076904296875 C -845.9764404296875 92.41053009033203 -846.0967407226562 92.22257232666016 -846.22265625 92.04437255859375 L -846.2561645507812 91.99687957763672 C -846.273193359375 91.97263336181641 -846.2901611328125 91.94830322265625 -846.3101196289062 91.92138671875 C -846.3430786132812 91.876708984375 -846.3771362304688 91.83303833007812 -846.4111938476562 91.78952026367188 L -846.4130859375 91.78717041015625 L -846.4148559570312 91.78481292724609 L -846.421142578125 91.77671813964844 C -846.4501953125 91.73915100097656 -846.4791870117188 91.70156097412109 -846.5074462890625 91.66654968261719 C -846.543212890625 91.62255859375 -846.5800170898438 91.57919311523438 -846.6175537109375 91.53501129150391 C -846.6510009765625 91.49552917480469 -846.6846923828125 91.4564208984375 -846.7189331054688 91.41781616210938 C -846.7553100585938 91.37680053710938 -846.7920532226562 91.33615112304688 -846.8284912109375 91.2969970703125 C -846.865478515625 91.2574462890625 -846.9027099609375 91.21830749511719 -846.9402465820312 91.17978668212891 C -846.9782104492188 91.14076995849609 -847.0164184570312 91.10150909423828 -847.0569458007812 91.0615234375 C -847.0924072265625 91.02639770507812 -847.1288452148438 90.99231719970703 -847.1651000976562 90.95822906494141 L -847.1740112304688 90.94979095458984 L -847.2188110351562 90.90770721435547 C -847.2423706054688 90.88546752929688 -847.2659301757812 90.8631591796875 -847.2874145507812 90.84378814697266 C -847.3267822265625 90.80851745605469 -847.3671875 90.77414703369141 -847.4075317382812 90.73972320556641 L -847.4346923828125 90.71649932861328 C -847.4512939453125 90.70236968994141 -847.4677124023438 90.68807220458984 -847.484130859375 90.67376708984375 C -847.4993286132812 90.66049957275391 -847.5144653320312 90.64710235595703 -847.5333251953125 90.63170623779297 C -847.6117553710938 90.56728363037109 -847.6944580078125 90.50224304199219 -847.7789916992188 90.43858337402344 C -847.798828125 90.42366027832031 -847.819091796875 90.40937805175781 -847.8392944335938 90.39501953125 L -847.8821411132812 90.36434936523438 L -847.9170532226562 90.33915710449219 C -847.9584350585938 90.30928802490234 -847.9996948242188 90.27935028076172 -848.04541015625 90.24822998046875 C -848.0751953125 90.227783203125 -848.1055297851562 90.20815277099609 -848.1356811523438 90.1884765625 L -848.162353515625 90.17108917236328 C -848.2133178710938 90.13771057128906 -848.2639770507812 90.10444641113281 -848.3189697265625 90.070556640625 C -848.3591918945312 90.04559326171875 -848.4000244140625 90.02144622802734 -848.442626953125 89.99636077880859 C -848.4954223632812 89.96511077880859 -848.5487060546875 89.93447875976562 -848.6024780273438 89.90444183349609 C -848.6445922851562 89.88091278076172 -848.6870727539062 89.85778045654297 -848.729736328125 89.83485412597656 C -848.7841186523438 89.80609893798828 -848.8389892578125 89.77812194824219 -848.89404296875 89.75089263916016 L -848.896484375 89.74967956542969 L -848.8989868164062 89.74845123291016 C -848.9393920898438 89.72817993164062 -848.9796752929688 89.70804595947266 -849.0203857421875 89.68852996826172 C -849.0823364257812 89.65947723388672 -849.1449584960938 89.63166809082031 -849.2055053710938 89.60495758056641 L -849.2578125 89.581787109375 C -849.2784423828125 89.57258605957031 -849.2990112304688 89.56330108642578 -849.3212890625 89.55399322509766 C -849.3935546875 89.52364349365234 -849.4737548828125 89.49205780029297 -849.5699462890625 89.45598602294922 C -849.5874633789062 89.44950866699219 -849.6046752929688 89.4427490234375 -849.6219482421875 89.43586730957031 L -849.6279296875 89.43344116210938 C -849.7194213867188 89.39981842041016 -849.8203735351562 89.36563110351562 -849.9364624023438 89.32894897460938 C -849.95166015625 89.32431030273438 -849.9669799804688 89.31999969482422 -849.9822998046875 89.31562042236328 C -850.0016479492188 89.31009674072266 -850.0209350585938 89.30455780029297 -850.0413208007812 89.29852294921875 C -850.1072998046875 89.27883911132812 -850.1847534179688 89.25607299804688 -850.2553100585938 89.2374267578125 C -850.287353515625 89.22910308837891 -850.3198852539062 89.2213134765625 -850.352294921875 89.21347045898438 L -850.3842163085938 89.20574188232422 C -850.4619750976562 89.18675231933594 -850.5255126953125 89.17211151123047 -850.586669921875 89.15915679931641 C -850.631591796875 89.14952850341797 -850.6765747070312 89.1407470703125 -850.7180786132812 89.13262939453125 C -850.7850341796875 89.11981201171875 -850.852294921875 89.10758209228516 -850.9202270507812 89.09651947021484 C -850.9660034179688 89.08905029296875 -851.0120239257812 89.08177947998047 -851.0569458007812 89.07527160644531 C -851.1176147460938 89.06654357910156 -851.1839599609375 89.05812072753906 -851.2647705078125 89.04886627197266 L -851.3048095703125 89.04427337646484 C -851.3356323242188 89.04071044921875 -851.3663330078125 89.03707885742188 -851.3983154296875 89.03404235839844 C -851.4790649414062 89.02626800537109 -851.5631103515625 89.02069854736328 -851.6273803710938 89.01673126220703 L -851.6307983398438 89.01651763916016 L -851.6342163085938 89.01628112792969 L -851.6768798828125 89.01320648193359 C -851.698486328125 89.01161956787109 -851.7200927734375 89.00991821289062 -851.741455078125 89.0089111328125 C -851.8698120117188 89.00292205810547 -851.9841918945312 89.00000762939453 -852.0911865234375 89.00000762939453 C -852.1976318359375 89.00000762939453 -852.3113403320312 89.00292205810547 -852.4380493164062 89.00885772705078 C -852.4573974609375 89.00978851318359 -852.4766235351562 89.01126098632812 -852.4957885742188 89.01264190673828 L -852.5518188476562 89.01648712158203 C -852.615966796875 89.02047729492188 -852.699951171875 89.02604675292969 -852.7808227539062 89.03383636474609 C -852.8114624023438 89.03678131103516 -852.842041015625 89.04026031494141 -852.8726196289062 89.043701171875 L -852.9115600585938 89.04802703857422 C -852.9942626953125 89.05753326416016 -853.0604248046875 89.06594085693359 -853.1189575195312 89.07440185546875 C -853.1632690429688 89.08083343505859 -853.2071533203125 89.08743286132812 -853.2512817382812 89.09483337402344 L -853.2551879882812 89.09548950195312 L -853.2590942382812 89.09610748291016 C -853.3162841796875 89.10524749755859 -853.3795166015625 89.11650085449219 -853.4567260742188 89.13127136230469 C -853.50146484375 89.139892578125 -853.5460815429688 89.1484375 -853.5896606445312 89.15766906738281 C -853.6586303710938 89.17233276367188 -853.7266235351562 89.18846893310547 -853.7931518554688 89.20455932617188 L -853.8384399414062 89.21546173095703 C -853.8636474609375 89.22148132324219 -853.8887939453125 89.22740936279297 -853.9168090820312 89.23480987548828 C -853.9948120117188 89.25518798828125 -854.0765991210938 89.27915954589844 -854.1497192382812 89.30092620849609 C -854.1693725585938 89.30686187744141 -854.1891479492188 89.31249237060547 -854.2089233398438 89.31806182861328 C -854.2166748046875 89.32023620605469 -854.2244262695312 89.32232666015625 -854.2315063476562 89.32449340820312 L -854.2340698242188 89.32530975341797 L -854.236572265625 89.32610321044922 C -854.3306274414062 89.35540771484375 -854.4287719726562 89.38849639892578 -854.5364379882812 89.42723846435547 C -854.5571899414062 89.43495178222656 -854.57763671875 89.44305419921875 -854.5980224609375 89.45110321044922 C -854.6196899414062 89.45960998535156 -854.6412963867188 89.46810913085938 -854.662841796875 89.47634887695312 L -854.671875 89.47981262207031 C -854.7293090820312 89.50179290771484 -854.786865234375 89.52371978759766 -854.8392944335938 89.54544067382812 C -854.8863525390625 89.56517791748047 -854.9328002929688 89.58576965332031 -854.9793701171875 89.60652160644531 L -854.9818725585938 89.60762786865234 L -854.9844360351562 89.60872650146484 C -855.0352172851562 89.63101959228516 -855.0858764648438 89.6534423828125 -855.1363525390625 89.67732238769531 C -855.1854858398438 89.70054626464844 -855.234375 89.72418212890625 -855.283447265625 89.74868774414062 C -855.3312377929688 89.77252960205078 -855.3787841796875 89.79676818847656 -855.4251708984375 89.82115173339844 C -855.4754028320312 89.84765625 -855.525390625 89.87434387207031 -855.5748291015625 89.90163421630859 C -855.6180419921875 89.92587280273438 -855.6605834960938 89.95074462890625 -855.7066650390625 89.97769165039062 C -855.756591796875 90.006591796875 -855.8062744140625 90.03539276123047 -855.8575439453125 90.06714630126953 C -855.8780517578125 90.07975769042969 -855.8980712890625 90.09281158447266 -855.9181518554688 90.10576629638672 L -855.962646484375 90.13440704345703 C -856.1668090820312 90.26576995849609 -856.3643188476562 90.40696716308594 -856.548583984375 90.55330657958984 C -856.5623168945312 90.56423187255859 -856.576171875 90.57498931884766 -856.5899658203125 90.58573913574219 C -856.5974731445312 90.59152984619141 -856.60498046875 90.59730529785156 -856.6123657226562 90.60323333740234 C -856.6690673828125 90.64958953857422 -856.7275390625 90.69972229003906 -856.7807006835938 90.74552154541016 L -856.8059692382812 90.76731109619141 C -856.81982421875 90.77921295166016 -856.833740234375 90.79110717773438 -856.8472900390625 90.80322265625 L -856.8495483398438 90.80525207519531 L -856.851806640625 90.80725860595703 C -856.8998413085938 90.84976196289062 -856.9520874023438 90.89762878417969 -857.0142822265625 90.95609283447266 L -857.0509643554688 90.99105072021484 L -857.0796508789062 91.01840972900391 C -857.1377563476562 91.07460021972656 -857.1907958984375 91.12746429443359 -857.2391357421875 91.17720031738281 L -857.2699584960938 91.20951843261719 L -857.2894287109375 91.23004150390625 C -857.3591918945312 91.30322265625 -857.4113159179688 91.35958099365234 -857.45849609375 91.41277313232422 L -857.4589233398438 91.41324615478516 L -857.4668579101562 91.42240142822266 L -857.46875 91.42462921142578 L -857.4707641601562 91.42684173583984 C -857.729248046875 91.71891021728516 -857.9662475585938 92.03556823730469 -858.1751708984375 92.3680419921875 L -858.1832275390625 92.38082122802734 C -858.2298583984375 92.45556640625 -858.2756958007812 92.53207397460938 -858.3196411132812 92.60852813720703 C -858.3246459960938 92.61749267578125 -858.3297729492188 92.62645721435547 -858.335205078125 92.63570404052734 C -858.3805541992188 92.71543884277344 -858.4249877929688 92.79719543457031 -858.4674072265625 92.87886047363281 L -858.4696044921875 92.88323974609375 L -858.4721069335938 92.88825225830078 L -858.4746704101562 92.89324188232422 C -858.7356567382812 93.3984375 -858.9354248046875 93.93402099609375 -859.0693359375 94.48683929443359 L -859.07275390625 95.31517791748047 L -860.0164184570312 95.368408203125 L -860.0286254882812 95.36910247802734 L -860.040771484375 95.36949157714844 C -860.1622924804688 95.37336730957031 -860.2816772460938 95.37996673583984 -860.3987426757812 95.38932037353516 L -860.402099609375 95.38957214355469 C -860.5213012695312 95.39907836914062 -860.63818359375 95.411376953125 -860.7493896484375 95.42611694335938 L -860.771728515625 95.42890167236328 L -860.7721557617188 95.42894744873047 C -860.885498046875 95.44400787353516 -860.9957275390625 95.46122741699219 -861.09814453125 95.47985076904297 L -861.10498046875 95.48110961914062 L -861.10693359375 95.48146057128906 C -861.21728515625 95.50131988525391 -861.3313598632812 95.52480316162109 -861.4461059570312 95.55124664306641 L -861.4588012695312 95.55419158935547 L -861.46240234375 95.55491638183594 C -861.570556640625 95.58040618896484 -861.6777954101562 95.60820770263672 -861.7779541015625 95.6365966796875 L -861.7890625 95.63980102539062 C -861.8966674804688 95.67031097412109 -862.0050048828125 95.70392608642578 -862.1110229492188 95.73973083496094 L -862.1138916015625 95.74069976806641 L -862.1167602539062 95.74163818359375 L -862.1238403320312 95.74399566650391 C -862.224609375 95.77802276611328 -862.328857421875 95.81609344482422 -862.433837890625 95.85717010498047 L -862.4398193359375 95.85951232910156 L -862.4467163085938 95.86222076416016 C -862.5462646484375 95.90129089355469 -862.647705078125 95.94394683837891 -862.7483520507812 95.98900604248047 L -862.7632446289062 95.99569702148438 L -862.7653198242188 95.99654388427734 C -862.867919921875 96.04302978515625 -862.960205078125 96.0870361328125 -863.0471801757812 96.13088226318359 C -863.0528564453125 96.13385009765625 -863.0586547851562 96.13684844970703 -863.064697265625 96.13994598388672 L -863.0681762695312 96.14179229736328 L -863.0759887695312 96.14576721191406 C -863.1738891601562 96.19566345214844 -863.26708984375 96.2457275390625 -863.3529663085938 96.29457855224609 L -863.3596801757812 96.29840850830078 L -863.3605346679688 96.29888153076172 L -863.3792724609375 96.30968475341797 L -863.3792114257812 96.30970764160156 C -863.4686889648438 96.36091613769531 -863.5565795898438 96.41365051269531 -863.6405029296875 96.46648406982422 L -863.6511840820312 96.47337341308594 L -863.6735229492188 96.48780059814453 C -863.7590942382812 96.54244995117188 -863.8427124023438 96.59807586669922 -863.922119140625 96.6531982421875 L -863.9339599609375 96.66165924072266 L -863.9509887695312 96.67386627197266 L -863.9559936523438 96.67749786376953 L -863.9610595703125 96.68106079101562 C -864.0427856445312 96.73876953125 -864.1224975585938 96.79746246337891 -864.1956787109375 96.85379791259766 L -864.2217407226562 96.87441253662109 L -864.2304077148438 96.88130187988281 L -864.2337646484375 96.88397216796875 L -864.2371215820312 96.88661956787109 C -864.3207397460938 96.95197296142578 -864.3932495117188 97.01081085205078 -864.4579467773438 97.06574249267578 L -864.4763793945312 97.08164215087891 L -864.50341796875 97.10495758056641 C -864.580810546875 97.17179870605469 -864.6484985351562 97.23233795166016 -864.7110595703125 97.2906494140625 C -864.7203979492188 97.29936218261719 -864.7296142578125 97.30825805664062 -864.7388916015625 97.31716918945312 L -864.7611083984375 97.33844757080078 C -864.833251953125 97.40683746337891 -864.8958129882812 97.46817016601562 -864.9515991210938 97.52519226074219 C -864.9652709960938 97.53920745849609 -864.9785766601562 97.55341339111328 -864.991943359375 97.56758117675781 L -865.0003051757812 97.57647705078125 L -865.0027465820312 97.57904815673828 L -865.0051879882812 97.58158874511719 C -865.0794677734375 97.65927124023438 -865.13427734375 97.71826934814453 -865.1823120117188 97.77211761474609 C -865.1913452148438 97.7822265625 -865.2001342773438 97.79255676269531 -865.2089233398438 97.80284118652344 L -865.238525390625 97.83708953857422 C -865.2879638671875 97.89411926269531 -865.3460083007812 97.96163940429688 -865.4036865234375 98.03273773193359 C -865.4140014648438 98.04538726806641 -865.4239501953125 98.05838012695312 -865.4340209960938 98.07129669189453 L -865.460205078125 98.10489654541016 C -865.5092163085938 98.167236328125 -865.56103515625 98.23345947265625 -865.6077270507812 98.29696655273438 C -865.6195068359375 98.31297302246094 -865.630859375 98.32923889160156 -865.6422119140625 98.34543609619141 L -865.6696166992188 98.38420867919922 C -865.713623046875 98.44605255126953 -865.7601928710938 98.51174163818359 -865.8023681640625 98.57521057128906 L -865.8038940429688 98.57746124267578 L -865.805419921875 98.57969665527344 C -865.8167724609375 98.59661865234375 -865.8275146484375 98.61399078369141 -865.83837890625 98.63123321533203 L -865.8640747070312 98.67179107666016 L -865.8656616210938 98.67424011230469 L -865.8672485351562 98.67668151855469 C -865.9036865234375 98.73300170898438 -865.9461059570312 98.79917907714844 -865.9844970703125 98.86327362060547 C -865.9962768554688 98.88289642333984 -866.0074462890625 98.90287017822266 -866.0187377929688 98.92282867431641 L -866.0465087890625 98.97154998779297 L -866.0565795898438 98.98915100097656 C -866.0892944335938 99.0460205078125 -866.1220092773438 99.10260009765625 -866.153076171875 99.16046142578125 C -866.1636962890625 99.18023681640625 -866.1737060546875 99.2003173828125 -866.183837890625 99.22032928466797 C -866.194091796875 99.24068450927734 -866.204345703125 99.26102447509766 -866.21484375 99.28125762939453 L -866.233154296875 99.31707763671875 C -866.2579956054688 99.36573791503906 -866.2830200195312 99.41427612304688 -866.3067626953125 99.4644775390625 C -866.319580078125 99.49140930175781 -866.3316650390625 99.51898956298828 -866.3439331054688 99.54651641845703 L -866.365966796875 99.59597778320312 L -866.3862915039062 99.64092254638672 C -866.4069213867188 99.68650054931641 -866.427734375 99.73206329345703 -866.4474487304688 99.77935791015625 C -866.4599609375 99.80921936035156 -866.4715576171875 99.839599609375 -866.4832763671875 99.86998748779297 L -866.5029296875 99.92069244384766 L -866.5234375 99.97257995605469 C -866.5401000976562 100.0146789550781 -866.5568237304688 100.0566711425781 -866.5728759765625 100.1011123657227 C -866.5845336914062 100.1332778930664 -866.5952758789062 100.1660079956055 -866.6060791015625 100.1986770629883 L -866.6246948242188 100.2544326782227 L -866.6443481445312 100.3126525878906 C -866.6576538085938 100.351806640625 -866.6710205078125 100.3908843994141 -866.6834716796875 100.430549621582 C -866.6935424804688 100.4634094238281 -866.7025146484375 100.4965438842773 -866.711669921875 100.5296630859375 L -866.730224609375 100.5965270996094 L -866.7483520507812 100.6601028442383 C -866.758544921875 100.6955871582031 -866.7688598632812 100.7309875488281 -866.7776489257812 100.7656326293945 C -866.7870483398438 100.8027801513672 -866.7953491210938 100.8404693603516 -866.8037719726562 100.878059387207 L -866.818603515625 100.9438018798828 C -866.82373046875 100.9666061401367 -866.8290405273438 100.9893188476562 -866.8343505859375 101.0120010375977 C -866.841796875 101.0438995361328 -866.8494262695312 101.0757064819336 -866.8558959960938 101.1080093383789 L -866.8564453125 101.1107025146484 L -866.8569946289062 101.1133804321289 C -866.8656616210938 101.155632019043 -866.8727416992188 101.1984100341797 -866.8800048828125 101.2412109375 L -866.8904418945312 101.3022079467773 L -866.9020385742188 101.3661727905273 C -866.9078369140625 101.3977279663086 -866.9137573242188 101.4292297363281 -866.9182739257812 101.459228515625 C -866.9259643554688 101.5105819702148 -866.9320068359375 101.5625381469727 -866.9381103515625 101.6144180297852 L -866.9441528320312 101.6647186279297 C -866.9473266601562 101.6911697387695 -866.9508056640625 101.7174987792969 -866.954345703125 101.7438201904297 C -866.9577026367188 101.7690811157227 -866.961181640625 101.794319152832 -866.96337890625 101.8151473999023 C -866.9696044921875 101.8781204223633 -866.9741821289062 101.9480361938477 -866.97900390625 102.0220794677734 L -866.9807739257812 102.049560546875 L -866.9810180664062 102.0534515380859 L -866.9813232421875 102.0573425292969 C -866.9828491210938 102.0780029296875 -866.9845581054688 102.0985565185547 -866.9862670898438 102.1191024780273 C -866.9879150390625 102.1388626098633 -866.98974609375 102.1585693359375 -866.9907836914062 102.1784820556641 C -866.9968872070312 102.3001403808594 -867 102.4235305786133 -867 102.5452270507812 C -867 106.5054168701172 -863.7783813476562 109.7272720336914 -859.8182373046875 109.7272720336914 L -849.33544921875 109.7272720336914 L -842.5455322265625 109.7272720336914 C -842.4583740234375 109.7272720336914 -842.3657836914062 109.7238464355469 -842.2784423828125 109.7203521728516 L -842.2584228515625 109.7195510864258 L -842.2384033203125 109.7195510864258 L -833.5090942382812 109.7195510864258 L -833.4834594726562 109.7195510864258 L -833.4578247070312 109.7208633422852 C -833.3738403320312 109.7251663208008 -833.2985229492188 109.7272720336914 -833.2275390625 109.7272720336914 M -833.2275390625 110.7272720336914 C -833.3220825195312 110.7272720336914 -833.4159545898438 110.7243270874023 -833.5090942382812 110.7195510864258 L -842.2384033203125 110.7195510864258 C -842.3404541015625 110.7236404418945 -842.4425048828125 110.7272720336914 -842.5455322265625 110.7272720336914 L -849.33544921875 110.7272720336914 L -859.8182373046875 110.7272720336914 L -859.8184814453125 110.7272720336914 C -864.3369140625 110.7272720336914 -868 107.0641021728516 -868 102.5452270507812 C -868 102.4054565429688 -867.9964599609375 102.2663726806641 -867.989501953125 102.1281814575195 C -867.987060546875 102.0797805786133 -867.982177734375 102.0322875976562 -867.9786376953125 101.9840927124023 C -867.9727783203125 101.8947830200195 -867.96728515625 101.8052368164062 -867.95849609375 101.7165908813477 C -867.9525146484375 101.6588668823242 -867.94384765625 101.60205078125 -867.9368896484375 101.544548034668 C -867.927490234375 101.4665985107422 -867.9188232421875 101.3881912231445 -867.9072265625 101.3109130859375 C -867.89794921875 101.2497787475586 -867.885986328125 101.189323425293 -867.875244140625 101.1284103393555 C -867.8626708984375 101.0561370849609 -867.8511962890625 100.983642578125 -867.8365478515625 100.9122772216797 C -867.8238525390625 100.8486480712891 -867.8082275390625 100.7863693237305 -867.7939453125 100.7231903076172 C -867.7784423828125 100.6556930541992 -867.7640380859375 100.5872802734375 -867.7470703125 100.5202407836914 C -867.73046875 100.4550094604492 -867.711181640625 100.3909225463867 -867.6929931640625 100.3261489868164 C -867.675048828125 100.2627334594727 -867.658447265625 100.1990966796875 -867.63916015625 100.1361465454102 C -867.6181640625 100.0688629150391 -867.5950927734375 100.0029602050781 -867.57275390625 99.93637084960938 C -867.552978515625 99.87773132324219 -867.5340576171875 99.81842041015625 -867.5130615234375 99.76045989990234 C -867.4881591796875 99.69136047363281 -867.460693359375 99.62387084960938 -867.4339599609375 99.55568695068359 C -867.4127197265625 99.50137329101562 -867.392333984375 99.44682312011719 -867.3699951171875 99.39341735839844 C -867.3406982421875 99.32319641113281 -867.308837890625 99.25433349609375 -867.2777099609375 99.18522644042969 C -867.2552490234375 99.13523101806641 -867.2333984375 99.08455657958984 -867.2100830078125 99.03546142578125 C -867.1761474609375 98.96388244628906 -867.1397705078125 98.89388275146484 -867.1038818359375 98.82341766357422 C -867.0804443359375 98.77818298339844 -867.0582275390625 98.73227691650391 -867.0340576171875 98.68727874755859 C -866.9952392578125 98.61499786376953 -866.954345703125 98.54432678222656 -866.9134521484375 98.47318267822266 C -866.8895263671875 98.43160247802734 -866.8665771484375 98.38977813720703 -866.842041015625 98.34886932373047 C -866.7984619140625 98.27615356445312 -866.7528076171875 98.20453643798828 -866.706787109375 98.1334228515625 C -866.6829833984375 98.09615325927734 -866.6597900390625 98.05818939208984 -866.635009765625 98.02136993408203 C -866.586181640625 97.94795989990234 -866.5352783203125 97.87592315673828 -866.484130859375 97.80410003662109 C -866.460693359375 97.77114105224609 -866.437744140625 97.73773193359375 -866.4136962890625 97.70500183105469 C -866.359375 97.63114166259766 -866.302978515625 97.55886840820312 -866.246337890625 97.48683166503906 C -866.2236328125 97.45796203613281 -866.201416015625 97.42864227294922 -866.17822265625 97.40023040771484 C -866.1181640625 97.32614135742188 -866.056396484375 97.25386810302734 -865.993896484375 97.18181610107422 C -865.9722900390625 97.15705871582031 -865.951171875 97.13182830810547 -865.9293212890625 97.10727691650391 C -865.8636474609375 97.03365325927734 -865.796142578125 96.96182250976562 -865.7279052734375 96.89045715332031 C -865.707763671875 96.86910247802734 -865.687744140625 96.84773254394531 -865.6671142578125 96.82659912109375 C -865.595947265625 96.75386810302734 -865.52294921875 96.6827392578125 -865.4490966796875 96.61273193359375 C -865.4300537109375 96.59455108642578 -865.411376953125 96.57637023925781 -865.392333984375 96.55863952636719 C -865.3155517578125 96.48705291748047 -865.23681640625 96.41705322265625 -865.1571044921875 96.34819030761719 C -865.1400146484375 96.33364105224609 -865.123046875 96.31864166259766 -865.10595703125 96.30410003662109 C -865.02294921875 96.233642578125 -864.9385986328125 96.16568756103516 -864.8531494140625 96.09886932373047 C -864.8380126953125 96.08682250976562 -864.822998046875 96.07478332519531 -864.8077392578125 96.06297302246094 C -864.7191162109375 95.99478149414062 -864.629150390625 95.92864227294922 -864.5377197265625 95.86409759521484 C -864.5245361328125 95.85455322265625 -864.5113525390625 95.84523010253906 -864.4984130859375 95.83590698242188 C -864.404296875 95.77046203613281 -864.30859375 95.70683288574219 -864.2117919921875 95.64501190185547 C -864.200439453125 95.63773345947266 -864.1893310546875 95.63046264648438 -864.177978515625 95.62317657470703 C -864.078857421875 95.56069183349609 -863.97802734375 95.50022888183594 -863.8759765625 95.44181823730469 C -863.8663330078125 95.43637084960938 -863.8570556640625 95.43068695068359 -863.8475341796875 95.42546081542969 C -863.7432861328125 95.36614227294922 -863.6370849609375 95.309326171875 -863.530029296875 95.25478363037109 C -863.5223388671875 95.25068664550781 -863.5147705078125 95.24706268310547 -863.50732421875 95.24295806884766 C -863.398193359375 95.18772888183594 -863.2874755859375 95.13523864746094 -863.175537109375 95.08454895019531 C -863.1693115234375 95.08183288574219 -863.1632080078125 95.07887268066406 -863.1571044921875 95.07637023925781 C -863.04345703125 95.02546691894531 -862.928466796875 94.97704315185547 -862.8121337890625 94.93137359619141 C -862.8074951171875 94.92932891845703 -862.802978515625 94.92751312255859 -862.7982177734375 94.92591857910156 C -862.6802978515625 94.87978363037109 -862.5611572265625 94.83614349365234 -862.4405517578125 94.79546356201172 L -862.430908203125 94.79226684570312 C -862.30908203125 94.75113677978516 -862.1861572265625 94.71296691894531 -862.0618896484375 94.67772674560547 L -862.0548095703125 94.67568969726562 C -861.9298095703125 94.64024353027344 -861.8037109375 94.60772705078125 -861.6763916015625 94.57795715332031 L -861.6707763671875 94.57682037353516 C -861.542724609375 94.54728698730469 -861.4141845703125 94.52069091796875 -861.2840576171875 94.49726867675781 L -861.2791748046875 94.49636840820312 C -861.149169921875 94.47273254394531 -861.0177001953125 94.45250701904297 -860.885498046875 94.43524169921875 L -860.8807373046875 94.43477630615234 C -860.7486572265625 94.41728210449219 -860.615478515625 94.40341949462891 -860.4815673828125 94.39273834228516 L -860.4754638671875 94.39227294921875 C -860.342041015625 94.38159942626953 -860.2078857421875 94.37432098388672 -860.07275390625 94.37000274658203 L -860.06884765625 94.36978149414062 L -860.06884765625 94.36931610107422 C -859.91455078125 93.68797302246094 -859.6756591796875 93.03932952880859 -859.3631591796875 92.43431854248047 L -859.35791015625 92.42386627197266 C -859.3077392578125 92.32704925537109 -859.2557373046875 92.23136901855469 -859.201904296875 92.13681793212891 C -859.1982421875 92.13046264648438 -859.1943359375 92.12409210205078 -859.190673828125 92.11727905273438 C -859.1363525390625 92.02249908447266 -859.0802001953125 91.92887878417969 -859.0223388671875 91.83660125732422 L -859.0218505859375 91.83592224121094 C -858.783447265625 91.45659637451172 -858.5152587890625 91.09819030761719 -858.2196044921875 90.76410675048828 C -858.2152099609375 90.75908660888672 -858.2109375 90.75386810302734 -858.20654296875 90.74909210205078 C -858.1434326171875 90.67796325683594 -858.07861328125 90.608642578125 -858.01318359375 90.54000854492188 C -857.9952392578125 90.52114868164062 -857.977294921875 90.50205230712891 -857.9591064453125 90.48319244384766 C -857.89794921875 90.42024230957031 -857.8359375 90.358642578125 -857.77294921875 90.29773712158203 C -857.7490234375 90.27500915527344 -857.7252197265625 90.25205230712891 -857.701171875 90.22931671142578 C -857.6395263671875 90.17137145996094 -857.5775146484375 90.11409759521484 -857.5142822265625 90.05818176269531 C -857.4884033203125 90.03501129150391 -857.4615478515625 90.01228332519531 -857.435302734375 89.98954772949219 C -857.3714599609375 89.93456268310547 -857.3074951171875 89.87978363037109 -857.2420654296875 89.82637023925781 C -857.2186279296875 89.80750274658203 -857.19482421875 89.78955841064453 -857.17138671875 89.77091217041016 C -856.957275390625 89.60090637207031 -856.734375 89.44183349609375 -856.503662109375 89.29341125488281 C -856.4630126953125 89.26750183105469 -856.4229736328125 89.24091339111328 -856.381591796875 89.21544647216797 C -856.3243408203125 89.18000030517578 -856.2662353515625 89.14614105224609 -856.207763671875 89.11228179931641 C -856.1591796875 89.08386993408203 -856.1104736328125 89.05545806884766 -856.0609130859375 89.02773284912109 C -856.0050048828125 88.99681854248047 -855.948486328125 88.96659851074219 -855.8916015625 88.93659973144531 C -855.8380126953125 88.90840911865234 -855.7840576171875 88.88091278076172 -855.7298583984375 88.85386657714844 C -855.6748046875 88.82636260986328 -855.619384765625 88.79955291748047 -855.5635986328125 88.773193359375 C -855.5050048828125 88.74546051025391 -855.4456787109375 88.71909332275391 -855.3861083984375 88.69296264648438 C -855.3330078125 88.66931915283203 -855.280029296875 88.64591217041016 -855.2264404296875 88.6234130859375 C -855.158447265625 88.59523010253906 -855.08935546875 88.56887054443359 -855.0205078125 88.54250335693359 C -854.9736328125 88.52455902099609 -854.9276123046875 88.50569152832031 -854.8802490234375 88.48818206787109 C -854.76611328125 88.44705200195312 -854.6507568359375 88.40773010253906 -854.5340576171875 88.37136840820312 C -854.5025634765625 88.36136627197266 -854.470458984375 88.35318756103516 -854.4388427734375 88.34364318847656 C -854.349609375 88.31706237792969 -854.260009765625 88.29090881347656 -854.1695556640625 88.26728057861328 C -854.1231689453125 88.25501251220703 -854.076416015625 88.24431610107422 -854.02978515625 88.23296356201172 C -853.9527587890625 88.21433258056641 -853.875732421875 88.19613647460938 -853.7977294921875 88.17955017089844 C -853.747314453125 88.16886901855469 -853.6966552734375 88.15910339355469 -853.6458740234375 88.14932250976562 C -853.56982421875 88.13478088378906 -853.49365234375 88.12091064453125 -853.4168701171875 88.108642578125 C -853.365478515625 88.10000610351562 -853.3143310546875 88.09227752685547 -853.2626953125 88.08477783203125 C -853.18408203125 88.07341766357422 -853.104736328125 88.06363677978516 -853.0255126953125 88.05455017089844 C -852.9759521484375 88.04910278320312 -852.9261474609375 88.04319000244141 -852.8763427734375 88.03840637207031 C -852.7890625 88.03000640869141 -852.7015380859375 88.02387237548828 -852.6138916015625 88.01841735839844 C -852.5711669921875 88.01568603515625 -852.5286865234375 88.01204681396484 -852.4857177734375 88.01000213623047 C -852.3551025390625 88.00386810302734 -852.223388671875 88.00000762939453 -852.0911865234375 88.00000762939453 C -851.958251953125 88.00000762939453 -851.826171875 88.00386810302734 -851.69482421875 88.01000213623047 C -851.6513671875 88.01204681396484 -851.6083984375 88.01568603515625 -851.5655517578125 88.01863861083984 C -851.4775390625 88.02409362792969 -851.3897705078125 88.03024291992188 -851.302490234375 88.03864288330078 C -851.2523193359375 88.04341125488281 -851.2022705078125 88.04955291748047 -851.152099609375 88.05523681640625 C -851.07275390625 88.06432342529297 -850.9935302734375 88.0740966796875 -850.91455078125 88.08545684814453 C -850.86279296875 88.09295654296875 -850.8109130859375 88.10114288330078 -850.75927734375 88.10955810546875 C -850.6824951171875 88.12206268310547 -850.6060791015625 88.13591003417969 -850.530029296875 88.15046691894531 C -850.4788818359375 88.16046142578125 -850.427978515625 88.17046356201172 -850.3770751953125 88.18137359619141 C -850.2998046875 88.19773101806641 -850.22314453125 88.21568298339844 -850.1468505859375 88.23432159423828 C -850.09912109375 88.24591064453125 -850.0511474609375 88.25727844238281 -850.00390625 88.26954650878906 C -849.92041015625 88.29160308837891 -849.8377685546875 88.31568908691406 -849.7554931640625 88.34023284912109 C -849.7164306640625 88.35182952880859 -849.6768798828125 88.36251068115234 -849.637939453125 88.37454986572266 C -849.5184326171875 88.41227722167969 -849.4000244140625 88.45182037353516 -849.2830810546875 88.49478149414062 C -849.2625732421875 88.50228118896484 -849.2430419921875 88.51068878173828 -849.2227783203125 88.5181884765625 C -849.125732421875 88.55455780029297 -849.0291748046875 88.59204864501953 -848.9339599609375 88.63204956054688 C -848.8905029296875 88.65023040771484 -848.84765625 88.67001342773438 -848.8045654296875 88.68887329101562 C -848.7333984375 88.72023010253906 -848.6624755859375 88.7518310546875 -848.59228515625 88.78478240966797 C -848.5447998046875 88.80750274658203 -848.497802734375 88.83091735839844 -848.45068359375 88.85455322265625 C -848.3863525390625 88.88636779785156 -848.322265625 88.91909027099609 -848.2586669921875 88.95272827148438 C -848.21044921875 88.9786376953125 -848.1624755859375 89.00478363037109 -848.1148681640625 89.0313720703125 C -848.0538330078125 89.06546020507812 -847.993408203125 89.10022735595703 -847.9334716796875 89.13568878173828 C -847.885986328125 89.16364288330078 -847.8385009765625 89.19181823730469 -847.7916259765625 89.22090911865234 C -847.7318115234375 89.25773620605469 -847.6734619140625 89.29590606689453 -847.61474609375 89.33432769775391 C -847.569580078125 89.36386108398438 -847.5240478515625 89.3931884765625 -847.4793701171875 89.42386627197266 C -847.418212890625 89.46546173095703 -847.3582763671875 89.50932312011719 -847.2979736328125 89.55272674560547 C -847.2579345703125 89.58159637451172 -847.21728515625 89.60977935791016 -847.177734375 89.63954925537109 C -847.083251953125 89.710693359375 -846.989990234375 89.78386688232422 -846.8984375 89.85910034179688 C -846.8602294921875 89.89022827148438 -846.8236083984375 89.92340850830078 -846.7860107421875 89.95545959472656 C -846.73046875 90.00296020507812 -846.674560546875 90.05023193359375 -846.6202392578125 90.098876953125 C -846.57666015625 90.13819122314453 -846.534423828125 90.17887115478516 -846.4915771484375 90.2188720703125 C -846.4451904296875 90.26251220703125 -846.3985595703125 90.30615234375 -846.3531494140625 90.35114288330078 C -846.3095703125 90.39409637451172 -846.2666015625 90.43818664550781 -846.223876953125 90.48204803466797 C -846.181396484375 90.52568817138672 -846.139404296875 90.56977844238281 -846.0977783203125 90.61432647705078 C -846.0548095703125 90.66046142578125 -846.0126953125 90.70704650878906 -845.970947265625 90.75409698486328 C -845.931640625 90.79840850830078 -845.89306640625 90.84319305419922 -845.854736328125 90.88841247558594 C -845.813232421875 90.93727874755859 -845.7718505859375 90.98615264892578 -845.7315673828125 91.03569030761719 C -845.69482421875 91.08114624023438 -845.659423828125 91.12705230712891 -845.6239013671875 91.1729736328125 C -845.5838623046875 91.22409820556641 -845.5439453125 91.27546691894531 -845.5052490234375 91.32795715332031 C -845.4718017578125 91.37296295166016 -845.4400634765625 91.41932678222656 -845.4075927734375 91.46501159667969 C -845.2625732421875 91.67024230957031 -845.1265869140625 91.88250732421875 -845.00048828125 92.10114288330078 C -844.974609375 92.14614105224609 -844.947998046875 92.19091796875 -844.9227294921875 92.23636627197266 C -844.889404296875 92.29727935791016 -844.8572998046875 92.35932159423828 -844.8251953125 92.421142578125 C -844.80078125 92.46865081787109 -844.7760009765625 92.51592254638672 -844.7523193359375 92.56387329101562 C -844.72119140625 92.62637329101562 -844.691650390625 92.68978118896484 -844.662353515625 92.75318145751953 C -844.6397705078125 92.80182647705078 -844.61767578125 92.85045623779297 -844.59619140625 92.89932250976562 C -844.5679931640625 92.9638671875 -844.54052734375 93.02863311767578 -844.5137939453125 93.09409332275391 C -844.493896484375 93.1431884765625 -844.474609375 93.19251251220703 -844.4554443359375 93.24205780029297 C -844.4300537109375 93.30841827392578 -844.404541015625 93.375 -844.3804931640625 93.44251251220703 C -844.3631591796875 93.49160003662109 -844.346923828125 93.54136657714844 -844.33056640625 93.59091949462891 C -844.3072509765625 93.65978240966797 -844.2841796875 93.72886657714844 -844.2626953125 93.79865264892578 C -844.2489013671875 93.84432220458984 -844.2366943359375 93.89068603515625 -844.2236328125 93.93659973144531 C -844.17236328125 94.11637878417969 -844.1258544921875 94.29840850830078 -844.0867919921875 94.48296356201172 C -844.08544921875 94.48887634277344 -844.0841064453125 94.49455261230469 -844.082763671875 94.50068664550781 C -843.993896484375 94.92659759521484 -843.9383544921875 95.36456298828125 -843.91845703125 95.81204986572266 C -843.0238037109375 95.03455352783203 -841.8944091796875 94.52046203613281 -840.649658203125 94.39409637451172 C -840.450927734375 94.37409210205078 -840.2496337890625 94.36363983154297 -840.0455322265625 94.36363983154297 C -839.8416137695312 94.36363983154297 -839.6400756835938 94.37409210205078 -839.4412231445312 94.39409637451172 C -836.4613647460938 94.69682312011719 -834.1364135742188 97.21318817138672 -834.1364135742188 100.2727432250977 L -834.1364135742188 100.2729568481445 C -834.1364135742188 100.3000030517578 -834.1380004882812 100.3263702392578 -834.1384887695312 100.3534088134766 C -833.842529296875 100.3013763427734 -833.5384521484375 100.2727432250977 -833.2275390625 100.2727432250977 C -830.3402099609375 100.2727432250977 -828 102.6129608154297 -828 105.5000076293945 C -828 108.255012512207 -830.131591796875 110.5104598999023 -832.8352661132812 110.7111434936523 L -832.8352661132812 110.7193222045898 L -832.8352661132812 110.7195510864258 L -832.9457397460938 110.7195510864258 C -833.0389404296875 110.7243270874023 -833.1329956054688 110.7272720336914 -833.2275390625 110.7272720336914 Z" stroke="none" fill="#c9c9c9"/>
    </g>
  </g>
</svg>
