<svg xmlns="http://www.w3.org/2000/svg" width="40" height="40" viewBox="0 0 40 40">
  <g id="_3" data-name="3" transform="translate(648 208)">
    <g id="Grupo_8621" data-name="Grupo 8621" transform="translate(-640.727 -181.636)">
      <path id="Caminho_7440" data-name="Caminho 7440" d="M-614.182-88.418a.937.937,0,0,1-.909.963h0a.937.937,0,0,1-.909-.963v-2.619a.937.937,0,0,1,.909-.963h0a.937.937,0,0,1,.909.963Z" transform="translate(616 92)" fill="#c9c9c9"/>
      <path id="Caminho_7441" data-name="Caminho 7441" d="M-510.182-88.418a.937.937,0,0,1-.909.963h0a.937.937,0,0,1-.909-.963v-2.619a.937.937,0,0,1,.909-.963h0a.937.937,0,0,1,.909.963Z" transform="translate(535.636 92)" fill="#c9c9c9"/>
      <path id="Caminho_7442" data-name="Caminho 7442" d="M-586.182-48.418a.937.937,0,0,1-.909.963h0a.937.937,0,0,1-.909-.963v-2.619a.937.937,0,0,1,.909-.963h0a.937.937,0,0,1,.909.963Z" transform="translate(594.364 61.091)" fill="#c9c9c9"/>
      <path id="Caminho_7443" data-name="Caminho 7443" d="M-538.182-48.418a.937.937,0,0,1-.909.963h0a.937.937,0,0,1-.909-.963v-2.619a.937.937,0,0,1,.909-.963h0a.937.937,0,0,1,.909.963Z" transform="translate(557.273 61.091)" fill="#c9c9c9"/>
      <path id="Caminho_7444" data-name="Caminho 7444" d="M-562.182-80.418a.938.938,0,0,1-.909.963h0a.937.937,0,0,1-.909-.963v-2.619a.937.937,0,0,1,.909-.963h0a.938.938,0,0,1,.909.963Z" transform="translate(575.818 85.818)" fill="#c9c9c9"/>
    </g>
    <g id="Caminho_7445" data-name="Caminho 7445" transform="translate(0)" fill="#f2f2f2" stroke-miterlimit="10">
      <path d="M -613.2275390625 -185.7727355957031 C -613.3098754882812 -185.7727355957031 -613.3955688476562 -185.7751007080078 -613.4823608398438 -185.7797393798828 L -613.4957275390625 -185.7804565429688 L -613.5090942382812 -185.7804565429688 L -622.2384643554688 -185.7804565429688 L -622.2484741210938 -185.7804565429688 L -622.2584838867188 -185.7800598144531 C -622.3508911132812 -185.7763519287109 -622.4491577148438 -185.7727355957031 -622.5454711914062 -185.7727355957031 L -639.8182373046875 -185.7727355957031 C -644.0540771484375 -185.7727355957031 -647.5000610351562 -189.2188720703125 -647.5000610351562 -193.4547729492188 C -647.5000610351562 -195.4653015136719 -646.728271484375 -197.3660736083984 -645.326904296875 -198.8069763183594 C -643.9285278320312 -200.2447967529297 -642.0557861328125 -201.0698852539062 -640.0537719726562 -201.1302337646484 L -639.6666259765625 -201.1419067382812 L -639.5811767578125 -201.5197143554688 C -639.203125 -203.1913146972656 -638.2569580078125 -204.7091979980469 -636.9169921875 -205.7937316894531 C -635.5575561523438 -206.89404296875 -633.84375 -207.5 -632.0911865234375 -207.5 C -630.0997924804688 -207.5 -628.2119140625 -206.7411346435547 -626.775390625 -205.3632049560547 C -625.34326171875 -203.9894866943359 -624.5060424804688 -202.1436309814453 -624.41796875 -200.1656951904297 L -624.3718872070312 -199.1315002441406 L -623.5905151367188 -199.8105316162109 C -622.6066284179688 -200.6655120849609 -621.3475952148438 -201.1363677978516 -620.0454711914062 -201.1363677978516 C -617.0629272460938 -201.1363677978516 -614.6364135742188 -198.7097625732422 -614.6364135742188 -195.72705078125 C -614.6364135742188 -195.7169342041016 -614.6368408203125 -195.7069396972656 -614.63720703125 -195.6969451904297 C -614.6376953125 -195.6832122802734 -614.63818359375 -195.6694946289062 -614.638427734375 -195.6557159423828 L -614.6494750976562 -195.0494689941406 L -614.05224609375 -195.1540832519531 C -613.7749633789062 -195.2026519775391 -613.4974975585938 -195.2272796630859 -613.2275390625 -195.2272796630859 C -610.6207885742188 -195.2272796630859 -608.5000610351562 -193.1066284179688 -608.5000610351562 -190.5 C -608.5000610351562 -189.2993011474609 -608.9508666992188 -188.1549224853516 -609.7693481445312 -187.2776641845703 C -610.5838012695312 -186.40478515625 -611.685791015625 -185.8755645751953 -612.8722534179688 -185.7874908447266 L -612.9869384765625 -185.7789916992188 C -613.0687255859375 -185.7748413085938 -613.1495971679688 -185.7727355957031 -613.2275390625 -185.7727355957031 Z" stroke="none"/>
      <path d="M -613.2275390625 -186.2727355957031 C -613.1597900390625 -186.2727355957031 -613.08935546875 -186.2745361328125 -613.017822265625 -186.278076171875 L -612.9093017578125 -186.2861328125 C -611.8485717773438 -186.3648529052734 -610.8633422851562 -186.838134765625 -610.1349487304688 -187.6187744140625 C -609.403076171875 -188.4031219482422 -609.0000610351562 -189.4263610839844 -609.0000610351562 -190.5 C -609.0000610351562 -192.8309326171875 -610.896484375 -194.7272796630859 -613.2275390625 -194.7272796630859 C -613.4686279296875 -194.7272796630859 -613.7171020507812 -194.7051849365234 -613.9659423828125 -194.6615905761719 L -615.1604614257812 -194.4523620605469 L -615.1383056640625 -195.6648406982422 C -615.1380004882812 -195.6814422607422 -615.1375122070312 -195.6979522705078 -615.1369018554688 -195.7144927978516 L -615.1364135742188 -195.72705078125 C -615.1364135742188 -198.4340515136719 -617.338623046875 -200.6363677978516 -620.0454711914062 -200.6363677978516 C -621.2271118164062 -200.6363677978516 -622.36962890625 -200.2090454101562 -623.2625122070312 -199.43310546875 L -624.8253784179688 -198.0750732421875 L -624.91748046875 -200.1434478759766 C -624.9998168945312 -201.9924163818359 -625.7825927734375 -203.718017578125 -627.1215209960938 -205.0023651123047 C -628.4644775390625 -206.2905578613281 -630.2294311523438 -207 -632.0911865234375 -207 C -633.7533569335938 -207 -635.3132934570312 -206.448486328125 -636.6024169921875 -205.4050903320312 C -637.8554077148438 -204.3909301757812 -638.7401123046875 -202.9718933105469 -639.093505859375 -201.4094085693359 L -639.264404296875 -200.65380859375 L -640.0386962890625 -200.6304626464844 C -641.9102783203125 -200.5740356445312 -643.6610717773438 -199.8026428222656 -644.9684448242188 -198.4583740234375 C -646.278564453125 -197.1113433837891 -647.0000610351562 -195.3343505859375 -647.0000610351562 -193.4547729492188 C -647.0000610351562 -189.4945831298828 -643.7783813476562 -186.2727355957031 -639.8182373046875 -186.2727355957031 L -622.5454711914062 -186.2727355957031 C -622.4583740234375 -186.2727355957031 -622.3658447265625 -186.2761535644531 -622.2785034179688 -186.2796630859375 L -622.2584838867188 -186.2804565429688 L -622.2384643554688 -186.2804565429688 L -613.5090942382812 -186.2804565429688 L -613.4822998046875 -186.2804565429688 L -613.45556640625 -186.2790222167969 C -613.377685546875 -186.2748565673828 -613.3009643554688 -186.2727355957031 -613.2275390625 -186.2727355957031 M -613.2275390625 -185.2727355957031 C -613.3220825195312 -185.2727355957031 -613.4159545898438 -185.2754669189453 -613.5090942382812 -185.2804565429688 L -622.2384643554688 -185.2804565429688 C -622.3405151367188 -185.2763671875 -622.4425048828125 -185.2727355957031 -622.5454711914062 -185.2727355957031 L -639.8182373046875 -185.2727355957031 L -639.8184204101562 -185.2727355957031 C -644.3369140625 -185.2727355957031 -648.0000610351562 -188.9359130859375 -648.0000610351562 -193.4547729492188 C -648.0000610351562 -197.8893280029297 -644.47119140625 -201.4972839355469 -640.06884765625 -201.6300048828125 C -639.244140625 -205.2763671875 -635.9866333007812 -208 -632.0911865234375 -208 C -627.6961669921875 -208 -624.112060546875 -204.5347747802734 -623.91845703125 -200.1879425048828 C -622.8811645507812 -201.0893249511719 -621.5275268554688 -201.6363677978516 -620.0454711914062 -201.6363677978516 C -616.7818603515625 -201.6363677978516 -614.1364135742188 -198.9904632568359 -614.1364135742188 -195.72705078125 C -614.1364135742188 -195.7000122070312 -614.1380004882812 -195.6734161376953 -614.1384887695312 -195.6465911865234 C -613.842529296875 -195.6984252929688 -613.5384521484375 -195.7272796630859 -613.2275390625 -195.7272796630859 C -610.3402099609375 -195.7272796630859 -608.0000610351562 -193.3870391845703 -608.0000610351562 -190.5 C -608.0000610351562 -187.7450103759766 -610.131591796875 -185.4895477294922 -612.8352661132812 -185.2888641357422 L -612.8352661132812 -185.2804565429688 L -612.9457397460938 -185.2804565429688 C -613.0388793945312 -185.2754669189453 -613.1329956054688 -185.2727355957031 -613.2275390625 -185.2727355957031 Z" stroke="none" fill="#c9c9c9"/>
    </g>
  </g>
</svg>
