<svg xmlns="http://www.w3.org/2000/svg" width="40" height="40" viewBox="0 0 40 40">
  <g id="_3n" data-name="3n" transform="translate(648 -12)">
    <g id="Caminho_7311" data-name="Caminho 7311" transform="translate(0)" fill="#f2f2f2" stroke-miterlimit="10">
      <path d="M -613.2275390625 34.22727584838867 C -613.3068237304688 34.22727584838867 -613.3905639648438 34.2249641418457 -613.4835205078125 34.22019577026367 L -613.4962768554688 34.21954727172852 L -613.5090942382812 34.21954727172852 L -622.2384643554688 34.21954727172852 L -622.2484741210938 34.21954727172852 L -622.2584838867188 34.21994781494141 C -622.3510131835938 34.22365570068359 -622.4494018554688 34.22727584838867 -622.5454711914062 34.22727584838867 L -629.3352661132812 34.22727584838867 L -639.8182373046875 34.22727584838867 C -644.0540771484375 34.22727584838867 -647.5000610351562 30.78112602233887 -647.5000610351562 26.54522514343262 C -647.5000610351562 26.41781616210938 -647.4967651367188 26.28574562072754 -647.490234375 26.15268516540527 C -647.4890747070312 26.13013648986816 -647.4869995117188 26.10658645629883 -647.4849853515625 26.08300590515137 C -647.483154296875 26.06184577941895 -647.4813842773438 26.04068565368652 -647.4799194335938 26.01939582824707 L -647.4773559570312 25.98085594177246 C -647.472412109375 25.90569686889648 -647.4677734375 25.83469581604004 -647.4609375 25.7665958404541 C -647.4579467773438 25.73633575439453 -647.4539794921875 25.70722579956055 -647.4500732421875 25.67806625366211 C -647.44677734375 25.65337562561035 -647.4435424804688 25.62866592407227 -647.4405517578125 25.60383605957031 L -647.434326171875 25.55165672302246 C -647.4276733398438 25.49589538574219 -647.4210815429688 25.44016647338867 -647.412841796875 25.38508605957031 C -647.4075317382812 25.3500862121582 -647.4009399414062 25.31460571289062 -647.3944091796875 25.27910614013672 L -647.3828735351562 25.21553611755371 L -647.373291015625 25.15960693359375 C -647.3649291992188 25.11019515991211 -647.3566284179688 25.06088638305664 -647.3466796875 25.01205635070801 C -647.3388671875 24.97298622131348 -647.330078125 24.93597602844238 -647.3213500976562 24.89891624450684 C -647.3162841796875 24.87741661071777 -647.3112182617188 24.85589599609375 -647.3063354492188 24.83430671691895 L -647.2927856445312 24.77406692504883 C -647.2830810546875 24.73044586181641 -647.2734375 24.68681526184082 -647.2623901367188 24.64350509643555 C -647.25146484375 24.60018539428711 -647.2393188476562 24.55837631225586 -647.2273559570312 24.51658630371094 L -647.2120971679688 24.46330642700195 L -647.1950073242188 24.40183639526367 C -647.18408203125 24.3621654510498 -647.1732177734375 24.32250595092773 -647.1610717773438 24.28314590454102 C -647.1480102539062 24.24044609069824 -647.1339721679688 24.19935607910156 -647.1199951171875 24.15821647644043 L -647.098876953125 24.09553527832031 C -647.092529296875 24.07699584960938 -647.085205078125 24.05495643615723 -647.077880859375 24.03288650512695 C -647.0667114257812 23.99909591674805 -647.0555419921875 23.9652156829834 -647.0433349609375 23.93177604675293 C -647.0253295898438 23.88186645507812 -647.0065307617188 23.8344669342041 -646.9878540039062 23.78720664978027 L -646.9690551757812 23.73952674865723 L -646.9463500976562 23.68116569519043 C -646.9341430664062 23.6494255065918 -646.9219970703125 23.61772537231445 -646.9088745117188 23.58657646179199 C -646.8865356445312 23.5329761505127 -646.8627319335938 23.48081588745117 -646.839111328125 23.42886543273926 L -646.822998046875 23.39333534240723 L -646.8048706054688 23.35249519348145 C -646.7896118164062 23.31807518005371 -646.7744750976562 23.28367614746094 -646.7583618164062 23.2498950958252 C -646.734375 23.19950675964355 -646.7089233398438 23.14979553222656 -646.6834716796875 23.09995651245117 L -646.658935546875 23.05169677734375 L -646.6341552734375 23.00285530090332 C -646.6203002929688 22.97540664672852 -646.6063842773438 22.94792556762695 -646.592041015625 22.92071533203125 C -646.5625610351562 22.86586570739746 -646.5300903320312 22.80947685241699 -646.4976806640625 22.75306510925293 L -646.4808349609375 22.72379684448242 L -646.4584350585938 22.68444633483887 C -646.4437866210938 22.65852546691895 -646.4291381835938 22.63259696960449 -646.4136962890625 22.60699653625488 C -646.37060546875 22.53505516052246 -646.3262329101562 22.46574592590332 -646.2883911132812 22.40719604492188 L -646.2704467773438 22.37889671325684 C -646.2531127929688 22.35145568847656 -646.2357788085938 22.32396507263184 -646.2178344726562 22.29689598083496 C -646.1716918945312 22.22760581970215 -646.1216430664062 22.15691566467285 -646.078857421875 22.09702682495117 L -646.0527954101562 22.06000518798828 C -646.0388793945312 22.04021644592285 -646.0250244140625 22.02034568786621 -646.0106201171875 22.00085639953613 C -645.9658813476562 21.94022560119629 -645.9154052734375 21.87441635131836 -645.8564453125 21.79994583129883 L -645.83447265625 21.77172660827637 C -645.8193359375 21.75214576721191 -645.8041381835938 21.7325553894043 -645.7886352539062 21.71330642700195 C -645.732177734375 21.6438159942627 -645.6734008789062 21.57533645629883 -645.618408203125 21.5118465423584 L -645.5900268554688 21.47902679443359 C -645.5786743164062 21.46584510803223 -645.5673217773438 21.45260620117188 -645.5556640625 21.43959617614746 C -645.4899291992188 21.36576652526855 -645.4215087890625 21.29341506958008 -645.369140625 21.238525390625 L -645.3413696289062 21.20927619934082 C -645.3308715820312 21.19816589355469 -645.3204345703125 21.18703651428223 -645.3096313476562 21.17607688903809 C -645.2498779296875 21.11527633666992 -645.1837158203125 21.05039596557617 -645.107177734375 20.97742652893066 L -645.077880859375 20.94943618774414 C -645.0687866210938 20.9406566619873 -645.0596923828125 20.93187522888184 -645.0504760742188 20.92327690124512 C -644.9852294921875 20.8626651763916 -644.9141235351562 20.79916572570801 -644.8333129882812 20.72938537597656 C -644.824951171875 20.72230529785156 -644.814208984375 20.71292686462402 -644.8034057617188 20.70352554321289 L -644.7801513671875 20.68337631225586 C -644.7122192382812 20.62565612792969 -644.6361694335938 20.56392669677734 -644.5482177734375 20.49512672424316 L -644.5267333984375 20.47806549072266 C -644.5187377929688 20.47166633605957 -644.5108032226562 20.46528625488281 -644.5026245117188 20.45907592773438 C -644.4251708984375 20.39943695068359 -644.34375 20.33943557739258 -644.2520141601562 20.27435684204102 C -644.2369995117188 20.26361656188965 -644.2237548828125 20.25413513183594 -644.2103881835938 20.2448558807373 C -644.1272583007812 20.18672561645508 -644.0410766601562 20.12917518615723 -643.9461059570312 20.0683650970459 C -643.9347534179688 20.06125640869141 -643.9205322265625 20.05211639404297 -643.90625 20.04280090332031 C -643.8178100585938 19.98725318908691 -643.7254028320312 19.93186950683594 -643.6314697265625 19.87814521789551 C -643.6253662109375 19.87470626831055 -643.617431640625 19.87006568908691 -643.6095581054688 19.86539649963379 L -643.6014404296875 19.86064529418945 C -643.5031127929688 19.8049259185791 -643.4052124023438 19.75236511230469 -643.3072509765625 19.70261573791504 L -643.3026733398438 19.70026588439941 L -643.298095703125 19.69781684875488 L -643.2762451171875 19.68640518188477 C -643.1793212890625 19.6375560760498 -643.0763549804688 19.58842658996582 -642.9733276367188 19.54200553894043 L -642.9673461914062 19.539306640625 L -642.96142578125 19.53645515441895 L -642.9447021484375 19.5290355682373 L -642.94970703125 19.53132629394531 C -642.847412109375 19.48536682128906 -642.7405395507812 19.44042587280273 -642.6321411132812 19.39776611328125 L -642.6370849609375 19.39968681335449 L -642.621826171875 19.39372634887695 L -642.61962890625 19.39288520812988 L -642.6137084960938 19.39056587219238 C -642.5051879882812 19.34821510314941 -642.3939819335938 19.30768585205078 -642.2831420898438 19.27010536193848 L -642.2757568359375 19.26757621765137 L -642.2672729492188 19.26467514038086 C -642.1554565429688 19.22712707519531 -642.0418090820312 19.19182014465332 -641.9307250976562 19.16014289855957 C -641.9237060546875 19.15823173522949 -641.9169311523438 19.15628623962402 -641.9102783203125 19.1542854309082 C -641.7965698242188 19.12233734130859 -641.6832885742188 19.09310340881348 -641.5733642578125 19.06734085083008 C -641.5652465820312 19.06568717956543 -641.5559692382812 19.06361389160156 -641.545654296875 19.06094169616699 C -641.4281616210938 19.03407669067383 -641.31103515625 19.01007270812988 -641.1973876953125 18.98955535888672 L -641.1924438476562 18.98872566223145 C -641.0753173828125 18.96748924255371 -640.9558715820312 18.94881248474121 -640.8328247070312 18.93240737915039 C -640.8228759765625 18.9313793182373 -640.81298828125 18.93006706237793 -640.8031005859375 18.9284782409668 C -640.6822509765625 18.9132080078125 -640.56103515625 18.90064239501953 -640.4424438476562 18.89112663269043 L -640.43359375 18.89039611816406 C -640.3117065429688 18.88082695007324 -640.1845092773438 18.87383651733398 -640.0567626953125 18.86973571777344 L -640.0509033203125 18.86955642700195 L -640.0450439453125 18.86922645568848 L -639.5728149414062 18.84298515319824 L -639.5693359375 18.42820358276367 C -639.4261474609375 17.81561279296875 -639.2074584960938 17.22223281860352 -638.9190063476562 16.66377639770508 L -638.9176635742188 16.66128540039062 L -638.9164428710938 16.65877532958984 L -638.9127197265625 16.6513786315918 C -638.8659057617188 16.56126022338867 -638.8170166015625 16.47139930725098 -638.7673950195312 16.38423538208008 C -638.7628784179688 16.3766040802002 -638.7584228515625 16.36883354187012 -638.7540283203125 16.36085891723633 C -638.7057495117188 16.27680778503418 -638.6556396484375 16.19320869445801 -638.6049194335938 16.11212539672852 L -638.5985107421875 16.10197639465332 C -638.3751220703125 15.74651622772217 -638.1216430664062 15.40787601470947 -637.8451538085938 15.09545612335205 L -637.8433837890625 15.09344577789307 L -637.8416137695312 15.09141635894775 L -637.8349609375 15.08364582061768 L -637.8367919921875 15.08558559417725 L -637.834716796875 15.08334636688232 L -637.8327026367188 15.08108615875244 C -637.781005859375 15.02283573150635 -637.723388671875 14.96058559417725 -637.6514282226562 14.88518619537354 L -637.6384887695312 14.87147617340088 C -637.6256713867188 14.8579158782959 -637.6127319335938 14.84428596496582 -637.5997314453125 14.83078575134277 C -637.5465698242188 14.77604579925537 -637.4893188476562 14.71899604797363 -637.42529296875 14.65699577331543 L -637.3982543945312 14.63123607635498 L -637.358154296875 14.59312629699707 C -637.2919311523438 14.53080558776855 -637.2362060546875 14.47970581054688 -637.1829833984375 14.43259620666504 C -637.1637573242188 14.41543579101562 -637.1463012695312 14.40048599243164 -637.12890625 14.38556575775146 L -637.1087646484375 14.36826610565186 C -637.0470581054688 14.31505584716797 -636.9865112304688 14.26313591003418 -636.926025390625 14.21384620666504 C -636.9180908203125 14.20746612548828 -636.9075927734375 14.19930648803711 -636.8970947265625 14.19114589691162 C -636.8845825195312 14.18140602111816 -636.8720703125 14.17168617248535 -636.8596801757812 14.1617956161499 C -636.6624755859375 14.00520610809326 -636.4513549804688 13.85428619384766 -636.233154296875 13.71391582489014 L -636.1897583007812 13.68599605560303 C -636.1665649414062 13.67099571228027 -636.1433715820312 13.65594577789307 -636.11962890625 13.64135646820068 C -636.065185546875 13.60762596130371 -636.0111694335938 13.57626628875732 -635.95703125 13.54484558105469 C -635.9095458984375 13.51712608337402 -635.8634643554688 13.49019622802734 -635.8165893554688 13.46394634246826 C -635.7659301757812 13.43594646453857 -635.712158203125 13.40724563598633 -635.6581420898438 13.37874603271484 C -635.6085205078125 13.35264587402344 -635.5579223632812 13.32683563232422 -635.5068969726562 13.30144596099854 C -635.4544067382812 13.27519607543945 -635.4022827148438 13.24996566772461 -635.349853515625 13.2251558303833 C -635.2954711914062 13.19943618774414 -635.240478515625 13.17504596710205 -635.1852416992188 13.15081596374512 C -635.1331176757812 13.12762641906738 -635.0833740234375 13.10562610626221 -635.0330200195312 13.08449554443359 C -634.9741821289062 13.06011581420898 -634.91259765625 13.03658580780029 -634.8511962890625 13.01306629180908 L -634.8416748046875 13.00941562652588 C -634.8214111328125 13.00166606903076 -634.80126953125 12.99373626708984 -634.7810668945312 12.98580646514893 C -634.7564086914062 12.9760856628418 -634.731689453125 12.96633625030518 -634.7066040039062 12.95704555511475 C -634.5946655273438 12.91673564910889 -634.4881591796875 12.88078594207764 -634.38525390625 12.84868621826172 C -634.3703002929688 12.84395599365234 -634.3573608398438 12.84040641784668 -634.344482421875 12.83677577972412 C -634.3277587890625 12.83205604553223 -634.3109741210938 12.82731628417969 -634.2943115234375 12.82228565216064 C -634.2152099609375 12.79872608184814 -634.1284790039062 12.77332592010498 -634.0431518554688 12.7510461807251 C -634.0128173828125 12.74300575256348 -633.98388671875 12.73614597320557 -633.9550170898438 12.72922611236572 L -633.9114379882812 12.71874618530273 C -633.839599609375 12.70136642456055 -633.7669677734375 12.68420600891113 -633.693603515625 12.66857624053955 C -633.6467895507812 12.65866565704346 -633.59912109375 12.64949607849121 -633.5513305664062 12.64029598236084 C -633.4685668945312 12.62446594238281 -633.4005126953125 12.61237621307373 -633.337890625 12.60236644744873 C -633.2862548828125 12.59367561340332 -633.2387084960938 12.5865364074707 -633.1907958984375 12.57957649230957 C -633.126953125 12.57034587860107 -633.0562133789062 12.56134605407715 -632.9685668945312 12.55129623413086 L -632.9274291992188 12.546706199646 C -632.89453125 12.54300594329834 -632.8616333007812 12.53928565979004 -632.82861328125 12.5361156463623 C -632.7406005859375 12.5276460647583 -632.6510620117188 12.52168560028076 -632.5828857421875 12.51743602752686 L -632.53125 12.51388645172119 C -632.5081787109375 12.51223564147949 -632.485107421875 12.51053619384766 -632.4619140625 12.50942611694336 C -632.3267211914062 12.50308609008789 -632.205322265625 12.49999618530273 -632.0911865234375 12.49999618530273 C -631.9765014648438 12.49999618530273 -631.8544921875 12.50308609008789 -631.7181396484375 12.50945568084717 C -631.69580078125 12.51049613952637 -631.673583984375 12.51218605041504 -631.6513061523438 12.51381587982178 C -631.6329345703125 12.51515579223633 -631.6145629882812 12.51649570465088 -631.5961303710938 12.51765632629395 C -631.5274047851562 12.52194595336914 -631.4376831054688 12.52792644500732 -631.3512573242188 12.53630638122559 C -631.3175659179688 12.53945636749268 -631.2857055664062 12.54320621490479 -631.2537841796875 12.54690647125244 L -631.2063598632812 12.55234622955322 C -631.1271362304688 12.5612964630127 -631.0551147460938 12.57042598724365 -630.9866333007812 12.5802059173584 C -630.9375610351562 12.58733558654785 -630.88720703125 12.59530639648438 -630.8370971679688 12.60348606109619 C -630.7675170898438 12.61495590209961 -630.6973876953125 12.62764644622803 -630.6273803710938 12.64095592498779 C -630.5789794921875 12.65044593811035 -630.5285034179688 12.66029644012451 -630.4783935546875 12.67100620269775 C -630.4085693359375 12.68574619293213 -630.3403930664062 12.70200634002686 -630.272216796875 12.71841621398926 L -630.2313842773438 12.72832584381104 C -630.1959228515625 12.73692607879639 -630.1604614257812 12.74548625946045 -630.125244140625 12.75463581085205 C -630.0584106445312 12.77237606048584 -629.9896850585938 12.79272556304932 -629.9208374023438 12.8130464553833 L -629.9192504882812 12.81352615356445 L -629.9155883789062 12.81459617614746 L -629.8823852539062 12.82409572601318 C -629.8490600585938 12.83360576629639 -629.8157348632812 12.84306621551514 -629.78271484375 12.85342597961426 C -629.7064208984375 12.87738609313965 -629.6250610351562 12.90491580963135 -629.51904296875 12.94265556335449 C -629.454345703125 12.96574592590332 -629.3900146484375 12.99014568328857 -629.3259887695312 13.01493644714355 L -629.30419921875 13.02332592010498 C -629.2474975585938 13.04520606994629 -629.1907958984375 13.06702613830566 -629.1348266601562 13.09025573730469 C -629.0923461914062 13.10802555084229 -629.0489501953125 13.12750625610352 -629.0055541992188 13.14693641662598 L -628.9690551757812 13.16325569152832 L -628.9271850585938 13.18195629119873 C -628.8920288085938 13.19761562347412 -628.8568725585938 13.21320629119873 -628.822265625 13.22974586486816 C -628.7608642578125 13.25866603851318 -628.7028198242188 13.2876558303833 -628.6448974609375 13.31681632995605 L -628.619140625 13.32984638214111 C -628.5841064453125 13.34755611419678 -628.549072265625 13.36525630950928 -628.5142822265625 13.38366603851318 C -628.4529418945312 13.41607570648193 -628.392578125 13.44902610778809 -628.3327026367188 13.48263645172119 C -628.296142578125 13.50337600708008 -628.257568359375 13.52569580078125 -628.2194213867188 13.54800605773926 C -628.155517578125 13.58523559570312 -628.0927734375 13.6227855682373 -628.0306396484375 13.66141605377197 C -628.0081176757812 13.67549610137939 -627.9847412109375 13.69067573547363 -627.96142578125 13.70580577850342 L -627.9430541992188 13.71770572662354 C -627.8809204101562 13.75765609741211 -627.809326171875 13.80414581298828 -627.7398681640625 13.85205554962158 L -627.7197875976562 13.86624622344971 L -627.7020874023438 13.87887573242188 C -627.2758178710938 14.17644309997559 -626.8800659179688 14.51683807373047 -626.5236206054688 14.89224147796631 L -626.5123291015625 14.90438556671143 C -625.2435913085938 16.2448558807373 -624.4998168945312 17.99566650390625 -624.41796875 19.83428573608398 L -624.3718872070312 20.86858558654785 L -623.5904541015625 20.1894359588623 C -622.7431030273438 19.4529857635498 -621.708740234375 19.00417518615723 -620.5991821289062 18.89152526855469 C -620.415283203125 18.8730354309082 -620.2288818359375 18.8636360168457 -620.0454711914062 18.8636360168457 C -619.8621215820312 18.8636360168457 -619.6756591796875 18.8730354309082 -619.4912109375 18.89157676696777 C -618.166748046875 19.02613639831543 -616.94140625 19.6456356048584 -616.0413818359375 20.63588523864746 C -615.1353759765625 21.63277626037598 -614.6364135742188 22.92436599731445 -614.6364135742188 24.27272605895996 C -614.6364135742188 24.28298568725586 -614.6368408203125 24.29286575317383 -614.63720703125 24.30277633666992 C -614.6376953125 24.31656646728516 -614.6381225585938 24.33038520812988 -614.638427734375 24.34434509277344 L -614.6494140625 24.9509162902832 L -614.0518798828125 24.84585571289062 C -613.7759399414062 24.79732513427734 -613.4985961914062 24.77272605895996 -613.2275390625 24.77272605895996 C -610.6207885742188 24.77272605895996 -608.5000610351562 26.89337539672852 -608.5000610351562 29.5000057220459 C -608.5000610351562 30.70070648193359 -608.9508666992188 31.84508514404297 -609.7693481445312 32.72233581542969 C -610.5838012695312 33.59521484375 -611.685791015625 34.12443542480469 -612.8722534179688 34.21250534057617 L -612.9853515625 34.22090148925781 C -613.07275390625 34.22519302368164 -613.152099609375 34.22727584838867 -613.2275390625 34.22727584838867 Z" stroke="none"/>
      <path d="M -613.2275390625 33.72727584838867 C -613.1621704101562 33.72727584838867 -613.0928344726562 33.72548675537109 -613.0162353515625 33.72181701660156 L -612.9093017578125 33.71387481689453 C -611.8485717773438 33.63514709472656 -610.8633422851562 33.1618766784668 -610.1349487304688 32.3812370300293 C -609.403076171875 31.59688568115234 -609.0000610351562 30.57364654541016 -609.0000610351562 29.5000057220459 C -609.0000610351562 27.16907691955566 -610.896484375 25.27272605895996 -613.2275390625 25.27272605895996 C -613.4696655273438 25.27272605895996 -613.7178955078125 25.29478645324707 -613.96533203125 25.33829689025879 L -615.1603393554688 25.54841613769531 L -615.1383056640625 24.33528518676758 C -615.1380004882812 24.31846618652344 -615.137451171875 24.30181694030762 -615.1369018554688 24.28519630432129 L -615.1364135742188 24.27272605895996 C -615.1364135742188 23.04899597167969 -615.5892333984375 21.8768367767334 -616.4114379882812 20.97217559814453 C -617.2283325195312 20.07335662841797 -618.3402099609375 19.51108551025391 -619.541259765625 19.38907623291016 C -619.7091064453125 19.37219619750977 -619.8787841796875 19.3636360168457 -620.0454711914062 19.3636360168457 C -620.2122192382812 19.3636360168457 -620.3818359375 19.37219619750977 -620.5486450195312 19.38897514343262 C -621.5549926757812 19.49114608764648 -622.493408203125 19.89843559265137 -623.262451171875 20.56682586669922 L -624.8253784179688 21.92512512207031 L -624.91748046875 19.85652542114258 C -624.9940185546875 18.13793563842773 -625.6893310546875 16.50128555297852 -626.8754272460938 15.24807643890381 L -626.8930053710938 15.22937488555908 C -627.2245483398438 14.88115692138672 -627.5922241210938 14.56533813476562 -627.9860229492188 14.29043579101562 L -627.98828125 14.28887557983398 L -627.990478515625 14.28729629516602 L -628.0104370117188 14.27309608459473 L -628.0237426757812 14.2636661529541 C -628.0873413085938 14.21978569030762 -628.1547241210938 14.17605590820312 -628.2147827148438 14.13744640350342 L -628.2335205078125 14.12531566619873 C -628.2545166015625 14.11166572570801 -628.2755737304688 14.09796619415283 -628.294677734375 14.08602619171143 C -628.352783203125 14.04988574981689 -628.4114990234375 14.01479625701904 -628.4717407226562 13.97964572906494 C -628.508056640625 13.9584264755249 -628.5447387695312 13.93720626831055 -628.577392578125 13.91866588592529 C -628.633544921875 13.88715648651123 -628.6901245117188 13.85623645782471 -628.7483520507812 13.82550621032715 C -628.7802734375 13.80857563018799 -628.8125610351562 13.79232597351074 -628.8447875976562 13.77604579925537 L -628.8697509765625 13.76340579986572 C -628.9237670898438 13.73621559143066 -628.9778442382812 13.70914554595947 -629.0326538085938 13.68333625793457 L -629.0352783203125 13.68210601806641 L -629.0379028320312 13.6808557510376 C -629.0684814453125 13.66625595092773 -629.0995483398438 13.65254592895508 -629.130615234375 13.63870620727539 L -629.1726684570312 13.61991596221924 L -629.2098999023438 13.6032657623291 C -629.24951171875 13.58552646636963 -629.2891235351562 13.56769561767578 -629.3263549804688 13.55209636688232 C -629.3785400390625 13.53046607971191 -629.4313354492188 13.5101957321167 -629.4841918945312 13.48982620239258 L -629.5064697265625 13.48122596740723 C -629.5664672851562 13.45800590515137 -629.626708984375 13.43513584136963 -629.6866455078125 13.41371631622314 C -629.7865600585938 13.37815570831299 -629.8624267578125 13.35246562957764 -629.932373046875 13.33048629760742 C -629.9613037109375 13.32142639160156 -629.990478515625 13.31320571899414 -630.0195922851562 13.30488586425781 L -630.0538330078125 13.2950963973999 L -630.0591430664062 13.29355621337891 L -630.0624389648438 13.29258632659912 C -630.1256713867188 13.27392482757568 -630.1887817382812 13.25514698028564 -630.2525634765625 13.23816776275635 C -630.2846069335938 13.22985553741455 -630.3168334960938 13.22209453582764 -630.34912109375 13.21426582336426 L -630.3890991210938 13.20454597473145 C -630.4528198242188 13.1892261505127 -630.5164184570312 13.17400646209717 -630.5828857421875 13.15996646881104 C -630.6295776367188 13.14999198913574 -630.676513671875 13.14083671569824 -630.7240600585938 13.13154697418213 C -630.7889404296875 13.119215965271 -630.8538818359375 13.10745620727539 -630.9175415039062 13.09696578979492 C -630.96484375 13.08925628662109 -631.0123901367188 13.08172607421875 -631.0573120117188 13.07518577575684 C -631.1209106445312 13.06610584259033 -631.1881713867188 13.05757617950439 -631.261962890625 13.04924583435059 L -631.3114624023438 13.04356575012207 C -631.3396606445312 13.04029560089111 -631.3678588867188 13.03693580627441 -631.3994750976562 13.03397560119629 C -631.4779052734375 13.02637577056885 -631.55859375 13.02097606658936 -631.62744140625 13.01666641235352 C -631.6476440429688 13.01539611816406 -631.667724609375 13.01394557952881 -631.6878051757812 13.01247596740723 C -631.7057495117188 13.01116561889648 -631.7236328125 13.00974559783936 -631.741455078125 13.00890636444092 C -631.8699340820312 13.00291633605957 -631.984375 12.99999618530273 -632.0911865234375 12.99999618530273 C -632.1974487304688 12.99999618530273 -632.3111572265625 13.00290584564209 -632.4380493164062 13.00885581970215 C -632.457275390625 13.00977611541748 -632.4763793945312 13.0112361907959 -632.4954833984375 13.01260566711426 L -632.5517578125 13.01647567749023 C -632.6160888671875 13.02047634124756 -632.7001342773438 13.02606582641602 -632.7808837890625 13.03383636474609 C -632.8111572265625 13.03673648834229 -632.8413696289062 13.04017639160156 -632.8715209960938 13.04357624053955 L -632.91162109375 13.04803562164307 C -632.9942626953125 13.05751609802246 -633.0604248046875 13.06592559814453 -633.1188354492188 13.07436561584473 C -633.1630249023438 13.08079624176025 -633.2069091796875 13.08736610412598 -633.2508544921875 13.09476566314697 L -633.2548828125 13.09544563293457 L -633.2589111328125 13.09608554840088 C -633.3164672851562 13.10528564453125 -633.3797607421875 13.11654567718506 -633.4567260742188 13.13126564025879 C -633.5015258789062 13.13989639282227 -633.5462646484375 13.14846611022949 -633.5894165039062 13.15760612487793 C -633.6583251953125 13.17226600646973 -633.7264404296875 13.18841648101807 -633.7930908203125 13.20453643798828 L -633.8387451171875 13.21552562713623 C -633.8637084960938 13.22149562835693 -633.888671875 13.22736644744873 -633.9168090820312 13.23480606079102 C -633.9949340820312 13.25521564483643 -634.0767211914062 13.2791862487793 -634.1497802734375 13.30092620849609 C -634.16943359375 13.30686569213867 -634.1891479492188 13.31248569488525 -634.2089233398438 13.31805610656738 C -634.216796875 13.3202657699585 -634.2247314453125 13.32239627838135 -634.236328125 13.32600593566895 C -634.3308715820312 13.35549354553223 -634.4291381835938 13.38863563537598 -634.5365600585938 13.42725849151611 C -634.5572509765625 13.43498134613037 -634.57763671875 13.44305610656738 -634.5980224609375 13.45108604431152 C -634.61962890625 13.45957565307617 -634.6411743164062 13.46805572509766 -634.6627807617188 13.47632598876953 L -634.67236328125 13.47999572753906 C -634.7294921875 13.50187587738037 -634.786865234375 13.52369594573975 -634.8396606445312 13.54558563232422 C -634.88671875 13.56533622741699 -634.9331665039062 13.58593559265137 -634.9843139648438 13.60867595672607 C -635.0352172851562 13.63098621368408 -635.0858764648438 13.65341567993164 -635.1360473632812 13.67713642120361 C -635.1851806640625 13.70038604736328 -635.2340698242188 13.72403621673584 -635.2840576171875 13.74901580810547 C -635.3317260742188 13.77275562286377 -635.3790283203125 13.79687595367432 -635.4246826171875 13.8209056854248 C -635.4749145507812 13.84741687774658 -635.5249633789062 13.8740816116333 -635.5744018554688 13.90137481689453 C -635.617919921875 13.92577934265137 -635.6607055664062 13.95081806182861 -635.7062377929688 13.97742557525635 C -635.7562255859375 14.00639629364014 -635.8060302734375 14.03525638580322 -635.8577270507812 14.06724643707275 C -635.8782348632812 14.07985591888428 -635.8982543945312 14.09290599822998 -635.9182739257812 14.10586643218994 L -635.962646484375 14.13442611694336 C -636.1669921875 14.26586627960205 -636.3644409179688 14.40705585479736 -636.5479125976562 14.55268573760986 C -636.5618896484375 14.56386566162109 -636.5760498046875 14.574875831604 -636.5902099609375 14.58587646484375 C -636.5977172851562 14.59172534942627 -636.6052856445312 14.59755992889404 -636.6127319335938 14.60353374481201 C -636.6675415039062 14.64828205108643 -636.7243041992188 14.69700813293457 -636.7823486328125 14.74699592590332 L -636.8032836914062 14.76500606536865 C -636.8179931640625 14.77762603759766 -636.8328247070312 14.79022598266602 -636.84716796875 14.80307579040527 L -636.849365234375 14.80505561828613 L -636.8515625 14.80701637268066 C -636.90087890625 14.85066604614258 -636.9530639648438 14.89850616455078 -637.0151977539062 14.95693588256836 L -637.0527954101562 14.99270629882812 L -637.0791625976562 15.01786518096924 C -637.1387939453125 15.07557678222656 -637.19189453125 15.12849426269531 -637.2402954101562 15.17837619781494 C -637.2520751953125 15.19055557250977 -637.263671875 15.20285606384277 -637.2752075195312 15.2150764465332 L -637.2897338867188 15.23036575317383 C -637.356689453125 15.30057048797607 -637.4099731445312 15.35812187194824 -637.457275390625 15.41131114959717 L -637.4636840820312 15.41873645782471 L -637.4671630859375 15.42279624938965 L -637.4707641601562 15.4268159866333 C -637.729248046875 15.71890640258789 -637.9662475585938 16.03557586669922 -638.1751708984375 16.3680362701416 L -638.18359375 16.38138389587402 C -638.2295532226562 16.45498657226562 -638.2750244140625 16.53080749511719 -638.31884765625 16.6070728302002 C -638.32421875 16.61672401428223 -638.3297119140625 16.6263427734375 -638.33544921875 16.63613128662109 C -638.3804931640625 16.71531677246094 -638.4248046875 16.7968635559082 -638.4673461914062 16.87869071960449 L -638.4696655273438 16.88323593139648 L -638.47216796875 16.88825607299805 L -638.4747314453125 16.89323616027832 C -638.735595703125 17.39830589294434 -638.9354248046875 17.93392181396484 -639.0693359375 18.48686027526855 L -639.0728149414062 19.31598663330078 L -640.017333984375 19.36845588684082 L -640.029052734375 19.36910629272461 L -640.040771484375 19.36948585510254 C -640.1607666015625 19.37332534790039 -640.2802124023438 19.37988662719727 -640.39306640625 19.38875579833984 L -640.4024658203125 19.38951683044434 C -640.5113525390625 19.39826202392578 -640.6227416992188 19.40975570678711 -640.73388671875 19.4237174987793 C -640.7467651367188 19.42565155029297 -640.7595825195312 19.42734336853027 -640.7725219726562 19.42879104614258 C -640.8857421875 19.4439811706543 -640.9953002929688 19.46113014221191 -641.0982055664062 19.47982597351074 L -641.1030883789062 19.48070526123047 L -641.1079711914062 19.48154640197754 L -641.1123046875 19.48228645324707 C -641.2156982421875 19.50100326538086 -641.322265625 19.52284812927246 -641.4293212890625 19.54726028442383 C -641.4411010742188 19.55019187927246 -641.4530029296875 19.55293464660645 -641.4650268554688 19.55549621582031 C -641.5651245117188 19.57904243469238 -641.668212890625 19.60568428039551 -641.77197265625 19.63477897644043 C -641.77978515625 19.63710403442383 -641.7877197265625 19.63936424255371 -641.7955932617188 19.64155197143555 C -641.898681640625 19.67097854614258 -642.0042114257812 19.70378303527832 -642.1068115234375 19.73821640014648 L -642.1130981445312 19.74037551879883 L -642.12255859375 19.74362564086914 C -642.226318359375 19.77879524230957 -642.3303833007812 19.81673622131348 -642.4319458007812 19.85636520385742 L -642.4363403320312 19.85807609558105 L -642.4407958984375 19.85975646972656 L -642.4379272460938 19.85866546630859 L -642.4490356445312 19.86303520202637 C -642.5501708984375 19.9028263092041 -642.6497192382812 19.94467544555664 -642.7448120117188 19.9874153137207 L -642.744873046875 19.98737335205078 L -642.7526245117188 19.99087715148926 L -642.7559814453125 19.99248695373535 L -642.7679443359375 19.99787521362305 C -642.8626098632812 20.04053497314453 -642.957275390625 20.08563804626465 -643.04931640625 20.13196563720703 L -643.0624389648438 20.13881683349609 L -643.0715942382812 20.14370536804199 L -643.0808715820312 20.14840507507324 C -643.1720581054688 20.19471549987793 -643.2631225585938 20.2436351776123 -643.3516235351562 20.29379653930664 L -643.3550415039062 20.29573631286621 L -643.3584594726562 20.29763603210449 L -643.3552856445312 20.29593658447266 C -643.3658447265625 20.30216598510742 -643.3764038085938 20.30832672119141 -643.38330078125 20.31220626831055 C -643.469970703125 20.36177635192871 -643.55517578125 20.41278839111328 -643.6365966796875 20.46390342712402 C -643.65087890625 20.47317123413086 -643.665283203125 20.4824104309082 -643.6796875 20.49147605895996 C -643.7676391601562 20.54784202575684 -643.8472900390625 20.60104751586914 -643.9246826171875 20.65516662597656 C -643.9364013671875 20.66331672668457 -643.947998046875 20.67165565490723 -643.962646484375 20.68212509155273 C -644.049072265625 20.74341583251953 -644.1253662109375 20.79962539672852 -644.1992797851562 20.8565559387207 L -644.2149658203125 20.86893653869629 L -644.2401123046875 20.88888549804688 C -644.3226928710938 20.95353507995605 -644.3936767578125 21.01113510131836 -644.4559326171875 21.06402587890625 L -644.4746704101562 21.08025550842285 C -644.4857788085938 21.08993721008301 -644.4968872070312 21.09959411621094 -644.508056640625 21.10916137695312 C -644.5836181640625 21.17438697814941 -644.6497802734375 21.23347663879395 -644.7097778320312 21.28926658630371 C -644.7169189453125 21.2959156036377 -644.7239379882812 21.30273628234863 -644.7310180664062 21.30952644348145 C -644.7420043945312 21.32015037536621 -644.7530517578125 21.33076667785645 -644.7642211914062 21.34129905700684 C -644.8359985351562 21.40971565246582 -644.897705078125 21.47026252746582 -644.9534301757812 21.52692604064941 C -644.9617309570312 21.53534507751465 -644.9696655273438 21.54391670227051 -644.9777221679688 21.55243682861328 L -645.0073852539062 21.5836353302002 C -645.06005859375 21.63885688781738 -645.1218872070312 21.70430564880371 -645.18310546875 21.77304649353027 C -645.1925659179688 21.78364562988281 -645.2017822265625 21.79445648193359 -645.2110595703125 21.80518531799316 L -645.2404174804688 21.83913612365723 C -645.292724609375 21.89954566955566 -645.3484497070312 21.96443557739258 -645.399658203125 22.02751541137695 C -645.4131469726562 22.04415512084961 -645.4262084960938 22.06111526489258 -645.4393310546875 22.07804679870605 L -645.4596557617188 22.1042652130127 L -645.4620361328125 22.10731506347656 L -645.4644775390625 22.11035537719727 C -645.5198364257812 22.18031692504883 -645.5669555664062 22.24168586730957 -645.6080932617188 22.29739570617676 C -645.6201782226562 22.3138256072998 -645.6318359375 22.33060646057129 -645.6435546875 22.34727668762207 L -645.6720581054688 22.38767623901367 C -645.7124633789062 22.44426536560059 -645.7595825195312 22.51076507568359 -645.8010864257812 22.57310676574707 C -645.8170166015625 22.5971565246582 -645.8323364257812 22.62159538269043 -645.8477783203125 22.64597511291504 L -645.8636474609375 22.67110633850098 L -645.8660888671875 22.6749267578125 L -645.8685302734375 22.6787166595459 C -645.904052734375 22.73365592956543 -645.9454956054688 22.79837608337402 -645.9857177734375 22.86557579040527 C -645.998779296875 22.88718605041504 -646.0110473632812 22.90910530090332 -646.0234375 22.93098640441895 L -646.047119140625 22.97257614135742 L -646.0641479492188 23.00217628479004 C -646.0936889648438 23.05366706848145 -646.1234130859375 23.10511589050293 -646.1516723632812 23.15760040283203 C -646.1640014648438 23.1810302734375 -646.1759033203125 23.2046947479248 -646.1878662109375 23.22831535339355 L -646.2130126953125 23.27792549133301 L -646.2381591796875 23.32721519470215 C -646.2615356445312 23.373046875 -646.2849731445312 23.41872596740723 -646.306884765625 23.46478652954102 C -646.321044921875 23.49443626403809 -646.334228515625 23.52463531494141 -646.3475952148438 23.55484580993652 L -646.3651123046875 23.59428596496582 L -646.3663330078125 23.59695625305176 L -646.3674926757812 23.5996150970459 L -646.3839111328125 23.63575553894043 C -646.4053955078125 23.68302536010742 -646.4271240234375 23.73045539855957 -646.4478149414062 23.77996635437012 C -646.4590454101562 23.80669593811035 -646.4693603515625 23.83391571044922 -646.4799194335938 23.86114692687988 C -646.4879760742188 23.88212585449219 -646.49609375 23.90312576293945 -646.5035400390625 23.92200660705566 L -646.5228271484375 23.9709358215332 C -646.5396728515625 24.01359558105469 -646.5567626953125 24.05635643005371 -646.57373046875 24.10333633422852 C -646.5841674804688 24.13203620910645 -646.5936889648438 24.16115570068359 -646.603271484375 24.19016647338867 C -646.611083984375 24.21361541748047 -646.6188354492188 24.23703575134277 -646.6267700195312 24.26033592224121 L -646.6267700195312 24.26033592224121 L -646.6465454101562 24.3189754486084 C -646.6588745117188 24.35530662536621 -646.67138671875 24.39157676696777 -646.6832275390625 24.43039512634277 C -646.6939086914062 24.46499633789062 -646.703369140625 24.49990653991699 -646.7130126953125 24.53478622436523 L -646.73095703125 24.59933662414551 L -646.7467651367188 24.65468597412109 C -646.7572631835938 24.69128608703613 -646.7680053710938 24.72787666320801 -646.7778930664062 24.76701545715332 C -646.7876586914062 24.80544662475586 -646.796142578125 24.84418678283691 -646.8048095703125 24.88289642333984 L -646.8187255859375 24.94497680664062 C -646.8239135742188 24.96779632568359 -646.8292846679688 24.99054527282715 -646.8345947265625 25.01327514648438 C -646.842041015625 25.04497528076172 -646.8496704101562 25.07660675048828 -646.8567504882812 25.11183547973633 C -646.8656005859375 25.15535545349121 -646.8728637695312 25.19932556152344 -646.88037109375 25.24336624145508 L -646.8904418945312 25.30220603942871 C -646.8944091796875 25.32466506958008 -646.8984985351562 25.34707641601562 -646.9026489257812 25.36947631835938 C -646.908203125 25.3998851776123 -646.9139404296875 25.43026542663574 -646.9183349609375 25.4592456817627 C -646.9258422851562 25.50938606262207 -646.9317626953125 25.56011581420898 -646.9378051757812 25.61086654663086 L -646.944091796875 25.66289520263672 C -646.9473266601562 25.69005584716797 -646.9508666992188 25.71709632873535 -646.9544677734375 25.74410629272461 C -646.9575805664062 25.76762580871582 -646.9609375 25.79108619689941 -646.9634399414062 25.81659507751465 C -646.9694213867188 25.87604522705078 -646.9738159179688 25.94281578063965 -646.9783935546875 26.01350593566895 L -646.9811401367188 26.05469512939453 C -646.9827880859375 26.07830619812012 -646.9847412109375 26.10178565979004 -646.9867553710938 26.1252555847168 C -646.98828125 26.14336585998535 -646.989990234375 26.16145515441895 -646.9908447265625 26.17719650268555 C -646.9969482421875 26.30212593078613 -647.0000610351562 26.42595672607422 -647.0000610351562 26.54522514343262 C -647.0000610351562 30.50542640686035 -643.7783813476562 33.72727584838867 -639.8182373046875 33.72727584838867 L -629.3352661132812 33.72727584838867 L -622.5454711914062 33.72727584838867 C -622.4586181640625 33.72727584838867 -622.365966796875 33.72385787963867 -622.2785034179688 33.72034454345703 L -622.2584838867188 33.71954727172852 L -622.2384643554688 33.71954727172852 L -613.5090942382812 33.71954727172852 L -613.4835205078125 33.71954727172852 L -613.4579467773438 33.72085571289062 C -613.3735961914062 33.72517776489258 -613.2982177734375 33.72727584838867 -613.2275390625 33.72727584838867 M -613.2275390625 34.72727584838867 C -613.3220825195312 34.72727584838867 -613.4159545898438 34.72431564331055 -613.5090942382812 34.71954727172852 L -622.2384643554688 34.71954727172852 C -622.3405151367188 34.72363662719727 -622.4425048828125 34.72727584838867 -622.5454711914062 34.72727584838867 L -629.3352661132812 34.72727584838867 L -639.8182373046875 34.72727584838867 L -639.8184204101562 34.72727584838867 C -644.3369140625 34.72727584838867 -648.0000610351562 31.06409645080566 -648.0000610351562 26.54522514343262 C -648.0000610351562 26.40545654296875 -647.9963989257812 26.26636695861816 -647.9896240234375 26.1281852722168 C -647.9871215820312 26.07977676391602 -647.9820556640625 26.03227615356445 -647.9786376953125 25.98409652709961 C -647.9727172851562 25.894775390625 -647.9673461914062 25.80522537231445 -647.9584350585938 25.71658515930176 C -647.9527587890625 25.65909576416016 -647.9439086914062 25.60227584838867 -647.9370727539062 25.54477691650391 C -647.9275512695312 25.46659660339355 -647.9188842773438 25.38818550109863 -647.9072875976562 25.31091690063477 C -647.8980102539062 25.24977684020996 -647.885986328125 25.18954658508301 -647.8753051757812 25.12886619567871 C -647.8627319335938 25.05636596679688 -647.8511962890625 24.98386573791504 -647.8366088867188 24.91227531433105 C -647.8239135742188 24.8488655090332 -647.8082275390625 24.78659629821777 -647.7939453125 24.72363662719727 C -647.7784423828125 24.65568542480469 -647.7640991210938 24.58750534057617 -647.7468872070312 24.51999664306641 C -647.7305297851562 24.45522689819336 -647.7113647460938 24.39136695861816 -647.6932373046875 24.3272762298584 C -647.6752319335938 24.26340675354004 -647.658447265625 24.19931602478027 -647.638916015625 24.13590621948242 C -647.6184692382812 24.0690860748291 -647.5952758789062 24.00363540649414 -647.5732421875 23.9375057220459 C -647.5531616210938 23.87863540649414 -647.534423828125 23.81886672973633 -647.5130004882812 23.76022529602051 C -647.4882202148438 23.69159507751465 -647.4609375 23.62431526184082 -647.4345703125 23.55704689025879 C -647.4129638671875 23.50227546691895 -647.392578125 23.44704627990723 -647.3699951171875 23.39318656921387 C -647.3409423828125 23.32363510131836 -647.309326171875 23.25522613525391 -647.2784423828125 23.18704605102539 C -647.2557373046875 23.13613510131836 -647.233642578125 23.08499526977539 -647.2098388671875 23.03499603271484 C -647.1761474609375 22.96431541442871 -647.1401977539062 22.89522552490234 -647.1047973632812 22.8254566192627 C -647.0811767578125 22.77931594848633 -647.0582275390625 22.73272514343262 -647.033935546875 22.68681526184082 C -646.9954833984375 22.61522674560547 -646.954833984375 22.54522514343262 -646.91455078125 22.47500610351562 C -646.8903198242188 22.43272590637207 -646.8668823242188 22.39022636413574 -646.8416137695312 22.3484058380127 C -646.7986450195312 22.27659606933594 -646.753662109375 22.20590591430664 -646.708251953125 22.13568687438965 C -646.6838989257812 22.09727668762207 -646.6597900390625 22.05863571166992 -646.6346435546875 22.02068519592285 C -646.5863647460938 21.94818687438965 -646.536376953125 21.87727546691895 -646.4857177734375 21.80636596679688 C -646.461669921875 21.77250671386719 -646.43798828125 21.73795509338379 -646.4132080078125 21.70431518554688 C -646.3595581054688 21.63159561157227 -646.3043823242188 21.56022644042969 -646.2484130859375 21.48954582214355 C -646.224853515625 21.45931625366211 -646.2015991210938 21.42886543273926 -646.1775512695312 21.39909553527832 C -646.1184692382812 21.32636642456055 -646.0578002929688 21.25545692443848 -645.9963989257812 21.18454551696777 C -645.9736938476562 21.15863609313965 -645.951416015625 21.13204574584961 -645.92822265625 21.10613632202148 C -645.8638916015625 21.03386688232422 -645.7977294921875 20.96341514587402 -645.73095703125 20.8934154510498 C -645.7091064453125 20.87068557739258 -645.6880493164062 20.84772682189941 -645.6658935546875 20.82522583007812 C -645.595947265625 20.75409507751465 -645.5243530273438 20.68431663513184 -645.4520874023438 20.61545562744141 C -645.4315795898438 20.59613609313965 -645.41162109375 20.57636642456055 -645.39111328125 20.55727577209473 C -645.3155517578125 20.48704528808594 -645.2382202148438 20.41840553283691 -645.1600341796875 20.35090637207031 C -645.141357421875 20.33500671386719 -645.123046875 20.31863594055176 -645.1043701171875 20.30272674560547 C -645.0230102539062 20.2336368560791 -644.9403076171875 20.16704559326172 -644.8563842773438 20.10136604309082 C -644.83935546875 20.08795547485352 -644.8229370117188 20.07454681396484 -644.8059692382812 20.06159591674805 C -644.7191772460938 19.99477577209473 -644.6307373046875 19.92999649047852 -644.5413818359375 19.86658668518066 C -644.526123046875 19.85568618774414 -644.5111694335938 19.84500694274902 -644.4961547851562 19.83454513549805 C -644.4041748046875 19.77022552490234 -644.3104858398438 19.70795631408691 -644.2156982421875 19.64727592468262 C -644.2023315429688 19.63886642456055 -644.1889038085938 19.63022613525391 -644.1756591796875 19.62158584594727 C -644.0784912109375 19.56045532226562 -643.9797973632812 19.50136566162109 -643.879638671875 19.44409561157227 C -643.8679809570312 19.43749618530273 -643.8566284179688 19.43045616149902 -643.8447875976562 19.42386627197266 C -643.7425537109375 19.36590576171875 -643.6388549804688 19.31022644042969 -643.53369140625 19.25681686401367 C -643.52392578125 19.25159645080566 -643.5143432617188 19.24659538269043 -643.5045776367188 19.24158668518066 C -643.3973388671875 19.1875057220459 -643.2886962890625 19.13568687438965 -643.1787109375 19.08613586425781 C -643.1707153320312 19.082275390625 -643.1624755859375 19.07886695861816 -643.1546020507812 19.07522583007812 C -643.0427856445312 19.02499580383301 -642.9296264648438 18.97750663757324 -642.8152465820312 18.9324951171875 C -642.8087158203125 18.93000602722168 -642.8020629882812 18.92727661132812 -642.7954711914062 18.92477607727051 C -642.6795654296875 18.87954521179199 -642.5623168945312 18.83681678771973 -642.4437255859375 18.79659652709961 C -642.4384155273438 18.79477691650391 -642.4331665039062 18.79295539855957 -642.4277954101562 18.79113578796387 C -642.3079833984375 18.75090599060059 -642.1868286132812 18.71318626403809 -642.0646362304688 18.67840576171875 C -642.0604858398438 18.67727661132812 -642.05615234375 18.6761360168457 -642.0521240234375 18.67477607727051 C -641.9287109375 18.64000511169434 -641.8041381835938 18.60772514343262 -641.6784057617188 18.57840538024902 C -641.675048828125 18.57772636413574 -641.671630859375 18.5772762298584 -641.66845703125 18.57613563537598 C -641.5420532226562 18.54704666137695 -641.4146118164062 18.52068519592285 -641.2861938476562 18.49750518798828 L -641.27685546875 18.49590682983398 C -641.14794921875 18.47250556945801 -641.0180053710938 18.45250511169434 -640.8870849609375 18.43522644042969 C -640.8843994140625 18.43522644042969 -640.8816528320312 18.43477630615234 -640.87890625 18.43409538269043 C -640.7474975585938 18.41727638244629 -640.615478515625 18.40340614318848 -640.4824829101562 18.39272689819336 L -640.47412109375 18.39204597473145 C -640.3411865234375 18.38159561157227 -640.20751953125 18.37431526184082 -640.0728149414062 18.3699951171875 L -640.06884765625 18.36977577209473 L -640.06884765625 18.36931610107422 C -639.91455078125 17.68795585632324 -639.6757202148438 17.03931617736816 -639.3632202148438 16.43431663513184 L -639.3579711914062 16.42386627197266 C -639.3077392578125 16.32704544067383 -639.2557373046875 16.23136520385742 -639.201904296875 16.13681602478027 C -639.1982421875 16.13045692443848 -639.1943359375 16.12409591674805 -639.1907348632812 16.11727523803711 C -639.1364135742188 16.02250671386719 -639.0802612304688 15.92886638641357 -639.0223388671875 15.83659648895264 L -639.0218505859375 15.83591556549072 C -638.783447265625 15.45659637451172 -638.5152587890625 15.09818649291992 -638.2196044921875 14.7640962600708 C -638.2152709960938 14.75909614562988 -638.2109375 14.75386619567871 -638.2066040039062 14.74909591674805 C -638.1434326171875 14.67795562744141 -638.0786743164062 14.60863590240479 -638.01318359375 14.54000568389893 C -637.9953002929688 14.52113628387451 -637.9773559570312 14.50204563140869 -637.9591064453125 14.48318576812744 C -637.8980102539062 14.42022609710693 -637.8359375 14.35863590240479 -637.7730102539062 14.29772567749023 C -637.7490844726562 14.27500629425049 -637.7252807617188 14.25204563140869 -637.701171875 14.22931575775146 C -637.6395874023438 14.17136573791504 -637.5775146484375 14.11409568786621 -637.5143432617188 14.05818557739258 C -637.4884643554688 14.03500556945801 -637.4616088867188 14.01227569580078 -637.4352416992188 13.98954582214355 C -637.3713989257812 13.93454647064209 -637.3075561523438 13.87977600097656 -637.2420654296875 13.82636642456055 C -637.2186279296875 13.80750560760498 -637.19482421875 13.78954601287842 -637.1714477539062 13.77090644836426 C -636.9573364257812 13.60090637207031 -636.734375 13.44181632995605 -636.503662109375 13.29340648651123 C -636.4630126953125 13.26749610900879 -636.4229736328125 13.24090576171875 -636.381591796875 13.21545600891113 C -636.3243408203125 13.17999649047852 -636.2661743164062 13.14613628387451 -636.207763671875 13.11227607727051 C -636.1591186523438 13.08386611938477 -636.1104736328125 13.05545616149902 -636.0609741210938 13.02772617340088 C -636.0050659179688 12.99681568145752 -635.9484252929688 12.96659564971924 -635.8916015625 12.93659591674805 C -635.8380126953125 12.90840625762939 -635.7841186523438 12.88091564178467 -635.7297973632812 12.85386562347412 C -635.6748046875 12.82636642456055 -635.619384765625 12.79954624176025 -635.5636596679688 12.77318572998047 C -635.5050659179688 12.74545574188232 -635.4457397460938 12.71909618377686 -635.3861694335938 12.69295597076416 C -635.3330078125 12.66931629180908 -635.280029296875 12.64590644836426 -635.2263793945312 12.62340641021729 C -635.158447265625 12.5952262878418 -635.08935546875 12.56886577606201 -635.0205078125 12.54249572753906 C -634.9736328125 12.52454566955566 -634.9275512695312 12.50568580627441 -634.8803100585938 12.48818588256836 C -634.76611328125 12.44704627990723 -634.6506958007812 12.4077262878418 -634.5341186523438 12.37136554718018 C -634.5025634765625 12.36136627197266 -634.4705200195312 12.35318565368652 -634.4389038085938 12.34363555908203 C -634.349609375 12.31704616546631 -634.260009765625 12.29090595245361 -634.1695556640625 12.2672758102417 C -634.1232299804688 12.25500583648682 -634.076416015625 12.24431610107422 -634.02978515625 12.23295593261719 C -633.9527587890625 12.21431636810303 -633.8756713867188 12.19613647460938 -633.7977905273438 12.17954635620117 C -633.747314453125 12.16886615753174 -633.6966552734375 12.15909576416016 -633.6458740234375 12.14931583404541 C -633.56982421875 12.13477611541748 -633.49365234375 12.12091636657715 -633.4168701171875 12.10863590240479 C -633.3655395507812 12.09999561309814 -633.3143310546875 12.09227561950684 -633.2627563476562 12.08477592468262 C -633.18408203125 12.07340621948242 -633.1047973632812 12.06363582611084 -633.0255126953125 12.05454635620117 C -632.9758911132812 12.04909610748291 -632.9262084960938 12.04318618774414 -632.8764038085938 12.03840637207031 C -632.7891235351562 12.03000640869141 -632.7015991210938 12.02386569976807 -632.6139526367188 12.01840591430664 C -632.5711669921875 12.01568603515625 -632.5286865234375 12.01204586029053 -632.4857177734375 12.00999641418457 C -632.3550415039062 12.00386619567871 -632.2234497070312 11.99999618530273 -632.0911865234375 11.99999618530273 C -631.958251953125 11.99999618530273 -631.826171875 12.00386619567871 -631.69482421875 12.00999641418457 C -631.6511840820312 12.01204586029053 -631.6082153320312 12.01590633392334 -631.5647583007812 12.01863574981689 C -631.4773559570312 12.02409648895264 -631.3898315429688 12.03022575378418 -631.3030395507812 12.03863620758057 C -631.2520751953125 12.04340648651123 -631.201416015625 12.04977607727051 -631.1506958007812 12.05545616149902 C -631.072265625 12.06431579589844 -630.993896484375 12.07409572601318 -630.9159545898438 12.08522605895996 C -630.86279296875 12.09295558929443 -630.8095703125 12.10136604309082 -630.756591796875 12.11000633239746 C -630.68212890625 12.12227630615234 -630.6079711914062 12.13568592071533 -630.533935546875 12.14977645874023 C -630.4805297851562 12.1602258682251 -630.4270629882812 12.17068576812744 -630.3739013671875 12.18204593658447 C -630.3007202148438 12.19749641418457 -630.22802734375 12.21477603912354 -630.1552734375 12.23227596282959 C -630.1032104492188 12.24500560760498 -630.0512084960938 12.25727558135986 -629.9995727539062 12.27068614959717 C -629.925048828125 12.29045581817627 -629.8511962890625 12.31227588653564 -629.7772827148438 12.33409595489502 C -629.7291259765625 12.34795570373535 -629.6807861328125 12.36136627197266 -629.6329956054688 12.37636566162109 C -629.5382080078125 12.40613555908203 -629.4446411132812 12.43840599060059 -629.3513793945312 12.47159576416016 C -629.2820434570312 12.49636554718018 -629.213623046875 12.52227592468262 -629.1455078125 12.5486364364624 C -629.0778198242188 12.57477569580078 -629.0100708007812 12.60068607330322 -628.9432373046875 12.62840557098389 C -628.8834838867188 12.65340614318848 -628.8245849609375 12.68022632598877 -628.7654418945312 12.70659637451172 C -628.7123413085938 12.73045635223389 -628.658935546875 12.75363636016846 -628.6066284179688 12.77863597869873 C -628.5438842773438 12.80818557739258 -628.4818725585938 12.83909606933594 -628.4200439453125 12.87022590637207 C -628.3734130859375 12.89386558532715 -628.3265991210938 12.91727638244629 -628.2802734375 12.94181632995605 C -628.2156982421875 12.97590637207031 -628.151611328125 13.01090621948242 -628.0880126953125 13.04659557342529 C -628.0475463867188 13.06954574584961 -628.007080078125 13.09295558929443 -627.967041015625 13.11636638641357 C -627.8995971679688 13.155686378479 -627.832763671875 13.19567584991455 -627.7666015625 13.23681640625 C -627.734619140625 13.25681591033936 -627.7030029296875 13.27749633789062 -627.67138671875 13.2979564666748 C -627.5989379882812 13.3445463180542 -627.52685546875 13.39158630371094 -627.4559936523438 13.44045639038086 C -627.4418334960938 13.45022583007812 -627.4277954101562 13.46045589447021 -627.4136352539062 13.47045612335205 C -626.9561767578125 13.78977584838867 -626.533203125 14.15454578399658 -626.1506958007812 14.55886554718018 L -626.149169921875 14.5606861114502 C -624.8406982421875 15.94318580627441 -624.0089111328125 17.78068542480469 -623.91845703125 19.81204605102539 C -623.0238647460938 19.0345458984375 -621.8943481445312 18.52045631408691 -620.649658203125 18.39408683776855 C -620.450927734375 18.37409591674805 -620.2496337890625 18.3636360168457 -620.0454711914062 18.3636360168457 C -619.8416137695312 18.3636360168457 -619.6400756835938 18.37409591674805 -619.4412231445312 18.39408683776855 C -616.46142578125 18.69681549072266 -614.1364135742188 21.21318626403809 -614.1364135742188 24.27272605895996 L -614.1364135742188 24.27295684814453 C -614.1364135742188 24.30000686645508 -614.1380004882812 24.32636642456055 -614.1384887695312 24.35340690612793 C -613.842529296875 24.30136680603027 -613.5384521484375 24.27272605895996 -613.2275390625 24.27272605895996 C -610.3402099609375 24.27272605895996 -608.0000610351562 26.61295509338379 -608.0000610351562 29.5000057220459 C -608.0000610351562 32.2550048828125 -610.131591796875 34.51045608520508 -612.8352661132812 34.71113586425781 L -612.8352661132812 34.71931457519531 L -612.8352661132812 34.71954727172852 L -612.9457397460938 34.71954727172852 C -613.0388793945312 34.72431564331055 -613.1329956054688 34.72727584838867 -613.2275390625 34.72727584838867 Z" stroke="none" fill="#c9c9c9"/>
    </g>
    <g id="Grupo_8610" data-name="Grupo 8610" transform="translate(-640.727 38.364)">
      <path id="Caminho_7312" data-name="Caminho 7312" d="M-614.182,131.582a.937.937,0,0,1-.909.963h0a.937.937,0,0,1-.909-.963v-2.619a.937.937,0,0,1,.909-.963h0a.937.937,0,0,1,.909.963Z" transform="translate(616 -128)" fill="#c9c9c9"/>
      <path id="Caminho_7313" data-name="Caminho 7313" d="M-510.182,131.582a.937.937,0,0,1-.909.963h0a.937.937,0,0,1-.909-.963v-2.619a.937.937,0,0,1,.909-.963h0a.937.937,0,0,1,.909.963Z" transform="translate(535.636 -128)" fill="#c9c9c9"/>
      <path id="Caminho_7314" data-name="Caminho 7314" d="M-586.182,171.582a.937.937,0,0,1-.909.963h0a.937.937,0,0,1-.909-.963v-2.619a.937.937,0,0,1,.909-.963h0a.937.937,0,0,1,.909.963Z" transform="translate(594.364 -158.909)" fill="#c9c9c9"/>
      <path id="Caminho_7315" data-name="Caminho 7315" d="M-538.182,171.582a.937.937,0,0,1-.909.963h0a.937.937,0,0,1-.909-.963v-2.619a.937.937,0,0,1,.909-.963h0a.937.937,0,0,1,.909.963Z" transform="translate(557.273 -158.909)" fill="#c9c9c9"/>
      <path id="Caminho_7316" data-name="Caminho 7316" d="M-562.182,139.582a.937.937,0,0,1-.909.963h0a.937.937,0,0,1-.909-.963v-2.619a.937.937,0,0,1,.909-.963h0a.938.938,0,0,1,.909.963Z" transform="translate(575.818 -134.182)" fill="#c9c9c9"/>
    </g>
  </g>
</svg>
