<svg xmlns="http://www.w3.org/2000/svg" width="40" height="40" viewBox="0 0 40 40">
  <g id="_3tm" data-name="3tm" transform="translate(-1560 -1786)">
    <rect id="Retângulo_5851" data-name="Retângulo 5851" width="40" height="40" transform="translate(1560 1786)" fill="none"/>
    <g id="Caminho_7526" data-name="Caminho 7526" transform="translate(1548 1745)" fill="#f2f2f2" stroke-miterlimit="10">
      <path d="M 46.77273178100586 72.22727966308594 C 46.69330215454102 72.22727966308594 46.61320114135742 72.22529602050781 46.53455352783203 72.22138214111328 C 46.52868270874023 72.22092437744141 46.52314376831055 72.22055053710938 46.51749038696289 72.22025299072266 L 46.50421142578125 72.21954345703125 L 46.49090957641602 72.21954345703125 L 37.76182174682617 72.21954345703125 L 37.7518310546875 72.21954345703125 L 37.74184036254883 72.21994018554688 C 37.64896011352539 72.22364807128906 37.5502815246582 72.22727966308594 37.45455169677734 72.22727966308594 L 30.66477012634277 72.22727966308594 L 20.18181991577148 72.22727966308594 C 15.94594955444336 72.22727966308594 12.5 68.7811279296875 12.5 64.54522705078125 C 12.5 64.41583251953125 12.50337028503418 64.28408813476562 12.51002979278564 64.15366363525391 C 12.51119041442871 64.12899017333984 12.51317024230957 64.10665130615234 12.51502990722656 64.08429718017578 C 12.51692008972168 64.06163787841797 12.51879024505615 64.03897857666016 12.52027988433838 64.01618957519531 L 12.52324962615967 63.97257995605469 C 12.5281400680542 63.90037155151367 12.53275012969971 63.83216857910156 12.53931999206543 63.76681137084961 C 12.54259014129639 63.73323822021484 12.54689025878906 63.70141983032227 12.55109024047852 63.66958999633789 C 12.55397033691406 63.64780044555664 12.55683994293213 63.62601852416992 12.55949974060059 63.60417938232422 L 12.56717967987061 63.54039001464844 C 12.57334041595459 63.48867034912109 12.57942008972168 63.43685913085938 12.58712959289551 63.38573837280273 C 12.59237957000732 63.35094833374023 12.59877014160156 63.31665802001953 12.60507965087891 63.28234100341797 C 12.60933017730713 63.25925827026367 12.61355972290039 63.23617172241211 12.617600440979 63.21298980712891 L 12.62757015228271 63.15473937988281 C 12.63564968109131 63.10715866088867 12.643630027771 63.05958938598633 12.65326976776123 63.01248168945312 C 12.66129970550537 62.97204971313477 12.67014026641846 62.93489837646484 12.6788501739502 62.89781951904297 C 12.68397045135498 62.87604141235352 12.6890697479248 62.85427856445312 12.69400978088379 62.83250045776367 C 12.69927978515625 62.80987167358398 12.70497035980225 62.78445053100586 12.71065044403076 62.75905990600586 C 12.71936988830566 62.72006988525391 12.72801971435547 62.68114852905273 12.73773002624512 62.64268112182617 C 12.74923992156982 62.598388671875 12.76276016235352 62.55163955688477 12.77626991271973 62.50471115112305 L 12.78847980499268 62.46218109130859 L 12.80453014373779 62.4040412902832 C 12.81562995910645 62.36354827880859 12.82668018341064 62.32295989990234 12.83895015716553 62.28292083740234 C 12.85313034057617 62.23698043823242 12.86898040771484 62.19075012207031 12.88479995727539 62.14437103271484 L 12.90163993835449 62.0948600769043 L 12.9199104309082 62.0400505065918 C 12.93192958831787 62.00376892089844 12.94390964508057 61.96739959716797 12.95693969726562 61.93156051635742 C 12.97574043273926 61.87913131713867 12.99536037445068 61.82971954345703 13.01492977142334 61.78023910522461 L 13.03221035003662 61.73641967773438 L 13.05204010009766 61.68540954589844 C 13.06457996368408 61.65296936035156 13.07707023620605 61.62044906616211 13.09058952331543 61.58842849731445 C 13.11427974700928 61.53144073486328 13.13846015930176 61.47824096679688 13.16259002685547 61.42494964599609 L 13.17891979217529 61.38885116577148 L 13.19641971588135 61.3494987487793 C 13.21082019805908 61.31702041625977 13.22513008117676 61.28453063964844 13.24053001403809 61.25252151489258 C 13.26815032958984 61.19398880004883 13.29586029052734 61.14014053344727 13.32353973388672 61.086181640625 L 13.34179973602295 61.05054092407227 L 13.36767959594727 60.99945068359375 C 13.38066005706787 60.97367095947266 13.39360046386719 60.94787979125977 13.40715980529785 60.92243957519531 C 13.43857955932617 60.86417007446289 13.47270965576172 60.8048095703125 13.50681018829346 60.74538040161133 L 13.52083969116211 60.72092056274414 L 13.54621028900146 60.67644119262695 C 13.55906963348389 60.65375900268555 13.57186985015869 60.63101959228516 13.58539962768555 60.60873794555664 C 13.62685012817383 60.53902816772461 13.66926002502441 60.47299957275391 13.71415996551514 60.40309143066406 L 13.7367696762085 60.36745071411133 C 13.75088024139404 60.34510803222656 13.76490020751953 60.32279968261719 13.77954959869385 60.30102157592773 C 13.82987976074219 60.22531890869141 13.88012981414795 60.1544303894043 13.92286968231201 60.09476089477539 L 13.94826984405518 60.05870056152344 C 13.96191024780273 60.03924942016602 13.97554969787598 60.01974105834961 13.98948955535889 60.00070953369141 C 14.04014015197754 59.93190002441406 14.09506988525391 59.86167907714844 14.14678001403809 59.79616928100586 L 14.16578960418701 59.77165985107422 C 14.17963981628418 59.75373840332031 14.19347953796387 59.73569869995117 14.20790958404541 59.71815872192383 C 14.2680196762085 59.64368057250977 14.32769012451172 59.57416915893555 14.38368988037109 59.50959014892578 L 14.4138298034668 59.47475051879883 C 14.42461013793945 59.46223068237305 14.43533992767334 59.44974899291992 14.44614028930664 59.43745803833008 C 14.49757957458496 59.37981796264648 14.55780982971191 59.31491851806641 14.63333988189697 59.23587036132812 L 14.66129970550537 59.20658874511719 C 14.67090034484863 59.19646835327148 14.68050003051758 59.18632888793945 14.69029998779297 59.17631912231445 C 14.75160980224609 59.11362075805664 14.81857013702393 59.04793930053711 14.89511013031006 58.97537994384766 L 14.91617012023926 58.95523071289062 C 14.92669010162354 58.94514083862305 14.93719959259033 58.93502044677734 14.94789028167725 58.92509841918945 C 15.01482963562012 58.86252975463867 15.08668994903564 58.7983283996582 15.16882991790771 58.72766876220703 L 15.18902015686035 58.71004104614258 C 15.19822978973389 58.70196914672852 15.20738983154297 58.69390869140625 15.21681022644043 58.68595886230469 C 15.29339027404785 58.62117004394531 15.37300968170166 58.55654144287109 15.45392990112305 58.49348068237305 L 15.46945953369141 58.48117828369141 C 15.47842025756836 58.47406005859375 15.48738956451416 58.46688842773438 15.49647045135498 58.45993804931641 C 15.57513999938965 58.39912033081055 15.65779972076416 58.33815002441406 15.7510404586792 58.27212142944336 L 15.77120018005371 58.25783157348633 L 15.79049968719482 58.24414825439453 C 15.87471008300781 58.18544006347656 15.96529006958008 58.1250114440918 16.05705070495605 58.06641006469727 L 16.08961868286133 58.04541778564453 C 16.17899703979492 57.98920822143555 16.27359390258789 57.9324836730957 16.37084579467773 57.87679290771484 C 16.37958526611328 57.87187194824219 16.38813591003418 57.86685943603516 16.3967399597168 57.86177825927734 L 16.40383911132812 57.85760116577148 C 16.49201965332031 57.80757141113281 16.58949089050293 57.75516891479492 16.69755935668945 57.69987106323242 L 16.70990943908691 57.69353103637695 L 16.71347045898438 57.69181060791016 L 16.71842002868652 57.68923950195312 C 16.81756210327148 57.6391487121582 16.92080879211426 57.58974456787109 17.02540016174316 57.54234313964844 C 17.03374290466309 57.53874969482422 17.04188537597656 57.53505706787109 17.05006980895996 57.53125 C 17.15496063232422 57.48445892333984 17.26435089111328 57.43849945068359 17.37133979797363 57.39638137817383 L 17.38327026367188 57.39173889160156 C 17.49218940734863 57.34913635253906 17.60295677185059 57.30867004394531 17.71304321289062 57.27122497558594 C 17.71925354003906 57.26927185058594 17.72536659240723 57.26723861694336 17.7317943572998 57.26499176025391 C 17.84326362609863 57.22748947143555 17.9589672088623 57.19165802001953 18.07578086853027 57.15845108032227 L 18.08322906494141 57.15634155273438 L 18.08793067932129 57.15484237670898 C 18.19936943054199 57.12338256835938 18.31247901916504 57.09418106079102 18.42444610595703 57.06795883178711 L 18.44109916687012 57.06425094604492 C 18.55894660949707 57.03681564331055 18.67886924743652 57.01198196411133 18.79766845703125 56.99042892456055 L 18.79800033569336 56.99037933349609 L 18.80845069885254 56.98854064941406 C 18.92342185974121 56.96765518188477 19.04217338562012 56.9491081237793 19.16168785095215 56.93335723876953 L 19.18132019042969 56.93082046508789 C 19.43011665344238 56.89845657348633 19.68492317199707 56.87799835205078 19.93877983093262 56.86999893188477 L 20.33441925048828 56.86999893188477 L 20.41986083984375 56.47558975219727 L 20.42034149169922 56.47335815429688 C 20.56311988830566 55.84567260742188 20.784912109375 55.23774719238281 21.07958984375 54.66650009155273 L 21.08881950378418 54.64834976196289 C 21.1326904296875 54.56406021118164 21.18165016174316 54.47407913208008 21.2320499420166 54.38533020019531 L 21.24346923828125 54.36560821533203 C 21.29859924316406 54.26937866210938 21.34951972961426 54.18436813354492 21.40019035339355 54.10385894775391 L 21.40245056152344 54.10028839111328 C 21.62483406066895 53.74681091308594 21.87643432617188 53.41048431396484 22.1508617401123 53.09974670410156 C 22.15395545959473 53.09631729125977 22.1569881439209 53.09289932250977 22.15998077392578 53.0894889831543 L 22.16164970397949 53.08774948120117 L 22.16814041137695 53.08042907714844 C 22.2201099395752 53.0218391418457 22.27887916564941 52.95822143554688 22.34779930114746 52.88592147827148 L 22.37133026123047 52.86122131347656 C 22.37993049621582 52.85213088989258 22.38849067687988 52.8430290222168 22.39727973937988 52.83412933349609 L 22.39945030212402 52.83193969726562 L 22.4015998840332 52.82970809936523 C 22.46212959289551 52.76689910888672 22.52599906921387 52.70436859130859 22.57488059997559 52.65692138671875 L 22.60930061340332 52.62414932250977 L 22.64405059814453 52.59103012084961 C 22.70850944519043 52.53039169311523 22.76421928405762 52.4793586730957 22.81702995300293 52.43262100219727 C 22.83037948608398 52.42078018188477 22.84349060058594 52.40948104858398 22.85655975341797 52.39817810058594 L 22.89448928833008 52.36521911621094 L 22.89012908935547 52.36901092529297 L 22.9012393951416 52.35947799682617 C 22.96051025390625 52.30860900878906 23.01650047302246 52.26055908203125 23.07284927368164 52.21492004394531 C 23.08464050292969 52.20544815063477 23.09796905517578 52.1950798034668 23.11132049560547 52.18466949462891 L 23.13726043701172 52.16439056396484 C 23.34049034118652 52.00315093994141 23.55179977416992 51.85208129882812 23.76700973510742 51.71403884887695 L 23.80431938171387 51.68986129760742 C 23.82935905456543 51.67358016967773 23.85438919067383 51.65724945068359 23.87973976135254 51.64167022705078 C 23.93135070800781 51.60977172851562 23.98286056518555 51.57989883422852 24.03420066833496 51.5500602722168 L 24.04450988769531 51.54405975341797 L 24.06381034851074 51.53282165527344 C 24.10400009155273 51.5094108581543 24.14406967163086 51.48604965209961 24.18449020385742 51.46319961547852 C 24.23353958129883 51.43613815307617 24.2875804901123 51.40729904174805 24.34160995483398 51.37889099121094 C 24.39110946655273 51.35298156738281 24.44153022766113 51.32701110839844 24.49238967895508 51.30168914794922 C 24.54396057128906 51.2761116027832 24.59642028808594 51.25038909912109 24.64933013916016 51.22555160522461 C 24.7047004699707 51.19947052001953 24.75997924804688 51.17498016357422 24.81546020507812 51.15044021606445 C 24.86648941040039 51.12786102294922 24.91630935668945 51.10578155517578 24.9665699005127 51.08478164672852 C 25.02366065979004 51.06103134155273 25.0819206237793 51.03865814208984 25.14019966125488 51.01622009277344 L 25.15818977355957 51.0092887878418 C 25.17707061767578 51.00212097167969 25.19805908203125 50.99391937255859 25.21904945373535 50.98569869995117 C 25.24357986450195 50.97610092163086 25.26811027526855 50.96646881103516 25.29285049438477 50.95735168457031 C 25.40283012390137 50.91748809814453 25.50885963439941 50.88164901733398 25.61454010009766 50.84870147705078 C 25.62738990783691 50.84471893310547 25.64114952087402 50.84088134765625 25.65492057800293 50.83697891235352 C 25.67218017578125 50.83209991455078 25.68946075439453 50.82719039916992 25.70680999755859 50.82196807861328 C 25.78046989440918 50.80001068115234 25.86890983581543 50.77407073974609 25.95718002319336 50.75094985961914 C 25.98600006103516 50.74332046508789 26.01399040222168 50.73670959472656 26.04190063476562 50.73006057739258 L 26.08912086486816 50.71873092651367 C 26.16090965270996 50.70135879516602 26.23335075378418 50.68418121337891 26.30665016174316 50.66852951049805 C 26.35304069519043 50.65871047973633 26.40049934387207 50.64957809448242 26.44837951660156 50.64043807983398 C 26.52050971984863 50.62657165527344 26.59250068664551 50.61367797851562 26.66493034362793 50.60163879394531 C 26.71062088012695 50.59437942504883 26.7596492767334 50.58676910400391 26.80912017822266 50.57960891723633 C 26.87484931945801 50.57009124755859 26.94710922241211 50.56095123291016 27.03010940551758 50.55167007446289 L 27.05999946594238 50.5482292175293 C 27.09761047363281 50.54388809204102 27.13529968261719 50.53950881958008 27.17340087890625 50.53572082519531 C 27.24032974243164 50.52943801879883 27.31637001037598 50.52371978759766 27.41720008850098 50.51744079589844 L 27.46792984008789 50.51395034790039 C 27.49126052856445 50.51227951049805 27.51464080810547 50.51055908203125 27.53825950622559 50.50944137573242 C 27.67332077026367 50.50308990478516 27.79463005065918 50.5 27.90885925292969 50.5 C 28.02338027954102 50.5 28.14533042907715 50.50308990478516 28.28169059753418 50.50946044921875 C 28.30431938171387 50.5105094909668 28.32669067382812 50.51221084594727 28.34903907775879 50.51383972167969 C 28.36729049682617 50.51517868041992 28.38553047180176 50.51649856567383 28.40385055541992 50.51765060424805 C 28.47233963012695 50.52191925048828 28.56178092956543 50.52788162231445 28.64883995056152 50.53630828857422 C 28.69025039672852 50.54019165039062 28.72993087768555 50.54489135742188 28.76959991455078 50.54954147338867 L 28.79141044616699 50.55208969116211 C 28.87331008911133 50.56134796142578 28.9453296661377 50.57048034667969 29.01334953308105 50.5802001953125 C 29.06248092651367 50.58734130859375 29.11280059814453 50.59529876708984 29.16288948059082 50.60346984863281 C 29.23209953308105 50.6148681640625 29.30155944824219 50.62723159790039 29.37080955505371 50.64064025878906 C 29.42193031311035 50.65060806274414 29.47230911254883 50.66040802001953 29.52248001098633 50.67108917236328 C 29.59041023254395 50.68568801879883 29.65862083435059 50.70182037353516 29.72706031799316 50.71833038330078 L 29.76778984069824 50.72821044921875 C 29.80289077758789 50.73669815063477 29.83803939819336 50.74515914916992 29.87273025512695 50.75431823730469 C 29.94292068481445 50.77278900146484 30.01193046569824 50.7930908203125 30.08073997497559 50.81332015991211 L 30.13349914550781 50.82862854003906 C 30.16197967529297 50.83683013916016 30.19042015075684 50.84497833251953 30.21867942810059 50.85377883911133 C 30.29903984069824 50.87905883789062 30.38019943237305 50.90708160400391 30.47690010070801 50.94123077392578 C 30.54388046264648 50.96509170532227 30.61107063293457 50.99050140380859 30.67803955078125 51.01652145385742 L 30.68486022949219 51.01914978027344 C 30.74538040161133 51.04243850708008 30.80551910400391 51.0655403137207 30.86544036865234 51.09030151367188 C 30.90612983703613 51.10736846923828 30.94881057739258 51.12652969360352 30.99157905578613 51.14569091796875 L 31.03366088867188 51.16448974609375 L 31.05825996398926 51.17543792724609 C 31.09863090515137 51.19337844848633 31.13903999328613 51.21128845214844 31.1788501739502 51.23012924194336 C 31.23837089538574 51.2582893371582 31.29718971252441 51.28752136230469 31.35581016540527 51.3171501159668 L 31.36771965026855 51.32315826416016 C 31.40681076049805 51.34289169311523 31.44602966308594 51.36264038085938 31.48469924926758 51.38314056396484 C 31.54211044311523 51.41323852539062 31.60120964050293 51.44549942016602 31.66737937927246 51.48281097412109 C 31.705810546875 51.50444030761719 31.74345016479492 51.52629852294922 31.78109931945801 51.54814147949219 C 31.84349060058594 51.58467102050781 31.90690040588379 51.6227912902832 31.96987915039062 51.66199111938477 C 31.99855041503906 51.67985916137695 32.0270881652832 51.69836044311523 32.05564880371094 51.71683883666992 C 32.14125061035156 51.77185821533203 32.20449066162109 51.8136100769043 32.26200866699219 51.85305023193359 L 32.27431106567383 51.86196136474609 L 32.2930793762207 51.87554931640625 L 32.29539108276367 51.87720108032227 L 32.2977294921875 51.87882995605469 C 32.72541046142578 52.17694091796875 33.1256217956543 52.52164840698242 33.48722839355469 52.90340042114258 L 33.49188995361328 52.90832138061523 L 33.49215698242188 52.90858459472656 C 34.75797653198242 54.24864959716797 35.5001220703125 55.99769592285156 35.58208847045898 57.8343391418457 L 35.62823867797852 58.86856842041016 L 36.40959930419922 58.18941879272461 C 37.39337158203125 57.33433151245117 38.65232849121094 56.86341094970703 39.95455169677734 56.86341094970703 C 42.93712997436523 56.86341094970703 45.36363983154297 59.29011917114258 45.36363983154297 62.2729606628418 C 45.36363983154297 62.28133010864258 45.36323165893555 62.28961944580078 45.36293029785156 62.29790878295898 C 45.36230850219727 62.31496810913086 45.36175918579102 62.33200836181641 45.36161041259766 62.34912109375 L 45.35646057128906 62.94939804077148 L 45.94776916503906 62.84592819213867 C 46.225341796875 62.79735946655273 46.50289154052734 62.77272796630859 46.77273178100586 62.77272796630859 C 47.17269134521484 62.77272796630859 47.57035064697266 62.82279968261719 47.95465850830078 62.92153930664062 C 50.04204940795898 63.45843124389648 51.5 65.34107971191406 51.5 67.49977111816406 C 51.5 69.73597717285156 49.91284942626953 71.68372344970703 47.72610855102539 72.13130187988281 C 47.64738082885742 72.14729309082031 47.56892013549805 72.16127777099609 47.49362945556641 72.17273712158203 C 47.38351821899414 72.18949127197266 47.26393127441406 72.20249176025391 47.12808990478516 72.21248626708984 L 46.99983596801758 72.221923828125 C 46.92538452148438 72.22545623779297 46.84874725341797 72.22727966308594 46.77273178100586 72.22727966308594 Z" stroke="none"/>
      <path d="M 46.77273178100586 71.72727966308594 C 46.83904647827148 71.72727966308594 46.90584945678711 71.72573852539062 46.96986770629883 71.7227783203125 L 47.09138870239258 71.71383666992188 C 47.21422958374023 71.70480346679688 47.32123947143555 71.69320678710938 47.41838836669922 71.67843627929688 C 47.48558044433594 71.668212890625 47.55585861206055 71.65567016601562 47.62585067749023 71.64144897460938 C 49.58097076416016 71.24127960205078 51 69.49954986572266 51 67.49977111816406 C 51 65.56932830810547 49.69644927978516 63.88581085205078 47.83023834228516 63.40581130981445 C 47.48654937744141 63.31750869750977 47.1307487487793 63.27272796630859 46.77273178100586 63.27272796630859 C 46.53170013427734 63.27272796630859 46.28313827514648 63.29483795166016 46.03395843505859 63.33843994140625 L 44.8513298034668 63.54537963867188 L 44.86162948608398 62.34482955932617 C 44.86180877685547 62.32310104370117 44.86246871948242 62.30144882202148 44.86325836181641 62.27975845336914 L 44.86363983154297 62.26863098144531 C 44.86122131347656 59.56353378295898 42.65994262695312 57.36341094970703 39.95455169677734 57.36341094970703 C 38.77286911010742 57.36341094970703 37.63040161132812 57.79077911376953 36.73760986328125 58.56679153442383 L 35.17490005493164 59.92509841918945 L 35.08258056640625 57.85663986206055 C 35.00600051879883 56.14066696166992 34.31285858154297 54.50645446777344 33.13047027587891 53.25382995605469 L 33.12424087524414 53.24724960327148 C 32.78594970703125 52.89012908935547 32.41167068481445 52.56772994995117 32.01181030273438 52.28900909423828 L 32.00714874267578 52.28575897216797 L 32.00252151489258 52.2824592590332 L 31.97961044311523 52.2658805847168 L 31.97436332702637 52.26206970214844 C 31.9223518371582 52.22649002075195 31.86406135559082 52.18806838989258 31.78403091430664 52.13663101196289 C 31.7578296661377 52.11967086791992 31.73164939880371 52.10268020629883 31.70566940307617 52.08647918701172 C 31.64652061462402 52.0496711730957 31.58696937561035 52.01388168334961 31.53014945983887 51.98060989379883 C 31.49440956115723 51.95985794067383 31.45867919921875 51.9390983581543 31.42181015014648 51.91835021972656 C 31.36010932922363 51.88356018066406 31.30538940429688 51.85369110107422 31.25053977966309 51.82492065429688 C 31.21480941772461 51.80598068237305 31.17856025695801 51.78776168823242 31.14244079589844 51.76953125 L 31.13027000427246 51.76338958740234 C 31.07551956176758 51.73572158813477 31.02061080932617 51.70840072631836 30.96497917175293 51.68207931518555 C 30.92873954772949 51.6649284362793 30.89192962646484 51.6486701965332 30.85519027709961 51.63233947753906 L 30.83025932312012 51.62125015258789 L 30.78723907470703 51.60203170776367 C 30.74907875061035 51.58494186401367 30.71102142333984 51.56779861450195 30.67250442504883 51.55157852172852 C 30.61701202392578 51.52869415283203 30.56130218505859 51.50734710693359 30.50525093078613 51.48577117919922 L 30.49699974060059 51.48258972167969 C 30.43440055847168 51.45827865600586 30.37162017822266 51.43450927734375 30.31039047241211 51.41268920898438 C 30.21859931945801 51.38026809692383 30.14212036132812 51.35385131835938 30.0700798034668 51.33118057250977 C 30.04521942138672 51.32344818115234 30.02020072937012 51.31631851196289 29.99514007568359 51.30910873413086 L 29.93967056274414 51.29301071166992 C 29.87545013427734 51.27412033081055 29.81106948852539 51.25511169433594 29.74501991271973 51.23773956298828 C 29.71369934082031 51.22946166992188 29.68197059631348 51.22187042236328 29.65028953552246 51.21421051025391 L 29.60980987548828 51.20438003540039 C 29.54542922973633 51.18885040283203 29.48126029968262 51.17364883422852 29.41836929321289 51.16012954711914 C 29.37100028991699 51.15005111694336 29.32341957092285 51.14081954956055 29.27569961547852 51.13151168823242 C 29.21106910705566 51.11898803710938 29.146240234375 51.10746002197266 29.08237075805664 51.09695053100586 C 29.03512954711914 51.08924102783203 28.98768997192383 51.08172988891602 28.94261932373047 51.07516860961914 C 28.8794994354248 51.0661506652832 28.8122501373291 51.05764007568359 28.73348999023438 51.04872894287109 L 28.71137046813965 51.04613876342773 C 28.67555999755859 51.04193878173828 28.63973045349121 51.03765106201172 28.60062980651855 51.03398132324219 C 28.52116012573242 51.02627944946289 28.43726921081543 51.02069854736328 28.37247085571289 51.01667022705078 C 28.35244941711426 51.01541137695312 28.33250999450684 51.01396942138672 28.31257057189941 51.01250839233398 C 28.29457092285156 51.01118850708008 28.27655982971191 51.00975799560547 28.25839042663574 51.0089111328125 C 28.12985992431641 51.0029182434082 28.01552963256836 51 27.90885925292969 51 C 27.80253028869629 51 27.68889999389648 51.00291061401367 27.56196022033691 51.00888061523438 C 27.54237937927246 51.00981140136719 27.52300071716309 51.01129150390625 27.50363922119141 51.01266860961914 L 27.4482593536377 51.0164794921875 C 27.35446548461914 51.02231979370117 27.28406715393066 51.02758026123047 27.22064971923828 51.03348922729492 C 27.18595504760742 51.03696441650391 27.15163993835449 51.04096603393555 27.11737060546875 51.04492950439453 L 27.08568954467773 51.04856872558594 C 27.00811958312988 51.0572509765625 26.94112968444824 51.06570816040039 26.88073921203613 51.07445907592773 C 26.83479309082031 51.08110809326172 26.78924942016602 51.08816909790039 26.74370193481445 51.09541320800781 C 26.6765251159668 51.10660171508789 26.6097240447998 51.11857604980469 26.54220008850098 51.13156127929688 C 26.49757957458496 51.14007949829102 26.45335960388184 51.1485595703125 26.41102981567383 51.15752029418945 C 26.34214973449707 51.17221832275391 26.27409934997559 51.18840026855469 26.20756912231445 51.20449829101562 L 26.1577091217041 51.21646881103516 C 26.13385009765625 51.22214889526367 26.10992050170898 51.22774124145508 26.08390045166016 51.234619140625 C 26.00278091430664 51.25587844848633 25.91935920715332 51.28034973144531 25.85088920593262 51.30075836181641 C 25.83086013793945 51.30678939819336 25.81092071533203 51.31248092651367 25.79099082946777 51.31811141967773 C 25.78119087219238 51.32088851928711 25.7713794708252 51.32355117797852 25.76339912414551 51.32601928710938 C 25.66574096679688 51.35647583007812 25.5674934387207 51.38967132568359 25.46312522888184 51.42747497558594 C 25.44239234924316 51.43515396118164 25.42184448242188 51.44326400756836 25.40126991271973 51.45132064819336 C 25.37874031066895 51.46012878417969 25.35619926452637 51.46894073486328 25.33795928955078 51.47584915161133 L 25.31986045837402 51.48283004760742 C 25.26575088500977 51.50365829467773 25.21162986755371 51.52436828613281 25.15928077697754 51.54616165161133 C 25.11223030090332 51.56581115722656 25.06561088562012 51.58650970458984 25.01774024963379 51.60768890380859 C 24.96586990356445 51.63063812255859 24.91418075561523 51.65349960327148 24.86183929443359 51.67813873291016 C 24.81217002868652 51.70146942138672 24.76292037963867 51.72563171386719 24.71523094177246 51.7492790222168 C 24.66739082336426 51.77309799194336 24.61996078491211 51.79755020141602 24.57435035705566 51.8214111328125 C 24.52471542358398 51.84751510620117 24.47506523132324 51.87398910522461 24.42598342895508 51.90104675292969 C 24.38898849487305 51.92201995849609 24.3522891998291 51.94342422485352 24.31547927856445 51.96487045288086 L 24.29582977294922 51.97631072998047 L 24.28548049926758 51.98233032226562 C 24.23802947998047 52.00991058349609 24.19039916992188 52.03746032714844 24.14152908325195 52.06764984130859 C 24.11977005004883 52.08102798461914 24.09832954406738 52.09508895874023 24.07685089111328 52.10905838012695 L 24.03696060180664 52.1348991394043 C 23.83579063415527 52.26393890380859 23.6382007598877 52.40520095825195 23.44634056091309 52.55741119384766 L 23.41877937316895 52.5789680480957 C 23.40736961364746 52.58787155151367 23.39595031738281 52.59672164916992 23.38751983642578 52.60348892211914 C 23.33670997619629 52.64463043212891 23.28335952758789 52.6904182434082 23.22686958312988 52.73889923095703 L 23.21712112426758 52.74726867675781 L 23.18343925476074 52.77653121948242 C 23.17198944091797 52.78643035888672 23.16050910949707 52.79631042480469 23.14838981628418 52.80706024169922 C 23.10010528564453 52.84977722167969 23.04869842529297 52.89687347412109 22.98679542541504 52.9550895690918 L 22.9542293548584 52.98611831665039 L 22.91974830627441 53.01898193359375 C 22.87153434753418 53.06581497192383 22.81543159484863 53.12083435058594 22.76160049438477 53.17668914794922 L 22.75731086730957 53.1811408996582 L 22.75296974182129 53.18553924560547 C 22.74670028686523 53.19189071655273 22.74061965942383 53.19842147827148 22.7344799041748 53.20491027832031 L 22.70969009399414 53.23093795776367 C 22.64493942260742 53.29885864257812 22.59015083312988 53.35815811157227 22.54219055175781 53.4122314453125 L 22.52919960021973 53.4268684387207 L 22.52768707275391 53.42844390869141 C 22.52645683288574 53.42982864379883 22.52522087097168 53.43120956420898 22.52397918701172 53.43259048461914 C 22.26800727844238 53.7226448059082 22.03327369689941 54.03655242919922 21.82513046264648 54.36738967895508 L 21.82333946228027 54.37023162841797 C 21.77639007568359 54.44480895996094 21.72897911071777 54.52399063110352 21.67626953125 54.61598968505859 L 21.66458702087402 54.63618469238281 C 21.61889457702637 54.71675109863281 21.57451438903809 54.79832077026367 21.5325813293457 54.8787727355957 L 21.52695083618164 54.88986968994141 L 21.52545928955078 54.89279937744141 L 21.52395057678223 54.89572143554688 C 21.24907684326172 55.42858505249023 21.04206275939941 55.99557876586914 20.90861129760742 56.58108901977539 L 20.90859031677246 56.5811882019043 L 20.7379207611084 57.36999893188477 L 19.94658279418945 57.36999893188477 C 19.71158981323242 57.37765884399414 19.47592353820801 57.39670944213867 19.24583053588867 57.42663955688477 L 19.22155380249023 57.42978668212891 C 19.11190032958984 57.44433212280273 19.00309753417969 57.46136856079102 18.89780044555664 57.48049163818359 L 18.87849044799805 57.48394012451172 L 18.87844467163086 57.48394775390625 C 18.77046012878418 57.50367736816406 18.66155624389648 57.52629089355469 18.55447959899902 57.55121994018555 L 18.52738761901855 57.55738067626953 C 18.42888832092285 57.58062362670898 18.32950973510742 57.6063117980957 18.23141860961914 57.63388442993164 L 18.22736930847168 57.63516998291016 L 18.21246910095215 57.63940811157227 C 18.10419845581055 57.67018127441406 17.9970645904541 57.70333099365234 17.89392852783203 57.73798751831055 C 17.88523292541504 57.74100875854492 17.87683868408203 57.74381256103516 17.8684139251709 57.74650955200195 C 17.76725006103516 57.78100967407227 17.66547584533691 57.8182487487793 17.56493949890137 57.85755920410156 L 17.55450057983398 57.86162948608398 C 17.45646667480469 57.90022277832031 17.35617828369141 57.94230270385742 17.25628662109375 57.98676681518555 C 17.24692153930664 57.9910888671875 17.23755645751953 57.99531173706055 17.22805976867676 57.99945068359375 C 17.13114356994629 58.04343414306641 17.03558921813965 58.08919143676758 16.94388008117676 58.13552093505859 L 16.93683052062988 58.13908004760742 L 16.93604850769043 58.13945770263672 L 16.92533111572266 58.14493179321289 L 16.92535018920898 58.14496994018555 C 16.82561111450195 58.19600677490234 16.73584175109863 58.24420928955078 16.65110969543457 58.29222869873047 C 16.64005279541016 58.29877471923828 16.6290397644043 58.30520248413086 16.61781311035156 58.31154632568359 C 16.5275764465332 58.36324310302734 16.43995475769043 58.4157829284668 16.35727882385254 58.46775436401367 L 16.32615089416504 58.48781967163086 C 16.24128341674805 58.54201126098633 16.15756416320801 58.59782791137695 16.07727241516113 58.65375137329102 L 16.06047058105469 58.6656608581543 L 16.04001998901367 58.68014907836914 C 15.95254993438721 58.74209976196289 15.87539958953857 58.79898834228516 15.80045032501221 58.85692977905273 L 15.78055953979492 58.87260818481445 L 15.76706981658936 58.88330841064453 L 15.76418018341064 58.88560104370117 L 15.76126956939697 58.88787078857422 C 15.68562030792236 58.94681930541992 15.61124992370605 59.00717926025391 15.53929996490479 59.06805801391602 C 15.53225040435791 59.07400894165039 15.52542018890381 59.08007049560547 15.51852989196777 59.08610916137695 L 15.4949197769165 59.106689453125 C 15.41804027557373 59.1728401184082 15.35120010375977 59.23254013061523 15.28804969787598 59.29156112670898 C 15.27939033508301 59.29959106445312 15.27089977264404 59.30780029296875 15.26239013671875 59.31597900390625 L 15.23908996582031 59.33826065063477 C 15.16716957092285 59.40642929077148 15.1046199798584 59.46778106689453 15.04763031005859 59.52605056762695 C 15.03962993621826 59.53422927856445 15.03180027008057 59.54253005981445 15.02396011352539 59.55078887939453 L 14.99485015869141 59.58126831054688 C 14.92504405975342 59.65433502197266 14.86949253082275 59.71413040161133 14.82046794891357 59.76897811889648 L 14.79271984100342 59.80099868774414 L 14.76146030426025 59.83713912963867 C 14.7084903717041 59.89823150634766 14.65229034423828 59.96366882324219 14.60017013549805 60.02828979492188 L 14.5971097946167 60.03208923339844 L 14.5939998626709 60.03585815429688 C 14.5828104019165 60.04946136474609 14.57215023040771 60.06351089477539 14.56140995025635 60.07740020751953 L 14.54374980926514 60.1002197265625 L 14.54150009155273 60.10311126708984 L 14.53923034667969 60.10597991943359 C 14.49022960662842 60.16804885864258 14.43842029571533 60.23427963256836 14.39284038543701 60.29618835449219 C 14.38090991973877 60.31246948242188 14.3692798614502 60.32918167114258 14.35760974884033 60.34582138061523 L 14.33230972290039 60.38175964355469 L 14.33084964752197 60.38381958007812 L 14.32938003540039 60.38586807250977 C 14.28915977478027 60.44203948974609 14.24203968048096 60.50848007202148 14.19760036468506 60.57535171508789 L 14.19598007202148 60.57778930664062 L 14.19433975219727 60.58021926879883 C 14.18237018585205 60.59799957275391 14.17101001739502 60.61626052856445 14.15948963165283 60.63449096679688 L 14.13486003875732 60.67330169677734 C 14.09237003326416 60.73945999145508 14.0522403717041 60.80194091796875 14.0175895690918 60.8602294921875 L 14.01523017883301 60.86420822143555 L 14.01282978057861 60.86816024780273 C 14.00187969207764 60.88619995117188 13.99160003662109 60.9046516418457 13.9811897277832 60.92300033569336 L 13.95462989807129 60.96957015991211 L 13.94048976898193 60.99422073364258 C 13.90857982635498 61.04983139038086 13.87658977508545 61.10535049438477 13.8484001159668 61.15760040283203 C 13.83666038513184 61.17964172363281 13.82548999786377 61.20201110839844 13.81424045562744 61.22434997558594 L 13.78699970245361 61.27811813354492 L 13.7684497833252 61.31433868408203 C 13.74330043792725 61.36336135864258 13.71802997589111 61.41223907470703 13.69451999664307 61.46212005615234 L 13.69281005859375 61.46575164794922 L 13.69106960296631 61.4693603515625 C 13.67792987823486 61.49665069580078 13.66580963134766 61.52439880371094 13.65353965759277 61.55210113525391 L 13.63465976715088 61.59452056884766 L 13.61806011199951 61.63121795654297 C 13.59609031677246 61.67972946166992 13.57400035858154 61.72811126708984 13.55350017547607 61.77746963500977 L 13.55235004425049 61.78023910522461 L 13.55117988586426 61.78300094604492 C 13.53966045379639 61.81027984619141 13.52910041809082 61.83803939819336 13.51840972900391 61.86568069458008 L 13.49759960174561 61.91920852661133 L 13.47990989685059 61.96406173706055 C 13.46232986450195 62.00851821899414 13.44460964202881 62.05287933349609 13.42683982849121 62.10243988037109 C 13.41543960571289 62.13376998901367 13.40505027770996 62.16558837890625 13.39453983306885 62.19731140136719 L 13.37532997131348 62.25492858886719 L 13.35801982879639 62.30582046508789 C 13.34377956390381 62.34756088256836 13.32944011688232 62.38914108276367 13.31698989868164 62.42947006225586 C 13.30618000030518 62.46474838256836 13.29652976989746 62.50053024291992 13.28674983978271 62.53620147705078 L 13.27095031738281 62.59349060058594 L 13.27009963989258 62.59653854370117 L 13.26922988891602 62.59957885742188 L 13.25675010681152 62.64305114746094 C 13.24480819702148 62.68452072143555 13.23280048370361 62.72583389282227 13.22186374664307 62.7677001953125 C 13.21351909637451 62.80094146728516 13.20611667633057 62.83455657958984 13.19859027862549 62.86822891235352 C 13.19289112091064 62.89370346069336 13.18717384338379 62.91920471191406 13.18126583099365 62.94468688964844 C 13.17615795135498 62.96719741821289 13.17088413238525 62.98968887329102 13.16559028625488 63.01218795776367 C 13.15820026397705 63.04365921020508 13.15058994293213 63.07514953613281 13.14424991607666 63.10707092285156 L 13.14369964599609 63.10987854003906 L 13.14311981201172 63.11268997192383 C 13.13461017608643 63.15431976318359 13.12765979766846 63.19638061523438 13.12051963806152 63.23844146728516 L 13.11019039154053 63.29872131347656 C 13.10589027404785 63.32347106933594 13.10136985778809 63.34812164306641 13.09683990478516 63.37276077270508 C 13.0915002822876 63.40180969238281 13.0859899520874 63.43082046508789 13.08154010772705 63.4603385925293 C 13.07460021972656 63.50632858276367 13.0692195892334 63.55294036865234 13.06367969512939 63.59947967529297 L 13.05582046508789 63.66471099853516 C 13.05296039581299 63.68819046020508 13.049880027771 63.71160888671875 13.04679012298584 63.73503875732422 C 13.04333019256592 63.76126861572266 13.03967952728271 63.78747940063477 13.03680992126465 63.81679153442383 C 13.03106021881104 63.87403869628906 13.02670955657959 63.93828964233398 13.02210998535156 64.00630950927734 L 13.01920986175537 64.04897308349609 C 13.0175199508667 64.07470703125 13.01543045043945 64.10029602050781 13.0132999420166 64.12587738037109 C 13.01194000244141 64.14219665527344 13.01035976409912 64.15850067138672 13.00938034057617 64.17913818359375 C 13.00316047668457 64.30111694335938 13 64.42429351806641 13 64.54522705078125 C 13 68.50543212890625 16.22164916992188 71.72727966308594 20.18181991577148 71.72727966308594 L 30.66477012634277 71.72727966308594 L 37.45455169677734 71.72727966308594 C 37.54106140136719 71.72727966308594 37.63404083251953 71.72384643554688 37.72185897827148 71.7203369140625 L 37.74182891845703 71.71954345703125 L 37.76182174682617 71.71954345703125 L 46.49090957641602 71.71954345703125 L 46.51750946044922 71.71954345703125 L 46.5440788269043 71.720947265625 C 46.55115127563477 71.72132873535156 46.5581169128418 71.72177124023438 46.56510925292969 71.72227478027344 C 46.6336784362793 71.72560119628906 46.70347213745117 71.72727966308594 46.77273178100586 71.72727966308594 M 46.77273178100586 72.72727966308594 C 46.68273162841797 72.72727966308594 46.59296035766602 72.72500610351562 46.50363922119141 72.720458984375 C 46.49932098388672 72.72023010253906 46.49523162841797 72.71977233886719 46.49090957641602 72.71954345703125 L 37.76182174682617 72.71954345703125 C 37.65954971313477 72.7236328125 37.55749893188477 72.72727966308594 37.45455169677734 72.72727966308594 L 30.66477012634277 72.72727966308594 L 20.18181991577148 72.72727966308594 L 20.18158912658691 72.72727966308594 C 15.66318035125732 72.72727966308594 12 69.06410217285156 12 64.54522705078125 C 12 64.40522766113281 12.00364017486572 64.26613616943359 12.01068019866943 64.12818145751953 C 12.01296043395996 64.07953643798828 12.01817989349365 64.03180694580078 12.02136039733887 63.9834098815918 C 12.02750015258789 63.89432144165039 12.03295993804932 63.80500030517578 12.04181957244873 63.71681976318359 C 12.04749965667725 63.65863800048828 12.05613994598389 63.60136032104492 12.0631799697876 63.54364013671875 C 12.07273006439209 63.46614074707031 12.08113956451416 63.3879508972168 12.09272956848145 63.31113815307617 C 12.10204982757568 63.24932098388672 12.11431980133057 63.18864059448242 12.125 63.12726974487305 C 12.13749980926514 63.05545806884766 12.14885997772217 62.9834098815918 12.16341018676758 62.91228103637695 C 12.17613983154297 62.84817886352539 12.19204998016357 62.78522872924805 12.20635986328125 62.72204971313477 C 12.22204971313477 62.65454864501953 12.23614025115967 62.58681869506836 12.25296020507812 62.52022933959961 C 12.27000045776367 62.45455169677734 12.28909015655518 62.38999938964844 12.30772972106934 62.32477951049805 C 12.32522964477539 62.26205062866211 12.34181976318359 62.19863891601562 12.36091041564941 62.13637161254883 C 12.38181972503662 62.06863021850586 12.40522956848145 62.00204086303711 12.42796039581299 61.93478012084961 C 12.44750022888184 61.8768196105957 12.466139793396 61.81818008422852 12.48705005645752 61.76068115234375 C 12.51204967498779 61.69091033935547 12.53977012634277 61.62250137329102 12.56682014465332 61.55363082885742 C 12.58773040771484 61.50046157836914 12.6077299118042 61.44659042358398 12.63000011444092 61.39387130737305 C 12.65954971313477 61.32273101806641 12.69159030914307 61.25318145751953 12.72317981719971 61.18317794799805 C 12.74522972106934 61.13386917114258 12.7665901184082 61.08432006835938 12.78999996185303 61.03567886352539 C 12.82386016845703 60.96385955810547 12.86046028137207 60.89363861083984 12.89659023284912 60.82295989990234 C 12.91977024078369 60.77772903442383 12.94204998016357 60.73204803466797 12.96590995788574 60.68727874755859 C 13.00500011444092 60.61478042602539 13.04613971710205 60.54364013671875 13.08705043792725 60.47227096557617 C 13.11067962646484 60.43136978149414 13.13341045379639 60.3897705078125 13.15795993804932 60.34931945800781 C 13.20158958435059 60.27590942382812 13.24773025512695 60.2040901184082 13.29386043548584 60.13227081298828 C 13.31750011444092 60.09523010253906 13.34045028686523 60.05794906616211 13.36476993560791 60.02182006835938 C 13.41386032104492 59.94795989990234 13.46477031707764 59.87567901611328 13.51636028289795 59.80363845825195 C 13.53954982757568 59.77090835571289 13.5625 59.73749923706055 13.58613967895508 59.70523071289062 C 13.64068031311035 59.63114166259766 13.69727039337158 59.55863952636719 13.75432014465332 59.48637008666992 C 13.77659034729004 59.45772933959961 13.79864025115967 59.42863082885742 13.82182025909424 59.40045928955078 C 13.88158988952637 59.32635879516602 13.94363975524902 59.25386810302734 14.00590991973877 59.18204879760742 C 14.02772998809814 59.15705108642578 14.04909038543701 59.13182067871094 14.07067966461182 59.10726928710938 C 14.13636016845703 59.03363800048828 14.20363998413086 58.96181869506836 14.27182006835938 58.89046096801758 C 14.29226970672607 58.86931991577148 14.31227016448975 58.84772872924805 14.33296012878418 58.82659149169922 C 14.40408992767334 58.75386047363281 14.47704982757568 58.68273162841797 14.55113983154297 58.61249923706055 C 14.56999969482422 58.59455108642578 14.5886402130127 58.57635879516602 14.6077299118042 58.55863952636719 C 14.6843204498291 58.4870491027832 14.76296043395996 58.41727066040039 14.84272956848145 58.34864044189453 C 14.85999965667725 58.33364105224609 14.8768196105957 58.31863021850586 14.89431953430176 58.30385971069336 C 14.97704982757568 58.23386001586914 15.0611400604248 58.16567993164062 15.14659023284912 58.09909057617188 C 15.16182041168213 58.08703994750977 15.17704963684082 58.07477951049805 15.19250011444092 58.06295013427734 C 15.28067970275879 57.99477005004883 15.37090969085693 57.92863845825195 15.46205043792725 57.86408996582031 C 15.47523021697998 57.85477066040039 15.48863983154297 57.84523010253906 15.5018196105957 57.83591079711914 C 15.59568023681641 57.77045059204102 15.69114017486572 57.70682144165039 15.78794956207275 57.64500045776367 C 15.79932022094727 57.63772964477539 15.8106803894043 57.63045883178711 15.82182025909424 57.6231803894043 C 15.92113971710205 57.5606803894043 16.02182006835938 57.50046157836914 16.12385940551758 57.44205093383789 C 16.13364028930664 57.43658828735352 16.1429500579834 57.430908203125 16.15273094177246 57.42522811889648 C 16.25682067871094 57.36613845825195 16.36273002624512 57.30955123901367 16.46977043151855 57.25476837158203 C 16.47750091552734 57.25091171264648 16.48500061035156 57.24681854248047 16.49295043945312 57.24295806884766 C 16.60227012634277 57.18772888183594 16.71273040771484 57.1349983215332 16.82476997375488 57.08432006835938 C 16.83090972900391 57.08182144165039 16.83658981323242 57.0790901184082 16.84250068664551 57.07635879516602 C 16.95659065246582 57.02545928955078 17.07159042358398 56.9770393371582 17.18818092346191 56.9311408996582 L 17.20158958435059 56.92591094970703 C 17.31954956054688 56.87977981567383 17.43909072875977 56.83613967895508 17.55977058410645 56.79523086547852 C 17.56295013427734 56.79431915283203 17.5656795501709 56.79341125488281 17.5688591003418 56.79227066040039 C 17.69091033935547 56.75114059448242 17.8143196105957 56.71295928955078 17.93909072875977 56.6775016784668 L 17.94408988952637 56.67591094970703 C 18.06999969482422 56.64022827148438 18.19681930541992 56.60749816894531 18.32500076293945 56.57772827148438 L 18.32773017883301 56.5772705078125 C 18.45659065246582 56.54727172851562 18.58637046813965 56.52045059204102 18.71750068664551 56.49681854248047 L 18.71908950805664 56.49658966064453 C 18.85045051574707 56.47272872924805 18.98295021057129 56.4522705078125 19.11659049987793 56.43500137329102 L 19.11681938171387 56.43500137329102 C 19.38409042358398 56.40023040771484 19.65567970275879 56.37841033935547 19.93091011047363 56.36999893188477 L 19.9311408996582 56.36999893188477 L 19.93227005004883 56.36476898193359 C 20.08637046813965 55.68635940551758 20.32431983947754 55.04000091552734 20.63522911071777 54.43727874755859 L 20.64295959472656 54.42205047607422 C 20.69272994995117 54.32637023925781 20.74408912658691 54.23204803466797 20.79726982116699 54.13840866088867 L 20.8106803894043 54.11523056030273 C 20.86432075500488 54.02159118652344 20.91954040527344 53.92885971069336 20.97705078125 53.83750152587891 L 20.97978019714355 53.83317947387695 C 21.21726989746094 53.45568084716797 21.48431968688965 53.09886169433594 21.77840995788574 52.76613998413086 C 21.78385925292969 52.76023101806641 21.78863906860352 52.75431823730469 21.79409027099609 52.74863815307617 C 21.85659027099609 52.67818069458008 21.9209098815918 52.60908889770508 21.98591041564941 52.54090881347656 C 22.00455093383789 52.52159118652344 22.02272987365723 52.5018196105957 22.04158973693848 52.48273086547852 C 22.10205078125 52.41999816894531 22.16408920288086 52.35886001586914 22.22658920288086 52.29817962646484 C 22.25090980529785 52.27500152587891 22.27499961853027 52.25204849243164 22.2990894317627 52.22909164428711 C 22.36067962646484 52.17113876342773 22.42250061035156 52.11408996582031 22.48567962646484 52.05817794799805 C 22.51181983947754 52.03499984741211 22.53841018676758 52.01250076293945 22.56454086303711 51.98955154418945 C 22.62863922119141 51.93455123901367 22.6924991607666 51.87955093383789 22.75818061828613 51.82635879516602 C 22.7813606262207 51.80773162841797 22.80476951599121 51.78976821899414 22.82818031311035 51.77135848999023 C 23.0427303314209 51.60113906860352 23.26568031311035 51.44158935546875 23.49704933166504 51.29317855834961 C 23.53726959228516 51.26726913452148 23.5772705078125 51.24068069458008 23.61795043945312 51.21567916870117 C 23.67568016052246 51.18000030517578 23.73455047607422 51.14590835571289 23.79318046569824 51.11182022094727 C 23.84159088134766 51.08364105224609 23.8897705078125 51.05545043945312 23.93840980529785 51.02795028686523 C 23.99477005004883 50.99681854248047 24.05182075500488 50.96635818481445 24.10886001586914 50.93635940551758 C 24.16226959228516 50.90840911865234 24.21567916870117 50.88090896606445 24.26955032348633 50.85409164428711 C 24.32500076293945 50.82659149169922 24.38068008422852 50.79932022094727 24.43681907653809 50.7729606628418 C 24.49522972106934 50.74544906616211 24.55409049987793 50.71931838989258 24.61318016052246 50.69318008422852 C 24.66658973693848 50.66954803466797 24.71999931335449 50.64590835571289 24.77387046813965 50.62340927124023 C 24.84159088134766 50.59523010253906 24.90999984741211 50.56908798217773 24.9784107208252 50.54272842407227 C 25.02568054199219 50.5247688293457 25.07250022888184 50.50568008422852 25.1200008392334 50.48817825317383 C 25.23409080505371 50.44681930541992 25.34909057617188 50.40773010253906 25.46567916870117 50.37136840820312 C 25.49795913696289 50.36137008666992 25.53022956848145 50.35295867919922 25.56273078918457 50.34318161010742 C 25.6511402130127 50.31681823730469 25.74023056030273 50.29090881347656 25.83045959472656 50.26726913452148 C 25.8768196105957 50.25500106811523 25.9240894317627 50.24431991577148 25.97068023681641 50.23295974731445 C 26.0477294921875 50.21432113647461 26.12454986572266 50.19614028930664 26.2022705078125 50.17955017089844 C 26.25272941589355 50.16886901855469 26.30340957641602 50.15908813476562 26.35454940795898 50.14931869506836 C 26.43022918701172 50.13476943969727 26.5063591003418 50.12113952636719 26.58295059204102 50.1084098815918 C 26.63431930541992 50.1002311706543 26.6856803894043 50.09226989746094 26.73749923706055 50.08477020263672 C 26.81591033935547 50.07341003417969 26.89522933959961 50.06364059448242 26.97454071044922 50.05477142333984 C 27.02408981323242 50.04909133911133 27.07364082336426 50.04317855834961 27.12385940551758 50.03818130493164 C 27.21091079711914 50.02999877929688 27.29841041564941 50.02386856079102 27.38614082336426 50.01840972900391 C 27.42885971069336 50.01567840576172 27.47135925292969 50.01205062866211 27.51454925537109 50.0099983215332 C 27.64500045776367 50.00386810302734 27.77659034729004 50 27.90885925292969 50 C 28.04182052612305 50 28.17363929748535 50.00386810302734 28.30500030517578 50.0099983215332 C 28.3488597869873 50.01205062866211 28.39182090759277 50.01591110229492 28.43523025512695 50.01863861083984 C 28.52272987365723 50.02408981323242 28.6102294921875 50.03023147583008 28.69705009460449 50.03863906860352 C 28.74795913696289 50.04341125488281 28.79863929748535 50.0495491027832 28.84931945800781 50.05545806884766 C 28.92773056030273 50.0643196105957 29.00613975524902 50.07408905029297 29.0840892791748 50.08522796630859 C 29.13726997375488 50.09296035766602 29.19046020507812 50.10136032104492 29.24341011047363 50.11000061035156 C 29.31796073913574 50.12226867675781 29.39204978942871 50.13545989990234 29.46590995788574 50.1497688293457 C 29.51955032348633 50.16022872924805 29.57317924499512 50.17068099975586 29.62659072875977 50.18204879760742 C 29.69955062866211 50.19773101806641 29.77182006835938 50.21477890014648 29.84432029724121 50.23226928710938 C 29.89636993408203 50.24499893188477 29.94886016845703 50.25727844238281 30.00045013427734 50.27090835571289 C 30.07476997375488 50.29045867919922 30.14841079711914 50.31204986572266 30.22182083129883 50.33364105224609 C 30.27045059204102 50.34794998168945 30.31908988952637 50.36137008666992 30.36727905273438 50.37636947631836 C 30.46044921875 50.40568161010742 30.55204010009766 50.4375 30.64340972900391 50.46976852416992 C 30.71614074707031 50.49567794799805 30.78772926330566 50.52272796630859 30.85909080505371 50.55044937133789 C 30.92523002624512 50.57590866088867 30.99090957641602 50.60113906860352 31.05636024475098 50.62818145751953 C 31.11705017089844 50.65364074707031 31.17682075500488 50.680908203125 31.2370491027832 50.70772933959961 C 31.28908920288086 50.73091125488281 31.34136009216309 50.75386810302734 31.39273071289062 50.77817916870117 C 31.45614051818848 50.80817794799805 31.51885986328125 50.83932113647461 31.58135986328125 50.87091064453125 C 31.62726974487305 50.89408874511719 31.67341041564941 50.91727066040039 31.7188606262207 50.94136047363281 C 31.78432083129883 50.97568130493164 31.84886932373047 51.01113891601562 31.91295051574707 51.04727172851562 C 31.95294952392578 51.06977844238281 31.99250030517578 51.09273147583008 32.03205108642578 51.11568069458008 C 32.09999847412109 51.15546035766602 32.16727066040039 51.1959114074707 32.23408889770508 51.23749923706055 C 32.26544952392578 51.25704956054688 32.29636001586914 51.27705001831055 32.3272705078125 51.29705047607422 C 32.40045928955078 51.34408950805664 32.47317886352539 51.3915901184082 32.54476928710938 51.44068145751953 C 32.55796051025391 51.44977951049805 32.5709114074707 51.45954895019531 32.58364105224609 51.4686393737793 C 33.04272842407227 51.78863906860352 33.46659088134766 52.15454864501953 33.8502311706543 52.55955123901367 L 33.85068130493164 52.56000137329102 C 35.15908813476562 53.94272994995117 35.99090957641602 55.78023147583008 36.08158874511719 57.81204986572266 C 37.11886978149414 56.91044998168945 38.47249984741211 56.36341094970703 39.95455169677734 56.36341094970703 C 43.21818923950195 56.36341094970703 45.86363983154297 59.00931930541992 45.86363983154297 62.2729606628418 C 45.86363983154297 62.29999923706055 45.86182022094727 62.32659149169922 45.86159133911133 62.35340881347656 C 46.15773010253906 62.30158996582031 46.46181869506836 62.27272796630859 46.77273178100586 62.27272796630859 C 47.22364044189453 62.27272796630859 47.66159057617188 62.32999801635742 48.0790901184082 62.43727111816406 C 50.33409118652344 63.01726913452148 52 65.06387329101562 52 67.49977111816406 L 52 67.5 C 52 70.02613830566406 50.20817947387695 72.13363647460938 47.82637023925781 72.62113952636719 C 47.74135971069336 72.63841247558594 47.65546035766602 72.65386962890625 47.56887054443359 72.66705322265625 C 47.43590927124023 72.68727111816406 47.30067825317383 72.70114135742188 47.16477966308594 72.71114349365234 L 47.16477966308594 72.71932220458984 L 47.16477966308594 72.71954345703125 L 47.05455017089844 72.71954345703125 C 47.05022811889648 72.71977233886719 47.04613876342773 72.72023010253906 47.04182052612305 72.720458984375 C 46.95249938964844 72.72500610351562 46.86296081542969 72.72727966308594 46.77273178100586 72.72727966308594 Z" stroke="none" fill="#c9c9c9"/>
    </g>
  </g>
</svg>
