<svg xmlns="http://www.w3.org/2000/svg" width="40" height="40" viewBox="0 0 40 40">
  <g id="_4" data-name="4" transform="translate(-8286 253)">
    <path id="Caminho_7420" data-name="Caminho 7420" d="M-330.827-204.288a1.1,1.1,0,0,1-1.178,1h0a1.1,1.1,0,0,1-1.177-1V-207A1.1,1.1,0,0,1-332-208h0a1.1,1.1,0,0,1,1.178,1Z" transform="translate(8640.731 -45)" fill="#fecb2f"/>
    <path id="Caminho_7421" data-name="Caminho 7421" d="M-288.69-183.594a1.1,1.1,0,0,1-1.539-.127h0a1.1,1.1,0,0,1-.127-1.539l1.919-1.919a1.1,1.1,0,0,1,1.539.126h0a1.1,1.1,0,0,1,.126,1.539Z" transform="translate(8607.838 -60.889)" fill="#fecb2f"/>
    <path id="Caminho_7422" data-name="Caminho 7422" d="M-271.729-134.827a1.1,1.1,0,0,1-1-1.178h0a1.1,1.1,0,0,1,1-1.178h2.714a1.1,1.1,0,0,1,1,1.178h0a1.1,1.1,0,0,1-1,1.178Z" transform="translate(8594.018 -99.723)" fill="#fecb2f"/>
    <path id="Caminho_7423" data-name="Caminho 7423" d="M-290.355-92.689a1.1,1.1,0,0,1,.127-1.539h0a1.1,1.1,0,0,1,1.539-.127l1.919,1.919A1.1,1.1,0,0,1-286.9-90.9h0a1.1,1.1,0,0,1-1.539.126Z" transform="translate(8607.838 -132.617)" fill="#fecb2f"/>
    <path id="Caminho_7424" data-name="Caminho 7424" d="M-383.179-185.513a1.1,1.1,0,0,1,.127-1.539h0a1.1,1.1,0,0,1,1.539-.126l1.919,1.919a1.1,1.1,0,0,1-.127,1.539h0a1.1,1.1,0,0,1-1.539.127Z" transform="translate(8679.566 -60.889)" fill="#fecb2f"/>
    <path id="Caminho_7425" data-name="Caminho 7425" d="M-363.521-180.363a10.993,10.993,0,0,0-10.447,7.577,8.605,8.605,0,0,1,1.356-.108,8.525,8.525,0,0,1,8.252,6.382,8.07,8.07,0,0,1,7.289,6.035,10.971,10.971,0,0,0,4.542-8.9A10.991,10.991,0,0,0-363.521-180.363Z" transform="translate(8672.248 -66.356)" fill="#fecb2f"/>
    <path id="Caminho_7426" data-name="Caminho 7426" d="M-410.183-48.417a.938.938,0,0,1-.909.963h0a.938.938,0,0,1-.909-.963v-2.619a.937.937,0,0,1,.909-.963h0a.937.937,0,0,1,.909.963Z" transform="translate(8701.638 -165.546)" fill="#c9c9c9"/>
    <path id="Caminho_7427" data-name="Caminho 7427" d="M-330.183-48.417a.937.937,0,0,1-.909.963h0a.937.937,0,0,1-.909-.963v-2.619a.937.937,0,0,1,.909-.963h0a.937.937,0,0,1,.909.963Z" transform="translate(8639.819 -165.546)" fill="#c9c9c9"/>
    <path id="Caminho_7428" data-name="Caminho 7428" d="M-356.849-48.417a.938.938,0,0,1-.909.963h0a.937.937,0,0,1-.909-.963v-2.619a.937.937,0,0,1,.909-.963h0a.937.937,0,0,1,.909.963Z" transform="translate(8660.425 -165.546)" fill="#c9c9c9"/>
    <path id="Caminho_7429" data-name="Caminho 7429" d="M-383.516-48.417a.938.938,0,0,1-.909.963h0a.937.937,0,0,1-.909-.963v-2.619a.937.937,0,0,1,.909-.963h0a.937.937,0,0,1,.909.963Z" transform="translate(8681.031 -165.546)" fill="#c9c9c9"/>
    <g id="Caminho_7430" data-name="Caminho 7430" transform="translate(8674.099 -66.357)" fill="#ffe269" stroke-miterlimit="10">
      <path d="M -365.3716430664062 -158.8790588378906 C -371.1566162109375 -158.8790588378906 -375.863037109375 -163.5855712890625 -375.863037109375 -169.3706512451172 C -375.863037109375 -175.1555938720703 -371.1566162109375 -179.8619995117188 -365.3716430664062 -179.8619995117188 C -359.5865478515625 -179.8619995117188 -354.8800659179688 -175.1555938720703 -354.8800659179688 -169.3706512451172 C -354.8800659179688 -166.5681457519531 -355.9713439941406 -163.9334564208984 -357.9529113769531 -161.951904296875 C -359.9344482421875 -159.9703521728516 -362.5691528320312 -158.8790588378906 -365.3716430664062 -158.8790588378906 Z" stroke="none"/>
      <path d="M -365.3716430664062 -179.3619995117188 C -370.8809204101562 -179.3619995117188 -375.363037109375 -174.8798980712891 -375.363037109375 -169.3706512451172 C -375.363037109375 -163.8612670898438 -370.8809204101562 -159.3790588378906 -365.3716430664062 -159.3790588378906 C -359.8622741699219 -159.3790588378906 -355.3800659179688 -163.8612670898438 -355.3800659179688 -169.3706512451172 C -355.3800659179688 -174.8798980712891 -359.8622741699219 -179.3619995117188 -365.3716430664062 -179.3619995117188 M -365.3716430664062 -180.3619995117188 C -359.3009643554688 -180.3619995117188 -354.3800659179688 -175.4410858154297 -354.3800659179688 -169.3706512451172 C -354.3800659179688 -163.2999572753906 -359.3009643554688 -158.3790588378906 -365.3716430664062 -158.3790588378906 C -371.442138671875 -158.3790588378906 -376.363037109375 -163.2999572753906 -376.363037109375 -169.3706512451172 C -376.363037109375 -175.4410858154297 -371.442138671875 -180.3619995117188 -365.3716430664062 -180.3619995117188 Z" stroke="none" fill="#fecb2f"/>
    </g>
    <path id="Caminho_7431" data-name="Caminho 7431" d="M-330.827-204.288a1.1,1.1,0,0,1-1.178,1h0a1.1,1.1,0,0,1-1.177-1V-207A1.1,1.1,0,0,1-332-208h0a1.1,1.1,0,0,1,1.178,1Z" transform="translate(8640.731 -45)" fill="#fecb2f"/>
    <path id="Caminho_7432" data-name="Caminho 7432" d="M-330.827-73.015a1.1,1.1,0,0,1-1.178,1h0a1.1,1.1,0,0,1-1.177-1v-2.714a1.1,1.1,0,0,1,1.177-1h0a1.1,1.1,0,0,1,1.178,1Z" transform="translate(8640.731 -146.438)" fill="#fecb2f"/>
    <path id="Caminho_7433" data-name="Caminho 7433" d="M-288.69-183.594a1.1,1.1,0,0,1-1.539-.126h0a1.1,1.1,0,0,1-.127-1.539l1.919-1.919a1.1,1.1,0,0,1,1.539.127h0a1.1,1.1,0,0,1,.126,1.539Z" transform="translate(8607.838 -60.889)" fill="#fecb2f"/>
    <path id="Caminho_7434" data-name="Caminho 7434" d="M-381.514-90.771a1.1,1.1,0,0,1-1.539-.126h0a1.1,1.1,0,0,1-.127-1.539l1.919-1.919a1.1,1.1,0,0,1,1.539.127h0a1.1,1.1,0,0,1,.127,1.539Z" transform="translate(8679.566 -132.617)" fill="#fecb2f"/>
    <path id="Caminho_7435" data-name="Caminho 7435" d="M-271.729-134.827a1.1,1.1,0,0,1-1-1.178h0a1.1,1.1,0,0,1,1-1.178h2.714a1.1,1.1,0,0,1,1,1.178h0a1.1,1.1,0,0,1-1,1.178Z" transform="translate(8594.018 -99.723)" fill="#fecb2f"/>
    <path id="Caminho_7436" data-name="Caminho 7436" d="M-403-134.827A1.1,1.1,0,0,1-404-136h0a1.1,1.1,0,0,1,1-1.178h2.714a1.1,1.1,0,0,1,1,1.178h0a1.1,1.1,0,0,1-1,1.178Z" transform="translate(8695.454 -99.723)" fill="#fecb2f"/>
    <path id="Caminho_7437" data-name="Caminho 7437" d="M-290.355-92.689a1.1,1.1,0,0,1,.127-1.539h0a1.1,1.1,0,0,1,1.539-.127l1.919,1.919A1.1,1.1,0,0,1-286.9-90.9h0a1.1,1.1,0,0,1-1.539.127Z" transform="translate(8607.838 -132.617)" fill="#fecb2f"/>
    <path id="Caminho_7438" data-name="Caminho 7438" d="M-383.179-185.513a1.1,1.1,0,0,1,.127-1.539h0a1.1,1.1,0,0,1,1.539-.127l1.919,1.919a1.1,1.1,0,0,1-.127,1.539h0a1.1,1.1,0,0,1-1.539.127Z" transform="translate(8679.566 -60.889)" fill="#fecb2f"/>
    <g id="Caminho_7439" data-name="Caminho 7439" transform="translate(8714 -97.545)" fill="#f2f2f2" stroke-miterlimit="10">
      <path d="M -406.6363830566406 -121.4090957641602 L -421.1090393066406 -121.4090957641602 L -421.2337341308594 -121.4104461669922 C -422.9104614257812 -121.4239959716797 -424.4846801757812 -122.087043762207 -425.6663818359375 -123.2774353027344 C -426.8488464355469 -124.4685668945312 -427.5000305175781 -126.048957824707 -427.5000305175781 -127.7275009155273 C -427.5000305175781 -131.2112274169922 -424.6658020019531 -134.0454559326172 -421.1820678710938 -134.0454559326172 C -421.1598815917969 -134.0454559326172 -421.1379089355469 -134.0446166992188 -421.1159057617188 -134.0438842773438 C -421.0958557128906 -134.0431976318359 -421.0757751464844 -134.0425567626953 -421.0555725097656 -134.0421600341797 L -420.6384582519531 -134.033935546875 L -420.5556640625 -134.4428253173828 C -419.9623107910156 -137.3731536865234 -417.3583068847656 -139.5 -414.3638916015625 -139.5 C -411.0143737792969 -139.5 -408.2437438964844 -136.8826293945312 -408.0562744140625 -133.5413208007812 L -408.0257263183594 -132.9964904785156 L -407.4856262207031 -133.0744476318359 C -407.2010498046875 -133.1155395507812 -406.9153442382812 -133.1363677978516 -406.6363830566406 -133.1363677978516 C -403.4031677246094 -133.1363677978516 -400.7727355957031 -130.5060577392578 -400.7727355957031 -127.2729568481445 C -400.7727355957031 -124.0396118164062 -403.4031677246094 -121.4090957641602 -406.6363830566406 -121.4090957641602 Z" stroke="none"/>
      <path d="M -414.3638916015625 -139 C -417.1213684082031 -139 -419.519287109375 -137.0417022705078 -420.0656127929688 -134.3435974121094 L -420.231201171875 -133.5258026123047 L -421.0654296875 -133.542236328125 C -421.0879211425781 -133.5426940917969 -421.1103210449219 -133.5434112548828 -421.1326904296875 -133.5441589355469 C -421.1491088867188 -133.5447082519531 -421.16552734375 -133.5454559326172 -421.1820678710938 -133.5454559326172 C -424.3901062011719 -133.5454559326172 -427.0000305175781 -130.9355316162109 -427.0000305175781 -127.7275085449219 C -427.0000305175781 -126.1818237304688 -426.400390625 -124.7265167236328 -425.3115539550781 -123.6296844482422 C -424.2233276367188 -122.5334777832031 -422.773681640625 -121.9228973388672 -421.2296752929688 -121.9104309082031 L -421.0872192382812 -121.9090881347656 L -406.6363830566406 -121.9090881347656 C -403.6788635253906 -121.9090881347656 -401.2727355957031 -124.3153076171875 -401.2727355957031 -127.27294921875 C -401.2727355957031 -130.2303466796875 -403.6788635253906 -132.6363677978516 -406.6363830566406 -132.6363677978516 C -406.8915100097656 -132.6363677978516 -407.1531982421875 -132.6172637939453 -407.4141845703125 -132.57958984375 L -408.494384765625 -132.4236450195312 L -408.5555114746094 -133.5133056640625 C -408.7281188964844 -136.5899658203125 -411.2794494628906 -139 -414.3638916015625 -139 M -414.3638916015625 -140 C -410.7281799316406 -140 -407.7582092285156 -137.154541015625 -407.5570678710938 -133.5693206787109 C -407.2563781738281 -133.6127319335938 -406.9493408203125 -133.6363677978516 -406.6363830566406 -133.6363677978516 C -403.1216125488281 -133.6363677978516 -400.2727355957031 -130.7872772216797 -400.2727355957031 -127.27294921875 C -400.2727355957031 -123.7581787109375 -403.1216125488281 -120.9090881347656 -406.6363830566406 -120.9090881347656 L -421.2377624511719 -120.9090881347656 L -421.2377624511719 -120.9104614257812 C -424.9773254394531 -120.940673828125 -428.0000305175781 -123.98046875 -428.0000305175781 -127.7275085449219 C -428.0000305175781 -131.4927368164062 -424.9472961425781 -134.5454559326172 -421.1820678710938 -134.5454559326172 C -421.1363830566406 -134.5454559326172 -421.0913696289062 -134.5429534912109 -421.0457153320312 -134.5420532226562 C -420.4152526855469 -137.6556701660156 -417.6634521484375 -140 -414.3638916015625 -140 Z" stroke="none" fill="#c9c9c9"/>
    </g>
  </g>
</svg>
