<svg xmlns="http://www.w3.org/2000/svg" width="40" height="40" viewBox="0 0 40 40">
  <g id="_4n" data-name="4n" transform="translate(428 -12)">
    <g id="Grupo_8609" data-name="Grupo 8609" transform="translate(-424.364 47.455)">
      <path id="Caminho_7305" data-name="Caminho 7305" d="M-410.183,171.583a.937.937,0,0,1-.909.963h0a.937.937,0,0,1-.909-.963v-2.619a.938.938,0,0,1,.909-.963h0a.937.937,0,0,1,.909.963Z" transform="translate(412.001 -168.001)" fill="#c9c9c9"/>
      <path id="Caminho_7306" data-name="Caminho 7306" d="M-330.183,171.582a.938.938,0,0,1-.909.963h0a.937.937,0,0,1-.909-.963v-2.619a.938.938,0,0,1,.909-.963h0a.938.938,0,0,1,.909.964Z" transform="translate(350.183 -168)" fill="#c9c9c9"/>
      <path id="Caminho_7307" data-name="Caminho 7307" d="M-356.849,171.582a.938.938,0,0,1-.909.963h0a.937.937,0,0,1-.909-.963v-2.619a.938.938,0,0,1,.909-.963h0a.938.938,0,0,1,.909.964Z" transform="translate(370.788 -168)" fill="#c9c9c9"/>
      <path id="Caminho_7308" data-name="Caminho 7308" d="M-383.517,171.583a.937.937,0,0,1-.909.963h0a.937.937,0,0,1-.909-.963v-2.619a.938.938,0,0,1,.909-.963h0a.937.937,0,0,1,.909.963Z" transform="translate(391.395 -168.001)" fill="#c9c9c9"/>
    </g>
    <g id="Caminho_7309" data-name="Caminho 7309" transform="translate(-49.455)" fill="#fff" stroke-miterlimit="10">
      <path d="M -350.9931945800781 36.95454025268555 C -354.3338623046875 36.95454025268555 -357.474609375 35.65363311767578 -359.8368225097656 33.29144287109375 C -362.1990661621094 30.92923164367676 -363.5 27.78847122192383 -363.5 24.44773292541504 C -363.5 21.70999145507812 -362.6315612792969 19.1106128692627 -360.9886169433594 16.93062210083008 C -359.5843200683594 15.06729221343994 -357.6566467285156 13.61603164672852 -355.4927673339844 12.77772426605225 C -355.7158813476562 13.75980567932129 -355.8286437988281 14.76476097106934 -355.8286437988281 15.77636241912842 C -355.8286437988281 19.38433265686035 -354.4237365722656 22.77628135681152 -351.8726806640625 25.327392578125 C -349.3216552734375 27.87847137451172 -345.9298706054688 29.28341293334961 -342.3220520019531 29.28341293334961 C -341.310546875 29.28341293334961 -340.3056030273438 29.17060470581055 -339.3231506347656 28.94731903076172 C -340.161376953125 31.11118125915527 -341.6126098632812 33.03884887695312 -343.4759826660156 34.44317245483398 C -345.656005859375 36.08612060546875 -348.2554016113281 36.95454025268555 -350.9931945800781 36.95454025268555 Z" stroke="none"/>
      <path d="M -350.9931945800781 36.45454025268555 C -348.3648681640625 36.45454025268555 -345.8695373535156 35.62094116210938 -343.7769165039062 34.04387283325195 C -342.2352294921875 32.88197326660156 -340.9873657226562 31.34707450866699 -340.1568298339844 29.61568260192871 C -340.8716735839844 29.72723770141602 -341.59521484375 29.78341293334961 -342.3220520019531 29.78341293334961 C -346.0634155273438 29.78341293334961 -349.5807800292969 28.32646179199219 -352.2262573242188 25.68093109130859 C -354.8717041015625 23.03540229797363 -356.3286437988281 19.51788139343262 -356.3286437988281 15.77636241912842 C -356.3286437988281 15.04951763153076 -356.2725219726562 14.32602405548096 -356.1610412597656 13.61139011383057 C -357.8924560546875 14.44198608398438 -359.4274597167969 15.68989372253418 -360.5893249511719 17.2315616607666 C -362.1664123535156 19.32413291931152 -363 21.81944274902344 -363 24.44773292541504 C -363 27.65492248535156 -361.7510681152344 30.67011260986328 -359.4832763671875 32.93789291381836 C -357.2154846191406 35.20563125610352 -354.2003173828125 36.45454025268555 -350.9931945800781 36.45454025268555 M -350.9931945800781 37.45454025268555 C -358.1765747070312 37.45454025268555 -364 31.63136291503906 -364 24.44773292541504 C -364 18.57796287536621 -360.1111450195312 13.61864185333252 -354.77001953125 12.00000190734863 C -355.1320495605469 13.1954517364502 -355.3286437988281 14.46295166015625 -355.3286437988281 15.77636241912842 C -355.3286437988281 22.96023178100586 -349.5054626464844 28.78341293334961 -342.3220520019531 28.78341293334961 C -341.0081787109375 28.78341293334961 -339.7409362792969 28.58659172058105 -338.5454711914062 28.22454261779785 C -340.1638793945312 33.56568145751953 -345.1234130859375 37.45454025268555 -350.9931945800781 37.45454025268555 Z" stroke="none" fill="#c9c9c9"/>
    </g>
    <g id="Caminho_7310" data-name="Caminho 7310" transform="translate(0 -52.545)" fill="#f2f2f2" stroke-miterlimit="10">
      <path d="M -406.6363830566406 98.59091949462891 L -421.1090393066406 98.59091949462891 L -421.2337341308594 98.58956909179688 C -422.9104614257812 98.57601928710938 -424.4846801757812 97.91297912597656 -425.6663818359375 96.72257232666016 C -426.8488464355469 95.53145599365234 -427.5000305175781 93.95104217529297 -427.5000305175781 92.27249908447266 C -427.5000305175781 88.78877258300781 -424.6658020019531 85.95455932617188 -421.1820678710938 85.95455932617188 C -421.1607055664062 85.95455932617188 -421.1395568847656 85.95542907714844 -421.1183471679688 85.95618438720703 C -421.0975036621094 85.95693969726562 -421.07666015625 85.95766448974609 -421.0556640625 85.95808410644531 L -420.6384582519531 85.96640777587891 L -420.5556640625 85.55740356445312 C -419.9623413085938 82.62694549560547 -417.3583068847656 80.49999237060547 -414.3638916015625 80.49999237060547 C -411.0143737792969 80.49999237060547 -408.2437438964844 83.11746215820312 -408.0562744140625 86.45891571044922 L -408.0256652832031 87.00454711914062 L -407.4848937988281 86.92566680908203 C -407.2026977539062 86.88450622558594 -406.9172058105469 86.86363220214844 -406.6363830566406 86.86363220214844 C -403.4031677246094 86.86363220214844 -400.7727355957031 89.49394226074219 -400.7727355957031 92.72704315185547 C -400.7727355957031 95.96039581298828 -403.4031677246094 98.59091949462891 -406.6363830566406 98.59091949462891 Z" stroke="none"/>
      <path d="M -414.3638916015625 80.99999237060547 C -417.1213684082031 80.99999237060547 -419.519287109375 82.95839691162109 -420.0656127929688 85.65662384033203 L -420.231201171875 86.47461700439453 L -421.0656433105469 86.45798492431641 C -421.0892944335938 86.45751953125 -421.1128234863281 86.45671844482422 -421.1363220214844 86.45586395263672 C -421.1515502929688 86.45531463623047 -421.166748046875 86.45455932617188 -421.1820678710938 86.45455932617188 C -424.3901062011719 86.45455932617188 -427.0000305175781 89.06447601318359 -427.0000305175781 92.27249908447266 C -427.0000305175781 93.81818389892578 -426.400390625 95.27348327636719 -425.3115539550781 96.37031555175781 C -424.2233276367188 97.46652221679688 -422.773681640625 98.07710266113281 -421.2296752929688 98.08957672119141 L -421.088134765625 98.09091949462891 L -406.6363830566406 98.09091949462891 C -403.6788635253906 98.09091949462891 -401.2727355957031 95.6846923828125 -401.2727355957031 92.72704315185547 C -401.2727355957031 89.7696533203125 -403.6788635253906 87.36363220214844 -406.6363830566406 87.36363220214844 C -406.8931579589844 87.36363220214844 -407.1543579101562 87.38274383544922 -407.4127197265625 87.42043304443359 L -408.4942932128906 87.57819366455078 L -408.5555114746094 86.48691558837891 C -408.7281188964844 83.41013336181641 -411.2794494628906 80.99999237060547 -414.3638916015625 80.99999237060547 M -414.3638916015625 79.99999237060547 C -410.7281799316406 79.99999237060547 -407.7582092285156 82.84568786621094 -407.5570678710938 86.430908203125 C -407.2563781738281 86.38704681396484 -406.9493408203125 86.36363220214844 -406.6363830566406 86.36363220214844 C -403.1216125488281 86.36363220214844 -400.2727355957031 89.21272277832031 -400.2727355957031 92.72704315185547 C -400.2727355957031 96.24182891845703 -403.1216125488281 99.09091949462891 -406.6363830566406 99.09091949462891 L -421.2377624511719 99.09091949462891 L -421.2377624511719 99.08954620361328 C -424.9773254394531 99.059326171875 -428.0000305175781 96.01955413818359 -428.0000305175781 92.27249908447266 C -428.0000305175781 88.50727844238281 -424.9472961425781 85.45455932617188 -421.1820678710938 85.45455932617188 C -421.1363830566406 85.45455932617188 -421.0913696289062 85.457275390625 -421.0457153320312 85.45818328857422 C -420.4152526855469 82.34432220458984 -417.6634521484375 79.99999237060547 -414.3638916015625 79.99999237060547 Z" stroke="none" fill="#c9c9c9"/>
    </g>
  </g>
</svg>
