<svg xmlns="http://www.w3.org/2000/svg" width="40" height="40" viewBox="0 0 40 40">
  <g id="_4r" data-name="4r" transform="translate(208 208)">
    <g id="Grupo_8619" data-name="Grupo 8619" transform="translate(-199.818 -208)">
      <g id="Caminho_7404" data-name="Caminho 7404" transform="translate(152.329 188.329)" fill="#ffe269" stroke-miterlimit="10">
        <path d="M -136.4205780029297 -162.7959594726562 C -141.7269592285156 -162.7959594726562 -146.0440063476562 -167.1130981445312 -146.0440063476562 -172.4196014404297 C -146.0440063476562 -177.7259674072266 -141.7269592285156 -182.0430145263672 -136.4205780029297 -182.0430145263672 C -131.1141052246094 -182.0430145263672 -126.7969741821289 -177.7259674072266 -126.7969741821289 -172.4196014404297 C -126.7969741821289 -167.1130981445312 -131.1141052246094 -162.7959594726562 -136.4205780029297 -162.7959594726562 Z" stroke="none"/>
        <path d="M -136.4205780029297 -181.5430145263672 C -141.4512634277344 -181.5430145263672 -145.5440063476562 -177.4502716064453 -145.5440063476562 -172.4196014404297 C -145.5440063476562 -167.3888092041016 -141.4512634277344 -163.2959594726562 -136.4205780029297 -163.2959594726562 C -131.3898010253906 -163.2959594726562 -127.2969665527344 -167.3888092041016 -127.2969665527344 -172.4196014404297 C -127.2969665527344 -177.4502716064453 -131.3898010253906 -181.5430145263672 -136.4205780029297 -181.5430145263672 M -136.4205780029297 -182.5430145263672 C -130.8292236328125 -182.5430145263672 -126.2969665527344 -178.0107421875 -126.2969665527344 -172.4196014404297 C -126.2969665527344 -166.8282470703125 -130.8292236328125 -162.2959594726562 -136.4205780029297 -162.2959594726562 C -142.01171875 -162.2959594726562 -146.5440063476562 -166.8282470703125 -146.5440063476562 -172.4196014404297 C -146.5440063476562 -178.0107421875 -142.01171875 -182.5430145263672 -136.4205780029297 -182.5430145263672 Z" stroke="none" fill="#fecb2f"/>
      </g>
      <path id="Caminho_7405" data-name="Caminho 7405" d="M-104.6-204.581a1.013,1.013,0,0,1-1.085.92h0a1.013,1.013,0,0,1-1.085-.92v-2.5a1.013,1.013,0,0,1,1.085-.92h0a1.012,1.012,0,0,1,1.085.92Z" transform="translate(121.597 208)" fill="#fecb2f"/>
      <path id="Caminho_7406" data-name="Caminho 7406" d="M-104.6-83.673a1.013,1.013,0,0,1-1.085.92h0a1.013,1.013,0,0,1-1.085-.92v-2.5a1.013,1.013,0,0,1,1.085-.92h0a1.013,1.013,0,0,1,1.085.92Z" transform="translate(121.597 114.571)" fill="#fecb2f"/>
      <path id="Caminho_7407" data-name="Caminho 7407" d="M-65.793-185.521a1.014,1.014,0,0,1-1.418-.116h0a1.014,1.014,0,0,1-.116-1.418l1.767-1.767a1.012,1.012,0,0,1,1.417.116h0a1.012,1.012,0,0,1,.116,1.418Z" transform="translate(91.301 193.365)" fill="#fecb2f"/>
      <path id="Caminho_7408" data-name="Caminho 7408" d="M-151.289-100.025a1.012,1.012,0,0,1-1.418-.116h0a1.012,1.012,0,0,1-.116-1.418l1.767-1.767a1.013,1.013,0,0,1,1.417.116h0a1.013,1.013,0,0,1,.116,1.417Z" transform="translate(157.366 127.3)" fill="#fecb2f"/>
      <path id="Caminho_7409" data-name="Caminho 7409" d="M-50.173-140.6a1.013,1.013,0,0,1-.92-1.085h0a1.013,1.013,0,0,1,.92-1.084h2.5a1.013,1.013,0,0,1,.92,1.085h0a1.013,1.013,0,0,1-.92,1.085Z" transform="translate(78.572 157.597)" fill="#fecb2f"/>
      <path id="Caminho_7410" data-name="Caminho 7410" d="M-171.08-140.6a1.013,1.013,0,0,1-.92-1.085h0a1.013,1.013,0,0,1,.92-1.085h2.5a1.013,1.013,0,0,1,.92,1.084h0a1.013,1.013,0,0,1-.92,1.085Z" transform="translate(172 157.597)" fill="#fecb2f"/>
      <path id="Caminho_7411" data-name="Caminho 7411" d="M-67.326-101.792a1.013,1.013,0,0,1,.116-1.418h0a1.014,1.014,0,0,1,1.418-.116l1.767,1.767a1.013,1.013,0,0,1-.116,1.418h0a1.012,1.012,0,0,1-1.418.116Z" transform="translate(91.3 127.299)" fill="#fecb2f"/>
      <path id="Caminho_7412" data-name="Caminho 7412" d="M-152.822-187.288a1.012,1.012,0,0,1,.116-1.418h0a1.013,1.013,0,0,1,1.418-.116l1.767,1.767a1.014,1.014,0,0,1-.116,1.418h0a1.014,1.014,0,0,1-1.417.116Z" transform="translate(157.366 193.365)" fill="#fecb2f"/>
    </g>
    <g id="Grupo_8620" data-name="Grupo 8620" transform="translate(-202.59 -171.725)">
      <path id="Caminho_7413" data-name="Caminho 7413" d="M-182.05-48.1l-1.852,1.852a.938.938,0,0,0-.038,1.324.938.938,0,0,0,1.324-.038l1.852-1.852a.938.938,0,0,0,.038-1.324A.938.938,0,0,0-182.05-48.1Z" transform="translate(184.195 48.39)" fill="#c9c9c9"/>
      <path id="Caminho_7414" data-name="Caminho 7414" d="M-98.049-48.1-99.9-46.244a.938.938,0,0,0-.038,1.324.938.938,0,0,0,1.324-.038l1.852-1.852a.937.937,0,0,0,.039-1.324A.938.938,0,0,0-98.049-48.1Z" transform="translate(119.286 48.39)" fill="#c9c9c9"/>
      <path id="Caminho_7415" data-name="Caminho 7415" d="M-126.05-48.1l-1.852,1.852a.938.938,0,0,0-.038,1.324.938.938,0,0,0,1.324-.038l1.852-1.852a.938.938,0,0,0,.038-1.324A.938.938,0,0,0-126.05-48.1Z" transform="translate(140.922 48.39)" fill="#c9c9c9"/>
      <path id="Caminho_7416" data-name="Caminho 7416" d="M-154.05-48.1l-1.852,1.852a.938.938,0,0,0-.038,1.324.938.938,0,0,0,1.324-.038l1.852-1.852a.938.938,0,0,0,.038-1.324A.938.938,0,0,0-154.05-48.1Z" transform="translate(162.559 48.39)" fill="#c9c9c9"/>
      <path id="Caminho_7417" data-name="Caminho 7417" d="M-68.725-48.134a.938.938,0,0,0-1.324.038L-71.9-46.244a.938.938,0,0,0-.038,1.324.938.938,0,0,0,1.324-.038l1.852-1.852A.937.937,0,0,0-68.725-48.134Z" transform="translate(97.65 48.39)" fill="#c9c9c9"/>
    </g>
    <g id="Caminho_7418" data-name="Caminho 7418" transform="translate(0 -40.182)" fill="#f2f2f2" stroke-miterlimit="10">
      <path d="M -173.2272796630859 -133.7727355957031 L -173.2274932861328 -133.7727355957031 C -173.309814453125 -133.7727355957031 -173.3955535888672 -133.7751007080078 -173.4823455810547 -133.7797393798828 L -173.4957122802734 -133.7804565429688 L -173.5090942382812 -133.7804565429688 L -182.2384185791016 -133.7804565429688 L -182.2484436035156 -133.7804565429688 L -182.2584533691406 -133.7800598144531 C -182.350830078125 -133.7763519287109 -182.4490966796875 -133.7727355957031 -182.5454559326172 -133.7727355957031 L -189.3352355957031 -133.7727355957031 L -199.8181915283203 -133.7727355957031 C -204.0540466308594 -133.7727355957031 -207.5 -137.2188720703125 -207.5 -141.4547729492188 C -207.5 -141.5826568603516 -207.4966888427734 -141.7146911621094 -207.4901580810547 -141.8472137451172 C -207.4890594482422 -141.8686065673828 -207.4871063232422 -141.8907012939453 -207.4852447509766 -141.9128112792969 C -207.4832458496094 -141.9364013671875 -207.4812927246094 -141.9599761962891 -207.4797210693359 -141.9837036132812 L -207.4761505126953 -142.0365295410156 C -207.4715423583984 -142.1056213378906 -207.4671630859375 -142.1708679199219 -207.4609069824219 -142.233154296875 C -207.4577331542969 -142.2644195556641 -207.4535217285156 -142.2957000732422 -207.4493865966797 -142.3269653320312 C -207.4463348388672 -142.3499450683594 -207.4432983398438 -142.3729095458984 -207.4405059814453 -142.3959503173828 L -207.4328460693359 -142.4594116210938 C -207.4266967773438 -142.5111846923828 -207.4205932617188 -142.5630340576172 -207.4128875732422 -142.6141967773438 C -207.4076232910156 -142.6489562988281 -207.4012603759766 -142.6831817626953 -207.3949584960938 -142.7174530029297 C -207.3907012939453 -142.7406311035156 -207.3864440917969 -142.7638092041016 -207.3824005126953 -142.7870788574219 L -207.3723754882812 -142.8456726074219 C -207.3643035888672 -142.8930969238281 -207.3563537597656 -142.9405212402344 -207.3467407226562 -142.9874725341797 C -207.3383026123047 -143.0291748046875 -207.3287963867188 -143.0692443847656 -207.3193664550781 -143.1092529296875 L -207.3061370849609 -143.1658477783203 L -207.2935180664062 -143.2223510742188 C -207.2834930419922 -143.2675628662109 -207.2735443115234 -143.3127288818359 -207.2622833251953 -143.3573150634766 C -207.2527160644531 -143.3946533203125 -207.2415924072266 -143.4331359863281 -207.2305450439453 -143.4716644287109 C -207.2239379882812 -143.4947204589844 -207.2173309326172 -143.5177764892578 -207.2108764648438 -143.5409240722656 L -207.1936340332031 -143.6029510498047 C -207.18310546875 -143.6411437988281 -207.1726226806641 -143.6793823242188 -207.1610565185547 -143.7171325683594 C -207.14697265625 -143.7627105712891 -207.1311950683594 -143.8087310791016 -207.1154327392578 -143.8549194335938 L -207.0983428955078 -143.9052429199219 L -207.0785675048828 -143.9647369384766 C -207.067138671875 -143.9994049072266 -207.0557861328125 -144.0341186523438 -207.0433197021484 -144.0683441162109 C -207.0250854492188 -144.1188049316406 -207.0057373046875 -144.1675109863281 -206.9864654541016 -144.2162933349609 L -206.9677581787109 -144.2637023925781 L -206.9467468261719 -144.3177642822266 C -206.9344024658203 -144.3497467041016 -206.9220886230469 -144.3818054199219 -206.9089050292969 -144.4133605957031 C -206.8862762451172 -144.4673767089844 -206.8620452880859 -144.5207214355469 -206.8378295898438 -144.5741424560547 L -206.8211212158203 -144.611083984375 L -206.7989959716797 -144.6606140136719 C -206.7860565185547 -144.6897735595703 -206.7732086181641 -144.7189331054688 -206.7593841552734 -144.7476806640625 C -206.7309265136719 -144.8077850341797 -206.7010040283203 -144.8660736083984 -206.6693420410156 -144.9277648925781 L -206.6580352783203 -144.9498138427734 L -206.6330261230469 -144.9990844726562 C -206.6198425292969 -145.0252075195312 -206.6067047119141 -145.0513610839844 -206.5929870605469 -145.0770721435547 C -206.5596466064453 -145.1390838623047 -206.5231781005859 -145.2025451660156 -206.4845581054688 -145.2697448730469 L -206.4791870117188 -145.2790832519531 L -206.4537048339844 -145.3237152099609 C -206.4407196044922 -145.3465728759766 -206.4278106689453 -145.3694305419922 -206.4142456054688 -145.391845703125 C -206.3734893798828 -145.4600677490234 -206.3318634033203 -145.5252227783203 -206.2854614257812 -145.5974731445312 L -206.2640228271484 -145.6312255859375 C -206.2494201660156 -145.6543121337891 -206.2349090576172 -145.6773529052734 -206.2197265625 -145.7000427246094 C -206.1731262207031 -145.7703704833984 -206.1233367919922 -145.8405609130859 -206.0762023925781 -145.9065704345703 L -206.0564727783203 -145.9346313476562 C -206.0416564941406 -145.9557342529297 -206.02685546875 -145.9769134521484 -206.0115661621094 -145.9976196289062 C -205.9577789306641 -146.0709381103516 -205.9014129638672 -146.1430206298828 -205.8532562255859 -146.2040405273438 L -205.8276672363281 -146.2367706298828 C -205.8148803710938 -146.2532348632812 -205.8021240234375 -146.2696533203125 -205.7891082763672 -146.2858123779297 C -205.7305755615234 -146.3580322265625 -205.6686248779297 -146.4300537109375 -205.6158447265625 -146.4908599853516 L -205.5906829833984 -146.5200347900391 C -205.5796051025391 -146.5329437255859 -205.5685424804688 -146.5458831787109 -205.5571594238281 -146.55859375 C -205.5029144287109 -146.6195983886719 -205.4427032470703 -146.6845397949219 -205.3661804199219 -146.7646331787109 L -205.3440704345703 -146.7879028320312 C -205.3333129882812 -146.7992553710938 -205.3226318359375 -146.8106231689453 -205.3116760253906 -146.8217010498047 C -205.2471160888672 -146.8876953125 -205.1801300048828 -146.9533233642578 -205.1050567626953 -147.0242462158203 L -205.1031036376953 -147.0260925292969 L -205.1011810302734 -147.0279541015625 L -205.0909423828125 -147.0378265380859 C -205.0782775878906 -147.0500793457031 -205.0657043457031 -147.0623016357422 -205.0528106689453 -147.0742340087891 C -204.9862060546875 -147.1365356445312 -204.9160461425781 -147.1991729736328 -204.8301544189453 -147.2731323242188 C -204.8117828369141 -147.2892150878906 -204.7967681884766 -147.3024139404297 -204.7817687988281 -147.315185546875 C -204.7079010009766 -147.3777465820312 -204.6300048828125 -147.4409942626953 -204.5448303222656 -147.5074615478516 L -204.5424652099609 -147.5093231201172 L -204.5401000976562 -147.5112152099609 C -204.5266571044922 -147.52197265625 -204.5130004882812 -147.53271484375 -204.4995422363281 -147.5432586669922 C -204.4227447509766 -147.6023712158203 -204.3394927978516 -147.6636962890625 -204.2483825683594 -147.7281188964844 L -204.2390747070312 -147.7347412109375 L -204.2125854492188 -147.7535705566406 C -204.1268157958984 -147.8134765625 -204.035888671875 -147.8741912841797 -203.9420166015625 -147.9342041015625 L -203.9105224609375 -147.9544067382812 C -203.821533203125 -148.0104522705078 -203.7284698486328 -148.0663604736328 -203.6260833740234 -148.1252746582031 L -203.6169738769531 -148.1304168701172 L -203.6043090820312 -148.1375579833984 C -203.5046844482422 -148.194091796875 -203.4040985107422 -148.2482147216797 -203.3019866943359 -148.3003540039062 L -203.2823791503906 -148.3102416992188 C -203.1817169189453 -148.361328125 -203.0765838623047 -148.4115600585938 -202.968994140625 -148.4600067138672 L -202.9581756591797 -148.4649505615234 L -202.9494934082031 -148.4689331054688 C -202.8458557128906 -148.5152740478516 -202.7363586425781 -148.5612335205078 -202.6283416748047 -148.6036071777344 L -202.6164855957031 -148.6082611083984 C -202.5085754394531 -148.6506500244141 -202.3949432373047 -148.6920928955078 -202.2788238525391 -148.7314605712891 L -202.2744598388672 -148.7328948974609 C -202.1541137695312 -148.7733154296875 -202.0368347167969 -148.8096923828125 -201.9239959716797 -148.8416595458984 L -201.921875 -148.8422546386719 L -201.9158935546875 -148.8440093994141 C -201.8071594238281 -148.8748931884766 -201.6895599365234 -148.9053192138672 -201.5696868896484 -148.9334716796875 L -201.5608062744141 -148.9354705810547 C -201.43310546875 -148.9648590087891 -201.3129425048828 -148.9895935058594 -201.1934204101562 -149.0110626220703 L -201.1325836181641 -149.0219879150391 C -200.7815093994141 -149.0824432373047 -200.4215240478516 -149.1187591552734 -200.0614166259766 -149.1300048828125 L -199.6695556640625 -149.1300048828125 L -199.5812072753906 -149.5196990966797 C -199.4383392333984 -150.1512603759766 -199.2153015136719 -150.7629547119141 -198.9182891845703 -151.3377532958984 L -198.915771484375 -151.3425140380859 C -198.8680572509766 -151.4346923828125 -198.8184051513672 -151.5259399414062 -198.7668304443359 -151.6163482666016 L -198.7659454345703 -151.6179046630859 L -198.7640075683594 -151.6213684082031 L -198.7614440917969 -151.6259002685547 L -198.7589263916016 -151.6301116943359 L -198.7575988769531 -151.6324615478516 C -198.4969940185547 -152.0870666503906 -198.1895599365234 -152.5155639648438 -197.8438262939453 -152.9060516357422 L -197.8349456787109 -152.9161834716797 C -197.7689666748047 -152.9907531738281 -197.7017669677734 -153.0620727539062 -197.6503143310547 -153.1162109375 L -197.6246337890625 -153.1431121826172 L -197.5993499755859 -153.1695709228516 C -197.5447998046875 -153.2257232666016 -197.4874267578125 -153.2828216552734 -197.4252471923828 -153.3427886962891 L -197.4185180664062 -153.3492431640625 L -197.3572540283203 -153.4078826904297 C -197.3073272705078 -153.4547119140625 -197.2453765869141 -153.5123443603516 -197.1833343505859 -153.5670623779297 C -197.1667022705078 -153.5818023681641 -197.15087890625 -153.595458984375 -197.1350402832031 -153.609130859375 L -197.1079254150391 -153.6326141357422 C -197.0472259521484 -153.6849212646484 -196.9863891601562 -153.7370910644531 -196.9266967773438 -153.7854919433594 C -196.9158477783203 -153.7943572998047 -196.9063262939453 -153.8016510009766 -196.8968505859375 -153.8089752197266 C -196.8846740722656 -153.8183898925781 -196.8725128173828 -153.8278198242188 -196.8605499267578 -153.8373718261719 C -196.6614227294922 -153.9955902099609 -196.4501342773438 -154.1466827392578 -196.2336730957031 -154.2855224609375 L -196.1913604736328 -154.3129272460938 C -196.1674041748047 -154.3284912109375 -196.1435241699219 -154.3440704345703 -196.1193542480469 -154.3589935302734 C -196.0657958984375 -154.3920135498047 -196.0110473632812 -154.4237823486328 -195.9565124511719 -154.4553833007812 C -195.9083557128906 -154.483642578125 -195.8623046875 -154.5103302001953 -195.8160247802734 -154.5363922119141 C -195.7657165527344 -154.5642700195312 -195.7119293212891 -154.5928649902344 -195.6581420898438 -154.6212615966797 C -195.6086578369141 -154.6472625732422 -195.5580444335938 -154.6730804443359 -195.5070190429688 -154.698486328125 C -195.4547424316406 -154.7246551513672 -195.4030914306641 -154.7498321533203 -195.3512268066406 -154.7741851806641 C -195.2957153320312 -154.8003234863281 -195.2406616210938 -154.8248596191406 -195.1852111816406 -154.8491973876953 L -195.1474151611328 -154.8658905029297 C -195.1099548339844 -154.8824615478516 -195.0725250244141 -154.8990783691406 -195.0347137451172 -154.9147796630859 C -194.9777069091797 -154.9383544921875 -194.9196319580078 -154.9607086181641 -194.8615264892578 -154.9831237792969 L -194.8403625488281 -154.9912872314453 L -194.790283203125 -155.0107574462891 C -194.7635650634766 -155.0212249755859 -194.7368774414062 -155.0317230224609 -194.7098999023438 -155.04150390625 C -194.6004333496094 -155.0813293457031 -194.4914245605469 -155.1181945800781 -194.38525390625 -155.1512908935547 C -194.3703155517578 -155.1560211181641 -194.3574371337891 -155.1595611572266 -194.3446044921875 -155.1631774902344 C -194.3277130126953 -155.1679229736328 -194.3108825683594 -155.1727142333984 -194.2941284179688 -155.1777801513672 C -194.2200164794922 -155.1998748779297 -194.1306304931641 -155.2261047363281 -194.0431365966797 -155.2489624023438 C -194.0147552490234 -155.2564849853516 -193.98779296875 -155.2628173828125 -193.9608612060547 -155.2691955566406 L -193.9113464355469 -155.2810516357422 C -193.8262329101562 -155.3018798828125 -193.7571411132812 -155.3178558349609 -193.6934356689453 -155.3314514160156 C -193.6475372314453 -155.3411712646484 -193.6008758544922 -155.3501586914062 -193.55419921875 -155.3591613769531 C -193.4800262451172 -155.3733215332031 -193.4078826904297 -155.3862457275391 -193.3350830078125 -155.3983154296875 C -193.2890167236328 -155.4056549072266 -193.2401733398438 -155.4132537841797 -193.1908874511719 -155.42041015625 C -193.1251831054688 -155.4299011230469 -193.0527801513672 -155.4390563964844 -192.9698333740234 -155.4483337402344 L -192.9408721923828 -155.4516754150391 C -192.9028472900391 -155.4560546875 -192.8646850585938 -155.4604644775391 -192.8263854980469 -155.4642944335938 C -192.7590942382812 -155.4706115722656 -192.6830749511719 -155.4763336181641 -192.5828857421875 -155.4825592041016 L -192.5316772460938 -155.486083984375 C -192.508544921875 -155.4877319335938 -192.4853973388672 -155.4894409179688 -192.4620819091797 -155.4905548095703 C -192.3269653320312 -155.4969024658203 -192.2055969238281 -155.5 -192.0911407470703 -155.5 C -191.9761657714844 -155.5 -191.8541564941406 -155.4969024658203 -191.7181701660156 -155.4905395507812 C -191.6954650878906 -155.4894714355469 -191.6729583740234 -155.4877624511719 -191.6504974365234 -155.4861145019531 C -191.6327514648438 -155.4848022460938 -191.6150207519531 -155.4835052490234 -191.5973052978516 -155.4823608398438 C -191.5280151367188 -155.4780883789062 -191.4383239746094 -155.4721527099609 -191.3505249023438 -155.4636840820312 C -191.3158874511719 -155.4603729248047 -191.2820281982422 -155.4564361572266 -191.2481079101562 -155.4525146484375 L -191.2082214355469 -155.4479522705078 C -191.1211547851562 -155.4379425048828 -191.0501861572266 -155.4289245605469 -190.9857635498047 -155.4196472167969 C -190.9373016357422 -155.4126281738281 -190.888427734375 -155.4049072265625 -190.8397674560547 -155.39697265625 C -190.768310546875 -155.3851318359375 -190.6959991455078 -155.3722381591797 -190.6239471435547 -155.3584442138672 C -190.5770416259766 -155.3492889404297 -190.5284118652344 -155.3397369384766 -190.4797668457031 -155.3295288085938 C -190.4092254638672 -155.3143920898438 -190.3372039794922 -155.2974853515625 -190.2654113769531 -155.2799530029297 L -190.2123870849609 -155.2670745849609 C -190.1853485107422 -155.2605743408203 -190.1583404541016 -155.2541198730469 -190.131591796875 -155.2470550537109 C -190.0492706298828 -155.2252807617188 -189.9674987792969 -155.2012634277344 -189.8983917236328 -155.1806488037109 C -189.8803253173828 -155.1752777099609 -189.8628234863281 -155.1702728271484 -189.8453369140625 -155.165283203125 C -189.8254852294922 -155.1595916748047 -189.8056182861328 -155.1539611816406 -189.7859802246094 -155.1478729248047 C -189.6667633056641 -155.1102447509766 -189.5576019287109 -155.0732879638672 -189.4546813964844 -155.03564453125 C -189.4459381103516 -155.032470703125 -189.4411468505859 -155.0304412841797 -189.4363098144531 -155.0285034179688 C -189.4231872558594 -155.0232238769531 -189.4100494384766 -155.0180053710938 -189.396728515625 -155.0130615234375 C -189.2919921875 -154.9738159179688 -189.2059936523438 -154.93994140625 -189.1274871826172 -154.9069671630859 C -189.1014556884766 -154.8960571289062 -189.0762939453125 -154.8847808837891 -189.0511016845703 -154.8735504150391 L -189.0061645507812 -154.8536071777344 C -188.9387054443359 -154.823974609375 -188.87158203125 -154.7939758300781 -188.8050842285156 -154.7626647949219 C -188.7682037353516 -154.7451934814453 -188.7310333251953 -154.7266387939453 -188.6936798095703 -154.7080078125 L -188.6737213134766 -154.6980743408203 C -188.6124267578125 -154.6676483154297 -188.5520935058594 -154.6368255615234 -188.4922027587891 -154.6051940917969 C -188.4484100341797 -154.5818328857422 -188.4031219482422 -154.5569305419922 -188.3580169677734 -154.5318145751953 C -188.3011474609375 -154.5001678466797 -188.244873046875 -154.4678039550781 -188.1890258789062 -154.4345703125 C -188.1420593261719 -154.4067230224609 -188.0980377197266 -154.3806304931641 -188.0544738769531 -154.3536834716797 C -187.9984283447266 -154.3190307617188 -187.9437408447266 -154.283447265625 -187.8887939453125 -154.2474517822266 L -187.8567352294922 -154.2265167236328 C -187.8244476318359 -154.2054748535156 -187.7923126220703 -154.1845550537109 -187.7604522705078 -154.1628875732422 C -187.7052459716797 -154.1249084472656 -187.6486663818359 -154.0838623046875 -187.5920715332031 -154.0428619384766 L -187.5472564697266 -154.0108184814453 C -187.5240936279297 -153.9943542480469 -187.5009613037109 -153.9779663085938 -187.4782867431641 -153.9609222412109 C -187.3887023925781 -153.8934936523438 -187.3002471923828 -153.8239288330078 -187.2157745361328 -153.7545471191406 C -187.1948547363281 -153.7374572753906 -187.175537109375 -153.7205810546875 -187.1561737060547 -153.7037506103516 C -187.1404876708984 -153.6901397705078 -187.1248168945312 -153.6765441894531 -187.1089935302734 -153.6631164550781 L -187.0715942382812 -153.6310729980469 C -187.0326690673828 -153.5977630615234 -186.9937133789062 -153.5645141601562 -186.9556579589844 -153.5301208496094 C -186.92578125 -153.5033416748047 -186.8982543945312 -153.4773101806641 -186.8706665039062 -153.4512786865234 L -186.8330383300781 -153.4158782958984 C -186.7891540527344 -153.3745574951172 -186.7457122802734 -153.3336944580078 -186.7030944824219 -153.2919464111328 C -186.6629333496094 -153.2523803710938 -186.6228942871094 -153.2112274169922 -186.5828247070312 -153.1698913574219 C -186.5424194335938 -153.1283874511719 -186.5030670166016 -153.0873870849609 -186.4643859863281 -153.0457305908203 C -186.4230041503906 -153.0013122558594 -186.3832397460938 -152.9572143554688 -186.3434295654297 -152.9126739501953 C -186.308349609375 -152.8728790283203 -186.271484375 -152.8301239013672 -186.2348022460938 -152.7871551513672 C -186.1972961425781 -152.7428436279297 -186.1583404541016 -152.6966705322266 -186.1204833984375 -152.6498260498047 C -186.0933837890625 -152.6165161132812 -186.0682830810547 -152.5842132568359 -186.0431823730469 -152.5519409179688 L -186.0178833007812 -152.5194702148438 L -185.9978942871094 -152.4936828613281 C -185.9674224853516 -152.4543914794922 -185.9368591308594 -152.4150390625 -185.9073181152344 -152.3750762939453 C -185.8843841552734 -152.343994140625 -185.8620300292969 -152.3119812011719 -185.8395843505859 -152.2799224853516 L -185.81689453125 -152.24755859375 C -185.6803131103516 -152.0547943115234 -185.5513458251953 -151.8532104492188 -185.4326019287109 -151.6470336914062 L -185.4115753173828 -151.6109771728516 C -185.3945465087891 -151.5818481445312 -185.3774261474609 -151.5526733398438 -185.3611602783203 -151.5231170654297 C -185.3303833007812 -151.4674682617188 -185.3018188476562 -151.4119873046875 -185.2730865478516 -151.3563537597656 L -185.2683715820312 -151.3471984863281 L -185.2617340087891 -151.3344421386719 C -185.2411651611328 -151.2948760986328 -185.2206268310547 -151.2554473876953 -185.2008361816406 -151.2154541015625 C -185.1716156005859 -151.1561889648438 -185.1431579589844 -151.0955352783203 -185.1150665283203 -151.0348815917969 C -185.0950622558594 -150.9912719726562 -185.0745086669922 -150.9461212158203 -185.0544281005859 -150.9005279541016 C -185.0279388427734 -150.8400115966797 -185.0016632080078 -150.7783050537109 -184.9762573242188 -150.7159118652344 C -184.9583892822266 -150.6717987060547 -184.9405975341797 -150.6263427734375 -184.9230041503906 -150.5806274414062 C -184.8981475830078 -150.5162658691406 -184.8739318847656 -150.4521789550781 -184.8507537841797 -150.3874359130859 C -184.8397674560547 -150.3566741943359 -184.8294067382812 -150.3252716064453 -184.8190155029297 -150.2939453125 L -184.8059539794922 -150.2546844482422 L -184.7945404052734 -150.2205047607422 C -184.7762908935547 -150.1659240722656 -184.7579650878906 -150.1114044189453 -184.7413635253906 -150.0561218261719 C -184.7338562011719 -150.0318298339844 -184.7282257080078 -150.0113220214844 -184.7225341796875 -149.9908294677734 C -184.7172088623047 -149.9716339111328 -184.7118530273438 -149.9524536132812 -184.7062683105469 -149.9333343505859 C -184.5418701171875 -149.3583831787109 -184.444580078125 -148.7626800537109 -184.4179077148438 -148.1656341552734 L -184.3717346191406 -147.1314239501953 L -183.5903930664062 -147.8105621337891 C -182.6066436767578 -148.6656646728516 -181.3477020263672 -149.1365814208984 -180.0454559326172 -149.1365814208984 C -177.0628814697266 -149.1365814208984 -174.6363677978516 -146.7098693847656 -174.6363677978516 -143.72705078125 C -174.6363677978516 -143.7169952392578 -174.6368103027344 -143.7070617675781 -174.6371612548828 -143.6971282958984 C -174.6376342773438 -143.6831512451172 -174.6381072998047 -143.6691741943359 -174.6383361816406 -143.6551513671875 L -174.6487274169922 -143.049560546875 L -174.0521240234375 -143.1540832519531 C -173.7749176025391 -143.2026519775391 -173.4974670410156 -143.2272796630859 -173.2274932861328 -143.2272796630859 C -172.0740661621094 -143.2272796630859 -170.9627075195312 -142.8063201904297 -170.0979461669922 -142.0419616699219 C -170.0130004882812 -141.9665832519531 -169.9457855224609 -141.9039764404297 -169.8874816894531 -141.8458251953125 L -169.8810577392578 -141.8389739990234 C -169.8727264404297 -141.8300170898438 -169.8643493652344 -141.8211059570312 -169.8557586669922 -141.8123321533203 C -169.1047210693359 -141.0480041503906 -168.6320343017578 -140.0436553955078 -168.5244750976562 -138.9840545654297 C -168.5231628417969 -138.9707489013672 -168.5222473144531 -138.9560699462891 -168.521240234375 -138.9413757324219 C -168.5200347900391 -138.9235534667969 -168.5187835693359 -138.9057312011719 -168.5172576904297 -138.8880004882812 C -168.5057067871094 -138.7461547851562 -168.5 -138.6186218261719 -168.5 -138.5002288818359 C -168.5 -137.2993011474609 -168.9507904052734 -136.1549224853516 -169.7693328857422 -135.2776794433594 C -170.5837860107422 -134.40478515625 -171.6857452392578 -133.8755645751953 -172.8722229003906 -133.7874908447266 L -172.9870758056641 -133.7789764404297 C -173.0690002441406 -133.7748413085938 -173.1497344970703 -133.7727355957031 -173.2272796630859 -133.7727355957031 Z" stroke="none"/>
      <path d="M -173.2272796630859 -134.2727355957031 C -173.159912109375 -134.2727355957031 -173.0896148681641 -134.2745208740234 -173.01806640625 -134.2780456542969 L -172.9092407226562 -134.2861328125 C -171.8485870361328 -134.3648529052734 -170.8632965087891 -134.838134765625 -170.1349029541016 -135.6187744140625 C -169.4030456542969 -136.4031372070312 -169 -137.4263610839844 -169 -138.5002288818359 C -169 -138.6049346923828 -169.0051574707031 -138.7191619873047 -169.0154418945312 -138.8453216552734 C -169.0171966552734 -138.8659210205078 -169.0186767578125 -138.8866271972656 -169.0200805664062 -138.9073333740234 C -169.0207366943359 -138.9169311523438 -169.0212554931641 -138.9265289306641 -169.0219268798828 -138.9335632324219 C -169.1180419921875 -139.8805084228516 -169.5407257080078 -140.7783203125 -170.2126617431641 -141.4621734619141 C -170.2241363525391 -141.4738616943359 -170.2353210449219 -141.4857177734375 -170.2464447021484 -141.4976654052734 C -170.2964477539062 -141.5472259521484 -170.3551788330078 -141.6017608642578 -170.4290771484375 -141.6673431396484 C -171.2023773193359 -142.3508453369141 -172.1961364746094 -142.7272796630859 -173.2274932861328 -142.7272796630859 C -173.4686279296875 -142.7272796630859 -173.7170562744141 -142.7051849365234 -173.9658355712891 -142.6615905761719 L -175.1590270996094 -142.4525451660156 L -175.1382598876953 -143.6637268066406 C -175.1379699707031 -143.6806640625 -175.1374359130859 -143.6975250244141 -175.1368560791016 -143.7144012451172 L -175.1363677978516 -143.72705078125 C -175.1363677978516 -146.4341735839844 -177.3385772705078 -148.6365814208984 -180.0454559326172 -148.6365814208984 C -181.2271575927734 -148.6365814208984 -182.3696136474609 -148.2092132568359 -183.2623748779297 -147.4331970214844 L -184.8250427246094 -146.0749206542969 L -184.9174041748047 -148.1433258056641 C -184.9422760009766 -148.7001342773438 -185.0328979492188 -149.2558288574219 -185.1867523193359 -149.7949676513672 C -185.1927642822266 -149.8155822753906 -185.1985321044922 -149.8362579345703 -185.2042846679688 -149.8569488525391 C -185.2086791992188 -149.8727569580078 -185.2129364013672 -149.8885955810547 -185.2177734375 -149.9042510986328 L -185.2190093994141 -149.9082336425781 L -185.22021484375 -149.9122314453125 C -185.2353363037109 -149.9625701904297 -185.2521057128906 -150.01220703125 -185.2687225341797 -150.0619049072266 L -185.2800903320312 -150.0959320068359 L -185.2936248779297 -150.1366119384766 C -185.3027954101562 -150.1642913818359 -185.3118896484375 -150.1920166015625 -185.321533203125 -150.2189636230469 C -185.3433074951172 -150.2798156738281 -185.3660888671875 -150.3400421142578 -185.3896331787109 -150.4010314941406 C -185.4061737060547 -150.4440307617188 -185.4229125976562 -150.4867858886719 -185.4393157958984 -150.5272827148438 C -185.4631042480469 -150.585693359375 -185.4877014160156 -150.6434631347656 -185.5120239257812 -150.6990203857422 C -185.5310668945312 -150.7422485351562 -185.5505676269531 -150.7850646972656 -185.5687866210938 -150.8247833251953 C -185.5951690673828 -150.8817596435547 -185.6218719482422 -150.938720703125 -185.6489562988281 -150.99365234375 C -185.6672668457031 -151.0306854248047 -185.6863250732422 -151.0671691894531 -185.7053527832031 -151.1037902832031 L -185.712646484375 -151.1177825927734 L -185.7173767089844 -151.1269683837891 C -185.7439270019531 -151.1783905029297 -185.7702484130859 -151.2296752929688 -185.7991333007812 -151.2819061279297 C -185.8133544921875 -151.3077392578125 -185.828369140625 -151.3332061767578 -185.8432464599609 -151.3586578369141 L -185.8658752441406 -151.3974914550781 C -185.9768524169922 -151.5901641845703 -186.0973052978516 -151.7784576416016 -186.225830078125 -151.9598846435547 L -186.2491607666016 -151.9931335449219 C -186.2692260742188 -152.0217742919922 -186.2891540527344 -152.0504302978516 -186.3094177246094 -152.0778961181641 C -186.3366546630859 -152.11474609375 -186.3648986816406 -152.1510162353516 -186.3930053710938 -152.187255859375 L -186.4118957519531 -152.2116394042969 L -186.4378051757812 -152.2449035644531 C -186.4606628417969 -152.2742767333984 -186.4834747314453 -152.3037109375 -186.5093841552734 -152.3355560302734 C -186.5448608398438 -152.3794555664062 -186.5814056396484 -152.4227142333984 -186.6150665283203 -152.4625091552734 C -186.6491241455078 -152.5024108886719 -186.6833648681641 -152.5421295166016 -186.7179870605469 -152.5814361572266 C -186.7549438476562 -152.6227569580078 -186.7918853759766 -152.6637268066406 -186.8308258056641 -152.7055511474609 C -186.8668060302734 -152.7443237304688 -186.9034423828125 -152.7824554443359 -186.9417877197266 -152.8218536376953 C -186.9791870117188 -152.8604125976562 -187.0165252685547 -152.8988647460938 -187.0530242919922 -152.9347991943359 C -187.09326171875 -152.9742279052734 -187.1343231201172 -153.0128021240234 -187.1747131347656 -153.0508422851562 L -187.2137756347656 -153.0875854492188 C -187.2382507324219 -153.1106719970703 -187.2626190185547 -153.1338195800781 -187.2908630371094 -153.1591339111328 C -187.3255615234375 -153.1904754638672 -187.3611297607422 -153.2207489013672 -187.3966369628906 -153.2511291503906 L -187.4348297119141 -153.2838439941406 C -187.4513244628906 -153.2978820800781 -187.4676818847656 -153.3120574951172 -187.4840393066406 -153.3262634277344 C -187.4996032714844 -153.3397827148438 -187.5150909423828 -153.3534393310547 -187.5331420898438 -153.3681793212891 C -187.6121826171875 -153.4331207275391 -187.6950836181641 -153.498291015625 -187.7785949707031 -153.5611724853516 C -187.7977905273438 -153.5755920410156 -187.8174133300781 -153.5894012451172 -187.8370056152344 -153.6033325195312 L -187.8853912353516 -153.637939453125 C -187.9380798339844 -153.6761016845703 -187.99072265625 -153.71435546875 -188.0441589355469 -153.7511596679688 C -188.072509765625 -153.7703857421875 -188.1011047363281 -153.7889709472656 -188.1298065185547 -153.8076782226562 L -188.1628112792969 -153.8292236328125 C -188.2140655517578 -153.86279296875 -188.2650451660156 -153.8960418701172 -188.3175964355469 -153.9285125732422 C -188.3585052490234 -153.9538269042969 -188.3998565673828 -153.9782867431641 -188.4446105957031 -154.0048522949219 C -188.4963226318359 -154.0355987548828 -188.5484161376953 -154.0655670166016 -188.6012725830078 -154.094970703125 C -188.6437377929688 -154.1186218261719 -188.6863708496094 -154.1420745849609 -188.7257537841797 -154.1630859375 C -188.7819213867188 -154.1927642822266 -188.8384857177734 -154.2216491699219 -188.8965148925781 -154.2504577636719 L -188.9167327880859 -154.2605133056641 C -188.9510803222656 -154.2776336669922 -188.9852142333984 -154.2947235107422 -189.0181274414062 -154.3103179931641 C -189.0806427001953 -154.3397521972656 -189.1437530517578 -154.3679504394531 -189.2073364257812 -154.3958587646484 L -189.2548217773438 -154.4169311523438 C -189.2765045166016 -154.4266052246094 -189.2981414794922 -154.4363555908203 -189.3211212158203 -154.4459838867188 C -189.3934631347656 -154.4763641357422 -189.4736633300781 -154.5079498291016 -189.5707397460938 -154.5443115234375 C -189.5882873535156 -154.5508422851562 -189.6056213378906 -154.5576782226562 -189.6229248046875 -154.5646362304688 L -189.6273956298828 -154.5664215087891 C -189.7220306396484 -154.6010131835938 -189.8229370117188 -154.6351776123047 -189.9357299804688 -154.6708221435547 C -189.9512939453125 -154.6756134033203 -189.967041015625 -154.6800384521484 -189.9827575683594 -154.6845245361328 C -190.0018768310547 -154.6899871826172 -190.0209808349609 -154.6954650878906 -190.0413360595703 -154.7015228271484 C -190.1067199707031 -154.7210235595703 -190.1837768554688 -154.7436676025391 -190.2593231201172 -154.7636413574219 C -190.2824859619141 -154.7697601318359 -190.3058929443359 -154.7753143310547 -190.3293151855469 -154.7809448242188 L -190.3839874267578 -154.7942199707031 C -190.4512329101562 -154.8106384277344 -190.5186767578125 -154.8264923095703 -190.5825042724609 -154.8401947021484 C -190.6288604736328 -154.8499298095703 -190.6752166748047 -154.8590087890625 -190.7178649902344 -154.8673553466797 C -190.785888671875 -154.88037109375 -190.8541259765625 -154.8925323486328 -190.9202117919922 -154.9034881591797 C -190.9659423828125 -154.9109344482422 -191.0118865966797 -154.918212890625 -191.0569763183594 -154.9247436523438 C -191.1165771484375 -154.9333190917969 -191.1830444335938 -154.9417724609375 -191.264404296875 -154.9511108398438 L -191.3054962158203 -154.955810546875 C -191.3360748291016 -154.9593505859375 -191.3665924072266 -154.9629516601562 -191.3985443115234 -154.9659881591797 C -191.4787445068359 -154.9737243652344 -191.5628662109375 -154.9792938232422 -191.6291351318359 -154.9833831787109 C -191.6484832763672 -154.984619140625 -191.6678161621094 -154.9860229492188 -191.6871948242188 -154.9874572753906 C -191.7052154541016 -154.9887847900391 -191.7232971191406 -154.990234375 -191.7415466308594 -154.9910736083984 C -191.8696746826172 -154.9970703125 -191.9840240478516 -155 -192.0911407470703 -155 C -192.1976776123047 -155 -192.3113555908203 -154.9970855712891 -192.4384765625 -154.9911041259766 C -192.4577331542969 -154.9902038574219 -192.4768524169922 -154.9887237548828 -192.4959716796875 -154.9873504638672 L -192.5518646240234 -154.9835205078125 C -192.6445922851562 -154.9777679443359 -192.7147216796875 -154.9725189208984 -192.7784423828125 -154.9665985107422 C -192.8136138916016 -154.9630584716797 -192.8486938476562 -154.958984375 -192.8836212158203 -154.9549560546875 L -192.9142150878906 -154.9514465332031 C -192.9917907714844 -154.9427642822266 -193.0589904785156 -154.9342803955078 -193.1190490722656 -154.9255981445312 C -193.1648254394531 -154.9189453125 -193.210205078125 -154.9118957519531 -193.2557678222656 -154.9046325683594 C -193.3237152099609 -154.8933563232422 -193.3910827636719 -154.8812713623047 -193.4594879150391 -154.8682098388672 C -193.5031433105469 -154.8597869873047 -193.5467987060547 -154.8514251708984 -193.5891571044922 -154.8424530029297 C -193.6478424072266 -154.8299255371094 -193.7122955322266 -154.8150024414062 -193.7929229736328 -154.7952728271484 L -193.8455657958984 -154.7826690673828 C -193.8682556152344 -154.7772979736328 -193.8909606933594 -154.7720336914062 -193.9167327880859 -154.7652130126953 C -193.9969024658203 -154.7442626953125 -194.0811462402344 -154.7195281982422 -194.1493988037109 -154.6991729736328 C -194.1691741943359 -154.6931915283203 -194.1890869140625 -154.6875305175781 -194.2090148925781 -154.6819152832031 C -194.2168426513672 -154.6797027587891 -194.2247161865234 -154.6775817871094 -194.2364196777344 -154.6739501953125 C -194.3351898193359 -154.6431579589844 -194.436767578125 -154.6088104248047 -194.5395812988281 -154.5713958740234 C -194.5625457763672 -154.5630798339844 -194.5852355957031 -154.5540771484375 -194.6080017089844 -154.545166015625 L -194.6602630615234 -154.5248413085938 L -194.6815643310547 -154.5166320800781 C -194.7359466552734 -154.4956512451172 -194.790283203125 -154.4747924804688 -194.8430633544922 -154.4529571533203 C -194.8773040771484 -154.4387512207031 -194.9111633300781 -154.4236602783203 -194.945068359375 -154.4086608886719 L -194.9842681884766 -154.3913421630859 C -195.03564453125 -154.3688049316406 -195.0866546630859 -154.3461151123047 -195.1388092041016 -154.3215484619141 C -195.1868591308594 -154.2989959716797 -195.2347259521484 -154.2756500244141 -195.2842712402344 -154.2508544921875 C -195.3320159912109 -154.2270812988281 -195.3793640136719 -154.2029113769531 -195.4246826171875 -154.1791076660156 C -195.4745330810547 -154.1527862548828 -195.5243988037109 -154.1263275146484 -195.5736541748047 -154.0990447998047 C -195.6163635253906 -154.0749664306641 -195.6588439941406 -154.0503234863281 -195.7011413574219 -154.0255126953125 L -195.7034454345703 -154.0241546630859 L -195.7057647705078 -154.0228118896484 C -195.7563934326172 -153.9934539794922 -195.8072662353516 -153.9640045166016 -195.8568725585938 -153.9334106445312 C -195.877685546875 -153.9205932617188 -195.8982086181641 -153.9071350097656 -195.9188232421875 -153.8937225341797 L -195.9636993408203 -153.8646850585938 C -196.1660461425781 -153.7348785400391 -196.3635101318359 -153.5936737060547 -196.5483703613281 -153.4468078613281 C -196.5624237060547 -153.4355773925781 -196.5766906738281 -153.4244995117188 -196.5909881591797 -153.4134368896484 L -196.61181640625 -153.3971099853516 C -196.6661834716797 -153.35302734375 -196.7215270996094 -153.3055419921875 -196.7799224853516 -153.2552337646484 L -196.8082427978516 -153.230712890625 C -196.8224487304688 -153.2184448242188 -196.8366546630859 -153.2062225341797 -196.8526000976562 -153.1920776367188 C -196.9084167480469 -153.1428527832031 -196.9656524658203 -153.0896606445312 -197.0146179199219 -153.0437164306641 L -197.0721740722656 -152.9886322021484 L -197.0781860351562 -152.9828491210938 C -197.1363983154297 -152.9267120361328 -197.1899719238281 -152.8734130859375 -197.2393951416016 -152.8225402832031 L -197.2623596191406 -152.7984924316406 L -197.2879028320312 -152.7717437744141 C -197.3365173339844 -152.7206115722656 -197.3997650146484 -152.6534729003906 -197.4580078125 -152.5876770019531 L -197.4584045410156 -152.5872344970703 L -197.4694671630859 -152.5745849609375 C -197.7926788330078 -152.2095489501953 -198.0801239013672 -151.8089141845703 -198.3238220214844 -151.3838043212891 L -198.3287048339844 -151.3752899169922 L -198.3294219970703 -151.3740844726562 L -198.3308715820312 -151.3715057373047 L -198.33251953125 -151.3686218261719 C -198.3807373046875 -151.2840728759766 -198.4271087646484 -151.1988525390625 -198.4703369140625 -151.1153411865234 L -198.4717254638672 -151.1126708984375 L -198.4731140136719 -151.1100158691406 L -198.4760437011719 -151.1044464111328 C -198.7525939941406 -150.5684356689453 -198.9603271484375 -149.9981842041016 -199.0935211181641 -149.4093780517578 L -199.2700347900391 -148.6300048828125 L -200.0534515380859 -148.6300048828125 C -200.3872680664062 -148.6192169189453 -200.7207641601562 -148.58544921875 -201.0459594726562 -148.529541015625 L -201.1050109863281 -148.5189361572266 C -201.2165069580078 -148.4989013671875 -201.3289031982422 -148.4757690429688 -201.4486541748047 -148.4482116699219 L -201.4595489501953 -148.4457397460938 C -201.5704956054688 -148.4196166992188 -201.6790924072266 -148.3914947509766 -201.7792816162109 -148.3630218505859 L -201.7835083007812 -148.3617706298828 L -201.7877655029297 -148.3605651855469 C -201.8929138183594 -148.3307952880859 -202.0024719238281 -148.2968139648438 -202.1171112060547 -148.25830078125 L -202.1214904785156 -148.2568511962891 C -202.2290496826172 -148.2203369140625 -202.3341217041016 -148.1819915771484 -202.4336242675781 -148.1429138183594 L -202.4457702636719 -148.1381378173828 C -202.5453338623047 -148.0990753173828 -202.6463165283203 -148.0567169189453 -202.7459411621094 -148.01220703125 L -202.7501983642578 -148.01025390625 L -202.7573852539062 -148.0069732666016 L -202.7605285644531 -148.0055236816406 L -202.7636871337891 -148.0041046142578 C -202.8642425537109 -147.9588317871094 -202.9623260498047 -147.9119567871094 -203.0570373535156 -147.8638916015625 L -203.0746154785156 -147.8550415039062 C -203.1702270507812 -147.8062286376953 -203.2642669677734 -147.755615234375 -203.3541564941406 -147.7046051025391 L -203.3575134277344 -147.7026977539062 L -203.3609008789062 -147.7008209228516 L -203.3701324462891 -147.6955871582031 L -203.3797760009766 -147.6901397705078 C -203.4745788574219 -147.6355438232422 -203.5606384277344 -147.5838317871094 -203.6426544189453 -147.5322113037109 L -203.6726837158203 -147.512939453125 C -203.7608337402344 -147.4565887451172 -203.8460235595703 -147.3997192382812 -203.926513671875 -147.3434753417969 L -203.9482727050781 -147.3280181884766 L -203.959716796875 -147.3198699951172 C -204.0436248779297 -147.2605285644531 -204.1202087402344 -147.2041778564453 -204.1936645507812 -147.1477203369141 L -204.2276916503906 -147.1208343505859 L -204.2324066162109 -147.1170501708984 L -204.2371673583984 -147.1133422851562 C -204.3170471191406 -147.0509948730469 -204.3898773193359 -146.9918670654297 -204.4573974609375 -146.9346923828125 C -204.4705963134766 -146.9234313964844 -204.4837951660156 -146.9118194580078 -204.4967956542969 -146.9004058837891 L -204.5003509521484 -146.8972930908203 L -204.5039367675781 -146.8942108154297 C -204.5845031738281 -146.8248443603516 -204.6497650146484 -146.7665863037109 -204.7093353271484 -146.7108612060547 L -204.7112274169922 -146.7090911865234 L -204.7131195068359 -146.7073364257812 C -204.7233581542969 -146.6978607177734 -204.7333221435547 -146.6881103515625 -204.7433776855469 -146.6783905029297 L -204.7539672851562 -146.6681671142578 L -204.7578125 -146.6644439697266 L -204.7617034912109 -146.6607666015625 C -204.8319549560547 -146.5944213867188 -204.8943328857422 -146.5332946777344 -204.9524230957031 -146.4739227294922 L -204.9542388916016 -146.4720611572266 L -204.9560546875 -146.47021484375 C -204.9644927978516 -146.4617004394531 -204.9726715087891 -146.4529266357422 -204.9809265136719 -146.4442138671875 L -205.004638671875 -146.4192504882812 C -205.0769348144531 -146.3435668945312 -205.13330078125 -146.2828063964844 -205.1849975585938 -146.2246856689453 C -205.1939086914062 -146.2147369384766 -205.2025451660156 -146.2045593261719 -205.2112121582031 -146.1944580078125 L -205.2382659912109 -146.1630706787109 C -205.2882995605469 -146.1054534912109 -205.3468170166016 -146.0374450683594 -205.3997955322266 -145.9720611572266 C -205.4110260009766 -145.9581146240234 -205.4220275878906 -145.9439239501953 -205.4330749511719 -145.9297180175781 L -205.4608154296875 -145.8942108154297 C -205.5062561035156 -145.8366394042969 -205.5592346191406 -145.7689208984375 -205.6092681884766 -145.7007141113281 C -205.6221923828125 -145.6831817626953 -205.6346740722656 -145.6652526855469 -205.6472015380859 -145.6473999023438 L -205.6662292480469 -145.6203308105469 L -205.667724609375 -145.6182098388672 L -205.6692352294922 -145.6161041259766 C -205.7156524658203 -145.5510711669922 -205.7606811523438 -145.4876251220703 -205.8042297363281 -145.4218902587891 C -205.8170318603516 -145.4027709960938 -205.8291931152344 -145.3833312988281 -205.8415069580078 -145.3638763427734 L -205.8647918701172 -145.3272094726562 C -205.9087829589844 -145.2587127685547 -205.9481048583984 -145.1972045898438 -205.9835357666016 -145.1378631591797 L -205.9849853515625 -145.1354522705078 L -205.9864501953125 -145.1330261230469 C -205.9976348876953 -145.1145324707031 -206.0082092285156 -145.0956573486328 -206.0189208984375 -145.0768127441406 L -206.045654296875 -145.0299835205078 L -206.0510559082031 -145.0206146240234 C -206.0878448486328 -144.9565734863281 -206.1226043701172 -144.8960876464844 -206.1518859863281 -144.8416290283203 C -206.1638031005859 -144.8193054199219 -206.1751861572266 -144.7965545654297 -206.1866455078125 -144.7738494873047 L -206.2131042480469 -144.7216644287109 L -206.2245178222656 -144.6994323730469 C -206.2543029785156 -144.6414184570312 -206.2824249267578 -144.5866241455078 -206.3061370849609 -144.5365447998047 L -206.3074340820312 -144.5337829589844 L -206.3087615966797 -144.5310211181641 C -206.3203735351562 -144.5068511962891 -206.3311157226562 -144.4823150634766 -206.3419952392578 -144.4577941894531 L -206.3654174804688 -144.4053344726562 L -206.3823852539062 -144.3678131103516 C -206.4046173095703 -144.3187408447266 -206.4269409179688 -144.2698059082031 -206.4475555419922 -144.2205810546875 C -206.4589996337891 -144.1931915283203 -206.4696044921875 -144.1653747558594 -206.4803314208984 -144.1376190185547 L -206.5023345947266 -144.0810241699219 L -206.521484375 -144.032470703125 C -206.5389556884766 -143.98828125 -206.5565338134766 -143.9441680908203 -206.5734558105469 -143.8973693847656 C -206.5841827392578 -143.867919921875 -206.5938720703125 -143.8380126953125 -206.6036987304688 -143.8081817626953 L -206.6246337890625 -143.7452392578125 L -206.6422119140625 -143.6935119628906 C -206.6564025878906 -143.6519317626953 -206.6706695556641 -143.6105041503906 -206.6829833984375 -143.5706329345703 C -206.6931915283203 -143.537353515625 -206.7023468017578 -143.503662109375 -206.7116241455078 -143.4700164794922 L -206.729248046875 -143.4066162109375 C -206.7360382080078 -143.3822937011719 -206.7429809570312 -143.3580474853516 -206.7499237060547 -143.3338012695312 C -206.7596740722656 -143.2998504638672 -206.76953125 -143.2659606933594 -206.7774963378906 -143.23486328125 C -206.7875823974609 -143.1949462890625 -206.7964172363281 -143.1544952392578 -206.8054046630859 -143.1140289306641 L -206.8188781738281 -143.0537261962891 L -206.8326721191406 -142.9946746826172 C -206.8408966064453 -142.9597473144531 -206.8492889404297 -142.9248046875 -206.8569030761719 -142.8872222900391 C -206.8653869628906 -142.8457641601562 -206.872314453125 -142.8038635253906 -206.8794250488281 -142.761962890625 L -206.8897857666016 -142.7014312744141 C -206.8941040039062 -142.6765747070312 -206.8986511230469 -142.6518249511719 -206.9031982421875 -142.6270751953125 C -206.9085235595703 -142.5980529785156 -206.9140167236328 -142.569091796875 -206.9184875488281 -142.5395202636719 C -206.9254302978516 -142.4935150146484 -206.9308166503906 -142.4468841552734 -206.9363555908203 -142.4003295898438 L -206.9441528320312 -142.3355102539062 C -206.9471740722656 -142.3107299804688 -206.9504241943359 -142.2860107421875 -206.9537048339844 -142.2612915039062 C -206.9571838378906 -142.2350921630859 -206.9608154296875 -142.2089233398438 -206.9634246826172 -142.1831207275391 C -206.9688568115234 -142.1291656494141 -206.9729461669922 -142.0679626464844 -206.9772644042969 -142.003173828125 L -206.9808044433594 -141.9508209228516 C -206.9825744628906 -141.9240264892578 -206.9847564697266 -141.8973999023438 -206.9870147705078 -141.8707733154297 C -206.9884033203125 -141.8541259765625 -206.9900054931641 -141.8375091552734 -206.9907531738281 -141.8226013183594 C -206.9968872070312 -141.6982421875 -207 -141.5744934082031 -207 -141.4547729492188 C -207 -137.4945831298828 -203.7783508300781 -134.2727355957031 -199.8181915283203 -134.2727355957031 L -189.3352355957031 -134.2727355957031 L -182.5454559326172 -134.2727355957031 C -182.4583282470703 -134.2727355957031 -182.3657836914062 -134.2761535644531 -182.2784729003906 -134.2796630859375 L -182.2584533691406 -134.2804565429688 L -182.2384185791016 -134.2804565429688 L -173.5090942382812 -134.2804565429688 L -173.4823303222656 -134.2804565429688 L -173.4556121826172 -134.2790222167969 C -173.377685546875 -134.2748565673828 -173.3009338378906 -134.2727355957031 -173.2274932861328 -134.2727355957031 L -173.2272796630859 -134.2727355957031 M -173.2272796630859 -133.2727355957031 L -173.2274932861328 -133.2727355957031 C -173.3220520019531 -133.2727355957031 -173.4159088134766 -133.2754669189453 -173.5090942382812 -133.2804565429688 L -182.2384185791016 -133.2804565429688 C -182.3404541015625 -133.2763671875 -182.4425048828125 -133.2727355957031 -182.5454559326172 -133.2727355957031 L -189.3352355957031 -133.2727355957031 L -199.8181915283203 -133.2727355957031 L -199.8184051513672 -133.2727355957031 C -204.3368225097656 -133.2727355957031 -208 -136.9359130859375 -208 -141.4547729492188 C -208 -141.5947875976562 -207.9963531494141 -141.7338714599609 -207.9895477294922 -141.871826171875 C -207.987060546875 -141.9204559326172 -207.9818267822266 -141.9681854248047 -207.9786376953125 -142.0165863037109 C -207.9725036621094 -142.1056823730469 -207.9672698974609 -142.1949920654297 -207.9584045410156 -142.2831878662109 C -207.9525146484375 -142.3413696289062 -207.9438629150391 -142.3986358642578 -207.9368286132812 -142.4563751220703 C -207.9272766113281 -142.5338745117188 -207.9188690185547 -142.6120452880859 -207.9072723388672 -142.6888580322266 C -207.89794921875 -142.7506713867188 -207.8856811523438 -142.8113555908203 -207.8750152587891 -142.8727264404297 C -207.8625030517578 -142.9445495605469 -207.8511505126953 -143.0166015625 -207.8365936279297 -143.0877380371094 C -207.8236236572266 -143.1518249511719 -207.8079528808594 -143.2147827148438 -207.7934112548828 -143.2779693603516 C -207.7781829833984 -143.345458984375 -207.7638702392578 -143.4131774902344 -207.7470550537109 -143.4797668457031 C -207.730224609375 -143.5454711914062 -207.710693359375 -143.6100006103516 -207.6925048828125 -143.6752319335938 C -207.6747741699219 -143.7379608154297 -207.6581878662109 -143.8013610839844 -207.6390991210938 -143.8636474609375 C -207.6181793212891 -143.9313659667969 -207.5947723388672 -143.9979553222656 -207.5720520019531 -144.0652313232422 C -207.5525054931641 -144.1231842041016 -207.5341033935547 -144.1818237304688 -207.51318359375 -144.2393188476562 C -207.4879608154297 -144.30908203125 -207.4602355957031 -144.3775024414062 -207.4331970214844 -144.4463653564453 C -207.4122772216797 -144.4995574951172 -207.3922729492188 -144.5534210205078 -207.3702392578125 -144.6061401367188 C -207.3404541015625 -144.6772766113281 -207.3084259033203 -144.746826171875 -207.2768249511719 -144.8168334960938 C -207.2545623779297 -144.8661346435547 -207.2333984375 -144.9156799316406 -207.2100067138672 -144.9643249511719 C -207.1759185791016 -145.0363616943359 -207.1393127441406 -145.1070404052734 -207.1029510498047 -145.1779479980469 C -207.0800018310547 -145.2227325439453 -207.0577392578125 -145.2681884765625 -207.0340881347656 -145.3125 C -206.9949951171875 -145.3852233886719 -206.953857421875 -145.4565887451172 -206.9127197265625 -145.5281829833984 C -206.8890838623047 -145.569091796875 -206.8663787841797 -145.6104431152344 -206.842041015625 -145.6506805419922 C -206.7981872558594 -145.7240905761719 -206.7522735595703 -145.7958984375 -206.7061309814453 -145.8677215576172 C -206.6824951171875 -145.9047698974609 -206.6595611572266 -145.9418182373047 -206.6352233886719 -145.9781799316406 C -206.5861358642578 -146.0522766113281 -206.5347747802734 -146.1247711181641 -206.4831848144531 -146.1970520019531 C -206.4602355957031 -146.2295532226562 -206.4375 -146.2625122070312 -206.4138641357422 -146.2945404052734 C -206.3593292236328 -146.3688812255859 -206.302734375 -146.4416046142578 -206.2456817626953 -146.5138702392578 C -206.2231750488281 -146.5425109863281 -206.2011260986328 -146.5713653564453 -206.1784210205078 -146.5995483398438 C -206.1181945800781 -146.6738739013672 -206.05615234375 -146.7463684082031 -205.993408203125 -146.8186340332031 C -205.9720458984375 -146.8431701660156 -205.9511413574219 -146.8681793212891 -205.9293212890625 -146.8925018310547 C -205.8636474609375 -146.9663543701172 -205.7959136962891 -147.0386352539062 -205.7277221679688 -147.1100158691406 C -205.7075042724609 -147.1311340332031 -205.6877288818359 -147.1524963378906 -205.6672821044922 -147.1731872558594 C -205.5959167480469 -147.2461395263672 -205.5227355957031 -147.3175048828125 -205.4483947753906 -147.3877258300781 C -205.4297790527344 -147.4056854248047 -205.411376953125 -147.4236450195312 -205.3925018310547 -147.4411315917969 C -205.3154602050781 -147.5131988525391 -205.2363739013672 -147.5831756591797 -205.1563568115234 -147.6520538330078 C -205.1397857666016 -147.6665954589844 -205.1229553222656 -147.6813659667969 -205.1061401367188 -147.6956939697266 C -205.0229644775391 -147.7661437988281 -204.9384002685547 -147.8345489501953 -204.8525085449219 -147.9015960693359 C -204.8377380371094 -147.9134216308594 -204.8227386474609 -147.9252319335938 -204.8079528808594 -147.9368133544922 C -204.7190856933594 -148.0052337646484 -204.6286468505859 -148.0715942382812 -204.5370483398438 -148.1363677978516 C -204.5243225097656 -148.1454620361328 -204.5113677978516 -148.1547698974609 -204.4986419677734 -148.1636505126953 C -204.4043273925781 -148.2295379638672 -204.3084106445312 -148.2934112548828 -204.2113647460938 -148.3554534912109 C -204.2002258300781 -148.3625030517578 -204.1893157958984 -148.3695526123047 -204.1784057617188 -148.3766021728516 C -204.078857421875 -148.4393157958984 -203.9777374267578 -148.4997863769531 -203.8754730224609 -148.5586395263672 C -203.8661499023438 -148.5638732910156 -203.8570556640625 -148.5691070556641 -203.8477325439453 -148.5743103027344 C -203.7431945800781 -148.6336364746094 -203.6370391845703 -148.6906890869141 -203.5293273925781 -148.7456817626953 L -203.5077209472656 -148.756591796875 C -203.39794921875 -148.8122863769531 -203.2868347167969 -148.865234375 -203.17431640625 -148.9159088134766 C -203.1688690185547 -148.9184112548828 -203.1634063720703 -148.9208984375 -203.157958984375 -148.9234008789062 C -203.0436401367188 -148.9745483398438 -202.9279632568359 -149.0231781005859 -202.8109130859375 -149.069091796875 L -202.7993316650391 -149.0736389160156 C -202.6806945800781 -149.1202239990234 -202.5606842041016 -149.1638641357422 -202.4393310546875 -149.2050018310547 L -202.4318237304688 -149.2074890136719 C -202.309326171875 -149.2486419677734 -202.1854553222656 -149.2872772216797 -202.0602264404297 -149.3227386474609 L -202.0563659667969 -149.3238677978516 C -201.9300079345703 -149.3597869873047 -201.802734375 -149.3925018310547 -201.67431640625 -149.4225006103516 L -201.6729583740234 -149.4227294921875 C -201.5436248779297 -149.4524993896484 -201.4134216308594 -149.4795379638672 -201.2818298339844 -149.503173828125 L -201.2815856933594 -149.50341796875 C -200.8863677978516 -149.5747833251953 -200.4815979003906 -149.6175079345703 -200.069091796875 -149.6300048828125 L -200.0688781738281 -149.6300048828125 C -199.91455078125 -150.3122711181641 -199.6754608154297 -150.9615936279297 -199.3624877929688 -151.5672760009766 L -199.3584289550781 -151.5750122070312 C -199.3079681396484 -151.6725006103516 -199.2554626464844 -151.7688598632812 -199.2011413574219 -151.8640899658203 C -199.1979522705078 -151.8697662353516 -199.1947784423828 -151.8754730224609 -199.1913757324219 -151.8811340332031 C -198.9129638671875 -152.3668212890625 -198.5868225097656 -152.8211364746094 -198.2181701660156 -153.2375030517578 C -198.2143249511719 -153.2418212890625 -198.210693359375 -153.2461395263672 -198.2068176269531 -153.2504577636719 C -198.1436462402344 -153.3218231201172 -198.0783996582031 -153.3915863037109 -198.0127258300781 -153.4606781005859 C -197.9947814941406 -153.4793243408203 -197.9772796630859 -153.4979553222656 -197.9593200683594 -153.5165863037109 C -197.8979644775391 -153.5797729492188 -197.835693359375 -153.6416015625 -197.7722930908203 -153.7027282714844 C -197.7488708496094 -153.7252197265625 -197.7254638671875 -153.7477264404297 -197.7018127441406 -153.7702178955078 C -197.6400146484375 -153.8281860351562 -197.5777282714844 -153.8859100341797 -197.5140838623047 -153.9420471191406 C -197.4881896972656 -153.9649963378906 -197.4620361328125 -153.9872894287109 -197.4359130859375 -154.0099945068359 C -197.371826171875 -154.0652313232422 -197.3074951171875 -154.1204528808594 -197.2415924072266 -154.1738739013672 C -197.2190856933594 -154.1922760009766 -197.1954498291016 -154.2097930908203 -197.1727294921875 -154.2279510498047 C -196.9581909179688 -154.3984069824219 -196.7350006103516 -154.5579681396484 -196.5036468505859 -154.7063751220703 C -196.4629516601562 -154.7325134277344 -196.4227294921875 -154.7593231201172 -196.3818359375 -154.7845458984375 C -196.3243103027344 -154.8200073242188 -196.2656860351562 -154.8540954589844 -196.207275390625 -154.8879547119141 C -196.1588745117188 -154.9163665771484 -196.1102294921875 -154.9445343017578 -196.0613555908203 -154.9720611572266 C -196.0052337646484 -155.0031890869141 -195.9484100341797 -155.0334167480469 -195.8915863037109 -155.0634155273438 C -195.8379516601562 -155.0915985107422 -195.7840881347656 -155.1190948486328 -195.7297668457031 -155.1461334228516 C -195.6747894287109 -155.1736450195312 -195.6193237304688 -155.20068359375 -195.5636444091797 -155.2268218994141 C -195.5047760009766 -155.2545471191406 -195.4456787109375 -155.2809143066406 -195.3861389160156 -155.3070526123047 C -195.3329467773438 -155.3304595947266 -195.2799987792969 -155.3543243408203 -195.2263641357422 -155.3765869140625 C -195.1581878662109 -155.40478515625 -195.0893249511719 -155.4311370849609 -195.0204467773438 -155.4577331542969 C -194.9736328125 -155.4756927490234 -194.9272766113281 -155.4945526123047 -194.8802185058594 -155.5115966796875 C -194.7659149169922 -155.5531921386719 -194.6506958007812 -155.5922698974609 -194.5340881347656 -155.6286315917969 C -194.5025024414062 -155.6386413574219 -194.4704437255859 -155.6468200683594 -194.4388580322266 -155.6563720703125 C -194.3497619628906 -155.6829528808594 -194.260009765625 -155.7090911865234 -194.1695404052734 -155.7327270507812 C -194.1231842041016 -155.7450103759766 -194.0763702392578 -155.7554626464844 -194.0297698974609 -155.7668151855469 C -193.9527282714844 -155.7856750488281 -193.8754730224609 -155.8038635253906 -193.7977294921875 -155.8204498291016 C -193.7472839355469 -155.8311462402344 -193.6965942382812 -155.8409118652344 -193.6459045410156 -155.8506927490234 C -193.5697784423828 -155.8652191162109 -193.49365234375 -155.8788604736328 -193.4168243408203 -155.8915863037109 C -193.3654632568359 -155.8997802734375 -193.3143157958984 -155.9077301025391 -193.2627258300781 -155.9152221679688 C -193.18408203125 -155.9265899658203 -193.1047821044922 -155.9363555908203 -193.0254516601562 -155.9452362060547 C -192.9759216308594 -155.9509124755859 -192.9261322021484 -155.9568176269531 -192.8761444091797 -155.9618225097656 C -192.7890930175781 -155.9700012207031 -192.7015991210938 -155.9761505126953 -192.6138763427734 -155.9815979003906 C -192.5711517333984 -155.9843139648438 -192.5286407470703 -155.9879608154297 -192.4856872558594 -155.989990234375 C -192.3550109863281 -155.9961395263672 -192.2234191894531 -156 -192.0911407470703 -156 C -191.9581909179688 -156 -191.8261260986328 -155.9961395263672 -191.6947784423828 -155.989990234375 C -191.6513671875 -155.9879608154297 -191.6083984375 -155.9841003417969 -191.5654602050781 -155.9813537597656 C -191.4775085449219 -155.9759216308594 -191.3897857666016 -155.9697875976562 -191.3025054931641 -155.9613647460938 C -191.2522735595703 -155.9565887451172 -191.2022705078125 -155.9504547119141 -191.1520385742188 -155.9447784423828 C -191.0727386474609 -155.9356689453125 -190.993408203125 -155.9259033203125 -190.9145355224609 -155.91455078125 C -190.8627319335938 -155.9070434570312 -190.8109130859375 -155.8988647460938 -190.7593231201172 -155.8904571533203 C -190.6824951171875 -155.8777313232422 -190.6061248779297 -155.8641052246094 -190.5299987792969 -155.8495483398438 C -190.4788665771484 -155.8395538330078 -190.4279632568359 -155.8295440673828 -190.3770446777344 -155.8188629150391 C -190.2997741699219 -155.8022918701172 -190.2231750488281 -155.7843322753906 -190.1468200683594 -155.7656860351562 C -190.0990905761719 -155.7538604736328 -190.0511322021484 -155.7429504394531 -190.0038604736328 -155.7304534912109 C -189.9204711914062 -155.7084045410156 -189.8377380371094 -155.684326171875 -189.7554473876953 -155.6597747802734 C -189.7163696289062 -155.6481781005859 -189.6768188476562 -155.6375122070312 -189.6379699707031 -155.6254730224609 C -189.5184173583984 -155.5877380371094 -189.3997802734375 -155.5479583740234 -189.282958984375 -155.5052337646484 C -189.2625122070312 -155.4979553222656 -189.2429504394531 -155.4893188476562 -189.2227172851562 -155.4818115234375 C -189.1256713867188 -155.4454498291016 -189.0290985107422 -155.407958984375 -188.9338531494141 -155.3679504394531 C -188.8904571533203 -155.3497772216797 -188.8479461669922 -155.3302307128906 -188.8050079345703 -155.3113555908203 C -188.733642578125 -155.2800140380859 -188.6625061035156 -155.2481842041016 -188.592041015625 -155.2149963378906 C -188.5445404052734 -155.1925048828125 -188.4979553222656 -155.1690979003906 -188.4509124755859 -155.1456756591797 C -188.3863677978516 -155.1136474609375 -188.322265625 -155.0809020996094 -188.2586517333984 -155.0472869873047 C -188.2104644775391 -155.0215911865234 -188.1625061035156 -154.9952392578125 -188.1147613525391 -154.9686431884766 C -188.0538635253906 -154.9347686767578 -187.9934234619141 -154.8999938964844 -187.9334259033203 -154.8643188476562 C -187.8859252929688 -154.8361358642578 -187.8384094238281 -154.8079681396484 -187.7913665771484 -154.7788543701172 C -187.7318115234375 -154.7420501708984 -187.6734161376953 -154.7041015625 -187.6147766113281 -154.6656799316406 C -187.5693206787109 -154.6359252929688 -187.5240936279297 -154.6068115234375 -187.4793243408203 -154.5763702392578 C -187.4181976318359 -154.5343322753906 -187.3579559326172 -154.4906768798828 -187.2977294921875 -154.4470520019531 C -187.2577209472656 -154.4181976318359 -187.2172698974609 -154.3902282714844 -187.1779479980469 -154.3606872558594 C -187.0831756591797 -154.2893218994141 -186.9900054931641 -154.2161560058594 -186.8984069824219 -154.1409149169922 C -186.8600006103516 -154.1095428466797 -186.8231964111328 -154.0763549804688 -186.7854614257812 -154.0443267822266 C -186.730224609375 -153.996826171875 -186.6745452880859 -153.9499969482422 -186.6204681396484 -153.9011383056641 C -186.5765838623047 -153.86181640625 -186.5343322753906 -153.8211364746094 -186.4913635253906 -153.7809143066406 C -186.4450073242188 -153.7372741699219 -186.3986511230469 -153.6936492919922 -186.3531799316406 -153.6490936279297 C -186.309326171875 -153.6059112548828 -186.2666015625 -153.5620422363281 -186.2238616943359 -153.5179595947266 C -186.1813812255859 -153.4743194580078 -186.1393127441406 -153.4304656982422 -186.0979614257812 -153.3859252929688 C -186.0547790527344 -153.3395538330078 -186.0127410888672 -153.29296875 -185.9706726074219 -153.2459106445312 C -185.9315948486328 -153.2015991210938 -185.8929595947266 -153.1568145751953 -185.8545379638672 -153.11181640625 C -185.8131866455078 -153.0629577636719 -185.7718200683594 -153.0138702392578 -185.7315979003906 -152.9640960693359 C -185.6947784423828 -152.9188690185547 -185.6595458984375 -152.8729553222656 -185.6238708496094 -152.8272857666016 C -185.5841064453125 -152.7759094238281 -185.5438690185547 -152.7245483398438 -185.5052337646484 -152.6722717285156 C -185.4720306396484 -152.6272735595703 -185.4402313232422 -152.5811462402344 -185.4079437255859 -152.5352478027344 C -185.2620391845703 -152.3293151855469 -185.1259155273438 -152.1163787841797 -184.9993286132812 -151.8965911865234 C -184.9738616943359 -151.8527221679688 -184.9477233886719 -151.8088684082031 -184.9231872558594 -151.7643280029297 C -184.8888702392578 -151.7022705078125 -184.8565979003906 -151.6395416259766 -184.8240966796875 -151.5765991210938 C -184.8000030517578 -151.5302276611328 -184.7759094238281 -151.4841003417969 -184.7527313232422 -151.4372711181641 C -184.7213592529297 -151.3736419677734 -184.6911468505859 -151.309326171875 -184.6613616943359 -151.2449951171875 C -184.6395568847656 -151.1974945068359 -184.6179504394531 -151.1499938964844 -184.5968322753906 -151.1020355224609 C -184.5681762695312 -151.0365905761719 -184.5402374267578 -150.9709167480469 -184.5131988525391 -150.904541015625 C -184.4938659667969 -150.8568115234375 -184.4750061035156 -150.8086547851562 -184.4563751220703 -150.7602233886719 C -184.4302215576172 -150.6924896240234 -184.4045562744141 -150.6245422363281 -184.3800048828125 -150.555908203125 C -184.3631896972656 -150.5088806152344 -184.3477325439453 -150.4609069824219 -184.3318328857422 -150.4134216308594 C -184.3081970214844 -150.3424987792969 -184.2840881347656 -150.2718200683594 -184.2625122070312 -150.1999969482422 C -184.2495574951172 -150.1581726074219 -184.2386474609375 -150.1156768798828 -184.2263641357422 -150.0736389160156 C -184.0538787841797 -149.470458984375 -183.947509765625 -148.8395385742188 -183.9184112548828 -148.1879425048828 C -182.8811340332031 -149.0895538330078 -181.5274963378906 -149.6365814208984 -180.0454559326172 -149.6365814208984 C -176.7818145751953 -149.6365814208984 -174.1363677978516 -146.9906768798828 -174.1363677978516 -143.72705078125 C -174.1363677978516 -143.6999969482422 -174.1379547119141 -143.6734161376953 -174.1384124755859 -143.6465911865234 C -173.8425140380859 -143.6984252929688 -173.5384063720703 -143.7272796630859 -173.2274932861328 -143.7272796630859 L -173.2272796630859 -143.7272796630859 C -171.8997802734375 -143.7272796630859 -170.6888580322266 -143.2315979003906 -169.7668151855469 -142.4165954589844 C -169.6863708496094 -142.3452301025391 -169.6070404052734 -142.2724914550781 -169.5309143066406 -142.1963653564453 C -169.5200042724609 -142.1852264404297 -169.509765625 -142.1736297607422 -169.4988555908203 -142.1625061035156 C -168.6893310546875 -141.3386383056641 -168.1502227783203 -140.2481842041016 -168.0270385742188 -139.0345458984375 C -168.0236358642578 -139.0002288818359 -168.0220489501953 -138.9652404785156 -168.0190887451172 -138.9306945800781 C -168.0075073242188 -138.7886505126953 -168 -138.6452331542969 -168 -138.5002288818359 L -168 -138.5 C -168 -135.7450103759766 -170.131591796875 -133.4895477294922 -172.8352203369141 -133.2888641357422 L -172.8352203369141 -133.2806854248047 L -172.8352203369141 -133.2804565429688 L -172.9454650878906 -133.2804565429688 C -173.0388641357422 -133.2754669189453 -173.1327209472656 -133.2727355957031 -173.2272796630859 -133.2727355957031 Z" stroke="none" fill="#c9c9c9"/>
    </g>
  </g>
</svg>
