<svg xmlns="http://www.w3.org/2000/svg" width="40" height="40" viewBox="0 0 40 40">
  <g id="_4rn" data-name="4rn" transform="translate(208 -12)">
    <g id="Grupo_8608" data-name="Grupo 8608" transform="translate(-202.59 48.275)">
      <path id="Caminho_7298" data-name="Caminho 7298" d="M-182.05,171.9l-1.852,1.852a.937.937,0,0,0-.038,1.324.938.938,0,0,0,1.324-.039l1.852-1.852a.938.938,0,0,0,.038-1.324A.938.938,0,0,0-182.05,171.9Z" transform="translate(184.195 -171.61)" fill="#c9c9c9"/>
      <path id="Caminho_7299" data-name="Caminho 7299" d="M-98.049,171.9l-1.852,1.852a.938.938,0,0,0-.038,1.324.938.938,0,0,0,1.324-.039l1.852-1.852a.937.937,0,0,0,.039-1.324A.938.938,0,0,0-98.049,171.9Z" transform="translate(119.286 -171.61)" fill="#c9c9c9"/>
      <path id="Caminho_7300" data-name="Caminho 7300" d="M-126.05,171.9l-1.852,1.852a.937.937,0,0,0-.038,1.324.938.938,0,0,0,1.324-.039l1.852-1.852a.938.938,0,0,0,.038-1.324A.938.938,0,0,0-126.05,171.9Z" transform="translate(140.922 -171.61)" fill="#c9c9c9"/>
      <path id="Caminho_7301" data-name="Caminho 7301" d="M-154.05,171.9l-1.852,1.852a.937.937,0,0,0-.038,1.324.938.938,0,0,0,1.324-.039l1.852-1.852a.938.938,0,0,0,.038-1.324A.938.938,0,0,0-154.05,171.9Z" transform="translate(162.559 -171.61)" fill="#c9c9c9"/>
      <path id="Caminho_7302" data-name="Caminho 7302" d="M-68.725,171.866a.938.938,0,0,0-1.324.038l-1.852,1.852a.937.937,0,0,0-.038,1.324.938.938,0,0,0,1.324-.039l1.852-1.852A.937.937,0,0,0-68.725,171.866Z" transform="translate(97.65 -171.61)" fill="#c9c9c9"/>
    </g>
    <g id="Caminho_7303" data-name="Caminho 7303" transform="translate(-58.727)" fill="#fff" stroke-miterlimit="10">
      <path d="M -120.3865966796875 34.22727584838867 C -123.355094909668 34.22727584838867 -126.1459197998047 33.07130432128906 -128.2449493408203 30.9722957611084 C -130.343994140625 28.87327575683594 -131.5 26.08242607116699 -131.5 23.11386680603027 C -131.5 20.68126678466797 -130.7283477783203 18.37160682678223 -129.2684631347656 16.4345760345459 C -128.0408477783203 14.8057279586792 -126.3632583618164 13.53128242492676 -124.4784851074219 12.78112411499023 C -124.6640090942383 13.63023090362549 -124.7577362060547 14.49813461303711 -124.7577362060547 15.37181568145752 C -124.7577362060547 18.60748672485352 -123.4977645874023 21.64945602416992 -121.2099304199219 23.93735694885254 C -118.9221115112305 26.2252368927002 -115.8802795410156 27.48522567749023 -112.644775390625 27.48522567749023 C -111.7712173461914 27.48522567749023 -110.9032821655273 27.39144134521484 -110.0538330078125 27.20578002929688 C -110.8039016723633 29.09053230285645 -112.0783233642578 30.76810073852539 -113.7072143554688 31.99573516845703 C -115.644287109375 33.45562744140625 -117.9539794921875 34.22727584838867 -120.3865966796875 34.22727584838867 Z" stroke="none"/>
      <path d="M -120.3865966796875 33.72727584838867 C -118.0634384155273 33.72727584838867 -115.8578109741211 32.99044418334961 -114.0081481933594 31.596435546875 C -112.6996383666992 30.61026573181152 -111.6305541992188 29.3200569152832 -110.8976058959961 27.86414527893066 C -111.4751663208008 27.94468116760254 -112.0587997436523 27.98522567749023 -112.644775390625 27.98522567749023 C -116.0138397216797 27.98522567749023 -119.1812286376953 26.67322540283203 -121.5634841918945 24.29090690612793 C -123.9457550048828 21.90856552124023 -125.2577362060547 18.74104690551758 -125.2577362060547 15.37181568145752 C -125.2577362060547 14.78581809997559 -125.2172317504883 14.20227909088135 -125.1367721557617 13.62489128112793 C -126.5928573608398 14.35789680480957 -127.882926940918 15.42692565917969 -128.8691711425781 16.73550605773926 C -130.2631683349609 18.58513641357422 -131 20.79072570800781 -131 23.11386680603027 C -131 25.94886589050293 -129.8960113525391 28.61415672302246 -127.8913955688477 30.61874580383301 C -125.8867950439453 32.62331771850586 -123.221549987793 33.72727584838867 -120.3865966796875 33.72727584838867 M -120.3865966796875 34.72727584838867 C -126.8004608154297 34.72727584838867 -132 29.52795600891113 -132 23.11386680603027 C -132 17.8731861114502 -128.5277404785156 13.44522571563721 -123.7588653564453 11.99999618530273 C -124.0822906494141 13.06727600097656 -124.2577362060547 14.19909572601318 -124.2577362060547 15.37181568145752 C -124.2577362060547 21.78591537475586 -119.0584106445312 26.98522567749023 -112.644775390625 26.98522567749023 C -111.4716110229492 26.98522567749023 -110.3400115966797 26.80954551696777 -109.2727355957031 26.48613548278809 C -110.7177276611328 31.25500679016113 -115.1459197998047 34.72727584838867 -120.3865966796875 34.72727584838867 Z" stroke="none" fill="#c9c9c9"/>
    </g>
    <g id="Caminho_7304" data-name="Caminho 7304" transform="translate(0 -40.182)" fill="#f2f2f2" stroke-miterlimit="10">
      <path d="M -173.2272796630859 86.22727203369141 L -173.2274932861328 86.22727203369141 C -173.3067626953125 86.22727203369141 -173.3905029296875 86.22496032714844 -173.4835357666016 86.22019195556641 L -173.4963073730469 86.21954345703125 L -173.5090942382812 86.21954345703125 L -182.2384185791016 86.21954345703125 L -182.2484436035156 86.21954345703125 L -182.2584533691406 86.21994018554688 C -182.3509521484375 86.22365570068359 -182.4493255615234 86.22727203369141 -182.5454559326172 86.22727203369141 L -189.3352355957031 86.22727203369141 L -199.8181915283203 86.22727203369141 C -204.0540466308594 86.22727203369141 -207.5 82.78112030029297 -207.5 78.54523468017578 C -207.5 78.41756439208984 -207.4966888427734 78.28551483154297 -207.4901428222656 78.15276336669922 C -207.4889831542969 78.12987518310547 -207.4868927001953 78.10616302490234 -207.4848937988281 78.08243560791016 C -207.4831237792969 78.06142425537109 -207.4813690185547 78.0404052734375 -207.4798736572266 78.01927185058594 L -207.477783203125 77.98731994628906 C -207.4727172851562 77.90988159179688 -207.4679260253906 77.83673095703125 -207.4608764648438 77.76638031005859 C -207.4579772949219 77.73805236816406 -207.4540557861328 77.70878601074219 -207.4501647949219 77.67945861816406 C -207.4468383789062 77.65425109863281 -207.4435272216797 77.62901306152344 -207.4405212402344 77.60365295410156 L -207.4335784912109 77.54563903808594 C -207.4272766113281 77.49239349365234 -207.4210815429688 77.43917846679688 -207.4130249023438 77.38655853271484 C -207.4075164794922 77.35043334960938 -207.4009246826172 77.31497955322266 -207.3943939208984 77.27951049804688 L -207.3828125 77.21562194824219 L -207.3714447021484 77.14952087402344 C -207.3636169433594 77.10345458984375 -207.3558959960938 77.05747985839844 -207.3466186523438 77.01194000244141 C -207.3388214111328 76.97304534912109 -207.3300018310547 76.93595123291016 -207.3212738037109 76.8988037109375 L -207.3063049316406 76.83447265625 L -207.2923736572266 76.77232360839844 C -207.2827301025391 76.72891235351562 -207.2731475830078 76.68550872802734 -207.2622680664062 76.64242553710938 C -207.2526550292969 76.60494232177734 -207.2414398193359 76.56613922119141 -207.2303009033203 76.52738189697266 L -207.2117309570312 76.46218872070312 L -207.1956329345703 76.4041748046875 C -207.1844940185547 76.36379241943359 -207.1734466552734 76.32342529296875 -207.1610870361328 76.28336334228516 C -207.1478729248047 76.24017333984375 -207.1337432861328 76.19879913330078 -207.1196746826172 76.15737152099609 L -207.0988464355469 76.09564208984375 L -207.0790100097656 76.03630065917969 C -207.0673828125 76.00125885009766 -207.0558166503906 75.96610260009766 -207.0431671142578 75.93141937255859 C -207.0252227783203 75.88169097900391 -207.0064086914062 75.83424377441406 -206.9877166748047 75.78693389892578 L -206.9690246582031 75.739501953125 L -206.9476776123047 75.68463897705078 C -206.9350891113281 75.65206146240234 -206.9225769042969 75.61949157714844 -206.9090881347656 75.58750915527344 C -206.8856048583984 75.53095245361328 -206.8613433837891 75.47781372070312 -206.8372955322266 75.42488861083984 L -206.8230133056641 75.39344024658203 L -206.803955078125 75.35056304931641 C -206.7890930175781 75.31697082519531 -206.7743072509766 75.28342437744141 -206.7585601806641 75.25044250488281 C -206.7335968017578 75.19792938232422 -206.7075347900391 75.14706420898438 -206.6815032958984 75.09605407714844 L -206.6590270996094 75.05194091796875 L -206.6361389160156 75.00691986083984 C -206.6218719482422 74.97871398925781 -206.6076049804688 74.950439453125 -206.5926666259766 74.92249298095703 C -206.5619049072266 74.86483001708984 -206.529541015625 74.80863189697266 -206.4972534179688 74.75241088867188 L -206.4807739257812 74.72369384765625 L -206.4569091796875 74.68183135986328 C -206.4426422119141 74.65666198730469 -206.4284362792969 74.63149261474609 -206.4134368896484 74.60662078857422 C -206.3704833984375 74.53483581542969 -206.3262176513672 74.46572113037109 -206.2884521484375 74.40737915039062 L -206.261962890625 74.36561584472656 C -206.2479248046875 74.34333038330078 -206.2339630126953 74.32105255126953 -206.2192230224609 74.29904937744141 C -206.1717071533203 74.22762298583984 -206.1216735839844 74.15695190429688 -206.0788726806641 74.09706115722656 C -206.0684967041016 74.08260345458984 -206.0574951171875 74.06694030761719 -206.0464935302734 74.05128479003906 C -206.0346221923828 74.03433990478516 -206.0227661132812 74.01737976074219 -206.010498046875 74.00070190429688 C -205.9660949707031 73.94050598144531 -205.9169769287109 73.87651062011719 -205.8562469482422 73.79971313476562 L -205.8332366943359 73.77017211914062 C -205.8190155029297 73.75183868408203 -205.8048248291016 73.73348999023438 -205.7901153564453 73.71548461914062 C -205.7326354980469 73.64446258544922 -205.6736755371094 73.57574462890625 -205.6183166503906 73.51177978515625 C -205.6090393066406 73.501220703125 -205.5976104736328 73.48793029785156 -205.5861663818359 73.474609375 C -205.5755615234375 73.46224975585938 -205.56494140625 73.44985961914062 -205.5541229248047 73.43766021728516 C -205.5034637451172 73.38095092773438 -205.4460144042969 73.31908416748047 -205.3692321777344 73.23863220214844 L -205.3439025878906 73.21199035644531 C -205.3328399658203 73.20029449462891 -205.3218231201172 73.18858337402344 -205.3103942871094 73.17704010009766 C -205.2501831054688 73.11565399169922 -205.1842498779297 73.05093383789062 -205.1071319580078 72.97743988037109 L -205.0813446044922 72.95278167724609 C -205.071533203125 72.94335174560547 -205.061767578125 72.93389892578125 -205.0517578125 72.92465972900391 C -204.9821624755859 72.85990142822266 -204.9113464355469 72.79661560058594 -204.833740234375 72.72978973388672 L -204.8059692382812 72.70571136474609 C -204.7979736328125 72.69872283935547 -204.7899627685547 72.69170379638672 -204.7817840576172 72.68479919433594 C -204.7117156982422 72.62528228759766 -204.6357269287109 72.56365203857422 -204.5483551025391 72.49541473388672 L -204.5450744628906 72.49284362792969 L -204.5418243408203 72.49021148681641 C -204.5283355712891 72.47930908203125 -204.5146789550781 72.46839141845703 -204.5010070800781 72.45786285400391 C -204.4251251220703 72.39945983886719 -204.3436431884766 72.33942413330078 -204.2519073486328 72.27428436279297 C -204.2369537353516 72.26358032226562 -204.2237243652344 72.25414276123047 -204.2105102539062 72.24494171142578 C -204.12646484375 72.18621063232422 -204.0402374267578 72.12863159179688 -203.9461059570312 72.06838226318359 C -203.9347991943359 72.06130218505859 -203.9204711914062 72.05209350585938 -203.9060821533203 72.04270172119141 C -203.81884765625 71.98795318603516 -203.7263488769531 71.93254852294922 -203.6310577392578 71.87798309326172 L -203.6094970703125 71.86539459228516 L -203.6010284423828 71.86043548583984 C -203.5043334960938 71.80563354492188 -203.4063415527344 71.75302886962891 -203.3069915771484 71.70249938964844 L -203.2998962402344 71.69890594482422 L -203.2929229736328 71.69506072998047 C -203.2877655029297 71.69223022460938 -203.2824554443359 71.68959045410156 -203.2771606445312 71.6868896484375 C -203.1793212890625 71.63756561279297 -203.0763092041016 71.58842468261719 -202.9732666015625 71.54201507568359 L -202.9669494628906 71.53916168212891 L -202.960693359375 71.53614044189453 L -202.9468841552734 71.53005981445312 C -202.8473205566406 71.48535919189453 -202.7404632568359 71.44041442871094 -202.6320953369141 71.39775085449219 L -202.6376495361328 71.39990234375 L -202.6210784912109 71.39344024658203 L -202.618896484375 71.39260864257812 L -202.6137237548828 71.39057922363281 C -202.5050354003906 71.34817504882812 -202.3937835693359 71.30764007568359 -202.2830963134766 71.27011108398438 L -202.2814636230469 71.26955413818359 L -202.2772674560547 71.26810455322266 L -202.2706604003906 71.26583099365234 C -202.1552124023438 71.22705841064453 -202.0417022705078 71.19179534912109 -201.9311370849609 71.16030120849609 C -201.9240570068359 71.15837860107422 -201.9172973632812 71.15642547607422 -201.9103393554688 71.15431213378906 C -201.7965698242188 71.12235260009766 -201.6833953857422 71.09315490722656 -201.5737457275391 71.06742858886719 C -201.5654602050781 71.06574249267578 -201.5559692382812 71.06363677978516 -201.5454559326172 71.0609130859375 C -201.4278106689453 71.03401184082031 -201.3107147216797 71.01002502441406 -201.1972351074219 70.98957061767578 L -201.1908416748047 70.98846435546875 C -201.0753479003906 70.96749877929688 -200.9560089111328 70.94883728027344 -200.8328094482422 70.93241119384766 C -200.8228607177734 70.93138122558594 -200.8128967285156 70.93006896972656 -200.802978515625 70.928466796875 C -200.6824493408203 70.91323089599609 -200.5612335205078 70.90066528320312 -200.4424743652344 70.89112091064453 L -200.4332427978516 70.89037322998047 C -200.3115844726562 70.88082122802734 -200.1843109130859 70.87383270263672 -200.0567016601562 70.86974334716797 L -200.0497589111328 70.86952209472656 L -200.0428314208984 70.86911010742188 L -199.7546234130859 70.85184478759766 L -199.6216735839844 70.5933837890625 L -199.5945739746094 70.5391845703125 L -199.5809631347656 70.4796142578125 C -199.4383544921875 69.84908294677734 -199.2156372070312 69.23814392089844 -198.9189453125 68.66378021240234 L -198.9174499511719 68.66086578369141 L -198.9159851074219 68.65792846679688 L -198.9125366210938 68.65104675292969 C -198.8668670654297 68.56312561035156 -198.8190155029297 68.47509765625 -198.7702178955078 68.38930511474609 C -198.7647247314453 68.38006591796875 -198.7594146728516 68.37076568603516 -198.7541351318359 68.36110687255859 C -198.7024383544922 68.27143859863281 -198.6533203125 68.18950653076172 -198.6042785644531 68.11113739013672 L -198.5984954833984 68.10197448730469 C -198.3750610351562 67.74648284912109 -198.1215972900391 67.40785217285156 -197.8451232910156 67.09547424316406 L -197.8427734375 67.09281158447266 L -197.8404541015625 67.09011077880859 L -197.8344573974609 67.08308410644531 C -197.7812652587891 67.02313995361328 -197.7236328125 66.96086120605469 -197.6513824462891 66.88513946533203 L -197.6383361816406 66.87138366699219 C -197.6260528564453 66.85844421386719 -197.6137390136719 66.84542083740234 -197.6011657714844 66.83254241943359 C -197.5465850830078 66.77614593505859 -197.4895935058594 66.71929931640625 -197.4252624511719 66.65705108642578 L -197.4035949707031 66.63638305664062 L -197.3579254150391 66.59290313720703 C -197.2912292480469 66.53017425537109 -197.2354431152344 66.47904968261719 -197.1829833984375 66.43262481689453 C -197.1634216308594 66.415283203125 -197.1439666748047 66.3985595703125 -197.1245880126953 66.38188171386719 L -197.1087036132812 66.36820220947266 C -197.0484466552734 66.31632232666016 -196.9879150390625 66.26433563232422 -196.9258575439453 66.21366882324219 C -196.9166259765625 66.20616912841797 -196.9063568115234 66.19827270507812 -196.8960876464844 66.19033050537109 C -196.8839416503906 66.18093872070312 -196.8718109130859 66.17152404785156 -196.8598175048828 66.16197204589844 C -196.6625061035156 66.00530242919922 -196.4514465332031 65.85438537597656 -196.2331085205078 65.71389007568359 L -196.1885070800781 65.68523406982422 C -196.1652984619141 65.67024993896484 -196.1421051025391 65.65523529052734 -196.1185455322266 65.64066314697266 C -196.0652465820312 65.60768127441406 -196.0111846923828 65.57627868652344 -195.9569091796875 65.54481506347656 C -195.9092712402344 65.51699066162109 -195.86279296875 65.48995208740234 -195.8158569335938 65.46356201171875 C -195.7658843994141 65.43595123291016 -195.7121124267578 65.40724182128906 -195.6581420898438 65.37873840332031 C -195.6086578369141 65.35275268554688 -195.5580444335938 65.32691192626953 -195.5070190429688 65.301513671875 C -195.4542846679688 65.27513122558594 -195.4020843505859 65.24990081787109 -195.3496856689453 65.22510528564453 C -195.2957153320312 65.19966888427734 -195.2406616210938 65.17514038085938 -195.1852111816406 65.15080261230469 C -195.1330871582031 65.12763977050781 -195.0833435058594 65.10562896728516 -195.0329437255859 65.08449554443359 C -194.9712524414062 65.05899047851562 -194.9064636230469 65.03425598144531 -194.8417205810547 65.00946044921875 C -194.8214874267578 65.00170135498047 -194.8016662597656 64.99391937255859 -194.7818450927734 64.98614501953125 C -194.7573852539062 64.97653198242188 -194.7329406738281 64.96689605712891 -194.7082824707031 64.95769500732422 C -194.5917205810547 64.91577911376953 -194.4860229492188 64.88011932373047 -194.38525390625 64.84869384765625 C -194.3704528808594 64.84400939941406 -194.3575744628906 64.84048461914062 -194.3447418212891 64.83686065673828 C -194.3278198242188 64.83209228515625 -194.3109130859375 64.82730102539062 -194.2941284179688 64.82221984863281 C -194.2200164794922 64.80012512207031 -194.130615234375 64.77389526367188 -194.0431823730469 64.75105285644531 C -194.0128631591797 64.74301910400391 -193.9839935302734 64.73617553710938 -193.9551544189453 64.72927093505859 L -193.9113464355469 64.71871948242188 C -193.8395843505859 64.70137023925781 -193.7667083740234 64.68418121337891 -193.6933746337891 64.66853332519531 C -193.6471862792969 64.65875244140625 -193.5999755859375 64.64967346191406 -193.5527496337891 64.64056396484375 C -193.4679565429688 64.62435913085938 -193.3999176025391 64.61227416992188 -193.3379669189453 64.60237121582031 C -193.2862548828125 64.59370422363281 -193.2387237548828 64.58655548095703 -193.1907958984375 64.57958221435547 C -193.1271057128906 64.57037353515625 -193.0563354492188 64.56136322021484 -192.9684753417969 64.55128479003906 L -192.9293212890625 64.54692077636719 C -192.8958129882812 64.54315185546875 -192.8621826171875 64.53935241699219 -192.8284454345703 64.53612518310547 C -192.7403259277344 64.52761840820312 -192.6509399414062 64.52168273925781 -192.5828857421875 64.51744842529297 L -192.5315551757812 64.513916015625 C -192.5083770751953 64.51225280761719 -192.4851837158203 64.51054382324219 -192.4618530273438 64.50942230224609 C -192.3266296386719 64.50308990478516 -192.2052154541016 64.5 -192.0911407470703 64.5 C -191.9765472412109 64.5 -191.8545074462891 64.50308990478516 -191.7180480957031 64.50945281982422 C -191.6922454833984 64.51067352294922 -191.6663360595703 64.51263427734375 -191.6404724121094 64.51453399658203 L -191.5997314453125 64.51744842529297 C -191.5280609130859 64.52191162109375 -191.4382934570312 64.52787017822266 -191.3504028320312 64.53633117675781 C -191.3160247802734 64.53960418701172 -191.2823028564453 64.54353332519531 -191.24853515625 64.54743957519531 L -191.2082214355469 64.55206298828125 C -191.1219940185547 64.56194305419922 -191.0510864257812 64.57095336914062 -190.9857635498047 64.58035278320312 C -190.9373474121094 64.58736419677734 -190.8884887695312 64.59508514404297 -190.8398590087891 64.60301971435547 C -190.7672882080078 64.61482238769531 -190.6952667236328 64.62786865234375 -190.6236572265625 64.64156341552734 C -190.5751495361328 64.65110015869141 -190.5276947021484 64.66041564941406 -190.4804534912109 64.67037963867188 C -190.4093627929688 64.68563079833984 -190.3368072509766 64.70256042480469 -190.2646331787109 64.72013092041016 L -190.2108459472656 64.73329925537109 C -190.1836700439453 64.73991394042969 -190.156494140625 64.74649047851562 -190.1294860839844 64.75350189208984 C -190.0527038574219 64.77375030517578 -189.9723358154297 64.79737854003906 -189.8967742919922 64.81980133056641 C -189.8799743652344 64.82479858398438 -189.8625030517578 64.82981109619141 -189.8450469970703 64.83480072021484 C -189.8258514404297 64.84029388427734 -189.8066864013672 64.84571075439453 -189.7877349853516 64.85165405273438 C -189.6632843017578 64.89094543457031 -189.55419921875 64.92784118652344 -189.4552001953125 64.96417236328125 C -189.4459075927734 64.96752166748047 -189.4398956298828 64.97003936767578 -189.4338836669922 64.97244262695312 C -189.4228057861328 64.97688293457031 -189.4117584228516 64.98126983642578 -189.4006652832031 64.98548126220703 C -189.2907562255859 65.02674102783203 -189.2040710449219 65.06082916259766 -189.1262969970703 65.09335327148438 C -189.1048126220703 65.10245513916016 -189.0815582275391 65.11289215087891 -189.0583343505859 65.12328338623047 L -189.0063781738281 65.1463623046875 C -188.9395446777344 65.17577362060547 -188.8724670410156 65.20539855957031 -188.8062438964844 65.23680114746094 C -188.7686462402344 65.25459289550781 -188.7319183349609 65.27293395996094 -188.6950073242188 65.29132843017578 L -188.6736450195312 65.30197143554688 C -188.6127471923828 65.33221435546875 -188.5524444580078 65.36286926269531 -188.4929962158203 65.3944091796875 C -188.4497375488281 65.41767883300781 -188.4044647216797 65.44224548339844 -188.3594360351562 65.46744537353516 C -188.3015594482422 65.49980163574219 -188.2444915771484 65.53250122070312 -188.1878356933594 65.56606292724609 C -188.1431427001953 65.59249114990234 -188.0988464355469 65.61865997314453 -188.0551910400391 65.64571380615234 C -187.9989624023438 65.68054962158203 -187.9434356689453 65.71668243408203 -187.8882904052734 65.75279998779297 L -187.8601531982422 65.77114868164062 C -187.8270874023438 65.79269409179688 -187.7940826416016 65.81413269042969 -187.761474609375 65.83642578125 C -187.7087249755859 65.87251281738281 -187.6565551757812 65.910400390625 -187.6044158935547 65.94818878173828 L -187.5910949707031 65.95783996582031 L -187.5467071533203 65.98957061767578 C -187.5237731933594 66.00588989257812 -187.5008239746094 66.02213287353516 -187.4783325195312 66.03903198242188 C -187.3871154785156 66.10771942138672 -187.2985687255859 66.17726898193359 -187.2155456542969 66.24546051025391 C -187.1945953369141 66.26261901855469 -187.1749267578125 66.27991485595703 -187.1551971435547 66.29714965820312 C -187.1413421630859 66.30927276611328 -187.1274566650391 66.32138061523438 -187.1134643554688 66.33338165283203 L -187.1002044677734 66.34467315673828 C -187.0510559082031 66.38648986816406 -187.0017547607422 66.4283447265625 -186.9538116455078 66.47134399414062 C -186.9250335693359 66.49724578857422 -186.8962554931641 66.52455139160156 -186.8674926757812 66.55177307128906 L -186.8352203369141 66.58225250244141 L -186.8160858154297 66.60026550292969 C -186.7786560058594 66.63544464111328 -186.7412109375 66.67058563232422 -186.7047271728516 66.70670318603516 C -186.6673736572266 66.74309539794922 -186.6339111328125 66.77760314941406 -186.6004028320312 66.81206512451172 L -186.5827941894531 66.83016967773438 C -186.5415344238281 66.87229156494141 -186.5019836425781 66.91399383544922 -186.462646484375 66.95610046386719 C -186.4232330322266 66.99847412109375 -186.3836975097656 67.04232025146484 -186.3443603515625 67.08638000488281 C -186.3084106445312 67.1270751953125 -186.2716674804688 67.16960906982422 -186.2351531982422 67.21260070800781 C -186.1968536376953 67.25785064697266 -186.1579742431641 67.30379486083984 -186.1201629638672 67.35039520263672 C -186.0894775390625 67.38825988769531 -186.0597991943359 67.42665863037109 -186.0300445556641 67.46510314941406 L -186.0184631347656 67.48006439208984 L -185.9915466308594 67.51475524902344 C -185.9633331298828 67.55107116699219 -185.9351654052734 67.58727264404297 -185.9077758789062 67.6243896484375 C -185.8838958740234 67.65675354003906 -185.8607788085938 67.6898193359375 -185.8375854492188 67.722900390625 L -185.8149871826172 67.75508880615234 C -185.6803894042969 67.94515228271484 -185.5525665283203 68.14493560791016 -185.4342651367188 68.35005187988281 L -185.4101867675781 68.39147186279297 C -185.3934478759766 68.42017364501953 -185.3766632080078 68.44888305664062 -185.3606262207031 68.47791290283203 C -185.3351745605469 68.52413940429688 -185.3104248046875 68.57176971435547 -185.2857055664062 68.61927032470703 L -185.2682647705078 68.65274047851562 L -185.2510528564453 68.68608093261719 C -185.2339630126953 68.71913146972656 -185.2168273925781 68.75223541259766 -185.2003173828125 68.78558349609375 C -185.1710815429688 68.84450531005859 -185.1434936523438 68.90404510498047 -185.1160430908203 68.96334838867188 C -185.0948028564453 69.00907135009766 -185.0743255615234 69.05406951904297 -185.0544586181641 69.09947204589844 C -185.0273284912109 69.16110992431641 -185.0015106201172 69.22237396240234 -184.9763336181641 69.28384399414062 C -184.9581756591797 69.32849884033203 -184.9401702880859 69.37486267089844 -184.92236328125 69.42098236083984 C -184.8978271484375 69.48447418212891 -184.8737640380859 69.54803466796875 -184.8507843017578 69.61201477050781 C -184.8382415771484 69.64768981933594 -184.8253936767578 69.68659210205078 -184.8125152587891 69.72552490234375 L -184.8057708740234 69.74590301513672 L -184.798583984375 69.76736450195312 C -184.7789916992188 69.82585906982422 -184.7593383789062 69.88425445556641 -184.7414855957031 69.94353485107422 C -184.7321166992188 69.97386932373047 -184.7247161865234 70.00107574462891 -184.7172393798828 70.02825927734375 L -184.7070159912109 70.06526184082031 C -184.5413360595703 70.64482879638672 -184.4443359375 71.23904418945312 -184.4179229736328 71.834228515625 L -184.3719940185547 72.86875152587891 L -183.5904083251953 72.18943023681641 C -182.7431030273438 71.45299530029297 -181.7087249755859 71.00418853759766 -180.5990447998047 70.89153289794922 C -180.4154357910156 70.87303924560547 -180.2290649414062 70.86363983154297 -180.0454559326172 70.86363983154297 C -179.8618469238281 70.86363983154297 -179.6754760742188 70.87303924560547 -179.4914703369141 70.89157104492188 C -178.1668090820312 71.02614593505859 -176.94140625 71.6456298828125 -176.0413818359375 72.63589477539062 C -175.1353454589844 73.63277435302734 -174.6363677978516 74.92435455322266 -174.6363677978516 76.27273559570312 C -174.6363677978516 76.28292083740234 -174.6368103027344 76.29273986816406 -174.6371459960938 76.30258941650391 C -174.6376342773438 76.31663513183594 -174.6381072998047 76.3306884765625 -174.6383361816406 76.34490966796875 L -174.6486358642578 76.95084381103516 L -174.0517883300781 76.84585571289062 C -173.7759552001953 76.79733276367188 -173.4986267089844 76.77273559570312 -173.2274932861328 76.77273559570312 C -170.7071533203125 76.77273559570312 -168.6334075927734 78.74210357666016 -168.5061798095703 81.25617980957031 C -168.5020751953125 81.33657073974609 -168.5 81.41852569580078 -168.5 81.5 C -168.5 81.58148193359375 -168.5020751953125 81.66342926025391 -168.5061645507812 81.74359130859375 C -168.6264190673828 84.11555480957031 -170.5034027099609 86.03668212890625 -172.8722229003906 86.21250152587891 L -172.9857788085938 86.22093200683594 C -173.0731506347656 86.22518920898438 -173.1522979736328 86.22727203369141 -173.2272796630859 86.22727203369141 Z" stroke="none"/>
      <path d="M -173.2272796630859 85.72727203369141 C -173.1622772216797 85.72727203369141 -173.0931396484375 85.72549438476562 -173.0164794921875 85.72183227539062 L -172.9092407226562 85.71387481689453 C -170.7912750244141 85.55667114257812 -169.113037109375 83.83901977539062 -169.0055236816406 81.71807861328125 C -169.0018615722656 81.64639282226562 -169 81.57301330566406 -169 81.5 C -169 81.42699432373047 -169.0018615722656 81.35361480712891 -169.0055389404297 81.28145599365234 C -169.1192932128906 79.0335693359375 -170.9736938476562 77.27273559570312 -173.2274932861328 77.27273559570312 C -173.4696655273438 77.27273559570312 -173.7178649902344 77.29479217529297 -173.9651641845703 77.33829498291016 L -175.1588745117188 77.54827117919922 L -175.1382751464844 76.33641052246094 C -175.1379699707031 76.31924438476562 -175.1374359130859 76.30225372314453 -175.1368560791016 76.28530120849609 L -175.1363677978516 76.27273559570312 C -175.1363677978516 75.04899597167969 -175.5891876220703 73.8768310546875 -176.4113922119141 72.97218322753906 C -177.2283172607422 72.07334899902344 -178.3402557373047 71.51109313964844 -179.5415954589844 71.38905334472656 C -179.7089996337891 71.3721923828125 -179.8785247802734 71.36363983154297 -180.0454559326172 71.36363983154297 C -180.2123870849609 71.36363983154297 -180.3819122314453 71.3721923828125 -180.5485534667969 71.38898468017578 C -181.5549926757812 71.49114990234375 -182.4934234619141 71.89844512939453 -183.2624053955078 72.56681060791016 L -184.8255615234375 73.92544555664062 L -184.9174346923828 71.85641479492188 C -184.9421234130859 71.30017852783203 -185.0328063964844 70.74475860595703 -185.1869354248047 70.20555114746094 L -185.1877593994141 70.20270538330078 L -185.1885528564453 70.19984436035156 L -185.1993408203125 70.16086578369141 C -185.2054290771484 70.13872528076172 -185.2113647460938 70.11655426025391 -185.2181243896484 70.09467315673828 L -185.2191925048828 70.09120941162109 L -185.2202301025391 70.08775329589844 C -185.2366027832031 70.03337860107422 -185.2547149658203 69.9798583984375 -185.2726745605469 69.92622375488281 L -185.2803955078125 69.90317535400391 L -185.2872161865234 69.88255310058594 C -185.2986907958984 69.84786987304688 -185.3101043701172 69.81320190429688 -185.3222045898438 69.77866363525391 C -185.3435821533203 69.71924591064453 -185.3659515380859 69.66020202636719 -185.3888092041016 69.60107421875 C -185.4055633544922 69.55768585205078 -185.4224853515625 69.51405334472656 -185.4390106201172 69.47337341308594 C -185.4625549316406 69.41587066650391 -185.4867095947266 69.35857391357422 -185.5125427246094 69.29987335205078 C -185.5308990478516 69.25790405273438 -185.5498504638672 69.21632385253906 -185.5698394775391 69.17327880859375 C -185.5953826904297 69.11808013916016 -185.6210021972656 69.06265258789062 -185.6483459472656 69.00754547119141 C -185.6635894775391 68.97675323486328 -185.679443359375 68.94620513916016 -185.6952209472656 68.91569519042969 L -185.7122802734375 68.88260650634766 L -185.7291870117188 68.85015869140625 C -185.7521362304688 68.80609130859375 -185.7750549316406 68.76187133789062 -185.7982788085938 68.71968078613281 C -185.8124542236328 68.69402313232422 -185.8273468017578 68.66868591308594 -185.8421325683594 68.643310546875 L -185.8673706054688 68.59986877441406 C -185.9779663085938 68.40813446044922 -186.0973510742188 68.22151947021484 -186.2238464355469 68.04291534423828 L -186.2470092773438 68.00991058349609 C -186.2678833007812 67.98014068603516 -186.2886352539062 67.95035552978516 -186.3100891113281 67.92127227783203 C -186.3350372314453 67.88745880126953 -186.3607482910156 67.85452270507812 -186.3864440917969 67.82143402099609 L -186.4137268066406 67.7862548828125 L -186.4254150390625 67.77117156982422 C -186.4528656005859 67.73570251464844 -186.4802093505859 67.70024871826172 -186.5085144042969 67.66534423828125 C -186.5441131591797 67.62145233154297 -186.5807647705078 67.57820129394531 -186.6161956787109 67.53633117675781 C -186.6506195068359 67.49581909179688 -186.6852264404297 67.45573425292969 -186.7173614501953 67.41934967041016 C -186.7544250488281 67.37783050537109 -186.7916870117188 67.33649444580078 -186.8280029296875 67.29743957519531 C -186.8646545410156 67.25820159912109 -186.9014892578125 67.21935272216797 -186.9410247802734 67.17897033691406 L -186.9588928222656 67.16062164306641 C -186.9892272949219 67.12942504882812 -187.0194854736328 67.09812164306641 -187.0506591796875 67.06776428222656 L -187.0535888671875 67.06491088867188 L -187.0564880371094 67.06204223632812 C -187.0899353027344 67.0289306640625 -187.1242980957031 66.99677276611328 -187.1585998535156 66.96451568603516 L -187.1779327392578 66.94633483886719 L -187.2111968994141 66.91490936279297 C -187.2368927001953 66.89057922363281 -187.2625732421875 66.86613464355469 -187.2876129150391 66.84358978271484 C -187.3323364257812 66.80348968505859 -187.3783416748047 66.76451110839844 -187.4241790771484 66.72550964355469 L -187.4389953613281 66.71290588378906 C -187.4541473388672 66.69990539550781 -187.4691925048828 66.68678283691406 -187.4842071533203 66.67366027832031 C -187.4998779296875 66.65996551513672 -187.5154266357422 66.64614868164062 -187.5329132080078 66.63184356689453 C -187.6105194091797 66.56809234619141 -187.6934661865234 66.5029296875 -187.7787322998047 66.43873596191406 C -187.7977142333984 66.42446899414062 -187.8171081542969 66.41082000732422 -187.8364715576172 66.39704895019531 L -187.8844604492188 66.36273193359375 L -187.8978424072266 66.35303497314453 C -187.9463043212891 66.31790161132812 -187.9947509765625 66.28263854980469 -188.0436553955078 66.24919128417969 C -188.0731658935547 66.22901153564453 -188.1030883789062 66.20962524414062 -188.1330413818359 66.19010925292969 L -188.1622467041016 66.17105865478516 C -188.2138824462891 66.13724517822266 -188.2658843994141 66.10336303710938 -188.3185424804688 66.07072448730469 C -188.3592681884766 66.04549407958984 -188.4006042480469 66.02112579345703 -188.4427337646484 65.9962158203125 C -188.4957885742188 65.96477508544922 -188.5492553710938 65.93416595458984 -188.6036224365234 65.90375518798828 C -188.6451721191406 65.8804931640625 -188.6869506835938 65.85784149169922 -188.7290802001953 65.83516693115234 C -188.7839813232422 65.80606079101562 -188.8397064208984 65.77775573730469 -188.8963775634766 65.74961853027344 L -188.9180145263672 65.73884582519531 C -188.9519348144531 65.72193908691406 -188.9856567382812 65.70506286621094 -189.0204315185547 65.68859100341797 C -189.0823974609375 65.65921020507812 -189.1452026367188 65.63153076171875 -189.2070770263672 65.60430908203125 L -189.2625427246094 65.57968139648438 C -189.2826843261719 65.57066345214844 -189.3028411865234 65.56156921386719 -189.3191680908203 65.55464935302734 C -189.3911437988281 65.52455902099609 -189.4723663330078 65.49263000488281 -189.5779418945312 65.4530029296875 C -189.5919036865234 65.44771575927734 -189.6058197021484 65.44219207763672 -189.6197662353516 65.43661499023438 L -189.6271514892578 65.43367004394531 L -189.62744140625 65.43356323242188 C -189.7191925048828 65.39990234375 -189.8211669921875 65.36542510986328 -189.9372863769531 65.32876586914062 C -189.9522247314453 65.32408142089844 -189.9673309326172 65.31986999511719 -189.9824523925781 65.3155517578125 C -190.0017242431641 65.31004333496094 -190.0210266113281 65.30450439453125 -190.0389862060547 65.29914093017578 C -190.1108551025391 65.27782440185547 -190.1869964599609 65.25543212890625 -190.2551116943359 65.23746490478516 C -190.2796020507812 65.23110961914062 -190.3042449951172 65.22515869140625 -190.3289031982422 65.21916961669922 L -190.3829193115234 65.20594024658203 C -190.4506378173828 65.189453125 -190.5187225341797 65.17355346679688 -190.5836181640625 65.15962219238281 C -190.6276092529297 65.15035247802734 -190.6717681884766 65.14167785644531 -190.7193450927734 65.13233184814453 C -190.7858123779297 65.11963653564453 -190.8526916503906 65.10750579833984 -190.9203948974609 65.09648895263672 C -190.966064453125 65.08904266357422 -191.0119323730469 65.08177185058594 -191.0569763183594 65.07524871826172 C -191.1174163818359 65.06655883789062 -191.1837768554688 65.05813598632812 -191.264404296875 65.04890441894531 L -191.3059539794922 65.04412841796875 C -191.3363800048828 65.04061126708984 -191.3667449951172 65.03703308105469 -191.3983154296875 65.03403472900391 C -191.4787139892578 65.02629089355469 -191.5629730224609 65.02071380615234 -191.6274261474609 65.01671600341797 L -191.6307067871094 65.01650238037109 L -191.6340026855469 65.01628112792969 L -191.6770935058594 65.01318359375 C -191.6986389160156 65.01160430908203 -191.72021484375 65.00990295410156 -191.7413177490234 65.0089111328125 C -191.8699493408203 65.00291442871094 -191.984375 65 -192.0911407470703 65 C -192.1973419189453 65 -192.3110961914062 65.00291442871094 -192.4380035400391 65.00885009765625 C -192.4573516845703 65.00978088378906 -192.4765625 65.01125335693359 -192.4957733154297 65.01263427734375 L -192.5518646240234 65.01649475097656 C -192.615966796875 65.02046966552734 -192.6998443603516 65.02603149414062 -192.78076171875 65.03384399414062 C -192.811767578125 65.03681182861328 -192.8426971435547 65.04032897949219 -192.8735046386719 65.04379272460938 L -192.9114837646484 65.04801940917969 C -192.9943695068359 65.05753326416016 -193.0605163574219 65.06594085693359 -193.1188659667969 65.07437896728516 C -193.1631469726562 65.080810546875 -193.2070465087891 65.08740234375 -193.2511138916016 65.09481048583984 L -193.2551116943359 65.09548187255859 L -193.2591247558594 65.09612274169922 C -193.3159332275391 65.10519409179688 -193.3792266845703 65.116455078125 -193.4580230712891 65.13151550292969 C -193.5023040771484 65.14005279541016 -193.5465698242188 65.14852905273438 -193.5890350341797 65.15752410888672 C -193.6579437255859 65.17223358154297 -193.7264251708984 65.18842315673828 -193.7929229736328 65.20450592041016 L -193.8388366699219 65.21555328369141 C -193.86376953125 65.22151184082031 -193.8887176513672 65.22737884521484 -193.9168243408203 65.23482513427734 C -193.9969177246094 65.25574493408203 -194.0811462402344 65.28047180175781 -194.1493988037109 65.30081939697266 C -194.1692352294922 65.30682373046875 -194.1891937255859 65.3125 -194.2091827392578 65.31814575195312 C -194.2170562744141 65.32035064697266 -194.2249450683594 65.32247161865234 -194.2364196777344 65.32603454589844 C -194.3294830322266 65.35504913330078 -194.4276123046875 65.38815307617188 -194.5362548828125 65.42718505859375 C -194.5572967529297 65.43506622314453 -194.5781555175781 65.44331359863281 -194.5990447998047 65.45152282714844 C -194.6201019287109 65.45979309082031 -194.6411590576172 65.46805572509766 -194.6629943847656 65.47643280029297 C -194.7227020263672 65.49928283691406 -194.7824401855469 65.52204132080078 -194.8415679931641 65.54641723632812 C -194.8880310058594 65.56594085693359 -194.9339752197266 65.5863037109375 -194.9842681884766 65.60865020751953 C -195.03564453125 65.63119506835938 -195.0866546630859 65.65389251708984 -195.1357574462891 65.67700958251953 C -195.1848602294922 65.70026397705078 -195.2337951660156 65.72389984130859 -195.2842712402344 65.74915313720703 C -195.3320159912109 65.77291107177734 -195.3793640136719 65.79708862304688 -195.4246826171875 65.82089996337891 C -195.4747467041016 65.84733581542969 -195.5246429443359 65.87393951416016 -195.5739288330078 65.90115356445312 C -195.6174011230469 65.92563629150391 -195.6605377197266 65.95074462890625 -195.7061004638672 65.97735595703125 C -195.7562103271484 66.00640869140625 -195.8061828613281 66.03536224365234 -195.8554992675781 66.06587982177734 C -195.8763275146484 66.07876586914062 -195.8968048095703 66.09206390380859 -195.9173278808594 66.10530090332031 L -195.9625549316406 66.13438415527344 C -196.1670227050781 66.26593017578125 -196.3645172119141 66.40711975097656 -196.5482635498047 66.55303955078125 C -196.5620880126953 66.56404876708984 -196.5760650634766 66.57491302490234 -196.5900726318359 66.58575439453125 C -196.59716796875 66.59123992919922 -196.6043243408203 66.59666442871094 -196.6096496582031 66.60099029541016 C -196.6683197021484 66.64889526367188 -196.7255401611328 66.69808959960938 -196.7821960449219 66.74687194824219 L -196.7984161376953 66.76083374023438 C -196.8159332275391 66.77590942382812 -196.8335266113281 66.791015625 -196.8516235351562 66.80706024169922 C -196.9002075195312 66.85005187988281 -196.9524230957031 66.89791107177734 -197.0146942138672 66.95650482177734 L -197.0581665039062 66.99787139892578 L -197.0802154541016 67.0189208984375 C -197.1394653320312 67.07630920410156 -197.1918640136719 67.12857818603516 -197.2434539794922 67.18189239501953 C -197.2543182373047 67.19300842285156 -197.2649536132812 67.20426940917969 -197.2755432128906 67.21543884277344 L -197.2896118164062 67.23026275634766 C -197.3561401367188 67.30001068115234 -197.4090576171875 67.35712432861328 -197.4557647705078 67.40959167480469 L -197.4613494873047 67.41613006591797 L -197.4659881591797 67.42152404785156 L -197.470703125 67.42684936523438 C -197.7291870117188 67.71889495849609 -197.9661865234375 68.03554534912109 -198.1751556396484 68.36803436279297 L -198.1829528808594 68.38040161132812 C -198.2272033691406 68.45122528076172 -198.2717132568359 68.52549743652344 -198.318603515625 68.60675811767578 C -198.3248443603516 68.6180419921875 -198.3311157226562 68.62903594970703 -198.3375396728516 68.63993072509766 C -198.3818969726562 68.71803283691406 -198.4254150390625 68.79806518554688 -198.4670257568359 68.87805938720703 L -198.4687652587891 68.88153076171875 L -198.4716949462891 68.88741302490234 L -198.4747161865234 68.89324188232422 C -198.7519226074219 69.42990875244141 -198.9600372314453 70.00075531005859 -199.0932769775391 70.58991241455078 L -199.1202545166016 70.70858001708984 L -199.1744537353516 70.81697845458984 L -199.4365234375 71.33369445800781 L -200.0129241943359 71.36820983886719 L -200.0267944335938 71.36904144287109 L -200.0406799316406 71.36949157714844 C -200.1606140136719 71.37332916259766 -200.2801055908203 71.37989044189453 -200.3924255371094 71.38870239257812 L -200.4024353027344 71.38951873779297 C -200.5114440917969 71.39827728271484 -200.6227416992188 71.40975952148438 -200.7335205078125 71.42366790771484 C -200.7464141845703 71.42561340332031 -200.7593078613281 71.42731475830078 -200.7722473144531 71.42877197265625 C -200.8857116699219 71.4439697265625 -200.9952545166016 71.46112823486328 -201.0980682373047 71.47981262207031 L -201.1014709472656 71.48042297363281 L -201.1048736572266 71.48102569580078 L -201.1108703613281 71.48207092285156 C -201.2144165039062 71.50076293945312 -201.3213348388672 71.52265167236328 -201.428955078125 71.54718017578125 C -201.4409332275391 71.55016326904297 -201.4530181884766 71.55294799804688 -201.4652557373047 71.55554962158203 C -201.5644378662109 71.57890319824219 -201.6667785644531 71.60533142089844 -201.7698822021484 71.63420104980469 C -201.7787475585938 71.63685607910156 -201.7874755859375 71.63936614990234 -201.7964630126953 71.64183044433594 C -201.8988800048828 71.67104339599609 -202.0041198730469 71.70376586914062 -202.1103363037109 71.73942565917969 L -202.1165771484375 71.74159240722656 L -202.1195526123047 71.74262237548828 L -202.1225433349609 71.74362945556641 C -202.2261657714844 71.77876281738281 -202.3302764892578 71.81668853759766 -202.4320068359375 71.85638427734375 L -202.4363861083984 71.85809326171875 L -202.4375610351562 71.85854339599609 L -202.4489593505859 71.86298370361328 L -202.4489440917969 71.86301422119141 C -202.550048828125 71.90280151367188 -202.6496124267578 71.94467163085938 -202.7448577880859 71.98744964599609 L -202.744873046875 71.9874267578125 L -202.7522277832031 71.99072265625 L -202.7552642822266 71.99219512939453 L -202.7679138183594 71.99789428710938 C -202.8633575439453 72.0408935546875 -202.9587554931641 72.08636474609375 -203.051513671875 72.13309478759766 L -203.0559844970703 72.13538360595703 L -203.066162109375 72.14097595214844 L -203.0803527832031 72.148193359375 C -203.1730194091797 72.1953125 -203.2642974853516 72.24430847167969 -203.3516845703125 72.29383850097656 L -203.3546142578125 72.29550170898438 L -203.3575592041016 72.29714965820312 L -203.3548736572266 72.29571533203125 C -203.3648529052734 72.30162048339844 -203.3748321533203 72.30746459960938 -203.3825988769531 72.31188201904297 C -203.4706878662109 72.36232757568359 -203.5560913085938 72.41342926025391 -203.6365509033203 72.46385192871094 C -203.6508178710938 72.47314453125 -203.6652526855469 72.48240661621094 -203.6796875 72.49150085449219 C -203.7668304443359 72.54734039306641 -203.8465881347656 72.60062408447266 -203.9248809814453 72.65531921386719 C -203.9363250732422 72.66329193115234 -203.94775390625 72.67147064208984 -203.9624481201172 72.68196868896484 C -204.0489044189453 72.74336242675781 -204.1253051757812 72.79965209960938 -204.1960906982422 72.85413360595703 C -204.2066192626953 72.86222839355469 -204.2171173095703 72.87067413330078 -204.2275085449219 72.87905883789062 L -204.2339935302734 72.88431549072266 L -204.2405853271484 72.88945007324219 C -204.322509765625 72.95345306396484 -204.3932952880859 73.01084136962891 -204.4592742919922 73.06687164306641 L -204.4770050048828 73.08224487304688 C -204.4882354736328 73.09207153320312 -204.4994812011719 73.10186004638672 -204.5074768066406 73.10867309570312 C -204.5801544189453 73.1712646484375 -204.6462860107422 73.23033905029297 -204.7126159667969 73.29206085205078 C -204.7200927734375 73.29897308349609 -204.7273864746094 73.30608367919922 -204.7347259521484 73.31314086914062 L -204.7622222900391 73.33943176269531 C -204.835205078125 73.40898132324219 -204.8971862792969 73.46980285644531 -204.9551086425781 73.52885437011719 C -204.9638366699219 73.53765869140625 -204.9721984863281 73.54663848876953 -204.9806365966797 73.55556488037109 L -205.0075225830078 73.58385467529297 C -205.0803833007812 73.66017913818359 -205.1343841552734 73.71831512451172 -205.1798553466797 73.76918029785156 C -205.18896484375 73.77947235107422 -205.1979064941406 73.78993988037109 -205.2068481445312 73.80036926269531 C -205.2187957763672 73.81428527832031 -205.2307434082031 73.82816314697266 -205.2427825927734 73.84190368652344 C -205.2946014404297 73.90177917480469 -205.3494110107422 73.96572875976562 -205.4029541015625 74.03187561035156 C -205.4150238037109 74.04663848876953 -205.4265899658203 74.06172180175781 -205.4382476806641 74.07674407958984 L -205.4609069824219 74.10584259033203 L -205.4624786376953 74.10787200927734 L -205.4640808105469 74.10987854003906 C -205.5212554931641 74.18218231201172 -205.5671234130859 74.24192047119141 -205.6078033447266 74.29708099365234 C -205.6178436279297 74.31071472167969 -205.6274871826172 74.32460021972656 -205.6371765136719 74.33843231201172 C -205.6492462158203 74.35564422607422 -205.6613464355469 74.37283325195312 -205.6720733642578 74.38774871826172 C -205.7124481201172 74.44427490234375 -205.7594604492188 74.51065063476562 -205.8038787841797 74.57744598388672 C -205.8160095214844 74.59554290771484 -205.8274536132812 74.61392211914062 -205.8390045166016 74.63225555419922 L -205.8655242919922 74.67413330078125 L -205.8671264648438 74.67661285400391 L -205.8687133789062 74.67908477783203 C -205.9040985107422 74.73374176025391 -205.9454040527344 74.79820251464844 -205.9852752685547 74.86483001708984 C -205.9979553222656 74.88587951660156 -206.0099182128906 74.90721130371094 -206.0220031738281 74.92851257324219 L -206.0469970703125 74.97238922119141 L -206.0636749267578 75.00143432617188 C -206.0933685302734 75.05313873291016 -206.1232147216797 75.10478973388672 -206.1517028808594 75.15816497802734 C -206.1648864746094 75.18282318115234 -206.1774139404297 75.20779418945312 -206.1900024414062 75.23267364501953 L -206.2132568359375 75.27843475341797 L -206.2361755371094 75.32339477539062 C -206.2600860595703 75.37023162841797 -206.2840576171875 75.41691589355469 -206.3073577880859 75.46588897705078 C -206.321044921875 75.49457550048828 -206.3338470458984 75.52378082275391 -206.3467712402344 75.55299377441406 L -206.3654022216797 75.59494018554688 L -206.3665008544922 75.59738922119141 L -206.3676147460938 75.59984588623047 L -206.3820953369141 75.63177490234375 C -206.4038848876953 75.67967987060547 -206.4259338378906 75.72774505615234 -206.4461975097656 75.77656555175781 L -206.4472961425781 75.77921295166016 L -206.4483947753906 75.78185272216797 C -206.4599456787109 75.80918884277344 -206.4705505371094 75.83707427978516 -206.4813232421875 75.86492919921875 L -206.5035095214844 75.92195892333984 L -206.5226745605469 75.97061920166016 C -206.5395355224609 76.01331329345703 -206.5565948486328 76.05609130859375 -206.5733947753906 76.10262298583984 C -206.5843658447266 76.13272094726562 -206.5943450927734 76.16326141357422 -206.6044311523438 76.19367218017578 L -206.62451171875 76.25376892089844 L -206.6258087158203 76.25760650634766 L -206.6262817382812 76.259033203125 L -206.6262817382812 76.259033203125 L -206.6462249755859 76.31813049316406 C -206.6586608886719 76.35475158691406 -206.6712341308594 76.39130401611328 -206.6833190917969 76.43080902099609 C -206.6941833496094 76.46601867675781 -206.7038269042969 76.50154113769531 -206.7135925292969 76.53703308105469 L -206.7302703857422 76.59711456298828 L -206.749755859375 76.66548156738281 C -206.7595672607422 76.69961547851562 -206.7695159912109 76.73374938964844 -206.7774963378906 76.76486206054688 C -206.7872161865234 76.80332183837891 -206.7956848144531 76.84207916259766 -206.8043060302734 76.88082885742188 L -206.8187561035156 76.9453125 C -206.8239135742188 76.96802520751953 -206.8292236328125 76.99066162109375 -206.8345489501953 77.01328277587891 C -206.8420257568359 77.04507446289062 -206.8496704101562 77.0767822265625 -206.8566589355469 77.11161041259766 C -206.8648529052734 77.15189361572266 -206.8715972900391 77.19258117675781 -206.8785247802734 77.23334503173828 L -206.8903961181641 77.30237579345703 C -206.8943634033203 77.32494354248047 -206.8984985351562 77.34745025634766 -206.9026336669922 77.36996459960938 C -206.9082489013672 77.40042114257812 -206.9140014648438 77.43085479736328 -206.9187774658203 77.46221923828125 C -206.9259796142578 77.50923919677734 -206.9314270019531 77.55680847167969 -206.9370574951172 77.60441589355469 L -206.9440002441406 77.66252899169922 C -206.947265625 77.69009399414062 -206.9508666992188 77.71752166748047 -206.9544830322266 77.74491882324219 C -206.9577026367188 77.7694091796875 -206.9610748291016 77.79386138916016 -206.9633636474609 77.816162109375 C -206.9695434570312 77.87796020507812 -206.9740753173828 77.94694519042969 -206.9788360595703 78.01995849609375 L -206.9811248779297 78.05445861816406 C -206.9827728271484 78.07785034179688 -206.9846954345703 78.10111999511719 -206.9866638183594 78.12437438964844 C -206.9882049560547 78.14271545410156 -206.9899139404297 78.16102600097656 -206.9907531738281 78.17733001708984 C -206.9968872070312 78.30194091796875 -207 78.42572021484375 -207 78.54523468017578 C -207 82.50542449951172 -203.7783508300781 85.72727203369141 -199.8181915283203 85.72727203369141 L -189.3352355957031 85.72727203369141 L -182.5454559326172 85.72727203369141 C -182.4585571289062 85.72727203369141 -182.3659210205078 85.72385406494141 -182.2784729003906 85.72034454345703 L -182.2584533691406 85.71954345703125 L -182.2384185791016 85.71954345703125 L -173.5090942382812 85.71954345703125 L -173.4835052490234 85.71954345703125 L -173.4579772949219 85.72085571289062 C -173.3735504150391 85.72517395019531 -173.2981567382812 85.72727203369141 -173.2274932861328 85.72727203369141 L -173.2272796630859 85.72727203369141 M -173.2272796630859 86.72727203369141 L -173.2274932861328 86.72727203369141 C -173.3220520019531 86.72727203369141 -173.4159088134766 86.72431182861328 -173.5090942382812 86.71954345703125 L -182.2384185791016 86.71954345703125 C -182.3404541015625 86.7236328125 -182.4425048828125 86.72727203369141 -182.5454559326172 86.72727203369141 L -189.3352355957031 86.72727203369141 L -199.8181915283203 86.72727203369141 L -199.8184051513672 86.72727203369141 C -204.3368225097656 86.72727203369141 -208 83.06409454345703 -208 78.54523468017578 C -208 78.40544891357422 -207.9963531494141 78.26636505126953 -207.9895477294922 78.12818145751953 C -207.987060546875 78.07977294921875 -207.9820404052734 78.03227233886719 -207.9786376953125 77.98408508300781 C -207.9727478027344 77.894775390625 -207.9672698974609 77.80522918701172 -207.9584045410156 77.71659088134766 C -207.9525146484375 77.65909576416016 -207.9438629150391 77.60227966308594 -207.9370422363281 77.54476928710938 C -207.9275054931641 77.46659088134766 -207.9190979003906 77.38818359375 -207.9072723388672 77.31090545654297 C -207.89794921875 77.24977111816406 -207.8859252929688 77.18955230712891 -207.8752288818359 77.12887573242188 C -207.8625030517578 77.05636596679688 -207.8511505126953 76.98386383056641 -207.8365936279297 76.91228485107422 C -207.8238677978516 76.84886169433594 -207.8081817626953 76.78659057617188 -207.7938690185547 76.72364044189453 C -207.7784118652344 76.65568542480469 -207.7640991210938 76.58750152587891 -207.7470550537109 76.51998901367188 C -207.7304534912109 76.45522308349609 -207.7111358642578 76.39136505126953 -207.6931762695312 76.3272705078125 C -207.6752166748047 76.26340484619141 -207.6584167480469 76.19932556152344 -207.6388549804688 76.13591003417969 C -207.618408203125 76.069091796875 -207.5952301025391 76.00363922119141 -207.5731811523438 75.9375 C -207.5531921386719 75.87863159179688 -207.5343170166016 75.81886291503906 -207.5129547119141 75.76022338867188 C -207.4881896972656 75.69158935546875 -207.4609222412109 75.62432098388672 -207.4345550537109 75.55704498291016 C -207.4129638671875 75.50228118896484 -207.3925018310547 75.44704437255859 -207.3697814941406 75.39318084716797 C -207.3409118652344 75.32363128662109 -207.309326171875 75.25521850585938 -207.2784271240234 75.18704223632812 C -207.2556915283203 75.13613891601562 -207.233642578125 75.08499908447266 -207.2097625732422 75.03498840332031 C -207.1761474609375 74.96432495117188 -207.1402282714844 74.89522552490234 -207.1047821044922 74.82545471191406 C -207.0811462402344 74.77931976318359 -207.0581817626953 74.73271942138672 -207.0336456298828 74.68682098388672 C -206.9954528808594 74.61521911621094 -206.9547882080078 74.54521942138672 -206.9145355224609 74.47499847412109 C -206.8902435302734 74.43273162841797 -206.8668212890625 74.39023590087891 -206.8415985107422 74.34841156005859 C -206.7986450195312 74.27658843994141 -206.7536468505859 74.20590972900391 -206.7081909179688 74.13568115234375 C -206.6836395263672 74.09725952148438 -206.6600036621094 74.05863952636719 -206.6345520019531 74.02067565917969 C -206.5863494873047 73.94818878173828 -206.5363616943359 73.87727355957031 -206.4856872558594 73.80636596679688 C -206.4613647460938 73.77249908447266 -206.4379425048828 73.73795318603516 -206.4131774902344 73.70431518554688 C -206.3595428466797 73.631591796875 -206.3043212890625 73.56023406982422 -206.2484130859375 73.48954010009766 C -206.2247619628906 73.45932006835938 -206.2015991210938 73.42885589599609 -206.1772766113281 73.39909362792969 C -206.1184234619141 73.32636260986328 -206.0577392578125 73.25545501708984 -205.9963684082031 73.18455505371094 C -205.9736328125 73.15864562988281 -205.9513702392578 73.13204193115234 -205.9284210205078 73.10613250732422 C -205.8638610839844 73.03385925292969 -205.7977294921875 72.96340942382812 -205.7309265136719 72.89342498779297 C -205.7090911865234 72.87068176269531 -205.6879577636719 72.84773254394531 -205.6656799316406 72.82523345947266 C -205.5959167480469 72.75408935546875 -205.5243225097656 72.68431854248047 -205.4520416259766 72.61545562744141 C -205.4316101074219 72.59614562988281 -205.4115905761719 72.57636260986328 -205.3909149169922 72.55727386474609 C -205.3154602050781 72.48705291748047 -205.2384033203125 72.41841125488281 -205.1600036621094 72.35089874267578 C -205.1413726806641 72.33499908447266 -205.1231689453125 72.31864166259766 -205.1043090820312 72.30271911621094 C -205.0229644775391 72.23363494873047 -204.9402313232422 72.16704559326172 -204.8561401367188 72.10136413574219 C -204.8395538330078 72.08795166015625 -204.8227386474609 72.07453918457031 -204.805908203125 72.06159210205078 C -204.7190856933594 71.99477386474609 -204.6306762695312 71.93000030517578 -204.5413665771484 71.86659240722656 C -204.5261383056641 71.85569000244141 -204.5111389160156 71.84499359130859 -204.4961395263672 71.83454895019531 C -204.4040832519531 71.77022552490234 -204.3104705810547 71.70795440673828 -204.2156829833984 71.64727020263672 C -204.2022857666016 71.63886260986328 -204.1888580322266 71.63021850585938 -204.1756896972656 71.62158966064453 C -204.0783996582031 71.56045532226562 -203.9795379638672 71.50136566162109 -203.8795318603516 71.444091796875 C -203.8679656982422 71.43751525878906 -203.8565979003906 71.43046569824219 -203.8447723388672 71.42385864257812 C -203.7425079345703 71.36590576171875 -203.6386413574219 71.31021881103516 -203.5336303710938 71.25682067871094 C -203.5240936279297 71.25157928466797 -203.5143280029297 71.24658966064453 -203.5045623779297 71.24159240722656 C -203.3972930908203 71.1875 -203.2886505126953 71.13568878173828 -203.1786346435547 71.08613586425781 C -203.1706848144531 71.08228302001953 -203.1625061035156 71.07886505126953 -203.1545562744141 71.07523345947266 C -203.042724609375 71.02500152587891 -202.9295501708984 70.97750091552734 -202.8152313232422 70.93250274658203 C -202.8086547851562 70.93000030517578 -202.8020477294922 70.92726898193359 -202.7954559326172 70.92477416992188 C -202.6795501708984 70.87955474853516 -202.5622863769531 70.83681488037109 -202.4436340332031 70.79658508300781 C -202.4384002685547 70.79476928710938 -202.4331970214844 70.79295349121094 -202.427734375 70.79114532470703 C -202.3079528808594 70.75091552734375 -202.1868286132812 70.71318054199219 -202.0645446777344 70.67841339111328 C -202.0602264404297 70.67726898193359 -202.0563659667969 70.67613983154297 -202.0520477294922 70.67475891113281 C -201.9286346435547 70.63999938964844 -201.8040771484375 70.60771942138672 -201.6784057617188 70.57841491699219 C -201.6750030517578 70.57772064208984 -201.6715850830078 70.57728576660156 -201.6684265136719 70.57613372802734 C -201.5420379638672 70.54705047607422 -201.41455078125 70.52068328857422 -201.2859191894531 70.49750518798828 L -201.2768096923828 70.49591064453125 C -201.14794921875 70.47250366210938 -201.0179443359375 70.45249938964844 -200.8870391845703 70.43523406982422 C -200.8843231201172 70.43523406982422 -200.8816070556641 70.43476867675781 -200.8788604736328 70.43408966064453 C -200.7475128173828 70.41727447509766 -200.6154479980469 70.40341186523438 -200.4825134277344 70.39273071289062 L -200.4740905761719 70.39204406738281 C -200.3411254882812 70.38159942626953 -200.2075042724609 70.37432098388672 -200.0727233886719 70.37000274658203 L -200.0688781738281 70.36977386474609 L -200.0686492919922 70.36930847167969 C -199.91455078125 69.68796539306641 -199.6756896972656 69.03932189941406 -199.3631896972656 68.43431854248047 L -199.3579559326172 68.42385864257812 C -199.3077239990234 68.32704162597656 -199.2556762695312 68.23136138916016 -199.2018280029297 68.13682556152344 C -199.1979522705078 68.13045501708984 -199.1943359375 68.12409210205078 -199.1906890869141 68.11727142333984 C -199.1361389160156 68.02249145507812 -199.0802307128906 67.92886352539062 -199.0222930908203 67.83658599853516 L -199.0218200683594 67.83591461181641 C -198.7834167480469 67.45658874511719 -198.5152282714844 67.09818267822266 -198.2195434570312 66.76409149169922 C -198.2152404785156 66.75909423828125 -198.2109069824219 66.75386047363281 -198.2066040039062 66.74908447265625 C -198.1434173583984 66.67795562744141 -198.0786437988281 66.60863494873047 -198.01318359375 66.54000854492188 C -197.9952392578125 66.52114105224609 -197.9772796630859 66.50204467773438 -197.9588623046875 66.48318481445312 C -197.8979644775391 66.42023468017578 -197.8359069824219 66.358642578125 -197.77294921875 66.29772186279297 C -197.7490997314453 66.27500152587891 -197.7252349853516 66.25205230712891 -197.7011413574219 66.22930908203125 C -197.6395416259766 66.17136383056641 -197.5775146484375 66.11408996582031 -197.5143280029297 66.05818176269531 C -197.4881896972656 66.03500366210938 -197.4615936279297 66.01227569580078 -197.4352264404297 65.98954010009766 C -197.3713531494141 65.93455505371094 -197.3074951171875 65.87977600097656 -197.2420654296875 65.82636260986328 C -197.2188720703125 65.80750274658203 -197.1947784423828 65.78955078125 -197.1713714599609 65.77090454101562 C -196.957275390625 65.60089874267578 -196.7343139648438 65.44182586669922 -196.5036468505859 65.29341125488281 C -196.4629516601562 65.26749420166016 -196.4227294921875 65.24090576171875 -196.381591796875 65.2154541015625 C -196.3243103027344 65.18000030517578 -196.2661437988281 65.14614105224609 -196.2077331542969 65.11227416992188 C -196.1590881347656 65.0838623046875 -196.1102294921875 65.05546569824219 -196.0609130859375 65.02773284912109 C -196.0050048828125 64.99681854248047 -195.9484100341797 64.96659088134766 -195.8915863037109 64.93659210205078 C -195.8379516601562 64.90840911865234 -195.7840881347656 64.88090515136719 -195.7297668457031 64.85387420654297 C -195.6747894287109 64.82636260986328 -195.6193237304688 64.79954528808594 -195.5636444091797 64.77318572998047 C -195.5047760009766 64.74545288085938 -195.4456787109375 64.71908569335938 -195.3861389160156 64.69295501708984 C -195.3329467773438 64.6693115234375 -195.2799987792969 64.64591217041016 -195.2263641357422 64.6234130859375 C -195.1581878662109 64.59523010253906 -195.0893249511719 64.56886291503906 -195.0204467773438 64.54250335693359 C -194.9736328125 64.52454376220703 -194.9272766113281 64.50568389892578 -194.8802185058594 64.48818206787109 C -194.7659149169922 64.44704437255859 -194.6506958007812 64.40772247314453 -194.5340881347656 64.37136077880859 C -194.5025024414062 64.36135864257812 -194.4704437255859 64.35317993164062 -194.4388580322266 64.34363555908203 C -194.3497619628906 64.31705474853516 -194.260009765625 64.29090881347656 -194.1695404052734 64.26728057861328 C -194.1231842041016 64.2550048828125 -194.0763702392578 64.24430847167969 -194.0297698974609 64.23295593261719 C -193.9527282714844 64.21432495117188 -193.8754730224609 64.19612884521484 -193.7977294921875 64.17954254150391 C -193.7472839355469 64.16886138916016 -193.6965942382812 64.15909576416016 -193.6459045410156 64.14931488037109 C -193.5697784423828 64.13477325439453 -193.49365234375 64.12090301513672 -193.4168243408203 64.10863494873047 C -193.3654632568359 64.09999847412109 -193.3143157958984 64.09228515625 -193.2627258300781 64.08478546142578 C -193.18408203125 64.07341003417969 -193.1047821044922 64.06364440917969 -193.0254516601562 64.05454254150391 C -192.9759216308594 64.04909515380859 -192.9261322021484 64.04319000244141 -192.8761444091797 64.03839874267578 C -192.7890930175781 64.02999877929688 -192.7015991210938 64.02386474609375 -192.6138763427734 64.01840972900391 C -192.5711517333984 64.01567840576172 -192.5286407470703 64.01203918457031 -192.4856872558594 64.00999450683594 C -192.3550109863281 64.00387573242188 -192.2234191894531 64 -192.0911407470703 64 C -191.9581909179688 64 -191.8261260986328 64.00387573242188 -191.6947784423828 64.00999450683594 C -191.6513671875 64.01203918457031 -191.6083984375 64.01567840576172 -191.5654602050781 64.01863098144531 C -191.4775085449219 64.02409362792969 -191.3897857666016 64.03023529052734 -191.3025054931641 64.03863525390625 C -191.2522735595703 64.04341125488281 -191.2022705078125 64.04955291748047 -191.1520385742188 64.05522918701172 C -191.0727386474609 64.06431579589844 -190.993408203125 64.07410430908203 -190.9145355224609 64.08544921875 C -190.8627319335938 64.09294891357422 -190.8109130859375 64.10113525390625 -190.7593231201172 64.10955047607422 C -190.6824951171875 64.12203979492188 -190.6059112548828 64.13590240478516 -190.52978515625 64.15045166015625 C -190.4788665771484 64.16046142578125 -190.4279632568359 64.17045593261719 -190.3772735595703 64.18114471435547 C -190.2999877929688 64.19772338867188 -190.2229614257812 64.21567535400391 -190.1463623046875 64.23432159423828 C -190.098876953125 64.24613952636719 -190.0511322021484 64.25727081298828 -190.0038604736328 64.26953887939453 C -189.9202270507812 64.29159545898438 -189.8372650146484 64.31591033935547 -189.7545471191406 64.3404541015625 C -189.7156829833984 64.35204315185547 -189.6765899658203 64.36250305175781 -189.63818359375 64.37454223632812 C -189.5186309814453 64.41228485107422 -189.4000091552734 64.45182037353516 -189.282958984375 64.49477386474609 C -189.2627258300781 64.50204467773438 -189.2431793212891 64.51045989990234 -189.2234039306641 64.51795959472656 C -189.1259155273438 64.55455017089844 -189.0290985107422 64.592041015625 -188.9334106445312 64.63204956054688 C -188.8904571533203 64.65023040771484 -188.8481903076172 64.66978454589844 -188.8056793212891 64.68841552734375 C -188.7338714599609 64.72000122070312 -188.6625061035156 64.75159454345703 -188.592041015625 64.78500366210938 C -188.5445404052734 64.8074951171875 -188.4979553222656 64.83090972900391 -188.4509124755859 64.85432434082031 C -188.3863677978516 64.88636016845703 -188.3220520019531 64.91909027099609 -188.2586517333984 64.95273590087891 C -188.2104644775391 64.97864532470703 -188.1627197265625 65.00455474853516 -188.115234375 65.03113555908203 C -188.0538635253906 65.06545257568359 -187.9931793212891 65.1002197265625 -187.9329528808594 65.13591003417969 C -187.8856811523438 65.16386413574219 -187.8384094238281 65.19182586669922 -187.7918243408203 65.22069549560547 C -187.7320404052734 65.25772857666016 -187.6729583740234 65.29613494873047 -187.6143188476562 65.33454132080078 C -187.569091796875 65.36408996582031 -187.5238800048828 65.39318084716797 -187.4793243408203 65.42364501953125 C -187.4181976318359 65.4654541015625 -187.3579559326172 65.50931549072266 -187.2977294921875 65.55295562744141 C -187.2577209472656 65.58182525634766 -187.2172698974609 65.60977172851562 -187.1779479980469 65.63932037353516 C -187.0831756591797 65.71068572998047 -186.9897766113281 65.78385925292969 -186.898193359375 65.85909271240234 C -186.8606872558594 65.88978576660156 -186.8247833251953 65.92227172851562 -186.7879486083984 65.95386505126953 C -186.7315979003906 66.00181579589844 -186.6750030517578 66.04977416992188 -186.6199951171875 66.09909057617188 C -186.5768127441406 66.13795471191406 -186.5347747802734 66.17840576171875 -186.4925079345703 66.21818542480469 C -186.4456787109375 66.26227569580078 -186.3986511230469 66.30614471435547 -186.3529663085938 66.35136413574219 C -186.309326171875 66.39385986328125 -186.2670440673828 66.43772888183594 -186.2245483398438 66.48136901855469 C -186.1815948486328 66.52523040771484 -186.1393127441406 66.56977081298828 -186.0972747802734 66.61476898193359 C -186.0547790527344 66.66046142578125 -186.0129547119141 66.70682525634766 -185.9713592529297 66.75341033935547 C -185.9315948486328 66.79840850830078 -185.8927307128906 66.84339904785156 -185.8540954589844 66.88887023925781 C -185.8129425048828 66.9375 -185.7718200683594 66.98614501953125 -185.7318267822266 67.03545379638672 C -185.6947784423828 67.08113861083984 -185.6591033935547 67.12749481201172 -185.6231842041016 67.17385864257812 C -185.5836334228516 67.22499847412109 -185.5438690185547 67.27545166015625 -185.5054626464844 67.32749938964844 C -185.4715881347656 67.3734130859375 -185.4391021728516 67.42045593261719 -185.4061431884766 67.46726989746094 C -185.2615966796875 67.67136383056641 -185.1266021728516 67.88272094726562 -185.0011444091797 68.10023498535156 C -184.9750061035156 68.14545440673828 -184.9481964111328 68.19045257568359 -184.9229583740234 68.23614501953125 C -184.8893127441406 68.29727172851562 -184.8572845458984 68.35955047607422 -184.8250122070312 68.42137145996094 C -184.8006896972656 68.46863555908203 -184.7759094238281 68.51591491699219 -184.7522735595703 68.56362915039062 C -184.7211456298828 68.62636566162109 -184.6916046142578 68.68999481201172 -184.6622619628906 68.75341033935547 C -184.6397705078125 68.80181884765625 -184.6177368164062 68.85023498535156 -184.5963745117188 68.89908599853516 C -184.5679626464844 68.96364593505859 -184.5404510498047 69.02886199951172 -184.5136413574219 69.09431457519531 C -184.4938659667969 69.14295196533203 -184.4747772216797 69.19205474853516 -184.4559173583984 69.24090576171875 C -184.4300079345703 69.30795288085938 -184.4045562744141 69.37522888183594 -184.3802337646484 69.44295501708984 C -184.3631896972656 69.49137115478516 -184.3472747802734 69.53999328613281 -184.3311462402344 69.58864593505859 C -184.3077239990234 69.65864562988281 -184.2840881347656 69.72840881347656 -184.2627258300781 69.79932403564453 C -184.2493133544922 69.84273529052734 -184.2377166748047 69.88682556152344 -184.2254638671875 69.93069458007812 C -184.0534210205078 70.53250122070312 -183.947265625 71.16205596923828 -183.9184112548828 71.81204986572266 C -183.0238647460938 71.0345458984375 -181.8943176269531 70.52046203613281 -180.6495513916016 70.39408874511719 C -180.4509124755859 70.37408447265625 -180.2495574951172 70.36363983154297 -180.0454559326172 70.36363983154297 C -179.8413543701172 70.36363983154297 -179.6399993896484 70.37408447265625 -179.4413604736328 70.39408874511719 C -176.4613647460938 70.69681549072266 -174.1363677978516 73.21318054199219 -174.1363677978516 76.27273559570312 L -174.1363677978516 76.27294921875 C -174.1363677978516 76.30000305175781 -174.1379547119141 76.32636260986328 -174.1384124755859 76.35340881347656 C -173.8425140380859 76.30136108398438 -173.5384063720703 76.27273559570312 -173.2274932861328 76.27273559570312 L -173.2272796630859 76.27273559570312 C -170.4304656982422 76.27273559570312 -168.1465911865234 78.46886444091797 -168.0068206787109 81.23091125488281 C -168.0022735595703 81.31999969482422 -168 81.40977478027344 -168 81.5 C -168 81.59023284912109 -168.0022735595703 81.68000030517578 -168.0068206787109 81.76908874511719 C -168.1402282714844 84.40069580078125 -170.2202453613281 86.51704406738281 -172.8352203369141 86.71113586425781 L -172.8352203369141 86.71932220458984 L -172.8352203369141 86.71954345703125 L -172.9454650878906 86.71954345703125 C -173.0388641357422 86.72431182861328 -173.1327209472656 86.72727203369141 -173.2272796630859 86.72727203369141 Z" stroke="none" fill="#c9c9c9"/>
    </g>
  </g>
</svg>
