<svg xmlns="http://www.w3.org/2000/svg" width="40" height="40" viewBox="0 0 40 40">
  <g id="_4t" data-name="4t" transform="translate(-11 -12)">
    <g id="Caminho_7496" data-name="Caminho 7496" transform="translate(-47.489 -19.671)" fill="#ffe269" stroke-miterlimit="10">
      <path d="M 82.57942199707031 57.20404815673828 C 77.27304840087891 57.20404815673828 72.95600891113281 52.88690948486328 72.95600891113281 47.58041763305664 C 72.95600891113281 42.2740478515625 77.27304840087891 37.95700836181641 82.57942199707031 37.95700836181641 C 87.88591003417969 37.95700836181641 92.20304870605469 42.2740478515625 92.20304870605469 47.58041763305664 C 92.20304870605469 52.88690948486328 87.88591003417969 57.20404815673828 82.57942199707031 57.20404815673828 Z" stroke="none"/>
      <path d="M 82.57942199707031 38.45700836181641 C 77.54875183105469 38.45700836181641 73.45600891113281 42.54974746704102 73.45600891113281 47.58041763305664 C 73.45600891113281 52.61120986938477 77.54875183105469 56.70404815673828 82.57942199707031 56.70404815673828 C 87.61020660400391 56.70404815673828 91.70304870605469 52.61120986938477 91.70304870605469 47.58041763305664 C 91.70304870605469 42.54974746704102 87.61020660400391 38.45700836181641 82.57942199707031 38.45700836181641 M 82.57942199707031 37.45700836181641 C 88.17100524902344 37.45700836181641 92.70304870605469 41.98927688598633 92.70304870605469 47.58041763305664 C 92.70304870605469 53.17177963256836 88.17100524902344 57.70404815673828 82.57942199707031 57.70404815673828 C 76.98805236816406 57.70404815673828 72.45600891113281 53.17177963256836 72.45600891113281 47.58041763305664 C 72.45600891113281 41.98927688598633 76.98805236816406 37.45700836181641 82.57942199707031 37.45700836181641 Z" stroke="none" fill="#fecb2f"/>
    </g>
    <path id="Caminho_7497" data-name="Caminho 7497" d="M114.4,15.419a1.013,1.013,0,0,1-1.085.92h0a1.013,1.013,0,0,1-1.084-.92v-2.5a1.012,1.012,0,0,1,1.084-.92h0a1.013,1.013,0,0,1,1.085.92Z" transform="translate(-78.222)" fill="#fecb2f"/>
    <path id="Caminho_7498" data-name="Caminho 7498" d="M115.4,136.327a1.013,1.013,0,0,1-1.085.92h0a1.013,1.013,0,0,1-1.084-.92v-2.5a1.013,1.013,0,0,1,1.084-.92h0a1.013,1.013,0,0,1,1.085.92Z" transform="translate(-78.994 -93.429)" fill="#fecb2f"/>
    <path id="Caminho_7499" data-name="Caminho 7499" d="M153.207,34.479a1.014,1.014,0,0,1-1.417-.116h0a1.014,1.014,0,0,1-.116-1.418l1.767-1.767a1.012,1.012,0,0,1,1.418.116h0a1.012,1.012,0,0,1,.116,1.418Z" transform="translate(-108.518 -14.635)" fill="#fecb2f"/>
    <path id="Caminho_7500" data-name="Caminho 7500" d="M68.711,119.975a1.012,1.012,0,0,1-1.417-.116h0a1.012,1.012,0,0,1-.116-1.418l1.767-1.767a1.013,1.013,0,0,1,1.418.116h0a1.013,1.013,0,0,1,.116,1.417Z" transform="translate(-43.225 -80.7)" fill="#fecb2f"/>
    <path id="Caminho_7501" data-name="Caminho 7501" d="M168.826,79.4a1.013,1.013,0,0,1-.92-1.085h0a1.013,1.013,0,0,1,.92-1.084h2.5a1.013,1.013,0,0,1,.92,1.085h0a1.013,1.013,0,0,1-.92,1.085Z" transform="translate(-121.246 -50.403)" fill="#fecb2f"/>
    <path id="Caminho_7502" data-name="Caminho 7502" d="M47.92,79.4A1.013,1.013,0,0,1,47,78.313h0a1.013,1.013,0,0,1,.92-1.085h2.5a1.013,1.013,0,0,1,.92,1.084h0a1.013,1.013,0,0,1-.92,1.085Z" transform="translate(-27.818 -50.403)" fill="#fecb2f"/>
    <path id="Caminho_7503" data-name="Caminho 7503" d="M151.673,118.208a1.013,1.013,0,0,1,.116-1.418h0a1.014,1.014,0,0,1,1.418-.116l1.767,1.767a1.013,1.013,0,0,1-.117,1.418h0a1.013,1.013,0,0,1-1.418.116Z" transform="translate(-108.518 -80.701)" fill="#fecb2f"/>
    <path id="Caminho_7504" data-name="Caminho 7504" d="M66.177,32.712a1.012,1.012,0,0,1,.116-1.418h0a1.012,1.012,0,0,1,1.418-.116l1.767,1.767a1.014,1.014,0,0,1-.117,1.418h0a1.014,1.014,0,0,1-1.418.116Z" transform="translate(-42.452 -14.635)" fill="#fecb2f"/>
    <g id="Grupo_8630" data-name="Grupo 8630" transform="translate(13.91 48.275)">
      <path id="Caminho_7505" data-name="Caminho 7505" d="M25.95,171.9,24.1,173.756a.911.911,0,1,0,1.286,1.286l1.852-1.852A.911.911,0,1,0,25.95,171.9Z" transform="translate(-23.805 -171.61)" fill="#c9c9c9"/>
      <path id="Caminho_7506" data-name="Caminho 7506" d="M107.275,171.866a.938.938,0,0,0-1.324.038l-1.852,1.852a.911.911,0,1,0,1.286,1.286l1.852-1.852A.938.938,0,0,0,107.275,171.866Z" transform="translate(-85.623 -171.61)" fill="#c9c9c9"/>
      <path id="Caminho_7507" data-name="Caminho 7507" d="M79.284,171.9l-1.851,1.852a.911.911,0,1,0,1.285,1.286l1.852-1.852a.911.911,0,1,0-1.286-1.286Z" transform="translate(-65.017 -171.61)" fill="#c9c9c9"/>
    </g>
    <g id="Caminho_7508" data-name="Caminho 7508" transform="translate(0 -40.182)" fill="#f2f2f2" stroke-miterlimit="10">
      <path d="M 36.39114379882812 86.19000244140625 L 19.18037796020508 86.19000244140625 L 19.04108428955078 86.18843078613281 C 17.02322387695312 86.172119140625 15.12876415252686 85.37421417236328 13.70666408538818 83.94165802001953 C 12.2836742401123 82.50822448730469 11.50000381469727 80.60625457763672 11.50000381469727 78.58612823486328 C 11.50000381469727 74.39372253417969 14.91088390350342 70.98294830322266 19.10341453552246 70.98294830322266 C 19.13004302978516 70.98294830322266 19.15640449523926 70.98389434814453 19.18278312683105 70.98474884033203 C 19.2074146270752 70.98554992675781 19.2320442199707 70.986328125 19.25681304931641 70.98674774169922 L 19.6727237701416 70.99375152587891 L 19.75528335571289 70.58605194091797 C 20.09823417663574 68.89230346679688 21.02507400512695 67.34918212890625 22.36507415771484 66.24095153808594 C 23.7225341796875 65.11827850341797 25.4420337677002 64.5 27.20681381225586 64.5 C 31.23791313171387 64.5 34.57218551635742 67.64994812011719 34.79759216308594 71.67115783691406 L 34.82815551757812 72.21632385253906 L 35.36852264404297 72.13800811767578 C 35.71010208129883 72.08850860595703 36.05416488647461 72.06340789794922 36.39114379882812 72.06340789794922 C 40.28591537475586 72.06340789794922 43.45454406738281 75.23184204101562 43.45454406738281 79.12635803222656 C 43.45454406738281 83.02126312255859 40.28591537475586 86.19000244140625 36.39114379882812 86.19000244140625 Z" stroke="none"/>
      <path d="M 27.20681381225586 65 C 23.84008407592773 65 20.9123649597168 67.39099884033203 20.24533462524414 70.68527221679688 L 20.08023452758789 71.50067901611328 L 19.24840545654297 71.48667907714844 C 19.22102355957031 71.48622131347656 19.19378280639648 71.48537445068359 19.16655349731445 71.48448944091797 C 19.14556503295898 71.48381042480469 19.12459564208984 71.48294830322266 19.1034049987793 71.48294830322266 C 15.18657302856445 71.48294830322266 12.00000381469727 74.66941833496094 12.00000381469727 78.58612823486328 C 12.00000381469727 80.473388671875 12.73212432861328 82.25025177001953 14.06150436401367 83.58940124511719 C 15.39009475708008 84.92774963378906 17.15997314453125 85.67321014404297 19.04512405395508 85.68843841552734 L 19.20614242553711 85.69000244140625 L 36.39114379882812 85.69000244140625 C 40.01021575927734 85.69000244140625 42.95454406738281 82.74555969238281 42.95454406738281 79.12635803222656 C 42.95454406738281 75.50753784179688 40.01021575927734 72.56340789794922 36.39114379882812 72.56340789794922 C 36.07808303833008 72.56340789794922 35.75814437866211 72.58676910400391 35.44023132324219 72.63284301757812 L 34.35950469970703 72.78945922851562 L 34.29838562011719 71.69915008544922 C 34.08780670166016 67.94261932373047 30.97282409667969 65 27.20681381225586 65 M 27.20681381225586 64 C 31.5279541015625 64 35.05795288085938 67.38204193115234 35.29681396484375 71.64318084716797 C 35.65432357788086 71.59136962890625 36.01932525634766 71.56340789794922 36.39114379882812 71.56340789794922 C 40.56864166259766 71.56340789794922 43.95454406738281 74.94953918457031 43.95454406738281 79.12635803222656 C 43.95454406738281 83.30386352539062 40.56864166259766 86.69000244140625 36.39114379882812 86.69000244140625 L 19.03704452514648 86.69000244140625 L 19.03704452514648 86.68840789794922 C 14.59249496459961 86.65248870849609 11.00000381469727 83.03977203369141 11.00000381469727 78.58612823486328 C 11.00000381469727 74.11090850830078 14.6281852722168 70.48294830322266 19.1034049987793 70.48294830322266 C 19.15772247314453 70.48294830322266 19.21114349365234 70.48590850830078 19.26522445678711 70.48682403564453 C 20.01454544067383 66.7861328125 23.28522300720215 64 27.20681381225586 64 Z" stroke="none" fill="#c9c9c9"/>
    </g>
    <g id="Grupo_8631" data-name="Grupo 8631" transform="translate(18.537 36.545)">
      <g id="Caminho_7509" data-name="Caminho 7509" transform="translate(-44.162 -120)" fill="#ffe269" stroke-miterlimit="10">
        <path d="M 49.74312973022461 128.5882873535156 L 49.92460632324219 128.2654876708984 L 48.84738159179688 127.5640258789062 L 49.00864028930664 127.4226760864258 L 50.09077835083008 127.9646606445312 L 50.3235969543457 128.0812683105469 L 49.74312973022461 128.5882873535156 Z" stroke="none"/>
        <path d="M 55.20129776000977 120 L 50.76249694824219 126.6234741210938 L 52.99347686767578 127.7408447265625 L 44.16219711303711 135.4547424316406 L 47.92831802368164 128.7555541992188 L 46.37001800537109 127.7408447265625 L 55.20129776000977 120 Z" stroke="none" fill="#fecb2f"/>
      </g>
    </g>
  </g>
</svg>
