<svg xmlns="http://www.w3.org/2000/svg" width="40" height="40" viewBox="0 0 40 40">
  <g id="_4tn" data-name="4tn" transform="translate(-11 -12)">
    <g id="Caminho_7510" data-name="Caminho 7510" transform="translate(-58.727)" fill="#fff" stroke-miterlimit="10">
      <path d="M 98.61341094970703 34.22727584838867 C 95.64490509033203 34.22727584838867 92.85409545898438 33.07130432128906 90.75506591796875 30.9722957611084 C 88.656005859375 28.87326622009277 87.50000762939453 26.08242607116699 87.50000762939453 23.11386680603027 C 87.50000762939453 20.68127632141113 88.27165985107422 18.37160682678223 89.73154449462891 16.4345760345459 C 90.95915985107422 14.8057279586792 92.63674926757812 13.53127861022949 94.52153015136719 12.78112030029297 C 94.33600616455078 13.63023090362549 94.24227905273438 14.49814224243164 94.24227905273438 15.37181568145752 C 94.24227905273438 18.60749626159668 95.50225067138672 21.64945602416992 97.79008483886719 23.93735694885254 C 100.0779037475586 26.2252368927002 103.1197357177734 27.48522567749023 106.3552398681641 27.48522567749023 C 107.2287979125977 27.48522567749023 108.0967788696289 27.39143371582031 108.9462203979492 27.20577049255371 C 108.1962280273438 29.09049606323242 106.9218215942383 30.7680835723877 105.2928771972656 31.99573516845703 C 103.3557891845703 33.45561599731445 101.0460586547852 34.22727584838867 98.61341094970703 34.22727584838867 Z" stroke="none"/>
      <path d="M 98.61341094970703 33.72727584838867 C 100.9365997314453 33.72727584838867 103.1422653198242 32.99044418334961 104.9919509887695 31.596435546875 C 106.3005981445312 30.61016845703125 107.3695678710938 29.32018089294434 108.1024703979492 27.8641357421875 C 107.5248413085938 27.94469261169434 106.941291809082 27.98522567749023 106.3552398681641 27.98522567749023 C 102.9861755371094 27.98522567749023 99.81878662109375 26.67322540283203 97.43653106689453 24.29090690612793 C 95.05426025390625 21.90856552124023 93.74227905273438 18.74104690551758 93.74227905273438 15.37181568145752 C 93.74227905273438 14.78582763671875 93.78278350830078 14.20227432250977 93.86324310302734 13.62488651275635 C 92.40715789794922 14.35789203643799 91.11708068847656 15.42692565917969 90.13083648681641 16.73550605773926 C 88.73683929443359 18.58513641357422 88.00000762939453 20.79073524475098 88.00000762939453 23.11386680603027 C 88.00000762939453 25.94886589050293 89.10399627685547 28.61415672302246 91.10861968994141 30.61874580383301 C 93.11320495605469 32.62331771850586 95.77846527099609 33.72727584838867 98.61341094970703 33.72727584838867 M 98.61341094970703 34.72727584838867 C 92.19955444335938 34.72727584838867 87.00000762939453 29.52795600891113 87.00000762939453 23.11386680603027 C 87.00000762939453 17.8731861114502 90.47227478027344 13.44522571563721 95.24113464355469 11.99999618530273 C 94.917724609375 13.06727600097656 94.74227905273438 14.19909572601318 94.74227905273438 15.37181568145752 C 94.74227905273438 21.78591537475586 99.94159698486328 26.98522567749023 106.3552398681641 26.98522567749023 C 107.5284042358398 26.98522567749023 108.6600036621094 26.80954551696777 109.7272796630859 26.48613548278809 C 108.2825012207031 31.25500679016113 103.8540954589844 34.72727584838867 98.61341094970703 34.72727584838867 Z" stroke="none" fill="#c9c9c9"/>
    </g>
    <g id="Grupo_8633" data-name="Grupo 8633" transform="translate(13.91 48.275)">
      <path id="Caminho_7511" data-name="Caminho 7511" d="M25.95,171.9,24.1,173.756a.911.911,0,1,0,1.286,1.286l1.852-1.852A.911.911,0,1,0,25.95,171.9Z" transform="translate(-23.805 -171.61)" fill="#c9c9c9"/>
      <path id="Caminho_7512" data-name="Caminho 7512" d="M107.275,171.865a.938.938,0,0,0-1.324.039l-1.852,1.852a.911.911,0,1,0,1.286,1.286l1.852-1.852A.938.938,0,0,0,107.275,171.865Z" transform="translate(-85.623 -171.61)" fill="#c9c9c9"/>
      <path id="Caminho_7513" data-name="Caminho 7513" d="M79.284,171.9l-1.851,1.852a.911.911,0,1,0,1.285,1.286l1.852-1.852a.911.911,0,1,0-1.286-1.286Z" transform="translate(-65.017 -171.61)" fill="#c9c9c9"/>
    </g>
    <g id="Caminho_7514" data-name="Caminho 7514" transform="translate(0 -40.182)" fill="#f2f2f2" stroke-miterlimit="10">
      <path d="M 36.39114379882812 86.19000244140625 L 19.18037796020508 86.19000244140625 L 19.04108428955078 86.18843078613281 C 17.02322387695312 86.172119140625 15.12876415252686 85.37421417236328 13.70666408538818 83.94165802001953 C 12.2836742401123 82.50822448730469 11.50000381469727 80.60625457763672 11.50000381469727 78.58612823486328 C 11.50000381469727 74.39372253417969 14.91088390350342 70.98294830322266 19.10341453552246 70.98294830322266 C 19.13004302978516 70.98294830322266 19.15640449523926 70.98389434814453 19.18278312683105 70.98474884033203 C 19.2074146270752 70.98554992675781 19.2320442199707 70.986328125 19.25681304931641 70.98674774169922 L 19.6727237701416 70.99375152587891 L 19.75528335571289 70.58605194091797 C 20.09823417663574 68.89230346679688 21.02507400512695 67.34918212890625 22.36507415771484 66.24095153808594 C 23.7225341796875 65.11827850341797 25.4420337677002 64.5 27.20681381225586 64.5 C 31.23791313171387 64.5 34.57218551635742 67.64994812011719 34.79759216308594 71.67115783691406 L 34.82815551757812 72.21632385253906 L 35.36852264404297 72.13800811767578 C 35.71010208129883 72.08850860595703 36.05416488647461 72.06340789794922 36.39114379882812 72.06340789794922 C 40.28591537475586 72.06340789794922 43.45454406738281 75.23184204101562 43.45454406738281 79.12635803222656 C 43.45454406738281 83.02126312255859 40.28591537475586 86.19000244140625 36.39114379882812 86.19000244140625 Z" stroke="none"/>
      <path d="M 27.20681381225586 65 C 23.84008407592773 65 20.9123649597168 67.39099884033203 20.24533462524414 70.68527221679688 L 20.08023452758789 71.50067901611328 L 19.24840545654297 71.48667907714844 C 19.22102355957031 71.48622131347656 19.19378280639648 71.48537445068359 19.16655349731445 71.48448944091797 C 19.14556503295898 71.48381042480469 19.12459564208984 71.48294830322266 19.1034049987793 71.48294830322266 C 15.18657302856445 71.48294830322266 12.00000381469727 74.66941833496094 12.00000381469727 78.58612823486328 C 12.00000381469727 80.473388671875 12.73212432861328 82.25025177001953 14.06150436401367 83.58940124511719 C 15.39009475708008 84.92774963378906 17.15997314453125 85.67321014404297 19.04512405395508 85.68843841552734 L 19.20614242553711 85.69000244140625 L 36.39114379882812 85.69000244140625 C 40.01021575927734 85.69000244140625 42.95454406738281 82.74555969238281 42.95454406738281 79.12635803222656 C 42.95454406738281 75.50753784179688 40.01021575927734 72.56340789794922 36.39114379882812 72.56340789794922 C 36.07808303833008 72.56340789794922 35.75814437866211 72.58676910400391 35.44023132324219 72.63284301757812 L 34.35950469970703 72.78945922851562 L 34.29838562011719 71.69915008544922 C 34.08780670166016 67.94261932373047 30.97282409667969 65 27.20681381225586 65 M 27.20681381225586 64 C 31.5279541015625 64 35.05795288085938 67.38204193115234 35.29681396484375 71.64318084716797 C 35.65432357788086 71.59136962890625 36.01932525634766 71.56340789794922 36.39114379882812 71.56340789794922 C 40.56864166259766 71.56340789794922 43.95454406738281 74.94953918457031 43.95454406738281 79.12635803222656 C 43.95454406738281 83.30386352539062 40.56864166259766 86.69000244140625 36.39114379882812 86.69000244140625 L 19.03704452514648 86.69000244140625 L 19.03704452514648 86.68840789794922 C 14.59249496459961 86.65248870849609 11.00000381469727 83.03977203369141 11.00000381469727 78.58612823486328 C 11.00000381469727 74.11090850830078 14.6281852722168 70.48294830322266 19.1034049987793 70.48294830322266 C 19.15772247314453 70.48294830322266 19.21114349365234 70.48590850830078 19.26522445678711 70.48682403564453 C 20.01454544067383 66.7861328125 23.28522300720215 64 27.20681381225586 64 Z" stroke="none" fill="#c9c9c9"/>
    </g>
    <g id="Caminho_7515" data-name="Caminho 7515" transform="translate(-25.625 -83.455)" fill="#ffe269" stroke-miterlimit="10">
      <path d="M 49.74312973022461 128.5882873535156 L 49.92460632324219 128.2654876708984 L 48.84738159179688 127.5640258789062 L 49.00864028930664 127.4226760864258 L 50.09077835083008 127.9646606445312 L 50.3235969543457 128.0812683105469 L 49.74312973022461 128.5882873535156 Z" stroke="none"/>
      <path d="M 55.20129776000977 120 L 50.76249694824219 126.6234741210938 L 52.99347686767578 127.7408447265625 L 44.16219711303711 135.4547424316406 L 47.92831802368164 128.7555541992188 L 46.37001800537109 127.7408447265625 L 55.20129776000977 120 Z" stroke="none" fill="#fecb2f"/>
    </g>
  </g>
</svg>
