<svg xmlns="http://www.w3.org/2000/svg" width="40" height="40" viewBox="0 0 40 40">
  <g id="_5" data-name="5" transform="translate(-8946 253)">
    <g id="_5-2" data-name="5" transform="translate(8954.138 -228.499)">
      <g id="Grupo_8616" data-name="Grupo 8616">
        <path id="Caminho_7381" data-name="Caminho 7381" d="M269.385-96.764a.937.937,0,0,1-1.324.038h0a.937.937,0,0,1,.038-1.324L269.95-99.9a.938.938,0,0,1,1.324-.038h0a.937.937,0,0,1-.039,1.324Z" transform="translate(-267.805 100.195)" fill="#c9c9c9"/>
        <path id="Caminho_7382" data-name="Caminho 7382" d="M357.385-96.764a.937.937,0,0,1-1.324.038h0a.937.937,0,0,1,.038-1.324L357.95-99.9a.938.938,0,0,1,1.324-.038h0a.938.938,0,0,1-.038,1.324Z" transform="translate(-335.805 100.195)" fill="#c9c9c9"/>
        <path id="Caminho_7383" data-name="Caminho 7383" d="M298.718-96.764a.937.937,0,0,1-1.324.038h0a.937.937,0,0,1,.038-1.324l1.852-1.852a.938.938,0,0,1,1.324-.038h0a.937.937,0,0,1-.039,1.324Z" transform="translate(-290.471 100.195)" fill="#c9c9c9"/>
        <path id="Caminho_7384" data-name="Caminho 7384" d="M328.051-96.764a.937.937,0,0,1-1.324.038h0a.937.937,0,0,1,.038-1.324l1.852-1.852a.937.937,0,0,1,1.324-.038h0a.938.938,0,0,1-.038,1.324Z" transform="translate(-313.138 100.195)" fill="#c9c9c9"/>
        <path id="Caminho_7385" data-name="Caminho 7385" d="M269.385-68.764a.937.937,0,0,1-1.324.038h0a.937.937,0,0,1,.038-1.324L269.95-71.9a.938.938,0,0,1,1.324-.038h0a.937.937,0,0,1-.039,1.324Z" transform="translate(-267.805 78.558)" fill="#c9c9c9"/>
        <path id="Caminho_7386" data-name="Caminho 7386" d="M357.385-68.764a.937.937,0,0,1-1.324.038h0a.937.937,0,0,1,.038-1.324L357.95-71.9a.938.938,0,0,1,1.324-.038h0a.938.938,0,0,1-.038,1.324Z" transform="translate(-335.805 78.558)" fill="#c9c9c9"/>
        <path id="Caminho_7387" data-name="Caminho 7387" d="M298.718-68.764a.937.937,0,0,1-1.324.038h0a.937.937,0,0,1,.038-1.324l1.852-1.852a.938.938,0,0,1,1.324-.038h0a.937.937,0,0,1-.039,1.324Z" transform="translate(-290.471 78.558)" fill="#c9c9c9"/>
        <path id="Caminho_7388" data-name="Caminho 7388" d="M328.051-68.764a.937.937,0,0,1-1.324.038h0a.937.937,0,0,1,.038-1.324l1.852-1.852a.937.937,0,0,1,1.324-.038h0a.938.938,0,0,1-.038,1.324Z" transform="translate(-313.138 78.559)" fill="#c9c9c9"/>
        <path id="Caminho_7389" data-name="Caminho 7389" d="M315.275-48.135a.938.938,0,0,0-1.324.039L312.1-46.244a.937.937,0,0,0-.038,1.324.937.937,0,0,0,1.324-.038l1.851-1.852A.937.937,0,0,0,315.275-48.135Z" transform="translate(-301.805 60.164)" fill="#c9c9c9"/>
      </g>
    </g>
    <g id="Caminho_7419" data-name="Caminho 7419" transform="translate(8714 -45)" fill="#f2f2f2" stroke-miterlimit="10">
      <path d="M 266.7727355957031 -185.7727355957031 C 266.69287109375 -185.7727355957031 266.612548828125 -185.7747344970703 266.533935546875 -185.7786712646484 C 266.5279235839844 -185.7791290283203 266.5222778320312 -185.7795104980469 266.5166625976562 -185.7798004150391 L 266.5038146972656 -185.7804565429688 L 266.4909362792969 -185.7804565429688 L 257.7615966796875 -185.7804565429688 L 257.7515869140625 -185.7804565429688 L 257.7415771484375 -185.7800598144531 C 257.649169921875 -185.7763519287109 257.5509033203125 -185.7727355957031 257.4545593261719 -185.7727355957031 L 250.6647644042969 -185.7727355957031 L 240.1818237304688 -185.7727355957031 C 235.9459533691406 -185.7727355957031 232.5 -189.2188720703125 232.5 -193.4547729492188 C 232.5 -193.5843505859375 232.5033721923828 -193.7160949707031 232.5100250244141 -193.8463134765625 C 232.5112762451172 -193.8728790283203 232.5133666992188 -193.8968505859375 232.5153656005859 -193.9208526611328 C 232.5170440673828 -193.9411010742188 232.5187225341797 -193.9613800048828 232.5201568603516 -193.9817504882812 L 232.5232543945312 -194.0275115966797 C 232.5281372070312 -194.0997009277344 232.5327453613281 -194.1678924560547 232.539306640625 -194.2332611083984 C 232.5425872802734 -194.2668609619141 232.5469055175781 -194.2987670898438 232.5511169433594 -194.3306884765625 C 232.5539855957031 -194.3523712158203 232.5568237304688 -194.3740386962891 232.5594787597656 -194.3957824707031 L 232.5671081542969 -194.4590301513672 C 232.5732879638672 -194.5109405517578 232.5794067382812 -194.5629425048828 232.5871429443359 -194.6142578125 C 232.5924072265625 -194.6491241455078 232.5987854003906 -194.6834411621094 232.6051025390625 -194.7178039550781 C 232.6093444824219 -194.7408447265625 232.6135711669922 -194.7638702392578 232.6175994873047 -194.7870025634766 L 232.6276245117188 -194.8455352783203 C 232.6356964111328 -194.8930358886719 232.6436614990234 -194.9405212402344 232.6532745361328 -194.987548828125 C 232.6613159179688 -195.0279998779297 232.670166015625 -195.0652008056641 232.6788940429688 -195.1023254394531 C 232.6839904785156 -195.1240539550781 232.6890869140625 -195.145751953125 232.6940002441406 -195.1674652099609 C 232.6992645263672 -195.1900939941406 232.7049560546875 -195.2154693603516 232.7106170654297 -195.2407989501953 C 232.7193603515625 -195.2798614501953 232.72802734375 -195.3188323974609 232.7377471923828 -195.3573608398438 C 232.7492370605469 -195.4016723632812 232.7627563476562 -195.4483489990234 232.7762451171875 -195.4952239990234 L 232.7884826660156 -195.5377807617188 L 232.8044738769531 -195.5957641601562 C 232.8156127929688 -195.6363830566406 232.8266906738281 -195.6770782470703 232.8389739990234 -195.7172393798828 C 232.8529968261719 -195.7625122070312 232.8687438964844 -195.8085327148438 232.8844909667969 -195.8546905517578 L 232.9016876220703 -195.9053039550781 L 232.9213409423828 -195.9642944335938 C 232.9330444335938 -195.9996643066406 232.9447174072266 -196.0350799560547 232.957275390625 -196.0700073242188 C 232.9749603271484 -196.1188507080078 232.9943542480469 -196.1677398681641 233.0137023925781 -196.2166748046875 L 233.0322418212891 -196.2637023925781 L 233.0519256591797 -196.314208984375 C 233.0647583007812 -196.3472747802734 233.0775756835938 -196.3804321289062 233.0912322998047 -196.4130554199219 C 233.1142730712891 -196.4685821533203 233.1384429931641 -196.5217132568359 233.1625518798828 -196.5749664306641 L 233.1789245605469 -196.6111907958984 L 233.1958160400391 -196.6491546630859 C 233.2104187011719 -196.6820983886719 233.2249450683594 -196.7150573730469 233.2405548095703 -196.7475280761719 C 233.2694091796875 -196.8082733154297 233.2987670898438 -196.8654632568359 233.3281402587891 -196.9228210449219 L 233.3417663574219 -196.9494171142578 L 233.3677978515625 -197.0007934570312 C 233.3807525634766 -197.0265197753906 233.3936614990234 -197.0522308349609 233.4071807861328 -197.0776062011719 C 233.4387054443359 -197.1360626220703 233.4729766845703 -197.1956481933594 233.5072174072266 -197.2553253173828 L 233.5208129882812 -197.2790222167969 L 233.5460662841797 -197.3233032226562 C 233.5589294433594 -197.3460235595703 233.5717468261719 -197.3687896728516 233.5852966308594 -197.39111328125 C 233.6273345947266 -197.4617614746094 233.6716461181641 -197.5307006835938 233.7144927978516 -197.5973815917969 L 233.7365264892578 -197.6321411132812 C 233.750732421875 -197.6546325683594 233.7648162841797 -197.6770782470703 233.7795867919922 -197.6990051269531 C 233.8304443359375 -197.7755126953125 233.8827667236328 -197.8492431640625 233.9228515625 -197.9051818847656 L 233.9476776123047 -197.9404602050781 C 233.9615173339844 -197.9601745605469 233.975341796875 -197.97998046875 233.9894866943359 -197.9992828369141 C 234.0402069091797 -198.0681915283203 234.0952301025391 -198.1385650634766 234.1471710205078 -198.2046203613281 L 234.1690063476562 -198.2326049804688 C 234.1818237304688 -198.2491149902344 234.1946258544922 -198.2656707763672 234.2079162597656 -198.2818450927734 C 234.2688751220703 -198.3573760986328 234.3307037353516 -198.4293212890625 234.3835754394531 -198.4902648925781 L 234.4137725830078 -198.5251922607422 C 234.4246063232422 -198.5377655029297 234.4353790283203 -198.55029296875 234.4462127685547 -198.5626220703125 C 234.4976196289062 -198.6202239990234 234.5578308105469 -198.6851043701172 234.6333160400391 -198.7641143798828 L 234.6615447998047 -198.7936706542969 C 234.6711730957031 -198.8038177490234 234.6808166503906 -198.8139953613281 234.6906127929688 -198.8240203857422 C 234.7517242431641 -198.8865051269531 234.8186645507812 -198.9521636962891 234.8950653076172 -199.0245666503906 L 234.9160461425781 -199.0446472167969 C 234.926513671875 -199.0547027587891 234.9369506835938 -199.0647583007812 234.9475860595703 -199.0746307373047 C 235.0150756835938 -199.1376953125 235.0869140625 -199.2018890380859 235.1688079833984 -199.2723388671875 L 235.1882019042969 -199.2892608642578 C 235.1978149414062 -199.2976531982422 235.2073669433594 -199.3060455322266 235.2171630859375 -199.3143463134766 C 235.2934417724609 -199.3788757324219 235.3730316162109 -199.4434814453125 235.4538726806641 -199.5064697265625 L 235.4691162109375 -199.5185394287109 C 235.4780883789062 -199.5256805419922 235.487060546875 -199.5328521728516 235.4961547851562 -199.539794921875 C 235.5750579833984 -199.600830078125 235.6576690673828 -199.6617584228516 235.7509918212891 -199.7278442382812 L 235.7783660888672 -199.7472076416016 L 235.7907257080078 -199.7559967041016 C 235.8746032714844 -199.8144836425781 235.9651794433594 -199.8749237060547 236.0570831298828 -199.93359375 L 236.0734252929688 -199.9440612792969 L 236.0922546386719 -199.9561309814453 C 236.177734375 -200.010009765625 236.2724304199219 -200.0668640136719 236.3703765869141 -200.1229400634766 C 236.3794708251953 -200.1280517578125 236.3883666992188 -200.1332702636719 236.3973236083984 -200.1385803222656 L 236.4026794433594 -200.1417388916016 C 236.4939422607422 -200.1934814453125 236.5904388427734 -200.2453002929688 236.6975860595703 -200.3001403808594 L 236.7097778320312 -200.306396484375 L 236.7138214111328 -200.3083648681641 L 236.7185363769531 -200.3108062744141 C 236.8167877197266 -200.3604736328125 236.9199523925781 -200.4098510742188 237.0252227783203 -200.4575958251953 C 237.0336303710938 -200.4612121582031 237.0418548583984 -200.4649353027344 237.0500946044922 -200.4687652587891 C 237.1547241210938 -200.5154266357422 237.2641143798828 -200.5614013671875 237.3713836669922 -200.6036224365234 L 237.3833465576172 -200.6082916259766 C 237.4921722412109 -200.6508636474609 237.60302734375 -200.6913604736328 237.7132873535156 -200.7288513183594 C 237.7194213867188 -200.7307739257812 237.7254333496094 -200.7327880859375 237.7318115234375 -200.7350158691406 C 237.8432769775391 -200.7725219726562 237.958984375 -200.8083648681641 238.0757446289062 -200.8415374755859 L 238.0836486816406 -200.8437805175781 L 238.0883636474609 -200.8452911376953 C 238.1981811523438 -200.8762817382812 238.3108978271484 -200.9053955078125 238.4237823486328 -200.9319000244141 L 238.4411010742188 -200.9357452392578 C 238.5593109130859 -200.9632720947266 238.6797943115234 -200.9881896972656 238.7992401123047 -201.0098419189453 L 238.7995147705078 -201.0098876953125 L 238.8084411621094 -201.011474609375 C 238.9239044189453 -201.0324401855469 239.0434417724609 -201.0511016845703 239.1640014648438 -201.0669555664062 L 239.1813049316406 -201.0691986083984 C 239.4299774169922 -201.1015319824219 239.6847839355469 -201.1219940185547 239.9388275146484 -201.1300048828125 L 240.3320007324219 -201.1300048828125 L 240.4192047119141 -201.5215454101562 L 240.4203643798828 -201.5267639160156 C 240.5626068115234 -202.1528930664062 240.7845611572266 -202.7615509033203 241.07958984375 -203.3335113525391 L 241.0889129638672 -203.3518981933594 C 241.1312255859375 -203.4335174560547 241.1786956787109 -203.520751953125 241.2320251464844 -203.6146545410156 L 241.2432861328125 -203.634033203125 C 241.2983551025391 -203.7301940917969 241.3492736816406 -203.8152008056641 241.4002532958984 -203.8962249755859 L 241.4023284912109 -203.8995208740234 C 241.6248474121094 -204.2532043457031 241.8764343261719 -204.5895080566406 242.1507415771484 -204.9001312255859 C 242.1556243896484 -204.905517578125 242.1603240966797 -204.9109039306641 242.1649475097656 -204.9162750244141 L 242.1672210693359 -204.9188232421875 C 242.2202453613281 -204.9783630371094 242.2793273925781 -205.0422515869141 242.3478546142578 -205.1141204833984 L 242.3725280761719 -205.1399688720703 C 242.3813934326172 -205.1493072509766 242.3902435302734 -205.1586303710938 242.3991546630859 -205.1677703857422 C 242.4616088867188 -205.2325744628906 242.5228576660156 -205.2925872802734 242.5748748779297 -205.3430938720703 L 242.5946655273438 -205.3619232177734 L 242.6438293457031 -205.4087524414062 C 242.7082061767578 -205.4693145751953 242.763916015625 -205.5203552246094 242.8170623779297 -205.5674133300781 C 242.8328857421875 -205.5814208984375 242.8485107421875 -205.5949249267578 242.8641510009766 -205.6084594726562 L 242.8930206298828 -205.6335144042969 L 242.9010162353516 -205.6403503417969 C 242.9603729248047 -205.6912841796875 243.0164642333984 -205.7393951416016 243.0729217529297 -205.7851409912109 C 243.0846405029297 -205.7945556640625 243.0980529785156 -205.8049926757812 243.1114959716797 -205.8154602050781 L 243.1371765136719 -205.8355255126953 C 243.3405151367188 -205.9968414306641 243.5518341064453 -206.1479339599609 243.7670135498047 -206.2859649658203 L 243.8110961914062 -206.3144683837891 C 243.8339080810547 -206.3292999267578 243.8566436767578 -206.3441314697266 243.8797454833984 -206.3583374023438 C 243.9312133789062 -206.3901519775391 243.9825897216797 -206.4199523925781 244.0337982177734 -206.4497222900391 L 244.0445404052734 -206.4559631347656 L 244.0645141601562 -206.4675903320312 C 244.1039123535156 -206.4905242919922 244.1431884765625 -206.5134124755859 244.1828002929688 -206.5358428955078 C 244.2353210449219 -206.5648193359375 244.2884674072266 -206.5931701660156 244.3416137695312 -206.6211242675781 C 244.3911437988281 -206.6470489501953 244.4415893554688 -206.6730194091797 244.4924468994141 -206.6983337402344 C 244.5438537597656 -206.7238159179688 244.5963134765625 -206.7495574951172 244.6492462158203 -206.7743988037109 C 244.7047729492188 -206.8005676269531 244.7600402832031 -206.8250427246094 244.8155364990234 -206.849609375 C 244.8672027587891 -206.8724517822266 244.9162902832031 -206.8942260742188 244.9660034179688 -206.9148864746094 C 245.0234680175781 -206.9389038085938 245.0808258056641 -206.9609222412109 245.1382141113281 -206.9830322265625 L 245.1582641601562 -206.9907531738281 C 245.1772155761719 -206.9979400634766 245.198486328125 -207.0062408447266 245.2197570800781 -207.0145721435547 C 245.2440948486328 -207.0240936279297 245.2684173583984 -207.0336608886719 245.29296875 -207.0427093505859 C 245.4000091552734 -207.0814971923828 245.5091857910156 -207.1183929443359 245.6148529052734 -207.1514129638672 C 245.6268615722656 -207.1551208496094 245.6401824951172 -207.1588439941406 245.6534881591797 -207.16259765625 C 245.6715850830078 -207.1676940917969 245.6896667480469 -207.1728363037109 245.7076873779297 -207.1782989501953 C 245.7808380126953 -207.2001037597656 245.86962890625 -207.2261352539062 245.9571380615234 -207.2490539550781 C 245.9857635498047 -207.2566223144531 246.0136108398438 -207.2632141113281 246.0413818359375 -207.2698211669922 L 246.0892486572266 -207.2813110351562 C 246.1608123779297 -207.2986145019531 246.2332153320312 -207.3158111572266 246.3065032958984 -207.3314361572266 C 246.3531951904297 -207.3413391113281 246.400634765625 -207.3504333496094 246.4484710693359 -207.3595886230469 C 246.5204925537109 -207.3734436035156 246.5924530029297 -207.3863067626953 246.6649169921875 -207.3983459472656 C 246.7106781005859 -207.4056396484375 246.7596588134766 -207.4132232666016 246.8090515136719 -207.4203643798828 C 246.8759002685547 -207.4300537109375 246.9480590820312 -207.4391784667969 247.0298767089844 -207.4482879638672 L 247.0587310791016 -207.4516143798828 C 247.0967559814453 -207.4560089111328 247.1348571777344 -207.4604339599609 247.1734008789062 -207.4642791748047 C 247.2409973144531 -207.4706115722656 247.3170166015625 -207.4763336181641 247.4171447753906 -207.4825592041016 L 247.4683227539062 -207.486083984375 C 247.4914703369141 -207.4877319335938 247.5146179199219 -207.4894409179688 247.5379180908203 -207.4905548095703 C 247.6732635498047 -207.4969024658203 247.7946624755859 -207.5 247.9088745117188 -207.5 C 248.0236968994141 -207.5 248.1456146240234 -207.4969024658203 248.2816467285156 -207.4905395507812 C 248.3046417236328 -207.4894714355469 248.3271026611328 -207.4877624511719 248.3495788574219 -207.4861297607422 C 248.3676147460938 -207.4848022460938 248.3856506347656 -207.4834899902344 248.4037475585938 -207.4823455810547 C 248.4724273681641 -207.4780731201172 248.5618743896484 -207.4721221923828 248.6487884521484 -207.4636993408203 C 248.6903991699219 -207.4597930908203 248.7303466796875 -207.4550628662109 248.770263671875 -207.4503936767578 L 248.7914276123047 -207.4479217529297 C 248.8733367919922 -207.4386291503906 248.9454345703125 -207.4295043945312 249.0135192871094 -207.4197845458984 C 249.0623626708984 -207.4126739501953 249.1125946044922 -207.4047393798828 249.162353515625 -207.3965911865234 C 249.2321319580078 -207.3851318359375 249.301513671875 -207.3727874755859 249.3706665039062 -207.359375 C 249.4212341308594 -207.3495330810547 249.4720458984375 -207.3396606445312 249.5226593017578 -207.3289031982422 C 249.5903472900391 -207.3143310546875 249.6585693359375 -207.2982025146484 249.7270355224609 -207.2816925048828 L 249.7679443359375 -207.2717590332031 C 249.8029632568359 -207.2632904052734 249.8380279541016 -207.2548675537109 249.8726348876953 -207.2457122802734 C 249.9429473876953 -207.2272186279297 250.0119781494141 -207.2068939208984 250.080810546875 -207.1866607666016 L 250.13330078125 -207.1714324951172 C 250.161865234375 -207.1632080078125 250.1903533935547 -207.1550445556641 250.2186737060547 -207.1462249755859 C 250.2993469238281 -207.1208648681641 250.3804016113281 -207.0928649902344 250.4768371582031 -207.0587921142578 C 250.5438079833984 -207.0349273681641 250.6109924316406 -207.009521484375 250.677978515625 -206.9835052490234 L 250.6852722167969 -206.9806823730469 C 250.7456665039062 -206.9574432373047 250.8056793212891 -206.9344024658203 250.865478515625 -206.9096984863281 C 250.9060974121094 -206.8926544189453 250.9487609863281 -206.8734893798828 250.9915161132812 -206.8543395996094 L 251.0335845947266 -206.8355255126953 L 251.0560607910156 -206.8255310058594 C 251.0971374511719 -206.8072967529297 251.1382598876953 -206.7890930175781 251.1787567138672 -206.7699127197266 C 251.2384338378906 -206.7416839599609 251.2972564697266 -206.7124481201172 251.3559265136719 -206.6828002929688 L 251.3677368164062 -206.6768341064453 C 251.4068145751953 -206.6571197509766 251.4460296630859 -206.6373596191406 251.4847259521484 -206.6168518066406 C 251.5475921630859 -206.5838623046875 251.6077270507812 -206.5508117675781 251.66748046875 -206.5171356201172 C 251.7052001953125 -206.4958953857422 251.7423400878906 -206.4743499755859 251.7794799804688 -206.4528045654297 C 251.8435821533203 -206.4152984619141 251.9069519042969 -206.3771667480469 251.9698944091797 -206.3379974365234 C 251.9984436035156 -206.3201904296875 252.0269775390625 -206.3017425537109 252.0554656982422 -206.2832946777344 C 252.1409912109375 -206.2283325195312 252.2041931152344 -206.1866149902344 252.2619323730469 -206.1470031738281 L 252.2731628417969 -206.1389007568359 L 252.2966613769531 -206.1220703125 C 252.7254791259766 -205.8230590820312 253.1256408691406 -205.4783325195312 253.4872131347656 -205.0966033935547 L 253.4937744140625 -205.0896911621094 L 253.4939575195312 -205.0894927978516 C 254.7586364746094 -203.7496948242188 255.5001678466797 -202.0014190673828 255.5821075439453 -200.1656341552734 L 255.6282653808594 -199.1313934326172 L 256.4096069335938 -199.8105621337891 C 257.3933715820312 -200.6656646728516 258.6523132324219 -201.1365966796875 259.9545593261719 -201.1365966796875 C 262.9371337890625 -201.1365966796875 265.3636474609375 -198.7098846435547 265.3636474609375 -195.72705078125 C 265.3636474609375 -195.7187347412109 265.3632507324219 -195.7105102539062 265.3629455566406 -195.7022705078125 C 265.3623352050781 -195.6850891113281 265.3617553710938 -195.6679229736328 265.3616333007812 -195.6506805419922 L 265.356689453125 -195.0505981445312 L 265.9478149414062 -195.1540832519531 C 266.2252807617188 -195.2026519775391 266.5028076171875 -195.2272796630859 266.7727355957031 -195.2272796630859 C 267.1727294921875 -195.2272796630859 267.5703735351562 -195.1772155761719 267.9546813964844 -195.0784759521484 C 270.0420532226562 -194.5415649414062 271.5 -192.6589050292969 271.5 -190.5002288818359 C 271.5 -188.2640228271484 269.9128723144531 -186.3162841796875 267.7261352539062 -185.8686981201172 C 267.6475524902344 -185.8527526855469 267.5690002441406 -185.8387451171875 267.4935302734375 -185.8272399902344 C 267.3834838867188 -185.8105010986328 267.263916015625 -185.7975006103516 267.1281127929688 -185.7875213623047 L 267.0000610351562 -185.7781066894531 C 266.9251708984375 -185.7745513916016 266.8487548828125 -185.7727355957031 266.7727355957031 -185.7727355957031 Z" stroke="none"/>
      <path d="M 266.7727355957031 -186.2727355957031 C 266.8387145996094 -186.2727355957031 266.9049377441406 -186.2742614746094 266.9697875976562 -186.2772369384766 L 267.0914611816406 -186.2861785888672 C 267.2142333984375 -186.2952117919922 267.3211975097656 -186.3067932128906 267.4181823730469 -186.321533203125 C 267.4856262207031 -186.3318023681641 267.5560302734375 -186.3443756103516 267.6258850097656 -186.3585510253906 C 269.5809631347656 -186.7587127685547 271 -188.5004425048828 271 -190.5002288818359 C 271 -192.4306640625 269.6964416503906 -194.1141815185547 267.8302612304688 -194.5942077636719 C 267.486572265625 -194.6825103759766 267.1307678222656 -194.7272796630859 266.7727355957031 -194.7272796630859 C 266.5316467285156 -194.7272796630859 266.2831115722656 -194.7051696777344 266.0340270996094 -194.6615753173828 L 264.8517761230469 -194.4546051025391 L 264.8616333007812 -195.65478515625 C 264.86181640625 -195.6767272949219 264.8624877929688 -195.6985778808594 264.86328125 -195.720458984375 L 264.8636474609375 -195.7314910888672 C 264.8612365722656 -198.4365844726562 262.6599426269531 -200.6365966796875 259.9545593261719 -200.6365966796875 C 258.7728576660156 -200.6365966796875 257.6304016113281 -200.209228515625 256.7376403808594 -199.4332122802734 L 255.1749267578125 -198.0748596191406 L 255.0825958251953 -200.1433410644531 C 255.0060882568359 -201.8573303222656 254.3144989013672 -203.4897308349609 253.1346130371094 -204.7417755126953 L 253.1242218017578 -204.7527618408203 C 252.7859344482422 -205.1098785400391 252.4116973876953 -205.4323120117188 252.0094604492188 -205.7127838134766 C 251.9995727539062 -205.7197418212891 251.9896392822266 -205.7268829345703 251.9796905517578 -205.7340850830078 L 251.97509765625 -205.7374114990234 C 251.9226989746094 -205.7733001708984 251.8642730712891 -205.8118286132812 251.7836608886719 -205.8636169433594 C 251.7575836181641 -205.8805084228516 251.7314605712891 -205.8974304199219 251.7057189941406 -205.9134826660156 C 251.6466369628906 -205.9502410888672 251.5871429443359 -205.9860382080078 251.5286102294922 -206.0202941894531 C 251.4933166503906 -206.040771484375 251.4580230712891 -206.0612640380859 251.4219970703125 -206.08154296875 C 251.3666229248047 -206.1127624511719 251.3108825683594 -206.1434326171875 251.2505645751953 -206.1750640869141 C 251.2147979736328 -206.1940307617188 251.1785430908203 -206.2122497558594 251.1424255371094 -206.2304840087891 L 251.1304626464844 -206.2365264892578 C 251.0756530761719 -206.2642211914062 251.0207061767578 -206.2915649414062 250.9647674560547 -206.3180236816406 C 250.9279327392578 -206.3354644775391 250.8904876708984 -206.3519897460938 250.8531341552734 -206.3685760498047 L 250.8301239013672 -206.3787994384766 L 250.7871246337891 -206.3980255126953 C 250.7488708496094 -206.4151611328125 250.710693359375 -206.4323577880859 250.6721038818359 -206.4485931396484 C 250.6168975830078 -206.4713592529297 250.5614624023438 -206.4925842285156 250.5057067871094 -206.5140533447266 L 250.4968719482422 -206.5174407958984 C 250.4342651367188 -206.5417785644531 250.3714904785156 -206.5655364990234 250.3102874755859 -206.5873413085938 C 250.2187652587891 -206.6196899414062 250.1423950195312 -206.6460723876953 250.0700836181641 -206.6688232421875 C 250.045166015625 -206.6765747070312 250.0200805664062 -206.6837158203125 249.9949645996094 -206.6909484863281 L 249.9398193359375 -206.7069549560547 C 249.8755493164062 -206.7258453369141 249.8110961914062 -206.7448883056641 249.7447967529297 -206.7623291015625 C 249.7136535644531 -206.7705688476562 249.6820526123047 -206.7781219482422 249.6505279541016 -206.7857360839844 L 249.6097259521484 -206.7956390380859 C 249.5453186035156 -206.8111724853516 249.4811553955078 -206.8264007568359 249.4187164306641 -206.8398132324219 C 249.3709259033203 -206.8499755859375 249.3229217529297 -206.8592834472656 249.2754211425781 -206.8685302734375 C 249.2109680175781 -206.8810424804688 249.1463165283203 -206.8925323486328 249.0815582275391 -206.9031524658203 C 249.0347137451172 -206.9108276367188 248.9874572753906 -206.9183197021484 248.9429473876953 -206.9247894287109 C 248.8796539306641 -206.9338226318359 248.8122253417969 -206.9423522949219 248.7335052490234 -206.9512786865234 L 248.7120513916016 -206.9537811279297 C 248.6759490966797 -206.9580230712891 248.6398315429688 -206.9623413085938 248.6005249023438 -206.9660339355469 C 248.521240234375 -206.9737243652344 248.4373931884766 -206.9792938232422 248.3722534179688 -206.9833526611328 C 248.3524932861328 -206.9845886230469 248.3327941894531 -206.9860229492188 248.3130950927734 -206.9874572753906 C 248.2950592041016 -206.9887847900391 248.2770233154297 -206.9902038574219 248.2582550048828 -206.9910736083984 C 248.1300964355469 -206.9970703125 248.0158233642578 -207 247.9088745117188 -207 C 247.8025665283203 -207 247.6888427734375 -206.9970855712891 247.5615234375 -206.9911041259766 C 247.5422821044922 -206.9902038574219 247.5231628417969 -206.9887237548828 247.5040435791016 -206.9873504638672 L 247.4481353759766 -206.9835205078125 C 247.3543701171875 -206.9776916503906 247.2836761474609 -206.9723968505859 247.2192535400391 -206.9663696289062 C 247.1846313476562 -206.962890625 247.1503601074219 -206.9588775634766 247.1161804199219 -206.9549255371094 L 247.0851898193359 -206.9513549804688 C 247.0089263916016 -206.94287109375 246.9421539306641 -206.9344329833984 246.8805694580078 -206.9254913330078 C 246.8346710205078 -206.9188690185547 246.7891387939453 -206.9118194580078 246.7436676025391 -206.9045715332031 C 246.6764678955078 -206.8933868408203 246.6097106933594 -206.8814239501953 246.5423889160156 -206.8684844970703 C 246.4978485107422 -206.8599700927734 246.4536895751953 -206.8515319824219 246.4107666015625 -206.8424224853516 C 246.3419036865234 -206.8277435302734 246.2738952636719 -206.8115539550781 246.2077941894531 -206.7955627441406 L 246.1572113037109 -206.7834167480469 C 246.1334533691406 -206.7777709960938 246.1096496582031 -206.7722015380859 246.0838470458984 -206.765380859375 C 246.0034637451172 -206.7443237304688 245.9196929931641 -206.7197418212891 245.8526458740234 -206.6997680664062 C 245.8315887451172 -206.6934051513672 245.8104858398438 -206.6873626708984 245.7893371582031 -206.6814117431641 C 245.7800750732422 -206.6787872314453 245.7707672119141 -206.67626953125 245.7640075683594 -206.6741790771484 C 245.6662750244141 -206.6436309814453 245.5651550292969 -206.6094665527344 245.46337890625 -206.5726318359375 C 245.4427947998047 -206.5650024414062 245.4223937988281 -206.5569610595703 245.4019622802734 -206.5489501953125 C 245.3799438476562 -206.5403442382812 245.3579254150391 -206.53173828125 245.3358306884766 -206.5233459472656 L 245.3179473876953 -206.5164489746094 C 245.2649230957031 -206.4960327148438 245.2118988037109 -206.4757385253906 245.1579132080078 -206.4531860351562 C 245.1116943359375 -206.4339752197266 245.0660705566406 -206.4136962890625 245.0178833007812 -206.3923797607422 C 244.9660034179688 -206.3694152832031 244.9143218994141 -206.3465728759766 244.8616638183594 -206.3217620849609 C 244.8119506835938 -206.2984313964844 244.7626953125 -206.2742309570312 244.7153167724609 -206.2507629394531 C 244.6674652099609 -206.2269439697266 244.6200256347656 -206.2024993896484 244.5743560791016 -206.1786041259766 C 244.5248107910156 -206.1525421142578 244.4752655029297 -206.1261138916016 244.4262847900391 -206.09912109375 C 244.3893890380859 -206.0782012939453 244.3528137207031 -206.056884765625 244.3161163330078 -206.0355072021484 L 244.2958984375 -206.0237426757812 L 244.2851104736328 -206.0174713134766 C 244.2377624511719 -205.9899444580078 244.1902465820312 -205.9624481201172 244.1415252685547 -205.9323577880859 C 244.1220245361328 -205.9203643798828 244.1028594970703 -205.9077758789062 244.0835876464844 -205.8952484130859 L 244.0369873046875 -205.8651123046875 C 243.8358154296875 -205.7360687255859 243.6382293701172 -205.5948028564453 243.4461517333984 -205.4424285888672 L 243.4188842773438 -205.4211120605469 C 243.4073791503906 -205.4121551513672 243.3958740234375 -205.4032287597656 243.3876495361328 -205.3966217041016 C 243.3366851806641 -205.3553314208984 243.283203125 -205.3094635009766 243.2265930175781 -205.2608795166016 L 243.2171020507812 -205.2527313232422 L 243.1913452148438 -205.2303771972656 C 243.1772003173828 -205.2181396484375 243.1630706787109 -205.2059478759766 243.1484527587891 -205.1929931640625 C 243.0999450683594 -205.1500549316406 243.0486297607422 -205.1030578613281 242.9872283935547 -205.0453186035156 L 242.9396057128906 -204.9999542236328 L 242.9198455810547 -204.9811096191406 C 242.8715209960938 -204.9341888427734 242.8153533935547 -204.8790893554688 242.7617797851562 -204.8234710693359 L 242.7592620849609 -204.8208618164062 L 242.7567138671875 -204.8182678222656 L 242.7350311279297 -204.7955932617188 L 242.7097930908203 -204.7691802978516 C 242.6452789306641 -204.7014923095703 242.5899963378906 -204.6417236328125 242.5408020019531 -204.5864868164062 C 242.5351867675781 -204.5800170898438 242.5294799804688 -204.5735321044922 242.5236358642578 -204.5670166015625 C 242.2678680419922 -204.2771606445312 242.0332183837891 -203.9633483886719 241.8248901367188 -203.6322326660156 L 241.8234558105469 -203.6299591064453 C 241.7761840820312 -203.5548553466797 241.7287750244141 -203.4756622314453 241.6784973144531 -203.3878479003906 L 241.6771850585938 -203.3855743408203 L 241.6758728027344 -203.3832855224609 L 241.6645355224609 -203.3637237548828 C 241.6161499023438 -203.2784423828125 241.5730438232422 -203.1992340087891 241.5329132080078 -203.1219177246094 L 241.5271759033203 -203.110595703125 L 241.5255737304688 -203.1074523925781 L 241.5239562988281 -203.1043243408203 C 241.2482604980469 -202.56982421875 241.0408325195312 -202.0010223388672 240.9084625244141 -201.4183044433594 L 240.9073028564453 -201.4130706787109 L 240.7330780029297 -200.6300048828125 L 239.9467010498047 -200.6300048828125 C 239.7115020751953 -200.622314453125 239.4757843017578 -200.6032867431641 239.2457885742188 -200.5733642578125 L 239.2224578857422 -200.5703430175781 C 239.1122436523438 -200.5557250976562 239.0031280517578 -200.5386505126953 238.8977966308594 -200.5195159912109 L 238.8819122314453 -200.5166778564453 C 238.7726593017578 -200.4967651367188 238.6625518798828 -200.4739379882812 238.5544586181641 -200.4487609863281 L 238.5261688232422 -200.4423370361328 C 238.4272766113281 -200.4189300537109 238.3286590576172 -200.3934478759766 238.2323913574219 -200.3663940429688 L 238.2282257080078 -200.3650665283203 L 238.2124176025391 -200.3605804443359 C 238.1042633056641 -200.329833984375 237.9972076416016 -200.2967224121094 237.8941192626953 -200.2620849609375 C 237.885498046875 -200.2590942382812 237.8772277832031 -200.2563171386719 237.8689117431641 -200.253662109375 C 237.7675018310547 -200.2190856933594 237.6655883789062 -200.1818084716797 237.5650787353516 -200.1425018310547 L 237.5545959472656 -200.1384124755859 C 237.456298828125 -200.0997009277344 237.3559722900391 -200.0576171875 237.2563018798828 -200.0132598876953 C 237.2470092773438 -200.0089569091797 237.2377014160156 -200.0047607421875 237.228271484375 -200.0006561279297 C 237.1305694580078 -199.956298828125 237.0350036621094 -199.9105377197266 236.9440765380859 -199.8645629882812 L 236.9360656738281 -199.8605346679688 L 236.9353332519531 -199.8601684570312 L 236.9253540039062 -199.8550720214844 L 236.9253692626953 -199.8550415039062 C 236.8258056640625 -199.8040924072266 236.7363739013672 -199.7560882568359 236.6522369384766 -199.7084350585938 C 236.6405792236328 -199.7015380859375 236.6289672851562 -199.6947479248047 236.6171417236328 -199.6880798339844 C 236.5271301269531 -199.6364898681641 236.4402008056641 -199.5843505859375 236.3586730957031 -199.5329895019531 L 236.3428039550781 -199.5228424072266 L 236.3262023925781 -199.51220703125 C 236.2410888671875 -199.4578399658203 236.1572570800781 -199.4019470214844 236.0769653320312 -199.3460235595703 L 236.0687866210938 -199.3402099609375 C 236.0584259033203 -199.3328094482422 236.0479888916016 -199.3253936767578 236.0374755859375 -199.3180389404297 C 235.9509735107422 -199.2567596435547 235.8747100830078 -199.2004852294922 235.8043975830078 -199.1460876464844 L 235.8020935058594 -199.1443176269531 L 235.7998046875 -199.1425628662109 L 235.7803344726562 -199.127197265625 L 235.7674102783203 -199.116943359375 L 235.7642974853516 -199.1144714355469 L 235.7611541748047 -199.1120300292969 C 235.6855926513672 -199.0531616210938 235.6112976074219 -198.9928741455078 235.5400238037109 -198.9325561523438 C 235.5323638916016 -198.9260711669922 235.5249328613281 -198.9195098876953 235.5174407958984 -198.9129486083984 L 235.4949035644531 -198.893310546875 C 235.4182739257812 -198.827392578125 235.3514404296875 -198.7676849365234 235.2874603271484 -198.7079010009766 C 235.2790069580078 -198.7000427246094 235.2707214355469 -198.6920318603516 235.2624053955078 -198.6840362548828 L 235.2389984130859 -198.6616516113281 C 235.167236328125 -198.5936279296875 235.1047058105469 -198.5323028564453 235.0482940673828 -198.4746551513672 L 235.024169921875 -198.4494323730469 L 234.9948120117188 -198.4186706542969 C 234.9250030517578 -198.3456268310547 234.8694610595703 -198.2858428955078 234.8204193115234 -198.2309722900391 L 234.7926788330078 -198.1989440917969 L 234.76123046875 -198.1625823974609 C 234.7112884521484 -198.1050109863281 234.6531066894531 -198.0373382568359 234.6002960205078 -197.9718475341797 L 234.59716796875 -197.9679718017578 L 234.593994140625 -197.964111328125 C 234.5836486816406 -197.9515533447266 234.5737457275391 -197.9385986328125 234.5637664794922 -197.9257507324219 L 234.5402526855469 -197.8956298828125 C 234.4907836914062 -197.8327026367188 234.4385528564453 -197.7658996582031 234.392822265625 -197.7037811279297 C 234.3807220458984 -197.6872711181641 234.3689270019531 -197.6703186035156 234.3571014404297 -197.6534423828125 L 234.3326873779297 -197.6187438964844 L 234.3310089111328 -197.6163635253906 L 234.3293151855469 -197.6139831542969 C 234.2916107177734 -197.5613555908203 234.2425537109375 -197.4922790527344 234.1975860595703 -197.4246215820312 L 234.1959991455078 -197.4222106933594 L 234.1943969726562 -197.4198303222656 C 234.1823272705078 -197.4019165039062 234.1708831787109 -197.3835296630859 234.1592864990234 -197.3651733398438 L 234.1351165771484 -197.3270416259766 C 234.0927124023438 -197.2610778808594 234.0526580810547 -197.1987609863281 234.0175476074219 -197.1396789550781 L 234.0151062011719 -197.1356048583984 L 234.0126342773438 -197.1315307617188 C 234.0017242431641 -197.1135406494141 233.9914703369141 -197.0951538085938 233.9810943603516 -197.0768432617188 L 233.9545745849609 -197.0303039550781 L 233.9408721923828 -197.0064239501953 C 233.9088134765625 -196.9505767822266 233.8766937255859 -196.8948516845703 233.8484497070312 -196.8424835205078 C 233.8367156982422 -196.8204803466797 233.8255767822266 -196.7981567382812 233.8143463134766 -196.7758636474609 L 233.7869415283203 -196.7217864990234 L 233.773193359375 -196.6949157714844 C 233.74609375 -196.6420288085938 233.7189483642578 -196.5893249511719 233.6934051513672 -196.5355224609375 L 233.6922760009766 -196.5331115722656 L 233.6911163330078 -196.5307312011719 C 233.6777496337891 -196.5029449462891 233.6654052734375 -196.4747161865234 233.6529235839844 -196.446533203125 L 233.6346740722656 -196.4055480957031 L 233.6180267333984 -196.3687133789062 C 233.5960845947266 -196.3202667236328 233.5740356445312 -196.2719421386719 233.5524444580078 -196.219970703125 C 233.5404663085938 -196.1913909912109 233.5293273925781 -196.1623229980469 233.51806640625 -196.1333312988281 L 233.4976654052734 -196.0810241699219 L 233.4786834716797 -196.0328826904297 C 233.4611358642578 -195.9884796142578 233.4434661865234 -195.9441528320312 233.427734375 -195.9006805419922 C 233.4166259765625 -195.8697967529297 233.4063720703125 -195.8384552001953 233.3960113525391 -195.8071746826172 L 233.3754272460938 -195.745361328125 L 233.3577423095703 -195.693359375 C 233.3435363769531 -195.6517028808594 233.3292541503906 -195.6102142333984 233.3170623779297 -195.5708312988281 C 233.3062133789062 -195.535400390625 233.2965240478516 -195.4994506835938 233.2867126464844 -195.463623046875 L 233.27099609375 -195.4066619873047 L 233.2701263427734 -195.4034881591797 L 233.2692108154297 -195.4003295898438 L 233.2567138671875 -195.3568267822266 C 233.2446899414062 -195.3150939941406 233.2326049804688 -195.2735290527344 233.2216339111328 -195.2313842773438 C 233.21337890625 -195.1983947753906 233.2060241699219 -195.1650390625 233.1985473632812 -195.1316223144531 C 233.1927795410156 -195.1057739257812 233.1869659423828 -195.0798950195312 233.1809844970703 -195.0540466308594 C 233.1759643554688 -195.0320129394531 233.1708068847656 -195.0099945068359 233.1656341552734 -194.9879608154297 C 233.1582336425781 -194.9564514160156 233.1506042480469 -194.9248962402344 233.1442565917969 -194.8929138183594 L 233.1437072753906 -194.89013671875 L 233.1431427001953 -194.8873596191406 C 233.1346435546875 -194.8457946777344 233.1277008056641 -194.8038024902344 233.1205749511719 -194.7618103027344 L 233.1101837158203 -194.7012786865234 C 233.1058959960938 -194.6765899658203 233.1013946533203 -194.6519927978516 233.0968627929688 -194.6273956298828 C 233.0915222167969 -194.5983276367188 233.0860137939453 -194.5693054199219 233.08154296875 -194.5396575927734 C 233.0745849609375 -194.4934539794922 233.0691528320312 -194.4466400146484 233.0635986328125 -194.3998870849609 L 233.0558013916016 -194.3351745605469 C 233.0529479980469 -194.3118286132812 233.0498962402344 -194.2885437011719 233.0468139648438 -194.2652587890625 C 233.0433349609375 -194.2389221191406 233.0396728515625 -194.2126159667969 233.0368041992188 -194.183349609375 C 233.0310668945312 -194.1260528564453 233.0267181396484 -194.0617980957031 233.0221252441406 -193.9937744140625 L 233.0189361572266 -193.9469146728516 C 233.0173492431641 -193.9243316650391 233.0155029296875 -193.9018707275391 233.0136566162109 -193.8794250488281 C 233.0121612548828 -193.8614654541016 233.0104522705078 -193.8435516357422 233.0093841552734 -193.8207855224609 C 233.0031433105469 -193.6990356445312 233 -193.5758819580078 233 -193.4547729492188 C 233 -189.4945831298828 236.2216644287109 -186.2727355957031 240.1818237304688 -186.2727355957031 L 250.6647644042969 -186.2727355957031 L 257.4545593261719 -186.2727355957031 C 257.5416564941406 -186.2727355957031 257.6342163085938 -186.2761535644531 257.7215576171875 -186.2796630859375 L 257.7415771484375 -186.2804565429688 L 257.7615966796875 -186.2804565429688 L 266.4909362792969 -186.2804565429688 L 266.5166931152344 -186.2804565429688 L 266.5423889160156 -186.2791442871094 C 266.5497436523438 -186.2787475585938 266.5571594238281 -186.2782897949219 266.5646362304688 -186.2777557373047 C 266.6331481933594 -186.2744293212891 266.7030944824219 -186.2727355957031 266.7727355957031 -186.2727355957031 M 266.7727355957031 -185.2727355957031 C 266.6827392578125 -185.2727355957031 266.5927429199219 -185.2750091552734 266.503662109375 -185.2795562744141 C 266.4995422363281 -185.2797698974609 266.4952087402344 -185.2802429199219 266.4909362792969 -185.2804565429688 L 257.7615966796875 -185.2804565429688 C 257.6595458984375 -185.2763671875 257.5574951171875 -185.2727355957031 257.4545593261719 -185.2727355957031 L 250.6647644042969 -185.2727355957031 L 240.1818237304688 -185.2727355957031 L 240.1816101074219 -185.2727355957031 C 235.6631774902344 -185.2727355957031 232 -188.9359130859375 232 -193.4547729492188 C 232 -193.5947875976562 232.0036315917969 -193.7338714599609 232.0106811523438 -193.871826171875 C 232.012939453125 -193.9204559326172 232.0179748535156 -193.9681854248047 232.0213623046875 -194.0165863037109 C 232.0274963378906 -194.1056823730469 232.032958984375 -194.1949920654297 232.0418090820312 -194.2831878662109 C 232.0474853515625 -194.3413696289062 232.0561218261719 -194.3986358642578 232.0631713867188 -194.4563751220703 C 232.0727233886719 -194.5338745117188 232.0811462402344 -194.6120452880859 232.0927429199219 -194.6888580322266 C 232.10205078125 -194.7506713867188 232.1143188476562 -194.8113555908203 232.125 -194.8727264404297 C 232.1375122070312 -194.9445495605469 232.1488647460938 -195.0166015625 232.1634216308594 -195.0877380371094 C 232.1761474609375 -195.1518249511719 232.1920471191406 -195.2147674560547 232.2063598632812 -195.2779388427734 C 232.2220458984375 -195.345458984375 232.2361450195312 -195.4131927490234 232.2529602050781 -195.4797668457031 C 232.2699890136719 -195.5454711914062 232.2890930175781 -195.6100006103516 232.3077392578125 -195.6752319335938 C 232.3252258300781 -195.7379608154297 232.3418273925781 -195.8013763427734 232.3609008789062 -195.8636474609375 C 232.3818359375 -195.9313507080078 232.4052429199219 -195.9979553222656 232.4279479980469 -196.0652313232422 C 232.447509765625 -196.1231842041016 232.4661254882812 -196.1818237304688 232.48681640625 -196.2393188476562 C 232.5120544433594 -196.30908203125 232.5397644042969 -196.3775024414062 232.5668029785156 -196.4463653564453 C 232.5877380371094 -196.4995422363281 232.6079406738281 -196.5534210205078 232.6300048828125 -196.6061401367188 C 232.6595458984375 -196.6772766113281 232.6915893554688 -196.746826171875 232.7231750488281 -196.8168334960938 C 232.7452087402344 -196.8661346435547 232.7666015625 -196.9156799316406 232.7900085449219 -196.9643249511719 C 232.8240966796875 -197.0361480712891 232.8604431152344 -197.1063690185547 232.8965759277344 -197.1770477294922 C 232.9197692871094 -197.2222747802734 232.9420471191406 -197.2679443359375 232.9659118652344 -197.3127288818359 C 233.0050048828125 -197.3852386474609 233.046142578125 -197.4563598632812 233.0870666503906 -197.5277404785156 C 233.1106872558594 -197.5686492919922 233.1333923339844 -197.6102294921875 233.157958984375 -197.6506805419922 C 233.2015991210938 -197.7240905761719 233.2477416992188 -197.7959289550781 233.2938842773438 -197.8677215576172 C 233.3175048828125 -197.9047698974609 233.3404541015625 -197.9420318603516 233.3647766113281 -197.9781799316406 C 233.4138793945312 -198.0520477294922 233.4647827148438 -198.1243286132812 233.5163879394531 -198.1963653564453 C 233.53955078125 -198.2290954589844 233.5625 -198.2625122070312 233.5861511230469 -198.2947845458984 C 233.6406860351562 -198.3688812255859 233.697265625 -198.4413604736328 233.7540893554688 -198.5136413574219 C 233.7765808105469 -198.5422668457031 233.7986450195312 -198.5713653564453 233.8218383789062 -198.5995483398438 C 233.881591796875 -198.6736450195312 233.9436340332031 -198.7461547851562 234.0059204101562 -198.8179473876953 C 234.0277404785156 -198.8429565429688 234.0491027832031 -198.8681793212891 234.0706787109375 -198.8927307128906 C 234.1363525390625 -198.9663543701172 234.2036437988281 -199.0381927490234 234.2718200683594 -199.1095428466797 C 234.2922668457031 -199.1306915283203 234.3122863769531 -199.1522674560547 234.3329467773438 -199.1734161376953 C 234.4040832519531 -199.2461395263672 234.47705078125 -199.3172760009766 234.5511474609375 -199.3874969482422 C 234.5700073242188 -199.4054565429688 234.588623046875 -199.4236450195312 234.6077270507812 -199.4413604736328 C 234.684326171875 -199.5129547119141 234.762939453125 -199.5827331542969 234.8427124023438 -199.6513671875 C 234.8599853515625 -199.6663818359375 234.8768310546875 -199.6813507080078 234.8943176269531 -199.6961364746094 C 234.97705078125 -199.7661437988281 235.0611267089844 -199.8343200683594 235.1466064453125 -199.9009094238281 C 235.1618347167969 -199.9129638671875 235.1770629882812 -199.9252319335938 235.1925048828125 -199.9370422363281 C 235.2806701660156 -200.0052337646484 235.3709106445312 -200.0713653564453 235.4620361328125 -200.1358947753906 C 235.4754638671875 -200.1452178955078 235.4886474609375 -200.1547698974609 235.5018310546875 -200.1640930175781 C 235.5956726074219 -200.2295379638672 235.691162109375 -200.2931823730469 235.7879638671875 -200.3549957275391 C 235.79931640625 -200.3622894287109 235.8106994628906 -200.3695373535156 235.8220520019531 -200.3768310546875 C 235.921142578125 -200.4393157958984 236.0218200683594 -200.4995574951172 236.1238708496094 -200.5579681396484 C 236.1336364746094 -200.5634002685547 236.1429443359375 -200.5691070556641 236.1527099609375 -200.5747833251953 C 236.2568054199219 -200.6338806152344 236.3627319335938 -200.6904449462891 236.4697875976562 -200.7452392578125 C 236.4775085449219 -200.7490997314453 236.4849853515625 -200.7531890869141 236.4929809570312 -200.7570495605469 C 236.6022644042969 -200.8122863769531 236.7127380371094 -200.864990234375 236.8247680664062 -200.9156951904297 C 236.8309020996094 -200.9181823730469 236.8366088867188 -200.9209289550781 236.8424987792969 -200.9236450195312 C 236.9566040039062 -200.9745483398438 237.0715942382812 -201.02294921875 237.1881713867188 -201.0688629150391 L 237.2015991210938 -201.0740966796875 C 237.3195495605469 -201.1202392578125 237.4390869140625 -201.1638641357422 237.5597839355469 -201.2047729492188 C 237.5629577636719 -201.2056884765625 237.565673828125 -201.2065887451172 237.5688781738281 -201.2077331542969 C 237.69091796875 -201.2488708496094 237.8143310546875 -201.2870483398438 237.9390869140625 -201.3224945068359 L 237.944091796875 -201.3240966796875 C 238.0700073242188 -201.3597869873047 238.1970520019531 -201.3925018310547 238.3250122070312 -201.4222869873047 L 238.3277282714844 -201.4227294921875 C 238.4566040039062 -201.4527282714844 238.5863647460938 -201.4795379638672 238.7174987792969 -201.503173828125 L 238.7190856933594 -201.50341796875 C 238.8504638671875 -201.5272827148438 238.9829711914062 -201.5477294921875 239.1165771484375 -201.5650177001953 L 239.1168212890625 -201.5650177001953 C 239.3840942382812 -201.5997772216797 239.6556701660156 -201.62158203125 239.930908203125 -201.6300048828125 L 239.9311218261719 -201.6300048828125 L 239.9322814941406 -201.6352233886719 C 240.0863647460938 -202.3136291503906 240.3243408203125 -202.9600219726562 240.6352233886719 -203.5627288818359 L 240.6429443359375 -203.5779571533203 C 240.6925048828125 -203.6736450195312 240.7440795898438 -203.7679595947266 240.7972717285156 -203.8616027832031 L 240.8106994628906 -203.884765625 C 240.8643188476562 -203.9784088134766 240.9195556640625 -204.0711364746094 240.97705078125 -204.1625061035156 L 240.9797668457031 -204.1668090820312 C 241.21728515625 -204.5443267822266 241.4843139648438 -204.9011383056641 241.7784118652344 -205.2338714599609 C 241.7838745117188 -205.2397766113281 241.7886352539062 -205.2456970214844 241.7938537597656 -205.2513732910156 C 241.8565979003906 -205.3218231201172 241.9209289550781 -205.3909149169922 241.9859008789062 -205.4590911865234 C 242.0045471191406 -205.4783935546875 242.02294921875 -205.4981842041016 242.0415954589844 -205.5172729492188 C 242.10205078125 -205.5800170898438 242.1640930175781 -205.6411437988281 242.2265930175781 -205.7018280029297 C 242.2509155273438 -205.7250061035156 242.2749938964844 -205.7479553222656 242.2991027832031 -205.7709045410156 C 242.3606872558594 -205.8288726806641 242.4225158691406 -205.8859100341797 242.4856872558594 -205.9418182373047 C 242.5118408203125 -205.9649963378906 242.5381774902344 -205.9875030517578 242.5645446777344 -206.0104675292969 C 242.6286315917969 -206.0654449462891 242.6925048828125 -206.1204528808594 242.7581787109375 -206.1736450195312 C 242.7813720703125 -206.1922760009766 242.8047790527344 -206.2102355957031 242.8281860351562 -206.2286376953125 C 243.0427551269531 -206.3988647460938 243.2656860351562 -206.5584106445312 243.4970397949219 -206.7068176269531 C 243.5375061035156 -206.7327270507812 243.5772705078125 -206.7593231201172 243.6179504394531 -206.7843322753906 C 243.6756896972656 -206.8200073242188 243.7345581054688 -206.8540954589844 243.7931823730469 -206.88818359375 C 243.8416137695312 -206.9163665771484 243.8897705078125 -206.9445343017578 243.9384155273438 -206.9720611572266 C 243.9947814941406 -207.0031890869141 244.0518188476562 -207.0336456298828 244.1088562011719 -207.0636444091797 C 244.1622619628906 -207.0915985107422 244.2156982421875 -207.1190948486328 244.2695617675781 -207.1459197998047 C 244.3250122070312 -207.1734008789062 244.3806762695312 -207.20068359375 244.4368286132812 -207.2270355224609 C 244.4952392578125 -207.2545623779297 244.5540771484375 -207.2806701660156 244.6131896972656 -207.3068237304688 C 244.6665954589844 -207.3304595947266 244.7200012207031 -207.3541107177734 244.7740783691406 -207.3765869140625 C 244.8415832519531 -207.40478515625 244.9100036621094 -207.430908203125 244.9783935546875 -207.457275390625 C 245.0256958007812 -207.4752349853516 245.072509765625 -207.4943237304688 245.1199951171875 -207.5118408203125 C 245.2341003417969 -207.5531921386719 245.3493041992188 -207.5922698974609 245.4656982421875 -207.6286468505859 C 245.4979553222656 -207.6386413574219 245.5304565429688 -207.6470489501953 245.5627136230469 -207.6568145751953 C 245.6511535644531 -207.6831817626953 245.740234375 -207.7091064453125 245.8304443359375 -207.7327423095703 C 245.8768310546875 -207.7450103759766 245.924072265625 -207.7556762695312 245.970703125 -207.7670593261719 C 246.0477294921875 -207.7856750488281 246.1245422363281 -207.8038787841797 246.2022705078125 -207.8204498291016 C 246.2527160644531 -207.8311462402344 246.3034057617188 -207.8409118652344 246.3545532226562 -207.8506927490234 C 246.4302368164062 -207.865234375 246.50634765625 -207.8788604736328 246.5829772949219 -207.8915863037109 C 246.6343078613281 -207.8997802734375 246.6856994628906 -207.9077301025391 246.7375183105469 -207.9152221679688 C 246.81591796875 -207.9265899658203 246.8952331542969 -207.9363861083984 246.9745483398438 -207.9452209472656 C 247.0240783691406 -207.9509124755859 247.0736389160156 -207.9568176269531 247.1238708496094 -207.9618225097656 C 247.2109375 -207.9700012207031 247.2984008789062 -207.9761505126953 247.3861389160156 -207.9815979003906 C 247.4288635253906 -207.9843139648438 247.4713745117188 -207.9879608154297 247.5143127441406 -207.989990234375 C 247.6452331542969 -207.9961395263672 247.7765808105469 -208 247.9088745117188 -208 C 248.0418090820312 -208 248.1736450195312 -207.9961395263672 248.3050231933594 -207.989990234375 C 248.3488464355469 -207.9879608154297 248.3918151855469 -207.9841003417969 248.4352416992188 -207.9813537597656 C 248.5227355957031 -207.9759216308594 248.6102294921875 -207.9697875976562 248.6970520019531 -207.9613647460938 C 248.7479553222656 -207.9565887451172 248.7986450195312 -207.9504547119141 248.8493347167969 -207.9445495605469 C 248.927734375 -207.9356689453125 249.0061340332031 -207.9259033203125 249.0841064453125 -207.9147796630859 C 249.1372680664062 -207.9070434570312 249.1904602050781 -207.8986511230469 249.2431640625 -207.8900146484375 C 249.3179626464844 -207.8777313232422 249.3920593261719 -207.8645477294922 249.4659118652344 -207.8502197265625 C 249.5195617675781 -207.8397827148438 249.5731811523438 -207.8293304443359 249.6265869140625 -207.8179779052734 C 249.6995544433594 -207.8022918701172 249.7718200683594 -207.7852325439453 249.8443298339844 -207.7677307128906 C 249.8963623046875 -207.7550048828125 249.9488830566406 -207.7427368164062 250.0004577636719 -207.7290954589844 C 250.0747680664062 -207.7095489501953 250.1484069824219 -207.6879425048828 250.2218017578125 -207.6663665771484 C 250.2704467773438 -207.6520538330078 250.319091796875 -207.6386413574219 250.3672790527344 -207.6236419677734 C 250.46044921875 -207.5943298339844 250.5520324707031 -207.5625152587891 250.6434020996094 -207.5302429199219 C 250.7161254882812 -207.5043182373047 250.7877197265625 -207.4772796630859 250.8591003417969 -207.4495391845703 C 250.9252319335938 -207.4240875244141 250.9909057617188 -207.3988647460938 251.0563659667969 -207.371826171875 C 251.1170349121094 -207.3463745117188 251.1768188476562 -207.319091796875 251.2370300292969 -207.2922668457031 C 251.2890930175781 -207.2691040039062 251.3413696289062 -207.2461395263672 251.3927307128906 -207.2218170166016 C 251.4561462402344 -207.1918182373047 251.5188598632812 -207.1606750488281 251.5813903808594 -207.1290893554688 C 251.6272888183594 -207.1059112548828 251.6734008789062 -207.0827331542969 251.7188720703125 -207.0586395263672 C 251.7843017578125 -207.0243225097656 251.8488464355469 -206.9888610839844 251.9129638671875 -206.9527282714844 C 251.9529418945312 -206.9302215576172 251.9924926757812 -206.9072723388672 252.0320434570312 -206.8843231201172 C 252.1000061035156 -206.8445587158203 252.1672668457031 -206.8040771484375 252.2340698242188 -206.7625122070312 C 252.2654418945312 -206.7429504394531 252.29638671875 -206.7229614257812 252.3272705078125 -206.7029571533203 C 252.4004821777344 -206.6559143066406 252.4732055664062 -206.6083984375 252.5447692871094 -206.5593109130859 C 252.5579528808594 -206.5502319335938 252.5709228515625 -206.5404510498047 252.5838623046875 -206.5313720703125 C 253.0427551269531 -206.2113800048828 253.4665832519531 -205.845458984375 253.8502197265625 -205.4404449462891 L 253.8506774902344 -205.4400024414062 C 255.1590881347656 -204.0572814941406 255.9909057617188 -202.2197723388672 256.0816040039062 -200.1879425048828 C 257.1188659667969 -201.0895538330078 258.4725036621094 -201.6365966796875 259.9545593261719 -201.6365966796875 C 263.2182006835938 -201.6365966796875 265.8636474609375 -198.9906768798828 265.8636474609375 -195.72705078125 C 265.8636474609375 -195.7000122070312 265.86181640625 -195.6734161376953 265.8616027832031 -195.6465911865234 C 266.15771484375 -195.6984252929688 266.4618225097656 -195.7272796630859 266.7727355957031 -195.7272796630859 C 267.2236633300781 -195.7272796630859 267.6615905761719 -195.6700134277344 268.0791015625 -195.562744140625 C 270.3340759277344 -194.9827270507812 272 -192.9361419677734 272 -190.5002288818359 L 272 -190.5 C 272 -187.9738616943359 270.2081909179688 -185.8663635253906 267.8263854980469 -185.3788604736328 C 267.7413635253906 -185.3616027832031 267.6554565429688 -185.3461456298828 267.56884765625 -185.3329467773438 C 267.4359130859375 -185.3127288818359 267.3006591796875 -185.2988586425781 267.1647644042969 -185.2888641357422 L 267.1647644042969 -185.2806854248047 L 267.1647644042969 -185.2804565429688 L 267.0545349121094 -185.2804565429688 C 267.0502319335938 -185.2802429199219 267.0458984375 -185.2797698974609 267.0418090820312 -185.2795562744141 C 266.9527282714844 -185.2750091552734 266.8629455566406 -185.2727355957031 266.7727355957031 -185.2727355957031 Z" stroke="none" fill="#c9c9c9"/>
    </g>
  </g>
</svg>
