<svg xmlns="http://www.w3.org/2000/svg" width="40" height="40" viewBox="0 0 40 40">
  <g id="_5n" data-name="5n" transform="translate(-232 -12)">
    <g id="Grupo_8606" data-name="Grupo 8606" transform="translate(240.137 36.501)">
      <path id="Caminho_7282" data-name="Caminho 7282" d="M269.385,123.236a.937.937,0,0,1-1.324.038h0a.937.937,0,0,1,.038-1.324l1.852-1.852a.938.938,0,0,1,1.324-.038h0a.937.937,0,0,1-.039,1.324Z" transform="translate(-267.805 -119.805)" fill="#c9c9c9"/>
      <path id="Caminho_7283" data-name="Caminho 7283" d="M357.385,123.236a.937.937,0,0,1-1.324.038h0a.937.937,0,0,1,.038-1.324l1.852-1.852a.938.938,0,0,1,1.324-.038h0a.938.938,0,0,1-.038,1.324Z" transform="translate(-335.805 -119.805)" fill="#c9c9c9"/>
      <path id="Caminho_7284" data-name="Caminho 7284" d="M298.718,123.236a.937.937,0,0,1-1.324.038h0a.937.937,0,0,1,.038-1.324l1.852-1.852a.938.938,0,0,1,1.324-.038h0a.937.937,0,0,1-.039,1.324Z" transform="translate(-290.471 -119.805)" fill="#c9c9c9"/>
      <path id="Caminho_7285" data-name="Caminho 7285" d="M328.051,123.236a.937.937,0,0,1-1.324.038h0a.937.937,0,0,1,.038-1.324l1.852-1.852a.937.937,0,0,1,1.324-.038h0a.938.938,0,0,1-.038,1.324Z" transform="translate(-313.138 -119.805)" fill="#c9c9c9"/>
      <path id="Caminho_7286" data-name="Caminho 7286" d="M269.385,151.236a.937.937,0,0,1-1.324.038h0a.937.937,0,0,1,.038-1.324l1.852-1.852a.938.938,0,0,1,1.324-.038h0a.937.937,0,0,1-.039,1.324Z" transform="translate(-267.805 -141.442)" fill="#c9c9c9"/>
      <path id="Caminho_7287" data-name="Caminho 7287" d="M357.385,151.236a.937.937,0,0,1-1.324.038h0a.937.937,0,0,1,.038-1.324l1.852-1.852a.938.938,0,0,1,1.324-.038h0a.938.938,0,0,1-.038,1.324Z" transform="translate(-335.805 -141.442)" fill="#c9c9c9"/>
      <path id="Caminho_7288" data-name="Caminho 7288" d="M298.718,151.236a.937.937,0,0,1-1.324.038h0a.937.937,0,0,1,.038-1.324l1.852-1.852a.938.938,0,0,1,1.324-.038h0a.937.937,0,0,1-.039,1.324Z" transform="translate(-290.471 -141.442)" fill="#c9c9c9"/>
      <path id="Caminho_7289" data-name="Caminho 7289" d="M328.051,151.236a.937.937,0,0,1-1.324.038h0a.937.937,0,0,1,.038-1.324l1.852-1.852a.937.937,0,0,1,1.324-.038h0a.938.938,0,0,1-.038,1.324Z" transform="translate(-313.138 -141.441)" fill="#c9c9c9"/>
      <path id="Caminho_7290" data-name="Caminho 7290" d="M315.275,171.865a.938.938,0,0,0-1.324.038l-1.852,1.852a.911.911,0,1,0,1.286,1.286l1.851-1.852A.937.937,0,0,0,315.275,171.865Z" transform="translate(-301.805 -159.836)" fill="#c9c9c9"/>
    </g>
    <g id="Caminho_7291" data-name="Caminho 7291" fill="#f2f2f2" stroke-miterlimit="10">
      <path d="M 266.7727355957031 34.22727584838867 C 266.6935119628906 34.22727584838867 266.6096801757812 34.22495651245117 266.5164489746094 34.22019577026367 L 266.5037231445312 34.21954727172852 L 266.4909362792969 34.21954727172852 L 257.7615966796875 34.21954727172852 L 257.7515869140625 34.21954727172852 L 257.7415771484375 34.21994781494141 C 257.6490478515625 34.22365570068359 257.5506591796875 34.22727584838867 257.4545593261719 34.22727584838867 L 250.6647644042969 34.22727584838867 L 240.1818237304688 34.22727584838867 C 235.9459533691406 34.22727584838867 232.5 30.78112602233887 232.5 26.54522514343262 C 232.5 26.41585540771484 232.5033721923828 26.28411674499512 232.5100250244141 26.15366554260254 C 232.5112609863281 26.12741661071777 232.5133666992188 26.10361671447754 232.5153503417969 26.07977676391602 C 232.5170440673828 26.05959510803223 232.5187072753906 26.03939628601074 232.5201263427734 26.01908683776855 L 232.5213012695312 26.00152587890625 C 232.5267028808594 25.91917610168457 232.5318298339844 25.84139633178711 232.5393371582031 25.76625633239746 C 232.5423736572266 25.73558616638184 232.54638671875 25.70564651489258 232.5503234863281 25.67564582824707 C 232.553466796875 25.65176582336426 232.5565948486328 25.62785530090332 232.5594635009766 25.60383605957031 L 232.5664825439453 25.54518508911133 C 232.57275390625 25.49210548400879 232.5789337158203 25.4390869140625 232.5869750976562 25.38664627075195 C 232.592529296875 25.35014533996582 232.5991668701172 25.31448554992676 232.6057434082031 25.27879524230957 L 232.6171875 25.21577644348145 L 232.6259460449219 25.16437530517578 C 232.6345977783203 25.11330604553223 232.6431427001953 25.06232643127441 232.6533966064453 25.01185607910156 C 232.6608123779297 24.97491645812988 232.6691436767578 24.9395751953125 232.6774139404297 24.90420532226562 C 232.6829681396484 24.88040542602539 232.6885223388672 24.85658645629883 232.6938629150391 24.83268547058105 L 232.7090759277344 24.7654857635498 C 232.7182769775391 24.72438621520996 232.7274169921875 24.68329620361328 232.7377166748047 24.64249610900879 C 232.7472839355469 24.60518646240234 232.7584381103516 24.56662559509277 232.7695007324219 24.52809524536133 L 232.7883148193359 24.46205520629883 L 232.8042449951172 24.40462684631348 C 232.8154144287109 24.36409568786621 232.8265075683594 24.32356643676758 232.8389129638672 24.28335571289062 C 232.8527984619141 24.23851585388184 232.8680267333984 24.19393539428711 232.8832092285156 24.14925575256348 L 232.9009552001953 24.09688568115234 L 232.9193725585938 24.04139518737793 C 232.9314880371094 24.00464630126953 232.9435729980469 23.96773529052734 232.9568328857422 23.93135643005371 C 232.9767150878906 23.87630653381348 232.9977111816406 23.82352638244629 233.0185852050781 23.77084541320801 L 233.0304870605469 23.74078559875488 L 233.0533142089844 23.68206596374512 C 233.0657653808594 23.64980506896973 233.0781402587891 23.61758613586426 233.0913696289062 23.58591651916504 C 233.1138916015625 23.53206634521484 233.13818359375 23.47884559631348 233.1622772216797 23.42583656311035 L 233.1769561767578 23.39355659484863 L 233.1958770751953 23.35093688964844 C 233.2107849121094 23.31725692749023 233.2256011962891 23.28361511230469 233.2413940429688 23.25055694580078 C 233.2719268798828 23.18615531921387 233.3046264648438 23.12283515930176 233.3392486572266 23.05579566955566 L 233.3610992431641 23.01256561279297 C 233.3764495849609 22.98206520080566 233.3917846679688 22.95151519775391 233.4078063964844 22.92142677307129 C 233.4411773681641 22.8590259552002 233.4779357910156 22.79532623291016 233.516845703125 22.72789573669434 L 233.5455017089844 22.67768669128418 C 233.5589904785156 22.65390586853027 233.5723724365234 22.63015556335449 233.5865020751953 22.60676574707031 C 233.6292572021484 22.5352668762207 233.6736450195312 22.46594619750977 233.7115936279297 22.40732574462891 L 233.7381744384766 22.36547660827637 C 233.7525329589844 22.34274673461914 233.7668609619141 22.32001686096191 233.7817840576172 22.29757690429688 C 233.8227233886719 22.23587608337402 233.8660430908203 22.17465591430664 233.9118957519531 22.10983657836914 L 233.9218597412109 22.09576606750488 L 233.9487457275391 22.0578556060791 C 233.9625244140625 22.03836631774902 233.9762573242188 22.01886558532715 233.9904174804688 21.99955558776855 C 234.04345703125 21.92756652832031 234.1004638671875 21.85460662841797 234.1441040039062 21.79922676086426 L 234.1644744873047 21.77307510375977 C 234.1794738769531 21.75375556945801 234.1944732666016 21.73435592651367 234.2099456787109 21.71542549133301 C 234.2579193115234 21.65613555908203 234.3100433349609 21.59445571899414 234.3804626464844 21.51362609863281 L 234.4059295654297 21.48392677307129 C 234.4191436767578 21.46846580505371 234.4323577880859 21.45295524597168 234.4458770751953 21.43772506713867 C 234.5074920654297 21.3684253692627 234.5736236572266 21.29848670959473 234.630126953125 21.23927688598633 L 234.6557769775391 21.21237564086914 C 234.6677703857422 21.19974517822266 234.6797637939453 21.18708610534668 234.6919097900391 21.1746768951416 C 234.7481384277344 21.11718559265137 234.8118286132812 21.0546760559082 234.8924255371094 20.97787666320801 L 234.9219665527344 20.9495964050293 C 234.931396484375 20.94050598144531 234.9407958984375 20.93140602111816 234.9503479003906 20.9224967956543 C 235.0157928466797 20.86159515380859 235.0862579345703 20.79873657226562 235.1651153564453 20.73091506958008 L 235.1941070556641 20.70568656921387 C 235.2024383544922 20.69838523864746 235.2107543945312 20.6910457611084 235.2192535400391 20.68384552001953 C 235.2925720214844 20.62165641784668 235.3680725097656 20.56034660339355 235.4504547119141 20.4961051940918 L 235.468994140625 20.48142623901367 C 235.4777374267578 20.4744758605957 235.4864959716797 20.46743583679199 235.4954528808594 20.4606761932373 L 235.4979400634766 20.45881652832031 L 235.5003967285156 20.45691680908203 C 235.5738372802734 20.40013694763184 235.6545562744141 20.34059524536133 235.7472076416016 20.2748851776123 L 235.7714233398438 20.25767517089844 L 235.7924957275391 20.24270629882812 C 235.8731689453125 20.18646049499512 235.9607543945312 20.12800025939941 236.0507354736328 20.07041168212891 C 236.0603942871094 20.06435775756836 236.0700073242188 20.05816459655762 236.0795440673828 20.05198669433594 L 236.0927429199219 20.04348564147949 C 236.177490234375 19.99019241333008 236.2700500488281 19.93461799621582 236.3661804199219 19.87936401367188 C 236.3742065429688 19.87485885620117 236.3821105957031 19.87026786804199 236.3900146484375 19.86564636230469 L 236.3986053466797 19.86065673828125 C 236.4958953857422 19.80551528930664 236.5934448242188 19.75313568115234 236.692138671875 19.70293617248535 L 236.696533203125 19.70070648193359 L 236.7008819580078 19.6983757019043 L 236.7232360839844 19.68682670593262 C 236.8201904296875 19.63773536682129 236.9224395751953 19.58889579772949 237.0259704589844 19.54227638244629 L 237.0342102050781 19.53854560852051 C 237.0411987304688 19.53539657592773 237.0481872558594 19.5322151184082 237.05517578125 19.5289249420166 C 237.1585083007812 19.48291778564453 237.2633361816406 19.4389705657959 237.3668365478516 19.39827537536621 L 237.3718872070312 19.39629554748535 L 237.3768768310547 19.39420509338379 L 237.3855743408203 19.39080619812012 C 237.4976043701172 19.34721565246582 237.6085357666016 19.30678558349609 237.7160339355469 19.27032661437988 L 237.7251586914062 19.26733589172363 L 237.7288970947266 19.26613616943359 L 237.7329864501953 19.26475524902344 C 237.8399353027344 19.22856521606445 237.9540252685547 19.1931266784668 238.0720520019531 19.15941619873047 L 238.0749969482422 19.15857696533203 L 238.0765380859375 19.15811729431152 L 238.0916137695312 19.15383529663086 L 238.0842742919922 19.15596580505371 C 238.1983184814453 19.12376976013184 238.3147735595703 19.09366416931152 238.4304962158203 19.06645202636719 L 238.4376220703125 19.06491661071777 L 238.4412231445312 19.06413650512695 L 238.44482421875 19.06330680847168 C 238.5663757324219 19.03522682189941 238.6863861083984 19.01052665710449 238.8015747070312 18.98989677429199 L 238.8064422607422 18.98901557922363 L 238.811279296875 18.98805618286133 L 238.8166656494141 18.98698043823242 C 238.9334869384766 18.96599769592285 239.0547943115234 18.94725608825684 239.1773071289062 18.93123626708984 L 239.181884765625 18.93063545227051 L 239.1864624023438 18.92995643615723 L 239.1907043457031 18.92932319641113 C 239.3087005615234 18.91425323486328 239.4323120117188 18.9013786315918 239.5581665039062 18.89104652404785 L 239.5644226074219 18.89057540893555 C 239.6883392333984 18.88082695007324 239.8154144287109 18.87383651733398 239.9430847167969 18.86973571777344 L 239.948486328125 18.86956596374512 L 239.9538879394531 18.86927604675293 L 240.3257446289062 18.84927558898926 L 240.4171752929688 18.48704528808594 L 240.4187622070312 18.48045539855957 L 240.4195556640625 18.47714614868164 L 240.4203186035156 18.47381591796875 C 240.5623474121094 17.84777641296387 240.7839050292969 17.24017524719238 241.0787963867188 16.66789627075195 L 241.0875549316406 16.65101623535156 C 241.1316833496094 16.56558227539062 241.1784973144531 16.47947883605957 241.2309875488281 16.38714599609375 L 241.2374114990234 16.37609672546387 L 241.2411499023438 16.36960601806641 L 241.2431030273438 16.36630630493164 L 241.2451629638672 16.36272621154785 C 241.2984161376953 16.26981163024902 241.3483734130859 16.18632888793945 241.3977966308594 16.10761833190918 C 241.4009399414062 16.10279655456543 241.4040374755859 16.09791374206543 241.4070739746094 16.09292793273926 C 241.6281280517578 15.74243831634521 241.8786773681641 15.40812492370605 242.15185546875 15.09914588928223 L 242.1567535400391 15.0936164855957 L 242.1614837646484 15.08793640136719 L 242.1640625 15.08483695983887 L 242.1644592285156 15.08441638946533 L 242.1684875488281 15.07987594604492 C 242.2216949462891 15.01985645294189 242.2799224853516 14.95684623718262 242.3465118408203 14.88724613189697 L 242.3767242431641 14.85557556152344 L 242.4015655517578 14.82951641082764 C 242.4619140625 14.76713562011719 242.5255737304688 14.70481586456299 242.5742645263672 14.65752601623535 L 242.5918273925781 14.64079570770264 C 242.6084747314453 14.6248664855957 242.6250762939453 14.60899639129639 242.6417846679688 14.59335613250732 C 242.7066345214844 14.53215599060059 242.7634429931641 14.48007583618164 242.8168334960938 14.43281555175781 C 242.8368530273438 14.4150562286377 242.8568878173828 14.3978157043457 242.8768463134766 14.38061618804932 L 242.8919830322266 14.36754608154297 L 242.9019012451172 14.35904598236084 C 242.9586181640625 14.31038570404053 243.0151824951172 14.26178646087646 243.0731048583984 14.21474647521973 C 243.0858459472656 14.20435619354248 243.0976715087891 14.19521617889404 243.1094818115234 14.18603610992432 L 243.1398468017578 14.16227626800537 C 243.3408203125 14.00292587280273 243.5517425537109 13.85218620300293 243.76708984375 13.71398639678955 L 243.8092041015625 13.68676567077637 C 243.8323669433594 13.67172622680664 243.8554229736328 13.65666580200195 243.8789672851562 13.6422758102417 C 243.9281768798828 13.61175632476807 243.9754180908203 13.58429622650146 244.0225830078125 13.55680561065674 L 244.0447540283203 13.5438756942749 C 244.0907745361328 13.51700878143311 244.1364593505859 13.49039173126221 244.1827697753906 13.46421241760254 C 244.2352294921875 13.4353551864624 244.2883148193359 13.40692234039307 244.3416137695312 13.37889575958252 C 244.3911743164062 13.35293579101562 244.4416046142578 13.32698631286621 244.4924468994141 13.30167579650879 C 244.5439605712891 13.27612590789795 244.5964050292969 13.25039577484131 244.6493072509766 13.22556591033936 C 244.7046356201172 13.19951629638672 244.7598724365234 13.17501640319824 244.8153533935547 13.15049648284912 C 244.8658752441406 13.12812614440918 244.9156951904297 13.10603618621826 244.9661560058594 13.08504581451416 C 245.0289459228516 13.05883598327637 245.092041015625 13.0347957611084 245.1550903320312 13.01069641113281 L 245.2141265869141 12.98769569396973 C 245.2403106689453 12.97739601135254 245.2664642333984 12.96707630157471 245.2928771972656 12.95734596252441 C 245.4060974121094 12.91654586791992 245.5124664306641 12.88058567047119 245.6147766113281 12.84862613677979 C 245.6280364990234 12.84451580047607 245.6423950195312 12.84055614471436 245.6567230224609 12.8365364074707 C 245.6727447509766 12.83205604553223 245.6887359619141 12.82754611968994 245.7046813964844 12.82282638549805 C 245.785888671875 12.79841613769531 245.8709259033203 12.77332592010498 245.9560241699219 12.75124645233154 C 245.9861450195312 12.7432861328125 246.0143432617188 12.73662567138672 246.0424957275391 12.72992610931396 L 246.0890502929688 12.71874618530273 C 246.1625671386719 12.70095634460449 246.2350616455078 12.68359565734863 246.3052520751953 12.66882610321045 C 246.3530731201172 12.65870571136475 246.4005737304688 12.64957618713379 246.4484710693359 12.64041614532471 C 246.5309753417969 12.62456607818604 246.5987243652344 12.6124963760376 246.6620941162109 12.60233592987061 C 246.7128143310547 12.59381580352783 246.7597045898438 12.58655643463135 246.8069915771484 12.57992649078369 C 246.8729858398438 12.57035636901855 246.943603515625 12.56136608123779 247.0314788818359 12.55129623413086 L 247.0713195800781 12.54684638977051 C 247.1044464111328 12.54311561584473 247.1376800537109 12.53934574127197 247.1712341308594 12.53615570068359 C 247.2595977783203 12.52763557434082 247.3490600585938 12.5216760635376 247.4171905517578 12.51743602752686 L 247.4687194824219 12.51389598846436 C 247.4918060302734 12.51223564147949 247.5149078369141 12.51053619384766 247.5381469726562 12.50942611694336 C 247.6735382080078 12.50308609008789 247.7949523925781 12.49999618530273 247.9088745117188 12.49999618530273 C 248.0233917236328 12.49999618530273 248.1453399658203 12.50308609008789 248.2817077636719 12.50945568084717 C 248.3042907714844 12.51050567626953 248.3266448974609 12.5121955871582 248.3489990234375 12.51383590698242 C 248.3672637939453 12.51516628265381 248.3855285644531 12.51649570465088 248.4038543701172 12.51764583587646 C 248.4725341796875 12.52193641662598 248.5621948242188 12.52791595458984 248.6488342285156 12.53630638122559 C 248.6824798583984 12.53945636749268 248.7144470214844 12.54321575164795 248.7463989257812 12.54692554473877 L 248.7936401367188 12.55234622955322 C 248.8729705810547 12.56130599975586 248.9450225830078 12.5704460144043 249.0134582519531 12.5802059173584 C 249.0623321533203 12.58731555938721 249.1125335693359 12.59526634216309 249.1622772216797 12.60341644287109 C 249.2329254150391 12.61500644683838 249.302978515625 12.62770557403564 249.3732147216797 12.64102554321289 C 249.4235229492188 12.65091609954834 249.4727020263672 12.66055583953857 249.5216979980469 12.67101573944092 C 249.5919036865234 12.68579578399658 249.6597442626953 12.7020263671875 249.7278747558594 12.71841621398926 L 249.7693939208984 12.72850608825684 C 249.8045959472656 12.73703575134277 249.8397369384766 12.74552631378174 249.8746490478516 12.75459575653076 C 249.9385070800781 12.77154636383057 250.0040283203125 12.79090595245361 250.0698852539062 12.81030559539795 L 250.0815124511719 12.81373596191406 L 250.1184997558594 12.82433605194092 C 250.1515045166016 12.83375644683838 250.1845550537109 12.84312629699707 250.2172546386719 12.85339641571045 C 250.2946624755859 12.87771606445312 250.3785247802734 12.90606594085693 250.4810638427734 12.94260597229004 C 250.5455169677734 12.96570587158203 250.6102447509766 12.99023628234863 250.6749572753906 13.01517581939697 L 250.7046508789062 13.02666568756104 C 250.7582092285156 13.04735565185547 250.8119049072266 13.0680456161499 250.8646545410156 13.09000587463379 C 250.9063415527344 13.10744571685791 250.9483032226562 13.12625598907471 250.9903869628906 13.1450662612915 L 251.0316772460938 13.16348648071289 L 251.0741729736328 13.18250560760498 C 251.1088409423828 13.19796562194824 251.1435241699219 13.21337604522705 251.1776580810547 13.22969627380371 C 251.2391662597656 13.25866603851318 251.2972564697266 13.2876558303833 251.3551635742188 13.31681632995605 L 251.3832550048828 13.33104610443115 C 251.4175415039062 13.34839630126953 251.451904296875 13.36574554443359 251.4859924316406 13.38378620147705 C 251.5469970703125 13.41602611541748 251.6074523925781 13.44903564453125 251.6674499511719 13.48268604278564 C 251.7050933837891 13.50391578674316 251.7433624267578 13.52621555328369 251.7816467285156 13.54849624633789 C 251.8435668945312 13.58481597900391 251.9069061279297 13.62256622314453 251.9694061279297 13.66141605377197 C 251.9918060302734 13.67541599273682 252.0148620605469 13.69040584564209 252.0378875732422 13.70534610748291 L 252.0569458007812 13.71770572662354 C 252.1187744140625 13.7574462890625 252.190185546875 13.80376625061035 252.2610931396484 13.85250568389893 C 252.2667541503906 13.85643577575684 252.2738647460938 13.86164569854736 252.2809753417969 13.86680603027344 L 252.2938690185547 13.87613582611084 L 252.2969512939453 13.87835597991943 L 252.3000640869141 13.88052558898926 C 252.7272644042969 14.17856597900391 253.1263427734375 14.52243614196777 253.4862213134766 14.90260601043701 L 253.4904632568359 14.90707588195801 L 253.4921417236328 14.90877246856689 C 254.7579345703125 16.24858093261719 255.5001068115234 17.99758529663086 255.5821075439453 19.83434677124023 L 255.6282653808594 20.86852645874023 L 256.4096069335938 20.18942642211914 C 257.2569274902344 19.45296669006348 258.2912902832031 19.00416564941406 259.4009094238281 18.89152526855469 C 259.584716796875 18.8730354309082 259.7711486816406 18.8636360168457 259.9545593261719 18.8636360168457 C 260.1379699707031 18.8636360168457 260.3244018554688 18.8730354309082 260.5086059570312 18.89157676696777 C 261.8331909179688 19.02613639831543 263.0586242675781 19.6456356048584 263.9586486816406 20.63589668273926 C 264.8646850585938 21.63277626037598 265.3636474609375 22.92435646057129 265.3636474609375 24.27272605895996 C 265.3636474609375 24.28127670288086 265.3632507324219 24.28951644897461 265.3629455566406 24.2977352142334 C 265.3623352050781 24.31492614746094 265.3617553710938 24.33208656311035 265.3616333007812 24.34930610656738 L 265.356689453125 24.94980621337891 L 265.9481506347656 24.84585571289062 C 266.2242736816406 24.79733657836914 266.501708984375 24.77272605895996 266.7727355957031 24.77272605895996 C 269.3793640136719 24.77272605895996 271.5 26.89337539672852 271.5 29.5000057220459 C 271.5 30.70070648193359 271.0492248535156 31.84508514404297 270.2306823730469 32.72233581542969 C 269.4162292480469 33.59521484375 268.3142395019531 34.12443542480469 267.1277465820312 34.21250534057617 L 267.0141906738281 34.2209358215332 C 266.9268493652344 34.22519683837891 266.8477172851562 34.22727584838867 266.7727355957031 34.22727584838867 Z" stroke="none"/>
      <path d="M 266.7727355957031 33.72727584838867 C 266.8377380371094 33.72727584838867 266.9068603515625 33.72549819946289 266.9834899902344 33.72183609008789 L 267.0907592773438 33.71387481689453 C 268.1514282226562 33.63514709472656 269.13671875 33.1618766784668 269.8651123046875 32.3812255859375 C 270.5969543457031 31.59687614440918 271 30.57364654541016 271 29.5000057220459 C 271 27.16907691955566 269.1036682128906 25.27272605895996 266.7727355957031 25.27272605895996 C 266.5306396484375 25.27272605895996 266.2823181152344 25.29479598999023 266.0346984863281 25.33831596374512 L 264.8517761230469 25.54619598388672 L 264.8616333007812 24.34519577026367 C 264.86181640625 24.32327651977539 264.8624877929688 24.30143547058105 264.86328125 24.27955627441406 L 264.8636474609375 24.26851654052734 C 264.8626098632812 23.04631423950195 264.4098815917969 21.87578773498535 263.588623046875 20.9721851348877 C 262.7716979980469 20.07335662841797 261.6597595214844 19.51108551025391 260.4585266113281 19.3890552520752 C 260.2908935546875 19.3721866607666 260.121337890625 19.3636360168457 259.9545593261719 19.3636360168457 C 259.7878112792969 19.3636360168457 259.6182250976562 19.3721866607666 259.451416015625 19.38897514343262 C 258.4450378417969 19.49112510681152 257.5066223144531 19.89841651916504 256.7376098632812 20.56680679321289 L 255.1749420166016 21.92501640319824 L 255.0825958251953 19.85664558410645 C 255.0060424804688 18.14184188842773 254.3136901855469 16.50862884521484 253.1329345703125 15.25663185119629 L 253.131591796875 15.25528621673584 L 253.1231231689453 15.24633598327637 C 252.7865447998047 14.89079570770264 252.4133758544922 14.56923580169678 252.0139770507812 14.29058647155762 L 252.0077514648438 14.28624629974365 L 252.0016021728516 14.28181648254395 L 251.9873962402344 14.27153587341309 L 251.9778747558594 14.26455593109131 C 251.9125671386719 14.21967601776123 251.8451995849609 14.17597579956055 251.7852630615234 14.13744640350342 L 251.7657775878906 14.12481594085693 C 251.7451171875 14.11141586303711 251.7244567871094 14.09795570373535 251.7053680419922 14.08602619171143 C 251.6465454101562 14.04944610595703 251.5869140625 14.01393604278564 251.5301361083984 13.98062610626221 C 251.4937744140625 13.95947647094727 251.4574432373047 13.9382963180542 251.4228515625 13.91876602172852 C 251.3664855957031 13.88715648651123 251.3097076416016 13.85614585876465 251.252197265625 13.82575607299805 C 251.2207641601562 13.80913639068604 251.1890869140625 13.7931661605835 251.1575012207031 13.77717590332031 L 251.1303253173828 13.76340579986572 C 251.0763244628906 13.73621559143066 251.0221710205078 13.70914554595947 250.9673614501953 13.68333625793457 L 250.9646453857422 13.68205642700195 L 250.9619293212891 13.68076610565186 C 250.9317779541016 13.66634559631348 250.901123046875 13.65280628204346 250.8705139160156 13.63914585113525 L 250.8285675048828 13.62037563323975 L 250.7863311767578 13.60153579711914 C 250.7479248046875 13.58436584472656 250.7096557617188 13.56714630126953 250.6725158691406 13.55160617828369 C 250.6237030029297 13.53129577636719 250.5740051269531 13.51220607757568 250.5244445800781 13.49306583404541 L 250.4951171875 13.48172569274902 C 250.4340972900391 13.45820617675781 250.3730773925781 13.43504619598389 250.3132934570312 13.41360569000244 C 250.216796875 13.37923622131348 250.1386566162109 13.35279560089111 250.0674285888672 13.33041572570801 C 250.0389251708984 13.32146644592285 250.0100860595703 13.31335639953613 249.9812927246094 13.30513572692871 L 249.9461364746094 13.29507637023926 L 249.9432067871094 13.2942361831665 L 249.9402770996094 13.29336643218994 L 249.9286041259766 13.28993606567383 C 249.8670959472656 13.27181625366211 249.8059234619141 13.25366592407227 249.7488403320312 13.23851585388184 C 249.7166137695312 13.23013591766357 249.6841735839844 13.22232627868652 249.6516876220703 13.21445560455322 L 249.6109466552734 13.20454597473145 C 249.5474700927734 13.18928623199463 249.4842529296875 13.17409610748291 249.4172668457031 13.15998554229736 C 249.3718719482422 13.15029430389404 249.3263092041016 13.14136981964111 249.2766418457031 13.13161468505859 C 249.2116088867188 13.11931133270264 249.1467590332031 13.10755729675293 249.0813751220703 13.09683609008789 C 249.0346069335938 13.08916568756104 248.9873962402344 13.0816764831543 248.9428100585938 13.07519626617432 C 248.8792572021484 13.06611633300781 248.8119354248047 13.05759620666504 248.7379455566406 13.04923629760742 L 248.688720703125 13.04358577728271 C 248.6604461669922 13.04030609130859 248.6321563720703 13.03693580627441 248.6006317138672 13.03397560119629 C 248.5215454101562 13.02631568908691 248.4374237060547 13.02071571350098 248.3724975585938 13.01666641235352 C 248.3524475097656 13.01540565490723 248.3324890136719 13.01396560668945 248.3125305175781 13.01250648498535 C 248.2945251464844 13.01118564605713 248.2765350341797 13.00975608825684 248.2584075927734 13.00890636444092 C 248.1298828125 13.00291633605957 248.0155334472656 12.99999618530273 247.9088745117188 12.99999618530273 C 247.8028259277344 12.99999618530273 247.6890716552734 13.00290584564209 247.5619964599609 13.00885581970215 C 247.542724609375 13.00977611541748 247.5236053466797 13.01124572753906 247.5044708251953 13.01261615753174 L 247.4482574462891 13.01647567749023 C 247.3840637207031 13.02046585083008 247.3001098632812 13.02604579925537 247.2185974121094 13.03390598297119 C 247.1879272460938 13.03682613372803 247.1575469970703 13.04029560089111 247.1272430419922 13.04370594024658 L 247.0883941650391 13.04804611206055 C 247.0055847167969 13.05753612518311 246.939697265625 13.06591606140137 246.8764495849609 13.07507610321045 C 246.8336944580078 13.08107566833496 246.7913055419922 13.08763599395752 246.7489624023438 13.09476566314697 L 246.7450866699219 13.09541606903076 L 246.7412109375 13.09603595733643 C 246.6830444335938 13.10535621643066 246.6201171875 13.11658573150635 246.5423889160156 13.131516456604 C 246.4977264404297 13.14005565643311 246.4534454345703 13.14853572845459 246.4082336425781 13.15810585021973 C 246.3447265625 13.17147636413574 246.2790222167969 13.18720626831055 246.2073974609375 13.20453643798828 L 246.1583251953125 13.2163257598877 C 246.1342010498047 13.22206592559814 246.1100158691406 13.22771644592285 246.0816345214844 13.23521614074707 C 246.004638671875 13.25519561767578 245.9251098632812 13.27866554260254 245.8466491699219 13.30224609375 C 245.8283538818359 13.30766582489014 245.8100280761719 13.31283569335938 245.7916717529297 13.31798648834229 C 245.7817077636719 13.32077598571777 245.7717132568359 13.32345581054688 245.7638549804688 13.32587623596191 C 245.6695251464844 13.35535430908203 245.5709838867188 13.38865089416504 245.4627380371094 13.4276294708252 C 245.4407043457031 13.43580150604248 245.4188690185547 13.44445037841797 245.3970031738281 13.45304584503174 L 245.3336029052734 13.47774600982666 C 245.2752838134766 13.50003623962402 245.2168884277344 13.52218627929688 245.158203125 13.54668617248535 C 245.1112060546875 13.56623554229736 245.0648345947266 13.5868558883667 245.0175018310547 13.60780620574951 C 244.9656524658203 13.6307258605957 244.9140167236328 13.6535758972168 244.8617858886719 13.67816638946533 C 244.8121337890625 13.7014856338501 244.7629089355469 13.72564601898193 244.7153167724609 13.7492561340332 C 244.6675262451172 13.77305603027344 244.6201019287109 13.79746627807617 244.5743560791016 13.82141590118408 C 244.5246276855469 13.84757232666016 244.4750823974609 13.87409114837646 244.4261016845703 13.90101337432861 C 244.3827514648438 13.92555046081543 244.3399963378906 13.95048236846924 244.2967834472656 13.97571563720703 L 244.2743835449219 13.98877620697021 C 244.2311706542969 14.01396560668945 244.1878662109375 14.03905582427979 244.1453247070312 14.06544589996338 L 244.1425628662109 14.06716632843018 L 244.1397857666016 14.06885623931885 C 244.1201171875 14.080885887146 244.1008911132812 14.09351634979248 244.0815582275391 14.10607624053955 L 244.0371398925781 14.13478565216064 C 243.8357391357422 14.26403617858887 243.6384735107422 14.40500640869141 243.4501647949219 14.55432605743408 L 243.4163665771484 14.58077621459961 C 243.40771484375 14.58750629425049 243.3989868164062 14.59417629241943 243.3882904052734 14.60290622711182 C 243.3338623046875 14.64709568023682 243.2807464599609 14.69281578063965 243.2274627685547 14.73853588104248 L 243.21875 14.74599647521973 L 243.2033233642578 14.75929641723633 C 243.1851043701172 14.77500629425049 243.1668090820312 14.79074573516846 243.1482086181641 14.80722618103027 C 243.0988464355469 14.85092639923096 243.0458831787109 14.89948558807373 242.9835662841797 14.95829582214355 C 242.9680786132812 14.97279644012451 242.9527130126953 14.98751640319824 242.937255859375 15.00227642059326 L 242.9201202392578 15.01864051818848 C 242.8743743896484 15.06308364868164 242.8154754638672 15.12077903747559 242.7613372802734 15.17675590515137 L 242.7395629882812 15.19958591461182 L 242.7077941894531 15.23289585113525 C 242.6458129882812 15.29767990112305 242.5919494628906 15.35594940185547 242.5431060791016 15.41102504730225 L 242.5362243652344 15.41927623748779 L 242.5264434814453 15.43033599853516 C 242.2719116210938 15.71821784973145 242.0383758544922 16.02966117858887 241.8321533203125 16.35621070861816 C 241.8279876708984 16.36299324035645 241.82373046875 16.36976051330566 241.8193511962891 16.37654113769531 C 241.7741241455078 16.44863510131836 241.7281646728516 16.52552032470703 241.6789855957031 16.6113452911377 L 241.6751403808594 16.61812591552734 L 241.6710662841797 16.62498664855957 L 241.6653289794922 16.63485145568848 C 241.6163024902344 16.72109222412109 241.5727233886719 16.80123519897461 241.5314636230469 16.88112640380859 L 241.5232543945312 16.89693641662598 C 241.2476654052734 17.4317455291748 241.0406341552734 17.9995059967041 240.9079284667969 18.58444595336914 L 240.9064178466797 18.59109687805176 L 240.9048156738281 18.59772682189941 L 240.9032287597656 18.60431671142578 L 240.7244567871094 19.32854652404785 L 239.9807434082031 19.36855506896973 L 239.9699401855469 19.36913681030273 L 239.9591217041016 19.36947631835938 C 239.8391723632812 19.37333679199219 239.7198944091797 19.37988662719727 239.6027374267578 19.38910675048828 L 239.5970458984375 19.3895435333252 C 239.4810180664062 19.39908981323242 239.3672790527344 19.41091728210449 239.2587280273438 19.42470359802246 L 239.2512969970703 19.42581558227539 L 239.2421112060547 19.42701530456543 C 239.1290588378906 19.44179916381836 239.0172424316406 19.45903778076172 238.9096374511719 19.47828102111816 L 238.9091644287109 19.4783763885498 L 238.8994750976562 19.48031616210938 L 238.8897399902344 19.4820556640625 C 238.7826843261719 19.50123596191406 238.6708679199219 19.52425575256348 238.5573883056641 19.55046653747559 L 238.5501861572266 19.5521354675293 L 238.5429534912109 19.55369567871094 L 238.5404205322266 19.55424308776855 C 238.4345397949219 19.57920837402344 238.3280334472656 19.60675239562988 238.2236633300781 19.63615989685059 C 238.2190093994141 19.63750076293945 238.2142944335938 19.63882637023926 238.20947265625 19.64015960693359 L 238.2093505859375 19.64019584655762 C 238.0989837646484 19.67170524597168 237.9926452636719 19.70474624633789 237.8932495117188 19.73837661743164 L 237.8821258544922 19.7420768737793 L 237.8758697509766 19.74408531188965 C 237.7755432128906 19.77813148498535 237.6718292236328 19.81594467163086 237.5676116943359 19.85649681091309 L 237.5644836425781 19.85770797729492 L 237.5598754882812 19.8596363067627 L 237.5498046875 19.86359596252441 C 237.4544525146484 19.90109062194824 237.3578338623047 19.94155502319336 237.2624816894531 19.98394012451172 C 237.2545318603516 19.98763847351074 237.2463073730469 19.99139022827148 237.2374114990234 19.99539566040039 L 237.2343444824219 19.99680519104004 L 237.2312622070312 19.9981861114502 C 237.1346435546875 20.04169654846191 237.0393218994141 20.08721542358398 236.9503173828125 20.13229560852051 L 236.9363098144531 20.13948631286621 L 236.9276123046875 20.14412689208984 L 236.9188232421875 20.14859580993652 C 236.8267974853516 20.19540596008301 236.7359619140625 20.24418640136719 236.6488189697266 20.29358673095703 L 236.6451568603516 20.29565620422363 L 236.6414947509766 20.29769515991211 L 236.6425170898438 20.29719543457031 C 236.6329040527344 20.30282402038574 236.6232452392578 20.30841445922852 236.6134948730469 20.31392097473145 C 236.5237579345703 20.36552429199219 236.4376068115234 20.41726112365723 236.3607177734375 20.46561622619629 L 236.3512573242188 20.47172546386719 C 236.3405456542969 20.47865104675293 236.3297882080078 20.48557472229004 236.3189697265625 20.49237632751465 C 236.2362213134766 20.54535675048828 236.15576171875 20.59903717041016 236.0797271728516 20.65198135375977 L 236.0617065429688 20.66478538513184 L 236.0364685058594 20.68271636962891 C 235.9494781494141 20.74440574645996 235.8741760253906 20.79993629455566 235.8062438964844 20.85246658325195 L 235.8015441894531 20.8560962677002 L 235.7965850830078 20.85983657836914 L 235.7801513671875 20.87280654907227 L 235.7618560791016 20.88729667663574 L 235.7598876953125 20.88885688781738 L 235.7579040527344 20.89039611816406 C 235.6810150146484 20.95035552978516 235.6107482910156 21.00740623474121 235.5423736572266 21.06542587280273 L 235.5238189697266 21.08157539367676 C 235.5125885009766 21.09142684936523 235.5013580322266 21.10124588012695 235.4911346435547 21.11002540588379 C 235.4172668457031 21.17353630065918 235.3515625 21.23212623596191 235.2915954589844 21.28793525695801 L 235.2689514160156 21.30959510803223 L 235.2373657226562 21.33984565734863 C 235.1611175537109 21.41250610351562 235.1013946533203 21.4710865020752 235.0493011474609 21.52435684204102 C 235.0388641357422 21.53501510620117 235.028564453125 21.54590606689453 235.0182647705078 21.55675506591797 L 234.9918518066406 21.5844554901123 C 234.9383544921875 21.64052581787109 234.8759765625 21.70647621154785 234.8199005126953 21.76954650878906 C 234.8084411621094 21.78245544433594 234.7972564697266 21.79563522338867 234.7860565185547 21.80874633789062 L 234.7574920654297 21.84201622009277 C 234.6912078857422 21.91811561584473 234.6426696777344 21.97550582885742 234.5971527099609 22.0317554473877 C 234.5842742919922 22.04750633239746 234.5718536376953 22.06367683410645 234.5593719482422 22.07974624633789 L 234.5368499755859 22.10866546630859 C 234.4955291748047 22.16110610961914 234.4417266845703 22.22994613647461 234.3937835693359 22.29500579833984 C 234.3813171386719 22.31201553344727 234.3692474365234 22.32919692993164 234.3571166992188 22.34634590148926 L 234.3300628662109 22.38448524475098 L 234.320068359375 22.39861679077148 C 234.2764282226562 22.46030616760254 234.2352142333984 22.51857566833496 234.1981048583984 22.57447624206543 C 234.1853332519531 22.59368515014648 234.173095703125 22.61319541931152 234.1607971191406 22.63266563415527 L 234.1342010498047 22.67454528808594 L 234.1327972412109 22.67675590515137 L 234.1313629150391 22.6789665222168 C 234.0958099365234 22.73390579223633 234.0543823242188 22.7985668182373 234.0145721435547 22.86512565612793 C 234.0028076171875 22.8846263885498 233.99169921875 22.90446662902832 233.9804534912109 22.92428588867188 L 233.9499206542969 22.97779655456543 C 233.9130706787109 23.04165649414062 233.8782653808594 23.10196685791016 233.8492126464844 23.15624618530273 C 233.8349609375 23.18304634094238 233.8213500976562 23.21027565002441 233.8076782226562 23.2374267578125 L 233.7866821289062 23.27900695800781 L 233.7850952148438 23.2821159362793 L 233.7834930419922 23.28521537780762 C 233.7508850097656 23.34836578369141 233.7200927734375 23.40800666809082 233.6925506591797 23.46611595153809 C 233.6788330078125 23.49480628967285 233.6660461425781 23.52405548095703 233.6531066894531 23.55328559875488 L 233.6347045898438 23.59473609924316 L 233.6335144042969 23.5974063873291 L 233.6323089599609 23.60006523132324 L 233.617431640625 23.63282585144043 C 233.5954437255859 23.68117523193359 233.5732116699219 23.72968673706055 233.552734375 23.77865600585938 C 233.5412445068359 23.80615615844727 233.5305633544922 23.83416557312012 233.5197448730469 23.8621768951416 L 233.4954833984375 23.92452621459961 L 233.4834289550781 23.95500564575195 C 233.4644317626953 24.0029468536377 233.4452514648438 24.05094528198242 233.4266357421875 24.10248565673828 C 233.4151306152344 24.13406562805176 233.4047241210938 24.16611671447754 233.3942108154297 24.1980152130127 L 233.3748626708984 24.25626564025879 L 233.3565979003906 24.31019592285156 C 233.3428802490234 24.35054588317871 233.3290710449219 24.39078521728516 233.3166809082031 24.43080520629883 C 233.3057708740234 24.46616554260254 233.2960968017578 24.5018367767334 233.2862701416016 24.5374755859375 L 233.2698059082031 24.59683609008789 L 233.2500762939453 24.66615676879883 C 233.2403259277344 24.70006561279297 233.2304382324219 24.73398590087891 233.2224731445312 24.76499557495117 C 233.2132873535156 24.80140686035156 233.2052001953125 24.83808517456055 233.1969757080078 24.874755859375 C 233.1917724609375 24.89800834655762 233.1865539550781 24.92127990722656 233.1811981201172 24.94452667236328 C 233.1757049560547 24.96903991699219 233.1700286865234 24.99346351623535 233.1643218994141 25.01788520812988 C 233.1572418212891 25.04819679260254 233.1500091552734 25.07845687866211 233.1433868408203 25.11144638061523 C 233.1342163085938 25.15659523010254 233.1266632080078 25.20221519470215 233.1189270019531 25.24791526794434 L 233.1095733642578 25.30267524719238 L 233.0974731445312 25.36930656433105 C 233.0918426513672 25.39993667602539 233.0860443115234 25.43052673339844 233.0812072753906 25.46237564086914 C 233.0740356445312 25.50919532775879 233.0686187744141 25.55656623840332 233.0630035400391 25.60395622253418 L 233.0559539794922 25.66289520263672 C 233.0528564453125 25.68895530700684 233.0494689941406 25.71489524841309 233.0460662841797 25.74080657958984 C 233.0428314208984 25.7654857635498 233.0394134521484 25.79009628295898 233.036865234375 25.8159351348877 C 233.0301971435547 25.88266563415527 233.0253448486328 25.95635604858398 233.0202178955078 26.03436660766602 L 233.0189056396484 26.05407524108887 C 233.017333984375 26.07660675048828 233.0154876708984 26.09900665283203 233.0136260986328 26.12139511108398 C 233.0121307373047 26.13915634155273 233.0104370117188 26.15687561035156 233.0093841552734 26.17913627624512 C 233.0031585693359 26.30114555358887 233 26.42431640625 233 26.54522514343262 C 233 30.50542640686035 236.2216644287109 33.72727584838867 240.1818237304688 33.72727584838867 L 250.6647644042969 33.72727584838867 L 257.4545593261719 33.72727584838867 C 257.5414428710938 33.72727584838867 257.6340942382812 33.72385787963867 257.7215576171875 33.72034454345703 L 257.7415771484375 33.71954727172852 L 257.7615966796875 33.71954727172852 L 266.4909362792969 33.71954727172852 L 266.5164794921875 33.71954727172852 L 266.5419616699219 33.72084426879883 C 266.6266174316406 33.72517776489258 266.7020874023438 33.72727584838867 266.7727355957031 33.72727584838867 M 266.7727355957031 34.72727584838867 C 266.6781921386719 34.72727584838867 266.5842895507812 34.72431564331055 266.4909362792969 34.71954727172852 L 257.7615966796875 34.71954727172852 C 257.6595458984375 34.72363662719727 257.5574951171875 34.72727584838867 257.4545593261719 34.72727584838867 L 250.6647644042969 34.72727584838867 L 240.1818237304688 34.72727584838867 L 240.1816101074219 34.72727584838867 C 235.6631774902344 34.72727584838867 232 31.06409645080566 232 26.54522514343262 C 232 26.40545654296875 232.0036315917969 26.26636695861816 232.0106811523438 26.1281852722168 C 232.012939453125 26.07977676391602 232.0179748535156 26.03227615356445 232.0213623046875 25.98409652709961 C 232.0272521972656 25.894775390625 232.032958984375 25.80522537231445 232.0418090820312 25.71658515930176 C 232.0474853515625 25.65909576416016 232.0561218261719 25.60227584838867 232.0629577636719 25.54477691650391 C 232.072509765625 25.46659660339355 232.0809020996094 25.38818550109863 232.0927429199219 25.31091690063477 C 232.10205078125 25.24977684020996 232.1140747070312 25.18954658508301 232.1247863769531 25.12886619567871 C 232.1372680664062 25.05636596679688 232.1488647460938 24.98386573791504 232.1634216308594 24.91227531433105 C 232.1761474609375 24.8488655090332 232.1918334960938 24.78659629821777 232.2059020996094 24.72363662719727 C 232.2215881347656 24.65568542480469 232.2359008789062 24.58750534057617 232.2529602050781 24.51999664306641 C 232.2695617675781 24.45522689819336 232.2888793945312 24.39136695861816 232.3068237304688 24.3272762298584 C 232.3247680664062 24.26340675354004 232.3415832519531 24.19931602478027 232.3611450195312 24.13590621948242 C 232.3818359375 24.0690860748291 232.40478515625 24.00363540649414 232.4270324707031 23.9375057220459 C 232.4468078613281 23.87863540649414 232.4656677246094 23.81886672973633 232.4870300292969 23.76022529602051 C 232.5118103027344 23.69159507751465 232.5388793945312 23.62431526184082 232.5654602050781 23.55704689025879 C 232.5870361328125 23.50227546691895 232.6075134277344 23.44704627990723 232.6300048828125 23.39318656921387 C 232.6590881347656 23.32363510131836 232.690673828125 23.25522613525391 232.7215881347656 23.18704605102539 C 232.7443237304688 23.13613510131836 232.766357421875 23.08499526977539 232.7902526855469 23.03499603271484 C 232.8236389160156 22.96454620361328 232.8593139648438 22.89545631408691 232.8949890136719 22.82636642456055 C 232.9186401367188 22.77977561950684 232.9418334960938 22.73272514343262 232.9663696289062 22.68659591674805 C 233.0045471191406 22.61522674560547 233.0449829101562 22.54522514343262 233.0852355957031 22.47545623779297 C 233.1097717285156 22.43295669555664 233.1331787109375 22.39022636413574 233.1584167480469 22.3484058380127 C 233.2013549804688 22.27659606933594 233.2463684082031 22.20590591430664 233.2918090820312 22.13568687438965 C 233.3163757324219 22.09727668762207 233.3402099609375 22.05863571166992 233.3654479980469 22.02068519592285 C 233.4134216308594 21.94840621948242 233.4636535644531 21.87772560119629 233.5136413574219 21.80704689025879 C 233.5381774902344 21.77272605895996 233.5620727539062 21.73818588256836 233.5870361328125 21.7040958404541 C 233.6404724121094 21.63159561157227 233.6956787109375 21.56045532226562 233.7513732910156 21.48977661132812 C 233.7749938964844 21.45954513549805 233.7984008789062 21.42886543273926 233.8227233886719 21.39909553527832 C 233.8813781738281 21.32659530639648 233.9420471191406 21.25568580627441 234.00341796875 21.18522644042969 C 234.0261535644531 21.15886688232422 234.0486450195312 21.13204574584961 234.0718383789062 21.10590553283691 C 234.1358947753906 21.03386688232422 234.2020263671875 20.96363639831543 234.2684020996094 20.89408683776855 C 234.2904357910156 20.87113571166992 234.3122863769531 20.84772682189941 234.3345336914062 20.82499694824219 C 234.4038696289062 20.75409507751465 234.4754638671875 20.68454551696777 234.5474853515625 20.61590576171875 C 234.5681762695312 20.59636688232422 234.5884094238281 20.57636642456055 234.6091003417969 20.55704689025879 C 234.684326171875 20.48704528808594 234.7611389160156 20.41886520385742 234.839111328125 20.35181617736816 C 234.8581848144531 20.33545684814453 234.8768310546875 20.31863594055176 234.8961486816406 20.30227661132812 C 234.97705078125 20.2336368560791 235.059326171875 20.16704559326172 235.1429748535156 20.10181617736816 C 235.1600036621094 20.08840560913086 235.1770629882812 20.07454681396484 235.1945495605469 20.06136512756348 C 235.2806701660156 19.99477577209473 235.3688659667969 19.93022537231445 235.4579467773438 19.86704635620117 C 235.4734191894531 19.85613632202148 235.4888610839844 19.84500694274902 235.5043334960938 19.83409690856934 C 235.5959167480469 19.77022552490234 235.6890869140625 19.70818519592285 235.7836303710938 19.64772605895996 C 235.7974853515625 19.63909530639648 235.8111572265625 19.63000679016113 235.8247680664062 19.62136650085449 C 235.9216003417969 19.56045532226562 236.0199890136719 19.50159645080566 236.1193237304688 19.44454574584961 C 236.131591796875 19.43772506713867 236.1434020996094 19.43045616149902 236.1556701660156 19.42363548278809 C 236.2575073242188 19.36590576171875 236.3609008789062 19.31045532226562 236.4654541015625 19.25727653503418 C 236.4756774902344 19.25181579589844 236.4859008789062 19.24659538269043 236.4961547851562 19.24136543273926 C 236.6029663085938 19.18727684020996 236.7111511230469 19.13568687438965 236.8206787109375 19.08636665344238 C 236.8291015625 19.08250617980957 236.8374938964844 19.07886695861816 236.8459167480469 19.07477569580078 C 236.9574890136719 19.02499580383301 237.0700073242188 18.97772598266602 237.1838684082031 18.93295669555664 C 237.19091796875 18.93000602722168 237.1979675292969 18.92727661132812 237.2050170898438 18.92454528808594 C 237.3206787109375 18.87954521179199 237.4375 18.83681678771973 237.5554504394531 18.79681587219238 C 237.5613708496094 18.79477691650391 237.5670471191406 18.79295539855957 237.5727233886719 18.79113578796387 C 237.6922607421875 18.75068664550781 237.8129577636719 18.71341514587402 237.9347534179688 18.67863655090332 C 237.9393005371094 18.67727661132812 237.9438781738281 18.6761360168457 237.9484252929688 18.67477607727051 C 238.0715942382812 18.64000511169434 238.1956787109375 18.60795593261719 238.3206787109375 18.57863616943359 L 238.332275390625 18.57613563537598 C 238.4581909179688 18.54704666137695 238.5852355957031 18.52068519592285 238.7134094238281 18.49772644042969 L 238.7236328125 18.49568557739258 C 238.8522644042969 18.47250556945801 238.9820556640625 18.45250511169434 239.1124877929688 18.43545532226562 L 239.12158203125 18.43409538269043 C 239.2525024414062 18.41727638244629 239.3843383789062 18.40363693237305 239.5172729492188 18.39272689819336 L 239.526123046875 18.39204597473145 C 239.6588745117188 18.38159561157227 239.79248046875 18.37431526184082 239.9270324707031 18.3699951171875 L 239.9311218261719 18.36977577209473 L 239.9327087402344 18.36318588256836 C 240.0863647460938 17.68591690063477 240.3240966796875 17.04091644287109 240.6343383789062 16.43886566162109 L 240.6436462402344 16.42090606689453 C 240.6927185058594 16.32590675354004 240.7438659667969 16.23227691650391 240.7966003417969 16.13954544067383 C 240.8015747070312 16.13113594055176 240.8063659667969 16.12250518798828 240.8113708496094 16.11409568786621 C 240.8647766113281 16.02090644836426 240.9195556640625 15.92886638641357 240.9765930175781 15.83818626403809 C 240.9779663085938 15.83591556549072 240.9795532226562 15.83386611938477 240.9808959960938 15.83136558532715 C 241.2177429199219 15.45522594451904 241.4841003417969 15.09954643249512 241.7772827148438 14.7679557800293 C 241.782958984375 14.76113605499268 241.7884216308594 14.75454616546631 241.7943420410156 14.7481861114502 C 241.8565979003906 14.67795562744141 241.9204406738281 14.60931587219238 241.9852294921875 14.54159641265869 C 242.0043334960938 14.52181625366211 242.02294921875 14.50181579589844 242.0418090820312 14.48227596282959 C 242.10205078125 14.42000579833984 242.1638793945312 14.35909557342529 242.2258911132812 14.29886627197266 C 242.2507019042969 14.27522563934326 242.2752380371094 14.25159645080566 242.2999877929688 14.22841644287109 C 242.3609313964844 14.17090606689453 242.4225158691406 14.11409568786621 242.4854431152344 14.05840587615967 C 242.5118408203125 14.03500556945801 242.5386352539062 14.01204586029053 242.5652160644531 13.98909568786621 C 242.6290893554688 13.93431568145752 242.6927185058594 13.87954616546631 242.7579345703125 13.8265962600708 C 242.7815856933594 13.80727577209473 242.8056945800781 13.78909587860107 242.8295288085938 13.77022647857666 C 243.0436401367188 13.60045623779297 243.2661437988281 13.44136619567871 243.4970397949219 13.29318618774414 C 243.5375061035156 13.2672758102417 243.5772705078125 13.24068641662598 243.6181640625 13.21568584442139 C 243.6756896972656 13.17999649047852 243.7343139648438 13.14613628387451 243.792724609375 13.11204624176025 C 243.8413696289062 13.08363628387451 243.8897705078125 13.05545616149902 243.9388732910156 13.02772617340088 C 243.9949951171875 12.99681568145752 244.0518188476562 12.96636581420898 244.1088562011719 12.93636608123779 C 244.1622619628906 12.90840625762939 244.2156982421875 12.88091564178467 244.2695617675781 12.85409641265869 C 244.3250122070312 12.8265962600708 244.3806762695312 12.79931640625 244.4368286132812 12.77295589447021 C 244.4952392578125 12.74545574188232 244.5540771484375 12.71931648254395 244.6131896972656 12.69318580627441 C 244.6665954589844 12.66954612731934 244.7200012207031 12.64590644836426 244.7740783691406 12.62340641021729 C 244.8415832519531 12.5952262878418 244.9100036621094 12.56909561157227 244.9783935546875 12.54295635223389 C 245.0256958007812 12.52477645874023 245.072509765625 12.50568580627441 245.1199951171875 12.48818588256836 C 245.2341003417969 12.44704627990723 245.3493041992188 12.4077262878418 245.4656982421875 12.37136554718018 C 245.4979553222656 12.36136627197266 245.5304565429688 12.35295581817627 245.5627136230469 12.34340572357178 C 245.6511535644531 12.31681632995605 245.740234375 12.29068565368652 245.8304443359375 12.2672758102417 C 245.8768310546875 12.25500583648682 245.924072265625 12.24431610107422 245.970703125 12.23295593261719 C 246.0477294921875 12.21431636810303 246.1245422363281 12.1959056854248 246.2022705078125 12.17954635620117 C 246.2527160644531 12.16886615753174 246.3034057617188 12.15909576416016 246.3545532226562 12.14931583404541 C 246.4302368164062 12.13477611541748 246.50634765625 12.12091636657715 246.5829772949219 12.10863590240479 C 246.6343078613281 12.09999561309814 246.6856994628906 12.09204578399658 246.7375183105469 12.08477592468262 C 246.81591796875 12.07340621948242 246.8952331542969 12.06363582611084 246.9745483398438 12.05454635620117 C 247.0240783691406 12.04909610748291 247.0736389160156 12.04318618774414 247.1238708496094 12.03840637207031 C 247.2109375 12.03000640869141 247.2984008789062 12.02386569976807 247.3861389160156 12.01840591430664 C 247.4288635253906 12.01568603515625 247.4713745117188 12.01204586029053 247.5143127441406 12.00999641418457 C 247.6452331542969 12.00386619567871 247.7765808105469 11.99999618530273 247.9088745117188 11.99999618530273 C 248.0418090820312 11.99999618530273 248.1736450195312 12.00386619567871 248.3050231933594 12.00999641418457 C 248.3488464355469 12.01204586029053 248.3918151855469 12.01590633392334 248.4352416992188 12.01863574981689 C 248.5227355957031 12.02409648895264 248.6102294921875 12.03022575378418 248.6970520019531 12.03863620758057 C 248.7479553222656 12.04340648651123 248.7986450195312 12.04977607727051 248.8493347167969 12.05545616149902 C 248.927734375 12.06431579589844 249.0061340332031 12.07409572601318 249.0841064453125 12.08522605895996 C 249.1372680664062 12.09295558929443 249.1904602050781 12.10136604309082 249.2431640625 12.11000633239746 C 249.3179626464844 12.12227630615234 249.3920593261719 12.13568592071533 249.4663696289062 12.14977645874023 C 249.5195617675781 12.1602258682251 249.5729370117188 12.17068576812744 249.6261291503906 12.18204593658447 C 249.6995544433594 12.19749641418457 249.7720336914062 12.21477603912354 249.8447875976562 12.23227596282959 C 249.8968200683594 12.24500560760498 249.9488830566406 12.25727558135986 250.0004577636719 12.27068614959717 C 250.0749816894531 12.29045581817627 250.1486511230469 12.31227588653564 250.2227478027344 12.33409595489502 C 250.2709045410156 12.34795570373535 250.3193054199219 12.36136627197266 250.3670654296875 12.37636566162109 C 250.4618225097656 12.40613555908203 250.5556945800781 12.43840599060059 250.6488647460938 12.47159576416016 C 250.7179565429688 12.49636554718018 250.786376953125 12.52227592468262 250.8547668457031 12.5486364364624 C 250.9222717285156 12.57477569580078 250.990234375 12.60068607330322 251.0568237304688 12.62840557098389 C 251.1165771484375 12.65340614318848 251.1754455566406 12.68022632598877 251.2347717285156 12.70659637451172 C 251.2877502441406 12.73045635223389 251.3411254882812 12.75363636016846 251.3934020996094 12.77863597869873 C 251.4561462402344 12.80818557739258 251.5181884765625 12.83909606933594 251.5800170898438 12.87022590637207 C 251.6265869140625 12.89386558532715 251.6734008789062 12.91727638244629 251.7197875976562 12.94181632995605 C 251.7843017578125 12.97590637207031 251.8484191894531 13.01090621948242 251.9120483398438 13.04659557342529 C 251.9527282714844 13.06954574584961 251.9929504394531 13.09295558929443 252.0331726074219 13.11636638641357 C 252.1002197265625 13.155686378479 252.1672668457031 13.19567584991455 252.2334289550781 13.23681640625 C 252.2654418945312 13.25681591033936 252.2970275878906 13.27749633789062 252.3286437988281 13.2979564666748 C 252.401123046875 13.3445463180542 252.4732055664062 13.39158630371094 252.5443115234375 13.44045639038086 C 252.5584106445312 13.45022583007812 252.572265625 13.46045589447021 252.5861511230469 13.47045612335205 C 253.0438537597656 13.78977584838867 253.4665832519531 14.15454578399658 253.8493347167969 14.55886554718018 L 253.8511352539062 14.5606861114502 C 255.1593322753906 15.94318580627441 255.9909057617188 17.78068542480469 256.0816040039062 19.81204605102539 C 256.9761352539062 19.0345458984375 258.10546875 18.52045631408691 259.3504333496094 18.39408683776855 C 259.5491027832031 18.37409591674805 259.7507019042969 18.3636360168457 259.9545593261719 18.3636360168457 C 260.1584167480469 18.3636360168457 260.3600158691406 18.37409591674805 260.5586547851562 18.39408683776855 C 263.5386352539062 18.69681549072266 265.8636474609375 21.21318626403809 265.8636474609375 24.27272605895996 L 265.8636474609375 24.27295684814453 C 265.8636474609375 24.30000686645508 265.86181640625 24.32659530639648 265.8616027832031 24.35340690612793 C 266.15771484375 24.30136680603027 266.4618225097656 24.27272605895996 266.7727355957031 24.27272605895996 C 269.6597595214844 24.27272605895996 272 26.61295509338379 272 29.5000057220459 C 272 32.2550048828125 269.8684387207031 34.51045608520508 267.1647644042969 34.71113586425781 L 267.1647644042969 34.71931457519531 L 267.1647644042969 34.71954727172852 L 267.0545349121094 34.71954727172852 C 266.9611511230469 34.72431564331055 266.8672790527344 34.72727584838867 266.7727355957031 34.72727584838867 Z" stroke="none" fill="#c9c9c9"/>
    </g>
  </g>
</svg>
