<svg xmlns="http://www.w3.org/2000/svg" width="40" height="40" viewBox="0 0 40 40">
  <g id="_6" data-name="6" transform="translate(-452 208)">
    <g id="Caminho_7374" data-name="Caminho 7374" transform="translate(-49.233 -83.455)" fill="#ffe269" stroke-miterlimit="10">
      <path d="M 521.295166015625 -91.41217803955078 L 521.4764404296875 -91.734619140625 L 520.3992309570312 -92.43609619140625 L 520.5604858398438 -92.57743835449219 L 521.6424560546875 -92.03551483154297 L 521.8753051757812 -91.91889953613281 L 521.295166015625 -91.41217803955078 Z" stroke="none"/>
      <path d="M 526.7531127929688 -100.0000076293945 L 522.314208984375 -93.37669372558594 L 524.545166015625 -92.25930786132812 L 515.7139282226562 -84.54545593261719 L 519.4801635742188 -91.24457550048828 L 517.921875 -92.25930786132812 L 526.7531127929688 -100.0000076293945 Z" stroke="none" fill="#fecb2f"/>
    </g>
    <g id="Caminho_7375" data-name="Caminho 7375" fill="#e2e2e2" stroke-miterlimit="10">
      <path d="M 486.7727661132812 -185.7727355957031 C 486.6929626464844 -185.7727355957031 486.6126708984375 -185.7747344970703 486.5340881347656 -185.7786560058594 C 486.5280456542969 -185.7791290283203 486.5223388671875 -185.7795104980469 486.5166931152344 -185.7798004150391 L 486.5038452148438 -185.7804565429688 L 486.490966796875 -185.7804565429688 L 477.7615966796875 -185.7804565429688 L 477.7515869140625 -185.7804565429688 L 477.7415771484375 -185.7800598144531 C 477.649169921875 -185.7763519287109 477.5509033203125 -185.7727355957031 477.45458984375 -185.7727355957031 L 470.664794921875 -185.7727355957031 L 460.1818237304688 -185.7727355957031 C 455.9459838867188 -185.7727355957031 452.5 -189.2188720703125 452.5 -193.4547729492188 C 452.5 -193.5838012695312 452.5033874511719 -193.7155609130859 452.5100402832031 -193.8464202880859 C 452.5112609863281 -193.8729095458984 452.5133972167969 -193.8969116210938 452.5154113769531 -193.9209442138672 C 452.51708984375 -193.9410705566406 452.5187683105469 -193.9612121582031 452.5201721191406 -193.9814453125 L 452.5232849121094 -194.0273590087891 C 452.5281677246094 -194.099609375 452.5327453613281 -194.1678619384766 452.539306640625 -194.2332611083984 C 452.5425720214844 -194.2661743164062 452.5468444824219 -194.2979278564453 452.5509948730469 -194.3296813964844 C 452.5539245605469 -194.3517761230469 452.5568237304688 -194.3738708496094 452.5595092773438 -194.3960266113281 L 452.5672607421875 -194.4600524902344 C 452.5733947753906 -194.5116424560547 452.5794677734375 -194.5632781982422 452.587158203125 -194.6142578125 C 452.5924377441406 -194.6494293212891 452.5988464355469 -194.6838073730469 452.6051940917969 -194.7182312011719 C 452.6094055175781 -194.7411193847656 452.6135864257812 -194.7640228271484 452.6176147460938 -194.7870025634766 L 452.6275634765625 -194.8451538085938 C 452.6356506347656 -194.8927154541016 452.6436157226562 -194.9402618408203 452.6532592773438 -194.9873504638672 C 452.6614074707031 -195.0283203125 452.6702880859375 -195.0656280517578 452.6790466308594 -195.1028747558594 C 452.6841125488281 -195.1243438720703 452.6891479492188 -195.1457824707031 452.6940002441406 -195.1672515869141 C 452.69921875 -195.189697265625 452.7047119140625 -195.2142486572266 452.7101745605469 -195.23876953125 C 452.7190551757812 -195.2784423828125 452.7278442382812 -195.3180236816406 452.7377319335938 -195.3571624755859 C 452.7491455078125 -195.4012145996094 452.7625122070312 -195.4474487304688 452.77587890625 -195.4938507080078 L 452.7885437011719 -195.5379943847656 L 452.8047790527344 -195.5968322753906 C 452.8157348632812 -195.6368713378906 452.82666015625 -195.677001953125 452.8388366699219 -195.7166137695312 C 452.8530883789062 -195.7627410888672 452.8688049316406 -195.80859375 452.8844909667969 -195.8546142578125 L 452.9017028808594 -195.9053039550781 L 452.9210510253906 -195.9633941650391 C 452.932861328125 -195.9990539550781 452.9446105957031 -196.0347900390625 452.957275390625 -196.0700073242188 C 452.9747924804688 -196.1184539794922 452.9939575195312 -196.1667022705078 453.0130615234375 -196.2150115966797 L 453.0322570800781 -196.2637023925781 L 453.0508422851562 -196.3113861083984 C 453.0640563964844 -196.3454742431641 453.0772705078125 -196.3796539306641 453.09130859375 -196.4132843017578 C 453.1144714355469 -196.468994140625 453.1388244628906 -196.5225524902344 453.1631164550781 -196.5762023925781 L 453.1788940429688 -196.6110229492188 L 453.1963500976562 -196.6503295898438 C 453.2108154296875 -196.6829528808594 453.2251892089844 -196.7155914306641 453.2406311035156 -196.7477416992188 C 453.2691040039062 -196.8076324462891 453.2982177734375 -196.8643341064453 453.3273620605469 -196.9212036132812 L 453.341796875 -196.9494171142578 L 453.3678283691406 -197.0007934570312 C 453.3807678222656 -197.0265197753906 453.3936767578125 -197.0522308349609 453.4071960449219 -197.0776062011719 C 453.4391174316406 -197.1367950439453 453.4737243652344 -197.1969604492188 453.5083312988281 -197.2572326660156 L 453.5207824707031 -197.2788848876953 L 453.5462951660156 -197.3236694335938 C 453.5591430664062 -197.3463439941406 453.5719299316406 -197.3690643310547 453.58544921875 -197.3913421630859 C 453.6273193359375 -197.4617614746094 453.671630859375 -197.5307006835938 453.7145080566406 -197.5973815917969 L 453.7359313964844 -197.6311645507812 C 453.7503967285156 -197.6540832519531 453.7648010253906 -197.6769714355469 453.7798156738281 -197.6993103027344 C 453.8306274414062 -197.7758026123047 453.8828430175781 -197.8493194580078 453.9227905273438 -197.9050750732422 L 453.9487609863281 -197.9419250488281 C 453.962158203125 -197.9610748291016 453.9755859375 -197.9803009033203 453.9893188476562 -197.9990386962891 C 454.0410766601562 -198.0693206787109 454.0979614257812 -198.1420440673828 454.1471557617188 -198.2046203613281 L 454.1698303222656 -198.233642578125 C 454.182373046875 -198.2498016357422 454.1948852539062 -198.2660217285156 454.2079162597656 -198.2818450927734 C 454.2679138183594 -198.356201171875 454.3276062011719 -198.4257354736328 454.3836669921875 -198.4903869628906 L 454.4142761230469 -198.5257720947266 C 454.4248657226562 -198.5380706787109 454.4353942871094 -198.5503082275391 454.4459838867188 -198.5623626708984 C 454.4980163574219 -198.6206207275391 454.5582885742188 -198.6855621337891 454.6333312988281 -198.7641143798828 L 454.6620483398438 -198.794189453125 C 454.6716003417969 -198.8042449951172 454.68115234375 -198.8143310546875 454.6908874511719 -198.8242950439453 C 454.7512512207031 -198.8860015869141 454.8182678222656 -198.9517364501953 454.8952331542969 -199.0247039794922 L 454.9160461425781 -199.0446472167969 C 454.926513671875 -199.0547027587891 454.9369506835938 -199.0647583007812 454.9476013183594 -199.0746307373047 C 455.0143432617188 -199.1370239257812 455.0862426757812 -199.2012634277344 455.1689453125 -199.2724609375 L 455.1900939941406 -199.2908782958984 C 455.198974609375 -199.2986450195312 455.2077941894531 -199.306396484375 455.2168884277344 -199.3140716552734 C 455.2930297851562 -199.3785552978516 455.3726196289062 -199.4431457519531 455.4539489746094 -199.5065155029297 L 455.4667663574219 -199.5166931152344 C 455.4765014648438 -199.5244445800781 455.4862670898438 -199.5322418212891 455.4961547851562 -199.539794921875 C 455.5755615234375 -199.6012115478516 455.6581726074219 -199.6621246337891 455.7509155273438 -199.7277526855469 L 455.7774353027344 -199.7465515136719 L 455.7907104492188 -199.7559967041016 C 455.8749084472656 -199.8146820068359 455.9655151367188 -199.8751220703125 456.0570678710938 -199.93359375 L 456.0896606445312 -199.9544525146484 C 456.177490234375 -200.0098571777344 456.272216796875 -200.0667266845703 456.3704833984375 -200.1229858398438 C 456.3795776367188 -200.1281127929688 456.3885192871094 -200.1333465576172 456.3974914550781 -200.1386413574219 L 456.4026489257812 -200.1416778564453 C 456.4939880371094 -200.1934967041016 456.5905151367188 -200.245361328125 456.6975708007812 -200.3001403808594 L 456.6926879882812 -200.2976837158203 L 456.7100524902344 -200.3065338134766 L 456.7134094238281 -200.3081512451172 L 456.7184753417969 -200.310791015625 C 456.8168029785156 -200.3604736328125 456.9199829101562 -200.4098510742188 457.0252685546875 -200.4576110839844 C 457.0334167480469 -200.4611053466797 457.0413513183594 -200.4647064208984 457.0493469238281 -200.4684143066406 C 457.1541748046875 -200.5151977539062 457.2636108398438 -200.5611572265625 457.3714599609375 -200.6036682128906 L 457.3833312988281 -200.6082916259766 C 457.4921875 -200.6508941650391 457.6031799316406 -200.6914215087891 457.7137145996094 -200.7289886474609 C 457.7198181152344 -200.7309112548828 457.7257995605469 -200.73291015625 457.7320861816406 -200.7351226806641 C 457.8435668945312 -200.7726135253906 457.9591369628906 -200.8084106445312 458.0757446289062 -200.8415374755859 L 458.0836486816406 -200.8437805175781 L 458.0883483886719 -200.8452758789062 C 458.1979675292969 -200.876220703125 458.3103637695312 -200.9052429199219 458.4227600097656 -200.9316558837891 L 458.441162109375 -200.9357604980469 C 458.5593872070312 -200.9632873535156 458.6798706054688 -200.9882049560547 458.7994079589844 -201.0098724365234 L 458.799560546875 -201.0099029541016 L 458.8085021972656 -201.011474609375 C 458.9238891601562 -201.0324401855469 459.0433044433594 -201.0510711669922 459.163818359375 -201.0669403076172 L 459.1813049316406 -201.0691986083984 C 459.4299621582031 -201.1015319824219 459.6847839355469 -201.1219940185547 459.9388427734375 -201.1300048828125 L 460.3320007324219 -201.1300048828125 L 460.4192504882812 -201.5215454101562 L 460.42041015625 -201.5267639160156 C 460.5627136230469 -202.1530914306641 460.78466796875 -202.7617340087891 461.0796203613281 -203.3335113525391 L 461.0878295898438 -203.3497314453125 C 461.1326293945312 -203.4360504150391 461.1798095703125 -203.5226898193359 461.2319946289062 -203.6145324707031 L 461.2437438964844 -203.6348724365234 C 461.2978820800781 -203.7293701171875 461.348876953125 -203.8144836425781 461.4003601074219 -203.8964233398438 L 461.4010314941406 -203.8974151611328 C 461.6249084472656 -204.2532653808594 461.8764953613281 -204.5895843505859 462.15087890625 -204.9002380371094 C 462.1556091308594 -204.9054870605469 462.16015625 -204.9107055664062 462.1646728515625 -204.9159240722656 L 462.167236328125 -204.9188232421875 C 462.2201232910156 -204.9781646728516 462.2792053222656 -205.0420837402344 462.3479309082031 -205.1142120361328 L 462.372802734375 -205.1402435302734 C 462.3814697265625 -205.1493835449219 462.39013671875 -205.1585235595703 462.3988952636719 -205.16748046875 C 462.461181640625 -205.2321319580078 462.5226440429688 -205.2923431396484 462.5749206542969 -205.3430938720703 L 462.6438598632812 -205.4087524414062 C 462.7063293457031 -205.4675750732422 462.7636108398438 -205.5200653076172 462.8171081542969 -205.5674133300781 C 462.8331298828125 -205.5816345214844 462.8487854003906 -205.5951538085938 462.8644714355469 -205.6087188720703 L 462.8929748535156 -205.6334533691406 L 462.9018859863281 -205.6410522460938 C 462.9609375 -205.6917419433594 463.0167541503906 -205.7396240234375 463.0729064941406 -205.7851409912109 C 463.0842590332031 -205.7942352294922 463.0972900390625 -205.8043670654297 463.1103210449219 -205.8145294189453 L 463.1374206542969 -205.8357238769531 C 463.3406982421875 -205.9969635009766 463.552001953125 -206.1480407714844 463.7670288085938 -206.2859497070312 L 463.8110961914062 -206.314453125 C 463.833984375 -206.3293151855469 463.8567810058594 -206.3441925048828 463.8799133300781 -206.3584289550781 C 463.9320068359375 -206.3906097412109 463.984130859375 -206.4208374023438 464.0361328125 -206.4510650634766 L 464.0444641113281 -206.4559020996094 L 464.0592041015625 -206.4644775390625 C 464.1002807617188 -206.4884185791016 464.1412963867188 -206.5122985839844 464.1825866699219 -206.5357055664062 C 464.2351684570312 -206.5647125244141 464.288330078125 -206.5931091308594 464.341552734375 -206.6210632324219 C 464.3911437988281 -206.6470336914062 464.4415283203125 -206.6729888916016 464.4923706054688 -206.6982879638672 C 464.5439147949219 -206.7238464355469 464.5963439941406 -206.7495727539062 464.6492309570312 -206.7743988037109 C 464.7047424316406 -206.8005523681641 464.7599792480469 -206.8250122070312 464.8154907226562 -206.8495635986328 C 464.8672485351562 -206.8724517822266 464.9163208007812 -206.8942260742188 464.9660339355469 -206.9148864746094 C 465.0237426757812 -206.9389953613281 465.0813598632812 -206.9611053466797 465.1390075683594 -206.9833221435547 L 465.1582641601562 -206.99072265625 C 465.1770324707031 -206.9978637695312 465.1978759765625 -207.0060119628906 465.21875 -207.0141754150391 C 465.2433776855469 -207.0238189697266 465.2679748535156 -207.0334930419922 465.2928466796875 -207.0426330566406 C 465.4001159667969 -207.0815277099609 465.50927734375 -207.1184234619141 465.6148681640625 -207.1514129638672 C 465.6268005371094 -207.1551055908203 465.6401672363281 -207.1588287353516 465.6535339355469 -207.1626129150391 C 465.6715698242188 -207.1676940917969 465.6896057128906 -207.1728210449219 465.7075805664062 -207.1782531738281 C 465.781005859375 -207.2001342773438 465.8699035644531 -207.2261962890625 465.9571228027344 -207.2490234375 C 465.9860229492188 -207.2566833496094 466.0138854980469 -207.2632751464844 466.0416870117188 -207.2698822021484 L 466.0892639160156 -207.2813110351562 C 466.1608276367188 -207.2986145019531 466.2332763671875 -207.3158111572266 466.3065490722656 -207.3314514160156 C 466.3531799316406 -207.3413238525391 466.4006042480469 -207.3504333496094 466.4484558105469 -207.3595886230469 C 466.5204772949219 -207.3734283447266 466.5924377441406 -207.3863067626953 466.6649169921875 -207.3983306884766 C 466.7107238769531 -207.4056396484375 466.7597045898438 -207.4132232666016 466.80908203125 -207.4203643798828 C 466.8760070800781 -207.4300537109375 466.9481506347656 -207.4391937255859 467.0298767089844 -207.4482879638672 L 467.0596313476562 -207.4517211914062 C 467.0973510742188 -207.4560852050781 467.1351318359375 -207.4604644775391 467.1733703613281 -207.4642791748047 C 467.240966796875 -207.4706115722656 467.3169860839844 -207.4763336181641 467.4171142578125 -207.4825592041016 L 467.4684448242188 -207.486083984375 C 467.4915466308594 -207.4877319335938 467.5146484375 -207.4894409179688 467.5379333496094 -207.4905548095703 C 467.6733093261719 -207.4969024658203 467.794677734375 -207.5 467.9088745117188 -207.5 C 468.023681640625 -207.5 468.1456298828125 -207.4969024658203 468.2816772460938 -207.4905395507812 C 468.3046875 -207.4894714355469 468.3271789550781 -207.4877624511719 468.3496398925781 -207.4861145019531 C 468.3676452636719 -207.4848022460938 468.3856506347656 -207.4834899902344 468.4037170410156 -207.4823455810547 C 468.4723815917969 -207.4780883789062 468.5617980957031 -207.4721374511719 468.6488342285156 -207.4636993408203 C 468.6902160644531 -207.4598083496094 468.7299499511719 -207.4551239013672 468.7696838378906 -207.4504547119141 L 468.79150390625 -207.4479064941406 C 468.8732604980469 -207.4386444091797 468.9453430175781 -207.4295043945312 469.0134887695312 -207.4197845458984 C 469.0623474121094 -207.4126892089844 469.1125793457031 -207.4047546386719 469.1623229980469 -207.3965911865234 C 469.2320861816406 -207.3851318359375 469.3015441894531 -207.372802734375 469.3706970214844 -207.359375 C 469.4213256835938 -207.3495025634766 469.4721069335938 -207.3396453857422 469.5226745605469 -207.3289031982422 C 469.5903015136719 -207.3143463134766 469.6585998535156 -207.2982025146484 469.72705078125 -207.2816925048828 L 469.7683410644531 -207.2716674804688 C 469.8032531738281 -207.2632293701172 469.8382263183594 -207.2548065185547 469.872802734375 -207.2456817626953 C 469.9429321289062 -207.2272186279297 470.0120239257812 -207.2068786621094 470.0809326171875 -207.1866302490234 L 470.1340637207031 -207.1712188720703 C 470.1623840332031 -207.1630554199219 470.190673828125 -207.1549530029297 470.2187805175781 -207.1462097167969 C 470.304443359375 -207.1192474365234 470.3935546875 -207.0882263183594 470.4768676757812 -207.0587921142578 C 470.5437622070312 -207.0349426269531 470.6109924316406 -207.0095520019531 470.6779479980469 -206.9835205078125 L 470.6864013671875 -206.9802703857422 C 470.7463989257812 -206.9571533203125 470.8060913085938 -206.9342346191406 470.8655700683594 -206.90966796875 C 470.90576171875 -206.8928070068359 470.9480285644531 -206.8738250732422 470.9903869628906 -206.8548583984375 L 471.03369140625 -206.8354949951172 L 471.0554809570312 -206.8258209228516 C 471.0967712402344 -206.8074645996094 471.1381225585938 -206.7891540527344 471.1788940429688 -206.7698669433594 C 471.2384948730469 -206.7416839599609 471.2973327636719 -206.7124176025391 471.3560485839844 -206.6827545166016 L 471.366455078125 -206.6775054931641 C 471.4059753417969 -206.6575622558594 471.4455871582031 -206.6375885009766 471.4847106933594 -206.6168518066406 C 471.5418090820312 -206.5869293212891 471.6008911132812 -206.5546875 471.6673889160156 -206.5171813964844 C 471.7052001953125 -206.4958953857422 471.7423400878906 -206.4743499755859 471.7794799804688 -206.4528045654297 C 471.8436279296875 -206.415283203125 471.9069519042969 -206.3771820068359 471.9698181152344 -206.3380432128906 C 471.9985656738281 -206.3201141357422 472.0272521972656 -206.3015747070312 472.055908203125 -206.2830505371094 C 472.1408081054688 -206.2284545898438 472.2040710449219 -206.1866912841797 472.2620544433594 -206.1469421386719 L 472.2728881835938 -206.1391143798828 L 472.2966613769531 -206.1220703125 C 472.7255249023438 -205.8230590820312 473.1256713867188 -205.4783325195312 473.4872131347656 -205.0966186523438 L 473.4991760253906 -205.0839691162109 L 473.4993286132812 -205.0838470458984 C 474.7607421875 -203.7447967529297 475.5002746582031 -201.9988555908203 475.5820922851562 -200.1656341552734 L 475.6282653808594 -199.1314239501953 L 476.4096069335938 -199.8105621337891 C 477.3934020996094 -200.6656646728516 478.6523742675781 -201.1365966796875 479.95458984375 -201.1365966796875 C 482.9371643066406 -201.1365966796875 485.3636474609375 -198.7098846435547 485.3636474609375 -195.72705078125 C 485.3636474609375 -195.7188110351562 485.3632507324219 -195.7106475830078 485.3629455566406 -195.7024841308594 C 485.3623352050781 -195.6850433349609 485.3617553710938 -195.6676330566406 485.3616333007812 -195.6501312255859 L 485.3573913574219 -195.0507049560547 L 485.9478454589844 -195.1540832519531 C 486.2252807617188 -195.2026519775391 486.5028076171875 -195.2272796630859 486.7727661132812 -195.2272796630859 C 487.1727600097656 -195.2272796630859 487.5704040527344 -195.1772155761719 487.9546813964844 -195.0784759521484 C 490.0420532226562 -194.5415802001953 491.5 -192.6589202880859 491.5 -190.5002288818359 C 491.5 -188.2640228271484 489.9128723144531 -186.3162841796875 487.7261657714844 -185.8686981201172 C 487.6476440429688 -185.8527526855469 487.569091796875 -185.8387603759766 487.4935302734375 -185.8272399902344 C 487.3835144042969 -185.8105010986328 487.263916015625 -185.7975006103516 487.1281433105469 -185.7875213623047 L 487.0002136230469 -185.7781066894531 C 486.9253234863281 -185.7745513916016 486.8488464355469 -185.7727355957031 486.7727661132812 -185.7727355957031 Z" stroke="none"/>
      <path d="M 486.7727661132812 -186.2727355957031 C 486.8387756347656 -186.2727355957031 486.905029296875 -186.2742614746094 486.9698791503906 -186.2772369384766 L 487.0914611816406 -186.2861785888672 C 487.2142639160156 -186.2952117919922 487.3212280273438 -186.3067932128906 487.4181823730469 -186.321533203125 C 487.4857177734375 -186.3318328857422 487.5561218261719 -186.3443908691406 487.6258850097656 -186.3585510253906 C 489.5809936523438 -186.7587127685547 491 -188.5004577636719 491 -190.5002288818359 C 491 -192.4306640625 489.6964416503906 -194.1141967773438 487.8302307128906 -194.5942077636719 C 487.4866027832031 -194.6825103759766 487.1307983398438 -194.7272796630859 486.7727661132812 -194.7272796630859 C 486.5316467285156 -194.7272796630859 486.2831115722656 -194.7051696777344 486.0340881347656 -194.6615753173828 L 484.8531799316406 -194.4548034667969 L 484.8616638183594 -195.6536712646484 C 484.86181640625 -195.6759948730469 484.8624877929688 -195.6982421875 484.86328125 -195.7205200195312 L 484.8636474609375 -195.7314300537109 C 484.8612365722656 -198.4365234375 482.6599731445312 -200.6365966796875 479.95458984375 -200.6365966796875 C 478.7728881835938 -200.6365966796875 477.6304321289062 -200.2092132568359 476.7376098632812 -199.4331970214844 L 475.1749267578125 -198.0749053955078 L 475.0825805664062 -200.1433410644531 C 475.0061950683594 -201.8549499511719 474.3162536621094 -203.4853515625 473.1394348144531 -204.7366790771484 L 473.1241760253906 -204.7527770996094 C 472.7859497070312 -205.1098937988281 472.4117431640625 -205.4322967529297 472.0094604492188 -205.7127838134766 C 471.9993896484375 -205.7198486328125 471.9893188476562 -205.7271118164062 471.9792175292969 -205.7344512939453 L 471.9748840332031 -205.7375793457031 C 471.9223022460938 -205.7735595703125 471.8639221191406 -205.8120574951172 471.7844543457031 -205.8631439208984 C 471.7580871582031 -205.8801879882812 471.7317199707031 -205.8972625732422 471.7055358886719 -205.9135894775391 C 471.6466064453125 -205.9502868652344 471.5872192382812 -205.9860076904297 471.5285949707031 -206.0202941894531 C 471.4933166503906 -206.040771484375 471.4580383300781 -206.0612640380859 471.4218139648438 -206.0816497802734 C 471.3598022460938 -206.1166076660156 471.3051452636719 -206.1464538574219 471.2505493164062 -206.1750640869141 C 471.21435546875 -206.1942596435547 471.1777038574219 -206.2126922607422 471.1411437988281 -206.2311553955078 L 471.1306762695312 -206.2364349365234 C 471.0757751464844 -206.26416015625 471.0208129882812 -206.2915344238281 470.9649963378906 -206.3179321289062 C 470.9278564453125 -206.3354949951172 470.89013671875 -206.3521423339844 470.8525085449219 -206.3688507080078 L 470.830322265625 -206.3787231445312 L 470.7859802246094 -206.3985443115234 C 470.7481079101562 -206.4154968261719 470.7103576660156 -206.4325103759766 470.6721496582031 -206.4485931396484 C 470.6172485351562 -206.4712219238281 470.5621337890625 -206.4923248291016 470.5067443847656 -206.5136413574219 L 470.4967651367188 -206.5175018310547 C 470.4342041015625 -206.5418243408203 470.3713684082031 -206.5655822753906 470.3103332519531 -206.5873413085938 C 470.2312622070312 -206.6152954101562 470.1470642089844 -206.6445922851562 470.0702819824219 -206.6687622070312 C 470.0455322265625 -206.6764678955078 470.0205993652344 -206.6835632324219 469.9956665039062 -206.6907653808594 L 469.9399719238281 -206.7069244384766 C 469.8756103515625 -206.725830078125 469.8110656738281 -206.7449035644531 469.7451171875 -206.7622528076172 C 469.7139282226562 -206.7704925537109 469.6823425292969 -206.7780456542969 469.6508483886719 -206.7856750488281 L 469.6097412109375 -206.7956390380859 C 469.5453186035156 -206.8111877441406 469.4810791015625 -206.8264007568359 469.4187316894531 -206.8398132324219 C 469.3709411621094 -206.8499755859375 469.3229370117188 -206.8592834472656 469.2754516601562 -206.8685302734375 C 469.2109680175781 -206.8810424804688 469.146240234375 -206.8925323486328 469.0814819335938 -206.9031829833984 C 469.0346984863281 -206.9108428955078 468.9874267578125 -206.9183197021484 468.94287109375 -206.9248046875 C 468.8795471191406 -206.933837890625 468.8121643066406 -206.9423675537109 468.733642578125 -206.9512634277344 L 468.7115173339844 -206.953857421875 C 468.6755676269531 -206.9580688476562 468.6396789550781 -206.9623565673828 468.6005859375 -206.9660339355469 C 468.5211791992188 -206.9737396240234 468.4373474121094 -206.9792938232422 468.3722229003906 -206.9833526611328 C 468.3524780273438 -206.9845886230469 468.3328247070312 -206.9860229492188 468.3131713867188 -206.9874572753906 C 468.2951049804688 -206.9887847900391 468.2770690917969 -206.9902038574219 468.25830078125 -206.9910736083984 C 468.1300964355469 -206.9970703125 468.0158081054688 -207 467.9088745117188 -207 C 467.8025817871094 -207 467.6888732910156 -206.9970855712891 467.5615234375 -206.9911041259766 C 467.5422973632812 -206.9902038574219 467.5232543945312 -206.9887237548828 467.504150390625 -206.9873657226562 L 467.4481201171875 -206.9835205078125 C 467.3546142578125 -206.9777069091797 467.2840270996094 -206.9724273681641 467.2197265625 -206.9664154052734 C 467.1852416992188 -206.9629516601562 467.151123046875 -206.9589691162109 467.1170654296875 -206.9550323486328 L 467.0852355957031 -206.9513549804688 C 467.009033203125 -206.94287109375 466.9422302246094 -206.9344329833984 466.880615234375 -206.9254913330078 C 466.8346252441406 -206.9188537597656 466.7890014648438 -206.9117889404297 466.7434692382812 -206.904541015625 C 466.6763305664062 -206.8933563232422 466.609619140625 -206.8814086914062 466.5423889160156 -206.8684844970703 C 466.497802734375 -206.8599548339844 466.4536437988281 -206.8515014648438 466.4108276367188 -206.8424377441406 C 466.3419799804688 -206.8277587890625 466.2738952636719 -206.8115539550781 466.2077941894531 -206.7955627441406 L 466.1575317382812 -206.7834930419922 C 466.1338195800781 -206.7778472900391 466.1100158691406 -206.7722930908203 466.0837097167969 -206.7653350830078 C 466.0036926269531 -206.744384765625 465.9198303222656 -206.7197723388672 465.8524169921875 -206.6996917724609 C 465.8314514160156 -206.6933441162109 465.8104248046875 -206.6873626708984 465.7893981933594 -206.6814117431641 C 465.780029296875 -206.6787719726562 465.7705993652344 -206.6762237548828 465.7640075683594 -206.6741790771484 C 465.6662902832031 -206.6436309814453 465.5651245117188 -206.6094512939453 465.4632568359375 -206.5725708007812 C 465.4423522949219 -206.5648345947266 465.4216918945312 -206.5566711425781 465.4010009765625 -206.548583984375 C 465.3786010742188 -206.5398101806641 465.3562316894531 -206.5310668945312 465.3380737304688 -206.5241851806641 L 465.3186950683594 -206.5167083740234 C 465.2654113769531 -206.4962005615234 465.212158203125 -206.4758453369141 465.157958984375 -206.4531860351562 C 465.1117248535156 -206.4339752197266 465.0661010742188 -206.4136962890625 465.0177612304688 -206.3923034667969 C 464.9658813476562 -206.3693695068359 464.9142456054688 -206.3465423583984 464.8616638183594 -206.3217620849609 C 464.81201171875 -206.2984619140625 464.7628173828125 -206.2742919921875 464.7151489257812 -206.2506561279297 C 464.6673278808594 -206.2268829345703 464.6199951171875 -206.2024536132812 464.5741882324219 -206.1784973144531 C 464.5247497558594 -206.1524963378906 464.4753112792969 -206.1261291503906 464.4264221191406 -206.0991973876953 C 464.3877563476562 -206.0772399902344 464.3493347167969 -206.0548400878906 464.3108215332031 -206.0324249267578 L 464.2957153320312 -206.0236206054688 L 464.2873840332031 -206.0187683105469 C 464.2392578125 -205.9908142089844 464.1910095214844 -205.962890625 464.141845703125 -205.9325256347656 C 464.1222229003906 -205.9204559326172 464.1029357910156 -205.9078063964844 464.0835571289062 -205.8952026367188 L 464.0369567871094 -205.8650817871094 C 463.8359680175781 -205.7361602783203 463.6383666992188 -205.5948944091797 463.4466247558594 -205.4428100585938 L 463.417724609375 -205.4201812744141 C 463.4065856933594 -205.4115295410156 463.3954772949219 -205.4029083251953 463.3876647949219 -205.3966217041016 C 463.3369750976562 -205.3555908203125 463.2838134765625 -205.3099517822266 463.2275085449219 -205.2616271972656 L 463.2176513671875 -205.253173828125 L 463.1915588378906 -205.2305450439453 C 463.177490234375 -205.2183837890625 463.1634216308594 -205.2062530517578 463.1484985351562 -205.1929931640625 C 463.0996398925781 -205.1497650146484 463.0469665527344 -205.1015014648438 462.9874877929688 -205.0455322265625 L 462.919921875 -204.9811706542969 C 462.8713684082031 -204.9340057373047 462.8150329589844 -204.8787536621094 462.7619934082031 -204.8236541748047 L 462.7590942382812 -204.8206634521484 L 462.7561950683594 -204.8176879882812 L 462.7352905273438 -204.7958526611328 L 462.7099609375 -204.7693328857422 C 462.6451416015625 -204.7012939453125 462.5897521972656 -204.6414031982422 462.5406188964844 -204.5862579345703 L 462.5401916503906 -204.5857696533203 C 462.5350341796875 -204.5798187255859 462.52978515625 -204.5738677978516 462.5244445800781 -204.5679016113281 C 462.2683715820312 -204.2778015136719 462.033447265625 -203.9637145996094 461.8262329101562 -203.6343231201172 L 461.8242492675781 -203.6311645507812 L 461.8222351074219 -203.6280212402344 L 461.8215026855469 -203.6268463134766 C 461.7743835449219 -203.5517883300781 461.7275085449219 -203.4734497070312 461.6768188476562 -203.3849639892578 L 461.6649780273438 -203.3644409179688 C 461.6171264648438 -203.2801971435547 461.5738830566406 -203.2007904052734 461.5329284667969 -203.1219329833984 L 461.5279235839844 -203.1119995117188 L 461.5259704589844 -203.1081237792969 L 461.5239562988281 -203.1042785644531 C 461.2483520507812 -202.5699920654297 461.0409240722656 -202.0011901855469 460.9085083007812 -201.4183044433594 L 460.9073486328125 -201.4130706787109 L 460.7330932617188 -200.6300048828125 L 459.9467163085938 -200.6300048828125 C 459.7114868164062 -200.622314453125 459.4757690429688 -200.6032867431641 459.2457885742188 -200.5733642578125 L 459.2247619628906 -200.5706481933594 C 459.1138000488281 -200.5559692382812 459.00390625 -200.5387878417969 458.8978576660156 -200.5195159912109 L 458.8815612792969 -200.5166015625 L 458.8812561035156 -200.5165557861328 C 458.772216796875 -200.4966735839844 458.662353515625 -200.4738922119141 458.5545349121094 -200.4487762451172 L 458.5262756347656 -200.4423522949219 C 458.4274597167969 -200.4189910888672 458.3287963867188 -200.3934783935547 458.2323608398438 -200.3663940429688 L 458.2282104492188 -200.3650665283203 L 458.2124328613281 -200.3605804443359 C 458.1046447753906 -200.3299560546875 457.9979248046875 -200.2969360351562 457.89501953125 -200.2624053955078 C 457.8865356445312 -200.2594299316406 457.8782958984375 -200.2566833496094 457.8700561523438 -200.2540283203125 C 457.7681274414062 -200.2193298339844 457.6658630371094 -200.1819305419922 457.5650939941406 -200.1425018310547 L 457.5547790527344 -200.1384735107422 C 457.4557495117188 -200.0994567871094 457.3552551269531 -200.0572967529297 457.2560424804688 -200.0131225585938 C 457.2466735839844 -200.0087890625 457.2372741699219 -200.0045623779297 457.227783203125 -200.0004272460938 C 457.1302490234375 -199.9561309814453 457.0348205566406 -199.9104309082031 456.9439697265625 -199.8645172119141 L 456.9373474121094 -199.8611602783203 L 456.9363708496094 -199.8606872558594 L 456.9253540039062 -199.8550720214844 L 456.9253845214844 -199.8550415039062 C 456.8258361816406 -199.8041076660156 456.7363891601562 -199.7560729980469 456.652099609375 -199.7083435058594 C 456.6405639648438 -199.7015075683594 456.6290893554688 -199.6948089599609 456.6174011230469 -199.6882171630859 C 456.52587890625 -199.6357727050781 456.4378356933594 -199.5829162597656 456.3588562011719 -199.5331115722656 L 456.3262023925781 -199.51220703125 C 456.24169921875 -199.4582366943359 456.1581420898438 -199.4025268554688 456.0777282714844 -199.3465728759766 L 456.0679931640625 -199.3396148681641 L 456.0397338867188 -199.3196105957031 C 455.9528198242188 -199.2581024169922 455.8757934570312 -199.2013092041016 455.8042602539062 -199.1459808349609 L 455.8020324707031 -199.1442718505859 L 455.7998046875 -199.1425628662109 C 455.7925109863281 -199.1369781494141 455.7853088378906 -199.1311798095703 455.7781066894531 -199.1254425048828 L 455.7684020996094 -199.1177215576172 L 455.7648620605469 -199.1149139404297 L 455.7612915039062 -199.1121215820312 C 455.6852722167969 -199.0528869628906 455.6109619140625 -198.9925842285156 455.5393981933594 -198.9320068359375 L 455.519287109375 -198.91455078125 L 455.4951782226562 -198.8935546875 C 455.4176940917969 -198.8268432617188 455.3507690429688 -198.7670593261719 455.2874450683594 -198.7079010009766 C 455.2789916992188 -198.7000427246094 455.2707214355469 -198.6920318603516 455.2623901367188 -198.6840362548828 L 455.2392883300781 -198.6619110107422 C 455.1669006347656 -198.59326171875 455.1042175292969 -198.5318145751953 455.0487976074219 -198.4751739501953 L 455.0247497558594 -198.4499969482422 L 454.9948425292969 -198.4186706542969 C 454.9254455566406 -198.3460540771484 454.8698120117188 -198.2861785888672 454.8201904296875 -198.2307281494141 L 454.7933044433594 -198.1996612548828 L 454.7614440917969 -198.1628265380859 C 454.7084350585938 -198.1016845703125 454.6522216796875 -198.0362243652344 454.6002807617188 -197.9718475341797 L 454.59716796875 -197.9679718017578 L 454.593994140625 -197.964111328125 C 454.5839233398438 -197.9518737792969 454.5743103027344 -197.9392852783203 454.5645751953125 -197.9267730712891 L 454.5402526855469 -197.8956298828125 C 454.493408203125 -197.8360137939453 454.4393920898438 -197.7669677734375 454.3924865722656 -197.7032928466797 C 454.380859375 -197.6874542236328 454.3695678710938 -197.6711883544922 454.3582153320312 -197.6549987792969 L 454.3323669433594 -197.6182403564453 L 454.3307800292969 -197.6159973144531 L 454.3291931152344 -197.61376953125 C 454.2916259765625 -197.5613861083984 454.2427673339844 -197.4925842285156 454.1977844238281 -197.4248504638672 L 454.1963195800781 -197.4226531982422 L 454.1948547363281 -197.4204559326172 C 454.1824035644531 -197.4019470214844 454.1705627441406 -197.3829650878906 454.1585388183594 -197.3639678955078 L 454.1351318359375 -197.3270416259766 C 454.0927124023438 -197.2610778808594 454.0526733398438 -197.1987609863281 454.0175476074219 -197.1396789550781 L 454.0152587890625 -197.1358337402344 L 454.0129089355469 -197.1319885253906 C 454.0020141601562 -197.1139831542969 453.9917297363281 -197.0955505371094 453.9813537597656 -197.0772399902344 L 453.9544372558594 -197.030029296875 L 453.9419250488281 -197.0082244873047 C 453.9095458984375 -196.9518737792969 453.8771362304688 -196.8956451416016 453.8484802246094 -196.8424835205078 C 453.8367614746094 -196.8204803466797 453.8255920410156 -196.7981567382812 453.8143615722656 -196.7758636474609 L 453.7869567871094 -196.7217864990234 L 453.7723693847656 -196.6932678222656 C 453.7455139160156 -196.6408233642578 453.7185668945312 -196.5885620117188 453.6913146972656 -196.5311737060547 C 453.6780700683594 -196.503662109375 453.6658630371094 -196.4757080078125 453.6535034179688 -196.4477996826172 L 453.6345825195312 -196.4052276611328 L 453.6185607910156 -196.3698425292969 C 453.596435546875 -196.3210144042969 453.5741882324219 -196.2723236083984 453.5526428222656 -196.2204284667969 C 453.5402221679688 -196.1907806396484 453.5286560058594 -196.1606140136719 453.5169982910156 -196.1305694580078 L 453.4977111816406 -196.0810241699219 L 453.4779968261719 -196.0310974121094 C 453.4607543945312 -195.9874420166016 453.4433288574219 -195.9438629150391 453.427734375 -195.9006805419922 C 453.4165344238281 -195.8695373535156 453.4061889648438 -195.8379211425781 453.395751953125 -195.8063812255859 L 453.3754577636719 -195.745361328125 L 453.3577270507812 -195.6932220458984 C 453.3436279296875 -195.6518707275391 453.3294067382812 -195.6106719970703 453.3167419433594 -195.5695648193359 C 453.3060913085938 -195.534912109375 453.2966003417969 -195.499755859375 453.2870178222656 -195.4647216796875 L 453.2708740234375 -195.4062347412109 L 453.2701110839844 -195.4034881591797 L 453.2693176269531 -195.4007415771484 L 453.2563781738281 -195.3555908203125 C 453.2445068359375 -195.3143157958984 453.2325439453125 -195.2732086181641 453.2217102050781 -195.2315216064453 C 453.2132568359375 -195.1978759765625 453.2057800292969 -195.1638336181641 453.1981506347656 -195.1297302246094 C 453.1924133300781 -195.1039733886719 453.1866149902344 -195.0781707763672 453.1816101074219 -195.0565643310547 C 453.1764526367188 -195.0338134765625 453.1711120605469 -195.0110931396484 453.1657409667969 -194.9883422851562 C 453.1583251953125 -194.9568328857422 453.1506958007812 -194.9253234863281 453.1443786621094 -194.8933563232422 L 453.1437377929688 -194.8901519775391 L 453.1430969238281 -194.886962890625 C 453.1345825195312 -194.8453979492188 453.1276245117188 -194.8034057617188 453.1205139160156 -194.7614135742188 L 453.1101989746094 -194.7012786865234 C 453.1059265136719 -194.6767425537109 453.1014404296875 -194.6522827148438 453.0969543457031 -194.6278533935547 C 453.0916137695312 -194.5987854003906 453.0860900878906 -194.5697784423828 453.0815734863281 -194.5396575927734 C 453.0746459960938 -194.4937591552734 453.0692749023438 -194.4472503662109 453.063720703125 -194.4008178710938 L 453.0558471679688 -194.335693359375 C 453.052978515625 -194.3118743896484 453.0498657226562 -194.2881317138672 453.0467224121094 -194.264404296875 C 453.0432739257812 -194.2380218505859 453.0396118164062 -194.2116546630859 453.0368041992188 -194.183349609375 C 453.0310668945312 -194.1261138916016 453.0267333984375 -194.0618438720703 453.0221557617188 -193.9937896728516 L 453.0189514160156 -193.9463043212891 C 453.0173645019531 -193.9238739013672 453.0155334472656 -193.9015502929688 453.013671875 -193.8792419433594 C 453.0121459960938 -193.8613433837891 453.0104370117188 -193.8434906005859 453.0093994140625 -193.8210144042969 C 453.003173828125 -193.6985931396484 453 -193.5753631591797 453 -193.4547729492188 C 453 -189.4945831298828 456.2216796875 -186.2727355957031 460.1818237304688 -186.2727355957031 L 470.664794921875 -186.2727355957031 L 477.45458984375 -186.2727355957031 C 477.5416564941406 -186.2727355957031 477.6342163085938 -186.2761535644531 477.7215576171875 -186.2796630859375 L 477.7415771484375 -186.2804565429688 L 477.7615966796875 -186.2804565429688 L 486.490966796875 -186.2804565429688 L 486.5167236328125 -186.2804565429688 L 486.5424194335938 -186.2791442871094 C 486.5498352050781 -186.2787475585938 486.5572814941406 -186.2782897949219 486.5648193359375 -186.2777557373047 C 486.63330078125 -186.2744293212891 486.7032165527344 -186.2727355957031 486.7727661132812 -186.2727355957031 M 486.7727661132812 -185.2727355957031 C 486.6827392578125 -185.2727355957031 486.5927734375 -185.2750091552734 486.503662109375 -185.2795562744141 C 486.4995727539062 -185.2797698974609 486.4952392578125 -185.2802429199219 486.490966796875 -185.2804565429688 L 477.7615966796875 -185.2804565429688 C 477.6595458984375 -185.2763671875 477.5574951171875 -185.2727355957031 477.45458984375 -185.2727355957031 L 470.664794921875 -185.2727355957031 L 460.1818237304688 -185.2727355957031 L 460.181640625 -185.2727355957031 C 455.6632080078125 -185.2727355957031 452 -188.9359130859375 452 -193.4547729492188 C 452 -193.5947875976562 452.003662109375 -193.7338714599609 452.0106811523438 -193.871826171875 C 452.012939453125 -193.9204559326172 452.0180053710938 -193.9681854248047 452.0214233398438 -194.0165863037109 C 452.0275268554688 -194.1056823730469 452.032958984375 -194.1949920654297 452.0418090820312 -194.2831878662109 C 452.0475463867188 -194.3413696289062 452.05615234375 -194.3986358642578 452.0631713867188 -194.4563751220703 C 452.07275390625 -194.5338745117188 452.0811767578125 -194.6120452880859 452.0927734375 -194.6888580322266 C 452.10205078125 -194.7506713867188 452.1143188476562 -194.8113555908203 452.125 -194.8727264404297 C 452.1375122070312 -194.9445495605469 452.1488647460938 -195.0166015625 452.1634521484375 -195.0877380371094 C 452.1761474609375 -195.1518249511719 452.1920776367188 -195.2147674560547 452.2064208984375 -195.2779388427734 C 452.2220458984375 -195.345458984375 452.2361450195312 -195.4131927490234 452.2529907226562 -195.4797668457031 C 452.27001953125 -195.5454711914062 452.2891235351562 -195.6100006103516 452.3077392578125 -195.6752319335938 C 452.3252563476562 -195.7379608154297 452.341796875 -195.8013763427734 452.3609619140625 -195.8636474609375 C 452.3818359375 -195.9313507080078 452.4052734375 -195.9979553222656 452.427978515625 -196.0652313232422 C 452.447509765625 -196.1231842041016 452.4661254882812 -196.1818237304688 452.48681640625 -196.2393188476562 C 452.5120239257812 -196.30908203125 452.539794921875 -196.3775024414062 452.5668334960938 -196.4463653564453 C 452.5877075195312 -196.4995422363281 452.6079711914062 -196.5534210205078 452.6300048828125 -196.6061401367188 C 452.6595458984375 -196.6772766113281 452.6915893554688 -196.746826171875 452.7232055664062 -196.8168334960938 C 452.7452392578125 -196.8661346435547 452.7666015625 -196.9156799316406 452.7899780273438 -196.9643249511719 C 452.8240966796875 -197.0361480712891 452.8604736328125 -197.1063690185547 452.8966064453125 -197.1770477294922 C 452.9197998046875 -197.2222747802734 452.9420776367188 -197.2679443359375 452.9659423828125 -197.3127288818359 C 453.0050048828125 -197.3852386474609 453.046142578125 -197.4563598632812 453.0870971679688 -197.5277404785156 C 453.1107177734375 -197.5686492919922 453.1334228515625 -197.6102294921875 453.157958984375 -197.6506805419922 C 453.2015991210938 -197.7240905761719 453.2477416992188 -197.7959289550781 453.2938842773438 -197.8677215576172 C 453.3175048828125 -197.9047698974609 453.3405151367188 -197.9420318603516 453.3648071289062 -197.9781799316406 C 453.4138793945312 -198.0520477294922 453.4647827148438 -198.1243286132812 453.5164184570312 -198.1963653564453 C 453.5396118164062 -198.2290954589844 453.5625 -198.2625122070312 453.586181640625 -198.2947845458984 C 453.6407470703125 -198.3688812255859 453.697265625 -198.4413604736328 453.7540893554688 -198.5136413574219 C 453.776611328125 -198.5422668457031 453.7986450195312 -198.5713653564453 453.8218383789062 -198.5995483398438 C 453.881591796875 -198.6736450195312 453.9436645507812 -198.7461547851562 454.0059204101562 -198.8179473876953 C 454.0277709960938 -198.8429565429688 454.049072265625 -198.8681793212891 454.0706787109375 -198.8927307128906 C 454.1364135742188 -198.9663543701172 454.2036743164062 -199.0381927490234 454.2718505859375 -199.1095428466797 C 454.2922973632812 -199.1306915283203 454.3123168945312 -199.1522674560547 454.3329467773438 -199.1734161376953 C 454.4041137695312 -199.2461395263672 454.4771118164062 -199.3172760009766 454.5511474609375 -199.3874969482422 C 454.5700073242188 -199.4054565429688 454.588623046875 -199.4236450195312 454.6077270507812 -199.4413604736328 C 454.684326171875 -199.5129547119141 454.7630004882812 -199.5827331542969 454.8427124023438 -199.6513671875 C 454.8600463867188 -199.6663818359375 454.8768310546875 -199.6813507080078 454.8943481445312 -199.6961364746094 C 454.97705078125 -199.7661437988281 455.0611572265625 -199.8343200683594 455.1466064453125 -199.9009094238281 C 455.1618041992188 -199.9129638671875 455.1770629882812 -199.9252319335938 455.1925048828125 -199.9370422363281 C 455.2807006835938 -200.0052337646484 455.3709106445312 -200.0713653564453 455.4620971679688 -200.1358947753906 C 455.4754638671875 -200.1452178955078 455.4886474609375 -200.1547698974609 455.5018310546875 -200.1640930175781 C 455.595703125 -200.2295379638672 455.691162109375 -200.2931823730469 455.7879638671875 -200.3549957275391 C 455.79931640625 -200.3622894287109 455.8106689453125 -200.3695373535156 455.8220825195312 -200.3768310546875 C 455.921142578125 -200.4393157958984 456.0218505859375 -200.4995574951172 456.1239013671875 -200.5579681396484 C 456.1336669921875 -200.5634002685547 456.1430053710938 -200.5691070556641 456.1527709960938 -200.5747833251953 C 456.2568359375 -200.6338806152344 456.3627319335938 -200.6904449462891 456.4697875976562 -200.7452392578125 C 456.4775390625 -200.7490997314453 456.4850463867188 -200.7531890869141 456.4929809570312 -200.7570495605469 C 456.602294921875 -200.8122863769531 456.7127685546875 -200.864990234375 456.8247680664062 -200.9156951904297 C 456.8309326171875 -200.9181823730469 456.8366088867188 -200.9209289550781 456.842529296875 -200.9236450195312 C 456.9566040039062 -200.9745483398438 457.0716552734375 -201.02294921875 457.1881713867188 -201.0688629150391 L 457.2015991210938 -201.0740966796875 C 457.3195190429688 -201.1202392578125 457.4390869140625 -201.1638641357422 457.559814453125 -201.2047729492188 C 457.5629272460938 -201.2056884765625 457.565673828125 -201.2065887451172 457.56884765625 -201.2077331542969 C 457.69091796875 -201.2488708496094 457.8143310546875 -201.2870483398438 457.9390869140625 -201.3224945068359 L 457.944091796875 -201.3240966796875 C 458.0700073242188 -201.3597869873047 458.197021484375 -201.3925018310547 458.3250122070312 -201.4222869873047 L 458.3277587890625 -201.4227294921875 C 458.4566040039062 -201.4527282714844 458.5863647460938 -201.4795379638672 458.717529296875 -201.503173828125 L 458.7191162109375 -201.50341796875 C 458.8504638671875 -201.5272827148438 458.9829711914062 -201.5477294921875 459.1166381835938 -201.5650177001953 L 459.1168212890625 -201.5650177001953 C 459.3840942382812 -201.5997772216797 459.6557006835938 -201.62158203125 459.930908203125 -201.6300048828125 L 459.93115234375 -201.6300048828125 L 459.9323120117188 -201.6352233886719 C 460.08642578125 -202.3136291503906 460.3243408203125 -202.9600219726562 460.63525390625 -203.5627288818359 L 460.6429443359375 -203.5779571533203 C 460.6925659179688 -203.6736450195312 460.7440795898438 -203.7679595947266 460.7973022460938 -203.8616027832031 L 460.8106689453125 -203.884765625 C 460.8643188476562 -203.9784088134766 460.9196166992188 -204.0711364746094 460.97705078125 -204.1625061035156 L 460.9797973632812 -204.1668090820312 C 461.21728515625 -204.5443267822266 461.4843139648438 -204.9011383056641 461.7784423828125 -205.2338714599609 C 461.7838745117188 -205.2397766113281 461.7886352539062 -205.2456970214844 461.7938842773438 -205.2513732910156 C 461.8566284179688 -205.3218231201172 461.9209594726562 -205.3909149169922 461.9859008789062 -205.4590911865234 C 462.0045776367188 -205.4783935546875 462.02294921875 -205.4981842041016 462.0416259765625 -205.5172729492188 C 462.10205078125 -205.5800170898438 462.1641235351562 -205.6411437988281 462.2266235351562 -205.7018280029297 C 462.2509155273438 -205.7250061035156 462.2750244140625 -205.7479553222656 462.2991333007812 -205.7709045410156 C 462.3606567382812 -205.8288726806641 462.4225463867188 -205.8859100341797 462.4857177734375 -205.9418182373047 C 462.5118408203125 -205.9649963378906 462.5382080078125 -205.9875030517578 462.5645751953125 -206.0104675292969 C 462.628662109375 -206.0654449462891 462.6925048828125 -206.1204528808594 462.7581787109375 -206.1736450195312 C 462.7813720703125 -206.1922760009766 462.8048095703125 -206.2102355957031 462.8281860351562 -206.2286376953125 C 463.0427856445312 -206.3988647460938 463.2656860351562 -206.5584106445312 463.4970703125 -206.7068176269531 C 463.5375366210938 -206.7327270507812 463.5773315429688 -206.7593231201172 463.6179809570312 -206.7843322753906 C 463.6757202148438 -206.8200073242188 463.7345581054688 -206.8540954589844 463.793212890625 -206.88818359375 C 463.8416137695312 -206.9163665771484 463.8898315429688 -206.9445343017578 463.9384155273438 -206.9720611572266 C 463.9948120117188 -207.0031890869141 464.0518188476562 -207.0336456298828 464.10888671875 -207.0636444091797 C 464.1622924804688 -207.0915985107422 464.2156982421875 -207.1190948486328 464.2695922851562 -207.1459197998047 C 464.3250122070312 -207.1734008789062 464.3806762695312 -207.20068359375 464.4368286132812 -207.2270355224609 C 464.4952392578125 -207.2545623779297 464.5540771484375 -207.2806701660156 464.6132202148438 -207.3068237304688 C 464.6666259765625 -207.3304595947266 464.7200317382812 -207.3541107177734 464.7741088867188 -207.3765869140625 C 464.8416137695312 -207.40478515625 464.9100341796875 -207.430908203125 464.9784545898438 -207.457275390625 C 465.0256958007812 -207.4752349853516 465.072509765625 -207.4943237304688 465.1200561523438 -207.5118408203125 C 465.234130859375 -207.5531921386719 465.3493041992188 -207.5922698974609 465.4656982421875 -207.6286468505859 C 465.4979858398438 -207.6386413574219 465.5304565429688 -207.6470489501953 465.562744140625 -207.6568145751953 C 465.6511840820312 -207.6831817626953 465.740234375 -207.7091064453125 465.8305053710938 -207.7327423095703 C 465.8768310546875 -207.7450103759766 465.924072265625 -207.7556762695312 465.970703125 -207.7670593261719 C 466.0477294921875 -207.7856750488281 466.1245727539062 -207.8038787841797 466.2022705078125 -207.8204498291016 C 466.2527465820312 -207.8311462402344 466.3034057617188 -207.8409118652344 466.3545532226562 -207.8506927490234 C 466.4302368164062 -207.865234375 466.50634765625 -207.8788604736328 466.5830078125 -207.8915863037109 C 466.6343383789062 -207.8997802734375 466.6857299804688 -207.9077301025391 466.737548828125 -207.9152221679688 C 466.8159790039062 -207.9265899658203 466.895263671875 -207.9363861083984 466.9745483398438 -207.9452209472656 C 467.0241088867188 -207.9509124755859 467.0736083984375 -207.9568176269531 467.1238403320312 -207.9618225097656 C 467.2109375 -207.9700012207031 467.2984008789062 -207.9761505126953 467.3861083984375 -207.9815979003906 C 467.4288940429688 -207.9843139648438 467.4713745117188 -207.9879608154297 467.5143432617188 -207.989990234375 C 467.645263671875 -207.9961395263672 467.776611328125 -208 467.9088745117188 -208 C 468.0418090820312 -208 468.1736450195312 -207.9961395263672 468.3050537109375 -207.989990234375 C 468.348876953125 -207.9879608154297 468.391845703125 -207.9841003417969 468.4352416992188 -207.9813537597656 C 468.5227661132812 -207.9759216308594 468.6102294921875 -207.9697875976562 468.6970825195312 -207.9613647460938 C 468.7479858398438 -207.9565887451172 468.7986450195312 -207.9504547119141 468.849365234375 -207.9445495605469 C 468.9277954101562 -207.9356689453125 469.0061645507812 -207.9259033203125 469.0841064453125 -207.9147796630859 C 469.1372680664062 -207.9070434570312 469.1904907226562 -207.8986511230469 469.2431640625 -207.8900146484375 C 469.3179321289062 -207.8777313232422 469.39208984375 -207.8645477294922 469.4659423828125 -207.8502197265625 C 469.51953125 -207.8397827148438 469.5731811523438 -207.8293304443359 469.6265869140625 -207.8179779052734 C 469.6995239257812 -207.8022918701172 469.7718505859375 -207.7852325439453 469.8443603515625 -207.7677307128906 C 469.8963623046875 -207.7550048828125 469.9488525390625 -207.7427368164062 470.00048828125 -207.7290954589844 C 470.0747680664062 -207.7095489501953 470.1484375 -207.6879425048828 470.2218627929688 -207.6663665771484 C 470.2704467773438 -207.6520538330078 470.319091796875 -207.6386413574219 470.3673095703125 -207.6236419677734 C 470.46044921875 -207.5943298339844 470.5520629882812 -207.5625152587891 470.6434326171875 -207.5302429199219 C 470.7161254882812 -207.5043182373047 470.7877807617188 -207.4772796630859 470.859130859375 -207.4495391845703 C 470.9252319335938 -207.4240875244141 470.9909057617188 -207.3988647460938 471.056396484375 -207.371826171875 C 471.1170654296875 -207.3463745117188 471.1768188476562 -207.319091796875 471.237060546875 -207.2922668457031 C 471.2891235351562 -207.2691040039062 471.3413696289062 -207.2461395263672 471.3927612304688 -207.2218170166016 C 471.4561767578125 -207.1918182373047 471.5188598632812 -207.1606750488281 471.5814208984375 -207.1290893554688 C 471.6273193359375 -207.1059112548828 471.6734008789062 -207.0827331542969 471.7188720703125 -207.0586395263672 C 471.7843627929688 -207.0243225097656 471.848876953125 -206.9888610839844 471.9129638671875 -206.9527282714844 C 471.9529418945312 -206.9302215576172 471.9924926757812 -206.9072723388672 472.0320434570312 -206.8843231201172 C 472.1000366210938 -206.8445587158203 472.1672973632812 -206.8040771484375 472.2340698242188 -206.7625122070312 C 472.2654418945312 -206.7429504394531 472.29638671875 -206.7229614257812 472.3273315429688 -206.7029571533203 C 472.4005126953125 -206.6559143066406 472.4732055664062 -206.6083984375 472.5447998046875 -206.5593109130859 C 472.5579833984375 -206.5502319335938 472.5709228515625 -206.5404510498047 472.5838623046875 -206.5313720703125 C 473.0427856445312 -206.2113800048828 473.4666137695312 -205.845458984375 473.8502197265625 -205.4404449462891 L 473.8507080078125 -205.4400024414062 C 475.1591186523438 -204.0572814941406 475.9909057617188 -202.2197723388672 476.0816040039062 -200.1879425048828 C 477.118896484375 -201.0895538330078 478.4725341796875 -201.6365966796875 479.95458984375 -201.6365966796875 C 483.2182006835938 -201.6365966796875 485.8636474609375 -198.9906768798828 485.8636474609375 -195.72705078125 C 485.8636474609375 -195.7000122070312 485.86181640625 -195.6734161376953 485.8616333007812 -195.6465911865234 C 486.15771484375 -195.6984252929688 486.4618530273438 -195.7272796630859 486.7727661132812 -195.7272796630859 C 487.2236938476562 -195.7272796630859 487.66162109375 -195.6700134277344 488.0791015625 -195.562744140625 C 490.3341064453125 -194.9827270507812 492 -192.9361419677734 492 -190.5002288818359 L 492 -190.5 C 492 -187.9738616943359 490.2081909179688 -185.8663635253906 487.826416015625 -185.3788604736328 C 487.7413940429688 -185.3616027832031 487.6554565429688 -185.3461456298828 487.56884765625 -185.3329467773438 C 487.4359130859375 -185.3127288818359 487.3006591796875 -185.2988586425781 487.164794921875 -185.2888641357422 L 487.164794921875 -185.2806854248047 L 487.164794921875 -185.2804565429688 L 487.0545654296875 -185.2804565429688 C 487.0502319335938 -185.2802429199219 487.0458984375 -185.2797698974609 487.0418090820312 -185.2795562744141 C 486.9527587890625 -185.2750091552734 486.8629760742188 -185.2727355957031 486.7727661132812 -185.2727355957031 Z" stroke="none" fill="#c9c9c9"/>
    </g>
    <g id="Grupo_8615" data-name="Grupo 8615" transform="translate(460.138 -183.499)">
      <path id="Caminho_7376" data-name="Caminho 7376" d="M489.385-96.764a.937.937,0,0,1-1.324.038h0a.937.937,0,0,1,.038-1.324L489.95-99.9a.938.938,0,0,1,1.324-.038h0a.937.937,0,0,1-.039,1.324Z" transform="translate(-487.805 100.195)" fill="#c9c9c9"/>
      <path id="Caminho_7377" data-name="Caminho 7377" d="M577.385-68.764a.937.937,0,0,1-1.324.038h0a.937.937,0,0,1,.038-1.324l1.852-1.852a.938.938,0,0,1,1.324-.038h0a.938.938,0,0,1-.038,1.324Z" transform="translate(-555.805 78.558)" fill="#c9c9c9"/>
      <path id="Caminho_7378" data-name="Caminho 7378" d="M577.385-96.764a.937.937,0,0,1-1.324.038h0a.937.937,0,0,1,.038-1.324l1.852-1.852a.938.938,0,0,1,1.324-.038h0a.938.938,0,0,1-.038,1.324Z" transform="translate(-555.805 100.195)" fill="#c9c9c9"/>
      <path id="Caminho_7379" data-name="Caminho 7379" d="M518.718-96.764a.937.937,0,0,1-1.324.038h0a.937.937,0,0,1,.038-1.324l1.852-1.852a.938.938,0,0,1,1.324-.038h0a.937.937,0,0,1-.039,1.324Z" transform="translate(-510.471 100.195)" fill="#c9c9c9"/>
      <path id="Caminho_7380" data-name="Caminho 7380" d="M489.385-68.764a.937.937,0,0,1-1.324.038h0a.937.937,0,0,1,.038-1.324L489.95-71.9a.938.938,0,0,1,1.324-.038h0a.937.937,0,0,1-.039,1.324Z" transform="translate(-487.805 78.558)" fill="#c9c9c9"/>
    </g>
  </g>
</svg>
