<svg xmlns="http://www.w3.org/2000/svg" width="40" height="40" viewBox="0 0 40 40">
  <g id="_6n" data-name="6n" transform="translate(-452 -12)">
    <g id="Grupo_8604" data-name="Grupo 8604" transform="translate(468.591 18.363)">
      <path id="Caminho_7272" data-name="Caminho 7272" d="M560.818,45.909A5.909,5.909,0,1,1,554.909,40,5.909,5.909,0,0,1,560.818,45.909Z" transform="translate(-543.546 -39.999)" fill="#b7b6b6"/>
      <path id="Caminho_7273" data-name="Caminho 7273" d="M536.818,65.909A5.909,5.909,0,1,1,530.909,60,5.909,5.909,0,0,1,536.818,65.909Z" transform="translate(-525 -55.454)" fill="#b7b6b6"/>
      <path id="Caminho_7274" data-name="Caminho 7274" d="M592.455,71.227A5.227,5.227,0,1,1,587.227,66,5.227,5.227,0,0,1,592.455,71.227Z" transform="translate(-569.046 -60.091)" fill="#b7b6b6"/>
      <rect id="Retângulo_5842" data-name="Retângulo 5842" width="12.436" height="5.564" transform="translate(6.137 10.792)" fill="#b7b6b6"/>
    </g>
    <g id="Caminho_7275" data-name="Caminho 7275" transform="translate(-49.233 -83.455)" fill="#ffe269" stroke-miterlimit="10">
      <path d="M 521.295166015625 128.5877990722656 L 521.4764404296875 128.2652740478516 L 520.3992309570312 127.5638122558594 L 520.5603637695312 127.4225845336914 L 521.6425170898438 127.9645309448242 L 521.875244140625 128.0810852050781 L 521.295166015625 128.5877990722656 Z" stroke="none"/>
      <path d="M 526.7531127929688 120 L 522.314208984375 126.6233215332031 L 524.545166015625 127.7406005859375 L 515.7139282226562 135.4545440673828 L 519.4801635742188 128.7553253173828 L 517.921875 127.7406005859375 L 526.7531127929688 120 Z" stroke="none" fill="#fecb2f"/>
    </g>
    <g id="Grupo_8605" data-name="Grupo 8605" transform="translate(460.138 36.501)">
      <path id="Caminho_7276" data-name="Caminho 7276" d="M489.385,123.236a.937.937,0,0,1-1.324.038h0a.937.937,0,0,1,.038-1.324l1.852-1.851a.937.937,0,0,1,1.324-.039h0a.937.937,0,0,1-.039,1.324Z" transform="translate(-487.805 -119.805)" fill="#c9c9c9"/>
      <path id="Caminho_7277" data-name="Caminho 7277" d="M577.385,123.236a.937.937,0,0,1-1.324.038h0a.937.937,0,0,1,.038-1.324l1.852-1.851a.937.937,0,0,1,1.324-.039h0a.938.938,0,0,1-.038,1.324Z" transform="translate(-555.805 -119.805)" fill="#c9c9c9"/>
      <path id="Caminho_7278" data-name="Caminho 7278" d="M518.718,123.236a.937.937,0,0,1-1.324.038h0a.937.937,0,0,1,.038-1.324l1.852-1.851a.937.937,0,0,1,1.324-.039h0a.937.937,0,0,1-.039,1.324Z" transform="translate(-510.471 -119.805)" fill="#c9c9c9"/>
      <path id="Caminho_7279" data-name="Caminho 7279" d="M489.385,151.236a.937.937,0,0,1-1.324.038h0a.937.937,0,0,1,.038-1.324l1.852-1.852a.938.938,0,0,1,1.324-.038h0a.937.937,0,0,1-.039,1.324Z" transform="translate(-487.805 -141.442)" fill="#c9c9c9"/>
      <path id="Caminho_7280" data-name="Caminho 7280" d="M577.385,151.236a.937.937,0,0,1-1.324.038h0a.937.937,0,0,1,.038-1.324l1.852-1.852a.938.938,0,0,1,1.324-.038h0a.938.938,0,0,1-.038,1.324Z" transform="translate(-555.805 -141.442)" fill="#c9c9c9"/>
    </g>
    <g id="Caminho_7281" data-name="Caminho 7281" fill="#e2e2e2" stroke-miterlimit="10">
      <path d="M 486.7727661132812 34.22727584838867 C 486.6935729980469 34.22727584838867 486.6097412109375 34.22495651245117 486.5164794921875 34.22019577026367 L 486.5037231445312 34.21954727172852 L 486.490966796875 34.21954727172852 L 477.7615966796875 34.21954727172852 L 477.7515869140625 34.21954727172852 L 477.7415771484375 34.21994781494141 C 477.6490478515625 34.22365570068359 477.5506591796875 34.22727584838867 477.45458984375 34.22727584838867 L 470.664794921875 34.22727584838867 L 460.1818237304688 34.22727584838867 C 455.9459838867188 34.22727584838867 452.5 30.78112602233887 452.5 26.54522514343262 C 452.5 26.41641616821289 452.5033874511719 26.28463554382324 452.5100402832031 26.15355682373047 C 452.5111694335938 26.12884521484375 452.5131530761719 26.10667610168457 452.5150146484375 26.08447647094727 C 452.5169372558594 26.06144523620605 452.5188598632812 26.03841590881348 452.5203552246094 26.01524543762207 L 452.5234069824219 25.97061538696289 C 452.5282287597656 25.89902687072754 452.5328063964844 25.8314151763916 452.539306640625 25.76651573181152 C 452.54248046875 25.73442649841309 452.5466613769531 25.7035961151123 452.5507507324219 25.6727466583252 C 452.5538635253906 25.64924621582031 452.5569763183594 25.62574577331543 452.559814453125 25.60217666625977 L 452.5660400390625 25.54995536804199 C 452.572509765625 25.49512672424316 452.5788879394531 25.44032669067383 452.5870971679688 25.38616561889648 C 452.5926818847656 25.34869575500488 452.5994567871094 25.31283569335938 452.6060791015625 25.27698516845703 C 452.6100769042969 25.25549507141113 452.6140441894531 25.23401641845703 452.6178588867188 25.21250534057617 L 452.6273803710938 25.15668678283691 C 452.6355590820312 25.10842514038086 452.6436767578125 25.06003570556641 452.6534118652344 25.01223564147949 C 452.6614074707031 24.97210693359375 452.6703186035156 24.93464660644531 452.6791076660156 24.8972053527832 C 452.6843566894531 24.8748950958252 452.6896057128906 24.85260581970215 452.6946716308594 24.83025550842285 C 452.6995239257812 24.80912590026855 452.70458984375 24.78633689880371 452.7096557617188 24.76354598999023 C 452.7185363769531 24.72365570068359 452.7273254394531 24.68370628356934 452.7374267578125 24.64422607421875 C 452.7485046386719 24.60097694396973 452.7608337402344 24.55806541442871 452.7731323242188 24.51517677307129 L 452.7894592285156 24.45780563354492 L 452.8052062988281 24.40128517150879 C 452.8161010742188 24.36193656921387 452.8269348144531 24.32265663146973 452.8388977050781 24.28369522094727 C 452.8533325195312 24.23700523376465 452.8693542480469 24.19005584716797 452.8853149414062 24.14304542541504 L 452.9027709960938 24.09149551391602 L 452.9219055175781 24.03422546386719 C 452.9333190917969 23.99972534179688 452.9447021484375 23.96522521972656 452.9570007324219 23.93120574951172 C 452.9755554199219 23.87969589233398 452.9954833984375 23.82953643798828 453.015380859375 23.7792854309082 L 453.0333251953125 23.73384666442871 C 453.0408020019531 23.7150764465332 453.0487976074219 23.69438552856445 453.0568237304688 23.67367553710938 C 453.0679931640625 23.64479637145996 453.0791320800781 23.6158561706543 453.0910339355469 23.58741569519043 C 453.11474609375 23.5302562713623 453.1396484375 23.47556686401367 453.1645202636719 23.42074584960938 L 453.1803588867188 23.38584518432617 L 453.1982727050781 23.34563636779785 C 453.2124328613281 23.31373596191406 453.2265930175781 23.28173637390137 453.2415771484375 23.25009536743164 C 453.2691650390625 23.19207572937012 453.298828125 23.13425636291504 453.3284912109375 23.0762767791748 L 453.3434448242188 23.04700660705566 L 453.3672790527344 23.00021553039551 C 453.3804321289062 22.97428512573242 453.3935546875 22.94833564758301 453.4072265625 22.92258644104004 C 453.4422302246094 22.85744667053223 453.4809265136719 22.79031562805176 453.5218811035156 22.71924591064453 L 453.549072265625 22.67161560058594 C 453.5612182617188 22.65013694763184 453.5733642578125 22.62861633300781 453.5860900878906 22.60735511779785 C 453.6264343261719 22.53984642028809 453.6691284179688 22.47316551208496 453.7142944335938 22.4025764465332 L 453.7172546386719 22.3979663848877 L 453.7424926757812 22.35847663879395 C 453.7547302246094 22.33924674987793 453.7668762207031 22.32003593444824 453.7794799804688 22.30124664306641 C 453.8206787109375 22.23934555053711 453.865478515625 22.17483520507812 453.925537109375 22.09087562561035 L 453.9458923339844 22.0620059967041 C 453.9598999023438 22.04208564758301 453.9739379882812 22.02208518981934 453.9884033203125 22.00240516662598 C 454.0416870117188 21.92978668212891 454.097412109375 21.85840606689453 454.1497192382812 21.79206657409668 L 454.1648254394531 21.77268600463867 C 454.178955078125 21.75454521179199 454.1930236816406 21.73638534545898 454.2074584960938 21.71873664855957 C 454.2634887695312 21.64918518066406 454.3193969726562 21.58375549316406 454.3869934082031 21.5058765411377 L 454.4188232421875 21.46898651123047 L 454.4449157714844 21.43873596191406 C 454.5025939941406 21.37432861328125 454.5650634765625 21.3072338104248 454.6357727050781 21.2337760925293 L 454.6578979492188 21.21037673950195 C 454.6675415039062 21.20012664794922 454.6771545410156 21.18982696533203 454.6870727539062 21.17980575561523 C 454.7516479492188 21.11365509033203 454.8200378417969 21.04645538330078 454.8985290527344 20.97197532653809 L 454.9194946289062 20.95194625854492 C 454.9270629882812 20.94467544555664 454.9345703125 20.93737602233887 454.9422912597656 20.93037605285645 L 454.9444885253906 20.92837524414062 L 454.9466552734375 20.92634582519531 C 455.0181579589844 20.85983657836914 455.0940856933594 20.79199600219727 455.1723022460938 20.72470664978027 L 455.1934204101562 20.70633506774902 C 455.1993713378906 20.70109558105469 455.205322265625 20.69581604003906 455.2114868164062 20.69069671630859 L 455.2142944335938 20.68838691711426 L 455.217041015625 20.68603515625 C 455.2897338867188 20.62409591674805 455.3685302734375 20.56005668640137 455.4579467773438 20.49026679992676 L 455.4601440429688 20.48854637145996 L 455.4623413085938 20.48679542541504 C 455.4740905761719 20.47739601135254 455.4859008789062 20.46799659729004 455.4977111816406 20.45878601074219 C 455.5764465332031 20.39811515808105 455.663330078125 20.33418655395508 455.7539672851562 20.27030563354492 C 455.7655029296875 20.26222801208496 455.77783203125 20.25323867797852 455.7901916503906 20.24417686462402 C 455.8794555664062 20.18207740783691 455.9701232910156 20.12176132202148 456.0597839355469 20.06485557556152 L 456.0899353027344 20.04548645019531 C 456.1799621582031 19.98866653442383 456.2774047851562 19.93011665344238 456.3763122558594 19.87352561950684 L 456.3985900878906 19.86074638366699 C 456.4966735839844 19.80514526367188 456.5989379882812 19.75017547607422 456.7002868652344 19.69863510131836 L 456.7051391601562 19.6961555480957 L 456.7099609375 19.69357681274414 L 456.7119445800781 19.69259643554688 L 456.7166137695312 19.69026565551758 C 456.8130798339844 19.6412296295166 456.9139709472656 19.59294128417969 457.0247497558594 19.54280853271484 L 457.0255432128906 19.54252624511719 L 457.0443725585938 19.53407669067383 C 457.1552124023438 19.48429679870605 457.266357421875 19.43756675720215 457.3746948242188 19.39517593383789 L 457.3830261230469 19.39190673828125 L 457.3882751464844 19.3896427154541 C 457.4961853027344 19.34751129150391 457.6090087890625 19.30658721923828 457.7237548828125 19.26793670654297 C 458.4376220703125 19.0267162322998 459.18505859375 18.8928050994873 459.9464111328125 18.86954689025879 L 460.3449096679688 18.85736656188965 L 460.4209899902344 18.47008514404297 C 460.5637512207031 17.8433837890625 460.7855224609375 17.23616790771484 461.0802307128906 16.66525650024414 C 461.0828552246094 16.66023445129395 461.0856323242188 16.65478515625 461.0884399414062 16.64919281005859 C 461.133056640625 16.56343078613281 461.1807556152344 16.4757080078125 461.2303161621094 16.3882942199707 C 461.2341003417969 16.38186454772949 461.2378234863281 16.37538719177246 461.2416381835938 16.36870574951172 C 461.2979125976562 16.27087020874023 461.3480834960938 16.18703460693359 461.3963012695312 16.11015892028809 L 461.3963928222656 16.11001586914062 L 461.4017639160156 16.1015453338623 C 461.6246337890625 15.74700832366943 461.8772583007812 15.40936851501465 462.152587890625 15.09801387786865 C 462.1559143066406 15.09430313110352 462.1592407226562 15.09053611755371 462.1625061035156 15.08673095703125 L 462.1679992675781 15.08055591583252 C 462.2177734375 15.02430820465088 462.2731628417969 14.96433353424072 462.3473205566406 14.8862943649292 C 462.3567199707031 14.8765983581543 462.3659973144531 14.86687088012695 462.3752746582031 14.85712623596191 L 462.3987426757812 14.8326358795166 C 462.453125 14.77644634246826 462.5101318359375 14.71958637237549 462.5747985839844 14.65699577331543 L 462.5911254882812 14.64142608642578 C 462.6073913574219 14.62592601776123 462.6236267089844 14.61038589477539 462.6400451660156 14.59509563446045 C 462.7058715820312 14.53289604187012 462.7631530761719 14.48034572601318 462.8174133300781 14.43231582641602 C 462.8341369628906 14.41747570037842 462.8507080078125 14.40320587158203 462.8672180175781 14.38893604278564 L 462.8915100097656 14.36793613433838 C 462.9490661621094 14.31828594207764 463.0118408203125 14.26455593109131 463.0740356445312 14.21393585205078 C 463.0846557617188 14.20525646209717 463.0951843261719 14.19721603393555 463.1056213378906 14.18912601470947 L 463.136962890625 14.16470623016357 C 463.3375244140625 14.00522613525391 463.5496520996094 13.85355567932129 463.7685241699219 13.71303558349609 L 463.7987060546875 13.69349575042725 C 463.82568359375 13.67598628997803 463.8525695800781 13.65849590301514 463.8799743652344 13.64162635803223 C 463.9301452636719 13.61053562164307 463.9800109863281 13.58155632019043 464.0298767089844 13.5524959564209 L 464.0452575683594 13.54352569580078 L 464.0917358398438 13.51660633087158 C 464.1217346191406 13.4992094039917 464.1516418457031 13.48183155059814 464.1818237304688 13.4647274017334 C 464.2346496582031 13.43556022644043 464.2880554199219 13.40704822540283 464.341552734375 13.37894630432129 C 464.3911743164062 13.35295581817627 464.4415283203125 13.32701587677002 464.4923706054688 13.30172634124756 C 464.5443420410156 13.27593612670898 464.5972900390625 13.25008583068848 464.6506652832031 13.22489643096924 C 464.7043151855469 13.19967555999756 464.7589416503906 13.17547607421875 464.8139953613281 13.15123558044434 C 464.8659362792969 13.12813568115234 464.9164123535156 13.10574626922607 464.96728515625 13.08446598052979 C 465.0215148925781 13.06191635131836 465.0774841308594 13.04048633575439 465.1333312988281 13.01903629302979 L 465.1572265625 13.00985622406006 L 465.2118530273438 12.98853588104248 C 465.2384643554688 12.97806644439697 465.2651062011719 12.96753597259521 465.2919921875 12.95769596099854 C 465.4061889648438 12.91651630401611 465.5125427246094 12.88056564331055 465.6147766113281 12.84862613677979 C 465.6279907226562 12.84453582763672 465.6424255371094 12.84055614471436 465.6568298339844 12.83651638031006 C 465.6727600097656 12.83204555511475 465.6886901855469 12.82756614685059 465.70458984375 12.82286643981934 C 465.7860412597656 12.79837608337402 465.8711547851562 12.77327632904053 465.9560241699219 12.75126647949219 C 465.9863891601562 12.74322605133057 466.0146179199219 12.73655605316162 466.0427856445312 12.72985649108887 L 466.0890502929688 12.71874618530273 C 466.1624755859375 12.7009859085083 466.2348937988281 12.6836462020874 466.3052978515625 12.66881561279297 C 466.3530578613281 12.65870571136475 466.4005432128906 12.64957618713379 466.4484558105469 12.64041614532471 C 466.5309753417969 12.62456607818604 466.5987548828125 12.61248588562012 466.662109375 12.60234642028809 C 466.7128295898438 12.59381580352783 466.7597351074219 12.58655643463135 466.8070068359375 12.57992649078369 C 466.8730773925781 12.57035636901855 466.9436950683594 12.56135559082031 467.031494140625 12.55129623413086 L 467.0718383789062 12.54678630828857 C 467.1047973632812 12.54307556152344 467.1378173828125 12.53933620452881 467.1712036132812 12.53615570068359 C 467.2595825195312 12.52763557434082 467.3490295410156 12.52168560028076 467.4171752929688 12.51743602752686 L 467.4688415527344 12.51388645172119 C 467.4919128417969 12.51223564147949 467.5149536132812 12.51053619384766 467.5381774902344 12.50942611694336 C 467.673583984375 12.50308609008789 467.7949829101562 12.49999618530273 467.9088745117188 12.49999618530273 C 468.0233764648438 12.49999618530273 468.1453552246094 12.50308609008789 468.28173828125 12.50945568084717 C 468.3043518066406 12.51050567626953 468.3267211914062 12.51220607757568 468.3490600585938 12.51383590698242 C 468.3673095703125 12.51517581939697 468.3855285644531 12.51649570465088 468.4038391113281 12.51764583587646 C 468.4725036621094 12.52193641662598 468.5621032714844 12.52790641784668 468.6488952636719 12.53630638122559 C 468.6824035644531 12.53945636749268 468.7142639160156 12.5431957244873 468.7461242675781 12.5468864440918 L 468.7937316894531 12.55234622955322 C 468.8728942871094 12.5612964630127 468.9449157714844 12.57042598724365 469.013427734375 12.5802059173584 C 469.0623168945312 12.58731555938721 469.1125183105469 12.59525585174561 469.1622314453125 12.60341644287109 C 469.2326965332031 12.61497592926025 469.3026123046875 12.62763595581055 469.3722229003906 12.6409158706665 C 469.4212646484375 12.65047645568848 469.4720153808594 12.66035556793213 469.5225830078125 12.67110633850098 C 469.5812377929688 12.68356609344482 469.6454162597656 12.69841575622559 469.7247314453125 12.71787643432617 L 469.7635192871094 12.72723579406738 C 469.8003540039062 12.73608589172363 469.8370971679688 12.74488639831543 469.8734741210938 12.75445556640625 C 469.9390563964844 12.77175617218018 470.0054626464844 12.79124641418457 470.0792236328125 12.81307601928711 L 470.1187133789062 12.8244161605835 C 470.1522521972656 12.8339958190918 470.1857604980469 12.84351634979248 470.2187805175781 12.85379600524902 C 470.3047180175781 12.88081645965576 470.3917541503906 12.91120624542236 470.4734191894531 12.93998622894287 C 470.5432739257812 12.96475601196289 470.6148681640625 12.9921760559082 470.6817016601562 13.01805591583252 L 470.7063293457031 13.02755641937256 C 470.7590026855469 13.04786586761475 470.811767578125 13.06813621520996 470.8636474609375 13.08974647521973 C 470.9113464355469 13.10959625244141 470.9584350585938 13.13078594207764 471.0054321289062 13.15187644958496 L 471.03369140625 13.16455554962158 L 471.0731506347656 13.18211555480957 C 471.1082153320312 13.1976957321167 471.1431884765625 13.21316623687744 471.1775512695312 13.22950649261475 C 471.2390747070312 13.25850582122803 471.298095703125 13.28806591033936 471.3569030761719 13.317795753479 C 471.3997802734375 13.33933639526367 471.4418640136719 13.3604564666748 471.483154296875 13.3824462890625 C 471.5470275878906 13.41606616973877 471.6080627441406 13.44934558868408 471.6688537597656 13.48347568511963 C 471.7057495117188 13.50425624847412 471.7428283691406 13.5258264541626 471.7798767089844 13.54737567901611 C 471.8433227539062 13.58454608917236 471.9071044921875 13.62262630462646 471.9702758789062 13.66202640533447 C 471.9935913085938 13.67655563354492 472.0165710449219 13.69146633148193 472.0394592285156 13.70629596710205 L 472.0542907714844 13.71590614318848 C 472.1333618164062 13.7667760848999 472.1981811523438 13.8090763092041 472.2611999511719 13.8525857925415 L 472.2715454101562 13.85993576049805 C 472.2805480957031 13.86639595031738 472.2895812988281 13.87283611297607 472.2987670898438 13.87913608551025 C 473.2452087402344 14.53906631469727 474.0460510253906 15.42135620117188 474.6115417480469 16.42843627929688 C 475.2016906738281 17.4794864654541 475.5282592773438 18.62538528442383 475.5820922851562 19.83429527282715 L 475.628173828125 20.86862564086914 L 476.4096069335938 20.18942642211914 C 477.3932495117188 19.33447647094727 478.6522216796875 18.8636360168457 479.95458984375 18.8636360168457 C 482.9371643066406 18.8636360168457 485.3636474609375 21.29024696350098 485.3636474609375 24.27295684814453 C 485.3636474609375 24.28120613098145 485.3632507324219 24.28937530517578 485.3629455566406 24.29752540588379 C 485.3623352050781 24.31496620178223 485.3617553710938 24.3323860168457 485.3616333007812 24.34986686706543 L 485.3573913574219 24.9496955871582 L 485.9481811523438 24.84585571289062 C 486.2242736816406 24.79733657836914 486.501708984375 24.77272605895996 486.7727661132812 24.77272605895996 C 489.3793640136719 24.77272605895996 491.5 26.89337539672852 491.5 29.5000057220459 C 491.5 30.70069694519043 491.0492248535156 31.8450756072998 490.2306823730469 32.72233581542969 C 489.4162292480469 33.59521484375 488.3142700195312 34.12443542480469 487.1277770996094 34.21250534057617 L 487.0142211914062 34.2209358215332 C 486.9268188476562 34.22519683837891 486.8476867675781 34.22727584838867 486.7727661132812 34.22727584838867 Z" stroke="none"/>
      <path d="M 486.7727661132812 33.72727584838867 C 486.8377075195312 33.72727584838867 486.9068603515625 33.72549819946289 486.9835510253906 33.72183609008789 L 487.0907897949219 33.71387481689453 C 488.1514282226562 33.63514709472656 489.13671875 33.1618766784668 489.8651123046875 32.3812255859375 C 490.5969543457031 31.59687614440918 491 30.57363510131836 491 29.5000057220459 C 491 27.16907691955566 489.1036682128906 25.27272605895996 486.7727661132812 25.27272605895996 C 486.5306396484375 25.27272605895996 486.2823486328125 25.29479598999023 486.0347290039062 25.33830642700195 L 484.8531494140625 25.54598617553711 L 484.8616638183594 24.34631538391113 C 484.86181640625 24.32400512695312 484.8624877929688 24.30177688598633 484.86328125 24.27950668334961 L 484.8636474609375 24.26859092712402 C 484.8612365722656 21.56362342834473 482.6599731445312 19.3636360168457 479.95458984375 19.3636360168457 C 478.7727355957031 19.3636360168457 477.6302795410156 19.79092597961426 476.7376098632812 20.56679534912109 L 475.1747436523438 21.92520523071289 L 475.0825805664062 19.85654640197754 C 474.9825134277344 17.60964202880859 473.8632202148438 15.58027648925781 472.0114440917969 14.28835010528564 C 472.0008850097656 14.2810640335083 471.990478515625 14.27365779876709 471.9801025390625 14.26620578765869 L 471.9771118164062 14.26402568817139 C 471.919677734375 14.22438621520996 471.8587646484375 14.184645652771 471.7826232910156 14.13567638397217 L 471.7675170898438 14.12589645385742 C 471.7471313476562 14.11266613006592 471.7266845703125 14.09935569763184 471.7057495117188 14.08631610870361 C 471.6464538574219 14.04934597015381 471.5865783691406 14.01362609863281 471.5284118652344 13.97953605651855 C 471.4933776855469 13.95914554595947 471.4583129882812 13.93874645233154 471.424072265625 13.91945648193359 C 471.3672485351562 13.8875560760498 471.3102111816406 13.85644626617432 471.2525939941406 13.82612609863281 L 471.2503356933594 13.82494640350342 L 471.2481079101562 13.82376575469971 C 471.2103271484375 13.803635597229 471.1718139648438 13.78435611724854 471.1312866210938 13.76399612426758 C 471.0765991210938 13.73634624481201 471.021728515625 13.708815574646 470.9628295898438 13.68104648590088 C 470.9323425292969 13.6665563583374 470.9013061523438 13.6528959274292 470.8701782226562 13.63906574249268 L 470.8294067382812 13.62091636657715 L 470.8007202148438 13.60805606842041 C 470.7579040527344 13.58883571624756 470.7150268554688 13.56946563720703 470.6714172363281 13.5513162612915 C 470.6236267089844 13.53140640258789 470.5750122070312 13.5128059387207 470.5265197753906 13.49410629272461 L 470.5010986328125 13.48429584503174 C 470.437744140625 13.45976638793945 470.3702087402344 13.43388557434082 470.3072204589844 13.41155624389648 C 470.2296447753906 13.38421630859375 470.147216796875 13.35542583465576 470.0702819824219 13.33123588562012 C 470.0409240722656 13.32209587097168 470.0111389160156 13.31368637084961 469.9813537597656 13.30516624450684 L 469.9442138671875 13.29452610015869 L 469.9407348632812 13.29353618621826 L 469.9373168945312 13.29251575469971 C 469.8674621582031 13.27184581756592 469.8048400878906 13.25345611572266 469.7463073730469 13.23801612854004 C 469.7133178710938 13.22933578491211 469.6799926757812 13.22139644622803 469.6466064453125 13.21337604522705 L 469.6055603027344 13.20346641540527 C 469.5314636230469 13.1852855682373 469.4721374511719 13.17154598236084 469.4185485839844 13.16016578674316 C 469.3707580566406 13.15000629425049 469.3227844238281 13.14069557189941 469.2785339355469 13.13205623626709 C 469.213134765625 13.1195764541626 469.1474304199219 13.10767555236816 469.0812683105469 13.09681606292725 C 469.0345764160156 13.08915615081787 468.9873657226562 13.0816764831543 468.9427490234375 13.07518577575684 C 468.879150390625 13.06610584259033 468.8118591308594 13.05757617950439 468.7380676269531 13.04924583435059 L 468.6884460449219 13.04355621337891 C 468.6602783203125 13.04027557373047 468.632080078125 13.03692626953125 468.6007080078125 13.03397560119629 C 468.521484375 13.02630615234375 468.4373779296875 13.02071571350098 468.3724365234375 13.01666641235352 C 468.3524475097656 13.01540565490723 468.33251953125 13.01396560668945 468.3125915527344 13.01250648498535 C 468.2945861816406 13.01118564605713 468.2765808105469 13.00975608825684 468.2584533691406 13.00890636444092 C 468.1298828125 13.00291633605957 468.0155334472656 12.99999618530273 467.9088745117188 12.99999618530273 C 467.8028564453125 12.99999618530273 467.6890869140625 13.00290584564209 467.5619812011719 13.00885581970215 C 467.5427551269531 13.00977611541748 467.523681640625 13.0112361907959 467.5045776367188 13.01260566711426 L 467.4482421875 13.01647567749023 C 467.3840637207031 13.02046585083008 467.3000793457031 13.02604579925537 467.2185668945312 13.03390598297119 C 467.1880798339844 13.03681564331055 467.1578674316406 13.04025554656982 467.1277770996094 13.04364585876465 L 467.0884399414062 13.04803562164307 C 467.0056762695312 13.05752563476562 466.9397888183594 13.06591606140137 466.87646484375 13.07507610321045 C 466.833740234375 13.08107566833496 466.7913513183594 13.08763599395752 466.7489929199219 13.09476566314697 L 466.7450866699219 13.09542560577393 L 466.7411804199219 13.09604644775391 C 466.6830444335938 13.10535621643066 466.6201171875 13.11658573150635 466.5423889160156 13.131516456604 C 466.4976806640625 13.14006614685059 466.4533996582031 13.14855575561523 466.4083251953125 13.15808582305908 C 466.3446350097656 13.17149639129639 466.2762451171875 13.18788623809814 466.2073974609375 13.20453643798828 L 466.1586303710938 13.21624565124512 C 466.1345520019531 13.22198581695557 466.1103820800781 13.22762584686279 466.0865783691406 13.23393630981445 L 466.0840454101562 13.23460578918457 L 466.0815124511719 13.23526573181152 C 466.0048217773438 13.25515556335449 465.9252319335938 13.27863597869873 465.846435546875 13.3023157119751 C 465.8282470703125 13.30770587921143 465.8100280761719 13.31284618377686 465.7917785644531 13.31796646118164 C 465.7817077636719 13.32078647613525 465.7715759277344 13.32349586486816 465.7638549804688 13.32587623596191 C 465.6685791015625 13.35564613342285 465.5689697265625 13.38933563232422 465.4639282226562 13.42720603942871 C 465.4407348632812 13.4356861114502 465.4177856445312 13.44482612609863 465.3948364257812 13.4538459777832 L 465.3367309570312 13.4765157699585 L 465.3126220703125 13.48578643798828 C 465.260986328125 13.50561618804932 465.2092590332031 13.52535629272461 465.1602172851562 13.54573631286621 C 465.1127624511719 13.56558609008789 465.0657348632812 13.58650588989258 465.0155029296875 13.60883617401123 C 464.9642639160156 13.63139629364014 464.9133605957031 13.65388584136963 464.8640747070312 13.6770658493042 C 464.8136596679688 13.70085620880127 464.763671875 13.72527599334717 464.7151489257812 13.74935626983643 C 464.6673889160156 13.77311611175537 464.6200561523438 13.79749584197998 464.5741882324219 13.8215160369873 C 464.5249633789062 13.84739780426025 464.4757690429688 13.87363433837891 464.4270629882812 13.90045928955078 C 464.3988342285156 13.91647624969482 464.3707885742188 13.93275737762451 464.3427124023438 13.94905567169189 L 464.297119140625 13.97545623779297 L 464.2816162109375 13.9844856262207 C 464.2356262207031 14.01129627227783 464.1896057128906 14.03797626495361 464.1421813964844 14.06734561920166 C 464.1181335449219 14.08217620849609 464.0945129394531 14.09758567810059 464.07080078125 14.11297607421875 L 464.0386352539062 14.13379573822021 C 463.8338928222656 14.26524639129639 463.6355895996094 14.40702629089355 463.4471130371094 14.55690574645996 L 463.4114379882812 14.58470630645752 C 463.4044494628906 14.59010601043701 463.3973999023438 14.59541606903076 463.3896484375 14.60174560546875 C 463.3323364257812 14.64837646484375 463.2728576660156 14.69929599761963 463.2191467285156 14.74564647674561 L 463.1939086914062 14.76746559143066 C 463.1790771484375 14.78026580810547 463.1642150878906 14.79305648803711 463.1488342285156 14.80667591094971 C 463.0986633300781 14.85109615325928 463.0452880859375 14.90007591247559 462.9856567382812 14.95643615722656 L 462.9833984375 14.95854568481445 L 462.9811706542969 14.96064567565918 C 462.9661560058594 14.9746561050415 462.9512634277344 14.98889636993408 462.9364013671875 15.00309562683105 L 462.9203796386719 15.01836109161377 C 462.8605651855469 15.07627296447754 462.8080444335938 15.12867259979248 462.7598571777344 15.17849636077881 L 462.7581176757812 15.18029594421387 L 462.75634765625 15.18209648132324 L 462.737548828125 15.20173645019531 C 462.7276916503906 15.21208095550537 462.7178344726562 15.22241878509521 462.7078552246094 15.23271656036377 C 462.6388549804688 15.3053560256958 462.5876770019531 15.36079025268555 462.5423278808594 15.41201591491699 L 462.5386352539062 15.41620254516602 C 462.5346984863281 15.42073154449463 462.5307312011719 15.42522525787354 462.5267639160156 15.42967510223389 C 462.2695007324219 15.72062015533447 462.033447265625 16.03619956970215 461.8251037597656 16.36764526367188 L 461.8173522949219 16.37986373901367 C 461.7732849121094 16.45021820068359 461.7271423339844 16.52740478515625 461.6759338378906 16.616455078125 C 461.6718444824219 16.62365531921387 461.6677856445312 16.63066864013672 461.6637268066406 16.63761711120605 C 461.6183776855469 16.71768188476562 461.5747375488281 16.79791069030762 461.5339050292969 16.87631034851074 C 461.5306091308594 16.88286972045898 461.5274047851562 16.88909149169922 461.5245361328125 16.89460563659668 C 461.2503051757812 17.42585372924805 461.0436401367188 17.99073791503906 460.9101867675781 18.57377815246582 L 460.7586669921875 19.34495544433594 L 459.9617004394531 19.36930656433105 C 459.2496643066406 19.39106559753418 458.5509338378906 19.51620674133301 457.8888549804688 19.73991584777832 L 457.8860778808594 19.7408561706543 L 457.8833618164062 19.74178695678711 C 457.779052734375 19.77691841125488 457.6765747070312 19.81401062011719 457.5784912109375 19.85213470458984 L 457.5735473632812 19.85427665710449 L 457.556884765625 19.86080551147461 C 457.4561157226562 19.90022659301758 457.3526000976562 19.94375610351562 457.2492065429688 19.99018669128418 L 457.2123107910156 20.00676727294922 C 457.1157836914062 20.05073547363281 457.0274963378906 20.09313583374023 456.9431762695312 20.135986328125 L 456.9395446777344 20.1378116607666 L 456.9366455078125 20.13936614990234 L 456.9269104003906 20.14431571960449 C 456.8329772949219 20.19209098815918 456.7381591796875 20.2430419921875 456.6450805664062 20.29577255249023 L 456.6246032714844 20.30751609802246 C 456.5328674316406 20.36001205444336 456.4425354003906 20.41425514221191 456.3561401367188 20.46876525878906 L 456.3321838378906 20.48414611816406 L 456.3299560546875 20.48557662963867 L 456.3277282714844 20.48698616027832 C 456.24560546875 20.53912734985352 456.1624755859375 20.59438705444336 456.0804748535156 20.65133285522461 C 456.0670471191406 20.66115760803223 456.0538024902344 20.67073059082031 456.0419921875 20.67900657653809 C 455.9571533203125 20.73879623413086 455.8760681152344 20.7984561920166 455.8049621582031 20.85325622558594 L 455.7743835449219 20.87745666503906 L 455.77001953125 20.88095664978027 L 455.765625 20.88439559936523 C 455.681884765625 20.94974517822266 455.6085205078125 21.00935554504395 455.5413208007812 21.06662559509277 L 455.5381164550781 21.06937599182129 L 455.5325317382812 21.07399559020996 L 455.5230407714844 21.08230590820312 L 455.4983825683594 21.10373687744141 C 455.425048828125 21.16683578491211 455.35400390625 21.2303352355957 455.2872009277344 21.29246520996094 L 455.2836303710938 21.2957763671875 L 455.2792358398438 21.29978561401367 L 455.2658996582031 21.31249618530273 L 455.2427368164062 21.33464622497559 C 455.1689147949219 21.40469551086426 455.10498046875 21.46749687194824 455.0472412109375 21.52664566040039 L 455.044921875 21.5290355682373 L 455.0425720214844 21.53141593933105 C 455.0355529785156 21.53849601745605 455.02880859375 21.54581642150879 455.0220031738281 21.55304527282715 L 454.9996337890625 21.57671546936035 L 454.9978332519531 21.57861518859863 L 454.9960021972656 21.58050537109375 C 454.9305419921875 21.64852714538574 454.8728637695312 21.71042060852051 454.8199157714844 21.76947784423828 L 454.7982177734375 21.79463577270508 L 454.7646179199219 21.83356666564941 C 454.70068359375 21.90726661682129 454.6481628417969 21.96866607666016 454.5997314453125 22.02883529663086 L 454.5969848632812 22.03225517272949 L 454.5942077636719 22.0356559753418 C 454.5823974609375 22.05005645751953 454.5709838867188 22.06491661071777 454.5594787597656 22.0797061920166 L 454.5423889160156 22.10162544250488 C 454.4928283691406 22.16445541381836 454.4402770996094 22.23174667358398 454.3913269042969 22.2984561920166 C 454.37890625 22.31533622741699 454.3669128417969 22.3325366973877 454.3548889160156 22.34963607788086 L 454.3351440429688 22.37765693664551 L 454.3336791992188 22.37970542907715 L 454.3322448730469 22.38174629211426 C 454.2755432128906 22.46099662780762 454.2336730957031 22.52125549316406 454.1948852539062 22.57954597473145 C 454.1844787597656 22.59503555297852 454.1744995117188 22.61090660095215 454.1644287109375 22.62676620483398 L 454.1383666992188 22.66752624511719 L 454.1354064941406 22.6721363067627 C 454.0923767089844 22.73937606811523 454.0517272949219 22.80288696289062 454.0149230957031 22.8644962310791 C 454.0043029785156 22.88220596313477 453.9942321777344 22.90017509460449 453.9841003417969 22.91807556152344 L 453.9550476074219 22.96896553039551 C 453.916015625 23.03668594360352 453.879150390625 23.10064506530762 453.8487548828125 23.15720558166504 C 453.8365783691406 23.18012619018555 453.824951171875 23.20322608947754 453.8132629394531 23.22629547119141 L 453.7887268066406 23.27445602416992 L 453.7735900878906 23.30403518676758 C 453.7461547851562 23.35768508911133 453.7186279296875 23.41116523742676 453.6935729980469 23.46382522583008 C 453.6802978515625 23.49190521240234 453.6677856445312 23.52032661437988 453.6552124023438 23.54863548278809 L 453.6358947753906 23.59192657470703 L 453.6198425292969 23.62737655639648 C 453.5972290039062 23.67719650268555 453.5744934082031 23.72685623168945 453.5522155761719 23.78051567077637 C 453.5420837402344 23.80476570129395 453.5326538085938 23.82947540283203 453.5231323242188 23.85411643981934 C 453.5145568847656 23.87625694274902 453.5059814453125 23.89837646484375 453.4986572265625 23.91678619384766 L 453.4802856445312 23.96326637268066 C 453.4623413085938 24.00868606567383 453.4442443847656 24.05398559570312 453.4271850585938 24.10128593444824 C 453.4164123535156 24.13107681274414 453.4065246582031 24.16131591796875 453.3965148925781 24.19153594970703 L 453.3766784667969 24.25094604492188 L 453.3587646484375 24.30387687683105 C 453.3442687988281 24.3465461730957 453.3296508789062 24.38914680480957 453.3168334960938 24.43057632446289 C 453.3062438964844 24.46509552001953 453.2967224121094 24.49991607666016 453.2870483398438 24.53478622436523 L 453.2707214355469 24.59332656860352 L 453.2538146972656 24.65276527404785 C 453.2428283691406 24.69111633300781 453.2317199707031 24.72946548461914 453.2218627929688 24.76800537109375 C 453.2130737304688 24.80242538452148 453.2054748535156 24.8372859954834 453.19775390625 24.8720760345459 C 453.1924133300781 24.89604568481445 453.1871032714844 24.92000579833984 453.1823120117188 24.94073677062988 C 453.1769409179688 24.96442604064941 453.17138671875 24.98806571960449 453.1658325195312 25.01172637939453 C 453.1583251953125 25.04356575012207 453.150634765625 25.07540512084961 453.1433715820312 25.11196517944336 C 453.1347351074219 25.15439605712891 453.1276245117188 25.19738578796387 453.120361328125 25.24022674560547 L 453.1102294921875 25.29955673217773 C 453.1061706542969 25.32242584228516 453.1019592285156 25.34526634216309 453.0977172851562 25.36811637878418 C 453.0921630859375 25.3981761932373 453.0863647460938 25.42822647094727 453.0814514160156 25.46119689941406 C 453.0740356445312 25.50993537902832 453.0684204101562 25.55926513671875 453.0625915527344 25.60859680175781 L 453.0562133789062 25.66206550598145 C 453.0531311035156 25.68760681152344 453.0497741699219 25.71307563781738 453.04638671875 25.7385368347168 C 453.0430603027344 25.7637767791748 453.0395202636719 25.78898620605469 453.0368041992188 25.81643676757812 C 453.0310974121094 25.87323570251465 453.0268249511719 25.9368953704834 453.0222473144531 26.00429534912109 L 453.019287109375 26.04775619506836 C 453.017578125 26.07402610778809 453.0154724121094 26.10013580322266 453.0132751464844 26.12624549865723 C 453.0119323730469 26.14223670959473 453.0103454589844 26.15821647644043 453.0093994140625 26.17892646789551 C 453.003173828125 26.30159568786621 453 26.42483520507812 453 26.54522514343262 C 453 30.50542640686035 456.2216796875 33.72727584838867 460.1818237304688 33.72727584838867 L 470.664794921875 33.72727584838867 L 477.45458984375 33.72727584838867 C 477.5414428710938 33.72727584838867 477.6340942382812 33.72385787963867 477.7215576171875 33.72034454345703 L 477.7415771484375 33.71954727172852 L 477.7615966796875 33.71954727172852 L 486.490966796875 33.71954727172852 L 486.5164794921875 33.71954727172852 L 486.5419921875 33.72084426879883 C 486.6266479492188 33.72517776489258 486.7021484375 33.72727584838867 486.7727661132812 33.72727584838867 M 486.7727661132812 34.72727584838867 C 486.67822265625 34.72727584838867 486.5843505859375 34.72431564331055 486.490966796875 34.71954727172852 L 477.7615966796875 34.71954727172852 C 477.6595458984375 34.72363662719727 477.5574951171875 34.72727584838867 477.45458984375 34.72727584838867 L 470.664794921875 34.72727584838867 L 460.1818237304688 34.72727584838867 L 460.181640625 34.72727584838867 C 455.6632080078125 34.72727584838867 452 31.06409645080566 452 26.54522514343262 C 452 26.40545654296875 452.003662109375 26.26636695861816 452.0106811523438 26.1281852722168 C 452.012939453125 26.07931518554688 452.0182495117188 26.0313663482666 452.0214233398438 25.98272514343262 C 452.0275268554688 25.89409637451172 452.032958984375 25.80477523803711 452.0418090820312 25.71658515930176 C 452.0475463867188 25.6581859588623 452.056396484375 25.60045623779297 452.0634155273438 25.54227638244629 C 452.07275390625 25.46500587463379 452.0811767578125 25.38749694824219 452.0927734375 25.31113624572754 C 452.10205078125 25.24886512756348 452.1145629882812 25.18727684020996 452.12548828125 25.12545585632324 C 452.1377563476562 25.05454635620117 452.1491088867188 24.98295593261719 452.1634521484375 24.91250610351562 C 452.1763916015625 24.84750556945801 452.1925048828125 24.78386688232422 452.20703125 24.71977615356445 C 452.2222900390625 24.65341567993164 452.2361450195312 24.58636665344238 452.2529907226562 24.52045631408691 C 452.27001953125 24.45386695861816 452.2896118164062 24.38818550109863 452.3081665039062 24.32227516174316 C 452.32568359375 24.26022529602051 452.3421020507812 24.19818687438965 452.3609619140625 24.13681602478027 C 452.3822631835938 24.06795692443848 452.4059448242188 24.00022506713867 452.4288940429688 23.93204689025879 C 452.4481811523438 23.8750057220459 452.4664306640625 23.81750679016113 452.48681640625 23.76113510131836 C 452.5122680664062 23.69045639038086 452.5404663085938 23.62090682983398 452.5679931640625 23.55090522766113 C 452.5886840820312 23.49886512756348 452.6082153320312 23.4459056854248 452.6298217773438 23.39431571960449 C 452.6597900390625 23.32204627990723 452.6925048828125 23.25113677978516 452.7247924804688 23.17977523803711 C 452.7461547851562 23.13204574584961 452.76708984375 23.08386611938477 452.78955078125 23.0363655090332 C 452.8243408203125 22.96318626403809 452.8613891601562 22.89158630371094 452.898193359375 22.81954574584961 C 452.9207153320312 22.77568626403809 452.9425048828125 22.73159599304199 452.9656982421875 22.68795585632324 C 453.0054931640625 22.61386680603027 453.0473022460938 22.54136657714844 453.08935546875 22.46840667724609 C 453.112060546875 22.42909622192383 453.1338500976562 22.38931655883789 453.1572875976562 22.3502254486084 C 453.2020874023438 22.27522659301758 453.2491455078125 22.20181655883789 453.296142578125 22.1284065246582 C 453.3189086914062 22.09318542480469 453.3409423828125 22.0574951171875 453.3640747070312 22.02295684814453 C 453.414306640625 21.94750595092773 453.4661865234375 21.87363624572754 453.5188598632812 21.79999542236328 C 453.5408935546875 21.76886558532715 453.562744140625 21.73727607727051 453.58544921875 21.70636558532715 C 453.6411743164062 21.63045692443848 453.6988525390625 21.55636596679688 453.757080078125 21.48250579833984 C 453.7781982421875 21.4554557800293 453.7991333007812 21.42818641662598 453.8207397460938 21.40181541442871 C 453.8818359375 21.32590675354004 453.9454345703125 21.25181579589844 454.0093383789062 21.17817687988281 C 454.029541015625 21.15500640869141 454.04931640625 21.13159561157227 454.0693359375 21.1086368560791 C 454.1365966796875 21.03341674804688 454.2055053710938 20.95977592468262 454.2755126953125 20.88704681396484 C 454.2941284179688 20.86749649047852 454.3125 20.84749603271484 454.3316040039062 20.82818603515625 C 454.4043579101562 20.75363540649414 454.4788818359375 20.68091583251953 454.5543212890625 20.60931587219238 C 454.5716552734375 20.59295654296875 454.588623046875 20.57613563537598 454.6061401367188 20.56022644042969 C 454.684814453125 20.48704528808594 454.7648315429688 20.41568565368652 454.84619140625 20.3456859588623 C 454.86181640625 20.332275390625 454.8768310546875 20.31863594055176 454.8927612304688 20.30545616149902 C 454.97705078125 20.2336368560791 455.0629272460938 20.16431617736816 455.1502685546875 20.09613609313965 C 455.1636352539062 20.08545684814453 455.1770629882812 20.07477569580078 455.1904907226562 20.06431579589844 C 455.2807006835938 19.99477577209473 455.3727416992188 19.92727661132812 455.4659423828125 19.86159515380859 C 455.477294921875 19.85363578796387 455.4884033203125 19.84545516967773 455.4995727539062 19.83727645874023 C 455.595458984375 19.77045631408691 455.6929931640625 19.7054557800293 455.7918090820312 19.64272689819336 L 455.8197631835938 19.62477684020996 C 455.9208984375 19.56091690063477 456.02392578125 19.49908638000488 456.1279907226562 19.43954658508301 L 456.1497802734375 19.42704582214355 C 456.2564086914062 19.36659622192383 456.3641357421875 19.30863571166992 456.4736328125 19.25295639038086 C 456.4791259765625 19.2500057220459 456.4845581054688 19.24727630615234 456.4900512695312 19.24454689025879 C 456.6013793945312 19.18795585632324 456.71435546875 19.13431549072266 456.8286743164062 19.08272552490234 C 456.832275390625 19.08090591430664 456.835693359375 19.07931518554688 456.8395385742188 19.07795524597168 C 456.9559326171875 19.02568626403809 457.0734252929688 18.97613525390625 457.1925048828125 18.92954635620117 L 457.19775390625 18.92727661132812 C 457.3184204101562 18.87999534606934 457.440673828125 18.83568572998047 457.5641479492188 18.79409599304199 L 457.5648193359375 18.79386520385742 C 458.3114013671875 18.54159545898438 459.105712890625 18.39499664306641 459.93115234375 18.36977577209473 L 459.9318237304688 18.36636543273926 C 460.0859375 17.68681526184082 460.3243408203125 17.03954696655273 460.6359252929688 16.43591690063477 C 460.63818359375 16.43159675598145 460.6404418945312 16.42727661132812 460.6425170898438 16.4229564666748 C 460.6925659179688 16.32659530639648 460.7443237304688 16.23159599304199 460.7977294921875 16.13750648498535 C 460.8018188476562 16.13068580627441 460.8056640625 16.12386512756348 460.809814453125 16.11659622192383 C 460.8640747070312 16.02227592468262 460.9196166992188 15.92886638641357 460.9775390625 15.83681583404541 L 460.9784545898438 15.83545589447021 C 461.2166137695312 15.45659637451172 461.4845581054688 15.0984058380127 461.780029296875 14.76454639434814 C 461.7846069335938 14.75954627990723 461.7888793945312 14.75409603118896 461.7936401367188 14.74909591674805 C 461.8566284179688 14.67795562744141 461.92138671875 14.60863590240479 461.9866333007812 14.54000568389893 C 462.0050048828125 14.52113628387451 462.022705078125 14.50204563140869 462.0411376953125 14.48318576812744 C 462.10205078125 14.42022609710693 462.1641235351562 14.35863590240479 462.22705078125 14.29772567749023 C 462.2509155273438 14.27500629425049 462.2747802734375 14.25204563140869 462.2988891601562 14.22954559326172 C 462.3604736328125 14.17136573791504 462.4225463867188 14.11409568786621 462.4859619140625 14.05795574188232 C 462.5118408203125 14.03500556945801 462.5379638671875 14.01272583007812 462.5639038085938 13.99022579193115 C 462.628173828125 13.93477630615234 462.6925048828125 13.87977600097656 462.7584228515625 13.82613563537598 C 462.7807006835938 13.80795574188232 462.8041381835938 13.79045581817627 462.8268432617188 13.77250576019287 C 463.0420532226562 13.60136604309082 463.2661743164062 13.44136619567871 463.4984130859375 13.29227638244629 C 463.5382080078125 13.26658630371094 463.5775146484375 13.24068641662598 463.6177368164062 13.21590614318848 C 463.6757202148438 13.17999649047852 463.7345581054688 13.14590644836426 463.7933959960938 13.11159610748291 C 463.8418579101562 13.08363628387451 463.8898315429688 13.05545616149902 463.9384155273438 13.02795600891113 C 463.9948120117188 12.99681568145752 464.0518188476562 12.96636581420898 464.10888671875 12.93636608123779 C 464.1622924804688 12.90840625762939 464.2156982421875 12.88091564178467 464.2695922851562 12.85409641265869 C 464.3250122070312 12.8265962600708 464.3809204101562 12.79931640625 464.437255859375 12.77272605895996 C 464.4952392578125 12.74545574188232 464.5536499023438 12.7195463180542 464.6124877929688 12.69363594055176 C 464.6661376953125 12.66977596282959 464.7200317382812 12.64590644836426 464.7743530273438 12.6231861114502 C 464.8416137695312 12.5952262878418 464.9097900390625 12.56931591033936 464.9777221679688 12.54318618774414 C 465.0250244140625 12.52499580383301 465.072265625 12.50568580627441 465.1200561523438 12.48818588256836 C 465.234130859375 12.44704627990723 465.3493041992188 12.4077262878418 465.4656982421875 12.37136554718018 C 465.4979858398438 12.36136627197266 465.5304565429688 12.35295581817627 465.562744140625 12.34340572357178 C 465.6511840820312 12.31681632995605 465.740234375 12.29068565368652 465.8305053710938 12.2672758102417 C 465.8768310546875 12.25500583648682 465.924072265625 12.24431610107422 465.970703125 12.23295593261719 C 466.0477294921875 12.21431636810303 466.1245727539062 12.1959056854248 466.2022705078125 12.17954635620117 C 466.2527465820312 12.16886615753174 466.3034057617188 12.15909576416016 466.3545532226562 12.14931583404541 C 466.4302368164062 12.13477611541748 466.50634765625 12.12091636657715 466.5830078125 12.10863590240479 C 466.6343383789062 12.09999561309814 466.6857299804688 12.09204578399658 466.737548828125 12.08477592468262 C 466.8159790039062 12.07340621948242 466.895263671875 12.06363582611084 466.9745483398438 12.05454635620117 C 467.0241088867188 12.04909610748291 467.0736083984375 12.04318618774414 467.1238403320312 12.03840637207031 C 467.2109375 12.03000640869141 467.2984008789062 12.02386569976807 467.3861083984375 12.01840591430664 C 467.4288940429688 12.01568603515625 467.4713745117188 12.01204586029053 467.5143432617188 12.00999641418457 C 467.645263671875 12.00386619567871 467.776611328125 11.99999618530273 467.9088745117188 11.99999618530273 C 468.0418090820312 11.99999618530273 468.1736450195312 12.00386619567871 468.3050537109375 12.00999641418457 C 468.348876953125 12.01204586029053 468.391845703125 12.01590633392334 468.4352416992188 12.01863574981689 C 468.5227661132812 12.02409648895264 468.6102294921875 12.03022575378418 468.6970825195312 12.03863620758057 C 468.7479858398438 12.04340648651123 468.7986450195312 12.04977607727051 468.849365234375 12.05545616149902 C 468.9277954101562 12.06431579589844 469.0061645507812 12.07409572601318 469.0841064453125 12.08522605895996 C 469.1372680664062 12.09295558929443 469.1904907226562 12.10136604309082 469.2431640625 12.11000633239746 C 469.3179321289062 12.12227630615234 469.39208984375 12.13568592071533 469.4659423828125 12.14977645874023 C 469.51953125 12.1602258682251 469.5731811523438 12.17068576812744 469.6265869140625 12.18204593658447 C 469.6993408203125 12.19749641418457 469.7716064453125 12.21454620361328 469.8438720703125 12.23227596282959 C 469.8963623046875 12.24500560760498 469.9488525390625 12.25727558135986 470.0006713867188 12.27090644836426 C 470.0747680664062 12.29045581817627 470.148193359375 12.31204605102539 470.2211303710938 12.33363628387451 C 470.27001953125 12.3477258682251 470.319091796875 12.36136627197266 470.3673095703125 12.37636566162109 C 470.4591064453125 12.40522575378418 470.54931640625 12.43659591674805 470.6395874023438 12.46840572357178 C 470.714599609375 12.49500560760498 470.7883911132812 12.52318572998047 470.8623046875 12.5518159866333 C 470.9270629882812 12.57681560516357 470.9920654296875 12.60159587860107 471.055908203125 12.62818622589111 C 471.1170654296875 12.65363597869873 471.1775512695312 12.68113613128662 471.2379760742188 12.70818614959717 C 471.289794921875 12.73136615753174 471.3416137695312 12.75386619567871 471.3922729492188 12.77795600891113 C 471.4564208984375 12.80818557739258 471.5195922851562 12.83977603912354 471.58251953125 12.87159633636475 C 471.6277465820312 12.89431571960449 471.6734008789062 12.91727638244629 471.7182006835938 12.94113636016846 C 471.7838745117188 12.97568607330322 471.848876953125 13.01113605499268 471.9136352539062 13.04749584197998 C 471.9531860351562 13.06977558135986 471.9923095703125 13.09249591827393 472.0313720703125 13.11522579193115 C 472.1000366210938 13.15545558929443 472.167724609375 13.1959056854248 472.2348022460938 13.23772621154785 C 472.2654418945312 13.25681591033936 472.2957153320312 13.27658557891846 472.325927734375 13.29613590240479 C 472.3997802734375 13.34363555908203 472.4732055664062 13.39136600494385 472.5452880859375 13.44113636016846 C 472.5574951171875 13.44954586029053 472.5693359375 13.45840644836426 472.5816040039062 13.46681594848633 C 474.6077270507812 14.87954616546631 475.9645385742188 17.18386650085449 476.0816040039062 19.81204605102539 C 477.118896484375 18.91045570373535 478.4725341796875 18.3636360168457 479.95458984375 18.3636360168457 C 483.2182006835938 18.3636360168457 485.8636474609375 21.00954627990723 485.8636474609375 24.27295684814453 C 485.8636474609375 24.30000686645508 485.86181640625 24.32659530639648 485.8616333007812 24.35340690612793 C 486.15771484375 24.30136680603027 486.4618530273438 24.27272605895996 486.7727661132812 24.27272605895996 C 489.6597900390625 24.27272605895996 492 26.61295509338379 492 29.5000057220459 C 492 32.2550048828125 489.868408203125 34.51045608520508 487.164794921875 34.71113586425781 L 487.164794921875 34.71954727172852 L 487.0545654296875 34.71954727172852 C 486.9611206054688 34.72431564331055 486.8673095703125 34.72727584838867 486.7727661132812 34.72727584838867 Z" stroke="none" fill="#c9c9c9"/>
    </g>
  </g>
</svg>
