<svg xmlns="http://www.w3.org/2000/svg" width="40" height="40" viewBox="0 0 40 40">
  <g id="_7" data-name="7" transform="translate(-672.015 207.985)">
    <path id="Subtração_112" data-name="Subtração 112" d="M11.823,30.255c-.252,0-.507-.007-.758-.022V29.093c.249.016.5.024.758.024.3,0,.609-.012.909-.035v1.14C12.43,30.244,12.124,30.255,11.823,30.255ZM9.4,30.024h0a12.3,12.3,0,0,1-3.73-1.369,11.659,11.659,0,0,1-2.98-2.4A10.726,10.726,0,0,1,.715,23.071,10.134,10.134,0,0,1,0,19.327,22.134,22.134,0,0,1,11.242.345L11.823,0l.58.345A22.132,22.132,0,0,1,23.646,19.327a10.134,10.134,0,0,1-.7,3.711A10.714,10.714,0,0,1,21,26.2,11.642,11.642,0,0,1,18.073,28.6,12.284,12.284,0,0,1,14.4,29.994V28.831a9.974,9.974,0,0,0,8.111-9.5,21.007,21.007,0,0,0-10.686-18,21.007,21.007,0,0,0-10.686,18c0,4.583,3.4,8.5,8.262,9.538v1.159Z" transform="translate(688.369 -202.302)" fill="#8af4f9"/>
    <g id="Grupo_8614" data-name="Grupo 8614" transform="translate(691.127 -198.902)">
      <path id="União_313" data-name="União 313" d="M8.306,23.611h0a9.4,9.4,0,0,1-5.9-2.651A7.932,7.932,0,0,1,0,15.314a16.86,16.86,0,0,1,.651-4.644,17.3,17.3,0,0,1,1.843-4.2A18.479,18.479,0,0,1,5.362,2.862,19.725,19.725,0,0,1,9.09,0a19.731,19.731,0,0,1,3.728,2.862,18.489,18.489,0,0,1,2.868,3.607,17.314,17.314,0,0,1,1.842,4.2,16.86,16.86,0,0,1,.651,4.644A7.932,7.932,0,0,1,15.8,20.929,9.385,9.385,0,0,1,9.971,23.6V21.022l3.577-3.577a.833.833,0,0,0-.589-1.422.827.827,0,0,0-.589.244l-2.4,2.4V14.138l2.181-2.181a.833.833,0,0,0-1.178-1.178l-1,1V9.016a.833.833,0,1,0-1.665,0V11.88l-1.1-1.1a.833.833,0,1,0-1.178,1.178l2.278,2.279v4.528l-2.5-2.5a.833.833,0,0,0-1.178,1.178L8.306,21.12v2.491Z" transform="translate(0 0)" fill="#9ed3d3"/>
      <path id="Caminho_7364" data-name="Caminho 7364" d="M794.329-56.866a.833.833,0,0,1-.833.833h0a.832.832,0,0,1-.832-.833v-5.389a.833.833,0,0,1,.832-.833h0a.833.833,0,0,1,.833.833Z" transform="translate(-784.355 86.949)" fill="#9ed3d3"/>
      <rect id="Retângulo_5843" data-name="Retângulo 5843" width="1.665" height="1.062" transform="translate(8.308 23.608)" fill="#9ed3d3"/>
    </g>
    <g id="Caminho_7365" data-name="Caminho 7365" transform="translate(-11.239 -11.236)" fill="#ffe269" stroke-miterlimit="10">
      <path d="M 692.3428955078125 -182.3687744140625 C 689.4293823242188 -182.3687744140625 687.0590209960938 -184.7403869628906 687.0590209960938 -187.6554870605469 C 687.0590209960938 -190.5704650878906 689.4293823242188 -192.9419708251953 692.3428955078125 -192.9419708251953 C 695.2564086914062 -192.9419708251953 697.626708984375 -190.5704650878906 697.626708984375 -187.6554870605469 C 697.626708984375 -184.7403869628906 695.2564086914062 -182.3687744140625 692.3428955078125 -182.3687744140625 Z" stroke="none"/>
      <path d="M 692.3428955078125 -192.4419708251953 C 689.705078125 -192.4419708251953 687.5590209960938 -190.2947692871094 687.5590209960938 -187.6554870605469 C 687.5590209960938 -185.0160827636719 689.705078125 -182.8687744140625 692.3428955078125 -182.8687744140625 C 694.980712890625 -182.8687744140625 697.126708984375 -185.0160827636719 697.126708984375 -187.6554870605469 C 697.126708984375 -190.2947692871094 694.980712890625 -192.4419708251953 692.3428955078125 -192.4419708251953 M 692.3428955078125 -193.4419708251953 C 695.5376586914062 -193.4419708251953 698.126708984375 -190.8511505126953 698.126708984375 -187.6554870605469 C 698.126708984375 -184.4593963623047 695.5376586914062 -181.8687744140625 692.3428955078125 -181.8687744140625 C 689.1483154296875 -181.8687744140625 686.5590209960938 -184.4593963623047 686.5590209960938 -187.6554870605469 C 686.5590209960938 -190.8511505126953 689.1483154296875 -193.4419708251953 692.3428955078125 -193.4419708251953 Z" stroke="none" fill="#fecb2f"/>
    </g>
    <path id="Caminho_7366" data-name="Caminho 7366" d="M710.52-206.031a.578.578,0,0,1-.62.526h0a.579.579,0,0,1-.62-.526v-1.429a.579.579,0,0,1,.62-.526h0a.579.579,0,0,1,.62.526Z" transform="translate(-28.796)" fill="#fecb2f"/>
    <path id="Caminho_7367" data-name="Caminho 7367" d="M710.52-136.952a.578.578,0,0,1-.62.526h0a.579.579,0,0,1-.62-.526v-1.429a.579.579,0,0,1,.62-.526h0a.578.578,0,0,1,.62.526Z" transform="translate(-28.796 -53.373)" fill="#fecb2f"/>
    <path id="Caminho_7368" data-name="Caminho 7368" d="M732.695-195.142a.578.578,0,0,1-.81-.067h0a.579.579,0,0,1-.067-.81l1.01-1.01a.578.578,0,0,1,.81.067h0a.579.579,0,0,1,.066.81Z" transform="translate(-46.106 -8.36)" fill="#fecb2f"/>
    <path id="Caminho_7369" data-name="Caminho 7369" d="M683.847-146.3a.578.578,0,0,1-.809-.066h0a.578.578,0,0,1-.067-.81l1.01-1.01a.579.579,0,0,1,.81.067h0a.579.579,0,0,1,.067.81Z" transform="translate(-8.36 -46.1)" fill="#fecb2f"/>
    <path id="Caminho_7370" data-name="Caminho 7370" d="M741.619-169.479a.578.578,0,0,1-.525-.62h0a.578.578,0,0,1,.525-.62h1.428a.578.578,0,0,1,.525.62h0a.578.578,0,0,1-.525.62Z" transform="translate(-53.379 -28.793)" fill="#fecb2f"/>
    <path id="Caminho_7371" data-name="Caminho 7371" d="M672.54-169.479a.578.578,0,0,1-.525-.62h0a.579.579,0,0,1,.525-.62h1.428a.578.578,0,0,1,.525.62h0a.578.578,0,0,1-.525.62Z" transform="translate(0 -28.793)" fill="#fecb2f"/>
    <path id="Caminho_7372" data-name="Caminho 7372" d="M731.818-147.305a.58.58,0,0,1,.067-.81h0a.579.579,0,0,1,.81-.067l1.01,1.01a.579.579,0,0,1-.067.81h0a.578.578,0,0,1-.81.067Z" transform="translate(-46.106 -46.1)" fill="#fecb2f"/>
    <path id="Caminho_7373" data-name="Caminho 7373" d="M682.971-196.152a.578.578,0,0,1,.067-.81h0a.578.578,0,0,1,.81-.067l1.01,1.01a.579.579,0,0,1-.067.81h0a.578.578,0,0,1-.81.067Z" transform="translate(-8.36 -8.36)" fill="#fecb2f"/>
  </g>
</svg>
