<svg xmlns="http://www.w3.org/2000/svg" width="40.5" height="40.75" viewBox="0 0 40.5 40.75">
  <g id="_7n" data-name="7n" transform="translate(-671.515 -11.265)">
    <path id="Subtração_111" data-name="Subtração 111" d="M11.823,30.255c-.252,0-.507-.007-.758-.022V29.093c.25.016.5.024.758.024.3,0,.608-.012.909-.035v1.14C12.43,30.244,12.124,30.255,11.823,30.255ZM9.4,30.024h0a12.3,12.3,0,0,1-3.73-1.369,11.659,11.659,0,0,1-2.98-2.4A10.726,10.726,0,0,1,.715,23.071,10.134,10.134,0,0,1,0,19.327,22.134,22.134,0,0,1,11.242.345L11.823,0l.58.345A22.133,22.133,0,0,1,23.646,19.327a10.134,10.134,0,0,1-.7,3.711A10.713,10.713,0,0,1,21,26.205,11.641,11.641,0,0,1,18.073,28.6,12.284,12.284,0,0,1,14.4,29.994V28.832a9.974,9.974,0,0,0,8.111-9.5,21.007,21.007,0,0,0-10.686-18,21.007,21.007,0,0,0-10.686,18c0,4.582,3.4,8.5,8.262,9.538v1.159Z" transform="translate(688.369 17.698)" fill="#8af4f9"/>
    <g id="Grupo_8603" data-name="Grupo 8603" transform="translate(691.127 21.098)">
      <path id="União_310" data-name="União 310" d="M8.306,23.611h0a9.4,9.4,0,0,1-5.9-2.651A7.932,7.932,0,0,1,0,15.314a16.86,16.86,0,0,1,.651-4.644,17.3,17.3,0,0,1,1.843-4.2A18.479,18.479,0,0,1,5.362,2.862,19.724,19.724,0,0,1,9.09,0a19.731,19.731,0,0,1,3.728,2.862,18.488,18.488,0,0,1,2.868,3.607,17.314,17.314,0,0,1,1.842,4.2,16.86,16.86,0,0,1,.651,4.644A7.932,7.932,0,0,1,15.8,20.929,9.385,9.385,0,0,1,9.971,23.6V21.022l3.577-3.577a.833.833,0,0,0-.589-1.422.827.827,0,0,0-.589.244l-2.4,2.4V14.138l2.181-2.181a.833.833,0,0,0-1.178-1.178l-1,1V9.016a.833.833,0,1,0-1.665,0V11.88l-1.1-1.1a.833.833,0,1,0-1.178,1.178l2.278,2.279v4.528l-2.5-2.5a.832.832,0,0,0-1.178,0,.835.835,0,0,0,0,1.178L8.306,21.12v2.491Z" transform="translate(0 0)" fill="#9ed3d3"/>
      <path id="Caminho_7270" data-name="Caminho 7270" d="M794.329,163.134a.833.833,0,0,1-.833.833h0a.832.832,0,0,1-.832-.833v-5.389a.833.833,0,0,1,.832-.833h0a.833.833,0,0,1,.833.833Z" transform="translate(-784.355 -133.051)" fill="#9ed3d3"/>
      <rect id="Retângulo_5841" data-name="Retângulo 5841" width="1.665" height="1.062" transform="translate(8.308 23.608)" fill="#9ed3d3"/>
    </g>
    <path id="Caminho_7271" data-name="Caminho 7271" d="M684.4,21.607a7.437,7.437,0,0,1-7.112-9.592,7.434,7.434,0,1,0,9.269,9.273A7.421,7.421,0,0,1,684.4,21.607Z" fill="#f2f2f2" stroke="#c9c9c9" stroke-miterlimit="10" stroke-width="1"/>
  </g>
</svg>
