<svg xmlns="http://www.w3.org/2000/svg" width="40" height="40" viewBox="0 0 40 40">
  <g id="_8" data-name="8" transform="translate(-892 208)">
    <g id="Grupo_8613" data-name="Grupo 8613" transform="translate(898.634 -183.455)">
      <path id="Caminho_7345" data-name="Caminho 7345" d="M948.072-85.511a.966.966,0,0,1-.966.966h0a.966.966,0,0,1-.966-.966V-99.034a.966.966,0,0,1,.966-.966h0a.966.966,0,0,1,.966.966Z" transform="translate(-940.47 100)" fill="#c9c9c9"/>
      <path id="Caminho_7346" data-name="Caminho 7346" d="M922.682-77.313a.966.966,0,0,1-1.336-.284h0a.966.966,0,0,1,.284-1.336L932.97-86.3a.966.966,0,0,1,1.336.284h0a.966.966,0,0,1-.284,1.336Z" transform="translate(-921.19 89.533)" fill="#c9c9c9"/>
      <path id="Caminho_7347" data-name="Caminho 7347" d="M932.97-77.313a.966.966,0,0,0,1.336-.284h0a.966.966,0,0,0-.284-1.336L922.682-86.3a.966.966,0,0,0-1.336.284h0a.966.966,0,0,0,.284,1.336Z" transform="translate(-921.19 89.533)" fill="#c9c9c9"/>
      <path id="Caminho_7348" data-name="Caminho 7348" d="M1018.773-92.33a.511.511,0,0,1-.511.511h0a.511.511,0,0,1-.511-.511v-7.159a.511.511,0,0,1,.511-.511h0a.511.511,0,0,1,.511.511Z" transform="translate(-995.805 100)" fill="#c9c9c9"/>
      <path id="Caminho_7349" data-name="Caminho 7349" d="M1005.331-87.989a.511.511,0,0,1-.708-.15h0a.512.512,0,0,1,.15-.707l6-3.9a.511.511,0,0,1,.707.15h0a.512.512,0,0,1-.15.708Z" transform="translate(-985.598 94.458)" fill="#c9c9c9"/>
      <path id="Caminho_7350" data-name="Caminho 7350" d="M1010.778-87.989a.511.511,0,0,0,.707-.15h0a.512.512,0,0,0-.15-.707l-6-3.9a.512.512,0,0,0-.708.15h0a.512.512,0,0,0,.15.708Z" transform="translate(-985.598 94.458)" fill="#c9c9c9"/>
      <path id="Caminho_7351" data-name="Caminho 7351" d="M1001.182-50.886a.341.341,0,0,1-.341.341h0a.341.341,0,0,1-.341-.341v-4.773a.341.341,0,0,1,.341-.341h0a.341.341,0,0,1,.341.341Z" transform="translate(-982.475 66)" fill="#c9c9c9"/>
      <path id="Caminho_7352" data-name="Caminho 7352" d="M992.221-47.992a.342.342,0,0,1-.473-.1h0a.342.342,0,0,1,.1-.472l4-2.6a.342.342,0,0,1,.473.1h0a.342.342,0,0,1-.1.472Z" transform="translate(-975.671 62.306)" fill="#c9c9c9"/>
      <path id="Caminho_7353" data-name="Caminho 7353" d="M995.852-47.992a.342.342,0,0,0,.473-.1h0a.342.342,0,0,0-.1-.472l-4-2.6a.342.342,0,0,0-.473.1h0a.342.342,0,0,0,.1.472Z" transform="translate(-975.671 62.306)" fill="#c9c9c9"/>
    </g>
    <g id="Caminho_7354" data-name="Caminho 7354" fill="#f2f2f2" stroke-miterlimit="10">
      <path d="M 926.772705078125 -185.7727355957031 C 926.6929931640625 -185.7727355957031 926.6126708984375 -185.7747344970703 926.5338745117188 -185.7786712646484 C 926.5280151367188 -185.7791290283203 926.5223999023438 -185.7795104980469 926.5167236328125 -185.7798004150391 L 926.5038452148438 -185.7804565429688 L 926.490966796875 -185.7804565429688 L 917.7618408203125 -185.7804565429688 L 917.7518310546875 -185.7804565429688 L 917.7418823242188 -185.7800598144531 C 917.6492309570312 -185.7763519287109 917.5507202148438 -185.7727355957031 917.45458984375 -185.7727355957031 L 910.664794921875 -185.7727355957031 L 900.1817626953125 -185.7727355957031 C 895.9459838867188 -185.7727355957031 892.5 -189.2188720703125 892.5 -193.4547729492188 C 892.5 -193.5834503173828 892.5033569335938 -193.7153015136719 892.510009765625 -193.8466339111328 C 892.5111083984375 -193.8704071044922 892.5130615234375 -193.8925628662109 892.5149536132812 -193.9147338867188 C 892.516845703125 -193.937744140625 892.518798828125 -193.9607543945312 892.520263671875 -193.9839019775391 L 892.5230712890625 -194.0252685546875 C 892.5280151367188 -194.0983123779297 892.5326538085938 -194.1673278808594 892.539306640625 -194.2336120605469 C 892.54248046875 -194.2662963867188 892.5468139648438 -194.2981567382812 892.551025390625 -194.3300170898438 C 892.553955078125 -194.3518371582031 892.5568237304688 -194.3736419677734 892.5595092773438 -194.3955230712891 L 892.5670166015625 -194.4579925537109 C 892.5732421875 -194.51025390625 892.5794067382812 -194.5625915527344 892.587158203125 -194.6142578125 C 892.5925903320312 -194.6501770019531 892.59912109375 -194.6852874755859 892.6055908203125 -194.7204437255859 C 892.609619140625 -194.7424468994141 892.6136474609375 -194.7644500732422 892.6174926757812 -194.7865447998047 L 892.6270751953125 -194.8426513671875 C 892.63525390625 -194.8908996582031 892.643310546875 -194.9391326904297 892.6531982421875 -194.9868927001953 C 892.6615600585938 -195.0291290283203 892.670654296875 -195.0672149658203 892.6795654296875 -195.1052398681641 L 892.6939086914062 -195.1668090820312 C 892.6992797851562 -195.1900329589844 892.704833984375 -195.2149047851562 892.7103881835938 -195.2397308349609 C 892.7192993164062 -195.2793579101562 892.7280883789062 -195.3188934326172 892.7378540039062 -195.3579864501953 C 892.7494506835938 -195.4024353027344 892.7633056640625 -195.4502716064453 892.777099609375 -195.4983062744141 L 892.7883911132812 -195.5375823974609 L 892.8043212890625 -195.5952453613281 C 892.8154907226562 -195.6360931396484 892.82666015625 -195.6770477294922 892.8389892578125 -195.7174530029297 C 892.852294921875 -195.76025390625 892.8673706054688 -195.804443359375 892.8824462890625 -195.8487396240234 L 892.90185546875 -195.9060516357422 L 892.9208374023438 -195.9628143310547 C 892.9326171875 -195.9982452392578 892.9443359375 -196.0337219238281 892.95703125 -196.0686950683594 C 892.9759521484375 -196.1213836669922 892.995849609375 -196.1714935302734 893.0157470703125 -196.2216949462891 L 893.0321655273438 -196.2632904052734 L 893.0521240234375 -196.314697265625 C 893.0645141601562 -196.346923828125 893.076904296875 -196.3792419433594 893.0903930664062 -196.4110565185547 C 893.1148071289062 -196.4698028564453 893.1394653320312 -196.5241241455078 893.1641235351562 -196.5785675048828 L 893.1788330078125 -196.6110229492188 L 893.1974487304688 -196.6528778076172 C 893.2116088867188 -196.6847991943359 893.2257080078125 -196.7167205810547 893.2407836914062 -196.7482147216797 C 893.2681884765625 -196.8061828613281 893.2972412109375 -196.8626556396484 893.3279418945312 -196.9224395751953 L 893.3414916992188 -196.9488220214844 L 893.3678588867188 -197.0008544921875 C 893.3809204101562 -197.0267028808594 893.3938598632812 -197.0525512695312 893.407470703125 -197.0780639648438 C 893.4384765625 -197.1356658935547 893.4724731445312 -197.1947326660156 893.50634765625 -197.2538757324219 L 893.5208740234375 -197.2791595458984 L 893.546875 -197.3247222900391 C 893.5595703125 -197.3470458984375 893.5721435546875 -197.3694152832031 893.58544921875 -197.3913421630859 C 893.6257934570312 -197.4590759277344 893.6659545898438 -197.5219116210938 893.7144165039062 -197.5973815917969 L 893.7366943359375 -197.6324615478516 C 893.750732421875 -197.6546020507812 893.7645874023438 -197.6767120361328 893.7791748046875 -197.6983032226562 C 893.8304443359375 -197.7756042480469 893.8826904296875 -197.8491821289062 893.9227294921875 -197.9050750732422 L 893.9479370117188 -197.9408111572266 C 893.9616088867188 -197.9603424072266 893.9752807617188 -197.9799346923828 893.9893188476562 -197.9990386962891 C 894.0403442382812 -198.0683135986328 894.0952758789062 -198.1385650634766 894.1468505859375 -198.2040252685547 L 894.167236328125 -198.2301788330078 C 894.1808471679688 -198.2478179931641 894.1945190429688 -198.2655487060547 894.2086791992188 -198.2828216552734 C 894.27001953125 -198.3587951660156 894.331298828125 -198.4299926757812 894.3834228515625 -198.489990234375 L 894.4110107421875 -198.52197265625 C 894.4226684570312 -198.5355377197266 894.4342651367188 -198.5490570068359 894.4459838867188 -198.5623626708984 C 894.4982299804688 -198.6209411621094 894.5584106445312 -198.6857604980469 894.6331787109375 -198.7639465332031 L 894.6610717773438 -198.7931823730469 C 894.6708984375 -198.8035736083984 894.6807861328125 -198.8139953613281 894.6907958984375 -198.8242950439453 C 894.7529296875 -198.8876647949219 894.820068359375 -198.9534759521484 894.8950805664062 -199.0245666503906 L 894.9142456054688 -199.0429534912109 C 894.9254760742188 -199.0537414550781 894.9367065429688 -199.0645599365234 894.9481201171875 -199.0751647949219 C 895.014892578125 -199.1375427246094 895.0868530273438 -199.2018127441406 895.1688842773438 -199.2724609375 L 895.18994140625 -199.2908020019531 C 895.1990966796875 -199.2987823486328 895.2081298828125 -199.3067321777344 895.2174682617188 -199.3146209716797 C 895.2931518554688 -199.378662109375 895.372802734375 -199.4432983398438 895.4539794921875 -199.5065155029297 L 895.4699096679688 -199.5191345214844 C 895.4788818359375 -199.5262603759766 895.4878540039062 -199.5334320068359 895.4968872070312 -199.5403747558594 C 895.5740966796875 -199.6001129150391 895.65673828125 -199.6610565185547 895.7510986328125 -199.7279205322266 L 895.7733154296875 -199.74365234375 L 895.7907104492188 -199.7559967041016 C 895.8749389648438 -199.8146820068359 895.9655151367188 -199.8751220703125 896.0570678710938 -199.93359375 L 896.0629272460938 -199.9373321533203 L 896.0897827148438 -199.9547271728516 C 896.1792602539062 -200.0109405517578 896.2736206054688 -200.0675201416016 896.370361328125 -200.1229248046875 C 896.3795166015625 -200.1280670166016 896.3884887695312 -200.1333160400391 896.3974609375 -200.1386413574219 L 896.4039916992188 -200.1425323486328 C 896.4912719726562 -200.1920623779297 896.5886840820312 -200.2444305419922 896.697509765625 -200.3001403808594 L 896.6912841796875 -200.2969970703125 L 896.7108154296875 -200.3069458007812 L 896.714111328125 -200.3085632324219 L 896.7183227539062 -200.3107452392578 C 896.817138671875 -200.3606414794922 896.9205322265625 -200.4100952148438 897.025634765625 -200.4577484130859 C 897.033203125 -200.4610137939453 897.0405883789062 -200.46435546875 897.0480346679688 -200.4678039550781 C 897.1538696289062 -200.5150604248047 897.2632446289062 -200.5610198974609 897.3714599609375 -200.6036376953125 L 897.3847045898438 -200.6088562011719 C 897.4921875 -200.65087890625 897.6029663085938 -200.6913452148438 897.7130126953125 -200.7287750244141 C 897.7192993164062 -200.7307586669922 897.7254638671875 -200.7328033447266 897.7318725585938 -200.7350463867188 C 897.8434448242188 -200.7725677490234 897.9591064453125 -200.8083801269531 898.0757446289062 -200.8415374755859 L 898.0836791992188 -200.8437805175781 L 898.0884399414062 -200.8453216552734 C 898.1992797851562 -200.8766174316406 898.3121948242188 -200.9057464599609 898.4243774414062 -200.9320220947266 L 898.4409790039062 -200.9357452392578 C 898.5594482421875 -200.9633178710938 898.6799926757812 -200.9882507324219 898.7994384765625 -201.0098724365234 L 898.799560546875 -201.0099029541016 L 898.8084716796875 -201.011474609375 C 898.92333984375 -201.0323333740234 899.0421752929688 -201.0509033203125 899.161865234375 -201.0666809082031 L 899.1813354492188 -201.0691986083984 C 899.429931640625 -201.1015319824219 899.6846923828125 -201.1219940185547 899.9388427734375 -201.1300048828125 L 900.3365478515625 -201.1300048828125 L 900.42041015625 -201.5269012451172 L 900.4205322265625 -201.5276641845703 C 900.5634155273438 -202.1551055908203 900.78515625 -202.7626800537109 901.0795288085938 -203.3335723876953 L 901.0878295898438 -203.3498077392578 C 901.133544921875 -203.4375152587891 901.1824340820312 -203.5274810791016 901.23193359375 -203.6145324707031 L 901.2432861328125 -203.634033203125 C 901.2977905273438 -203.7293395996094 901.3486938476562 -203.8143157958984 901.4002685546875 -203.8962249755859 L 901.4036254882812 -203.9016265869141 C 901.6253662109375 -204.2539825439453 901.8777465820312 -204.5912017822266 902.153076171875 -204.9027557373047 L 902.1484985351562 -204.8976287841797 L 902.1588134765625 -204.9092864990234 L 902.160888671875 -204.9113922119141 L 902.1680908203125 -204.9195556640625 C 902.2203979492188 -204.9784851074219 902.2791137695312 -205.0420532226562 902.34765625 -205.1138763427734 L 902.3722534179688 -205.1397247314453 C 902.3803100585938 -205.1482696533203 902.3883666992188 -205.1568450927734 902.3966674804688 -205.1652069091797 L 902.3992309570312 -205.1678161621094 L 902.4017944335938 -205.1704711914062 C 902.4615478515625 -205.2325439453125 902.5245361328125 -205.2942199707031 902.5730590820312 -205.3413696289062 L 902.639404296875 -205.4045562744141 L 902.6442260742188 -205.4091796875 C 902.7093505859375 -205.4703674316406 902.7650756835938 -205.5214080810547 902.8169555664062 -205.5672454833984 C 902.8304443359375 -205.5792388916016 902.8434448242188 -205.5904388427734 902.8563842773438 -205.6016387939453 L 902.890625 -205.6314239501953 L 902.90185546875 -205.6410522460938 C 902.9609375 -205.6917419433594 903.0167236328125 -205.7396240234375 903.0729370117188 -205.7851409912109 C 903.0838012695312 -205.7938842773438 903.096435546875 -205.8036956787109 903.1090087890625 -205.8135223388672 L 903.1378173828125 -205.8361053466797 C 903.3406372070312 -205.9969940185547 903.5519409179688 -206.1480560302734 903.7669677734375 -206.2859191894531 L 903.8021850585938 -206.3087615966797 C 903.8278198242188 -206.3254241943359 903.8533935546875 -206.3421478271484 903.87939453125 -206.3580780029297 C 903.93017578125 -206.3895111083984 903.9801635742188 -206.4185028076172 904.0299072265625 -206.4474487304688 L 904.044677734375 -206.4560241699219 L 904.0545043945312 -206.4617614746094 C 904.0969848632812 -206.4865417480469 904.1394653320312 -206.5112915039062 904.1821899414062 -206.5355377197266 C 904.2348022460938 -206.5645599365234 904.2880249023438 -206.5929718017578 904.3413696289062 -206.6209716796875 C 904.3912963867188 -206.6471405029297 904.4417114257812 -206.6730804443359 904.4924926757812 -206.6983947753906 C 904.5438842773438 -206.7238464355469 904.5963134765625 -206.7495727539062 904.649169921875 -206.7743988037109 C 904.7047119140625 -206.8005218505859 904.760009765625 -206.8250427246094 904.8156127929688 -206.8496398925781 L 904.823486328125 -206.8531188964844 C 904.8709106445312 -206.8740997314453 904.9182739257812 -206.8950805664062 904.9661865234375 -206.9150390625 C 905.0223999023438 -206.9384613037109 905.0790405273438 -206.9602355957031 905.1356811523438 -206.9820556640625 L 905.1583251953125 -206.9907836914062 C 905.1773681640625 -206.9979858398438 905.198974609375 -207.0064392089844 905.2205810546875 -207.014892578125 C 905.24462890625 -207.0243072509766 905.2686767578125 -207.0337524414062 905.29296875 -207.0427093505859 C 905.4004516601562 -207.0816802978516 905.509521484375 -207.1185302734375 905.6146240234375 -207.1513519287109 C 905.6273803710938 -207.1553039550781 905.64111328125 -207.1591186523438 905.6548461914062 -207.1629943847656 C 905.672119140625 -207.1678771972656 905.689453125 -207.1727905273438 905.706787109375 -207.1780242919922 C 905.7806396484375 -207.2000274658203 905.8690795898438 -207.2259979248047 905.9571533203125 -207.2490539550781 C 905.9857788085938 -207.2566223144531 906.0136108398438 -207.2632141113281 906.0413818359375 -207.2698211669922 L 906.0892333984375 -207.2813110351562 C 906.1608276367188 -207.2986145019531 906.233154296875 -207.3158111572266 906.3064575195312 -207.3314208984375 C 906.3531494140625 -207.3413238525391 906.4004516601562 -207.3504180908203 906.4483032226562 -207.3595428466797 C 906.5205078125 -207.3734436035156 906.5924682617188 -207.3863220214844 906.6649169921875 -207.3983306884766 C 906.710693359375 -207.4056549072266 906.7595825195312 -207.4132232666016 906.8090209960938 -207.4203491210938 C 906.875732421875 -207.4300231933594 906.9478759765625 -207.4391632080078 907.0298461914062 -207.4483032226562 L 907.0612182617188 -207.451904296875 C 907.0984497070312 -207.4562072753906 907.1356811523438 -207.4605102539062 907.17333984375 -207.4642639160156 C 907.2408447265625 -207.4706115722656 907.3168334960938 -207.4763336181641 907.4171142578125 -207.4825592041016 L 907.4679565429688 -207.4860534667969 C 907.4912109375 -207.4877166748047 907.5144653320312 -207.4894409179688 907.5379638671875 -207.4905395507812 C 907.673095703125 -207.4969024658203 907.7943115234375 -207.5 907.9088134765625 -207.5 C 908.0237426757812 -207.5 908.1456909179688 -207.4969024658203 908.2816772460938 -207.4905395507812 C 908.3046875 -207.4894714355469 908.3270874023438 -207.4877624511719 908.3495483398438 -207.4861297607422 C 908.3676147460938 -207.4848022460938 908.3856811523438 -207.4835052490234 908.40380859375 -207.4823455810547 C 908.4725341796875 -207.4780731201172 908.56201171875 -207.4721221923828 908.6487426757812 -207.4637145996094 C 908.690673828125 -207.4597625732422 908.7310791015625 -207.4549865722656 908.7713012695312 -207.4502716064453 L 908.7914428710938 -207.4479217529297 C 908.8732299804688 -207.4386444091797 908.9453735351562 -207.4295043945312 909.0135498046875 -207.4197845458984 C 909.0623779296875 -207.4126739501953 909.11279296875 -207.4046936035156 909.1630249023438 -207.3965148925781 C 909.2318115234375 -207.3851623535156 909.3014526367188 -207.3728179931641 909.3707275390625 -207.359375 C 909.4212036132812 -207.3495330810547 909.4720458984375 -207.3396453857422 909.5227661132812 -207.3288726806641 C 909.5903930664062 -207.3143310546875 909.6586303710938 -207.2982025146484 909.72705078125 -207.2816925048828 L 909.7677612304688 -207.2718048095703 C 909.802734375 -207.2633361816406 909.8378295898438 -207.2549133300781 909.8723754882812 -207.2457427978516 C 909.94287109375 -207.2272033691406 910.0119018554688 -207.2068939208984 910.080810546875 -207.1866607666016 L 910.1343994140625 -207.1711120605469 C 910.16259765625 -207.1629943847656 910.1907958984375 -207.1549224853516 910.2188110351562 -207.1462097167969 C 910.2987670898438 -207.1210327148438 910.3800659179688 -207.0929718017578 910.4769897460938 -207.0587615966797 C 910.5435180664062 -207.0350036621094 910.6107788085938 -207.0096130371094 910.6776733398438 -206.9835662841797 L 910.6785888671875 -206.9832153320312 L 910.683837890625 -206.981201171875 C 910.7448120117188 -206.957763671875 910.8053588867188 -206.9345245361328 910.8657836914062 -206.9095916748047 C 910.9050903320312 -206.8930969238281 910.9465942382812 -206.8744354248047 910.98828125 -206.8557739257812 L 911.0338745117188 -206.8354187011719 L 911.0570678710938 -206.8251037597656 C 911.0977783203125 -206.8069915771484 911.1386108398438 -206.7888946533203 911.1788330078125 -206.7698669433594 C 911.2386474609375 -206.7415924072266 911.2974243164062 -206.7123260498047 911.356201171875 -206.6826782226562 L 911.3687744140625 -206.6763458251953 C 911.4074096679688 -206.6568298339844 911.4462280273438 -206.6372833251953 911.4844970703125 -206.6169891357422 C 911.5424194335938 -206.5865783691406 911.6015625 -206.5543060302734 911.6674194335938 -206.5171813964844 C 911.7023315429688 -206.4975433349609 911.7362670898438 -206.4778442382812 911.770263671875 -206.4581298828125 L 911.7811279296875 -206.4518127441406 C 911.8436889648438 -206.4152221679688 911.9071044921875 -206.3770446777344 911.97021484375 -206.3378448486328 C 911.99853515625 -206.3201904296875 912.0269775390625 -206.3017425537109 912.0554809570312 -206.2832946777344 C 912.138427734375 -206.2300109863281 912.20361328125 -206.1869659423828 912.26220703125 -206.1468200683594 L 912.2742919921875 -206.1380310058594 L 912.2928466796875 -206.1246337890625 L 912.2952880859375 -206.1228942871094 L 912.2977294921875 -206.1211853027344 C 912.7256469726562 -205.8229217529297 913.1257934570312 -205.4782104492188 913.4871826171875 -205.0966491699219 L 913.4991455078125 -205.083984375 L 913.4993896484375 -205.0837860107422 C 914.7607421875 -203.7447204589844 915.5001831054688 -201.9988403320312 915.58203125 -200.1656341552734 L 915.628173828125 -199.1314544677734 L 916.4095458984375 -199.8105621337891 C 917.3933715820312 -200.6656646728516 918.6524047851562 -201.1365966796875 919.95458984375 -201.1365966796875 C 922.9371337890625 -201.1365966796875 925.3636474609375 -198.7098846435547 925.3636474609375 -195.72705078125 C 925.3636474609375 -195.7186737060547 925.3632202148438 -195.7103576660156 925.3629150390625 -195.7020721435547 C 925.3623046875 -195.6851348876953 925.3617553710938 -195.6682281494141 925.361572265625 -195.6512451171875 L 925.3560180664062 -195.0504913330078 L 925.94775390625 -195.1540832519531 C 926.2252807617188 -195.2026519775391 926.5028076171875 -195.2272796630859 926.772705078125 -195.2272796630859 C 927.172607421875 -195.2272796630859 927.5703125 -195.1772003173828 927.9547119140625 -195.0784606933594 C 930.0420532226562 -194.5415802001953 931.5 -192.6589202880859 931.5 -190.5002288818359 C 931.5 -188.2640380859375 929.912841796875 -186.3162994384766 927.7261352539062 -185.8686981201172 C 927.6473388671875 -185.8527221679688 927.5687866210938 -185.8387145996094 927.4935913085938 -185.8272247314453 C 927.383544921875 -185.8105010986328 927.263916015625 -185.7975006103516 927.1281127929688 -185.7875213623047 L 927.0006103515625 -185.7781372070312 C 926.9244384765625 -185.7745361328125 926.8483276367188 -185.7727355957031 926.772705078125 -185.7727355957031 Z" stroke="none"/>
      <path d="M 926.772705078125 -186.2727355957031 C 926.8380126953125 -186.2727355957031 926.9036865234375 -186.2742309570312 926.9705810546875 -186.2772827148438 L 927.0914916992188 -186.2861785888672 C 927.2142333984375 -186.2951965332031 927.3212890625 -186.3067932128906 927.418212890625 -186.3215179443359 C 927.4854125976562 -186.3317718505859 927.555908203125 -186.3443450927734 927.6259155273438 -186.3585510253906 C 929.5809936523438 -186.7587280273438 931 -188.5004730224609 931 -190.5002288818359 C 931 -192.4306640625 929.6964721679688 -194.1141967773438 927.830322265625 -194.5941925048828 C 927.4865112304688 -194.6824951171875 927.1306762695312 -194.7272796630859 926.772705078125 -194.7272796630859 C 926.5316162109375 -194.7272796630859 926.2830810546875 -194.7051696777344 926.0339965820312 -194.6615753173828 L 924.8504028320312 -194.4543914794922 L 924.8616333007812 -195.6559143066406 C 924.86181640625 -195.6774597167969 924.8624877929688 -195.6989135742188 924.86328125 -195.7204132080078 L 924.8636474609375 -195.7315368652344 C 924.8612060546875 -198.4366302490234 922.6599731445312 -200.6365966796875 919.95458984375 -200.6365966796875 C 918.7728881835938 -200.6365966796875 917.6304321289062 -200.2092132568359 916.737548828125 -199.4331817626953 L 915.1748657226562 -198.0749816894531 L 915.08251953125 -200.1433410644531 C 915.0061645507812 -201.8540954589844 914.3170166015625 -203.4836273193359 913.1412963867188 -204.7347259521484 L 913.1241455078125 -204.7528381347656 C 912.7861328125 -205.1097717285156 912.411865234375 -205.4321441650391 912.0117797851562 -205.7109832763672 L 912.0068969726562 -205.7144012451172 L 912.0020141601562 -205.7178955078125 L 911.9793701171875 -205.7342834472656 L 911.9744873046875 -205.7378692626953 C 911.9213256835938 -205.7741851806641 911.8613891601562 -205.8136749267578 911.7836303710938 -205.8636169433594 C 911.757568359375 -205.8805084228516 911.7315063476562 -205.8974304199219 911.706298828125 -205.9131622314453 C 911.6470336914062 -205.9500122070312 911.58740234375 -205.9858703613281 911.5302734375 -206.0193023681641 L 911.519287109375 -206.0256500244141 C 911.4873046875 -206.0442352294922 911.455322265625 -206.0628051757812 911.4218139648438 -206.0816497802734 C 911.3604125976562 -206.1162567138672 911.3056640625 -206.1461639404297 911.2500610351562 -206.1753234863281 C 911.21484375 -206.1940155029297 911.1790771484375 -206.2119903564453 911.1434326171875 -206.22998046875 L 911.1310424804688 -206.2362670898438 C 911.0760498046875 -206.2639923095703 911.0211181640625 -206.2913665771484 910.9649658203125 -206.3179321289062 C 910.9282836914062 -206.3352661132812 910.89111328125 -206.3517150878906 910.8539428710938 -206.3681945800781 L 910.8306884765625 -206.3785705566406 L 910.783935546875 -206.3994445800781 C 910.7470092773438 -206.4159851074219 910.710205078125 -206.4325714111328 910.6729125976562 -206.4482727050781 C 910.6168823242188 -206.4713287353516 910.560791015625 -206.4928131103516 910.5043334960938 -206.5145416259766 L 910.4981689453125 -206.5168914794922 L 910.4963989257812 -206.5176086425781 C 910.433837890625 -206.5419311523438 910.3710327148438 -206.5656890869141 910.3104858398438 -206.5872802734375 C 910.2184448242188 -206.6197814941406 910.141845703125 -206.646240234375 910.0702514648438 -206.6687622070312 C 910.045654296875 -206.6764221191406 910.0208740234375 -206.6834869384766 909.9960327148438 -206.6906280517578 L 909.93994140625 -206.7069091796875 C 909.8756103515625 -206.7257995605469 909.8111572265625 -206.7448577880859 909.7444458007812 -206.7624053955078 C 909.7133178710938 -206.7706451416016 909.6817626953125 -206.7781829833984 909.6502685546875 -206.7858123779297 L 909.6097412109375 -206.7956390380859 C 909.54541015625 -206.8111724853516 909.4812622070312 -206.8263702392578 909.4189453125 -206.8397827148438 C 909.3709716796875 -206.8499603271484 909.3228149414062 -206.8592987060547 909.2754516601562 -206.8685302734375 C 909.2107543945312 -206.8810729980469 909.145751953125 -206.8926086425781 909.0826416015625 -206.9030303955078 C 909.0352172851562 -206.9107513427734 908.9876098632812 -206.9182891845703 908.9429931640625 -206.9247894287109 C 908.879638671875 -206.9338226318359 908.8121337890625 -206.9423675537109 908.7335205078125 -206.9512939453125 L 908.713134765625 -206.9536743164062 C 908.6766357421875 -206.9579315185547 908.64013671875 -206.9623107910156 908.6004638671875 -206.9660339355469 C 908.5213623046875 -206.9737243652344 908.4374389648438 -206.9792938232422 908.3723754882812 -206.9833374023438 C 908.3525390625 -206.9845886230469 908.3328247070312 -206.9860229492188 908.3131103515625 -206.9874572753906 C 908.2950439453125 -206.9887847900391 908.2770385742188 -206.9902191162109 908.25830078125 -206.9910736083984 C 908.1301879882812 -206.9970703125 908.015869140625 -207 907.9088134765625 -207 C 907.80224609375 -207 907.6886596679688 -206.9970855712891 907.5614624023438 -206.9910888671875 C 907.5420532226562 -206.9901733398438 907.5228271484375 -206.9887084960938 907.503662109375 -206.9873352050781 L 907.4481811523438 -206.9835205078125 C 907.3546752929688 -206.9777069091797 907.2841796875 -206.9724426269531 907.2201538085938 -206.9664611816406 C 907.18603515625 -206.9630279541016 907.15234375 -206.9591064453125 907.1185913085938 -206.9552001953125 L 907.0852661132812 -206.9513702392578 C 907.0087890625 -206.9428405761719 906.9420166015625 -206.9344024658203 906.8804321289062 -206.9254760742188 C 906.8345336914062 -206.9188537597656 906.7890625 -206.9118041992188 906.74365234375 -206.9045715332031 C 906.6765747070312 -206.8934020996094 906.6098022460938 -206.8814697265625 906.5419921875 -206.868408203125 C 906.49755859375 -206.8599243164062 906.45361328125 -206.8515167236328 906.4107055664062 -206.8424072265625 C 906.3418579101562 -206.8277435302734 906.2738647460938 -206.8115386962891 906.207763671875 -206.7955627441406 L 906.1572265625 -206.7834167480469 C 906.1334838867188 -206.7777709960938 906.1096801757812 -206.7722015380859 906.0838623046875 -206.765380859375 C 906.0029907226562 -206.7442016601562 905.9194946289062 -206.7196960449219 905.8508911132812 -206.6992340087891 C 905.830810546875 -206.6931915283203 905.810791015625 -206.6874847412109 905.790771484375 -206.6818237304688 C 905.7810668945312 -206.6790924072266 905.7714233398438 -206.6764678955078 905.7636108398438 -206.6740417480469 C 905.66650390625 -206.6437683105469 905.565673828125 -206.6096801757812 905.4637451171875 -206.5727691650391 C 905.4432983398438 -206.5652008056641 905.423095703125 -206.5572052001953 905.40283203125 -206.5492706298828 C 905.3804321289062 -206.5405120849609 905.3579711914062 -206.5317535400391 905.33544921875 -206.523193359375 L 905.3154907226562 -206.5154876708984 C 905.2630615234375 -206.4953002929688 905.2106323242188 -206.4752349853516 905.1585083007812 -206.4534912109375 C 905.1138916015625 -206.4349060058594 905.0697631835938 -206.4153442382812 905.0255737304688 -206.3957977294922 L 905.0180053710938 -206.3924560546875 C 904.9660034179688 -206.3694152832031 904.9141235351562 -206.3464813232422 904.861572265625 -206.3217620849609 C 904.8119506835938 -206.2984619140625 904.7627563476562 -206.2742919921875 904.7154541015625 -206.2508544921875 C 904.667724609375 -206.2270812988281 904.6203002929688 -206.2026672363281 904.5737915039062 -206.1782989501953 C 904.5245971679688 -206.1524505615234 904.4754638671875 -206.1262359619141 904.4268188476562 -206.0994567871094 C 904.3865356445312 -206.0765686035156 904.346435546875 -206.0532073974609 904.3063354492188 -206.0298004150391 L 904.296142578125 -206.0238494873047 L 904.28125 -206.0152130126953 C 904.2354736328125 -205.9886016845703 904.1895141601562 -205.9619903564453 904.1408081054688 -205.9318389892578 C 904.1185302734375 -205.918212890625 904.0966796875 -205.9038543701172 904.0748291015625 -205.8896026611328 L 904.036865234375 -205.8650207519531 C 903.8359375 -205.7361602783203 903.6383056640625 -205.5949096679688 903.4475708007812 -205.4435729980469 L 903.4165649414062 -205.4193115234375 C 903.4058837890625 -205.4109497070312 903.3951416015625 -205.4026184082031 903.3876342773438 -205.3966217041016 C 903.3369750976562 -205.3555908203125 903.2838134765625 -205.3099517822266 903.2275390625 -205.2616271972656 L 903.21630859375 -205.2520294189453 L 903.1832885742188 -205.2232818603516 C 903.1719970703125 -205.2135314941406 903.16064453125 -205.2037963867188 903.1481323242188 -205.1926727294922 C 903.1009521484375 -205.1509552001953 903.0496826171875 -205.1040191650391 902.987060546875 -205.045166015625 L 902.984619140625 -205.0428314208984 L 902.9201049804688 -204.9813995361328 C 902.8745727539062 -204.9371643066406 902.8161010742188 -204.8798675537109 902.761962890625 -204.8236541748047 L 902.756591796875 -204.8180541992188 L 902.751708984375 -204.8131408691406 C 902.7462768554688 -204.8076629638672 902.7410278320312 -204.8019714355469 902.7357177734375 -204.7963562011719 C 902.7263793945312 -204.7864532470703 902.7169799804688 -204.7765655517578 902.70751953125 -204.7667541503906 C 902.6439819335938 -204.7001342773438 902.58984375 -204.6415557861328 902.5421142578125 -204.5877380371094 L 902.5276489257812 -204.5714111328125 L 902.5267333984375 -204.5704498291016 C 902.5263061523438 -204.5699920654297 902.52587890625 -204.5695343017578 902.5254516601562 -204.5690765380859 C 902.2688598632812 -204.2784118652344 902.0335693359375 -203.9639282226562 901.8275146484375 -203.6364593505859 L 901.8234252929688 -203.6299591064453 C 901.775634765625 -203.5540008544922 901.728271484375 -203.4748840332031 901.6785888671875 -203.3880615234375 L 901.67724609375 -203.3856658935547 L 901.6758422851562 -203.3832855224609 L 901.6644287109375 -203.3635864257812 C 901.6190795898438 -203.2836761474609 901.57421875 -203.2011413574219 901.5309448242188 -203.1181488037109 L 901.52392578125 -203.1044158935547 C 901.24951171875 -202.572265625 901.0426635742188 -202.0060119628906 900.9091186523438 -201.4211730957031 L 900.7421264648438 -200.6300048828125 L 899.9467163085938 -200.6300048828125 C 899.71142578125 -200.622314453125 899.4757080078125 -200.6032867431641 899.245849609375 -200.5733795166016 L 899.223876953125 -200.5705413818359 C 899.11328125 -200.5558929443359 899.0037231445312 -200.5387573242188 898.8978881835938 -200.5195159912109 L 898.8815307617188 -200.5166015625 L 898.88134765625 -200.5165710449219 C 898.7723388671875 -200.4967193603516 898.6624145507812 -200.4739227294922 898.5543212890625 -200.4487609863281 L 898.5281372070312 -200.4427947998047 C 898.4293212890625 -200.4194946289062 898.3300170898438 -200.3938598632812 898.2323608398438 -200.3663940429688 L 898.2282104492188 -200.3650665283203 L 898.21240234375 -200.3605804443359 C 898.1044921875 -200.3299102783203 897.9976196289062 -200.2968444824219 897.8946533203125 -200.2622680664062 C 897.8858032226562 -200.2592010498047 897.8772583007812 -200.25634765625 897.86865234375 -200.2535858154297 C 897.7673950195312 -200.2190551757812 897.6655883789062 -200.1818237304688 897.56787109375 -200.1436004638672 L 897.5546875 -200.1384124755859 C 897.4552001953125 -200.0992431640625 897.3546752929688 -200.0570678710938 897.2557983398438 -200.0130157470703 C 897.2467041015625 -200.0088195800781 897.2376708984375 -200.0047302246094 897.2284545898438 -200.0007171630859 C 897.1309204101562 -199.9564514160156 897.0352172851562 -199.9106292724609 896.9437255859375 -199.8644256591797 L 896.9383544921875 -199.8617248535156 C 896.9330444335938 -199.8589477539062 896.9276733398438 -199.8561859130859 896.9222412109375 -199.8534698486328 C 896.8235473632812 -199.8029022216797 896.7352294921875 -199.7554779052734 896.6526489257812 -199.7086639404297 C 896.6409301757812 -199.7017364501953 896.6293334960938 -199.6949462890625 896.6174926757812 -199.6882476806641 C 896.52783203125 -199.6369018554688 896.4405517578125 -199.5845794677734 896.35791015625 -199.5326843261719 L 896.3328247070312 -199.5164489746094 L 896.326171875 -199.51220703125 C 896.2415161132812 -199.4581146240234 896.1577758789062 -199.4022827148438 896.0772094726562 -199.3462066650391 L 896.0625610351562 -199.3358306884766 L 896.0401611328125 -199.3199615478516 C 895.9515991210938 -199.2571868896484 895.87451171875 -199.2003479003906 895.80126953125 -199.1437072753906 L 895.7808227539062 -199.1275634765625 L 895.7666625976562 -199.1163330078125 L 895.7639770507812 -199.1142272949219 L 895.7612915039062 -199.1121215820312 C 895.6854248046875 -199.0529937744141 895.6110229492188 -198.9926147460938 895.5406494140625 -198.9330902099609 L 895.5189208984375 -198.9142761230469 L 895.4951171875 -198.8935546875 C 895.418212890625 -198.8273620605469 895.3511962890625 -198.7674865722656 895.28857421875 -198.7089538574219 C 895.2791748046875 -198.7002258300781 895.2699584960938 -198.6912994384766 895.2606811523438 -198.6824035644531 L 895.239013671875 -198.6616516113281 C 895.16845703125 -198.5948028564453 895.1056518554688 -198.5332336425781 895.0487670898438 -198.4751739501953 C 895.0403442382812 -198.4665679931641 895.0321044921875 -198.4578399658203 895.0238647460938 -198.4491577148438 L 894.9945068359375 -198.4183502197266 C 894.9248046875 -198.3454742431641 894.8690185546875 -198.2853546142578 894.8190307617188 -198.2294311523438 C 894.8093872070312 -198.2183837890625 894.7997436523438 -198.2071838378906 894.7901000976562 -198.1959381103516 L 894.7608032226562 -198.1620483398438 C 894.7116088867188 -198.1054382324219 894.654052734375 -198.0385131835938 894.5999145507812 -197.9714660644531 L 894.5977783203125 -197.9687652587891 L 894.5955200195312 -197.9660949707031 C 894.584228515625 -197.9522705078125 894.5733642578125 -197.9380645751953 894.5625 -197.9239654541016 L 894.5426635742188 -197.8984527587891 L 894.5410766601562 -197.8964385986328 L 894.5394897460938 -197.8944244384766 C 894.4905395507812 -197.8323059082031 894.4386596679688 -197.7659759521484 894.3925170898438 -197.7032928466797 C 894.3805541992188 -197.68701171875 894.368896484375 -197.6703033447266 894.3572387695312 -197.6536560058594 L 894.3323364257812 -197.6182403564453 L 894.3307495117188 -197.6159973144531 L 894.3291015625 -197.61376953125 C 894.2915649414062 -197.5613555908203 894.2427368164062 -197.4926300048828 894.198486328125 -197.4257965087891 L 894.1959838867188 -197.4220886230469 L 894.1935424804688 -197.4184112548828 C 894.1817626953125 -197.4009704589844 894.1705932617188 -197.383056640625 894.1593017578125 -197.3651733398438 L 894.1350708007812 -197.3270416259766 C 894.0891723632812 -197.2556610107422 894.0513305664062 -197.1964874267578 894.0172119140625 -197.1391754150391 L 894.0150756835938 -197.1355743408203 L 894.012939453125 -197.1319885253906 C 894.002197265625 -197.1142578125 893.9920654296875 -197.0961303710938 893.9818115234375 -197.0780944824219 C 893.9721069335938 -197.0609436035156 893.9623413085938 -197.0438232421875 893.9547119140625 -197.0305786132812 L 893.9400634765625 -197.0050964355469 C 893.9088134765625 -196.9505615234375 893.87744140625 -196.8961486816406 893.8475341796875 -196.8407440185547 C 893.836181640625 -196.8192596435547 893.8253173828125 -196.7974853515625 893.8143310546875 -196.7757415771484 L 893.786376953125 -196.7205963134766 L 893.7726440429688 -196.6939239501953 C 893.743896484375 -196.6379547119141 893.7167358398438 -196.5850830078125 893.694091796875 -196.5371704101562 L 893.69287109375 -196.5346221923828 L 893.691650390625 -196.5320739746094 C 893.6787109375 -196.5050354003906 893.6666870117188 -196.4775543212891 893.6544799804688 -196.4501190185547 L 893.634521484375 -196.4052276611328 L 893.61962890625 -196.3722991943359 C 893.5971069335938 -196.3226470947266 893.5745239257812 -196.2731628417969 893.5535278320312 -196.2226409912109 L 893.5521850585938 -196.2193145751953 L 893.55078125 -196.2159729003906 C 893.5394287109375 -196.1892242431641 893.5291137695312 -196.1619720458984 893.5186767578125 -196.1348571777344 L 893.4974365234375 -196.0802001953125 L 893.4806518554688 -196.0377044677734 C 893.4627685546875 -195.9925231933594 893.4447631835938 -195.9474334716797 893.4270629882812 -195.8980865478516 C 893.4158935546875 -195.8673553466797 893.4056396484375 -195.836181640625 893.3953247070312 -195.8050689697266 L 893.3758544921875 -195.7468872070312 L 893.3557739257812 -195.6877136230469 C 893.3421630859375 -195.647705078125 893.3284912109375 -195.6078033447266 893.317138671875 -195.5712432861328 C 893.3062133789062 -195.5355529785156 893.2964477539062 -195.4993286132812 893.2865600585938 -195.4632263183594 L 893.2711181640625 -195.4070892333984 L 893.2701416015625 -195.4035034179688 L 893.2691040039062 -195.3999176025391 L 893.257568359375 -195.3598937988281 C 893.245361328125 -195.3173828125 893.2330322265625 -195.2750549316406 893.2218017578125 -195.2321472167969 C 893.2134399414062 -195.1985626220703 893.2059936523438 -195.1646270751953 893.1983642578125 -195.130615234375 C 893.1925048828125 -195.1045684814453 893.1867065429688 -195.0784759521484 893.181396484375 -195.0556945800781 L 893.166259765625 -194.9906768798828 C 893.15869140625 -194.9584045410156 893.15087890625 -194.9261016845703 893.1444091796875 -194.8933563232422 L 893.1436767578125 -194.8896942138672 L 893.1428833007812 -194.8860321044922 C 893.13427734375 -194.8440246582031 893.1272583007812 -194.8015747070312 893.1200561523438 -194.7591552734375 L 893.1100463867188 -194.7003479003906 C 893.1058959960938 -194.6768646240234 893.1016235351562 -194.6534729003906 893.0973510742188 -194.6300811767578 C 893.0918579101562 -194.6002807617188 893.086181640625 -194.5705261230469 893.0816040039062 -194.5396575927734 C 893.0745849609375 -194.4931488037109 893.069091796875 -194.4460144042969 893.0635375976562 -194.3989410400391 L 893.0557861328125 -194.3346710205078 C 893.0529174804688 -194.3111724853516 893.0498046875 -194.2877349853516 893.0466918945312 -194.2642974853516 C 893.043212890625 -194.2379608154297 893.03955078125 -194.2116241455078 893.0368041992188 -194.1840209960938 C 893.031005859375 -194.1257019042969 893.026611328125 -194.0605621337891 893.02197265625 -193.9916229248047 L 893.0192260742188 -193.9512329101562 C 893.0175170898438 -193.9250335693359 893.015380859375 -193.8990020751953 893.01318359375 -193.8729553222656 C 893.0118408203125 -193.8567504882812 893.01025390625 -193.8405609130859 893.0093383789062 -193.8214416503906 C 893.003173828125 -193.6984710693359 893 -193.5751037597656 893 -193.4547729492188 C 893 -189.4945831298828 896.2216796875 -186.2727355957031 900.1817626953125 -186.2727355957031 L 910.664794921875 -186.2727355957031 L 917.45458984375 -186.2727355957031 C 917.54150390625 -186.2727355957031 917.63427734375 -186.2761535644531 917.7218627929688 -186.2796630859375 L 917.7418823242188 -186.2804565429688 L 917.7618408203125 -186.2804565429688 L 926.490966796875 -186.2804565429688 L 926.5167236328125 -186.2804565429688 L 926.5424194335938 -186.2791442871094 C 926.5499877929688 -186.2787475585938 926.5574340820312 -186.2782745361328 926.5648803710938 -186.2777404785156 C 926.6334228515625 -186.2744293212891 926.7033081054688 -186.2727355957031 926.772705078125 -186.2727355957031 M 926.772705078125 -185.2727355957031 C 926.6827392578125 -185.2727355957031 926.5928955078125 -185.2750091552734 926.503662109375 -185.2795562744141 C 926.499267578125 -185.2797698974609 926.4952392578125 -185.2802429199219 926.490966796875 -185.2804565429688 L 917.7618408203125 -185.2804565429688 C 917.6595458984375 -185.2763671875 917.5574951171875 -185.2727355957031 917.45458984375 -185.2727355957031 L 910.664794921875 -185.2727355957031 L 900.1817626953125 -185.2727355957031 L 900.181640625 -185.2727355957031 C 895.6630859375 -185.2727355957031 892 -188.9359130859375 892 -193.4547729492188 C 892 -193.5947875976562 892.003662109375 -193.7338714599609 892.0106201171875 -193.871826171875 C 892.012939453125 -193.9204559326172 892.0181884765625 -193.9681854248047 892.0213623046875 -194.0165863037109 C 892.0274658203125 -194.1056823730469 892.032958984375 -194.1949920654297 892.041748046875 -194.2831878662109 C 892.0474853515625 -194.3413696289062 892.05615234375 -194.3986358642578 892.063232421875 -194.4563751220703 C 892.07275390625 -194.5338745117188 892.0811767578125 -194.6120452880859 892.0927734375 -194.6888580322266 C 892.10205078125 -194.7506713867188 892.1142578125 -194.8113555908203 892.125 -194.8727264404297 C 892.137451171875 -194.9445495605469 892.1488037109375 -195.0166015625 892.1634521484375 -195.0877380371094 C 892.1761474609375 -195.1518249511719 892.1920166015625 -195.2147674560547 892.2064208984375 -195.2779388427734 C 892.2220458984375 -195.345458984375 892.2362060546875 -195.4131927490234 892.2529296875 -195.4797668457031 C 892.27001953125 -195.5454711914062 892.2890625 -195.6100006103516 892.3077392578125 -195.6752319335938 C 892.3251953125 -195.7379608154297 892.341796875 -195.8013763427734 892.36083984375 -195.8636474609375 C 892.3818359375 -195.9313507080078 892.4052734375 -195.9979553222656 892.4278564453125 -196.0652313232422 C 892.447509765625 -196.1231842041016 892.4661865234375 -196.1818237304688 892.487060546875 -196.2393188476562 C 892.5120849609375 -196.30908203125 892.539794921875 -196.3775024414062 892.56689453125 -196.4463653564453 C 892.5877685546875 -196.4995422363281 892.607666015625 -196.5534210205078 892.6300048828125 -196.6061401367188 C 892.6595458984375 -196.6772766113281 892.6915283203125 -196.746826171875 892.72314453125 -196.8168334960938 C 892.7452392578125 -196.8661346435547 892.7666015625 -196.9156799316406 892.7899169921875 -196.9643249511719 C 892.8238525390625 -197.0361480712891 892.8603515625 -197.1063690185547 892.8966064453125 -197.1770477294922 C 892.9197998046875 -197.2222747802734 892.942138671875 -197.2679443359375 892.9659423828125 -197.3127288818359 C 893.0050048828125 -197.3852386474609 893.046142578125 -197.4563598632812 893.0870361328125 -197.5277404785156 C 893.1107177734375 -197.5686492919922 893.1334228515625 -197.6102294921875 893.157958984375 -197.6506805419922 C 893.20166015625 -197.7240905761719 893.2476806640625 -197.7959289550781 893.2938232421875 -197.8677215576172 C 893.3175048828125 -197.9047698974609 893.3404541015625 -197.9420318603516 893.3648681640625 -197.9781799316406 C 893.413818359375 -198.0520477294922 893.4647216796875 -198.1243286132812 893.516357421875 -198.1963653564453 C 893.53955078125 -198.2290954589844 893.5625 -198.2625122070312 893.586181640625 -198.2947845458984 C 893.6407470703125 -198.3688812255859 893.697265625 -198.4413604736328 893.7542724609375 -198.5136413574219 C 893.776611328125 -198.5422668457031 893.7987060546875 -198.5713653564453 893.82177734375 -198.5995483398438 C 893.881591796875 -198.6736450195312 893.943603515625 -198.7461547851562 894.0059814453125 -198.8179473876953 C 894.0277099609375 -198.8429565429688 894.049072265625 -198.8681793212891 894.0706787109375 -198.8927307128906 C 894.1363525390625 -198.9663543701172 894.20361328125 -199.0381927490234 894.2718505859375 -199.1095428466797 C 894.292236328125 -199.1306915283203 894.312255859375 -199.1522674560547 894.3328857421875 -199.1734161376953 C 894.4041748046875 -199.2461395263672 894.47705078125 -199.3172760009766 894.5511474609375 -199.3874969482422 C 894.5699462890625 -199.4054565429688 894.588623046875 -199.4236450195312 894.607666015625 -199.4413604736328 C 894.684326171875 -199.5129547119141 894.762939453125 -199.5827331542969 894.8426513671875 -199.6513671875 C 894.8599853515625 -199.6663818359375 894.8768310546875 -199.6813507080078 894.894287109375 -199.6961364746094 C 894.97705078125 -199.7661437988281 895.0611572265625 -199.8343200683594 895.1466064453125 -199.9009094238281 C 895.161865234375 -199.9129638671875 895.1771240234375 -199.9252319335938 895.1925048828125 -199.9370422363281 C 895.2806396484375 -200.0052337646484 895.3709716796875 -200.0713653564453 895.4620361328125 -200.1358947753906 C 895.4752197265625 -200.1452178955078 895.4886474609375 -200.1547698974609 895.5018310546875 -200.1640930175781 C 895.595703125 -200.2295379638672 895.691162109375 -200.2931823730469 895.7879638671875 -200.3549957275391 C 895.79931640625 -200.3622894287109 895.8106689453125 -200.3695373535156 895.82177734375 -200.3768310546875 C 895.921142578125 -200.4393157958984 896.0218505859375 -200.4995574951172 896.1239013671875 -200.5579681396484 C 896.1336669921875 -200.5634002685547 896.1429443359375 -200.5691070556641 896.1527099609375 -200.5747833251953 C 896.2567138671875 -200.6338806152344 896.3626708984375 -200.6904449462891 896.4697265625 -200.7452392578125 C 896.4775390625 -200.7490997314453 896.4849853515625 -200.7531890869141 896.492919921875 -200.7570495605469 C 896.602294921875 -200.8122863769531 896.7127685546875 -200.864990234375 896.8248291015625 -200.9156951904297 C 896.8309326171875 -200.9181823730469 896.8365478515625 -200.9209289550781 896.842529296875 -200.9236450195312 C 896.95654296875 -200.9745483398438 897.0716552734375 -201.02294921875 897.188232421875 -201.0688629150391 L 897.2015380859375 -201.0740966796875 C 897.319580078125 -201.1202392578125 897.4390869140625 -201.1638641357422 897.5596923828125 -201.2047729492188 C 897.5628662109375 -201.2056884765625 897.565673828125 -201.2065887451172 897.56884765625 -201.2077331542969 C 897.69091796875 -201.2488708496094 897.8143310546875 -201.2870483398438 897.9390869140625 -201.3224945068359 L 897.944091796875 -201.3240966796875 C 898.0699462890625 -201.3597869873047 898.19677734375 -201.3925018310547 898.3250732421875 -201.4222869873047 L 898.32763671875 -201.4227294921875 C 898.45654296875 -201.4527282714844 898.5863037109375 -201.4795379638672 898.717529296875 -201.503173828125 L 898.7191162109375 -201.50341796875 C 898.8504638671875 -201.5272827148438 898.98291015625 -201.5477294921875 899.1165771484375 -201.5650177001953 L 899.1168212890625 -201.5650177001953 C 899.384033203125 -201.5997772216797 899.6556396484375 -201.62158203125 899.930908203125 -201.6300048828125 L 899.93115234375 -201.6300048828125 L 899.9322509765625 -201.6352233886719 C 900.08642578125 -202.3136291503906 900.3243408203125 -202.9600219726562 900.6351318359375 -203.5627288818359 L 900.6429443359375 -203.5779571533203 C 900.6927490234375 -203.6736450195312 900.7440185546875 -203.7679595947266 900.7972412109375 -203.8616027832031 L 900.8106689453125 -203.884765625 C 900.8642578125 -203.9784088134766 900.9195556640625 -204.0711364746094 900.97705078125 -204.1625061035156 L 900.979736328125 -204.1668090820312 C 901.21728515625 -204.5443267822266 901.484375 -204.9011383056641 901.7784423828125 -205.2338714599609 C 901.7838134765625 -205.2397766113281 901.78857421875 -205.2456970214844 901.7940673828125 -205.2513732910156 C 901.8565673828125 -205.3218231201172 901.9208984375 -205.3909149169922 901.9859619140625 -205.4590911865234 C 902.004638671875 -205.4783935546875 902.022705078125 -205.4981842041016 902.0416259765625 -205.5172729492188 C 902.10205078125 -205.5800170898438 902.1640625 -205.6411437988281 902.2265625 -205.7018280029297 C 902.2509765625 -205.7250061035156 902.2750244140625 -205.7479553222656 902.299072265625 -205.7709045410156 C 902.3607177734375 -205.8288726806641 902.4224853515625 -205.8859100341797 902.4857177734375 -205.9418182373047 C 902.5118408203125 -205.9649963378906 902.5384521484375 -205.9875030517578 902.5645751953125 -206.0104675292969 C 902.628662109375 -206.0654449462891 902.6925048828125 -206.1204528808594 902.7581787109375 -206.1736450195312 C 902.7813720703125 -206.1922760009766 902.8048095703125 -206.2102355957031 902.828125 -206.2286376953125 C 903.042724609375 -206.3988647460938 903.265625 -206.5584106445312 903.4970703125 -206.7068176269531 C 903.5372314453125 -206.7327270507812 903.5772705078125 -206.7593231201172 903.6180419921875 -206.7843322753906 C 903.6756591796875 -206.8200073242188 903.734619140625 -206.8540954589844 903.793212890625 -206.88818359375 C 903.841552734375 -206.9163665771484 903.8897705078125 -206.9445343017578 903.9383544921875 -206.9720611572266 C 903.9947509765625 -207.0031890869141 904.0517578125 -207.0336456298828 904.10888671875 -207.0636444091797 C 904.1622314453125 -207.0915985107422 904.2156982421875 -207.1190948486328 904.26953125 -207.1459197998047 C 904.324951171875 -207.1734008789062 904.380615234375 -207.20068359375 904.436767578125 -207.2270355224609 C 904.4952392578125 -207.2545623779297 904.5540771484375 -207.2806701660156 904.6131591796875 -207.3068237304688 C 904.6666259765625 -207.3304595947266 904.719970703125 -207.3541107177734 904.77392578125 -207.3765869140625 C 904.841552734375 -207.40478515625 904.9100341796875 -207.430908203125 904.9783935546875 -207.457275390625 C 905.0257568359375 -207.4752349853516 905.072509765625 -207.4943237304688 905.1199951171875 -207.5118408203125 C 905.2340087890625 -207.5531921386719 905.34912109375 -207.5922698974609 905.4656982421875 -207.6286468505859 C 905.4979248046875 -207.6386413574219 905.5302734375 -207.6470489501953 905.562744140625 -207.6568145751953 C 905.651123046875 -207.6831817626953 905.740234375 -207.7091064453125 905.8304443359375 -207.7327423095703 C 905.8768310546875 -207.7450103759766 905.924072265625 -207.7556762695312 905.970703125 -207.7670593261719 C 906.0477294921875 -207.7856750488281 906.12451171875 -207.8038787841797 906.2022705078125 -207.8204498291016 C 906.252685546875 -207.8311462402344 906.3033447265625 -207.8409118652344 906.3546142578125 -207.8506927490234 C 906.43017578125 -207.865234375 906.50634765625 -207.8788604736328 906.5830078125 -207.8915863037109 C 906.63427734375 -207.8997802734375 906.6856689453125 -207.9077301025391 906.737548828125 -207.9152221679688 C 906.81591796875 -207.9265899658203 906.895263671875 -207.9363861083984 906.9744873046875 -207.9452209472656 C 907.024169921875 -207.9509124755859 907.0736083984375 -207.9568176269531 907.1239013671875 -207.9618225097656 C 907.2109375 -207.9700012207031 907.2984619140625 -207.9761505126953 907.3861083984375 -207.9815979003906 C 907.4288330078125 -207.9843139648438 907.4713134765625 -207.9879608154297 907.5145263671875 -207.989990234375 C 907.64501953125 -207.9961395263672 907.776611328125 -208 907.9088134765625 -208 C 908.0418701171875 -208 908.1737060546875 -207.9961395263672 908.3050537109375 -207.989990234375 C 908.348876953125 -207.9879608154297 908.391845703125 -207.9841003417969 908.435302734375 -207.9813537597656 C 908.522705078125 -207.9759216308594 908.6102294921875 -207.9697875976562 908.697021484375 -207.9613647460938 C 908.7479248046875 -207.9565887451172 908.7987060546875 -207.9504547119141 908.849365234375 -207.9445495605469 C 908.927734375 -207.9356689453125 909.006103515625 -207.9259033203125 909.0841064453125 -207.9147796630859 C 909.13720703125 -207.9070434570312 909.1904296875 -207.8986511230469 909.243408203125 -207.8900146484375 C 909.31787109375 -207.8777313232422 909.39208984375 -207.8645477294922 909.4659423828125 -207.8502197265625 C 909.51953125 -207.8397827148438 909.5731201171875 -207.8293304443359 909.6265869140625 -207.8179779052734 C 909.6995849609375 -207.8022918701172 909.7718505859375 -207.7852325439453 909.8443603515625 -207.7677307128906 C 909.8963623046875 -207.7550048828125 909.9488525390625 -207.7427368164062 910.0003662109375 -207.7290954589844 C 910.07470703125 -207.7095489501953 910.1483154296875 -207.6879425048828 910.2218017578125 -207.6663665771484 C 910.2703857421875 -207.6520538330078 910.319091796875 -207.6386413574219 910.3673095703125 -207.6236419677734 C 910.46044921875 -207.5943298339844 910.552001953125 -207.5625152587891 910.6434326171875 -207.5302429199219 C 910.716064453125 -207.5043182373047 910.7877197265625 -207.4772796630859 910.8590087890625 -207.4495391845703 C 910.9251708984375 -207.4240875244141 910.9908447265625 -207.3988647460938 911.056396484375 -207.371826171875 C 911.1170654296875 -207.3463745117188 911.1767578125 -207.319091796875 911.237060546875 -207.2922668457031 C 911.2890625 -207.2691040039062 911.34130859375 -207.2461395263672 911.3927001953125 -207.2218170166016 C 911.4561767578125 -207.1918182373047 911.518798828125 -207.1606750488281 911.5814208984375 -207.1290893554688 C 911.6273193359375 -207.1059112548828 911.6734619140625 -207.0827331542969 911.7188720703125 -207.0586395263672 C 911.7843017578125 -207.0243225097656 911.848876953125 -206.9888610839844 911.9129638671875 -206.9527282714844 C 911.9530029296875 -206.9302215576172 911.992431640625 -206.9072723388672 912.031982421875 -206.8843231201172 C 912.0999755859375 -206.8445587158203 912.167236328125 -206.8040771484375 912.234130859375 -206.7625122070312 C 912.2655029296875 -206.7429504394531 912.29638671875 -206.7229614257812 912.3272705078125 -206.7029571533203 C 912.4005126953125 -206.6559143066406 912.47314453125 -206.6083984375 912.5447998046875 -206.5593109130859 C 912.5579833984375 -206.5502319335938 912.5709228515625 -206.5404510498047 912.5836181640625 -206.5313720703125 C 913.042724609375 -206.2113800048828 913.4666748046875 -205.845458984375 913.8502197265625 -205.4404449462891 L 913.8507080078125 -205.4400024414062 C 915.1590576171875 -204.0572814941406 915.9908447265625 -202.2197723388672 916.08154296875 -200.1879425048828 C 917.118896484375 -201.0895538330078 918.4725341796875 -201.6365966796875 919.95458984375 -201.6365966796875 C 923.2181396484375 -201.6365966796875 925.8636474609375 -198.9906768798828 925.8636474609375 -195.72705078125 C 925.8636474609375 -195.7000122070312 925.86181640625 -195.6734161376953 925.861572265625 -195.6465911865234 C 926.15771484375 -195.6984252929688 926.4617919921875 -195.7272796630859 926.772705078125 -195.7272796630859 C 927.2236328125 -195.7272796630859 927.6614990234375 -195.6700134277344 928.0791015625 -195.562744140625 C 930.3341064453125 -194.9827270507812 932 -192.9361419677734 932 -190.5002288818359 L 932 -190.5 C 932 -187.9738616943359 930.2081298828125 -185.8663635253906 927.826416015625 -185.3788604736328 C 927.7413330078125 -185.3616027832031 927.655517578125 -185.3461456298828 927.5689697265625 -185.3329467773438 C 927.4359130859375 -185.3127288818359 927.3006591796875 -185.2988586425781 927.164794921875 -185.2888641357422 L 927.164794921875 -185.2806854248047 L 927.164794921875 -185.2804565429688 L 927.0545654296875 -185.2804565429688 C 927.0501708984375 -185.2802429199219 927.046142578125 -185.2797698974609 927.041748046875 -185.2795562744141 C 926.9525146484375 -185.2750091552734 926.863037109375 -185.2727355957031 926.772705078125 -185.2727355957031 Z" stroke="none" fill="#c9c9c9"/>
    </g>
  </g>
</svg>
