<svg xmlns="http://www.w3.org/2000/svg" width="40" height="40" viewBox="0 0 40 40">
  <g id="_8n" data-name="8n" transform="translate(-892 -12)">
    <g id="Grupo_8602" data-name="Grupo 8602" transform="translate(898.634 36.528)">
      <g id="Grupo_8599" data-name="Grupo 8599" transform="translate(0 0.028)">
        <path id="Caminho_7251" data-name="Caminho 7251" d="M948.072,134.6a.965.965,0,0,1-.966.965h0a.965.965,0,0,1-.966-.965V121.09a.965.965,0,0,1,.966-.965h0a.965.965,0,0,1,.966.965Z" transform="translate(-940.47 -120.125)" fill="#c9c9c9"/>
        <path id="Caminho_7252" data-name="Caminho 7252" d="M922.682,142.806a.967.967,0,0,1-1.336-.284h0a.965.965,0,0,1,.284-1.335l11.341-7.36a.967.967,0,0,1,1.336.284h0a.965.965,0,0,1-.284,1.335Z" transform="translate(-921.19 -130.595)" fill="#c9c9c9"/>
        <path id="Caminho_7253" data-name="Caminho 7253" d="M932.97,142.806a.966.966,0,0,0,1.336-.284h0a.964.964,0,0,0-.284-1.335l-11.341-7.36a.967.967,0,0,0-1.336.284h0a.965.965,0,0,0,.284,1.335Z" transform="translate(-921.19 -130.595)" fill="#c9c9c9"/>
      </g>
      <g id="Grupo_8600" data-name="Grupo 8600" transform="translate(18.943)">
        <path id="Caminho_7254" data-name="Caminho 7254" d="M1018.773,127.665a.511.511,0,0,1-.511.511h0a.511.511,0,0,1-.511-.511v-7.154a.511.511,0,0,1,.511-.511h0a.511.511,0,0,1,.511.511Z" transform="translate(-1014.748 -120)" fill="#c9c9c9"/>
        <path id="Caminho_7255" data-name="Caminho 7255" d="M1005.331,132.007a.512.512,0,0,1-.708-.15h0a.512.512,0,0,1,.15-.707l6-3.9a.511.511,0,0,1,.707.15h0a.511.511,0,0,1-.15.707Z" transform="translate(-1004.541 -125.542)" fill="#c9c9c9"/>
        <path id="Caminho_7256" data-name="Caminho 7256" d="M1010.778,132.007a.511.511,0,0,0,.707-.15h0a.511.511,0,0,0-.15-.707l-6-3.9a.511.511,0,0,0-.708.15h0a.511.511,0,0,0,.15.707Z" transform="translate(-1004.541 -125.542)" fill="#c9c9c9"/>
      </g>
      <g id="Grupo_8601" data-name="Grupo 8601" transform="translate(16.024 9.993)">
        <path id="Caminho_7257" data-name="Caminho 7257" d="M1001.182,169.11a.341.341,0,0,1-.341.341h0a.341.341,0,0,1-.341-.341v-4.769a.341.341,0,0,1,.341-.341h0a.341.341,0,0,1,.341.341Z" transform="translate(-998.499 -164)" fill="#c9c9c9"/>
        <path id="Caminho_7258" data-name="Caminho 7258" d="M992.221,172.005a.342.342,0,0,1-.473-.1h0a.342.342,0,0,1,.1-.471l4-2.6a.342.342,0,0,1,.473.1h0a.341.341,0,0,1-.1.471Z" transform="translate(-991.695 -167.695)" fill="#c9c9c9"/>
        <path id="Caminho_7259" data-name="Caminho 7259" d="M995.852,172.005a.342.342,0,0,0,.473-.1h0a.342.342,0,0,0-.1-.471l-4-2.6a.342.342,0,0,0-.473.1h0a.341.341,0,0,0,.1.471Z" transform="translate(-991.695 -167.695)" fill="#c9c9c9"/>
      </g>
    </g>
    <g id="Caminho_7260" data-name="Caminho 7260" fill="#f2f2f2" stroke-miterlimit="10">
      <path d="M 926.772705078125 34.21114349365234 C 926.6934814453125 34.21114349365234 926.609619140625 34.20883178710938 926.5164184570312 34.20408248901367 L 926.5037231445312 34.20343017578125 L 926.490966796875 34.20343017578125 L 917.7618408203125 34.20343017578125 L 917.7518920898438 34.20343017578125 L 917.7418823242188 34.20383071899414 C 917.649169921875 34.2075309753418 917.550537109375 34.21114349365234 917.45458984375 34.21114349365234 L 910.664794921875 34.21114349365234 L 900.1817626953125 34.21114349365234 C 899.6604614257812 34.21114349365234 899.1393432617188 34.15869140625 898.6327514648438 34.05524063110352 C 896.9253540039062 33.70606994628906 895.3701782226562 32.76929092407227 894.2538452148438 31.4174919128418 C 893.1251831054688 30.05083465576172 892.5025634765625 28.3211498260498 892.5 26.54608917236328 C 892.5003051757812 26.53854370117188 892.50048828125 26.53094673156738 892.50048828125 26.52309226989746 C 892.50048828125 26.39469146728516 892.503662109375 26.2671012878418 892.5099487304688 26.14387130737305 C 892.5112915039062 26.1175708770752 892.5134887695312 26.09252166748047 892.5155639648438 26.06747245788574 C 892.5175170898438 26.0444221496582 892.5194702148438 26.02137184143066 892.5210571289062 25.99820137023926 L 892.523681640625 25.95869255065918 C 892.5283203125 25.88813209533691 892.53271484375 25.82148170471191 892.5391845703125 25.75808143615723 C 892.5428466796875 25.72085189819336 892.547607421875 25.68588256835938 892.55224609375 25.65090179443359 C 892.5550537109375 25.63003158569336 892.5578002929688 25.60915184020996 892.5604248046875 25.58823204040527 L 892.5670166015625 25.53290176391602 C 892.5731201171875 25.48107147216797 892.5791625976562 25.42919158935547 892.5869750976562 25.37792205810547 C 892.5927734375 25.3399715423584 892.599609375 25.3027515411377 892.6063842773438 25.26547241210938 C 892.6105346679688 25.24265098571777 892.6146850585938 25.21981239318848 892.6187133789062 25.19689178466797 L 892.6302490234375 25.13025093078613 C 892.637451171875 25.08820152282715 892.6445922851562 25.04607200622559 892.6531982421875 25.00433158874512 C 892.6614990234375 24.96277236938477 892.670654296875 24.92418098449707 892.6797485351562 24.8856315612793 C 892.6849975585938 24.86311149597168 892.6903076171875 24.84060096740723 892.6953735351562 24.81807136535645 L 892.7068481445312 24.76681137084961 C 892.7164916992188 24.72320175170898 892.72607421875 24.67963218688965 892.7371215820312 24.63664245605469 C 892.7488403320312 24.59124183654785 892.7615966796875 24.54672241210938 892.7742919921875 24.50211143493652 L 892.7899169921875 24.44716262817383 L 892.8075561523438 24.38408088684082 C 892.8177490234375 24.34739112854004 892.827880859375 24.31074142456055 892.8389892578125 24.27446174621582 C 892.8533935546875 24.22806167602539 892.8696899414062 24.18020248413086 892.8859252929688 24.13233184814453 L 892.9027099609375 24.08294105529785 L 892.9208374023438 24.02874183654785 C 892.9326171875 23.99333190917969 892.9442749023438 23.95796203613281 892.9569702148438 23.92300224304199 C 892.9761352539062 23.86984252929688 892.9967041015625 23.81797218322754 893.0172119140625 23.76609230041504 L 893.0327758789062 23.72674179077148 L 893.05078125 23.68064117431641 C 893.0638427734375 23.64689254760742 893.0769653320312 23.61304092407227 893.0909423828125 23.57974243164062 C 893.1144409179688 23.52299118041992 893.1387939453125 23.46968269348145 893.1630859375 23.41614151000977 L 893.1791381835938 23.38069152832031 L 893.1972045898438 23.34024238586426 C 893.211669921875 23.30753135681152 893.2261962890625 23.27472114562988 893.2416381835938 23.24226188659668 C 893.2681884765625 23.18608093261719 893.2972412109375 23.12959098815918 893.3280029296875 23.06978225708008 L 893.3414306640625 23.04363250732422 L 893.3678588867188 22.99150085449219 C 893.380859375 22.96572113037109 893.3938598632812 22.93994140625 893.4073486328125 22.91451263427734 C 893.4411010742188 22.85195159912109 893.477783203125 22.78828239440918 893.5145263671875 22.72446250915527 L 893.5202026367188 22.71459197998047 C 893.5289916992188 22.69938087463379 893.538330078125 22.68291091918945 893.5476684570312 22.66646194458008 C 893.560302734375 22.64423179626465 893.5728149414062 22.62202262878418 893.5859985351562 22.60016250610352 C 893.6281127929688 22.52992248535156 893.672119140625 22.46113204956055 893.7136840820312 22.39657211303711 L 893.7421264648438 22.35199165344238 C 893.7549438476562 22.33179092407227 893.7677001953125 22.31158256530762 893.7809448242188 22.29170227050781 C 893.8282470703125 22.22070121765137 893.8787231445312 22.14930152893066 893.9219360351562 22.08879089355469 L 893.9502563476562 22.04878234863281 C 893.9631958007812 22.03045082092285 893.9760131835938 22.01214218139648 893.9893188476562 21.99407196044922 C 894.0324096679688 21.93567085266113 894.0805053710938 21.87308120727539 894.1450805664062 21.79139137268066 L 894.1738891601562 21.75454139709473 C 894.1857299804688 21.73937225341797 894.1974487304688 21.72417259216309 894.2095336914062 21.7093620300293 C 894.266357421875 21.6390323638916 894.3258666992188 21.56978225708008 894.3818969726562 21.5051212310791 L 894.4137573242188 21.4683723449707 C 894.4244384765625 21.4559326171875 894.4351196289062 21.44349098205566 894.446044921875 21.43119239807129 C 894.5076904296875 21.36189270019531 894.5742797851562 21.29151153564453 894.6311645507812 21.23193168640137 L 894.644287109375 21.21811103820801 C 894.6597290039062 21.20184135437012 894.6751708984375 21.18550109863281 894.69091796875 21.16944122314453 C 894.749755859375 21.1093921661377 894.8139038085938 21.04645156860352 894.8931274414062 20.97097206115723 L 894.9186401367188 20.94664192199707 C 894.9281005859375 20.93756103515625 894.9375610351562 20.92845153808594 894.9472045898438 20.91957092285156 C 895.0145263671875 20.85680198669434 895.0851440429688 20.79367256164551 895.1660766601562 20.72393226623535 L 895.1890869140625 20.70402145385742 C 895.1985473632812 20.69577217102051 895.2080688476562 20.68749237060547 895.2177734375 20.67929267883301 C 895.2886352539062 20.61917114257812 895.3643798828125 20.5577220916748 895.4512329101562 20.48988151550293 L 895.4693603515625 20.4754810333252 C 895.477783203125 20.46878242492676 895.4861450195312 20.4620418548584 895.4946899414062 20.45559120178223 L 895.4974975585938 20.45348167419434 L 895.5003051757812 20.45133209228516 C 895.5714111328125 20.39632225036621 895.6502075195312 20.33819198608398 895.748291015625 20.26838111877441 L 895.7750244140625 20.24952125549316 L 895.7920532226562 20.23746109008789 C 895.8716430664062 20.18203353881836 895.9569091796875 20.12508010864258 896.0505981445312 20.06491470336914 C 896.0654907226562 20.05568504333496 896.0802001953125 20.04626274108887 896.0949096679688 20.03682136535645 C 896.1800537109375 19.98323249816895 896.2733154296875 19.92733192443848 896.3681030273438 19.8731517791748 L 896.3868408203125 19.86224174499512 L 896.3984375 19.85548210144043 C 896.4935913085938 19.8015022277832 896.5887451171875 19.75038146972656 896.6929321289062 19.69715118408203 L 896.7040405273438 19.69146156311035 L 896.72119140625 19.68274116516113 C 896.8192138671875 19.63308143615723 896.9214477539062 19.58430099487305 897.0259399414062 19.53727149963379 L 897.0339965820312 19.53361129760742 C 897.0410766601562 19.53042602539062 897.0481567382812 19.5272102355957 897.0552368164062 19.52388000488281 C 897.1572875976562 19.47848129272461 897.2621459960938 19.43455123901367 897.3670043945312 19.39326095581055 L 897.37158203125 19.3914623260498 L 897.3761596679688 19.38957214355469 L 897.3827514648438 19.38698196411133 L 897.383056640625 19.38686180114746 L 897.3875122070312 19.38510131835938 C 897.49755859375 19.34236145019531 897.6085205078125 19.30193138122559 897.7159423828125 19.26553153991699 L 897.723388671875 19.26310157775879 L 897.7282104492188 19.26157188415527 L 897.7329711914062 19.25995254516602 C 897.84033203125 19.2236213684082 897.954345703125 19.188232421875 898.0718383789062 19.15476226806641 L 898.0759887695312 19.15357208251953 L 898.0763549804688 19.1534595489502 L 898.0869140625 19.15052223205566 C 898.199951171875 19.11858177185059 898.3178100585938 19.08820152282715 898.434814453125 19.06088256835938 L 898.4420776367188 19.05927085876465 C 898.5662841796875 19.03058242797852 898.686279296875 19.00591087341309 898.8014526367188 18.98531150817871 L 898.8064575195312 18.98441123962402 L 898.8114624023438 18.98341178894043 L 898.8170166015625 18.98230171203613 C 898.9338989257812 18.96135139465332 899.0550537109375 18.94263458251953 899.1771850585938 18.92668151855469 L 899.1808471679688 18.92620086669922 L 899.1845703125 18.92566108703613 L 899.1897583007812 18.92490005493164 C 899.3078002929688 18.9097900390625 899.4317016601562 18.89688110351562 899.5581665039062 18.88652229309082 L 899.564697265625 18.88602256774902 C 899.6881713867188 18.87630081176758 899.815185546875 18.86932182312012 899.9429931640625 18.86522102355957 L 899.9488525390625 18.86504173278809 L 899.9546508789062 18.86471176147461 L 900.3257446289062 18.84415245056152 L 900.4171752929688 18.48269081115723 L 900.4187622070312 18.47611236572266 L 900.4195556640625 18.4727611541748 L 900.4203491210938 18.46939086914062 C 900.5623779296875 17.84373092651367 900.783935546875 17.23659133911133 901.0786743164062 16.66484260559082 L 901.087646484375 16.64749145507812 C 901.1319580078125 16.56206130981445 901.178955078125 16.47574234008789 901.231201171875 16.3839111328125 L 901.2346801757812 16.37784194946289 L 901.2410278320312 16.36691093444824 L 901.2430419921875 16.36355209350586 L 901.2449951171875 16.36017227172852 C 901.2984008789062 16.26721000671387 901.3475952148438 16.18485450744629 901.3953857421875 16.10869026184082 C 901.399658203125 16.10226631164551 901.404296875 16.09493637084961 901.4092407226562 16.0866870880127 C 901.6297607421875 15.73767757415771 901.8795166015625 15.40487480163574 902.1517333984375 15.097412109375 L 902.157470703125 15.09092140197754 L 902.1629638671875 15.08424186706543 L 902.1650390625 15.08175754547119 L 902.1652221679688 15.08157157897949 L 902.1683349609375 15.07805156707764 C 902.2216796875 15.01793193817139 902.2799072265625 14.95500183105469 902.3463134765625 14.88566207885742 L 902.3768920898438 14.85361194610596 L 902.4019775390625 14.82727146148682 C 902.4498901367188 14.77784156799316 902.5032348632812 14.72476196289062 902.5738525390625 14.65635204315186 C 902.594970703125 14.63611221313477 902.6181640625 14.61390209197998 902.6414794921875 14.59212207794189 C 902.7055053710938 14.53158187866211 902.7620849609375 14.47972202301025 902.8165283203125 14.43166160583496 C 902.8388671875 14.41182136535645 902.8607788085938 14.39297199249268 902.8826293945312 14.37415218353271 L 902.8916015625 14.36644172668457 L 902.8963012695312 14.36241149902344 C 902.954833984375 14.31220149993896 903.0133056640625 14.26200199127197 903.0731201171875 14.21346187591553 C 903.0859985351562 14.20293140411377 903.0984497070312 14.1933422088623 903.11083984375 14.18370151519775 L 903.1389770507812 14.16175174713135 C 903.3395385742188 14.00277137756348 903.5504760742188 13.85213184356689 903.7671508789062 13.71304130554199 L 903.8009033203125 13.691162109375 C 903.8267211914062 13.67440128326416 903.8525390625 13.65755176544189 903.8788452148438 13.64150142669678 C 903.928955078125 13.61041164398193 903.97705078125 13.58248138427734 904.025146484375 13.55449199676514 L 904.04443359375 13.54326152801514 C 904.0906982421875 13.51626014709473 904.1363525390625 13.4896936416626 904.1826171875 13.4635648727417 C 904.2349853515625 13.43477249145508 904.2879638671875 13.40640449523926 904.3412475585938 13.37844181060791 C 904.3911743164062 13.35227203369141 904.4415893554688 13.3263521194458 904.4923706054688 13.30108165740967 C 904.5438232421875 13.27556133270264 904.5962524414062 13.24988174438477 904.6491088867188 13.22508144378662 C 904.7044677734375 13.19905185699463 904.7598266601562 13.17454147338867 904.8153686523438 13.14999198913574 L 904.8214721679688 13.14728164672852 C 904.86962890625 13.12602138519287 904.9176025390625 13.10476207733154 904.9661865234375 13.08452129364014 C 905.0277099609375 13.0589017868042 905.0899658203125 13.03518199920654 905.1521606445312 13.01143169403076 L 905.1568603515625 13.00964164733887 L 905.2150268554688 12.98697185516357 C 905.2409057617188 12.97681140899658 905.2667236328125 12.96663188934326 905.2927856445312 12.95702171325684 C 905.4063720703125 12.91609191894531 905.5126342773438 12.88019180297852 905.614501953125 12.84845161437988 C 905.6285400390625 12.84409141540527 905.6434326171875 12.83999156951904 905.6583251953125 12.83582210540771 C 905.6734008789062 12.83158206939697 905.6885375976562 12.82733154296875 905.7036743164062 12.8228816986084 C 905.7857055664062 12.79824161529541 905.87060546875 12.77321147918701 905.9559326171875 12.7510814666748 C 905.98583984375 12.74317169189453 906.0138549804688 12.73656177520752 906.0418090820312 12.72991180419922 L 906.0890502929688 12.71858215332031 C 906.1624755859375 12.70083141326904 906.23486328125 12.68350219726562 906.30517578125 12.66872215270996 C 906.3529663085938 12.65859127044678 906.4003295898438 12.64950180053711 906.4482421875 12.64037132263184 C 906.5307006835938 12.62451171875 906.598388671875 12.61245155334473 906.6619873046875 12.60229206085205 C 906.7127685546875 12.59375190734863 906.7596435546875 12.58650207519531 906.8069458007812 12.57987213134766 C 906.8729858398438 12.57032203674316 906.9435424804688 12.5613317489624 907.0314331054688 12.55126190185547 L 907.0714721679688 12.54679203033447 C 907.1045532226562 12.54307174682617 907.1376342773438 12.53932189941406 907.1710815429688 12.53615188598633 C 907.2593383789062 12.52763175964355 907.348876953125 12.5216817855835 907.4171142578125 12.51744174957275 L 907.4678955078125 12.51394176483154 C 907.4912109375 12.51227188110352 907.5145874023438 12.51055145263672 907.5382080078125 12.50943183898926 C 907.6732177734375 12.50309181213379 907.7944946289062 12.50000190734863 907.9088134765625 12.50000190734863 C 908.0235595703125 12.50000190734863 908.1455688476562 12.50309181213379 908.28173828125 12.5094518661499 C 908.3042602539062 12.51050186157227 908.3264770507812 12.51218128204346 908.3487548828125 12.51381206512451 C 908.3671875 12.51515197753906 908.3855590820312 12.51649188995361 908.404052734375 12.5176420211792 C 908.4725952148438 12.52191162109375 908.5621948242188 12.52789211273193 908.6488037109375 12.53628158569336 C 908.6825561523438 12.53944206237793 908.7146606445312 12.54321193695068 908.7467651367188 12.5469217300415 L 908.7937622070312 12.55231189727783 C 908.8731079101562 12.56128215789795 908.9451904296875 12.57041168212891 909.0134887695312 12.58016204833984 C 909.0624389648438 12.58728218078613 909.1128540039062 12.59524154663086 909.1630249023438 12.60342216491699 C 909.232666015625 12.61488151550293 909.3029174804688 12.62759208679199 909.3731689453125 12.64091205596924 L 909.377685546875 12.64180183410645 C 909.4255981445312 12.65121173858643 909.4737548828125 12.66064167022705 909.5216064453125 12.67087173461914 C 909.591552734375 12.68563175201416 909.65966796875 12.70186138153076 909.7278442382812 12.71826171875 L 909.76708984375 12.7277717590332 C 909.8030395507812 12.73648166656494 909.8389282226562 12.74513149261475 909.87451171875 12.75439167022705 C 909.9412231445312 12.77207183837891 910.0093994140625 12.79223155975342 910.0777587890625 12.8123722076416 L 910.0791625976562 12.81279182434082 L 910.0842895507812 12.81429195404053 L 910.1194458007812 12.82436180114746 C 910.1522216796875 12.83372211456299 910.18505859375 12.84304141998291 910.2176513671875 12.85324192047119 C 910.2947387695312 12.87747192382812 910.3786010742188 12.90581130981445 910.4810791015625 12.94230175018311 C 910.5458374023438 12.96544170379639 910.6103515625 12.98991203308105 910.6749267578125 13.01479148864746 L 910.7039794921875 13.02602195739746 C 910.7577514648438 13.04677200317383 910.8116455078125 13.0675220489502 910.8645629882812 13.08955192565918 C 910.9065551757812 13.10707187652588 910.9484252929688 13.12583160400391 910.9904174804688 13.14459133148193 L 911.03173828125 13.16304206848145 L 911.0764770507812 13.18303203582764 C 911.11083984375 13.19834136962891 911.1452026367188 13.2136116027832 911.1792602539062 13.22977161407471 C 911.23876953125 13.25790214538574 911.2970581054688 13.28695201873779 911.3550415039062 13.31617164611816 L 911.3819580078125 13.32977199554443 C 911.4165649414062 13.34725189208984 911.4512329101562 13.36473178863525 911.4855346679688 13.38291168212891 C 911.5471801757812 13.415452003479 911.6075439453125 13.44839191436768 911.66748046875 13.48197174072266 C 911.7044067382812 13.50289154052734 911.7430419921875 13.52527141571045 911.7814331054688 13.54763221740723 C 911.8438720703125 13.58417129516602 911.9071044921875 13.62185192108154 911.969482421875 13.66063213348389 C 911.9916381835938 13.67440128326416 912.0137329101562 13.68876171112061 912.0358276367188 13.70309162139893 L 912.05712890625 13.7169017791748 C 912.1419677734375 13.77137184143066 912.2045288085938 13.8126916885376 912.2614135742188 13.85172176361084 L 912.2771606445312 13.86295127868652 L 912.2982177734375 13.87797164916992 C 912.7278442382812 14.17771148681641 913.1268920898438 14.52136135101318 913.4863891601562 14.90089130401611 L 913.491943359375 14.90681171417236 L 913.4937133789062 14.9085578918457 C 914.758544921875 16.24716567993164 915.5000610351562 17.99417304992676 915.58203125 19.82882118225098 L 915.6282348632812 20.86240196228027 L 916.4093627929688 20.18401145935059 C 917.2568359375 19.44805145263672 918.2913208007812 18.99955177307129 919.4009399414062 18.88700103759766 C 919.5846557617188 18.86851119995117 919.7710571289062 18.85912132263184 919.95458984375 18.85912132263184 C 920.1380004882812 18.85912132263184 920.3244018554688 18.86851119995117 920.5087280273438 18.88704109191895 C 921.8333129882812 19.02151107788086 923.0587768554688 19.64057159423828 923.9588012695312 20.6301326751709 C 924.86474609375 21.62621116638184 925.3636474609375 22.91675186157227 925.3636474609375 24.2640209197998 C 925.3636474609375 24.27261161804199 925.3632202148438 24.28091239929199 925.3629150390625 24.28919219970703 C 925.3623046875 24.30611228942871 925.3617553710938 24.32301139831543 925.361572265625 24.33998107910156 L 925.35595703125 24.94108200073242 L 925.9480590820312 24.83710098266602 C 926.2241821289062 24.78861236572266 926.5016479492188 24.7640209197998 926.772705078125 24.7640209197998 C 929.3793334960938 24.7640209197998 931.5 26.88300132751465 931.5 29.48758125305176 C 931.5 30.68727111816406 931.0492553710938 31.83070182800293 930.2307739257812 32.70726013183594 C 929.4163208007812 33.57953262329102 928.3143310546875 34.10838317871094 927.1278076171875 34.19639205932617 L 927.013916015625 34.20483779907227 C 926.9266357421875 34.20907974243164 926.8475952148438 34.21114349365234 926.772705078125 34.21114349365234 Z" stroke="none"/>
      <path d="M 926.772705078125 33.71114349365234 C 926.8377075195312 33.71114349365234 926.9069213867188 33.7093620300293 926.9837036132812 33.70570755004883 L 927.0908203125 33.69776153564453 C 928.151611328125 33.61908340454102 929.136962890625 33.14612197875977 929.8653564453125 32.36602020263672 C 930.5970458984375 31.5823917388916 931 30.56014251708984 931 29.48758125305176 C 931 27.15870094299316 929.1036376953125 25.2640209197998 926.772705078125 25.2640209197998 C 926.5305786132812 25.2640209197998 926.2822265625 25.28607177734375 926.0345458984375 25.3295726776123 L 924.8504028320312 25.53753089904785 L 924.8616333007812 24.33531188964844 C 924.86181640625 24.31377220153809 924.8624877929688 24.29232215881348 924.86328125 24.27083206176758 L 924.8636474609375 24.25972366333008 C 924.8626098632812 23.03869247436523 924.4099731445312 21.86933326721191 923.5888671875 20.96655082702637 C 922.77197265625 20.06835174560547 921.6599731445312 19.5064811706543 920.4586791992188 19.38453102111816 C 920.2909545898438 19.36767196655273 920.121337890625 19.35912132263184 919.95458984375 19.35912132263184 C 919.7877197265625 19.35912132263184 919.6181640625 19.36767196655273 919.4513549804688 19.38445091247559 C 918.4449462890625 19.48653221130371 917.5064086914062 19.89356231689453 916.7372436523438 20.56153106689453 L 915.1749267578125 21.91830253601074 L 915.08251953125 19.85114097595215 C 915.0060424804688 18.13908195495605 914.3148803710938 16.50851821899414 913.1359252929688 15.25790119171143 L 913.1345825195312 15.25657176971436 L 913.1233520507812 15.24473190307617 C 912.7871704101562 14.8897819519043 912.4140014648438 14.56842136383057 912.0142822265625 14.28955173492432 L 912.0120849609375 14.28804206848145 L 912.0099487304688 14.28652191162109 L 911.985107421875 14.26879215240479 L 911.9785766601562 14.26401138305664 C 911.926025390625 14.22796154022217 911.8673095703125 14.18925189971924 911.7855834960938 14.13676166534424 L 911.763671875 14.12256145477295 C 911.7442016601562 14.10993194580078 911.7247314453125 14.0972318649292 911.7056274414062 14.0853214263916 C 911.64697265625 14.04888153076172 911.5875244140625 14.01348209381104 911.52978515625 13.97969150543213 C 911.4931640625 13.95835208892822 911.456298828125 13.93700218200684 911.4229125976562 13.91810131072998 C 911.3667602539062 13.88659191131592 911.3101196289062 13.85569190979004 911.2513427734375 13.82467174530029 C 911.219970703125 13.80803203582764 911.188232421875 13.79207134246826 911.1565551757812 13.77608203887939 L 911.130126953125 13.76273155212402 C 911.0758666992188 13.73539161682129 911.0214233398438 13.70819187164307 910.96484375 13.68145179748535 C 910.9343872070312 13.66701221466064 910.9036865234375 13.65342140197754 910.8729858398438 13.63974189758301 L 910.8287963867188 13.61998176574707 L 910.7864379882812 13.60110187530518 C 910.7482299804688 13.58402156829834 910.7100830078125 13.56688213348389 910.67236328125 13.5511417388916 C 910.6234741210938 13.53078174591064 910.5736083984375 13.51166152954102 910.52392578125 13.49248218536377 L 910.4950561523438 13.48133182525635 C 910.434326171875 13.45792198181152 910.3735961914062 13.43487167358398 910.3134155273438 13.4133415222168 C 910.2169799804688 13.37900161743164 910.1387939453125 13.35257148742676 910.0681762695312 13.3303918838501 C 910.0396118164062 13.32145214080811 910.0108642578125 13.31334209442139 909.9821166992188 13.30513191223145 L 909.9458618164062 13.2947416305542 L 909.9392700195312 13.29282188415527 L 909.9364013671875 13.29198169708252 C 909.8724975585938 13.27314186096191 909.8087158203125 13.25421142578125 909.7486572265625 13.23829174041748 C 909.7158203125 13.2297420501709 909.6826782226562 13.22178173065186 909.6494750976562 13.21375179290771 L 909.6110229492188 13.20441150665283 C 909.5473022460938 13.18911170959473 909.4837646484375 13.17390155792236 909.4170532226562 13.15982151031494 C 909.3719482421875 13.15018177032471 909.3265991210938 13.14131164550781 909.2813720703125 13.13244152069092 L 909.276611328125 13.13151168823242 C 909.2114868164062 13.11917781829834 909.1463623046875 13.10740756988525 909.0826416015625 13.09691143035889 C 909.0352783203125 13.08920192718506 908.9876708984375 13.08167171478271 908.94287109375 13.07514190673828 C 908.87939453125 13.06609153747559 908.8120727539062 13.05757141113281 908.7381591796875 13.04920196533203 L 908.689208984375 13.04360198974609 C 908.6607666015625 13.04030132293701 908.6322631835938 13.03692150115967 908.6005859375 13.03395175933838 C 908.5215454101562 13.026291847229 908.4375 13.02070140838623 908.372802734375 13.01667213439941 C 908.3526000976562 13.01540184020996 908.3324584960938 13.01395130157471 908.3123779296875 13.01248168945312 C 908.29443359375 13.01117134094238 908.2764892578125 13.00975131988525 908.2584228515625 13.00890159606934 C 908.1300659179688 13.00291156768799 908.0157470703125 13.00000190734863 907.9088134765625 13.00000190734863 C 907.8023681640625 13.00000190734863 907.6887817382812 13.00291156768799 907.5618896484375 13.00887203216553 C 907.5422973632812 13.00980186462402 907.52294921875 13.01128196716309 907.5036010742188 13.01267147064209 L 907.4481811523438 13.01647186279297 C 907.3838500976562 13.02047157287598 907.2998046875 13.02605152130127 907.2183227539062 13.03391170501709 C 907.187744140625 13.03681182861328 907.1575317382812 13.04026222229004 907.1273803710938 13.04365158081055 L 907.08837890625 13.04801177978516 C 907.0055541992188 13.05750179290771 906.9395751953125 13.06588172912598 906.8763427734375 13.07503128051758 C 906.8335571289062 13.08102130889893 906.791259765625 13.08758163452148 906.7490234375 13.09469127655029 L 906.7449951171875 13.09537220001221 L 906.7409057617188 13.09601211547852 C 906.6826171875 13.10534191131592 906.619873046875 13.11652183532715 906.5418701171875 13.13153171539307 C 906.497314453125 13.14001178741455 906.4533081054688 13.14844131469727 906.4080200195312 13.15802192687988 C 906.344482421875 13.17139148712158 906.27880859375 13.18710136413574 906.2073974609375 13.20437145233154 L 906.1575317382812 13.21633148193359 C 906.1336059570312 13.22202205657959 906.109619140625 13.22763156890869 906.0814208984375 13.23507213592529 C 906.0042114257812 13.25509166717529 905.9248657226562 13.27850151062012 905.8506469726562 13.30082130432129 L 905.84765625 13.30172157287598 L 905.8446044921875 13.30261135101318 C 905.8274536132812 13.30765151977539 905.810302734375 13.31248188018799 905.793212890625 13.3172721862793 C 905.78271484375 13.32021141052246 905.772216796875 13.32303142547607 905.7633056640625 13.32579135894775 C 905.66943359375 13.35504817962646 905.571044921875 13.38826942443848 905.4625244140625 13.42735195159912 C 905.4408569335938 13.43538951873779 905.4193725585938 13.44390296936035 905.3978881835938 13.45235157012939 C 905.37744140625 13.46036148071289 905.3570556640625 13.46837139129639 905.3353271484375 13.4767017364502 L 905.3306274414062 13.47850131988525 C 905.2730712890625 13.50048160552979 905.2153930664062 13.52236175537109 905.1585083007812 13.54607200622559 C 905.1132202148438 13.56494140625 905.0684204101562 13.58481216430664 905.0235595703125 13.60464191436768 L 905.0175170898438 13.60729217529297 C 904.9655151367188 13.63028144836426 904.9136962890625 13.65319156646729 904.8614501953125 13.6777515411377 C 904.8118896484375 13.70101165771484 904.7626953125 13.72512149810791 904.7152099609375 13.74867153167725 C 904.6675415039062 13.77242183685303 904.6201782226562 13.79678153991699 904.5735473632812 13.82118129730225 C 904.52392578125 13.8472375869751 904.474609375 13.87365818023682 904.42578125 13.90047073364258 C 904.382568359375 13.92491436004639 904.33984375 13.94976806640625 904.2962036132812 13.9752721786499 L 904.2767333984375 13.98660182952881 C 904.232666015625 14.01225185394287 904.1885375976562 14.03779220581055 904.1452026367188 14.06466197967529 L 904.142333984375 14.06643199920654 L 904.1394653320312 14.06818199157715 C 904.1171264648438 14.08182144165039 904.09521484375 14.09621143341064 904.0733032226562 14.1104621887207 L 904.0372314453125 14.13383197784424 C 903.83447265625 14.26397132873535 903.6371459960938 14.40486145019531 903.4483642578125 14.55452156066895 L 903.41748046875 14.57864189147949 C 903.4081420898438 14.58589172363281 903.3988037109375 14.59305191040039 903.3882446289062 14.6016321182251 C 903.3319091796875 14.64735221862793 903.2769165039062 14.69468212127686 903.2218017578125 14.74197196960449 L 903.218017578125 14.74521160125732 L 903.208984375 14.7529821395874 C 903.18896484375 14.77023220062256 903.1688842773438 14.7874813079834 903.1475830078125 14.80638217926025 C 903.097412109375 14.85069179534912 903.0448608398438 14.89883136749268 902.9869995117188 14.95356178283691 L 902.9849243164062 14.95549201965332 L 902.9828491210938 14.95741176605225 C 902.9617309570312 14.97715473175049 902.9407348632812 14.99729156494141 902.9197387695312 15.01742267608643 C 902.8540649414062 15.08107852935791 902.8046875 15.13016033172607 902.76220703125 15.17402172088623 L 902.7396240234375 15.19773197174072 L 902.7073974609375 15.23153209686279 C 902.6463623046875 15.2952184677124 902.5931396484375 15.35274696350098 902.544677734375 15.40729236602783 L 902.53759765625 15.41586208343506 L 902.526123046875 15.42883205413818 C 902.272705078125 15.71504497528076 902.0401000976562 16.02478981018066 901.8345336914062 16.34965705871582 C 901.8287353515625 16.35916709899902 901.8228149414062 16.36861610412598 901.816650390625 16.3780403137207 C 901.7730712890625 16.44766235351562 901.7278442382812 16.52339744567871 901.6785888671875 16.60916137695312 L 901.6754150390625 16.61467170715332 L 901.6714477539062 16.62138175964355 L 901.6680297851562 16.62732124328613 L 901.6640014648438 16.6342716217041 C 901.61572265625 16.71921157836914 901.5723266601562 16.79891586303711 901.53173828125 16.87722206115723 L 901.5230712890625 16.89396095275879 C 901.2476196289062 17.42825126647949 901.0406494140625 17.99556159973145 900.9078979492188 18.58012199401855 L 900.9063720703125 18.58684158325195 L 900.90478515625 18.59355163574219 L 900.9031982421875 18.60013198852539 L 900.7244262695312 19.32282257080078 L 899.9823608398438 19.36395263671875 L 899.970703125 19.36459159851074 L 899.9590454101562 19.36497116088867 C 899.8389282226562 19.36881256103516 899.7197265625 19.37536239624023 899.603271484375 19.38453102111816 L 899.5989990234375 19.38485145568848 C 899.4816284179688 19.39447212219238 899.3667602539062 19.40639686584473 899.257568359375 19.42030906677246 L 899.2566528320312 19.42044258117676 L 899.2493286132812 19.42151260375977 L 899.241943359375 19.42247200012207 C 899.1293334960938 19.43717765808105 899.0177001953125 19.45437622070312 898.9100952148438 19.47358512878418 L 898.9094848632812 19.47370147705078 L 898.8995361328125 19.4757022857666 L 898.8894653320312 19.47749137878418 C 898.782470703125 19.49663162231445 898.6707153320312 19.51962089538574 898.5573120117188 19.54581260681152 L 898.5545654296875 19.54645156860352 L 898.5518188476562 19.54708099365234 L 898.5447998046875 19.54865837097168 C 898.4364013671875 19.57400512695312 898.327392578125 19.60214805603027 898.2252197265625 19.63102149963379 L 898.2151489257812 19.63383102416992 L 898.2088623046875 19.63562202453613 C 898.09912109375 19.6668815612793 897.992919921875 19.69984245300293 897.8931884765625 19.73358154296875 L 897.8861083984375 19.73601150512695 L 897.87646484375 19.73906135559082 C 897.7759399414062 19.77313232421875 897.671875 19.8110408782959 897.5701293945312 19.85058212280273 L 897.5638427734375 19.85302543640137 L 897.5593872070312 19.85489082336426 L 897.5502319335938 19.85850143432617 C 897.4533081054688 19.89665985107422 897.3564453125 19.93721389770508 897.2621459960938 19.97910690307617 C 897.254150390625 19.98280906677246 897.2459716796875 19.98651504516602 897.2374267578125 19.9903621673584 L 897.2342529296875 19.99179267883301 L 897.2311401367188 19.99320220947266 C 897.1336059570312 20.03711128234863 897.0383911132812 20.08255195617676 896.9461669921875 20.1292724609375 L 896.931640625 20.13668251037598 L 896.92041015625 20.14241218566895 C 896.82275390625 20.19228172302246 896.7339477539062 20.24001121520996 896.6488037109375 20.28831100463867 L 896.6452026367188 20.29035186767578 L 896.6449584960938 20.29050445556641 L 896.6401977539062 20.29329109191895 L 896.6161499023438 20.3072624206543 C 896.5286865234375 20.35725402832031 896.4427490234375 20.40874862670898 896.3606567382812 20.46035575866699 C 896.346435546875 20.46950149536133 896.3321533203125 20.47861099243164 896.3176879882812 20.48759078979492 C 896.231689453125 20.54291152954102 896.1533203125 20.59520721435547 896.0785522460938 20.64725875854492 L 896.0640869140625 20.65749168395996 L 896.0382080078125 20.67574119567871 C 895.9456787109375 20.74160194396973 895.8719482421875 20.79595184326172 895.8062744140625 20.84678268432617 L 895.8014526367188 20.85051155090332 L 895.7958374023438 20.8547420501709 L 895.7809448242188 20.86653137207031 L 895.7631225585938 20.88066101074219 L 895.7611083984375 20.88230133056641 L 895.7589721679688 20.8839225769043 C 895.6775512695312 20.94753265380859 895.6069946289062 21.00476264953613 895.5396118164062 21.06198120117188 L 895.5170288085938 21.0814323425293 L 895.4924926757812 21.10265159606934 C 895.4166259765625 21.16805267333984 895.350830078125 21.22687149047852 895.2911987304688 21.28247261047363 L 895.2883911132812 21.28510093688965 L 895.2855834960938 21.2877025604248 C 895.278564453125 21.2941722869873 895.271728515625 21.30083084106445 895.2648315429688 21.30743217468262 L 895.2379760742188 21.33305168151855 C 895.1629638671875 21.40444183349609 895.102783203125 21.4635009765625 895.0477294921875 21.51969146728516 C 895.0339965820312 21.53371238708496 895.0205078125 21.5479907989502 895.007080078125 21.56219100952148 L 894.9927978515625 21.57722091674805 C 894.9389038085938 21.63365173339844 894.8760986328125 21.70004081726074 894.8204956054688 21.76249122619629 C 894.8111572265625 21.77309226989746 894.8019409179688 21.78382110595703 894.792724609375 21.79454231262207 C 894.781005859375 21.80810165405273 894.7693481445312 21.8216724395752 894.7575073242188 21.83520698547363 C 894.7050170898438 21.89571952819824 894.6497802734375 21.96005058288574 894.6001586914062 22.02152252197266 L 894.5984497070312 22.02358245849609 L 894.5968017578125 22.02562141418457 C 894.5872802734375 22.03731155395508 894.5780639648438 22.04934120178223 894.5687255859375 22.06132125854492 L 894.5372314453125 22.1015625 C 894.476318359375 22.17865180969238 894.431396484375 22.23708152770996 894.3920288085938 22.29049110412598 C 894.3807983398438 22.30572128295898 894.3699951171875 22.32120132446289 894.3590698242188 22.33666229248047 L 894.3289184570312 22.37931251525879 C 894.2880249023438 22.43656158447266 894.2404174804688 22.50382232666016 894.1968994140625 22.56916236877441 C 894.185791015625 22.58584213256836 894.1751098632812 22.60282135009766 894.1643676757812 22.61977195739746 L 894.1341552734375 22.66715240478516 C 894.0947875976562 22.72832107543945 894.0531616210938 22.79328155517578 894.0140380859375 22.85857200622559 C 894.0032348632812 22.87652206420898 893.9929809570312 22.89480209350586 893.982666015625 22.91306114196777 C 893.9725952148438 22.93082237243652 893.9624633789062 22.94861221313477 893.95361328125 22.96388244628906 L 893.9479370117188 22.97378158569336 C 893.9140014648438 23.03274726867676 893.8800659179688 23.09153747558594 893.8475952148438 23.1516056060791 C 893.836181640625 23.17312240600586 893.8252563476562 23.1949348449707 893.8142700195312 23.21672248840332 L 893.7862548828125 23.27198219299316 L 893.7726440429688 23.29842185974121 C 893.7438354492188 23.35442161560059 893.7166137695312 23.40731239318848 893.6932983398438 23.4566822052002 C 893.6797485351562 23.48530197143555 893.6669921875 23.51426124572754 893.6541748046875 23.54311180114746 L 893.6347045898438 23.58681106567383 L 893.6183471679688 23.62286186218262 C 893.5963745117188 23.67132186889648 893.5742797851562 23.71952247619629 893.5538940429688 23.76871109008789 L 893.5529174804688 23.77109146118164 L 893.5518798828125 23.77347183227539 C 893.5396728515625 23.80259132385254 893.5282592773438 23.83221244812012 893.516845703125 23.8617115020752 L 893.498046875 23.90986251831055 L 893.4822387695312 23.94994163513184 C 893.4635620117188 23.99711227416992 893.4447631835938 24.04424095153809 893.4271240234375 24.09321212768555 C 893.4158935546875 24.12407112121582 893.4056396484375 24.15532112121582 893.395263671875 24.18658256530762 L 893.3765258789062 24.2425422668457 L 893.359375 24.29312133789062 C 893.3445434570312 24.33682250976562 893.32958984375 24.38050079345703 893.3170776367188 24.42072105407715 C 893.3072509765625 24.45287132263184 893.29833984375 24.48537254333496 893.289306640625 24.51789093017578 L 893.2711791992188 24.58260154724121 L 893.255126953125 24.63924217224121 C 893.2435913085938 24.67963218688965 893.2319946289062 24.71993255615234 893.2213745117188 24.76126098632812 C 893.211669921875 24.79885101318359 893.2034301757812 24.83698081970215 893.1949462890625 24.8751220703125 L 893.1830444335938 24.9285717010498 C 893.1776123046875 24.95236206054688 893.1720581054688 24.97613143920898 893.16650390625 24.99991226196289 C 893.15869140625 25.03313255310059 893.1506958007812 25.06635093688965 893.1439819335938 25.09993171691895 L 893.1434326171875 25.10251235961914 L 893.1429443359375 25.1050910949707 C 893.1354370117188 25.14142227172852 893.1293334960938 25.1781120300293 893.1231079101562 25.21470260620117 C 893.1189575195312 25.23882102966309 893.1148071289062 25.2629222869873 893.1112670898438 25.28264236450195 C 893.1070556640625 25.30681228637695 893.1027221679688 25.33088111877441 893.0983276367188 25.35494232177734 C 893.0924072265625 25.38754081726074 893.0863647460938 25.42008209228516 893.0812377929688 25.45370101928711 C 893.07421875 25.49922180175781 893.0690307617188 25.54532241821289 893.0635986328125 25.59135246276855 L 893.0565795898438 25.65039253234863 C 893.0537719726562 25.67264175415039 893.0508422851562 25.6948413848877 893.0478515625 25.717041015625 C 893.0439453125 25.74630165100098 893.0398559570312 25.77553176879883 893.0365600585938 25.80885124206543 C 893.031005859375 25.86330223083496 893.0269165039062 25.92559242248535 893.0225830078125 25.99153137207031 L 893.0198974609375 26.03246116638184 C 893.0181274414062 26.0582218170166 893.0159912109375 26.08384132385254 893.0137939453125 26.10947227478027 C 893.01220703125 26.12874221801758 893.0103759765625 26.14801216125488 893.0093383789062 26.16936111450195 C 893.0034790039062 26.28414154052734 893.00048828125 26.40315246582031 893.00048828125 26.52309226989746 C 893.00048828125 26.5336856842041 893.0003051757812 26.54402351379395 893 26.55422973632812 C 893.0044555664062 28.21051788330078 893.5862426757812 29.82391357421875 894.6393432617188 31.09911155700684 C 895.6832275390625 32.36314010620117 897.1370849609375 33.23902130126953 898.7327880859375 33.56535339355469 C 899.20654296875 33.66209030151367 899.6939697265625 33.71114349365234 900.1817626953125 33.71114349365234 L 910.664794921875 33.71114349365234 L 917.45458984375 33.71114349365234 C 917.5413208007812 33.71114349365234 917.63427734375 33.70772171020508 917.7219848632812 33.7042236328125 L 917.7418823242188 33.70343017578125 L 917.7618408203125 33.70343017578125 L 926.490966796875 33.70343017578125 L 926.5164184570312 33.70343017578125 L 926.5418701171875 33.70473098754883 C 926.6265258789062 33.70904159545898 926.7020263671875 33.71114349365234 926.772705078125 33.71114349365234 M 926.772705078125 34.71114349365234 C 926.67822265625 34.71114349365234 926.5843505859375 34.70819091796875 926.490966796875 34.70343017578125 L 917.7618408203125 34.70343017578125 C 917.6595458984375 34.70751190185547 917.5574951171875 34.71114349365234 917.45458984375 34.71114349365234 L 910.664794921875 34.71114349365234 L 900.1817626953125 34.71114349365234 L 900.181640625 34.71114349365234 C 899.6168212890625 34.71114349365234 899.0654296875 34.65391159057617 898.53271484375 34.54513168334961 C 894.8045654296875 33.78271102905273 892 30.48619079589844 892 26.53513145446777 L 892 26.53490257263184 C 892 26.53082084655762 892.00048828125 26.52718162536621 892.00048828125 26.52309226989746 C 892.00048828125 26.38751220703125 892.0037841796875 26.25238227844238 892.0106201171875 26.11838150024414 C 892.01318359375 26.06637191772461 892.0186767578125 26.01550102233887 892.022216796875 25.96395111083984 C 892.0279541015625 25.87832260131836 892.0330810546875 25.79225158691406 892.041748046875 25.70731163024902 C 892.0477294921875 25.64644241333008 892.0567626953125 25.58649253845215 892.0643310546875 25.52607154846191 C 892.0733642578125 25.45135116577148 892.0814208984375 25.37618255615234 892.0927734375 25.30215263366699 C 892.1025390625 25.23810195922852 892.114990234375 25.17496109008789 892.1260986328125 25.11114120483398 C 892.138427734375 25.04210090637207 892.1492919921875 24.97238159179688 892.1634521484375 24.90356254577637 C 892.1766357421875 24.83770179748535 892.1929931640625 24.77275085449219 892.207763671875 24.70757102966309 C 892.2225341796875 24.64215087890625 892.236328125 24.5765209197998 892.2529296875 24.51202201843262 C 892.270263671875 24.44457244873047 892.289794921875 24.37848091125488 892.30859375 24.31171226501465 C 892.3260498046875 24.25039100646973 892.34228515625 24.18884086608887 892.36083984375 24.12820243835449 C 892.3822021484375 24.05939102172852 892.4058837890625 23.99149131774902 892.4288330078125 23.9233512878418 C 892.4481201171875 23.86634254455566 892.4664306640625 23.80911254882812 892.48681640625 23.75279235839844 C 892.51220703125 23.68239212036133 892.5401611328125 23.61311149597168 892.5675048828125 23.54362106323242 C 892.588134765625 23.49116134643555 892.608154296875 23.43801116943359 892.6300048828125 23.38600158691406 C 892.6595458984375 23.3146915435791 892.6917724609375 23.24497222900391 892.7236328125 23.17456245422363 C 892.7454833984375 23.125732421875 892.766845703125 23.07645225524902 892.7899169921875 23.02785110473633 C 892.8238525390625 22.95608139038086 892.8603515625 22.88590240478516 892.8966064453125 22.81527137756348 C 892.9197998046875 22.77008247375488 892.942138671875 22.72443199157715 892.9659423828125 22.67969131469727 C 893.0050048828125 22.60724258422852 893.0458984375 22.5363826751709 893.0867919921875 22.46529197692871 C 893.1107177734375 22.4239616394043 893.1334228515625 22.38240242004395 893.157958984375 22.34175109863281 C 893.20166015625 22.26884269714355 893.247314453125 22.19730186462402 893.293212890625 22.12599182128906 C 893.3172607421875 22.08874130249023 893.3404541015625 22.0510425567627 893.364990234375 22.01425170898438 C 893.4136962890625 21.94112205505371 893.464111328125 21.86958122253418 893.5150146484375 21.79827117919922 C 893.5390625 21.76465225219727 893.562255859375 21.73082160949707 893.586669921875 21.69766235351562 C 893.6407470703125 21.62430191040039 893.696533203125 21.55253219604492 893.7529296875 21.48122215270996 C 893.776123046875 21.4519214630127 893.7987060546875 21.42195129394531 893.822265625 21.39310264587402 C 893.88134765625 21.31997108459473 893.9425048828125 21.24866104125977 894.004150390625 21.17757225036621 C 894.02685546875 21.15168190002441 894.048828125 21.12556266784668 894.071533203125 21.09990119934082 C 894.135986328125 21.02745246887207 894.2025146484375 20.95682144165039 894.26953125 20.88664245605469 C 894.2908935546875 20.86416244506836 894.312255859375 20.84145164489746 894.3341064453125 20.81919097900391 C 894.4041748046875 20.74765205383301 894.475830078125 20.67793083190918 894.54833984375 20.6088809967041 C 894.568603515625 20.58981132507324 894.58837890625 20.57028198242188 894.60888671875 20.55143165588379 C 894.68408203125 20.48125267028809 894.7613525390625 20.41266250610352 894.839599609375 20.34521102905273 C 894.8583984375 20.32908248901367 894.8768310546875 20.3127326965332 894.89599609375 20.29661178588867 C 894.97705078125 20.22779083251953 895.0596923828125 20.16125106811523 895.1434326171875 20.0958423614502 C 895.160400390625 20.08244132995605 895.1771240234375 20.06881141662598 895.1943359375 20.05587196350098 C 895.2806396484375 19.98910140991211 895.3690185546875 19.92460250854492 895.4583740234375 19.86101150512695 C 895.4736328125 19.85033226013184 895.4888916015625 19.83943176269531 895.5040283203125 19.82876205444336 C 895.595947265625 19.76471138000488 895.6895751953125 19.70248222351074 895.7840576171875 19.64184188842773 C 895.7977294921875 19.63344192504883 895.8111572265625 19.62481117248535 895.8245849609375 19.61618232727051 C 895.921630859375 19.55509185791016 896.020263671875 19.49604225158691 896.1199951171875 19.43904113769531 C 896.1318359375 19.43222236633301 896.1434326171875 19.4251823425293 896.1552734375 19.41859245300293 C 896.25732421875 19.36068153381348 896.3609619140625 19.30527114868164 896.4654541015625 19.25189208984375 C 896.4757080078125 19.24667167663574 896.48583984375 19.24145126342773 896.4962158203125 19.23622131347656 C 896.6029052734375 19.18217086791992 896.711181640625 19.1306209564209 896.8206787109375 19.08133125305176 C 896.8291015625 19.07747268676758 896.8375244140625 19.0738410949707 896.845947265625 19.06975173950195 C 896.95751953125 19.02001190185547 897.0701904296875 18.97278213500977 897.183837890625 18.92803192138672 C 897.19091796875 18.92508125305176 897.197998046875 18.92236137390137 897.2049560546875 18.91963195800781 C 897.3206787109375 18.87466239929199 897.4375 18.83196258544922 897.555419921875 18.7919921875 C 897.5614013671875 18.78995132446289 897.5670166015625 18.78813171386719 897.57275390625 18.78632164001465 C 897.6922607421875 18.74589157104492 897.8128662109375 18.70865249633789 897.934814453125 18.67390251159668 C 897.9393310546875 18.67253112792969 897.94384765625 18.67140197753906 897.9486083984375 18.6700325012207 C 898.071533203125 18.63529205322266 898.1956787109375 18.60326194763184 898.3211669921875 18.57397079467773 L 898.332275390625 18.57147216796875 C 898.4581298828125 18.54240226745605 898.585205078125 18.51605224609375 898.71337890625 18.49312210083008 L 898.7236328125 18.4910717010498 C 898.852294921875 18.4679126739502 898.9820556640625 18.44792175292969 899.1124267578125 18.4308910369873 L 899.121826171875 18.42952156066895 C 899.25244140625 18.41272163391113 899.38427734375 18.39909172058105 899.517333984375 18.38819122314453 L 899.526123046875 18.38751220703125 C 899.6588134765625 18.37706184387207 899.79248046875 18.36979103088379 899.927001953125 18.36548233032227 L 899.93115234375 18.3652515411377 L 899.9327392578125 18.35867118835449 C 900.08642578125 17.68187141418457 900.3240966796875 17.03733253479004 900.63427734375 16.43571090698242 L 900.6435546875 16.41777229309082 C 900.6927490234375 16.32284164428711 900.743896484375 16.22927093505859 900.796630859375 16.13661193847656 C 900.801513671875 16.12820243835449 900.806396484375 16.11957168579102 900.8114013671875 16.11117172241211 C 900.8648681640625 16.01806259155273 900.9195556640625 15.9260721206665 900.9765625 15.83546161651611 C 900.9781494140625 15.83319187164307 900.9796142578125 15.83114147186279 900.9808349609375 15.82864189147949 C 901.2176513671875 15.45277214050293 901.4840087890625 15.09734153747559 901.77734375 14.76599216461182 C 901.782958984375 14.75918197631836 901.7884521484375 14.75259208679199 901.7943115234375 14.74623203277588 C 901.8565673828125 14.67605209350586 901.92041015625 14.60746192932129 901.9852294921875 14.53979206085205 C 902.0042724609375 14.52003192901611 902.02294921875 14.50004196166992 902.041748046875 14.48051166534424 C 902.10205078125 14.41828155517578 902.163818359375 14.357421875 902.2259521484375 14.29723167419434 C 902.2506103515625 14.2736120223999 902.2752685546875 14.24999141693115 902.300048828125 14.22683143615723 C 902.36083984375 14.16937160491943 902.4224853515625 14.11259174346924 902.4854736328125 14.05695152282715 C 902.5118408203125 14.03356170654297 902.53857421875 14.01062202453613 902.565185546875 13.98768138885498 C 902.6290283203125 13.93294143676758 902.6927490234375 13.87821197509766 902.7579345703125 13.82529163360596 C 902.7816162109375 13.80599212646484 902.8056640625 13.78782176971436 902.82958984375 13.76897144317627 C 903.0435791015625 13.59932136535645 903.266357421875 13.44034194946289 903.4970703125 13.29226207733154 C 903.5372314453125 13.26637172698975 903.5772705078125 13.23980140686035 903.6181640625 13.21482181549072 C 903.6756591796875 13.17916202545166 903.7342529296875 13.1453218460083 903.792724609375 13.11125183105469 C 903.84130859375 13.08287143707275 903.8897705078125 13.05471134185791 903.9388427734375 13.02700138092041 C 903.9949951171875 12.99611186981201 904.0517578125 12.96568202972412 904.10888671875 12.93570137023926 C 904.1622314453125 12.9077615737915 904.2156982421875 12.88028144836426 904.26953125 12.85348129272461 C 904.324951171875 12.82600212097168 904.380615234375 12.79875183105469 904.436767578125 12.77241134643555 C 904.4952392578125 12.74492168426514 904.5540771484375 12.71881198883057 904.6131591796875 12.69269180297852 C 904.6666259765625 12.66907215118408 904.719970703125 12.64545154571533 904.77392578125 12.622971534729 C 904.841552734375 12.594801902771 904.9100341796875 12.56869220733643 904.9783935546875 12.54257202148438 C 905.0257568359375 12.52440166473389 905.072509765625 12.50532150268555 905.1199951171875 12.48783206939697 C 905.2340087890625 12.44673156738281 905.34912109375 12.40744209289551 905.4656982421875 12.37110137939453 C 905.4979248046875 12.36111164093018 905.5302734375 12.35270214080811 905.562744140625 12.34316158294678 C 905.651123046875 12.3165922164917 905.740234375 12.29047203063965 905.8304443359375 12.26708221435547 C 905.8768310546875 12.25482177734375 905.924072265625 12.2441520690918 905.970703125 12.23279190063477 C 906.0477294921875 12.21416187286377 906.12451171875 12.19577217102051 906.2022705078125 12.17942142486572 C 906.252685546875 12.16874217987061 906.3033447265625 12.15898132324219 906.3546142578125 12.14921188354492 C 906.43017578125 12.13468170166016 906.50634765625 12.12082195281982 906.5830078125 12.10856151580811 C 906.63427734375 12.09993171691895 906.6856689453125 12.09198188781738 906.737548828125 12.08471202850342 C 906.81591796875 12.07336139678955 906.895263671875 12.06359195709229 906.9744873046875 12.05451202392578 C 907.024169921875 12.04905128479004 907.0736083984375 12.04315185546875 907.1239013671875 12.03838157653809 C 907.2109375 12.02998161315918 907.2984619140625 12.02385139465332 907.3861083984375 12.01840209960938 C 907.4288330078125 12.0156717300415 907.4713134765625 12.01204204559326 907.5145263671875 12.00999164581299 C 907.64501953125 12.00386142730713 907.776611328125 12.00000190734863 907.9088134765625 12.00000190734863 C 908.0418701171875 12.00000190734863 908.1737060546875 12.00386142730713 908.3050537109375 12.00999164581299 C 908.348876953125 12.01204204559326 908.391845703125 12.01590156555176 908.435302734375 12.01862144470215 C 908.522705078125 12.02407169342041 908.6102294921875 12.03020191192627 908.697021484375 12.03861141204834 C 908.7479248046875 12.043381690979 908.7987060546875 12.04974174499512 908.849365234375 12.05541133880615 C 908.927734375 12.06427192687988 909.006103515625 12.07404136657715 909.0841064453125 12.08517169952393 C 909.13720703125 12.09289169311523 909.1904296875 12.10129165649414 909.243408203125 12.1099214553833 C 909.31787109375 12.12218189239502 909.39208984375 12.13559150695801 909.46630859375 12.14966201782227 C 909.51953125 12.16011142730713 909.572998046875 12.17056179046631 909.6260986328125 12.18191146850586 C 909.6993408203125 12.19736194610596 909.77197265625 12.21462154388428 909.8447265625 12.23211193084717 C 909.8968505859375 12.24483203887939 909.9488525390625 12.2570915222168 910.0003662109375 12.27049160003662 C 910.074951171875 12.29025173187256 910.1488037109375 12.31205177307129 910.2227783203125 12.33385181427002 C 910.2708740234375 12.34771156311035 910.3192138671875 12.36111164093018 910.3670654296875 12.37610149383545 C 910.4617919921875 12.40585136413574 910.5556640625 12.43810176849365 910.6488037109375 12.47126197814941 C 910.718017578125 12.49601173400879 910.786376953125 12.52190208435059 910.854736328125 12.54825210571289 C 910.9222412109375 12.57436180114746 910.990234375 12.60026168823242 911.0567626953125 12.62796211242676 C 911.1165771484375 12.65294170379639 911.1754150390625 12.67974185943604 911.2347412109375 12.70609188079834 C 911.2877197265625 12.72994136810303 911.341064453125 12.75310134887695 911.3936767578125 12.7780818939209 C 911.4561767578125 12.8076114654541 911.5181884765625 12.83850193023682 911.5799560546875 12.8696117401123 C 911.6265869140625 12.89323139190674 911.6734619140625 12.91662216186523 911.7197265625 12.94115161895752 C 911.7843017578125 12.97522163391113 911.848388671875 13.01019191741943 911.9119873046875 13.0458517074585 C 911.9525146484375 13.06879138946533 911.992919921875 13.09218215942383 912.0330810546875 13.11557197570801 C 912.1002197265625 13.15486145019531 912.167236328125 13.19483184814453 912.2333984375 13.23594188690186 C 912.2655029296875 13.25592136383057 912.2969970703125 13.27659130096436 912.32861328125 13.29703140258789 C 912.401123046875 13.34359169006348 912.47314453125 13.39060211181641 912.5443115234375 13.43943214416504 C 912.5584716796875 13.4492015838623 912.572265625 13.45942211151123 912.58642578125 13.46941184997559 C 913.0438232421875 13.78850173950195 913.4666748046875 14.15302181243896 913.849365234375 14.55705165863037 L 913.8511962890625 14.55886173248291 C 915.1593017578125 15.94038200378418 915.9908447265625 17.77658081054688 916.08154296875 19.8065013885498 C 916.9761962890625 19.0295524597168 918.10546875 18.51583099365234 919.3504638671875 18.38955116271973 C 919.549072265625 18.36957168579102 919.7506103515625 18.35912132263184 919.95458984375 18.35912132263184 C 920.158447265625 18.35912132263184 920.3599853515625 18.36957168579102 920.5587158203125 18.38955116271973 C 923.5386962890625 18.69206237792969 925.8636474609375 21.20664215087891 925.8636474609375 24.2640209197998 L 925.8636474609375 24.26424217224121 C 925.8636474609375 24.2912712097168 925.86181640625 24.31784248352051 925.861572265625 24.34464263916016 C 926.15771484375 24.29263114929199 926.4617919921875 24.2640209197998 926.772705078125 24.2640209197998 C 929.6597900390625 24.2640209197998 932 26.60258102416992 932 29.48758125305176 C 932 32.24063110351562 929.868408203125 34.49448013305664 927.164794921875 34.69502258300781 L 927.164794921875 34.70320129394531 L 927.164794921875 34.70343017578125 L 927.0545654296875 34.70343017578125 C 926.9610595703125 34.70819091796875 926.8673095703125 34.71114349365234 926.772705078125 34.71114349365234 Z" stroke="none" fill="#c9c9c9"/>
    </g>
  </g>
</svg>
