<svg xmlns="http://www.w3.org/2000/svg" width="41.058" height="40" viewBox="0 0 41.058 40">
  <g id="_9" data-name="9" transform="translate(-1111.42 208)">
    <path id="Caminho_7328" data-name="Caminho 7328" d="M1196.727-203.7a1.273,1.273,0,0,1-1.364,1.156h0A1.273,1.273,0,0,1,1194-203.7v-3.142a1.273,1.273,0,0,1,1.364-1.156h0a1.273,1.273,0,0,1,1.364,1.156Z" transform="translate(-63.364)" fill="#fecb2f"/>
    <path id="Caminho_7329" data-name="Caminho 7329" d="M1245.518-179.74a1.273,1.273,0,0,1-1.782-.147h0a1.273,1.273,0,0,1-.147-1.782l2.222-2.222a1.273,1.273,0,0,1,1.782.147h0a1.273,1.273,0,0,1,.146,1.782Z" transform="translate(-101.451 -18.398)" fill="#fecb2f"/>
    <path id="Caminho_7330" data-name="Caminho 7330" d="M1265.156-123.273a1.273,1.273,0,0,1-1.156-1.364h0a1.273,1.273,0,0,1,1.156-1.363h3.142a1.273,1.273,0,0,1,1.156,1.364h0a1.273,1.273,0,0,1-1.156,1.364Z" transform="translate(-117.455 -63.364)" fill="#fecb2f"/>
    <path id="Caminho_7331" data-name="Caminho 7331" d="M1113.156-123.273a1.273,1.273,0,0,1-1.156-1.364h0a1.273,1.273,0,0,1,1.156-1.364h3.142a1.272,1.272,0,0,1,1.156,1.363h0a1.273,1.273,0,0,1-1.156,1.364Z" transform="translate(0 -63.364)" fill="#fecb2f"/>
    <path id="Caminho_7332" data-name="Caminho 7332" d="M1136.11-181.962a1.273,1.273,0,0,1,.147-1.782h0a1.273,1.273,0,0,1,1.782-.147l2.222,2.222a1.272,1.272,0,0,1-.147,1.782h0a1.273,1.273,0,0,1-1.782.147Z" transform="translate(-18.398 -18.398)" fill="#fecb2f"/>
    <path id="Caminho_7333" data-name="Caminho 7333" d="M1196.727-203.7a1.273,1.273,0,0,1-1.364,1.156h0A1.273,1.273,0,0,1,1194-203.7v-3.142a1.273,1.273,0,0,1,1.364-1.156h0a1.273,1.273,0,0,1,1.364,1.156Z" transform="translate(-63.364)" fill="#fecb2f"/>
    <path id="Caminho_7334" data-name="Caminho 7334" d="M1245.518-179.74a1.273,1.273,0,0,1-1.782-.147h0a1.273,1.273,0,0,1-.147-1.782l2.222-2.222a1.273,1.273,0,0,1,1.782.147h0a1.273,1.273,0,0,1,.146,1.782Z" transform="translate(-101.451 -18.398)" fill="#fecb2f"/>
    <path id="Caminho_7335" data-name="Caminho 7335" d="M1265.156-123.273a1.273,1.273,0,0,1-1.156-1.364h0a1.273,1.273,0,0,1,1.156-1.363h3.142a1.273,1.273,0,0,1,1.156,1.364h0a1.273,1.273,0,0,1-1.156,1.364Z" transform="translate(-117.455 -63.364)" fill="#fecb2f"/>
    <path id="Caminho_7336" data-name="Caminho 7336" d="M1113.156-123.273a1.273,1.273,0,0,1-1.156-1.364h0a1.273,1.273,0,0,1,1.156-1.364h3.142a1.272,1.272,0,0,1,1.156,1.363h0a1.273,1.273,0,0,1-1.156,1.364Z" transform="translate(0 -63.364)" fill="#fecb2f"/>
    <path id="Caminho_7337" data-name="Caminho 7337" d="M1136.11-181.962a1.273,1.273,0,0,1,.147-1.782h0a1.273,1.273,0,0,1,1.782-.147l2.222,2.222a1.272,1.272,0,0,1-.147,1.782h0a1.273,1.273,0,0,1-1.782.147Z" transform="translate(-18.398 -18.398)" fill="#fecb2f"/>
    <g id="Caminho_7338" data-name="Caminho 7338" transform="translate(-24.727 -24.727)" fill="#ffe269" stroke-miterlimit="10">
      <path d="M 1166.905395507812 -156.5000152587891 L 1146.54931640625 -156.5000152587891 C 1145.207763671875 -158.5105590820312 1144.500122070312 -160.8464508056641 1144.500122070312 -163.2727355957031 C 1144.500122070312 -166.5387420654297 1145.77197265625 -169.6092834472656 1148.081420898438 -171.9187316894531 C 1150.390869140625 -174.2281494140625 1153.461303710938 -175.5000152587891 1156.727294921875 -175.5000152587891 C 1159.993286132812 -175.5000152587891 1163.063842773438 -174.2281494140625 1165.373291015625 -171.9187316894531 C 1167.682739257812 -169.6092987060547 1168.95458984375 -166.5387573242188 1168.95458984375 -163.2727355957031 C 1168.95458984375 -160.8464660644531 1168.246948242188 -158.5105743408203 1166.905395507812 -156.5000152587891 Z" stroke="none"/>
      <path d="M 1166.63427734375 -157.0000152587891 C 1167.826904296875 -158.8770751953125 1168.45458984375 -161.0347595214844 1168.45458984375 -163.2727355957031 C 1168.45458984375 -166.4051971435547 1167.234741210938 -169.3501739501953 1165.019775390625 -171.5651702880859 C 1162.8046875 -173.7801666259766 1159.859741210938 -175.0000152587891 1156.727294921875 -175.0000152587891 C 1153.594848632812 -175.0000152587891 1150.64990234375 -173.7801666259766 1148.434936523438 -171.5651702880859 C 1146.219970703125 -169.3501739501953 1145.000122070312 -166.4051971435547 1145.000122070312 -163.2727355957031 C 1145.000122070312 -161.0347595214844 1145.627807617188 -158.8770751953125 1146.820434570312 -157.0000152587891 L 1166.63427734375 -157.0000152587891 M 1167.16943359375 -156.0000152587891 L 1146.285278320312 -156.0000152587891 C 1144.846435546875 -158.0618286132812 1144.000122070312 -160.5677337646484 1144.000122070312 -163.2727355957031 C 1144.000122070312 -170.3018188476562 1149.698364257812 -176.0000152587891 1156.727294921875 -176.0000152587891 C 1163.75634765625 -176.0000152587891 1169.45458984375 -170.3018188476562 1169.45458984375 -163.2727355957031 C 1169.45458984375 -160.5677337646484 1168.608276367188 -158.0618286132812 1167.16943359375 -156.0000152587891 Z" stroke="none" fill="#fecb2f"/>
    </g>
    <g id="Grupo_8612" data-name="Grupo 8612" transform="translate(1112 -181.636)">
      <path id="Caminho_7521" data-name="Caminho 7521" d="M1157.036,152h-31.527a1.371,1.371,0,1,0,0,2.727h31.527a1.371,1.371,0,1,0,0-2.727Z" transform="translate(-1121.272 -146.545)" fill="#f0f0f0"/>
      <g id="Grupo_8638" data-name="Grupo 8638">
        <path id="Caminho_7520" data-name="Caminho 7520" d="M1152,129.364a1.442,1.442,0,0,1-1.509,1.364h-36.982a1.442,1.442,0,0,1-1.509-1.364h0a1.442,1.442,0,0,1,1.509-1.364h36.982a1.442,1.442,0,0,1,1.509,1.364Z" transform="translate(-1112 -128)" fill="#f0f0f0"/>
        <path id="Subtração_118" data-name="Subtração 118" d="M-9378.022,1172.772h-39.956a1.468,1.468,0,0,1,1.488-1.135h36.981a1.467,1.467,0,0,1,1.486,1.133Z" transform="translate(9418 -1171.636)" fill="#c9c9c9" stroke="rgba(0,0,0,0)" stroke-miterlimit="10" stroke-width="1"/>
      </g>
      <path id="Subtração_119" data-name="Subtração 119" d="M-9382.739,1172.819h-34.52a1.47,1.47,0,0,1,1.494-1.182h31.528a1.473,1.473,0,0,1,1.5,1.181Z" transform="translate(9420 -1166.182)" fill="#c9c9c9" stroke="rgba(0,0,0,0)" stroke-miterlimit="10" stroke-width="1"/>
      <g id="Grupo_8639" data-name="Grupo 8639">
        <path id="Caminho_7524" data-name="Caminho 7524" d="M1176.673,176h-15.163a1.371,1.371,0,1,0,0,2.727h15.163a1.371,1.371,0,1,0,0-2.727Z" transform="translate(-1149.091 -165.091)" fill="#f0f0f0"/>
        <path id="Subtração_120" data-name="Subtração 120" d="M-9398.917,1172.864h-18.166a1.454,1.454,0,0,1,1.5-1.227h15.165a1.455,1.455,0,0,1,1.5,1.226Z" transform="translate(9428 -1160.727)" fill="#c9c9c9" stroke="rgba(0,0,0,0)" stroke-miterlimit="10" stroke-width="1"/>
      </g>
    </g>
  </g>
</svg>
