<svg xmlns="http://www.w3.org/2000/svg" width="41.058" height="40.75" viewBox="0 0 41.058 40.75">
  <g id="_9n" data-name="9n" transform="translate(-1111.42 -11.25)">
    <path id="Caminho_7244" data-name="Caminho 7244" d="M1157.074,39.273a16.7,16.7,0,0,0,3.653-6.412A16.729,16.729,0,0,1,1139.867,12a16.724,16.724,0,0,0-7.5,27.273Z" transform="translate(-12.364)" fill="#fff" stroke="#c9c9c9" stroke-miterlimit="10" stroke-width="1"/>
    <g id="Grupo_8598" data-name="Grupo 8598" transform="translate(1112 38.364)">
      <path id="Caminho_7248" data-name="Caminho 7248" d="M1176.673,176h-15.163a1.371,1.371,0,1,0,0,2.727h15.163a1.371,1.371,0,1,0,0-2.727Z" transform="translate(-1149.091 -165.091)" fill="#f0f0f0"/>
      <g id="Grupo_8637" data-name="Grupo 8637">
        <path id="Caminho_7245" data-name="Caminho 7245" d="M1152,129.364a1.442,1.442,0,0,1-1.509,1.364h-36.982a1.442,1.442,0,0,1-1.509-1.364h0a1.442,1.442,0,0,1,1.509-1.364h36.982a1.442,1.442,0,0,1,1.509,1.364Z" transform="translate(-1112 -128)" fill="#f0f0f0"/>
        <path id="Subtração_115" data-name="Subtração 115" d="M-9378.022,1172.772h-39.956a1.468,1.468,0,0,1,1.488-1.135h36.981a1.467,1.467,0,0,1,1.486,1.133Z" transform="translate(9418 -1171.636)" fill="#c9c9c9" stroke="rgba(0,0,0,0)" stroke-miterlimit="10" stroke-width="1"/>
      </g>
      <g id="Grupo_8636" data-name="Grupo 8636">
        <path id="Caminho_7247" data-name="Caminho 7247" d="M1157.036,152h-31.527a1.371,1.371,0,1,0,0,2.727h31.527a1.371,1.371,0,1,0,0-2.727Z" transform="translate(-1121.273 -146.545)" fill="#f0f0f0"/>
        <path id="Subtração_116" data-name="Subtração 116" d="M-9382.739,1172.819h-34.52a1.47,1.47,0,0,1,1.494-1.182h31.528a1.473,1.473,0,0,1,1.5,1.181Z" transform="translate(9420 -1166.182)" fill="#c9c9c9" stroke="rgba(0,0,0,0)" stroke-miterlimit="10" stroke-width="1"/>
      </g>
      <g id="Grupo_8635" data-name="Grupo 8635">
        <path id="Caminho_7518" data-name="Caminho 7518" d="M1176.673,176h-15.163a1.371,1.371,0,1,0,0,2.727h15.163a1.371,1.371,0,1,0,0-2.727Z" transform="translate(-1149.091 -165.091)" fill="#f0f0f0"/>
        <path id="Subtração_117" data-name="Subtração 117" d="M-9398.917,1172.864h-18.166a1.454,1.454,0,0,1,1.5-1.227h15.165a1.455,1.455,0,0,1,1.5,1.226Z" transform="translate(9428 -1160.727)" fill="#c9c9c9" stroke="rgba(0,0,0,0)" stroke-miterlimit="10" stroke-width="1"/>
      </g>
    </g>
  </g>
</svg>
